<?xml version="1.0" encoding="UTF-8" standalone="no"?>
<!-- Created with Inkscape (http://www.inkscape.org/) -->

<svg
   xmlns:dc="http://purl.org/dc/elements/1.1/"
   xmlns:cc="http://creativecommons.org/ns#"
   xmlns:rdf="http://www.w3.org/1999/02/22-rdf-syntax-ns#"
   xmlns:svg="http://www.w3.org/2000/svg"
   xmlns="http://www.w3.org/2000/svg"
   xmlns:xlink="http://www.w3.org/1999/xlink"
   version="1.1"
   width="113"
   height="22"
   id="svg10478">
  <defs
     id="defs10480" />
  <metadata
     id="metadata10483">
    <rdf:RDF>
      <cc:Work
         rdf:about="">
        <dc:format>image/svg+xml</dc:format>
        <dc:type
           rdf:resource="http://purl.org/dc/dcmitype/StillImage" />
        <dc:title></dc:title>
      </cc:Work>
    </rdf:RDF>
  </metadata>
  <g
     transform="translate(-352.48842,-515.17801)"
     id="layer1">
    <g
       transform="matrix(2,0,0,2,-381.59306,262.12714)"
       id="g9633">
      <defs
         id="defs9635">
        <g
           id="g9637">
          <symbol
             id="textext-4b9708de-0"
             style="overflow:visible">
            <path
               d="m 3.65625,-3.984375 0.859375,0 c 0.203125,0 0.296875,0 0.296875,-0.203125 0,-0.109375 -0.09375,-0.109375 -0.265625,-0.109375 l -0.828125,0 C 3.828125,-4.875 3.8125,-4.859375 3.921875,-5.4375 c 0.046875,-0.203125 0.1875,-0.90625 0.25,-1.03125 0.078125,-0.1875 0.25,-0.34375 0.46875,-0.34375 0.03125,0 0.296875,0 0.484375,0.1875 -0.4375,0.03125 -0.546875,0.390625 -0.546875,0.53125 0,0.234375 0.1875,0.359375 0.375,0.359375 C 5.21875,-5.734375 5.5,-5.96875 5.5,-6.34375 c 0,-0.453125 -0.453125,-0.6875 -0.859375,-0.6875 -0.34375,0 -0.96875,0.1875 -1.265625,1.171875 -0.0625,0.203125 -0.09375,0.3125 -0.328125,1.5625 l -0.6875,0 c -0.203125,0 -0.3125,0 -0.3125,0.1875 0,0.125 0.09375,0.125 0.28125,0.125 l 0.65625,0 -0.734375,3.9375 c -0.1875,0.96875 -0.359375,1.875 -0.875,1.875 -0.046875,0 -0.28125,0 -0.484375,-0.1875 C 1.359375,1.609375 1.453125,1.25 1.453125,1.109375 1.453125,0.875 1.265625,0.75 1.078125,0.75 0.8125,0.75 0.53125,0.984375 0.53125,1.359375 c 0,0.4375 0.4375,0.6875 0.84375,0.6875 0.546875,0 0.953125,-0.59375 1.125,-0.96875 0.328125,-0.625 0.546875,-1.828125 0.5625,-1.90625 z m 0,0"
               id="path9640"
               style="stroke:none" />
          </symbol>
          <symbol
             id="textext-4b9708de-1"
             style="overflow:visible">
            <path
               d="m 6.4375,-6.921875 c 0,-0.03125 -0.03125,-0.109375 -0.125,-0.109375 -0.046875,0 -0.046875,0.015625 -0.171875,0.15625 L 5.65625,-6.3125 c -0.25,-0.46875 -0.765625,-0.71875 -1.421875,-0.71875 -1.265625,0 -2.453125,1.15625 -2.453125,2.359375 0,0.796875 0.515625,1.265625 1.03125,1.40625 l 1.0625,0.28125 c 0.375,0.09375 0.921875,0.25 0.921875,1.0625 0,0.890625 -0.8125,1.828125 -1.796875,1.828125 -0.640625,0 -1.75,-0.21875 -1.75,-1.453125 0,-0.234375 0.0625,-0.484375 0.0625,-0.53125 0.015625,-0.046875 0.015625,-0.0625 0.015625,-0.078125 0,-0.09375 -0.0625,-0.109375 -0.109375,-0.109375 -0.046875,0 -0.078125,0.015625 -0.109375,0.046875 -0.03125,0.03125 -0.59375,2.3125 -0.59375,2.34375 0,0.046875 0.046875,0.09375 0.109375,0.09375 0.046875,0 0.0625,-0.015625 0.1875,-0.15625 L 1.296875,-0.5 c 0.421875,0.578125 1.109375,0.71875 1.6875,0.71875 1.359375,0 2.53125,-1.328125 2.53125,-2.5625 0,-0.6875 -0.34375,-1.03125 -0.484375,-1.171875 C 4.796875,-3.734375 4.640625,-3.78125 3.765625,-4 3.53125,-4.0625 3.1875,-4.171875 3.09375,-4.1875 2.828125,-4.28125 2.484375,-4.5625 2.484375,-5.09375 c 0,-0.8125 0.796875,-1.65625 1.75,-1.65625 0.8125,0 1.421875,0.4375 1.421875,1.546875 0,0.3125 -0.03125,0.5 -0.03125,0.5625 0,0 0,0.09375 0.109375,0.09375 0.109375,0 0.125,-0.03125 0.15625,-0.203125 z m 0,0"
               id="path9643"
               style="stroke:none" />
          </symbol>
          <symbol
             id="textext-4b9708de-2"
             style="overflow:visible">
            <path
               d="M 1.59375,-0.78125 C 1.5,-0.390625 1.46875,-0.3125 0.6875,-0.3125 c -0.171875,0 -0.265625,0 -0.265625,0.203125 C 0.421875,0 0.515625,0 0.6875,0 L 4.25,0 C 5.828125,0 7,-1.171875 7,-2.15625 7,-2.875 6.421875,-3.453125 5.453125,-3.5625 6.484375,-3.75 7.53125,-4.484375 7.53125,-5.4375 c 0,-0.734375 -0.65625,-1.375 -1.84375,-1.375 l -3.359375,0 c -0.1875,0 -0.28125,0 -0.28125,0.203125 0,0.109375 0.09375,0.109375 0.28125,0.109375 0.015625,0 0.203125,0 0.375,0.015625 0.171875,0.03125 0.265625,0.03125 0.265625,0.171875 0,0.03125 -0.015625,0.0625 -0.03125,0.1875 z m 1.5,-2.875 0.625,-2.46875 C 3.8125,-6.46875 3.828125,-6.5 4.25,-6.5 l 1.296875,0 c 0.875,0 1.078125,0.59375 1.078125,1.03125 0,0.875 -0.859375,1.8125 -2.0625,1.8125 z m -0.4375,3.34375 c -0.140625,0 -0.15625,0 -0.21875,0 -0.109375,-0.015625 -0.140625,-0.03125 -0.140625,-0.109375 0,-0.03125 0,-0.046875 0.0625,-0.21875 l 0.6875,-2.78125 1.875,0 c 0.953125,0 1.15625,0.734375 1.15625,1.15625 C 6.078125,-1.28125 5.1875,-0.3125 4,-0.3125 z m 0,0"
               id="path9646"
               style="stroke:none" />
          </symbol>
          <symbol
             id="textext-4b9708de-3"
             style="overflow:visible">
            <path
               d="m 2.03125,-3.296875 c 0.03125,-0.0625 0.046875,-0.125 0.046875,-0.21875 0,-0.21875 -0.1875,-0.375 -0.40625,-0.375 -0.28125,0 -0.34375,0.21875 -0.375,0.3125 L 0.375,-0.5625 c -0.015625,0.03125 -0.046875,0.109375 -0.046875,0.125 0,0.078125 0.21875,0.15625 0.28125,0.15625 0.046875,0 0.078125,-0.046875 0.09375,-0.109375 z m 0,0"
               id="path9649"
               style="stroke:none" />
          </symbol>
          <symbol
             id="textext-4b9708de-4"
             style="overflow:visible">
            <path
               d="m 2.265625,-4.359375 c 0,-0.109375 -0.09375,-0.265625 -0.28125,-0.265625 -0.1875,0 -0.390625,0.1875 -0.390625,0.390625 0,0.109375 0.078125,0.265625 0.28125,0.265625 0.1875,0 0.390625,-0.203125 0.390625,-0.390625 z M 0.84375,-0.8125 c -0.03125,0.09375 -0.0625,0.171875 -0.0625,0.296875 0,0.328125 0.265625,0.578125 0.65625,0.578125 0.6875,0 1,-0.953125 1,-1.0625 0,-0.09375 -0.09375,-0.09375 -0.109375,-0.09375 -0.09375,0 -0.109375,0.046875 -0.140625,0.125 -0.15625,0.5625 -0.453125,0.84375 -0.734375,0.84375 -0.140625,0 -0.171875,-0.09375 -0.171875,-0.25 0,-0.15625 0.046875,-0.28125 0.109375,-0.4375 C 1.46875,-1 1.546875,-1.1875 1.609375,-1.375 1.671875,-1.546875 1.9375,-2.171875 1.953125,-2.265625 1.984375,-2.328125 2,-2.40625 2,-2.484375 2,-2.8125 1.71875,-3.078125 1.34375,-3.078125 0.640625,-3.078125 0.328125,-2.125 0.328125,-2 c 0,0.078125 0.09375,0.078125 0.125,0.078125 0.09375,0 0.09375,-0.03125 0.125,-0.109375 C 0.75,-2.625 1.0625,-2.875 1.3125,-2.875 c 0.109375,0 0.171875,0.046875 0.171875,0.234375 0,0.171875 -0.03125,0.265625 -0.203125,0.703125 z m 0,0"
               id="path9652"
               style="stroke:none" />
          </symbol>
          <symbol
             id="textext-4b9708de-5"
             style="overflow:visible">
            <path
               d="m 6.84375,-3.265625 c 0.15625,0 0.34375,0 0.34375,-0.1875 C 7.1875,-3.65625 7,-3.65625 6.859375,-3.65625 l -5.96875,0 c -0.140625,0 -0.328125,0 -0.328125,0.203125 0,0.1875 0.1875,0.1875 0.328125,0.1875 z m 0.015625,1.9375 c 0.140625,0 0.328125,0 0.328125,-0.203125 0,-0.1875 -0.1875,-0.1875 -0.34375,-0.1875 l -5.953125,0 c -0.140625,0 -0.328125,0 -0.328125,0.1875 0,0.203125 0.1875,0.203125 0.328125,0.203125 z m 0,0"
               id="path9655"
               style="stroke:none" />
          </symbol>
          <symbol
             id="textext-4b9708de-6"
             style="overflow:visible">
            <path
               d="m 4.078125,-2.296875 2.78125,0 C 7,-2.296875 7.1875,-2.296875 7.1875,-2.5 7.1875,-2.6875 7,-2.6875 6.859375,-2.6875 l -2.78125,0 0,-2.796875 c 0,-0.140625 0,-0.328125 -0.203125,-0.328125 -0.203125,0 -0.203125,0.1875 -0.203125,0.328125 l 0,2.796875 -2.78125,0 c -0.140625,0 -0.328125,0 -0.328125,0.1875 0,0.203125 0.1875,0.203125 0.328125,0.203125 l 2.78125,0 0,2.796875 c 0,0.140625 0,0.328125 0.203125,0.328125 0.203125,0 0.203125,-0.1875 0.203125,-0.328125 z m 0,0"
               id="path9658"
               style="stroke:none" />
          </symbol>
        </g>
      </defs>
      <g
         id="textext-4b9708de-7">
        <g
           id="g9661"
           style="fill:#000000;fill-opacity:1">
          <use
             id="use9663"
             x="366.71799"
             y="134.765"
             width="744.09448"
             height="1052.3622"
             xlink:href="#textext-4b9708de-0" />
        </g>
        <g
           id="g9665"
           style="fill:#000000;fill-opacity:1">
          <use
             id="use9667"
             x="372.668"
             y="130.651"
             width="744.09448"
             height="1052.3622"
             xlink:href="#textext-4b9708de-3" />
        </g>
        <g
           id="g9669"
           style="fill:#000000;fill-opacity:1">
          <use
             id="use9671"
             x="371.59601"
             y="137.228"
             width="744.09448"
             height="1052.3622"
             xlink:href="#textext-4b9708de-4" />
        </g>
        <g
           id="g9673"
           style="fill:#000000;fill-opacity:1">
          <use
             id="use9675"
             x="378.23001"
             y="134.765"
             width="744.09448"
             height="1052.3622"
             xlink:href="#textext-4b9708de-5" />
        </g>
        <g
           id="g9677"
           style="fill:#000000;fill-opacity:1">
          <use
             id="use9679"
             x="388.74701"
             y="134.765"
             width="744.09448"
             height="1052.3622"
             xlink:href="#textext-4b9708de-1" />
        </g>
        <g
           id="g9681"
           style="fill:#000000;fill-opacity:1">
          <use
             id="use9683"
             x="395.4339"
             y="134.765"
             width="744.09448"
             height="1052.3622"
             xlink:href="#textext-4b9708de-0" />
        </g>
        <g
           id="g9685"
           style="fill:#000000;fill-opacity:1">
          <use
             id="use9687"
             x="400.30701"
             y="136.259"
             width="744.09448"
             height="1052.3622"
             xlink:href="#textext-4b9708de-4" />
        </g>
        <g
           id="g9689"
           style="fill:#000000;fill-opacity:1">
          <use
             id="use9691"
             x="405.83801"
             y="134.765"
             width="744.09448"
             height="1052.3622"
             xlink:href="#textext-4b9708de-6" />
        </g>
        <g
           id="g9693"
           style="fill:#000000;fill-opacity:1">
          <use
             id="use9695"
             x="415.80099"
             y="134.765"
             width="744.09448"
             height="1052.3622"
             xlink:href="#textext-4b9708de-2" />
        </g>
      </g>
    </g>
  </g>
</svg>
