<?xml version="1.0" encoding="UTF-8" standalone="no"?>
<!-- Created with Inkscape (http://www.inkscape.org/) -->

<svg
   xmlns:dc="http://purl.org/dc/elements/1.1/"
   xmlns:cc="http://creativecommons.org/ns#"
   xmlns:rdf="http://www.w3.org/1999/02/22-rdf-syntax-ns#"
   xmlns:svg="http://www.w3.org/2000/svg"
   xmlns="http://www.w3.org/2000/svg"
   xmlns:xlink="http://www.w3.org/1999/xlink"
   version="1.1"
   width="487"
   height="72"
   id="svg11789">
  <defs
     id="defs11791" />
  <metadata
     id="metadata11794">
    <rdf:RDF>
      <cc:Work
         rdf:about="">
        <dc:format>image/svg+xml</dc:format>
        <dc:type
           rdf:resource="http://purl.org/dc/dcmitype/StillImage" />
        <dc:title></dc:title>
      </cc:Work>
    </rdf:RDF>
  </metadata>
  <g
     transform="translate(-69.685045,-479.21479)"
     id="layer1">
    <g
       transform="matrix(2,0,0,2,-479.12407,229.73917)"
       id="g12636">
      <defs
         id="defs12638">
        <g
           id="g12640">
          <symbol
             id="textext-88511659-0"
             style="overflow:visible">
            <path
               d="M 3.734375,17.640625 C 3.953125,17.640625 4,17.640625 4,17.5 4.03125,10.515625 4.828125,4.71875 8.328125,-0.15625 c 0.0625,-0.09375 0.0625,-0.109375 0.0625,-0.140625 0,-0.09375 -0.0625,-0.09375 -0.21875,-0.09375 -0.171875,0 -0.1875,0 -0.203125,0.015625 -0.046875,0.03125 -1.3125,1.484375 -2.3125,3.5 -1.3125,2.625 -2.140625,5.640625 -2.515625,9.28125 -0.03125,0.296875 -0.234375,2.375 -0.234375,4.734375 l 0,0.390625 c 0,0.109375 0.0625,0.109375 0.28125,0.109375 z m 0,0"
               id="path12643"
               style="stroke:none" />
          </symbol>
          <symbol
             id="textext-88511659-1"
             style="overflow:visible">
            <path
               d="m 3.1875,-0.5 c -0.21875,0 -0.28125,0 -0.28125,0.109375 L 2.90625,0 c 0,6.09375 1.078125,9.65625 1.390625,10.671875 C 4.96875,12.875 6.078125,15.21875 7.75,17.265625 7.890625,17.453125 7.9375,17.5 7.96875,17.515625 8,17.53125 8,17.53125 8.171875,17.53125 c 0.15625,0 0.21875,0 0.21875,-0.09375 0,-0.01563 0,-0.04687 -0.0625,-0.125 C 5.015625,12.703125 4.015625,7.15625 4,-0.359375 4,-0.5 3.953125,-0.5 3.734375,-0.5 z m 0,0"
               id="path12646"
               style="stroke:none" />
          </symbol>
          <symbol
             id="textext-88511659-2"
             style="overflow:visible">
            <path
               d="m 5.53125,17.640625 c 0.203125,0 0.265625,0 0.28125,-0.109375 l 0,-0.390625 C 5.8125,11.0625 4.71875,7.484375 4.421875,6.484375 3.734375,4.265625 2.625,1.9375 0.96875,-0.125 0.8125,-0.296875 0.78125,-0.34375 0.734375,-0.375 c -0.015625,0 -0.03125,-0.015625 -0.1875,-0.015625 -0.140625,0 -0.234375,0 -0.234375,0.09375 0,0.03125 0,0.046875 0.140625,0.234375 3.46875,4.84375 4.234375,10.8125 4.25,17.5625 0,0.140625 0.0625,0.140625 0.28125,0.140625 z m 0,0"
               id="path12649"
               style="stroke:none" />
          </symbol>
          <symbol
             id="textext-88511659-3"
             style="overflow:visible">
            <path
               d="m 4.984375,-0.5 c -0.21875,0 -0.28125,0 -0.28125,0.140625 0,1.03125 -0.015625,3.40625 -0.265625,5.875 C 3.890625,10.671875 2.578125,14.25 0.390625,17.3125 0.3125,17.390625 0.3125,17.421875 0.3125,17.4375 c 0,0.09375 0.09375,0.09375 0.234375,0.09375 0.15625,0 0.1875,0 0.203125,-0.01563 C 0.78125,17.48438 2.046875,16.03125 3.0625,14.03125 4.375,11.390625 5.203125,8.375 5.578125,4.75 5.609375,4.4375 5.8125,2.359375 5.8125,0 l 0,-0.390625 C 5.796875,-0.5 5.734375,-0.5 5.53125,-0.5 z m 0,0"
               id="path12652"
               style="stroke:none" />
          </symbol>
          <symbol
             id="textext-88511659-4"
             style="overflow:visible">
            <path
               d="M 3.328125,-3.015625 C 3.390625,-3.265625 3.625,-4.1875 4.3125,-4.1875 c 0.046875,0 0.296875,0 0.5,0.125 C 4.53125,-4 4.34375,-3.765625 4.34375,-3.515625 c 0,0.15625 0.109375,0.34375 0.375,0.34375 0.21875,0 0.53125,-0.171875 0.53125,-0.578125 0,-0.515625 -0.578125,-0.65625 -0.921875,-0.65625 -0.578125,0 -0.921875,0.53125 -1.046875,0.75 -0.25,-0.65625 -0.78125,-0.75 -1.078125,-0.75 -1.03125,0 -1.609375,1.28125 -1.609375,1.53125 0,0.109375 0.109375,0.109375 0.125,0.109375 0.078125,0 0.109375,-0.03125 0.125,-0.109375 0.34375,-1.0625 1,-1.3125 1.34375,-1.3125 0.1875,0 0.53125,0.09375 0.53125,0.671875 0,0.3125 -0.171875,0.96875 -0.53125,2.375 -0.15625,0.609375 -0.515625,1.03125 -0.953125,1.03125 -0.0625,0 -0.28125,0 -0.5,-0.125 0.25,-0.0625 0.46875,-0.265625 0.46875,-0.546875 0,-0.265625 -0.21875,-0.34375 -0.359375,-0.34375 -0.3125,0 -0.546875,0.25 -0.546875,0.578125 0,0.453125 0.484375,0.65625 0.921875,0.65625 0.671875,0 1.03125,-0.703125 1.046875,-0.75 0.125,0.359375 0.484375,0.75 1.078125,0.75 1.03125,0 1.59375,-1.28125 1.59375,-1.53125 0,-0.109375 -0.078125,-0.109375 -0.109375,-0.109375 -0.09375,0 -0.109375,0.046875 -0.140625,0.109375 -0.328125,1.078125 -1,1.3125 -1.3125,1.3125 -0.390625,0 -0.546875,-0.3125 -0.546875,-0.65625 0,-0.21875 0.046875,-0.4375 0.15625,-0.875 z m 0,0"
               id="path12655"
               style="stroke:none" />
          </symbol>
          <symbol
             id="textext-88511659-5"
             style="overflow:visible">
            <path
               d="m 4.84375,-3.796875 c 0.046875,-0.140625 0.046875,-0.15625 0.046875,-0.234375 0,-0.171875 -0.140625,-0.265625 -0.296875,-0.265625 -0.09375,0 -0.25,0.0625 -0.34375,0.203125 -0.015625,0.0625 -0.109375,0.359375 -0.140625,0.546875 -0.078125,0.25 -0.140625,0.53125 -0.203125,0.796875 l -0.453125,1.796875 c -0.03125,0.140625 -0.46875,0.84375 -1.125,0.84375 -0.5,0 -0.609375,-0.4375 -0.609375,-0.8125 C 1.71875,-1.375 1.890625,-2 2.21875,-2.875 2.375,-3.28125 2.421875,-3.390625 2.421875,-3.59375 c 0,-0.4375 -0.3125,-0.8125 -0.8125,-0.8125 -0.953125,0 -1.3125,1.453125 -1.3125,1.53125 0,0.109375 0.09375,0.109375 0.109375,0.109375 0.109375,0 0.109375,-0.03125 0.15625,-0.1875 0.28125,-0.9375 0.671875,-1.234375 1.015625,-1.234375 0.078125,0 0.25,0 0.25,0.3125 0,0.25 -0.109375,0.515625 -0.171875,0.703125 -0.40625,1.0625 -0.578125,1.625 -0.578125,2.09375 0,0.890625 0.625,1.1875 1.21875,1.1875 0.390625,0 0.71875,-0.171875 1,-0.453125 -0.125,0.515625 -0.25,1.015625 -0.640625,1.546875 -0.265625,0.328125 -0.640625,0.625 -1.09375,0.625 -0.140625,0 -0.59375,-0.03125 -0.765625,-0.421875 0.15625,0 0.296875,0 0.421875,-0.125 C 1.328125,1.203125 1.421875,1.0625 1.421875,0.875 1.421875,0.5625 1.15625,0.53125 1.0625,0.53125 0.828125,0.53125 0.5,0.6875 0.5,1.171875 c 0,0.5 0.4375,0.875 1.0625,0.875 1.015625,0 2.046875,-0.90625 2.328125,-2.03125 z m 0,0"
               id="path12658"
               style="stroke:none" />
          </symbol>
          <symbol
             id="textext-88511659-6"
             style="overflow:visible">
            <path
               d="m 1.328125,-0.828125 c 0.53125,-0.578125 0.828125,-0.828125 1.1875,-1.140625 0,0 0.609375,-0.53125 0.96875,-0.890625 C 4.4375,-3.78125 4.65625,-4.265625 4.65625,-4.3125 c 0,-0.09375 -0.09375,-0.09375 -0.109375,-0.09375 -0.078125,0 -0.09375,0.015625 -0.15625,0.109375 -0.296875,0.484375 -0.5,0.640625 -0.734375,0.640625 -0.25,0 -0.359375,-0.15625 -0.515625,-0.328125 -0.1875,-0.21875 -0.359375,-0.421875 -0.6875,-0.421875 -0.75,0 -1.203125,0.921875 -1.203125,1.140625 0,0.046875 0.03125,0.109375 0.109375,0.109375 0.09375,0 0.109375,-0.046875 0.140625,-0.109375 0.1875,-0.46875 0.765625,-0.46875 0.84375,-0.46875 0.203125,0 0.390625,0.0625 0.625,0.140625 0.40625,0.15625 0.515625,0.15625 0.765625,0.15625 -0.359375,0.421875 -1.1875,1.140625 -1.375,1.296875 -0.5,0.453125 -0.515625,0.46875 -0.90625,0.84375 -0.671875,0.671875 -1.03125,1.234375 -1.03125,1.3125 0,0.09375 0.109375,0.09375 0.125,0.09375 0.078125,0 0.09375,-0.015625 0.15625,-0.125 0.234375,-0.359375 0.53125,-0.625 0.859375,-0.625 0.21875,0 0.328125,0.09375 0.578125,0.375 0.15625,0.21875 0.34375,0.375 0.625,0.375 1,0 1.578125,-1.265625 1.578125,-1.53125 0,-0.046875 -0.046875,-0.109375 -0.125,-0.109375 -0.09375,0 -0.109375,0.0625 -0.140625,0.140625 C 3.84375,-0.75 3.203125,-0.5625 2.875,-0.5625 c -0.1875,0 -0.375,-0.0625 -0.578125,-0.125 -0.34375,-0.125 -0.5,-0.171875 -0.703125,-0.171875 -0.015625,0 -0.171875,0 -0.265625,0.03125 z m 0,0"
               id="path12661"
               style="stroke:none" />
          </symbol>
          <symbol
             id="textext-88511659-7"
             style="overflow:visible">
            <path
               d="M 7.609375,-6.046875 C 7.703125,-6.40625 7.71875,-6.5 8.4375,-6.5 c 0.265625,0 0.34375,0 0.34375,-0.203125 0,-0.109375 -0.109375,-0.109375 -0.140625,-0.109375 -0.28125,0 -1,0.03125 -1.28125,0.03125 -0.28125,0 -0.984375,-0.03125 -1.28125,-0.03125 -0.078125,0 -0.1875,0 -0.1875,0.203125 0,0.109375 0.09375,0.109375 0.28125,0.109375 0.015625,0 0.203125,0 0.375,0.015625 0.1875,0.03125 0.265625,0.03125 0.265625,0.171875 0,0.03125 0,0.046875 -0.03125,0.1875 l -0.59375,2.421875 -3.046875,0 0.59375,-2.34375 C 3.8125,-6.40625 3.84375,-6.5 4.5625,-6.5 c 0.265625,0 0.34375,0 0.34375,-0.203125 0,-0.109375 -0.109375,-0.109375 -0.140625,-0.109375 -0.28125,0 -1,0.03125 -1.28125,0.03125 -0.28125,0 -0.984375,-0.03125 -1.28125,-0.03125 -0.078125,0 -0.1875,0 -0.1875,0.203125 0,0.109375 0.09375,0.109375 0.28125,0.109375 0.015625,0 0.203125,0 0.375,0.015625 0.171875,0.03125 0.265625,0.03125 0.265625,0.171875 0,0.03125 0,0.0625 -0.03125,0.1875 L 1.5625,-0.78125 c -0.09375,0.390625 -0.109375,0.46875 -0.90625,0.46875 -0.171875,0 -0.265625,0 -0.265625,0.203125 C 0.390625,0 0.515625,0 0.53125,0 0.8125,0 1.515625,-0.03125 1.796875,-0.03125 2,-0.03125 2.21875,-0.015625 2.4375,-0.015625 2.65625,-0.015625 2.875,0 3.078125,0 3.15625,0 3.28125,0 3.28125,-0.203125 3.28125,-0.3125 3.1875,-0.3125 3,-0.3125 c -0.375,0 -0.640625,0 -0.640625,-0.171875 0,-0.0625 0.015625,-0.109375 0.015625,-0.171875 l 0.6875,-2.734375 3.03125,0 c -0.40625,1.65625 -0.640625,2.609375 -0.6875,2.75 C 5.3125,-0.3125 5.125,-0.3125 4.5,-0.3125 c -0.140625,0 -0.234375,0 -0.234375,0.203125 C 4.265625,0 4.390625,0 4.40625,0 4.6875,0 5.390625,-0.03125 5.671875,-0.03125 5.875,-0.03125 6.09375,-0.015625 6.3125,-0.015625 6.53125,-0.015625 6.75,0 6.953125,0 7.03125,0 7.15625,0 7.15625,-0.203125 7.15625,-0.3125 7.0625,-0.3125 6.875,-0.3125 c -0.359375,0 -0.640625,0 -0.640625,-0.171875 0,-0.0625 0.015625,-0.109375 0.03125,-0.171875 z m 0,0"
               id="path12664"
               style="stroke:none" />
          </symbol>
          <symbol
             id="textext-88511659-8"
             style="overflow:visible">
            <path
               d="m 3.515625,-1.265625 -0.234375,0 c -0.015625,0.15625 -0.09375,0.5625 -0.1875,0.625 -0.046875,0.046875 -0.578125,0.046875 -0.6875,0.046875 l -1.28125,0 c 0.734375,-0.640625 0.984375,-0.84375 1.390625,-1.171875 0.515625,-0.40625 1,-0.84375 1,-1.5 0,-0.84375 -0.734375,-1.359375 -1.625,-1.359375 -0.859375,0 -1.453125,0.609375 -1.453125,1.25 0,0.34375 0.296875,0.390625 0.375,0.390625 0.15625,0 0.359375,-0.125 0.359375,-0.375 0,-0.125 -0.046875,-0.375 -0.40625,-0.375 C 0.984375,-4.21875 1.453125,-4.375 1.78125,-4.375 c 0.703125,0 1.0625,0.546875 1.0625,1.109375 0,0.609375 -0.4375,1.078125 -0.65625,1.328125 L 0.515625,-0.265625 C 0.4375,-0.203125 0.4375,-0.1875 0.4375,0 l 2.875,0 z m 0,0"
               id="path12667"
               style="stroke:none" />
          </symbol>
          <symbol
             id="textext-88511659-9"
             style="overflow:visible">
            <path
               d="M 3.59375,-2.21875 C 3.59375,-2.984375 3.5,-3.546875 3.1875,-4.03125 2.96875,-4.34375 2.53125,-4.625 1.984375,-4.625 c -1.625,0 -1.625,1.90625 -1.625,2.40625 0,0.5 0,2.359375 1.625,2.359375 1.609375,0 1.609375,-1.859375 1.609375,-2.359375 z M 1.984375,-0.0625 c -0.328125,0 -0.75,-0.1875 -0.890625,-0.75 C 1,-1.21875 1,-1.796875 1,-2.3125 1,-2.828125 1,-3.359375 1.09375,-3.734375 1.25,-4.28125 1.6875,-4.4375 1.984375,-4.4375 c 0.375,0 0.734375,0.234375 0.859375,0.640625 0.109375,0.375 0.125,0.875 0.125,1.484375 0,0.515625 0,1.03125 -0.09375,1.46875 -0.140625,0.640625 -0.609375,0.78125 -0.890625,0.78125 z m 0,0"
               id="path12670"
               style="stroke:none" />
          </symbol>
          <symbol
             id="textext-88511659-10"
             style="overflow:visible">
            <path
               d="m 2.328125,-4.4375 c 0,-0.1875 0,-0.1875 -0.203125,-0.1875 -0.453125,0.4375 -1.078125,0.4375 -1.359375,0.4375 l 0,0.25 c 0.15625,0 0.625,0 1,-0.1875 l 0,3.546875 c 0,0.234375 0,0.328125 -0.6875,0.328125 l -0.265625,0 0,0.25 c 0.125,0 0.984375,-0.03125 1.234375,-0.03125 0.21875,0 1.09375,0.03125 1.25,0.03125 l 0,-0.25 -0.265625,0 c -0.703125,0 -0.703125,-0.09375 -0.703125,-0.328125 z m 0,0"
               id="path12673"
               style="stroke:none" />
          </symbol>
          <symbol
             id="textext-88511659-11"
             style="overflow:visible">
            <path
               d="m 6.84375,-3.265625 c 0.15625,0 0.34375,0 0.34375,-0.1875 C 7.1875,-3.65625 7,-3.65625 6.859375,-3.65625 l -5.96875,0 c -0.140625,0 -0.328125,0 -0.328125,0.203125 0,0.1875 0.1875,0.1875 0.328125,0.1875 z m 0.015625,1.9375 c 0.140625,0 0.328125,0 0.328125,-0.203125 0,-0.1875 -0.1875,-0.1875 -0.34375,-0.1875 l -5.953125,0 c -0.140625,0 -0.328125,0 -0.328125,0.1875 0,0.203125 0.1875,0.203125 0.328125,0.203125 z m 0,0"
               id="path12676"
               style="stroke:none" />
          </symbol>
          <symbol
             id="textext-88511659-12"
             style="overflow:visible">
            <path
               d="M 2.546875,-3.65625 C 3.125,-4.34375 3.40625,-5.0625 3.40625,-5.109375 c 0,-0.125 -0.125,-0.125 -0.1875,-0.125 -0.15625,0 -0.15625,0.015625 -0.234375,0.1875 -0.75,1.6875 -2.09375,2.25 -2.578125,2.453125 -0.015625,0.015625 -0.0625,0.046875 -0.0625,0.09375 0,0.09375 0.0625,0.109375 0.078125,0.109375 C 1.359375,-2 2.375,-1.3125 2.984375,0.0625 3.0625,0.234375 3.078125,0.25 3.21875,0.25 c 0.0625,0 0.1875,0 0.1875,-0.125 0,-0.046875 -0.265625,-0.75 -0.859375,-1.453125 l 4.859375,0 c -0.578125,0.6875 -0.859375,1.40625 -0.859375,1.453125 0,0.125 0.125,0.125 0.1875,0.125 0.15625,0 0.15625,-0.015625 0.25,-0.1875 C 7.71875,-1.625 9.0625,-2.1875 9.546875,-2.390625 9.5625,-2.40625 9.609375,-2.4375 9.609375,-2.5 c 0,-0.078125 -0.0625,-0.09375 -0.0625,-0.09375 -0.9375,-0.390625 -1.953125,-1.078125 -2.5625,-2.453125 -0.09375,-0.171875 -0.09375,-0.1875 -0.25,-0.1875 -0.0625,0 -0.1875,0 -0.1875,0.125 0,0.046875 0.265625,0.75 0.859375,1.453125 z M 2.15625,-1.71875 C 1.828125,-2.046875 1.40625,-2.328125 1.109375,-2.5 1.40625,-2.65625 1.828125,-2.9375 2.15625,-3.265625 l 5.65625,0 C 8.140625,-2.9375 8.546875,-2.65625 8.859375,-2.5 8.546875,-2.328125 8.140625,-2.046875 7.8125,-1.71875 z m 0,0"
               id="path12679"
               style="stroke:none" />
          </symbol>
          <symbol
             id="textext-88511659-13"
             style="overflow:visible">
            <path
               d="m 2.1875,-3.28125 c 0,-0.1875 0.015625,-0.203125 0.15625,-0.34375 0.390625,-0.40625 0.921875,-0.46875 1.140625,-0.46875 0.65625,0 1.21875,0.609375 1.21875,1.875 0,1.40625 -0.703125,1.921875 -1.34375,1.921875 -0.140625,0 -0.609375,0 -1.0625,-0.546875 C 2.1875,-0.96875 2.1875,-0.984375 2.1875,-1.171875 z m 0.6875,5.21875 0,-0.46875 -0.6875,0 0,-1.859375 c 0.4375,0.34375 0.875,0.453125 1.28125,0.453125 1.5,0 2.515625,-0.90625 2.515625,-2.28125 0,-1.328125 -0.90625,-2.265625 -2.34375,-2.265625 -0.75,0 -1.28125,0.3125 -1.5,0.484375 l 0,-0.484375 -1.765625,0.078125 0,0.46875 c 0.609375,0 0.6875,0 0.6875,0.375 l 0,5.03125 -0.6875,0 0,0.46875 C 0.640625,1.921875 1.25,1.90625 1.625,1.90625 c 0.390625,0 0.984375,0.015625 1.25,0.03125 z m 0,0"
               id="path12682"
               style="stroke:none" />
          </symbol>
        </g>
      </defs>
      <g
         id="textext-88511659-14">
        <g
           id="g12685"
           style="fill:#000000;fill-opacity:1">
          <use
             id="use12687"
             x="271.741"
             y="125.201"
             width="744.09448"
             height="1052.3622"
             xlink:href="#textext-88511659-0" />
        </g>
        <g
           id="g12689"
           style="fill:#000000;fill-opacity:1">
          <use
             id="use12691"
             x="271.741"
             y="143.134"
             width="744.09448"
             height="1052.3622"
             xlink:href="#textext-88511659-1" />
        </g>
        <g
           id="g12693"
           style="fill:#000000;fill-opacity:1">
          <use
             id="use12695"
             x="285.439"
             y="133.17101"
             width="744.09448"
             height="1052.3622"
             xlink:href="#textext-88511659-4" />
        </g>
        <g
           id="g12697"
           style="fill:#000000;fill-opacity:1">
          <use
             id="use12699"
             x="291.133"
             y="134.66499"
             width="744.09448"
             height="1052.3622"
             xlink:href="#textext-88511659-8" />
        </g>
        <g
           id="g12701"
           style="fill:#000000;fill-opacity:1">
          <use
             id="use12703"
             x="285.84399"
             y="145.12601"
             width="744.09448"
             height="1052.3622"
             xlink:href="#textext-88511659-5" />
        </g>
        <g
           id="g12705"
           style="fill:#000000;fill-opacity:1">
          <use
             id="use12707"
             x="290.728"
             y="146.621"
             width="744.09448"
             height="1052.3622"
             xlink:href="#textext-88511659-8" />
        </g>
        <g
           id="g12709"
           style="fill:#000000;fill-opacity:1">
          <use
             id="use12711"
             x="285.97"
             y="157.08099"
             width="744.09448"
             height="1052.3622"
             xlink:href="#textext-88511659-6" />
        </g>
        <g
           id="g12713"
           style="fill:#000000;fill-opacity:1">
          <use
             id="use12715"
             x="290.603"
             y="158.576"
             width="744.09448"
             height="1052.3622"
             xlink:href="#textext-88511659-8" />
        </g>
        <g
           id="g12717"
           style="fill:#000000;fill-opacity:1">
          <use
             id="use12719"
             x="300.58401"
             y="125.201"
             width="744.09448"
             height="1052.3622"
             xlink:href="#textext-88511659-2" />
        </g>
        <g
           id="g12721"
           style="fill:#000000;fill-opacity:1">
          <use
             id="use12723"
             x="300.58401"
             y="143.134"
             width="744.09448"
             height="1052.3622"
             xlink:href="#textext-88511659-3" />
        </g>
        <g
           id="g12725"
           style="fill:#000000;fill-opacity:1">
          <use
             id="use12727"
             x="312.069"
             y="145.226"
             width="744.09448"
             height="1052.3622"
             xlink:href="#textext-88511659-11" />
        </g>
        <g
           id="g12729"
           style="fill:#000000;fill-opacity:1">
          <use
             id="use12731"
             x="322.58499"
             y="125.201"
             width="744.09448"
             height="1052.3622"
             xlink:href="#textext-88511659-0" />
        </g>
        <g
           id="g12733"
           style="fill:#000000;fill-opacity:1">
          <use
             id="use12735"
             x="322.58499"
             y="143.134"
             width="744.09448"
             height="1052.3622"
             xlink:href="#textext-88511659-1" />
        </g>
        <g
           id="g12737"
           style="fill:#000000;fill-opacity:1">
          <use
             id="use12739"
             x="336.28299"
             y="133.17101"
             width="744.09448"
             height="1052.3622"
             xlink:href="#textext-88511659-7" />
        </g>
        <g
           id="g12741"
           style="fill:#000000;fill-opacity:1">
          <use
             id="use12743"
             x="344.565"
             y="134.66499"
             width="744.09448"
             height="1052.3622"
             xlink:href="#textext-88511659-9" />
          <use
             id="use12745"
             x="348.53659"
             y="134.66499"
             width="744.09448"
             height="1052.3622"
             xlink:href="#textext-88511659-9" />
        </g>
        <g
           id="g12747"
           style="fill:#000000;fill-opacity:1">
          <use
             id="use12749"
             x="362.96799"
             y="133.17101"
             width="744.09448"
             height="1052.3622"
             xlink:href="#textext-88511659-7" />
        </g>
        <g
           id="g12751"
           style="fill:#000000;fill-opacity:1">
          <use
             id="use12753"
             x="371.24899"
             y="134.66499"
             width="744.09448"
             height="1052.3622"
             xlink:href="#textext-88511659-9" />
          <use
             id="use12755"
             x="375.22058"
             y="134.66499"
             width="744.09448"
             height="1052.3622"
             xlink:href="#textext-88511659-10" />
        </g>
        <g
           id="g12757"
           style="fill:#000000;fill-opacity:1">
          <use
             id="use12759"
             x="389.65302"
             y="133.17101"
             width="744.09448"
             height="1052.3622"
             xlink:href="#textext-88511659-7" />
        </g>
        <g
           id="g12761"
           style="fill:#000000;fill-opacity:1">
          <use
             id="use12763"
             x="397.93399"
             y="134.66499"
             width="744.09448"
             height="1052.3622"
             xlink:href="#textext-88511659-9" />
          <use
             id="use12765"
             x="401.90558"
             y="134.66499"
             width="744.09448"
             height="1052.3622"
             xlink:href="#textext-88511659-8" />
        </g>
        <g
           id="g12767"
           style="fill:#000000;fill-opacity:1">
          <use
             id="use12769"
             x="336.28299"
             y="145.12601"
             width="744.09448"
             height="1052.3622"
             xlink:href="#textext-88511659-7" />
        </g>
        <g
           id="g12771"
           style="fill:#000000;fill-opacity:1">
          <use
             id="use12773"
             x="344.565"
             y="146.621"
             width="744.09448"
             height="1052.3622"
             xlink:href="#textext-88511659-10" />
          <use
             id="use12775"
             x="348.53659"
             y="146.621"
             width="744.09448"
             height="1052.3622"
             xlink:href="#textext-88511659-9" />
        </g>
        <g
           id="g12777"
           style="fill:#000000;fill-opacity:1">
          <use
             id="use12779"
             x="362.96799"
             y="145.12601"
             width="744.09448"
             height="1052.3622"
             xlink:href="#textext-88511659-7" />
        </g>
        <g
           id="g12781"
           style="fill:#000000;fill-opacity:1">
          <use
             id="use12783"
             x="371.24899"
             y="146.621"
             width="744.09448"
             height="1052.3622"
             xlink:href="#textext-88511659-10" />
          <use
             id="use12785"
             x="375.22058"
             y="146.621"
             width="744.09448"
             height="1052.3622"
             xlink:href="#textext-88511659-10" />
        </g>
        <g
           id="g12787"
           style="fill:#000000;fill-opacity:1">
          <use
             id="use12789"
             x="389.65302"
             y="145.12601"
             width="744.09448"
             height="1052.3622"
             xlink:href="#textext-88511659-7" />
        </g>
        <g
           id="g12791"
           style="fill:#000000;fill-opacity:1">
          <use
             id="use12793"
             x="397.93399"
             y="146.621"
             width="744.09448"
             height="1052.3622"
             xlink:href="#textext-88511659-10" />
          <use
             id="use12795"
             x="401.90558"
             y="146.621"
             width="744.09448"
             height="1052.3622"
             xlink:href="#textext-88511659-8" />
        </g>
        <g
           id="g12797"
           style="fill:#000000;fill-opacity:1">
          <use
             id="use12799"
             x="336.28299"
             y="157.08099"
             width="744.09448"
             height="1052.3622"
             xlink:href="#textext-88511659-7" />
        </g>
        <g
           id="g12801"
           style="fill:#000000;fill-opacity:1">
          <use
             id="use12803"
             x="344.565"
             y="158.576"
             width="744.09448"
             height="1052.3622"
             xlink:href="#textext-88511659-8" />
          <use
             id="use12805"
             x="348.53659"
             y="158.576"
             width="744.09448"
             height="1052.3622"
             xlink:href="#textext-88511659-9" />
        </g>
        <g
           id="g12807"
           style="fill:#000000;fill-opacity:1">
          <use
             id="use12809"
             x="362.96799"
             y="157.08099"
             width="744.09448"
             height="1052.3622"
             xlink:href="#textext-88511659-7" />
        </g>
        <g
           id="g12811"
           style="fill:#000000;fill-opacity:1">
          <use
             id="use12813"
             x="371.24899"
             y="158.576"
             width="744.09448"
             height="1052.3622"
             xlink:href="#textext-88511659-8" />
          <use
             id="use12815"
             x="375.22058"
             y="158.576"
             width="744.09448"
             height="1052.3622"
             xlink:href="#textext-88511659-10" />
        </g>
        <g
           id="g12817"
           style="fill:#000000;fill-opacity:1">
          <use
             id="use12819"
             x="389.65302"
             y="157.08099"
             width="744.09448"
             height="1052.3622"
             xlink:href="#textext-88511659-7" />
        </g>
        <g
           id="g12821"
           style="fill:#000000;fill-opacity:1">
          <use
             id="use12823"
             x="397.93399"
             y="158.576"
             width="744.09448"
             height="1052.3622"
             xlink:href="#textext-88511659-8" />
          <use
             id="use12825"
             x="401.90558"
             y="158.576"
             width="744.09448"
             height="1052.3622"
             xlink:href="#textext-88511659-8" />
        </g>
        <g
           id="g12827"
           style="fill:#000000;fill-opacity:1">
          <use
             id="use12829"
             x="411.35599"
             y="125.201"
             width="744.09448"
             height="1052.3622"
             xlink:href="#textext-88511659-2" />
        </g>
        <g
           id="g12831"
           style="fill:#000000;fill-opacity:1">
          <use
             id="use12833"
             x="411.35599"
             y="143.134"
             width="744.09448"
             height="1052.3622"
             xlink:href="#textext-88511659-3" />
        </g>
        <g
           id="g12835"
           style="fill:#000000;fill-opacity:1">
          <use
             id="use12837"
             x="421.73401"
             y="125.201"
             width="744.09448"
             height="1052.3622"
             xlink:href="#textext-88511659-0" />
        </g>
        <g
           id="g12839"
           style="fill:#000000;fill-opacity:1">
          <use
             id="use12841"
             x="421.73401"
             y="143.134"
             width="744.09448"
             height="1052.3622"
             xlink:href="#textext-88511659-1" />
        </g>
        <g
           id="g12843"
           style="fill:#000000;fill-opacity:1">
          <use
             id="use12845"
             x="435.43201"
             y="133.17101"
             width="744.09448"
             height="1052.3622"
             xlink:href="#textext-88511659-4" />
        </g>
        <g
           id="g12847"
           style="fill:#000000;fill-opacity:1">
          <use
             id="use12849"
             x="441.12601"
             y="134.66499"
             width="744.09448"
             height="1052.3622"
             xlink:href="#textext-88511659-10" />
        </g>
        <g
           id="g12851"
           style="fill:#000000;fill-opacity:1">
          <use
             id="use12853"
             x="435.83701"
             y="145.12601"
             width="744.09448"
             height="1052.3622"
             xlink:href="#textext-88511659-5" />
        </g>
        <g
           id="g12855"
           style="fill:#000000;fill-opacity:1">
          <use
             id="use12857"
             x="440.72198"
             y="146.621"
             width="744.09448"
             height="1052.3622"
             xlink:href="#textext-88511659-10" />
        </g>
        <g
           id="g12859"
           style="fill:#000000;fill-opacity:1">
          <use
             id="use12861"
             x="435.96301"
             y="157.08099"
             width="744.09448"
             height="1052.3622"
             xlink:href="#textext-88511659-6" />
        </g>
        <g
           id="g12863"
           style="fill:#000000;fill-opacity:1">
          <use
             id="use12865"
             x="440.59601"
             y="158.576"
             width="744.09448"
             height="1052.3622"
             xlink:href="#textext-88511659-10" />
        </g>
        <g
           id="g12867"
           style="fill:#000000;fill-opacity:1">
          <use
             id="use12869"
             x="450.577"
             y="125.201"
             width="744.09448"
             height="1052.3622"
             xlink:href="#textext-88511659-2" />
        </g>
        <g
           id="g12871"
           style="fill:#000000;fill-opacity:1">
          <use
             id="use12873"
             x="450.577"
             y="143.134"
             width="744.09448"
             height="1052.3622"
             xlink:href="#textext-88511659-3" />
        </g>
        <g
           id="g12875"
           style="fill:#000000;fill-opacity:1">
          <use
             id="use12877"
             x="462.06201"
             y="145.226"
             width="744.09448"
             height="1052.3622"
             xlink:href="#textext-88511659-12" />
        </g>
        <g
           id="g12879"
           style="fill:#000000;fill-opacity:1">
          <use
             id="use12881"
             x="474.79199"
             y="145.226"
             width="744.09448"
             height="1052.3622"
             xlink:href="#textext-88511659-13" />
        </g>
        <g
           id="g12883"
           style="fill:#000000;fill-opacity:1">
          <use
             id="use12885"
             x="481.15701"
             y="146.72"
             width="744.09448"
             height="1052.3622"
             xlink:href="#textext-88511659-8" />
        </g>
        <g
           id="g12887"
           style="fill:#000000;fill-opacity:1">
          <use
             id="use12889"
             x="488.39301"
             y="145.226"
             width="744.09448"
             height="1052.3622"
             xlink:href="#textext-88511659-11" />
        </g>
        <g
           id="g12891"
           style="fill:#000000;fill-opacity:1">
          <use
             id="use12893"
             x="498.909"
             y="145.226"
             width="744.09448"
             height="1052.3622"
             xlink:href="#textext-88511659-7" />
        </g>
        <g
           id="g12895"
           style="fill:#000000;fill-opacity:1">
          <use
             id="use12897"
             x="508"
             y="145.226"
             width="744.09448"
             height="1052.3622"
             xlink:href="#textext-88511659-13" />
        </g>
        <g
           id="g12899"
           style="fill:#000000;fill-opacity:1">
          <use
             id="use12901"
             x="514.36499"
             y="146.72"
             width="744.09448"
             height="1052.3622"
             xlink:href="#textext-88511659-10" />
        </g>
      </g>
    </g>
  </g>
</svg>
