<?xml version="1.0" encoding="UTF-8" standalone="no"?>
<!-- Created with Inkscape (http://www.inkscape.org/) -->

<svg
   xmlns:dc="http://purl.org/dc/elements/1.1/"
   xmlns:cc="http://creativecommons.org/ns#"
   xmlns:rdf="http://www.w3.org/1999/02/22-rdf-syntax-ns#"
   xmlns:svg="http://www.w3.org/2000/svg"
   xmlns="http://www.w3.org/2000/svg"
   xmlns:xlink="http://www.w3.org/1999/xlink"
   version="1.1"
   width="163"
   height="23"
   id="svg2">
  <defs
     id="defs4" />
  <metadata
     id="metadata7">
    <rdf:RDF>
      <cc:Work
         rdf:about="">
        <dc:format>image/svg+xml</dc:format>
        <dc:type
           rdf:resource="http://purl.org/dc/dcmitype/StillImage" />
        <dc:title></dc:title>
      </cc:Work>
    </rdf:RDF>
  </metadata>
  <g
     transform="translate(-294.5064,-506.45609)"
     id="layer1">
    <g
       transform="matrix(2,0,0,2,-414.12196,254.80571)"
       id="g4067">
      <defs
         id="defs4069">
        <g
           id="g4071">
          <symbol
             id="textext-ce9c3a03-0"
             style="overflow:visible">
            <path
               d="m 3.015625,-3.15625 1.703125,0 c 1.40625,0 2.796875,-1.03125 2.796875,-2.140625 0,-0.78125 -0.65625,-1.515625 -1.96875,-1.515625 l -3.21875,0 c -0.1875,0 -0.296875,0 -0.296875,0.1875 0,0.125 0.078125,0.125 0.28125,0.125 0.125,0 0.3125,0.015625 0.421875,0.015625 0.171875,0.03125 0.21875,0.046875 0.21875,0.171875 0,0.03125 0,0.0625 -0.03125,0.1875 l -1.34375,5.34375 c -0.09375,0.390625 -0.109375,0.46875 -0.90625,0.46875 -0.15625,0 -0.265625,0 -0.265625,0.1875 C 0.40625,0 0.515625,0 0.546875,0 0.828125,0 1.53125,-0.03125 1.8125,-0.03125 c 0.21875,0 0.4375,0.015625 0.640625,0.015625 0.21875,0 0.4375,0.015625 0.640625,0.015625 0.078125,0 0.203125,0 0.203125,-0.203125 0,-0.109375 -0.09375,-0.109375 -0.28125,-0.109375 -0.359375,0 -0.640625,0 -0.640625,-0.171875 0,-0.0625 0.015625,-0.109375 0.03125,-0.171875 z M 3.734375,-6.125 C 3.828125,-6.46875 3.84375,-6.5 4.28125,-6.5 l 0.953125,0 c 0.828125,0 1.359375,0.265625 1.359375,0.953125 0,0.390625 -0.203125,1.25 -0.59375,1.609375 -0.5,0.453125 -1.09375,0.53125 -1.53125,0.53125 l -1.40625,0 z m 0,0"
               id="path4074"
               style="stroke:none" />
          </symbol>
          <symbol
             id="textext-ce9c3a03-1"
             style="overflow:visible">
            <path
               d="M 4.609375,-3.375 C 4.65625,-3.59375 4.75,-3.96875 4.75,-4.03125 c 0,-0.171875 -0.140625,-0.265625 -0.28125,-0.265625 -0.125,0 -0.296875,0.078125 -0.375,0.28125 -0.03125,0.0625 -0.5,1.96875 -0.5625,2.234375 C 3.453125,-1.484375 3.4375,-1.3125 3.4375,-1.125 c 0,0.109375 0,0.125 0.015625,0.171875 -0.234375,0.53125 -0.53125,0.84375 -0.921875,0.84375 -0.796875,0 -0.796875,-0.734375 -0.796875,-0.90625 0,-0.3125 0.046875,-0.703125 0.515625,-1.9375 0.109375,-0.296875 0.171875,-0.4375 0.171875,-0.640625 0,-0.4375 -0.328125,-0.8125 -0.8125,-0.8125 -0.953125,0 -1.3125,1.453125 -1.3125,1.53125 0,0.109375 0.09375,0.109375 0.109375,0.109375 0.109375,0 0.109375,-0.03125 0.15625,-0.1875 C 0.84375,-3.875 1.21875,-4.1875 1.578125,-4.1875 c 0.09375,0 0.25,0.015625 0.25,0.328125 0,0.25 -0.109375,0.53125 -0.1875,0.703125 -0.4375,1.171875 -0.546875,1.625 -0.546875,2.015625 0,0.90625 0.65625,1.25 1.40625,1.25 0.171875,0 0.640625,0 1.03125,-0.703125 0.265625,0.640625 0.953125,0.703125 1.25,0.703125 0.75,0 1.1875,-0.625 1.453125,-1.21875 0.328125,-0.78125 0.65625,-2.125 0.65625,-2.59375 0,-0.546875 -0.265625,-0.703125 -0.4375,-0.703125 -0.25,0 -0.5,0.265625 -0.5,0.484375 0,0.125 0.0625,0.1875 0.140625,0.265625 0.109375,0.109375 0.359375,0.359375 0.359375,0.84375 0,0.34375 -0.28125,1.3125 -0.546875,1.828125 -0.25,0.53125 -0.609375,0.875 -1.09375,0.875 -0.46875,0 -0.734375,-0.296875 -0.734375,-0.875 0,-0.265625 0.0625,-0.578125 0.109375,-0.71875 z m 0,0"
               id="path4077"
               style="stroke:none" />
          </symbol>
          <symbol
             id="textext-ce9c3a03-2"
             style="overflow:visible">
            <path
               d="m 6.84375,-3.265625 c 0.15625,0 0.34375,0 0.34375,-0.1875 C 7.1875,-3.65625 7,-3.65625 6.859375,-3.65625 l -5.96875,0 c -0.140625,0 -0.328125,0 -0.328125,0.203125 0,0.1875 0.1875,0.1875 0.328125,0.1875 z m 0.015625,1.9375 c 0.140625,0 0.328125,0 0.328125,-0.203125 0,-0.1875 -0.1875,-0.1875 -0.34375,-0.1875 l -5.953125,0 c -0.140625,0 -0.328125,0 -0.328125,0.1875 0,0.203125 0.1875,0.203125 0.328125,0.203125 z m 0,0"
               id="path4080"
               style="stroke:none" />
          </symbol>
          <symbol
             id="textext-ce9c3a03-3"
             style="overflow:visible">
            <path
               d="m 2.9375,-6.375 c 0,-0.25 0,-0.265625 -0.234375,-0.265625 C 2.078125,-6 1.203125,-6 0.890625,-6 l 0,0.3125 c 0.203125,0 0.78125,0 1.296875,-0.265625 l 0,5.171875 c 0,0.359375 -0.03125,0.46875 -0.921875,0.46875 l -0.3125,0 0,0.3125 c 0.34375,-0.03125 1.203125,-0.03125 1.609375,-0.03125 0.390625,0 1.265625,0 1.609375,0.03125 l 0,-0.3125 -0.3125,0 c -0.90625,0 -0.921875,-0.109375 -0.921875,-0.46875 z m 0,0"
               id="path4083"
               style="stroke:none" />
          </symbol>
          <symbol
             id="textext-ce9c3a03-4"
             style="overflow:visible">
            <path
               d="m 3.296875,2.390625 c 0,-0.03125 0,-0.046875 -0.171875,-0.21875 C 1.890625,0.921875 1.5625,-0.96875 1.5625,-2.5 c 0,-1.734375 0.375,-3.46875 1.609375,-4.703125 0.125,-0.125 0.125,-0.140625 0.125,-0.171875 0,-0.078125 -0.03125,-0.109375 -0.09375,-0.109375 -0.109375,0 -1,0.6875 -1.59375,1.953125 -0.5,1.09375 -0.625,2.203125 -0.625,3.03125 0,0.78125 0.109375,1.984375 0.65625,3.125 C 2.25,1.84375 3.09375,2.5 3.203125,2.5 c 0.0625,0 0.09375,-0.03125 0.09375,-0.109375 z m 0,0"
               id="path4086"
               style="stroke:none" />
          </symbol>
          <symbol
             id="textext-ce9c3a03-5"
             style="overflow:visible">
            <path
               d="m 2.875,-2.5 c 0,-0.765625 -0.109375,-1.96875 -0.65625,-3.109375 -0.59375,-1.21875 -1.453125,-1.875 -1.546875,-1.875 -0.0625,0 -0.109375,0.046875 -0.109375,0.109375 0,0.03125 0,0.046875 0.1875,0.234375 0.984375,0.984375 1.546875,2.5625 1.546875,4.640625 0,1.71875 -0.359375,3.46875 -1.59375,4.71875 C 0.5625,2.34375 0.5625,2.359375 0.5625,2.390625 0.5625,2.453125 0.609375,2.5 0.671875,2.5 0.765625,2.5 1.671875,1.8125 2.25,0.546875 2.765625,-0.546875 2.875,-1.65625 2.875,-2.5 z m 0,0"
               id="path4089"
               style="stroke:none" />
          </symbol>
          <symbol
             id="textext-ce9c3a03-6"
             style="overflow:visible">
            <path
               d="m 6.59375,-2.296875 c 0.140625,0 0.328125,0 0.328125,-0.203125 0,-0.1875 -0.1875,-0.1875 -0.328125,-0.1875 l -5.4375,0 c -0.140625,0 -0.328125,0 -0.328125,0.1875 0,0.203125 0.1875,0.203125 0.328125,0.203125 z m 0,0"
               id="path4092"
               style="stroke:none" />
          </symbol>
          <symbol
             id="textext-ce9c3a03-7"
             style="overflow:visible">
            <path
               d="m 3,-2.625 c -0.171875,0.046875 -0.296875,0.1875 -0.296875,0.328125 0,0.171875 0.140625,0.234375 0.234375,0.234375 0.078125,0 0.34375,-0.046875 0.34375,-0.40625 0,-0.453125 -0.5,-0.609375 -0.9375,-0.609375 -1.078125,0 -1.28125,0.8125 -1.28125,1.015625 0,0.265625 0.15625,0.4375 0.25,0.515625 0.171875,0.140625 0.296875,0.171875 0.78125,0.25 0.15625,0.03125 0.59375,0.109375 0.59375,0.453125 0,0.125 -0.078125,0.390625 -0.359375,0.5625 C 2.046875,-0.125 1.703125,-0.125 1.625,-0.125 1.34375,-0.125 0.953125,-0.1875 0.78125,-0.421875 1.015625,-0.453125 1.171875,-0.625 1.171875,-0.8125 c 0,-0.171875 -0.125,-0.265625 -0.265625,-0.265625 -0.203125,0 -0.40625,0.171875 -0.40625,0.46875 0,0.421875 0.4375,0.671875 1.109375,0.671875 1.296875,0 1.53125,-0.875 1.53125,-1.140625 0,-0.640625 -0.703125,-0.765625 -0.96875,-0.8125 -0.0625,-0.015625 -0.234375,-0.046875 -0.28125,-0.0625 -0.25,-0.046875 -0.375,-0.1875 -0.375,-0.34375 0,-0.15625 0.125,-0.34375 0.28125,-0.453125 0.1875,-0.109375 0.421875,-0.125 0.546875,-0.125 0.140625,0 0.5,0.015625 0.65625,0.25 z m 0,0"
               id="path4095"
               style="stroke:none" />
          </symbol>
          <symbol
             id="textext-ce9c3a03-8"
             style="overflow:visible">
            <path
               d="M 3.984375,-2.796875 C 3.953125,-2.859375 3.9375,-2.875 3.9375,-2.890625 c 0,-0.015625 0.015625,-0.015625 0.171875,-0.125 0.234375,-0.171875 0.46875,-0.34375 0.703125,-0.5 0.921875,-0.640625 1.359375,-0.953125 1.84375,-1 0.078125,0 0.171875,0 0.171875,-0.140625 0,-0.0625 -0.046875,-0.09375 -0.09375,-0.09375 -0.15625,0 -0.328125,0.015625 -0.484375,0.015625 -0.1875,0 -0.65625,-0.03125 -0.84375,-0.03125 -0.046875,0 -0.140625,0 -0.140625,0.15625 0,0.015625 0,0.09375 0.09375,0.09375 0.09375,0.015625 0.1875,0.03125 0.1875,0.109375 0,0.125 -0.21875,0.28125 -0.3125,0.34375 L 2.328125,-2.015625 2.875,-4.21875 c 0.0625,-0.234375 0.078125,-0.296875 0.609375,-0.296875 0.125,0 0.21875,0 0.21875,-0.140625 0,-0.0625 -0.046875,-0.109375 -0.109375,-0.109375 -0.203125,0 -0.71875,0.03125 -0.921875,0.03125 -0.109375,0 -0.359375,0 -0.484375,0 C 2.0625,-4.75 1.890625,-4.765625 1.75,-4.765625 c -0.03125,0 -0.140625,0 -0.140625,0.15625 0,0.09375 0.078125,0.09375 0.234375,0.09375 0.109375,0 0.140625,0 0.265625,0.015625 0.140625,0.015625 0.15625,0.03125 0.15625,0.109375 0,0 0,0.046875 -0.03125,0.140625 l -0.9375,3.703125 C 1.25,-0.3125 1.234375,-0.25 0.6875,-0.25 c -0.125,0 -0.203125,0 -0.203125,0.15625 0,0 0,0.09375 0.109375,0.09375 0.203125,0 0.703125,-0.03125 0.90625,-0.03125 0.109375,0 0.359375,0 0.484375,0.015625 C 2.125,-0.015625 2.296875,0 2.421875,0 2.46875,0 2.578125,0 2.578125,-0.15625 2.578125,-0.25 2.484375,-0.25 2.34375,-0.25 c 0,0 -0.140625,0 -0.265625,-0.015625 C 1.921875,-0.28125 1.921875,-0.296875 1.921875,-0.375 1.921875,-0.421875 2,-0.6875 2.25,-1.703125 l 1.15625,-0.8125 1.015625,1.953125 c 0.046875,0.09375 0.046875,0.09375 0.046875,0.125 0,0.171875 -0.203125,0.1875 -0.328125,0.1875 -0.078125,0 -0.171875,0 -0.171875,0.15625 0,0 0,0.09375 0.109375,0.09375 C 4.28125,0 4.78125,-0.03125 4.96875,-0.03125 5.1875,-0.03125 5.46875,0 5.65625,0 5.75,0 5.796875,-0.046875 5.796875,-0.140625 5.796875,-0.25 5.703125,-0.25 5.640625,-0.25 c -0.125,0 -0.34375,-0.015625 -0.46875,-0.234375 z m 0,0"
               id="path4098"
               style="stroke:none" />
          </symbol>
        </g>
      </defs>
      <g
         id="textext-ce9c3a03-9">
        <g
           id="g4101"
           style="fill:#000000;fill-opacity:1">
          <use
             id="use4103"
             x="354.05399"
             y="134.765"
             width="744.09448"
             height="1052.3622"
             xlink:href="#textext-ce9c3a03-0" />
        </g>
        <g
           id="g4105"
           style="fill:#000000;fill-opacity:1">
          <use
             id="use4107"
             x="364.60101"
             y="134.765"
             width="744.09448"
             height="1052.3622"
             xlink:href="#textext-ce9c3a03-2" />
        </g>
        <g
           id="g4109"
           style="fill:#000000;fill-opacity:1">
          <use
             id="use4111"
             x="375.11951"
             y="134.765"
             width="744.09448"
             height="1052.3622"
             xlink:href="#textext-ce9c3a03-3" />
        </g>
        <g
           id="g4113"
           style="fill:#000000;fill-opacity:1">
          <use
             id="use4115"
             x="382.31201"
             y="134.765"
             width="744.09448"
             height="1052.3622"
             xlink:href="#textext-ce9c3a03-6" />
        </g>
        <g
           id="g4117"
           style="fill:#000000;fill-opacity:1">
          <use
             id="use4119"
             x="392.27499"
             y="134.765"
             width="744.09448"
             height="1052.3622"
             xlink:href="#textext-ce9c3a03-4" />
          <use
             id="use4121"
             x="396.14944"
             y="134.765"
             width="744.09448"
             height="1052.3622"
             xlink:href="#textext-ce9c3a03-3" />
        </g>
        <g
           id="g4123"
           style="fill:#000000;fill-opacity:1">
          <use
             id="use4125"
             x="403.345"
             y="134.765"
             width="744.09448"
             height="1052.3622"
             xlink:href="#textext-ce9c3a03-6" />
        </g>
        <g
           id="g4127"
           style="fill:#000000;fill-opacity:1">
          <use
             id="use4129"
             x="413.30701"
             y="134.765"
             width="744.09448"
             height="1052.3622"
             xlink:href="#textext-ce9c3a03-1" />
        </g>
        <g
           id="g4131"
           style="fill:#000000;fill-opacity:1">
          <use
             id="use4133"
             x="420.70801"
             y="130.651"
             width="744.09448"
             height="1052.3622"
             xlink:href="#textext-ce9c3a03-7" />
        </g>
        <g
           id="g4135"
           style="fill:#000000;fill-opacity:1">
          <use
             id="use4137"
             x="424.966"
             y="134.765"
             width="744.09448"
             height="1052.3622"
             xlink:href="#textext-ce9c3a03-5" />
        </g>
        <g
           id="g4139"
           style="fill:#000000;fill-opacity:1">
          <use
             id="use4141"
             x="428.84"
             y="130.651"
             width="744.09448"
             height="1052.3622"
             xlink:href="#textext-ce9c3a03-8" />
        </g>
      </g>
    </g>
  </g>
</svg>
