<?xml version="1.0" encoding="UTF-8" standalone="no"?>
<!-- Created with Inkscape (http://www.inkscape.org/) -->

<svg
   xmlns:dc="http://purl.org/dc/elements/1.1/"
   xmlns:cc="http://creativecommons.org/ns#"
   xmlns:rdf="http://www.w3.org/1999/02/22-rdf-syntax-ns#"
   xmlns:svg="http://www.w3.org/2000/svg"
   xmlns="http://www.w3.org/2000/svg"
   version="1.1"
   width="538.58264"
   height="269.29132"
   id="svg9914">
  <defs
     id="defs3" />
  <metadata
     id="metadata4">
    <rdf:RDF>
      <cc:Work
         rdf:about="">
        <dc:format>image/svg+xml</dc:format>
        <dc:type
           rdf:resource="http://purl.org/dc/dcmitype/StillImage" />
        <dc:title></dc:title>
      </cc:Work>
    </rdf:RDF>
  </metadata>
  <g
     transform="translate(-211.56018,-377.88066)"
     id="layer1">
    <g
       transform="translate(-0.6589992,-1.0506746)"
       id="g10086">
      <g
         transform="translate(154.35009,-86.985365)"
         id="g9891">
        <path
           d="M 73.351353,624.50358 225.9042,540.62356 387,723.36218 z"
           id="path9059"
           style="fill:#000000;fill-opacity:0.1254902;stroke:#000000;stroke-width:2;stroke-linecap:butt;stroke-linejoin:miter;stroke-miterlimit:4;stroke-opacity:1;stroke-dasharray:none" />
        <path
           d="m 542.50297,484.86182 35.72619,111.30276 -140.98164,82.84648 z"
           id="path9059-4"
           style="fill:#000000;fill-opacity:0.1254902;stroke:#000000;stroke-width:2;stroke-linecap:butt;stroke-linejoin:miter;stroke-miterlimit:4;stroke-opacity:1;stroke-dasharray:none" />
        <path
           d="m 225.92062,540.59365 352.31595,55.3311"
           id="path9867"
           style="fill:none;stroke:#00ff00;stroke-width:1;stroke-linecap:butt;stroke-linejoin:miter;stroke-miterlimit:4;stroke-opacity:1;stroke-dasharray:6, 6;stroke-dashoffset:0" />
        <path
           d="M 385.90353,722.49687 438.4062,677.41881"
           id="path9869"
           style="fill:none;stroke:#0000ff;stroke-width:1;stroke-linecap:butt;stroke-linejoin:miter;stroke-miterlimit:4;stroke-opacity:1;stroke-dasharray:6, 6;stroke-dashoffset:0" />
        <path
           d="M 73.185552,624.20902 542.17413,485.79287"
           id="path9867-8"
           style="fill:#000000;stroke:#ff0000;stroke-width:0.99999994;stroke-linecap:butt;stroke-linejoin:miter;stroke-miterlimit:4;stroke-opacity:1;stroke-dasharray:5.99999974, 5.99999974;stroke-dashoffset:0" />
      </g>
      <g
         id="text9956"
         style="font-size:10px;font-style:normal;font-variant:normal;font-weight:normal;font-stretch:normal;line-height:125%;letter-spacing:0px;word-spacing:0px;fill:#000000;fill-opacity:1;stroke:none;font-family:DejaVu Sans;-inkscape-font-specification:DejaVu Sans">
        <path
           d="m 218.23596,533.3822 -1.87304,5.0791 3.75292,0 -1.87988,-5.0791 m -0.77929,-1.36035 1.56542,0 3.88965,10.20606 -1.43554,0 -0.92969,-2.61817 -4.60059,0 -0.92968,2.61817 -1.45606,0 3.89649,-10.20606"
           id="path10084"
           style="font-size:14px;font-family:DejaVu Sans;-inkscape-font-specification:DejaVu Sans" />
      </g>
      <g
         id="text9956-5"
         style="font-size:10px;font-style:normal;font-variant:normal;font-weight:normal;font-stretch:normal;line-height:125%;letter-spacing:0px;word-spacing:0px;fill:#000000;fill-opacity:1;stroke:none;font-family:DejaVu Sans;-inkscape-font-specification:DejaVu Sans">
        <path
           d="m 377.84848,444.58328 0,3.73926 2.21484,0 c 0.74284,0 1.29199,-0.15267 1.64746,-0.45801 0.36002,-0.3099 0.54004,-0.78158 0.54004,-1.41504 0,-0.63802 -0.18002,-1.10742 -0.54004,-1.4082 -0.35547,-0.30534 -0.90462,-0.45801 -1.64746,-0.45801 l -2.21484,0 m 0,-4.19727 0,3.07617 2.04395,0 c 0.67447,1e-5 1.17577,-0.12532 1.5039,-0.37597 0.33268,-0.2552 0.49902,-0.64257 0.49903,-1.16211 -10e-6,-0.51497 -0.16635,-0.90006 -0.49903,-1.15527 -0.32813,-0.2552 -0.82943,-0.38281 -1.5039,-0.38282 l -2.04395,0 m -1.38086,-1.13476 3.52734,0 c 1.05273,10e-6 1.86393,0.21876 2.4336,0.65625 0.56965,0.43751 0.85448,1.05958 0.85449,1.86621 -10e-6,0.62435 -0.14584,1.1211 -0.4375,1.49023 -0.29167,0.36915 -0.72006,0.59929 -1.28516,0.69043 0.67903,0.14584 1.2054,0.45118 1.57911,0.91602 0.37824,0.46029 0.56737,1.03678 0.56738,1.72949 -1e-5,0.91146 -0.30991,1.61556 -0.92969,2.1123 -0.6198,0.49675 -1.50163,0.74512 -2.64551,0.74512 l -3.66406,0 0,-10.20605"
           id="path10081"
           style="font-size:14px;font-family:DejaVu Sans;-inkscape-font-specification:DejaVu Sans" />
      </g>
      <g
         id="text9956-2"
         style="font-size:10px;font-style:normal;font-variant:normal;font-weight:normal;font-stretch:normal;line-height:125%;letter-spacing:0px;word-spacing:0px;fill:#000000;fill-opacity:1;stroke:none;font-family:DejaVu Sans;-inkscape-font-specification:DejaVu Sans">
        <path
           d="m 555.89594,637.55383 0,1.45606 c -0.46486,-0.43294 -0.9616,-0.7565 -1.49024,-0.97071 -0.52409,-0.21418 -1.08236,-0.32128 -1.6748,-0.32128 -1.16668,0 -2.0599,0.35775 -2.67969,1.07324 -0.6198,0.71094 -0.92969,1.74089 -0.92969,3.08984 0,1.34441 0.30989,2.37435 0.92969,3.08985 0.61979,0.71093 1.51301,1.0664 2.67969,1.0664 0.59244,0 1.15071,-0.10709 1.6748,-0.32129 0.52864,-0.21419 1.02538,-0.53776 1.49024,-0.9707 l 0,1.44238 c -0.48309,0.32813 -0.99578,0.57422 -1.53809,0.73828 -0.53777,0.16407 -1.10743,0.2461 -1.70899,0.2461 -1.54492,0 -2.76172,-0.47168 -3.65039,-1.41504 -0.88867,-0.94792 -1.333,-2.23991 -1.333,-3.87598 0,-1.64062 0.44433,-2.93261 1.333,-3.87598 0.88867,-0.9479 2.10547,-1.42186 3.65039,-1.42187 0.61068,10e-6 1.18489,0.082 1.72266,0.24609 0.54231,0.15952 1.05045,0.40106 1.52442,0.72461"
           id="path10078"
           style="font-size:14px;font-family:DejaVu Sans;-inkscape-font-specification:DejaVu Sans" />
      </g>
      <g
         id="text9956-25"
         style="font-size:10px;font-style:normal;font-variant:normal;font-weight:normal;font-stretch:normal;line-height:125%;letter-spacing:0px;word-spacing:0px;fill:#000000;fill-opacity:1;stroke:none;font-family:DejaVu Sans;-inkscape-font-specification:DejaVu Sans">
        <path
           d="m 697.02161,383.34235 -1.87305,5.0791 3.75293,0 -1.87988,-5.0791 m -0.7793,-1.36036 1.56543,0 3.88965,10.20606 -1.43555,0 -0.92969,-2.61816 -4.60058,0 -0.92969,2.61816 -1.45605,0 3.89648,-10.20606"
           id="path10073"
           style="font-size:14px;font-family:DejaVu Sans;-inkscape-font-specification:DejaVu Sans" />
        <path
           d="m 704.31555,379.98199 0,3.79395 -1.16211,0 0,-3.79395 1.16211,0"
           id="path10075"
           style="font-size:14px;font-family:DejaVu Sans;-inkscape-font-specification:DejaVu Sans" />
      </g>
      <g
         id="text9956-5-6"
         style="font-size:10px;font-style:normal;font-variant:normal;font-weight:normal;font-stretch:normal;line-height:125%;letter-spacing:0px;word-spacing:0px;fill:#000000;fill-opacity:1;stroke:none;font-family:DejaVu Sans;-inkscape-font-specification:DejaVu Sans">
        <path
           d="m 739.04768,511.02826 0,3.73926 2.21485,0 c 0.74283,0 1.29198,-0.15267 1.64746,-0.45801 0.36002,-0.30989 0.54003,-0.78157 0.54004,-1.41504 -10e-6,-0.63802 -0.18002,-1.10742 -0.54004,-1.4082 -0.35548,-0.30534 -0.90463,-0.45801 -1.64746,-0.45801 l -2.21485,0 m 0,-4.19727 0,3.07618 2.04395,0 c 0.67447,0 1.17577,-0.12532 1.5039,-0.37598 0.33268,-0.2552 0.49902,-0.64257 0.49903,-1.16211 -10e-6,-0.51497 -0.16635,-0.90006 -0.49903,-1.15527 -0.32813,-0.2552 -0.82943,-0.38281 -1.5039,-0.38282 l -2.04395,0 m -1.38086,-1.13476 3.52735,0 c 1.05273,10e-6 1.86392,0.21876 2.43359,0.65625 0.56965,0.43751 0.85449,1.05958 0.85449,1.86621 0,0.62435 -0.14584,1.1211 -0.4375,1.49023 -0.29167,0.36915 -0.72006,0.59929 -1.28515,0.69043 0.67903,0.14584 1.20539,0.45118 1.5791,0.91602 0.37825,0.46029 0.56737,1.03679 0.56738,1.72949 -10e-6,0.91146 -0.3099,1.61556 -0.92969,2.11231 -0.61979,0.49674 -1.50163,0.74511 -2.6455,0.74511 l -3.66407,0 0,-10.20605"
           id="path10068"
           style="font-size:14px;font-family:DejaVu Sans;-inkscape-font-specification:DejaVu Sans" />
        <path
           d="m 749.46082,505.69623 0,3.79394 -1.16211,0 0,-3.79394 1.16211,0"
           id="path10070"
           style="font-size:14px;font-family:DejaVu Sans;-inkscape-font-specification:DejaVu Sans" />
      </g>
      <g
         id="text9956-2-7"
         style="font-size:10px;font-style:normal;font-variant:normal;font-weight:normal;font-stretch:normal;line-height:125%;letter-spacing:0px;word-spacing:0px;fill:#000000;fill-opacity:1;stroke:none;font-family:DejaVu Sans;-inkscape-font-specification:DejaVu Sans">
        <path
           d="m 597.39624,598.62536 0,1.45605 c -0.46485,-0.43293 -0.9616,-0.7565 -1.49023,-0.9707 -0.5241,-0.21418 -1.08237,-0.32128 -1.67481,-0.32129 -1.16667,1e-5 -2.0599,0.35776 -2.67969,1.07324 -0.61979,0.71095 -0.92969,1.7409 -0.92968,3.08985 -1e-5,1.3444 0.30989,2.37435 0.92968,3.08984 0.61979,0.71094 1.51302,1.06641 2.67969,1.06641 0.59244,0 1.15071,-0.1071 1.67481,-0.32129 0.52863,-0.21419 1.02538,-0.53776 1.49023,-0.9707 l 0,1.44238 c -0.48308,0.32812 -0.99578,0.57422 -1.53809,0.73828 -0.53776,0.16406 -1.10742,0.24609 -1.70898,0.24609 -1.54493,0 -2.76172,-0.47168 -3.65039,-1.41504 -0.88867,-0.94791 -1.33301,-2.2399 -1.33301,-3.87597 0,-1.64062 0.44434,-2.93261 1.33301,-3.87598 0.88867,-0.94791 2.10546,-1.42186 3.65039,-1.42187 0.61067,10e-6 1.18489,0.082 1.72266,0.24609 0.54231,0.15952 1.05044,0.40105 1.52441,0.72461"
           id="path10063"
           style="font-size:14px;font-family:DejaVu Sans;-inkscape-font-specification:DejaVu Sans" />
        <path
           d="m 600.67749,598.90369 0,3.79394 -1.16211,0 0,-3.79394 1.16211,0"
           id="path10065"
           style="font-size:14px;font-family:DejaVu Sans;-inkscape-font-specification:DejaVu Sans" />
      </g>
    </g>
  </g>
</svg>
