<?xml version="1.0" encoding="UTF-8" standalone="no"?>
<!-- Created with Inkscape (http://www.inkscape.org/) -->

<svg
   xmlns:dc="http://purl.org/dc/elements/1.1/"
   xmlns:cc="http://creativecommons.org/ns#"
   xmlns:rdf="http://www.w3.org/1999/02/22-rdf-syntax-ns#"
   xmlns:svg="http://www.w3.org/2000/svg"
   xmlns="http://www.w3.org/2000/svg"
   xmlns:xlink="http://www.w3.org/1999/xlink"
   version="1.1"
   width="356"
   height="459"
   id="svg25114">
  <defs
     id="defs25116" />
  <metadata
     id="metadata25119">
    <rdf:RDF>
      <cc:Work
         rdf:about="">
        <dc:format>image/svg+xml</dc:format>
        <dc:type
           rdf:resource="http://purl.org/dc/dcmitype/StillImage" />
        <dc:title></dc:title>
      </cc:Work>
    </rdf:RDF>
  </metadata>
  <g
     transform="translate(-249.67493,-212.38616)"
     id="layer1">
    <g
       transform="matrix(2,0,0,2,-356.89395,-41.831201)"
       id="g23670">
      <defs
         id="defs23672">
        <g
           id="g23674">
          <symbol
             id="textext-f5e50cf8-0"
             style="overflow:visible">
            <path
               d="m 0.875,-0.59375 c -0.03125,0.15625 -0.09375,0.390625 -0.09375,0.4375 0,0.171875 0.140625,0.265625 0.296875,0.265625 0.125,0 0.296875,-0.078125 0.375,-0.28125 0,-0.015625 0.125,-0.484375 0.1875,-0.734375 C 1.703125,-1.203125 1.78125,-1.5 1.859375,-1.796875 1.90625,-2.03125 1.96875,-2.25 2.03125,-2.46875 c 0.03125,-0.171875 0.109375,-0.46875 0.125,-0.5 0.140625,-0.3125 0.671875,-1.21875 1.625,-1.21875 0.453125,0 0.53125,0.375 0.53125,0.703125 0,0.25 -0.0625,0.53125 -0.140625,0.828125 C 4.046875,-2.15625 4,-1.953125 3.890625,-1.5 3.78125,-1.140625 3.78125,-1.078125 3.6875,-0.75 c -0.03125,0.203125 -0.125,0.546875 -0.125,0.59375 0,0.171875 0.140625,0.265625 0.28125,0.265625 0.3125,0 0.375,-0.25 0.453125,-0.5625 0.140625,-0.5625 0.515625,-2.015625 0.59375,-2.40625 0.03125,-0.125 0.5625,-1.328125 1.65625,-1.328125 0.421875,0 0.53125,0.34375 0.53125,0.703125 0,0.5625 -0.421875,1.703125 -0.625,2.234375 -0.078125,0.234375 -0.125,0.34375 -0.125,0.546875 0,0.46875 0.34375,0.8125 0.8125,0.8125 0.9375,0 1.3125,-1.453125 1.3125,-1.53125 0,-0.109375 -0.09375,-0.109375 -0.125,-0.109375 -0.09375,0 -0.09375,0.03125 -0.140625,0.1875 -0.15625,0.53125 -0.46875,1.234375 -1.015625,1.234375 -0.171875,0 -0.25,-0.09375 -0.25,-0.328125 0,-0.25 0.09375,-0.484375 0.1875,-0.703125 0.1875,-0.53125 0.609375,-1.625 0.609375,-2.203125 0,-0.640625 -0.40625,-1.0625 -1.15625,-1.0625 -0.734375,0 -1.25,0.4375 -1.625,0.96875 0,-0.125 -0.03125,-0.46875 -0.3125,-0.703125 -0.25,-0.21875 -0.5625,-0.265625 -0.8125,-0.265625 -0.90625,0 -1.390625,0.640625 -1.5625,0.875 -0.046875,-0.578125 -0.46875,-0.875 -0.921875,-0.875 -0.453125,0 -0.640625,0.390625 -0.734375,0.5625 -0.171875,0.359375 -0.296875,0.9375 -0.296875,0.96875 0,0.109375 0.09375,0.109375 0.109375,0.109375 0.109375,0 0.109375,-0.015625 0.171875,-0.234375 0.171875,-0.703125 0.375,-1.1875 0.734375,-1.1875 0.15625,0 0.296875,0.078125 0.296875,0.453125 0,0.21875 -0.03125,0.328125 -0.15625,0.84375 z m 0,0"
               id="path23677"
               style="stroke:none" />
          </symbol>
          <symbol
             id="textext-f5e50cf8-1"
             style="overflow:visible">
            <path
               d="m 3.734375,-6.125 c 0.0625,-0.234375 0.09375,-0.328125 0.28125,-0.359375 C 4.109375,-6.5 4.421875,-6.5 4.625,-6.5 c 0.703125,0 1.8125,0 1.8125,0.984375 0,0.34375 -0.15625,1.03125 -0.546875,1.421875 -0.265625,0.25 -0.78125,0.578125 -1.6875,0.578125 l -1.109375,0 z m 1.4375,2.734375 c 1.015625,-0.21875 2.1875,-0.921875 2.1875,-1.921875 0,-0.859375 -0.890625,-1.5 -2.203125,-1.5 l -2.828125,0 c -0.203125,0 -0.296875,0 -0.296875,0.203125 C 2.03125,-6.5 2.125,-6.5 2.3125,-6.5 c 0.015625,0 0.203125,0 0.375,0.015625 0.1875,0.03125 0.265625,0.03125 0.265625,0.171875 0,0.03125 0,0.0625 -0.03125,0.1875 l -1.34375,5.34375 C 1.484375,-0.390625 1.46875,-0.3125 0.671875,-0.3125 0.5,-0.3125 0.40625,-0.3125 0.40625,-0.109375 0.40625,0 0.53125,0 0.546875,0 c 0.28125,0 0.984375,-0.03125 1.25,-0.03125 0.28125,0 1,0.03125 1.28125,0.03125 0.078125,0 0.1875,0 0.1875,-0.203125 0,-0.109375 -0.078125,-0.109375 -0.28125,-0.109375 -0.359375,0 -0.640625,0 -0.640625,-0.171875 0,-0.0625 0.015625,-0.109375 0.03125,-0.171875 l 0.65625,-2.640625 1.1875,0 c 0.90625,0 1.078125,0.5625 1.078125,0.90625 0,0.140625 -0.078125,0.453125 -0.140625,0.6875 C 5.09375,-1.421875 5,-1.0625 5,-0.859375 5,0.21875 6.203125,0.21875 6.328125,0.21875 c 0.84375,0 1.203125,-1 1.203125,-1.140625 0,-0.125 -0.109375,-0.125 -0.125,-0.125 -0.09375,0 -0.109375,0.0625 -0.125,0.140625 C 7.03125,-0.171875 6.59375,0 6.375,0 6.046875,0 5.96875,-0.21875 5.96875,-0.609375 c 0,-0.3125 0.0625,-0.8125 0.109375,-1.140625 0.015625,-0.140625 0.03125,-0.328125 0.03125,-0.46875 0,-0.765625 -0.671875,-1.078125 -0.9375,-1.171875 z m 0,0"
               id="path23680"
               style="stroke:none" />
          </symbol>
          <symbol
             id="textext-f5e50cf8-2"
             style="overflow:visible">
            <path
               d="m 2.03125,-0.015625 c 0,-0.65625 -0.25,-1.046875 -0.640625,-1.046875 -0.328125,0 -0.53125,0.25 -0.53125,0.53125 C 0.859375,-0.265625 1.0625,0 1.390625,0 1.5,0 1.640625,-0.046875 1.734375,-0.125 1.765625,-0.15625 1.78125,-0.15625 1.78125,-0.15625 c 0.015625,0 0.015625,0 0.015625,0.140625 0,0.75 -0.34375,1.34375 -0.671875,1.671875 -0.109375,0.109375 -0.109375,0.125 -0.109375,0.15625 0,0.078125 0.046875,0.109375 0.09375,0.109375 0.109375,0 0.921875,-0.765625 0.921875,-1.9375 z m 0,0"
               id="path23683"
               style="stroke:none" />
          </symbol>
          <symbol
             id="textext-f5e50cf8-3"
             style="overflow:visible">
            <path
               d="m 7.578125,-6.921875 c 0,-0.03125 -0.015625,-0.109375 -0.109375,-0.109375 -0.03125,0 -0.046875,0.015625 -0.15625,0.125 L 6.625,-6.140625 C 6.53125,-6.28125 6.078125,-7.03125 4.96875,-7.03125 2.734375,-7.03125 0.5,-4.828125 0.5,-2.515625 c 0,1.59375 1.109375,2.734375 2.71875,2.734375 0.4375,0 0.890625,-0.09375 1.25,-0.234375 0.5,-0.203125 0.6875,-0.40625 0.859375,-0.609375 0.09375,0.25 0.359375,0.609375 0.453125,0.609375 0.046875,0 0.078125,-0.03125 0.078125,-0.03125 C 5.875,-0.0625 5.96875,-0.453125 6.015625,-0.65625 l 0.1875,-0.765625 C 6.25,-1.59375 6.296875,-1.765625 6.34375,-1.9375 c 0.109375,-0.4375 0.109375,-0.46875 0.6875,-0.46875 0.046875,0 0.15625,-0.015625 0.15625,-0.203125 0,-0.078125 -0.046875,-0.109375 -0.125,-0.109375 -0.234375,0 -0.828125,0.03125 -1.046875,0.03125 -0.3125,0 -1.09375,-0.03125 -1.40625,-0.03125 -0.078125,0 -0.203125,0 -0.203125,0.203125 0,0.109375 0.078125,0.109375 0.296875,0.109375 0.015625,0 0.296875,0 0.53125,0.015625 0.265625,0.03125 0.3125,0.0625 0.3125,0.1875 0,0.09375 -0.109375,0.53125 -0.21875,0.90625 -0.28125,1.09375 -1.5625,1.203125 -1.921875,1.203125 -0.953125,0 -2,-0.5625 -2,-2.09375 0,-0.3125 0.09375,-1.953125 1.140625,-3.25 0.546875,-0.671875 1.515625,-1.28125 2.5,-1.28125 1.015625,0 1.609375,0.765625 1.609375,1.921875 0,0.40625 -0.03125,0.40625 -0.03125,0.515625 0,0.09375 0.109375,0.09375 0.140625,0.09375 0.125,0 0.125,-0.015625 0.1875,-0.203125 z m 0,0"
               id="path23686"
               style="stroke:none" />
          </symbol>
          <symbol
             id="textext-f5e50cf8-4"
             style="overflow:visible">
            <path
               d="M 1.59375,-0.78125 C 1.5,-0.390625 1.46875,-0.3125 0.6875,-0.3125 c -0.171875,0 -0.265625,0 -0.265625,0.203125 C 0.421875,0 0.515625,0 0.6875,0 L 4.25,0 C 5.828125,0 7,-1.171875 7,-2.15625 7,-2.875 6.421875,-3.453125 5.453125,-3.5625 6.484375,-3.75 7.53125,-4.484375 7.53125,-5.4375 c 0,-0.734375 -0.65625,-1.375 -1.84375,-1.375 l -3.359375,0 c -0.1875,0 -0.28125,0 -0.28125,0.203125 0,0.109375 0.09375,0.109375 0.28125,0.109375 0.015625,0 0.203125,0 0.375,0.015625 0.171875,0.03125 0.265625,0.03125 0.265625,0.171875 0,0.03125 -0.015625,0.0625 -0.03125,0.1875 z m 1.5,-2.875 0.625,-2.46875 C 3.8125,-6.46875 3.828125,-6.5 4.25,-6.5 l 1.296875,0 c 0.875,0 1.078125,0.59375 1.078125,1.03125 0,0.875 -0.859375,1.8125 -2.0625,1.8125 z m -0.4375,3.34375 c -0.140625,0 -0.15625,0 -0.21875,0 -0.109375,-0.015625 -0.140625,-0.03125 -0.140625,-0.109375 0,-0.03125 0,-0.046875 0.0625,-0.21875 l 0.6875,-2.78125 1.875,0 c 0.953125,0 1.15625,0.734375 1.15625,1.15625 C 6.078125,-1.28125 5.1875,-0.3125 4,-0.3125 z m 0,0"
               id="path23689"
               style="stroke:none" />
          </symbol>
          <symbol
             id="textext-f5e50cf8-5"
             style="overflow:visible">
            <path
               d="M 9.234375,-6.046875 C 9.328125,-6.40625 9.34375,-6.5 10.09375,-6.5 c 0.21875,0 0.3125,0 0.3125,-0.203125 0,-0.109375 -0.09375,-0.109375 -0.265625,-0.109375 l -1.3125,0 c -0.265625,0 -0.28125,0 -0.390625,0.1875 L 4.796875,-0.9375 4.015625,-6.578125 C 3.984375,-6.8125 3.96875,-6.8125 3.703125,-6.8125 l -1.359375,0 c -0.1875,0 -0.296875,0 -0.296875,0.1875 0,0.125 0.09375,0.125 0.28125,0.125 0.140625,0 0.3125,0.015625 0.4375,0.015625 0.15625,0.03125 0.21875,0.046875 0.21875,0.171875 0,0.03125 -0.015625,0.0625 -0.046875,0.1875 l -1.265625,5.0625 c -0.09375,0.40625 -0.265625,0.71875 -1.078125,0.75 -0.046875,0 -0.171875,0.015625 -0.171875,0.1875 0,0.09375 0.0625,0.125 0.140625,0.125 0.3125,0 0.65625,-0.03125 1,-0.03125 C 1.890625,-0.03125 2.25,0 2.578125,0 c 0.046875,0 0.1875,0 0.1875,-0.203125 0,-0.109375 -0.109375,-0.109375 -0.1875,-0.109375 -0.5625,0 -0.671875,-0.203125 -0.671875,-0.4375 0,-0.0625 0,-0.125 0.03125,-0.234375 l 1.359375,-5.421875 0.015625,0 0.859375,6.171875 C 4.1875,-0.109375 4.203125,0 4.3125,0 4.421875,0 4.484375,-0.109375 4.53125,-0.171875 l 4.03125,-6.3125 0.015625,0 -1.4375,5.703125 c -0.09375,0.390625 -0.109375,0.46875 -0.90625,0.46875 -0.15625,0 -0.265625,0 -0.265625,0.1875 C 5.96875,0 6.078125,0 6.109375,0 6.390625,0 7.0625,-0.03125 7.34375,-0.03125 7.75,-0.03125 8.1875,0 8.59375,0 8.65625,0 8.78125,0 8.78125,-0.203125 8.78125,-0.3125 8.6875,-0.3125 8.5,-0.3125 c -0.359375,0 -0.640625,0 -0.640625,-0.171875 0,-0.046875 0,-0.0625 0.046875,-0.25 z m 0,0"
               id="path23692"
               style="stroke:none" />
          </symbol>
          <symbol
             id="textext-f5e50cf8-6"
             style="overflow:visible">
            <path
               d="m 5.140625,-6.8125 c 0,0 0,-0.109375 -0.125,-0.109375 -0.15625,0 -1.09375,0.09375 -1.265625,0.109375 -0.078125,0.015625 -0.140625,0.0625 -0.140625,0.1875 0,0.125 0.09375,0.125 0.234375,0.125 0.484375,0 0.5,0.0625 0.5,0.171875 L 4.3125,-6.125 3.71875,-3.765625 C 3.53125,-4.140625 3.25,-4.40625 2.796875,-4.40625 c -1.15625,0 -2.390625,1.46875 -2.390625,2.921875 0,0.9375 0.546875,1.59375 1.3125,1.59375 0.203125,0 0.703125,-0.046875 1.296875,-0.75 0.078125,0.421875 0.4375,0.75 0.90625,0.75 0.359375,0 0.578125,-0.234375 0.75,-0.546875 0.15625,-0.359375 0.296875,-0.96875 0.296875,-0.984375 0,-0.109375 -0.09375,-0.109375 -0.125,-0.109375 -0.09375,0 -0.109375,0.046875 -0.140625,0.1875 -0.171875,0.640625 -0.34375,1.234375 -0.75,1.234375 -0.28125,0 -0.296875,-0.265625 -0.296875,-0.453125 0,-0.25 0.015625,-0.3125 0.046875,-0.484375 z m -2.0625,5.625 C 3.015625,-1 3.015625,-0.984375 2.875,-0.8125 2.4375,-0.265625 2.03125,-0.109375 1.75,-0.109375 c -0.5,0 -0.640625,-0.546875 -0.640625,-0.9375 0,-0.5 0.3125,-1.71875 0.546875,-2.1875 0.3125,-0.578125 0.75,-0.953125 1.15625,-0.953125 0.640625,0 0.78125,0.8125 0.78125,0.875 0,0.0625 -0.015625,0.125 -0.03125,0.171875 z m 0,0"
               id="path23695"
               style="stroke:none" />
          </symbol>
          <symbol
             id="textext-f5e50cf8-7"
             style="overflow:visible">
            <path
               d="M 3.890625,-3.734375 C 3.625,-3.71875 3.421875,-3.5 3.421875,-3.28125 c 0,0.140625 0.09375,0.296875 0.3125,0.296875 0.21875,0 0.453125,-0.171875 0.453125,-0.5625 C 4.1875,-4 3.765625,-4.40625 3,-4.40625 c -1.3125,0 -1.6875,1.015625 -1.6875,1.453125 0,0.78125 0.734375,0.921875 1.03125,0.984375 0.515625,0.109375 1.03125,0.21875 1.03125,0.765625 0,0.25 -0.21875,1.09375 -1.421875,1.09375 -0.140625,0 -0.90625,0 -1.140625,-0.53125 0.390625,0.046875 0.640625,-0.25 0.640625,-0.53125 0,-0.21875 -0.171875,-0.34375 -0.375,-0.34375 -0.265625,0 -0.5625,0.203125 -0.5625,0.65625 0,0.5625 0.578125,0.96875 1.421875,0.96875 1.625,0 2.015625,-1.203125 2.015625,-1.65625 0,-0.359375 -0.1875,-0.609375 -0.3125,-0.71875 -0.265625,-0.28125 -0.5625,-0.34375 -1,-0.421875 -0.359375,-0.078125 -0.75,-0.15625 -0.75,-0.609375 C 1.890625,-3.578125 2.125,-4.1875 3,-4.1875 c 0.25,0 0.75,0.078125 0.890625,0.453125 z m 0,0"
               id="path23698"
               style="stroke:none" />
          </symbol>
          <symbol
             id="textext-f5e50cf8-8"
             style="overflow:visible">
            <path
               d="M 6.265625,-5.671875 C 6.75,-6.453125 7.171875,-6.484375 7.53125,-6.5 c 0.125,-0.015625 0.140625,-0.171875 0.140625,-0.1875 0,-0.078125 -0.0625,-0.125 -0.140625,-0.125 -0.25,0 -0.546875,0.03125 -0.8125,0.03125 -0.328125,0 -0.671875,-0.03125 -0.984375,-0.03125 -0.0625,0 -0.1875,0 -0.1875,0.1875 0,0.109375 0.078125,0.125 0.15625,0.125 0.265625,0.015625 0.453125,0.125 0.453125,0.328125 0,0.15625 -0.140625,0.375 -0.140625,0.375 l -3.0625,4.875 -0.6875,-5.28125 C 2.265625,-6.375 2.5,-6.5 2.953125,-6.5 c 0.140625,0 0.25,0 0.25,-0.203125 0,-0.078125 -0.078125,-0.109375 -0.125,-0.109375 -0.40625,0 -0.828125,0.03125 -1.25,0.03125 -0.171875,0 -0.359375,0 -0.546875,0 -0.171875,0 -0.359375,-0.03125 -0.53125,-0.03125 -0.078125,0 -0.1875,0 -0.1875,0.1875 0,0.125 0.078125,0.125 0.25,0.125 0.546875,0 0.5625,0.09375 0.59375,0.34375 L 2.1875,-0.015625 C 2.21875,0.1875 2.265625,0.21875 2.390625,0.21875 c 0.15625,0 0.203125,-0.046875 0.28125,-0.171875 z m 0,0"
               id="path23701"
               style="stroke:none" />
          </symbol>
          <symbol
             id="textext-f5e50cf8-9"
             style="overflow:visible">
            <path
               d="m 6.4375,-6.921875 c 0,-0.03125 -0.03125,-0.109375 -0.125,-0.109375 -0.046875,0 -0.046875,0.015625 -0.171875,0.15625 L 5.65625,-6.3125 c -0.25,-0.46875 -0.765625,-0.71875 -1.421875,-0.71875 -1.265625,0 -2.453125,1.15625 -2.453125,2.359375 0,0.796875 0.515625,1.265625 1.03125,1.40625 l 1.0625,0.28125 c 0.375,0.09375 0.921875,0.25 0.921875,1.0625 0,0.890625 -0.8125,1.828125 -1.796875,1.828125 -0.640625,0 -1.75,-0.21875 -1.75,-1.453125 0,-0.234375 0.0625,-0.484375 0.0625,-0.53125 0.015625,-0.046875 0.015625,-0.0625 0.015625,-0.078125 0,-0.09375 -0.0625,-0.109375 -0.109375,-0.109375 -0.046875,0 -0.078125,0.015625 -0.109375,0.046875 -0.03125,0.03125 -0.59375,2.3125 -0.59375,2.34375 0,0.046875 0.046875,0.09375 0.109375,0.09375 0.046875,0 0.0625,-0.015625 0.1875,-0.15625 L 1.296875,-0.5 c 0.421875,0.578125 1.109375,0.71875 1.6875,0.71875 1.359375,0 2.53125,-1.328125 2.53125,-2.5625 0,-0.6875 -0.34375,-1.03125 -0.484375,-1.171875 C 4.796875,-3.734375 4.640625,-3.78125 3.765625,-4 3.53125,-4.0625 3.1875,-4.171875 3.09375,-4.1875 2.828125,-4.28125 2.484375,-4.5625 2.484375,-5.09375 c 0,-0.8125 0.796875,-1.65625 1.75,-1.65625 0.8125,0 1.421875,0.4375 1.421875,1.546875 0,0.3125 -0.03125,0.5 -0.03125,0.5625 0,0 0,0.09375 0.109375,0.09375 0.109375,0 0.125,-0.03125 0.15625,-0.203125 z m 0,0"
               id="path23704"
               style="stroke:none" />
          </symbol>
          <symbol
             id="textext-f5e50cf8-10"
             style="overflow:visible">
            <path
               d="m 4.375,-7.09375 c 0.046875,-0.140625 0.046875,-0.171875 0.046875,-0.1875 0,-0.109375 -0.078125,-0.203125 -0.1875,-0.203125 -0.078125,0 -0.140625,0.03125 -0.171875,0.09375 l -3.46875,9.5 C 0.546875,2.25 0.546875,2.28125 0.546875,2.296875 0.546875,2.40625 0.640625,2.5 0.75,2.5 0.875,2.5 0.90625,2.421875 0.96875,2.25 z m 0,0"
               id="path23707"
               style="stroke:none" />
          </symbol>
          <symbol
             id="textext-f5e50cf8-11"
             style="overflow:visible">
            <path
               d="M 3.734375,-6.046875 C 3.8125,-6.40625 3.84375,-6.5 4.640625,-6.5 c 0.234375,0 0.3125,0 0.3125,-0.1875 0,-0.125 -0.109375,-0.125 -0.140625,-0.125 -0.296875,0 -1.03125,0.03125 -1.328125,0.03125 -0.296875,0 -1.015625,-0.03125 -1.328125,-0.03125 -0.0625,0 -0.1875,0 -0.1875,0.203125 C 1.96875,-6.5 2.046875,-6.5 2.25,-6.5 c 0.40625,0 0.6875,0 0.6875,0.1875 0,0.046875 0,0.078125 -0.03125,0.15625 l -1.34375,5.375 c -0.09375,0.375 -0.109375,0.46875 -0.90625,0.46875 -0.234375,0 -0.3125,0 -0.3125,0.203125 C 0.34375,0 0.453125,0 0.484375,0 0.78125,0 1.5,-0.03125 1.796875,-0.03125 2.09375,-0.03125 2.828125,0 3.125,0 c 0.078125,0 0.203125,0 0.203125,-0.1875 0,-0.125 -0.078125,-0.125 -0.296875,-0.125 -0.1875,0 -0.234375,0 -0.421875,-0.015625 -0.21875,-0.015625 -0.25,-0.0625 -0.25,-0.171875 0,-0.078125 0.015625,-0.15625 0.03125,-0.234375 z m 0,0"
               id="path23710"
               style="stroke:none" />
          </symbol>
          <symbol
             id="textext-f5e50cf8-12"
             style="overflow:visible">
            <path
               d="M 6.734375,-2.265625 C 6.84375,-2.328125 6.921875,-2.375 6.921875,-2.5 c 0,-0.109375 -0.078125,-0.15625 -0.1875,-0.21875 L 1.203125,-5.3125 C 1.078125,-5.390625 1.0625,-5.390625 1.03125,-5.390625 c -0.109375,0 -0.203125,0.09375 -0.203125,0.203125 0,0.09375 0.046875,0.15625 0.1875,0.21875 L 6.25,-2.5 1.015625,-0.015625 c -0.140625,0.0625 -0.1875,0.125 -0.1875,0.21875 0,0.109375 0.09375,0.203125 0.203125,0.203125 0.03125,0 0.046875,0 0.171875,-0.078125 z m 0,0"
               id="path23713"
               style="stroke:none" />
          </symbol>
          <symbol
             id="textext-f5e50cf8-13"
             style="overflow:visible">
            <path
               d="M 7.609375,-6.046875 C 7.703125,-6.40625 7.71875,-6.5 8.4375,-6.5 c 0.265625,0 0.34375,0 0.34375,-0.203125 0,-0.109375 -0.109375,-0.109375 -0.140625,-0.109375 -0.28125,0 -1,0.03125 -1.28125,0.03125 -0.28125,0 -0.984375,-0.03125 -1.28125,-0.03125 -0.078125,0 -0.1875,0 -0.1875,0.203125 0,0.109375 0.09375,0.109375 0.28125,0.109375 0.015625,0 0.203125,0 0.375,0.015625 0.1875,0.03125 0.265625,0.03125 0.265625,0.171875 0,0.03125 0,0.046875 -0.03125,0.1875 l -0.59375,2.421875 -3.046875,0 0.59375,-2.34375 C 3.8125,-6.40625 3.84375,-6.5 4.5625,-6.5 c 0.265625,0 0.34375,0 0.34375,-0.203125 0,-0.109375 -0.109375,-0.109375 -0.140625,-0.109375 -0.28125,0 -1,0.03125 -1.28125,0.03125 -0.28125,0 -0.984375,-0.03125 -1.28125,-0.03125 -0.078125,0 -0.1875,0 -0.1875,0.203125 0,0.109375 0.09375,0.109375 0.28125,0.109375 0.015625,0 0.203125,0 0.375,0.015625 0.171875,0.03125 0.265625,0.03125 0.265625,0.171875 0,0.03125 0,0.0625 -0.03125,0.1875 L 1.5625,-0.78125 c -0.09375,0.390625 -0.109375,0.46875 -0.90625,0.46875 -0.171875,0 -0.265625,0 -0.265625,0.203125 C 0.390625,0 0.515625,0 0.53125,0 0.8125,0 1.515625,-0.03125 1.796875,-0.03125 2,-0.03125 2.21875,-0.015625 2.4375,-0.015625 2.65625,-0.015625 2.875,0 3.078125,0 3.15625,0 3.28125,0 3.28125,-0.203125 3.28125,-0.3125 3.1875,-0.3125 3,-0.3125 c -0.375,0 -0.640625,0 -0.640625,-0.171875 0,-0.0625 0.015625,-0.109375 0.015625,-0.171875 l 0.6875,-2.734375 3.03125,0 c -0.40625,1.65625 -0.640625,2.609375 -0.6875,2.75 C 5.3125,-0.3125 5.125,-0.3125 4.5,-0.3125 c -0.140625,0 -0.234375,0 -0.234375,0.203125 C 4.265625,0 4.390625,0 4.40625,0 4.6875,0 5.390625,-0.03125 5.671875,-0.03125 5.875,-0.03125 6.09375,-0.015625 6.3125,-0.015625 6.53125,-0.015625 6.75,0 6.953125,0 7.03125,0 7.15625,0 7.15625,-0.203125 7.15625,-0.3125 7.0625,-0.3125 6.875,-0.3125 c -0.359375,0 -0.640625,0 -0.640625,-0.171875 0,-0.0625 0.015625,-0.109375 0.03125,-0.171875 z m 0,0"
               id="path23716"
               style="stroke:none" />
          </symbol>
          <symbol
             id="textext-f5e50cf8-14"
             style="overflow:visible">
            <path
               d="m 6.84375,-3.265625 c 0.15625,0 0.34375,0 0.34375,-0.1875 C 7.1875,-3.65625 7,-3.65625 6.859375,-3.65625 l -5.96875,0 c -0.140625,0 -0.328125,0 -0.328125,0.203125 0,0.1875 0.1875,0.1875 0.328125,0.1875 z m 0.015625,1.9375 c 0.140625,0 0.328125,0 0.328125,-0.203125 0,-0.1875 -0.1875,-0.1875 -0.34375,-0.1875 l -5.953125,0 c -0.140625,0 -0.328125,0 -0.328125,0.1875 0,0.203125 0.1875,0.203125 0.328125,0.203125 z m 0,0"
               id="path23719"
               style="stroke:none" />
          </symbol>
          <symbol
             id="textext-f5e50cf8-15"
             style="overflow:visible">
            <path
               d="m 1.09375,-3.421875 0,2.671875 c 0,0.4375 -0.109375,0.4375 -0.78125,0.4375 l 0,0.3125 c 0.359375,-0.015625 0.859375,-0.03125 1.140625,-0.03125 0.25,0 0.765625,0.015625 1.109375,0.03125 l 0,-0.3125 c -0.671875,0 -0.78125,0 -0.78125,-0.4375 l 0,-1.84375 C 1.78125,-3.625 2.5,-4.1875 3.125,-4.1875 c 0.640625,0 0.75,0.53125 0.75,1.109375 l 0,2.328125 c 0,0.4375 -0.109375,0.4375 -0.78125,0.4375 l 0,0.3125 c 0.34375,-0.015625 0.859375,-0.03125 1.125,-0.03125 0.25,0 0.78125,0.015625 1.109375,0.03125 l 0,-0.3125 c -0.65625,0 -0.765625,0 -0.765625,-0.4375 l 0,-1.84375 c 0,-1.03125 0.703125,-1.59375 1.34375,-1.59375 0.625,0 0.734375,0.53125 0.734375,1.109375 l 0,2.328125 c 0,0.4375 -0.109375,0.4375 -0.78125,0.4375 l 0,0.3125 c 0.34375,-0.015625 0.859375,-0.03125 1.125,-0.03125 0.265625,0 0.78125,0.015625 1.125,0.03125 l 0,-0.3125 c -0.515625,0 -0.765625,0 -0.78125,-0.296875 l 0,-1.90625 c 0,-0.859375 0,-1.15625 -0.3125,-1.515625 -0.140625,-0.171875 -0.46875,-0.375 -1.046875,-0.375 -0.828125,0 -1.28125,0.59375 -1.4375,0.984375 C 4.390625,-4.296875 3.65625,-4.40625 3.203125,-4.40625 2.46875,-4.40625 2,-3.984375 1.71875,-3.359375 l 0,-1.046875 -1.40625,0.109375 0,0.3125 c 0.703125,0 0.78125,0.0625 0.78125,0.5625 z m 0,0"
               id="path23722"
               style="stroke:none" />
          </symbol>
          <symbol
             id="textext-f5e50cf8-16"
             style="overflow:visible">
            <path
               d="M 1.765625,-4.40625 0.375,-4.296875 l 0,0.3125 c 0.640625,0 0.734375,0.0625 0.734375,0.546875 l 0,2.6875 c 0,0.4375 -0.109375,0.4375 -0.78125,0.4375 l 0,0.3125 C 0.640625,-0.015625 1.1875,-0.03125 1.421875,-0.03125 1.78125,-0.03125 2.125,-0.015625 2.46875,0 l 0,-0.3125 c -0.671875,0 -0.703125,-0.046875 -0.703125,-0.4375 z m 0.03125,-1.734375 c 0,-0.3125 -0.234375,-0.53125 -0.515625,-0.53125 -0.3125,0 -0.53125,0.265625 -0.53125,0.53125 0,0.265625 0.21875,0.53125 0.53125,0.53125 0.28125,0 0.515625,-0.21875 0.515625,-0.53125 z m 0,0"
               id="path23725"
               style="stroke:none" />
          </symbol>
          <symbol
             id="textext-f5e50cf8-17"
             style="overflow:visible">
            <path
               d="m 1.09375,-3.421875 0,2.671875 c 0,0.4375 -0.109375,0.4375 -0.78125,0.4375 l 0,0.3125 c 0.359375,-0.015625 0.859375,-0.03125 1.140625,-0.03125 0.25,0 0.765625,0.015625 1.109375,0.03125 l 0,-0.3125 c -0.671875,0 -0.78125,0 -0.78125,-0.4375 l 0,-1.84375 C 1.78125,-3.625 2.5,-4.1875 3.125,-4.1875 c 0.640625,0 0.75,0.53125 0.75,1.109375 l 0,2.328125 c 0,0.4375 -0.109375,0.4375 -0.78125,0.4375 l 0,0.3125 c 0.34375,-0.015625 0.859375,-0.03125 1.125,-0.03125 0.25,0 0.78125,0.015625 1.109375,0.03125 l 0,-0.3125 c -0.515625,0 -0.765625,0 -0.765625,-0.296875 l 0,-1.90625 c 0,-0.859375 0,-1.15625 -0.3125,-1.515625 -0.140625,-0.171875 -0.46875,-0.375 -1.046875,-0.375 C 2.46875,-4.40625 2,-3.984375 1.71875,-3.359375 l 0,-1.046875 -1.40625,0.109375 0,0.3125 c 0.703125,0 0.78125,0.0625 0.78125,0.5625 z m 0,0"
               id="path23728"
               style="stroke:none" />
          </symbol>
          <symbol
             id="textext-f5e50cf8-18"
             style="overflow:visible">
            <path
               d="m 3.296875,2.390625 c 0,-0.03125 0,-0.046875 -0.171875,-0.21875 C 1.890625,0.921875 1.5625,-0.96875 1.5625,-2.5 c 0,-1.734375 0.375,-3.46875 1.609375,-4.703125 0.125,-0.125 0.125,-0.140625 0.125,-0.171875 0,-0.078125 -0.03125,-0.109375 -0.09375,-0.109375 -0.109375,0 -1,0.6875 -1.59375,1.953125 -0.5,1.09375 -0.625,2.203125 -0.625,3.03125 0,0.78125 0.109375,1.984375 0.65625,3.125 C 2.25,1.84375 3.09375,2.5 3.203125,2.5 c 0.0625,0 0.09375,-0.03125 0.09375,-0.109375 z m 0,0"
               id="path23731"
               style="stroke:none" />
          </symbol>
          <symbol
             id="textext-f5e50cf8-19"
             style="overflow:visible">
            <path
               d="m 2.875,-2.5 c 0,-0.765625 -0.109375,-1.96875 -0.65625,-3.109375 -0.59375,-1.21875 -1.453125,-1.875 -1.546875,-1.875 -0.0625,0 -0.109375,0.046875 -0.109375,0.109375 0,0.03125 0,0.046875 0.1875,0.234375 0.984375,0.984375 1.546875,2.5625 1.546875,4.640625 0,1.71875 -0.359375,3.46875 -1.59375,4.71875 C 0.5625,2.34375 0.5625,2.359375 0.5625,2.390625 0.5625,2.453125 0.609375,2.5 0.671875,2.5 0.765625,2.5 1.671875,1.8125 2.25,0.546875 2.765625,-0.546875 2.875,-1.65625 2.875,-2.5 z m 0,0"
               id="path23734"
               style="stroke:none" />
          </symbol>
          <symbol
             id="textext-f5e50cf8-20"
             style="overflow:visible">
            <path
               d="m 3.3125,-0.75 c 0.046875,0.390625 0.3125,0.8125 0.78125,0.8125 0.21875,0 0.828125,-0.140625 0.828125,-0.953125 l 0,-0.5625 -0.25,0 0,0.5625 c 0,0.578125 -0.25,0.640625 -0.359375,0.640625 -0.328125,0 -0.375,-0.453125 -0.375,-0.5 l 0,-1.984375 c 0,-0.421875 0,-0.8125 -0.359375,-1.1875 C 3.1875,-4.3125 2.6875,-4.46875 2.21875,-4.46875 c -0.828125,0 -1.515625,0.46875 -1.515625,1.125 0,0.296875 0.203125,0.46875 0.46875,0.46875 0.28125,0 0.453125,-0.203125 0.453125,-0.453125 0,-0.125 -0.046875,-0.453125 -0.515625,-0.453125 C 1.390625,-4.140625 1.875,-4.25 2.1875,-4.25 c 0.5,0 1.0625,0.390625 1.0625,1.28125 l 0,0.359375 c -0.515625,0.03125 -1.203125,0.0625 -1.828125,0.359375 -0.75,0.34375 -1,0.859375 -1,1.296875 0,0.8125 0.96875,1.0625 1.59375,1.0625 0.65625,0 1.109375,-0.40625 1.296875,-0.859375 z M 3.25,-2.390625 l 0,1 c 0,0.9375 -0.71875,1.28125 -1.171875,1.28125 -0.484375,0 -0.890625,-0.34375 -0.890625,-0.84375 0,-0.546875 0.421875,-1.375 2.0625,-1.4375 z m 0,0"
               id="path23737"
               style="stroke:none" />
          </symbol>
          <symbol
             id="textext-f5e50cf8-21"
             style="overflow:visible">
            <path
               d="M 2.859375,-2.34375 C 3.15625,-2.71875 3.53125,-3.203125 3.78125,-3.46875 4.09375,-3.828125 4.5,-3.984375 4.96875,-3.984375 l 0,-0.3125 c -0.265625,0.015625 -0.5625,0.03125 -0.828125,0.03125 -0.296875,0 -0.828125,-0.015625 -0.953125,-0.03125 l 0,0.3125 c 0.21875,0.015625 0.296875,0.140625 0.296875,0.3125 0,0.15625 -0.109375,0.28125 -0.15625,0.34375 L 2.71875,-2.546875 1.9375,-3.5625 C 1.84375,-3.65625 1.84375,-3.671875 1.84375,-3.734375 c 0,-0.15625 0.15625,-0.25 0.34375,-0.25 l 0,-0.3125 c -0.25,0.015625 -0.90625,0.03125 -1.078125,0.03125 -0.203125,0 -0.671875,-0.015625 -0.9375,-0.03125 l 0,0.3125 c 0.703125,0 0.703125,0 1.171875,0.609375 l 0.984375,1.28125 c -0.46875,0.59375 -0.46875,0.625 -0.9375,1.1875 C 0.921875,-0.328125 0.328125,-0.3125 0.125,-0.3125 L 0.125,0 c 0.25,-0.015625 0.5625,-0.03125 0.828125,-0.03125 0.28125,0 0.703125,0.015625 0.9375,0.03125 l 0,-0.3125 c -0.21875,-0.03125 -0.28125,-0.15625 -0.28125,-0.3125 0,-0.21875 0.28125,-0.546875 0.890625,-1.265625 0.296875,0.390625 0.375,0.5 0.765625,1 C 3.34375,-0.78125 3.46875,-0.625 3.46875,-0.5625 c 0,0.09375 -0.09375,0.25 -0.359375,0.25 l 0,0.3125 C 3.40625,-0.015625 3.96875,-0.03125 4.1875,-0.03125 c 0.265625,0 0.65625,0.015625 0.953125,0.03125 l 0,-0.3125 c -0.53125,0 -0.71875,-0.015625 -0.9375,-0.3125 z m 0,0"
               id="path23740"
               style="stroke:none" />
          </symbol>
          <symbol
             id="textext-f5e50cf8-22"
             style="overflow:visible">
            <path
               d="m 4.078125,-2.296875 2.78125,0 C 7,-2.296875 7.1875,-2.296875 7.1875,-2.5 7.1875,-2.6875 7,-2.6875 6.859375,-2.6875 l -2.78125,0 0,-2.796875 c 0,-0.140625 0,-0.328125 -0.203125,-0.328125 -0.203125,0 -0.203125,0.1875 -0.203125,0.328125 l 0,2.796875 -2.78125,0 c -0.140625,0 -0.328125,0 -0.328125,0.1875 0,0.203125 0.1875,0.203125 0.328125,0.203125 l 2.78125,0 0,2.796875 c 0,0.140625 0,0.328125 0.203125,0.328125 0.203125,0 0.203125,-0.1875 0.203125,-0.328125 z m 0,0"
               id="path23743"
               style="stroke:none" />
          </symbol>
          <symbol
             id="textext-f5e50cf8-23"
             style="overflow:visible">
            <path
               d="m 4.578125,-3.1875 c 0,-0.796875 -0.046875,-1.59375 -0.390625,-2.328125 -0.453125,-0.96875 -1.28125,-1.125 -1.6875,-1.125 -0.609375,0 -1.328125,0.265625 -1.75,1.1875 -0.3125,0.6875 -0.359375,1.46875 -0.359375,2.265625 0,0.75 0.03125,1.640625 0.453125,2.40625 0.421875,0.796875 1.15625,1 1.640625,1 0.53125,0 1.296875,-0.203125 1.734375,-1.15625 0.3125,-0.6875 0.359375,-1.46875 0.359375,-2.25 z M 2.484375,0 C 2.09375,0 1.5,-0.25 1.328125,-1.203125 1.21875,-1.796875 1.21875,-2.71875 1.21875,-3.3125 c 0,-0.640625 0,-1.296875 0.078125,-1.828125 0.1875,-1.1875 0.9375,-1.28125 1.1875,-1.28125 0.328125,0 0.984375,0.1875 1.171875,1.171875 0.109375,0.5625 0.109375,1.3125 0.109375,1.9375 0,0.75 0,1.421875 -0.109375,2.0625 C 3.5,-0.296875 2.9375,0 2.484375,0 z m 0,0"
               id="path23746"
               style="stroke:none" />
          </symbol>
          <symbol
             id="textext-f5e50cf8-24"
             style="overflow:visible">
            <path
               d="m 1.78125,-3.984375 1.125,0 0,-0.3125 -1.15625,0 0,-1.15625 c 0,-0.875 0.46875,-1.359375 0.90625,-1.359375 0.03125,0 0.1875,0 0.328125,0.078125 C 2.875,-6.703125 2.6875,-6.5625 2.6875,-6.3125 c 0,0.21875 0.15625,0.421875 0.4375,0.421875 0.28125,0 0.4375,-0.203125 0.4375,-0.4375 0,-0.375 -0.375,-0.703125 -0.90625,-0.703125 -0.6875,0 -1.546875,0.53125 -1.546875,1.59375 l 0,1.140625 -0.78125,0 0,0.3125 0.78125,0 0,3.234375 c 0,0.4375 -0.109375,0.4375 -0.765625,0.4375 l 0,0.3125 c 0.390625,-0.015625 0.859375,-0.03125 1.125,-0.03125 0.40625,0 0.875,0 1.265625,0.03125 l 0,-0.3125 -0.203125,0 c -0.734375,0 -0.75,-0.109375 -0.75,-0.46875 z m 0,0"
               id="path23749"
               style="stroke:none" />
          </symbol>
          <symbol
             id="textext-f5e50cf8-25"
             style="overflow:visible">
            <path
               d="m 4.46875,-1.734375 -0.234375,0 C 4.171875,-1.4375 4.109375,-1 4,-0.84375 3.9375,-0.765625 3.28125,-0.765625 3.0625,-0.765625 l -1.796875,0 1.0625,-1.03125 c 1.546875,-1.375 2.140625,-1.90625 2.140625,-2.90625 0,-1.140625 -0.890625,-1.9375 -2.109375,-1.9375 -1.125,0 -1.859375,0.921875 -1.859375,1.8125 0,0.546875 0.5,0.546875 0.53125,0.546875 0.171875,0 0.515625,-0.109375 0.515625,-0.53125 0,-0.25 -0.1875,-0.515625 -0.53125,-0.515625 -0.078125,0 -0.09375,0 -0.125,0.015625 0.21875,-0.65625 0.765625,-1.015625 1.34375,-1.015625 0.90625,0 1.328125,0.8125 1.328125,1.625 C 3.5625,-3.90625 3.078125,-3.125 2.515625,-2.5 l -1.90625,2.125 C 0.5,-0.265625 0.5,-0.234375 0.5,0 l 3.703125,0 z m 0,0"
               id="path23752"
               style="stroke:none" />
          </symbol>
          <symbol
             id="textext-f5e50cf8-26"
             style="overflow:visible">
            <path
               d="m 2.9375,-6.375 c 0,-0.25 0,-0.265625 -0.234375,-0.265625 C 2.078125,-6 1.203125,-6 0.890625,-6 l 0,0.3125 c 0.203125,0 0.78125,0 1.296875,-0.265625 l 0,5.171875 c 0,0.359375 -0.03125,0.46875 -0.921875,0.46875 l -0.3125,0 0,0.3125 c 0.34375,-0.03125 1.203125,-0.03125 1.609375,-0.03125 0.390625,0 1.265625,0 1.609375,0.03125 l 0,-0.3125 -0.3125,0 c -0.90625,0 -0.921875,-0.109375 -0.921875,-0.46875 z m 0,0"
               id="path23755"
               style="stroke:none" />
          </symbol>
          <symbol
             id="textext-f5e50cf8-27"
             style="overflow:visible">
            <path
               d="m 1.3125,-3.265625 0,-0.25 c 0,-2.515625 1.234375,-2.875 1.75,-2.875 0.234375,0 0.65625,0.0625 0.875,0.40625 -0.15625,0 -0.546875,0 -0.546875,0.4375 0,0.3125 0.234375,0.46875 0.453125,0.46875 0.15625,0 0.46875,-0.09375 0.46875,-0.484375 0,-0.59375 -0.4375,-1.078125 -1.265625,-1.078125 -1.28125,0 -2.625,1.28125 -2.625,3.484375 0,2.671875 1.15625,3.375 2.078125,3.375 1.109375,0 2.0625,-0.9375 2.0625,-2.25 0,-1.265625 -0.890625,-2.21875 -2,-2.21875 -0.671875,0 -1.046875,0.5 -1.25,0.984375 z M 2.5,-0.0625 c -0.625,0 -0.921875,-0.59375 -0.984375,-0.75 -0.1875,-0.46875 -0.1875,-1.265625 -0.1875,-1.4375 0,-0.78125 0.328125,-1.78125 1.21875,-1.78125 0.171875,0 0.625,0 0.9375,0.625 0.171875,0.359375 0.171875,0.875 0.171875,1.359375 0,0.484375 0,0.984375 -0.171875,1.34375 C 3.1875,-0.109375 2.734375,-0.0625 2.5,-0.0625 z m 0,0"
               id="path23758"
               style="stroke:none" />
          </symbol>
          <symbol
             id="textext-f5e50cf8-28"
             style="overflow:visible">
            <path
               d="m 0.28125,-1.640625 2.65625,0 0,0.859375 c 0,0.359375 -0.03125,0.46875 -0.765625,0.46875 l -0.203125,0 0,0.3125 C 2.375,-0.03125 2.890625,-0.03125 3.3125,-0.03125 c 0.421875,0 0.9375,0 1.359375,0.03125 l 0,-0.3125 -0.21875,0 c -0.734375,0 -0.75,-0.109375 -0.75,-0.46875 l 0,-0.859375 0.984375,0 0,-0.3125 -0.984375,0 0,-4.53125 c 0,-0.203125 0,-0.265625 -0.171875,-0.265625 -0.078125,0 -0.109375,0 -0.1875,0.125 l -3.0625,4.671875 z m 2.703125,-0.3125 -2.421875,0 2.421875,-3.71875 z m 0,0"
               id="path23761"
               style="stroke:none" />
          </symbol>
          <symbol
             id="textext-f5e50cf8-29"
             style="overflow:visible">
            <path
               d="m 6.59375,-2.296875 c 0.140625,0 0.328125,0 0.328125,-0.203125 0,-0.1875 -0.1875,-0.1875 -0.328125,-0.1875 l -5.4375,0 c -0.140625,0 -0.328125,0 -0.328125,0.1875 0,0.203125 0.1875,0.203125 0.328125,0.203125 z m 0,0"
               id="path23764"
               style="stroke:none" />
          </symbol>
          <symbol
             id="textext-f5e50cf8-30"
             style="overflow:visible">
            <path
               d="m 6.296875,-6.765625 c 0.046875,-0.109375 0.0625,-0.125 0.0625,-0.171875 0,-0.078125 -0.0625,-0.203125 -0.203125,-0.203125 -0.09375,0 -0.15625,0.0625 -0.21875,0.1875 L 1.453125,1.78125 c -0.0625,0.109375 -0.0625,0.125 -0.0625,0.171875 0,0.078125 0.0625,0.203125 0.1875,0.203125 0.109375,0 0.171875,-0.0625 0.21875,-0.1875 z m 0,0"
               id="path23767"
               style="stroke:none" />
          </symbol>
          <symbol
             id="textext-f5e50cf8-31"
             style="overflow:visible">
            <path
               d="m 6.734375,-5.9375 c 0.109375,-0.03125 0.1875,-0.078125 0.1875,-0.203125 0,-0.109375 -0.09375,-0.203125 -0.203125,-0.203125 -0.03125,0 -0.046875,0 -0.15625,0.0625 l -5.546875,2.609375 c -0.09375,0.046875 -0.1875,0.09375 -0.1875,0.21875 0,0.125 0.09375,0.171875 0.1875,0.21875 L 6.546875,-0.625 c 0.109375,0.0625 0.125,0.0625 0.171875,0.0625 0.109375,0 0.203125,-0.09375 0.203125,-0.203125 0,-0.125 -0.078125,-0.15625 -0.1875,-0.21875 L 1.5,-3.453125 z M 6.59375,1.359375 c 0.140625,0 0.328125,0 0.328125,-0.1875 0,-0.203125 -0.1875,-0.203125 -0.34375,-0.203125 l -5.40625,0 c -0.140625,0 -0.34375,0 -0.34375,0.203125 0,0.1875 0.1875,0.1875 0.328125,0.1875 z m 0,0"
               id="path23770"
               style="stroke:none" />
          </symbol>
          <symbol
             id="textext-f5e50cf8-32"
             style="overflow:visible">
            <path
               d="M 4.171875,-2.5 6.15625,-4.484375 c 0.109375,-0.109375 0.125,-0.125 0.125,-0.203125 0,-0.125 -0.09375,-0.203125 -0.203125,-0.203125 -0.078125,0 -0.109375,0.03125 -0.203125,0.125 l -2,2 -2,-2 c -0.109375,-0.109375 -0.125,-0.125 -0.203125,-0.125 -0.109375,0 -0.203125,0.078125 -0.203125,0.203125 0,0.078125 0.03125,0.109375 0.125,0.203125 L 3.578125,-2.5 1.59375,-0.515625 c -0.09375,0.109375 -0.125,0.171875 -0.125,0.21875 0,0.125 0.09375,0.203125 0.203125,0.203125 0.078125,0 0.09375,-0.015625 0.203125,-0.125 l 2,-2 1.984375,2 c 0.109375,0.09375 0.15625,0.125 0.21875,0.125 0.125,0 0.203125,-0.078125 0.203125,-0.203125 0,-0.078125 -0.015625,-0.09375 -0.125,-0.203125 z m 0,0"
               id="path23773"
               style="stroke:none" />
          </symbol>
          <symbol
             id="textext-f5e50cf8-33"
             style="overflow:visible">
            <path
               d="m 4.984375,-3.9375 c 0.25,-0.375 0.484375,-0.546875 0.859375,-0.578125 0.078125,0 0.15625,0 0.15625,-0.140625 0,-0.03125 -0.015625,-0.109375 -0.09375,-0.109375 -0.171875,0 -0.390625,0.03125 -0.5625,0.03125 -0.21875,0 -0.515625,-0.03125 -0.71875,-0.03125 -0.0625,0 -0.140625,0.03125 -0.140625,0.15625 0,0.09375 0.09375,0.09375 0.125,0.09375 0.21875,0.015625 0.28125,0.109375 0.28125,0.203125 0,0.109375 -0.046875,0.171875 -0.125,0.28125 l -2.28125,3.375 -0.640625,-3.5625 c -0.015625,-0.0625 -0.015625,-0.078125 -0.015625,-0.109375 0,-0.1875 0.390625,-0.1875 0.4375,-0.1875 0.125,0 0.21875,0 0.21875,-0.140625 0,-0.015625 -0.015625,-0.109375 -0.125,-0.109375 -0.203125,0 -0.6875,0.03125 -0.890625,0.03125 -0.171875,0 -0.609375,-0.03125 -0.78125,-0.03125 -0.0625,0 -0.140625,0.03125 -0.140625,0.15625 0,0.09375 0.09375,0.09375 0.171875,0.09375 0.390625,0 0.40625,0.046875 0.4375,0.234375 l 0.765625,4.234375 c 0.015625,0.140625 0.03125,0.1875 0.15625,0.1875 0.140625,0 0.171875,-0.046875 0.25,-0.15625 z m 0,0"
               id="path23776"
               style="stroke:none" />
          </symbol>
          <symbol
             id="textext-f5e50cf8-34"
             style="overflow:visible">
            <path
               d="m 2.875,-4.203125 c 0.0625,-0.25 0.078125,-0.3125 0.609375,-0.3125 0.171875,0 0.25,0 0.25,-0.140625 0,-0.0625 -0.046875,-0.109375 -0.109375,-0.109375 -0.140625,0 -0.328125,0.03125 -0.46875,0.03125 -0.15625,0 -0.3125,0 -0.46875,0 l -0.484375,0 c -0.15625,0 -0.328125,-0.03125 -0.484375,-0.03125 -0.046875,0 -0.140625,0 -0.140625,0.15625 0,0.09375 0.078125,0.09375 0.234375,0.09375 0,0 0.140625,0 0.25,0.015625 0.140625,0.015625 0.203125,0.03125 0.203125,0.109375 0,0.03125 -0.015625,0.078125 -0.03125,0.140625 l -0.9375,3.703125 C 1.25,-0.328125 1.21875,-0.25 0.703125,-0.25 c -0.1875,0 -0.25,0 -0.25,0.15625 0,0 0,0.09375 0.109375,0.09375 C 0.765625,0 1.296875,-0.03125 1.5,-0.03125 l 0.484375,0.015625 C 2.125,-0.015625 2.3125,0 2.453125,0 2.5,0 2.609375,0 2.609375,-0.15625 2.609375,-0.25 2.515625,-0.25 2.390625,-0.25 2.375,-0.25 2.21875,-0.25 2.078125,-0.265625 1.921875,-0.28125 1.921875,-0.3125 1.921875,-0.375 c 0,0 0,-0.046875 0.03125,-0.140625 z m 0,0"
               id="path23779"
               style="stroke:none" />
          </symbol>
          <symbol
             id="textext-f5e50cf8-35"
             style="overflow:visible">
            <path
               d="m 3.3125,20.421875 c 0,1.453125 1,2.390625 2.234375,2.984375 0.21875,0.109375 0.25,0.109375 0.390625,0.109375 0.21875,0 0.21875,0 0.21875,-0.21875 0,-0.15625 0,-0.171875 -0.078125,-0.21875 C 5.65625,22.875 4.375,22.234375 4.171875,20.796875 c -0.03125,-0.140625 -0.03125,-0.25 -0.03125,-0.84375 l 0,-5.109375 c 0,-0.46875 0,-1.203125 -0.625,-2.015625 C 3.125,12.328125 2.5625,11.875 1.875,11.5625 3.8125,10.625 4.140625,9.1875 4.140625,8.625 l 0,-5.75 c 0,-0.609375 0,-1.890625 1.9375,-2.84375 0.078125,-0.046875 0.078125,-0.0625 0.078125,-0.203125 0,-0.21875 0,-0.234375 -0.21875,-0.234375 -0.140625,0 -0.15625,0 -0.421875,0.125 C 4.53125,0.203125 3.5625,1 3.34375,2.21875 3.3125,2.40625 3.3125,2.5 3.3125,3.171875 l 0,4.609375 c 0,0.296875 0,0.828125 0,0.9375 -0.09375,1.046875 -0.703125,1.953125 -1.84375,2.578125 -0.15625,0.09375 -0.15625,0.09375 -0.15625,0.25 0,0.171875 0,0.1875 0.140625,0.265625 0.671875,0.375 1.625,1.09375 1.828125,2.328125 C 3.3125,14.375 3.3125,14.390625 3.3125,14.5 z m 0,0"
               id="path23782"
               style="stroke:none" />
          </symbol>
          <symbol
             id="textext-f5e50cf8-36"
             style="overflow:visible">
            <path
               d="M 5.03125,4.515625 C 5.03125,3.703125 5.25,1.796875 7.015625,0.53125 7.140625,0.4375 7.15625,0.421875 7.15625,0.25 7.15625,0.015625 7.140625,0.015625 6.890625,0.015625 l -0.15625,0 c -2.140625,1.15625 -2.90625,3.03125 -2.90625,4.5 l 0,4.28125 c 0,0.265625 0.015625,0.28125 0.28125,0.28125 l 0.640625,0 c 0.265625,0 0.28125,-0.015625 0.28125,-0.28125 z m 0,0"
               id="path23785"
               style="stroke:none" />
          </symbol>
          <symbol
             id="textext-f5e50cf8-37"
             style="overflow:visible">
            <path
               d="m 5.03125,13.5625 c 0,-1.203125 -0.515625,-3.234375 -2.75,-4.59375 2.25,-1.359375 2.75,-3.421875 2.75,-4.59375 l 0,-4.203125 C 5.03125,-0.09375 5.015625,-0.09375 4.75,-0.09375 l -0.640625,0 c -0.265625,0 -0.28125,0 -0.28125,0.265625 l 0,4.21875 c 0,0.828125 -0.171875,2.90625 -2.015625,4.296875 -0.109375,0.09375 -0.125,0.109375 -0.125,0.28125 0,0.1875 0.015625,0.1875 0.125,0.28125 0.265625,0.203125 0.953125,0.734375 1.421875,1.734375 0.390625,0.796875 0.59375,1.6875 0.59375,2.578125 l 0,4.21875 c 0,0.25 0.015625,0.265625 0.28125,0.265625 l 0.640625,0 c 0.265625,0 0.28125,-0.01563 0.28125,-0.265625 z m 0,0"
               id="path23788"
               style="stroke:none" />
          </symbol>
          <symbol
             id="textext-f5e50cf8-38"
             style="overflow:visible">
            <path
               d="M 5.03125,0.171875 C 5.03125,-0.09375 5.015625,-0.09375 4.75,-0.09375 l -0.640625,0 c -0.265625,0 -0.28125,0 -0.28125,0.265625 l 0,4.28125 c 0,1.484375 0.765625,3.359375 2.90625,4.515625 l 0.15625,0 c 0.25,0 0.265625,-0.015625 0.265625,-0.25 C 7.15625,8.546875 7.140625,8.53125 7.109375,8.5 6.796875,8.28125 6.078125,7.765625 5.609375,6.84375 5.21875,6.09375 5.03125,5.328125 5.03125,4.453125 z m 0,0"
               id="path23791"
               style="stroke:none" />
          </symbol>
          <symbol
             id="textext-f5e50cf8-39"
             style="overflow:visible">
            <path
               d="M 5.03125,0.171875 C 5.03125,-0.09375 5.015625,-0.09375 4.75,-0.09375 l -0.640625,0 c -0.265625,0 -0.28125,0 -0.28125,0.265625 l 0,2.65625 c 0,0.25 0.015625,0.265625 0.28125,0.265625 l 0.640625,0 c 0.265625,0 0.28125,-0.015625 0.28125,-0.265625 z m 0,0"
               id="path23794"
               style="stroke:none" />
          </symbol>
        </g>
      </defs>
      <g
         id="textext-f5e50cf8-40">
        <g
           id="g23797"
           style="fill:#000000;fill-opacity:1">
          <use
             id="use23799"
             x="307.23901"
             y="134.765"
             width="744.09448"
             height="1052.3622"
             xlink:href="#textext-f5e50cf8-0" />
        </g>
        <g
           id="g23801"
           style="fill:#000000;fill-opacity:1">
          <use
             id="use23803"
             x="319.97198"
             y="134.765"
             width="744.09448"
             height="1052.3622"
             xlink:href="#textext-f5e50cf8-14" />
        </g>
        <g
           id="g23805"
           style="fill:#000000;fill-opacity:1">
          <use
             id="use23807"
             x="331.70596"
             y="134.765"
             width="744.09448"
             height="1052.3622"
             xlink:href="#textext-f5e50cf8-15" />
          <use
             id="use23809"
             x="340.00778"
             y="134.765"
             width="744.09448"
             height="1052.3622"
             xlink:href="#textext-f5e50cf8-16" />
          <use
             id="use23811"
             x="342.77539"
             y="134.765"
             width="744.09448"
             height="1052.3622"
             xlink:href="#textext-f5e50cf8-17" />
          <use
             id="use23813"
             x="348.31061"
             y="134.765"
             width="744.09448"
             height="1052.3622"
             xlink:href="#textext-f5e50cf8-18" />
        </g>
        <g
           id="g23815"
           style="fill:#000000;fill-opacity:1">
          <use
             id="use23817"
             x="352.18399"
             y="134.765"
             width="744.09448"
             height="1052.3622"
             xlink:href="#textext-f5e50cf8-1" />
        </g>
        <g
           id="g23819"
           style="fill:#000000;fill-opacity:1">
          <use
             id="use23821"
             x="359.82831"
             y="134.765"
             width="744.09448"
             height="1052.3622"
             xlink:href="#textext-f5e50cf8-2" />
        </g>
        <g
           id="g23823"
           style="fill:#000000;fill-opacity:1">
          <use
             id="use23825"
             x="364.24969"
             y="134.765"
             width="744.09448"
             height="1052.3622"
             xlink:href="#textext-f5e50cf8-3" />
          <use
             id="use23827"
             x="372.08328"
             y="134.765"
             width="744.09448"
             height="1052.3622"
             xlink:href="#textext-f5e50cf8-2" />
        </g>
        <g
           id="g23829"
           style="fill:#000000;fill-opacity:1">
          <use
             id="use23831"
             x="376.51465"
             y="134.765"
             width="744.09448"
             height="1052.3622"
             xlink:href="#textext-f5e50cf8-4" />
        </g>
        <g
           id="g23833"
           style="fill:#000000;fill-opacity:1">
          <use
             id="use23835"
             x="384.57101"
             y="134.765"
             width="744.09448"
             height="1052.3622"
             xlink:href="#textext-f5e50cf8-19" />
        </g>
        <g
           id="g23837"
           style="fill:#000000;fill-opacity:1">
          <use
             id="use23839"
             x="305.23499"
             y="146.72"
             width="744.09448"
             height="1052.3622"
             xlink:href="#textext-f5e50cf8-5" />
        </g>
        <g
           id="g23841"
           style="fill:#000000;fill-opacity:1">
          <use
             id="use23843"
             x="319.97198"
             y="146.72"
             width="744.09448"
             height="1052.3622"
             xlink:href="#textext-f5e50cf8-14" />
        </g>
        <g
           id="g23845"
           style="fill:#000000;fill-opacity:1">
          <use
             id="use23847"
             x="331.70596"
             y="146.72"
             width="744.09448"
             height="1052.3622"
             xlink:href="#textext-f5e50cf8-15" />
          <use
             id="use23849"
             x="340.00778"
             y="146.72"
             width="744.09448"
             height="1052.3622"
             xlink:href="#textext-f5e50cf8-20" />
          <use
             id="use23851"
             x="344.98907"
             y="146.72"
             width="744.09448"
             height="1052.3622"
             xlink:href="#textext-f5e50cf8-21" />
          <use
             id="use23853"
             x="350.24734"
             y="146.72"
             width="744.09448"
             height="1052.3622"
             xlink:href="#textext-f5e50cf8-18" />
        </g>
        <g
           id="g23855"
           style="fill:#000000;fill-opacity:1">
          <use
             id="use23857"
             x="354.121"
             y="146.72"
             width="744.09448"
             height="1052.3622"
             xlink:href="#textext-f5e50cf8-1" />
        </g>
        <g
           id="g23859"
           style="fill:#000000;fill-opacity:1">
          <use
             id="use23861"
             x="361.76529"
             y="146.72"
             width="744.09448"
             height="1052.3622"
             xlink:href="#textext-f5e50cf8-2" />
        </g>
        <g
           id="g23863"
           style="fill:#000000;fill-opacity:1">
          <use
             id="use23865"
             x="366.18671"
             y="146.72"
             width="744.09448"
             height="1052.3622"
             xlink:href="#textext-f5e50cf8-3" />
          <use
             id="use23867"
             x="374.02029"
             y="146.72"
             width="744.09448"
             height="1052.3622"
             xlink:href="#textext-f5e50cf8-2" />
        </g>
        <g
           id="g23869"
           style="fill:#000000;fill-opacity:1">
          <use
             id="use23871"
             x="378.45166"
             y="146.72"
             width="744.09448"
             height="1052.3622"
             xlink:href="#textext-f5e50cf8-4" />
        </g>
        <g
           id="g23873"
           style="fill:#000000;fill-opacity:1">
          <use
             id="use23875"
             x="386.508"
             y="146.72"
             width="744.09448"
             height="1052.3622"
             xlink:href="#textext-f5e50cf8-19" />
        </g>
        <g
           id="g23877"
           style="fill:#000000;fill-opacity:1">
          <use
             id="use23879"
             x="310.80099"
             y="158.675"
             width="744.09448"
             height="1052.3622"
             xlink:href="#textext-f5e50cf8-6" />
        </g>
        <g
           id="g23881"
           style="fill:#000000;fill-opacity:1">
          <use
             id="use23883"
             x="319.97198"
             y="158.675"
             width="744.09448"
             height="1052.3622"
             xlink:href="#textext-f5e50cf8-14" />
        </g>
        <g
           id="g23885"
           style="fill:#000000;fill-opacity:1">
          <use
             id="use23887"
             x="331.70499"
             y="158.675"
             width="744.09448"
             height="1052.3622"
             xlink:href="#textext-f5e50cf8-5" />
        </g>
        <g
           id="g23889"
           style="fill:#000000;fill-opacity:1">
          <use
             id="use23891"
             x="344.67099"
             y="158.675"
             width="744.09448"
             height="1052.3622"
             xlink:href="#textext-f5e50cf8-29" />
        </g>
        <g
           id="g23893"
           style="fill:#000000;fill-opacity:1">
          <use
             id="use23895"
             x="354.633"
             y="158.675"
             width="744.09448"
             height="1052.3622"
             xlink:href="#textext-f5e50cf8-0" />
        </g>
        <g
           id="g23897"
           style="fill:#000000;fill-opacity:1">
          <use
             id="use23899"
             x="311.31699"
             y="170.63"
             width="744.09448"
             height="1052.3622"
             xlink:href="#textext-f5e50cf8-7" />
        </g>
        <g
           id="g23901"
           style="fill:#000000;fill-opacity:1">
          <use
             id="use23903"
             x="319.97198"
             y="170.63"
             width="744.09448"
             height="1052.3622"
             xlink:href="#textext-f5e50cf8-14" />
        </g>
        <g
           id="g23905"
           style="fill:#000000;fill-opacity:1">
          <use
             id="use23907"
             x="331.70499"
             y="170.63"
             width="744.09448"
             height="1052.3622"
             xlink:href="#textext-f5e50cf8-5" />
        </g>
        <g
           id="g23909"
           style="fill:#000000;fill-opacity:1">
          <use
             id="use23911"
             x="344.67099"
             y="170.63"
             width="744.09448"
             height="1052.3622"
             xlink:href="#textext-f5e50cf8-22" />
        </g>
        <g
           id="g23913"
           style="fill:#000000;fill-opacity:1">
          <use
             id="use23915"
             x="354.633"
             y="170.63"
             width="744.09448"
             height="1052.3622"
             xlink:href="#textext-f5e50cf8-0" />
        </g>
        <g
           id="g23917"
           style="fill:#000000;fill-opacity:1">
          <use
             id="use23919"
             x="307.961"
             y="194.541"
             width="744.09448"
             height="1052.3622"
             xlink:href="#textext-f5e50cf8-8" />
        </g>
        <g
           id="g23921"
           style="fill:#000000;fill-opacity:1">
          <use
             id="use23923"
             x="319.97198"
             y="194.541"
             width="744.09448"
             height="1052.3622"
             xlink:href="#textext-f5e50cf8-14" />
        </g>
        <g
           id="g23925"
           style="fill:#000000;fill-opacity:1">
          <use
             id="use23927"
             x="331.70499"
             y="194.541"
             width="744.09448"
             height="1052.3622"
             xlink:href="#textext-f5e50cf8-5" />
        </g>
        <g
           id="g23929"
           style="fill:#000000;fill-opacity:1">
          <use
             id="use23931"
             x="302.95901"
             y="221.938"
             width="744.09448"
             height="1052.3622"
             xlink:href="#textext-f5e50cf8-9" />
        </g>
        <g
           id="g23933"
           style="fill:#000000;fill-opacity:1">
          <use
             id="use23935"
             x="309.06799"
             y="223.43201"
             width="744.09448"
             height="1052.3622"
             xlink:href="#textext-f5e50cf8-33" />
        </g>
        <g
           id="g23937"
           style="fill:#000000;fill-opacity:1">
          <use
             id="use23939"
             x="319.97198"
             y="221.938"
             width="744.09448"
             height="1052.3622"
             xlink:href="#textext-f5e50cf8-14" />
        </g>
        <g
           id="g23941"
           style="fill:#000000;fill-opacity:1">
          <use
             id="use23943"
             x="331.70499"
             y="207.89101"
             width="744.09448"
             height="1052.3622"
             xlink:href="#textext-f5e50cf8-35" />
        </g>
        <g
           id="g23945"
           style="fill:#000000;fill-opacity:1">
          <use
             id="use23947"
             x="344.159"
             y="215.86099"
             width="744.09448"
             height="1052.3622"
             xlink:href="#textext-f5e50cf8-23" />
        </g>
        <g
           id="g23949"
           style="fill:#000000;fill-opacity:1">
          <use
             id="use23951"
             x="374.48517"
             y="215.86099"
             width="744.09448"
             height="1052.3622"
             xlink:href="#textext-f5e50cf8-16" />
          <use
             id="use23953"
             x="377.25278"
             y="215.86099"
             width="744.09448"
             height="1052.3622"
             xlink:href="#textext-f5e50cf8-24" />
        </g>
        <g
           id="g23955"
           style="fill:#000000;fill-opacity:1">
          <use
             id="use23957"
             x="385.832"
             y="215.86099"
             width="744.09448"
             height="1052.3622"
             xlink:href="#textext-f5e50cf8-5" />
        </g>
        <g
           id="g23959"
           style="fill:#000000;fill-opacity:1">
          <use
             id="use23961"
             x="399.35101"
             y="215.86099"
             width="744.09448"
             height="1052.3622"
             xlink:href="#textext-f5e50cf8-14" />
        </g>
        <g
           id="g23963"
           style="fill:#000000;fill-opacity:1">
          <use
             id="use23965"
             x="409.86951"
             y="215.86099"
             width="744.09448"
             height="1052.3622"
             xlink:href="#textext-f5e50cf8-23" />
        </g>
        <g
           id="g23967"
           style="fill:#000000;fill-opacity:1">
          <use
             id="use23969"
             x="344.159"
             y="227.81599"
             width="744.09448"
             height="1052.3622"
             xlink:href="#textext-f5e50cf8-6" />
          <use
             id="use23971"
             x="349.34454"
             y="227.81599"
             width="744.09448"
             height="1052.3622"
             xlink:href="#textext-f5e50cf8-10" />
        </g>
        <g
           id="g23973"
           style="fill:#000000;fill-opacity:1">
          <use
             id="use23975"
             x="353.76791"
             y="227.81599"
             width="744.09448"
             height="1052.3622"
             xlink:href="#textext-f5e50cf8-5" />
        </g>
        <g
           id="g23977"
           style="fill:#000000;fill-opacity:1">
          <use
             id="use23979"
             x="374.48599"
             y="227.81599"
             width="744.09448"
             height="1052.3622"
             xlink:href="#textext-f5e50cf8-16" />
          <use
             id="use23981"
             x="377.2536"
             y="227.81599"
             width="744.09448"
             height="1052.3622"
             xlink:href="#textext-f5e50cf8-24" />
        </g>
        <g
           id="g23983"
           style="fill:#000000;fill-opacity:1">
          <use
             id="use23985"
             x="385.832"
             y="227.81599"
             width="744.09448"
             height="1052.3622"
             xlink:href="#textext-f5e50cf8-5" />
        </g>
        <g
           id="g23987"
           style="fill:#000000;fill-opacity:1">
          <use
             id="use23989"
             x="399.35101"
             y="227.81599"
             width="744.09448"
             height="1052.3622"
             xlink:href="#textext-f5e50cf8-30" />
        </g>
        <g
           id="g23991"
           style="fill:#000000;fill-opacity:1">
          <use
             id="use23993"
             x="399.35101"
             y="227.81599"
             width="744.09448"
             height="1052.3622"
             xlink:href="#textext-f5e50cf8-14" />
        </g>
        <g
           id="g23995"
           style="fill:#000000;fill-opacity:1">
          <use
             id="use23997"
             x="409.86951"
             y="227.81599"
             width="744.09448"
             height="1052.3622"
             xlink:href="#textext-f5e50cf8-23" />
        </g>
        <g
           id="g23999"
           style="fill:#000000;fill-opacity:1">
          <use
             id="use24001"
             x="310.82501"
             y="245.84801"
             width="744.09448"
             height="1052.3622"
             xlink:href="#textext-f5e50cf8-11" />
        </g>
        <g
           id="g24003"
           style="fill:#000000;fill-opacity:1">
          <use
             id="use24005"
             x="319.97198"
             y="245.84801"
             width="744.09448"
             height="1052.3622"
             xlink:href="#textext-f5e50cf8-14" />
        </g>
        <g
           id="g24007"
           style="fill:#000000;fill-opacity:1">
          <use
             id="use24009"
             x="331.70499"
             y="245.84801"
             width="744.09448"
             height="1052.3622"
             xlink:href="#textext-f5e50cf8-7" />
          <use
             id="use24011"
             x="336.37546"
             y="245.84801"
             width="744.09448"
             height="1052.3622"
             xlink:href="#textext-f5e50cf8-10" />
        </g>
        <g
           id="g24013"
           style="fill:#000000;fill-opacity:1">
          <use
             id="use24015"
             x="341.35699"
             y="245.84801"
             width="744.09448"
             height="1052.3622"
             xlink:href="#textext-f5e50cf8-25" />
        </g>
        <g
           id="g24017"
           style="fill:#000000;fill-opacity:1">
          <use
             id="use24019"
             x="305.306"
             y="279.22299"
             width="744.09448"
             height="1052.3622"
             xlink:href="#textext-f5e50cf8-9" />
        </g>
        <g
           id="g24021"
           style="fill:#000000;fill-opacity:1">
          <use
             id="use24023"
             x="311.41599"
             y="280.71799"
             width="744.09448"
             height="1052.3622"
             xlink:href="#textext-f5e50cf8-34" />
        </g>
        <g
           id="g24025"
           style="fill:#000000;fill-opacity:1">
          <use
             id="use24027"
             x="319.97198"
             y="279.22299"
             width="744.09448"
             height="1052.3622"
             xlink:href="#textext-f5e50cf8-14" />
        </g>
        <g
           id="g24029"
           style="fill:#000000;fill-opacity:1">
          <use
             id="use24031"
             x="331.70499"
             y="258.79999"
             width="744.09448"
             height="1052.3622"
             xlink:href="#textext-f5e50cf8-36" />
        </g>
        <g
           id="g24033"
           style="fill:#000000;fill-opacity:1">
          <use
             id="use24035"
             x="331.70499"
             y="267.76599"
             width="744.09448"
             height="1052.3622"
             xlink:href="#textext-f5e50cf8-37" />
        </g>
        <g
           id="g24037"
           style="fill:#000000;fill-opacity:1">
          <use
             id="use24039"
             x="331.70499"
             y="285.69901"
             width="744.09448"
             height="1052.3622"
             xlink:href="#textext-f5e50cf8-38" />
        </g>
        <g
           id="g24041"
           style="fill:#000000;fill-opacity:1">
          <use
             id="use24043"
             x="345.54199"
             y="267.16901"
             width="744.09448"
             height="1052.3622"
             xlink:href="#textext-f5e50cf8-23" />
        </g>
        <g
           id="g24045"
           style="fill:#000000;fill-opacity:1">
          <use
             id="use24047"
             x="395.24542"
             y="267.16901"
             width="744.09448"
             height="1052.3622"
             xlink:href="#textext-f5e50cf8-16" />
          <use
             id="use24049"
             x="398.01303"
             y="267.16901"
             width="744.09448"
             height="1052.3622"
             xlink:href="#textext-f5e50cf8-24" />
        </g>
        <g
           id="g24051"
           style="fill:#000000;fill-opacity:1">
          <use
             id="use24053"
             x="406.595"
             y="267.16901"
             width="744.09448"
             height="1052.3622"
             xlink:href="#textext-f5e50cf8-7" />
        </g>
        <g
           id="g24055"
           style="fill:#000000;fill-opacity:1">
          <use
             id="use24057"
             x="414.03201"
             y="267.16901"
             width="744.09448"
             height="1052.3622"
             xlink:href="#textext-f5e50cf8-14" />
        </g>
        <g
           id="g24059"
           style="fill:#000000;fill-opacity:1">
          <use
             id="use24061"
             x="424.55051"
             y="267.16901"
             width="744.09448"
             height="1052.3622"
             xlink:href="#textext-f5e50cf8-23" />
        </g>
        <g
           id="g24063"
           style="fill:#000000;fill-opacity:1">
          <use
             id="use24065"
             x="345.54199"
             y="279.12399"
             width="744.09448"
             height="1052.3622"
             xlink:href="#textext-f5e50cf8-6" />
          <use
             id="use24067"
             x="350.72754"
             y="279.12399"
             width="744.09448"
             height="1052.3622"
             xlink:href="#textext-f5e50cf8-10" />
          <use
             id="use24069"
             x="355.70883"
             y="279.12399"
             width="744.09448"
             height="1052.3622"
             xlink:href="#textext-f5e50cf8-7" />
        </g>
        <g
           id="g24071"
           style="fill:#000000;fill-opacity:1">
          <use
             id="use24073"
             x="395.24799"
             y="279.12399"
             width="744.09448"
             height="1052.3622"
             xlink:href="#textext-f5e50cf8-16" />
          <use
             id="use24075"
             x="398.01562"
             y="279.12399"
             width="744.09448"
             height="1052.3622"
             xlink:href="#textext-f5e50cf8-24" />
        </g>
        <g
           id="g24077"
           style="fill:#000000;fill-opacity:1">
          <use
             id="use24079"
             x="406.595"
             y="279.12399"
             width="744.09448"
             height="1052.3622"
             xlink:href="#textext-f5e50cf8-7" />
        </g>
        <g
           id="g24081"
           style="fill:#000000;fill-opacity:1">
          <use
             id="use24083"
             x="414.03201"
             y="279.12399"
             width="744.09448"
             height="1052.3622"
             xlink:href="#textext-f5e50cf8-31" />
        </g>
        <g
           id="g24085"
           style="fill:#000000;fill-opacity:1">
          <use
             id="use24087"
             x="424.548"
             y="279.12399"
             width="744.09448"
             height="1052.3622"
             xlink:href="#textext-f5e50cf8-26" />
        </g>
        <g
           id="g24089"
           style="fill:#000000;fill-opacity:1">
          <use
             id="use24091"
             x="345.54199"
             y="291.07901"
             width="744.09448"
             height="1052.3622"
             xlink:href="#textext-f5e50cf8-6" />
          <use
             id="use24093"
             x="350.72754"
             y="291.07901"
             width="744.09448"
             height="1052.3622"
             xlink:href="#textext-f5e50cf8-10" />
        </g>
        <g
           id="g24095"
           style="fill:#000000;fill-opacity:1">
          <use
             id="use24097"
             x="355.70901"
             y="291.07901"
             width="744.09448"
             height="1052.3622"
             xlink:href="#textext-f5e50cf8-18" />
          <use
             id="use24099"
             x="359.58347"
             y="291.07901"
             width="744.09448"
             height="1052.3622"
             xlink:href="#textext-f5e50cf8-25" />
        </g>
        <g
           id="g24101"
           style="fill:#000000;fill-opacity:1">
          <use
             id="use24103"
             x="366.77899"
             y="291.07901"
             width="744.09448"
             height="1052.3622"
             xlink:href="#textext-f5e50cf8-29" />
        </g>
        <g
           id="g24105"
           style="fill:#000000;fill-opacity:1">
          <use
             id="use24107"
             x="376.741"
             y="291.07901"
             width="744.09448"
             height="1052.3622"
             xlink:href="#textext-f5e50cf8-7" />
        </g>
        <g
           id="g24109"
           style="fill:#000000;fill-opacity:1">
          <use
             id="use24111"
             x="381.41101"
             y="291.07901"
             width="744.09448"
             height="1052.3622"
             xlink:href="#textext-f5e50cf8-19" />
        </g>
        <g
           id="g24113"
           style="fill:#000000;fill-opacity:1">
          <use
             id="use24115"
             x="395.24805"
             y="291.07901"
             width="744.09448"
             height="1052.3622"
             xlink:href="#textext-f5e50cf8-16" />
          <use
             id="use24117"
             x="398.01566"
             y="291.07901"
             width="744.09448"
             height="1052.3622"
             xlink:href="#textext-f5e50cf8-24" />
        </g>
        <g
           id="g24119"
           style="fill:#000000;fill-opacity:1">
          <use
             id="use24121"
             x="406.595"
             y="291.07901"
             width="744.09448"
             height="1052.3622"
             xlink:href="#textext-f5e50cf8-7" />
        </g>
        <g
           id="g24123"
           style="fill:#000000;fill-opacity:1">
          <use
             id="use24125"
             x="414.03506"
             y="291.07901"
             width="744.09448"
             height="1052.3622"
             xlink:href="#textext-f5e50cf8-12" />
        </g>
        <g
           id="g24127"
           style="fill:#000000;fill-opacity:1">
          <use
             id="use24129"
             x="424.548"
             y="291.07901"
             width="744.09448"
             height="1052.3622"
             xlink:href="#textext-f5e50cf8-26" />
        </g>
        <g
           id="g24131"
           style="fill:#000000;fill-opacity:1">
          <use
             id="use24133"
             x="306.896"
             y="335.01501"
             width="744.09448"
             height="1052.3622"
             xlink:href="#textext-f5e50cf8-13" />
        </g>
        <g
           id="g24135"
           style="fill:#000000;fill-opacity:1">
          <use
             id="use24137"
             x="319.97198"
             y="335.01501"
             width="744.09448"
             height="1052.3622"
             xlink:href="#textext-f5e50cf8-14" />
        </g>
        <g
           id="g24139"
           style="fill:#000000;fill-opacity:1">
          <use
             id="use24141"
             x="332.901"
             y="328.27499"
             width="744.09448"
             height="1052.3622"
             xlink:href="#textext-f5e50cf8-26" />
        </g>
        <path
           d="m 0.00134375,5.625e-4 4.98046925,0"
           transform="matrix(1,0,0,-1,332.901,332.524)"
           id="path24143"
           style="fill:none;stroke:#000000;stroke-width:0.398;stroke-linecap:butt;stroke-linejoin:miter;stroke-miterlimit:10;stroke-opacity:1" />
        <g
           id="g24145"
           style="fill:#000000;fill-opacity:1">
          <use
             id="use24147"
             x="332.901"
             y="341.849"
             width="744.09448"
             height="1052.3622"
             xlink:href="#textext-f5e50cf8-27" />
        </g>
        <g
           id="g24149"
           style="fill:#000000;fill-opacity:1">
          <use
             id="use24151"
             x="341.29199"
             y="335.01501"
             width="744.09448"
             height="1052.3622"
             xlink:href="#textext-f5e50cf8-32" />
        </g>
        <g
           id="g24153"
           style="fill:#000000;fill-opacity:1">
          <use
             id="use24155"
             x="351.254"
             y="308.61301"
             width="744.09448"
             height="1052.3622"
             xlink:href="#textext-f5e50cf8-36" />
        </g>
        <g
           id="g24157"
           style="fill:#000000;fill-opacity:1">
          <use
             id="use24159"
             x="351.254"
             y="317.57999"
             width="744.09448"
             height="1052.3622"
             xlink:href="#textext-f5e50cf8-39" />
        </g>
        <g
           id="g24161"
           style="fill:#000000;fill-opacity:1">
          <use
             id="use24163"
             x="351.254"
             y="320.569"
             width="744.09448"
             height="1052.3622"
             xlink:href="#textext-f5e50cf8-39" />
        </g>
        <g
           id="g24165"
           style="fill:#000000;fill-opacity:1">
          <use
             id="use24167"
             x="351.254"
             y="323.55801"
             width="744.09448"
             height="1052.3622"
             xlink:href="#textext-f5e50cf8-37" />
        </g>
        <g
           id="g24169"
           style="fill:#000000;fill-opacity:1">
          <use
             id="use24171"
             x="351.254"
             y="341.48999"
             width="744.09448"
             height="1052.3622"
             xlink:href="#textext-f5e50cf8-39" />
        </g>
        <g
           id="g24173"
           style="fill:#000000;fill-opacity:1">
          <use
             id="use24175"
             x="351.254"
             y="344.479"
             width="744.09448"
             height="1052.3622"
             xlink:href="#textext-f5e50cf8-39" />
        </g>
        <g
           id="g24177"
           style="fill:#000000;fill-opacity:1">
          <use
             id="use24179"
             x="351.254"
             y="347.46799"
             width="744.09448"
             height="1052.3622"
             xlink:href="#textext-f5e50cf8-38" />
        </g>
        <g
           id="g24181"
           style="fill:#000000;fill-opacity:1">
          <use
             id="use24183"
             x="365.091"
             y="316.98199"
             width="744.09448"
             height="1052.3622"
             xlink:href="#textext-f5e50cf8-23" />
        </g>
        <g
           id="g24185"
           style="fill:#000000;fill-opacity:1">
          <use
             id="use24187"
             x="437.99731"
             y="316.98199"
             width="744.09448"
             height="1052.3622"
             xlink:href="#textext-f5e50cf8-16" />
          <use
             id="use24189"
             x="440.76492"
             y="316.98199"
             width="744.09448"
             height="1052.3622"
             xlink:href="#textext-f5e50cf8-24" />
        </g>
        <g
           id="g24191"
           style="fill:#000000;fill-opacity:1">
          <use
             id="use24193"
             x="449.34799"
             y="316.98199"
             width="744.09448"
             height="1052.3622"
             xlink:href="#textext-f5e50cf8-6" />
        </g>
        <g
           id="g24195"
           style="fill:#000000;fill-opacity:1">
          <use
             id="use24197"
             x="457.30099"
             y="316.98199"
             width="744.09448"
             height="1052.3622"
             xlink:href="#textext-f5e50cf8-14" />
        </g>
        <g
           id="g24199"
           style="fill:#000000;fill-opacity:1">
          <use
             id="use24201"
             x="467.81952"
             y="316.98199"
             width="744.09448"
             height="1052.3622"
             xlink:href="#textext-f5e50cf8-23" />
        </g>
        <g
           id="g24203"
           style="fill:#000000;fill-opacity:1">
          <use
             id="use24205"
             x="365.091"
             y="328.93701"
             width="744.09448"
             height="1052.3622"
             xlink:href="#textext-f5e50cf8-18" />
        </g>
        <g
           id="g24207"
           style="fill:#000000;fill-opacity:1">
          <use
             id="use24209"
             x="368.966"
             y="328.93701"
             width="744.09448"
             height="1052.3622"
             xlink:href="#textext-f5e50cf8-3" />
        </g>
        <g
           id="g24211"
           style="fill:#000000;fill-opacity:1">
          <use
             id="use24213"
             x="379.013"
             y="328.93701"
             width="744.09448"
             height="1052.3622"
             xlink:href="#textext-f5e50cf8-29" />
        </g>
        <g
           id="g24215"
           style="fill:#000000;fill-opacity:1">
          <use
             id="use24217"
             x="388.97501"
             y="328.93701"
             width="744.09448"
             height="1052.3622"
             xlink:href="#textext-f5e50cf8-4" />
        </g>
        <g
           id="g24219"
           style="fill:#000000;fill-opacity:1">
          <use
             id="use24221"
             x="397.03201"
             y="328.93701"
             width="744.09448"
             height="1052.3622"
             xlink:href="#textext-f5e50cf8-19" />
        </g>
        <g
           id="g24223"
           style="fill:#000000;fill-opacity:1">
          <use
             id="use24225"
             x="400.90601"
             y="328.93701"
             width="744.09448"
             height="1052.3622"
             xlink:href="#textext-f5e50cf8-10" />
          <use
             id="use24227"
             x="405.8873"
             y="328.93701"
             width="744.09448"
             height="1052.3622"
             xlink:href="#textext-f5e50cf8-6" />
        </g>
        <g
           id="g24229"
           style="fill:#000000;fill-opacity:1">
          <use
             id="use24231"
             x="438.00201"
             y="328.93701"
             width="744.09448"
             height="1052.3622"
             xlink:href="#textext-f5e50cf8-16" />
          <use
             id="use24233"
             x="440.76962"
             y="328.93701"
             width="744.09448"
             height="1052.3622"
             xlink:href="#textext-f5e50cf8-24" />
        </g>
        <g
           id="g24235"
           style="fill:#000000;fill-opacity:1">
          <use
             id="use24237"
             x="449.34799"
             y="328.93701"
             width="744.09448"
             height="1052.3622"
             xlink:href="#textext-f5e50cf8-1" />
        </g>
        <g
           id="g24239"
           style="fill:#000000;fill-opacity:1">
          <use
             id="use24241"
             x="459.75699"
             y="328.93701"
             width="744.09448"
             height="1052.3622"
             xlink:href="#textext-f5e50cf8-14" />
        </g>
        <g
           id="g24243"
           style="fill:#000000;fill-opacity:1">
          <use
             id="use24245"
             x="470.27301"
             y="328.93701"
             width="744.09448"
             height="1052.3622"
             xlink:href="#textext-f5e50cf8-5" />
        </g>
        <g
           id="g24247"
           style="fill:#000000;fill-opacity:1">
          <use
             id="use24249"
             x="365.091"
             y="340.89301"
             width="744.09448"
             height="1052.3622"
             xlink:href="#textext-f5e50cf8-25" />
        </g>
        <g
           id="g24251"
           style="fill:#000000;fill-opacity:1">
          <use
             id="use24253"
             x="372.284"
             y="340.89301"
             width="744.09448"
             height="1052.3622"
             xlink:href="#textext-f5e50cf8-22" />
        </g>
        <g
           id="g24255"
           style="fill:#000000;fill-opacity:1">
          <use
             id="use24257"
             x="382.2446"
             y="340.89301"
             width="744.09448"
             height="1052.3622"
             xlink:href="#textext-f5e50cf8-18" />
        </g>
        <g
           id="g24259"
           style="fill:#000000;fill-opacity:1">
          <use
             id="use24261"
             x="386.12399"
             y="340.89301"
             width="744.09448"
             height="1052.3622"
             xlink:href="#textext-f5e50cf8-4" />
        </g>
        <g
           id="g24263"
           style="fill:#000000;fill-opacity:1">
          <use
             id="use24265"
             x="396.39401"
             y="340.89301"
             width="744.09448"
             height="1052.3622"
             xlink:href="#textext-f5e50cf8-29" />
        </g>
        <g
           id="g24267"
           style="fill:#000000;fill-opacity:1">
          <use
             id="use24269"
             x="406.35699"
             y="340.89301"
             width="744.09448"
             height="1052.3622"
             xlink:href="#textext-f5e50cf8-1" />
        </g>
        <g
           id="g24271"
           style="fill:#000000;fill-opacity:1">
          <use
             id="use24273"
             x="413.99799"
             y="340.89301"
             width="744.09448"
             height="1052.3622"
             xlink:href="#textext-f5e50cf8-19" />
        </g>
        <g
           id="g24275"
           style="fill:#000000;fill-opacity:1">
          <use
             id="use24277"
             x="417.87201"
             y="340.89301"
             width="744.09448"
             height="1052.3622"
             xlink:href="#textext-f5e50cf8-10" />
          <use
             id="use24279"
             x="422.8533"
             y="340.89301"
             width="744.09448"
             height="1052.3622"
             xlink:href="#textext-f5e50cf8-6" />
        </g>
        <g
           id="g24281"
           style="fill:#000000;fill-opacity:1">
          <use
             id="use24283"
             x="438.00201"
             y="340.89301"
             width="744.09448"
             height="1052.3622"
             xlink:href="#textext-f5e50cf8-16" />
          <use
             id="use24285"
             x="440.76962"
             y="340.89301"
             width="744.09448"
             height="1052.3622"
             xlink:href="#textext-f5e50cf8-24" />
        </g>
        <g
           id="g24287"
           style="fill:#000000;fill-opacity:1">
          <use
             id="use24289"
             x="449.34799"
             y="340.89301"
             width="744.09448"
             height="1052.3622"
             xlink:href="#textext-f5e50cf8-3" />
        </g>
        <g
           id="g24291"
           style="fill:#000000;fill-opacity:1">
          <use
             id="use24293"
             x="459.94901"
             y="340.89301"
             width="744.09448"
             height="1052.3622"
             xlink:href="#textext-f5e50cf8-14" />
        </g>
        <g
           id="g24295"
           style="fill:#000000;fill-opacity:1">
          <use
             id="use24297"
             x="470.465"
             y="340.89301"
             width="744.09448"
             height="1052.3622"
             xlink:href="#textext-f5e50cf8-5" />
        </g>
        <g
           id="g24299"
           style="fill:#000000;fill-opacity:1">
          <use
             id="use24301"
             x="365.091"
             y="352.84799"
             width="744.09448"
             height="1052.3622"
             xlink:href="#textext-f5e50cf8-28" />
        </g>
        <g
           id="g24303"
           style="fill:#000000;fill-opacity:1">
          <use
             id="use24305"
             x="372.284"
             y="352.84799"
             width="744.09448"
             height="1052.3622"
             xlink:href="#textext-f5e50cf8-22" />
        </g>
        <g
           id="g24307"
           style="fill:#000000;fill-opacity:1">
          <use
             id="use24309"
             x="382.2446"
             y="352.84799"
             width="744.09448"
             height="1052.3622"
             xlink:href="#textext-f5e50cf8-18" />
        </g>
        <g
           id="g24311"
           style="fill:#000000;fill-opacity:1">
          <use
             id="use24313"
             x="386.12399"
             y="352.84799"
             width="744.09448"
             height="1052.3622"
             xlink:href="#textext-f5e50cf8-1" />
        </g>
        <g
           id="g24315"
           style="fill:#000000;fill-opacity:1">
          <use
             id="use24317"
             x="395.979"
             y="352.84799"
             width="744.09448"
             height="1052.3622"
             xlink:href="#textext-f5e50cf8-29" />
        </g>
        <g
           id="g24319"
           style="fill:#000000;fill-opacity:1">
          <use
             id="use24321"
             x="405.94199"
             y="352.84799"
             width="744.09448"
             height="1052.3622"
             xlink:href="#textext-f5e50cf8-3" />
        </g>
        <g
           id="g24323"
           style="fill:#000000;fill-opacity:1">
          <use
             id="use24325"
             x="413.77499"
             y="352.84799"
             width="744.09448"
             height="1052.3622"
             xlink:href="#textext-f5e50cf8-19" />
        </g>
        <g
           id="g24327"
           style="fill:#000000;fill-opacity:1">
          <use
             id="use24329"
             x="417.64899"
             y="352.84799"
             width="744.09448"
             height="1052.3622"
             xlink:href="#textext-f5e50cf8-10" />
          <use
             id="use24331"
             x="422.63031"
             y="352.84799"
             width="744.09448"
             height="1052.3622"
             xlink:href="#textext-f5e50cf8-6" />
        </g>
        <g
           id="g24333"
           style="fill:#000000;fill-opacity:1">
          <use
             id="use24335"
             x="438.00201"
             y="352.84799"
             width="744.09448"
             height="1052.3622"
             xlink:href="#textext-f5e50cf8-16" />
          <use
             id="use24337"
             x="440.76962"
             y="352.84799"
             width="744.09448"
             height="1052.3622"
             xlink:href="#textext-f5e50cf8-24" />
        </g>
        <g
           id="g24339"
           style="fill:#000000;fill-opacity:1">
          <use
             id="use24341"
             x="449.34799"
             y="352.84799"
             width="744.09448"
             height="1052.3622"
             xlink:href="#textext-f5e50cf8-4" />
        </g>
        <g
           id="g24343"
           style="fill:#000000;fill-opacity:1">
          <use
             id="use24345"
             x="460.172"
             y="352.84799"
             width="744.09448"
             height="1052.3622"
             xlink:href="#textext-f5e50cf8-14" />
        </g>
        <g
           id="g24347"
           style="fill:#000000;fill-opacity:1">
          <use
             id="use24349"
             x="470.68799"
             y="352.84799"
             width="744.09448"
             height="1052.3622"
             xlink:href="#textext-f5e50cf8-5" />
        </g>
      </g>
    </g>
  </g>
</svg>
