<?xml version="1.0" encoding="UTF-8" standalone="no"?>
<!-- Created with Inkscape (http://www.inkscape.org/) -->

<svg
   xmlns:dc="http://purl.org/dc/elements/1.1/"
   xmlns:cc="http://creativecommons.org/ns#"
   xmlns:rdf="http://www.w3.org/1999/02/22-rdf-syntax-ns#"
   xmlns:svg="http://www.w3.org/2000/svg"
   xmlns="http://www.w3.org/2000/svg"
   xmlns:xlink="http://www.w3.org/1999/xlink"
   version="1.1"
   width="380.78674"
   height="69.402237"
   id="svg46358">
  <defs
     id="defs46360" />
  <metadata
     id="metadata46363">
    <rdf:RDF>
      <cc:Work
         rdf:about="">
        <dc:format>image/svg+xml</dc:format>
        <dc:type
           rdf:resource="http://purl.org/dc/dcmitype/StillImage" />
        <dc:title></dc:title>
      </cc:Work>
    </rdf:RDF>
  </metadata>
  <g
     transform="translate(-142.55168,-545.15673)"
     id="layer1">
    <g
       transform="matrix(2,0,0,2,-457.00459,294.39323)"
       id="g45521">
      <defs
         id="defs45523">
        <g
           id="g45525">
          <symbol
             id="textext-551570c7-0"
             style="overflow:visible">
            <path
               d="m 5.796875,-6.78125 -5.46875,0 0,0.3125 0.234375,0 c 0.765625,0 0.796875,0.109375 0.796875,0.46875 l 0,5.21875 c 0,0.359375 -0.03125,0.46875 -0.796875,0.46875 l -0.234375,0 0,0.3125 c 0.34375,-0.03125 1.125,-0.03125 1.515625,-0.03125 0.40625,0 1.3125,0 1.671875,0.03125 l 0,-0.3125 -0.328125,0 C 2.25,-0.3125 2.25,-0.4375 2.25,-0.78125 l 0,-2.453125 0.84375,0 c 0.96875,0 1.0625,0.3125 1.0625,1.15625 l 0.25,0 0,-2.640625 -0.25,0 c 0,0.84375 -0.09375,1.171875 -1.0625,1.171875 l -0.84375,0 0,-2.53125 c 0,-0.328125 0.015625,-0.390625 0.484375,-0.390625 l 1.1875,0 c 1.5,0 1.75,0.5625 1.90625,1.9375 l 0.25,0 z m 0,0"
               id="path45528"
               style="stroke:none" />
          </symbol>
          <symbol
             id="textext-551570c7-1"
             style="overflow:visible">
            <path
               d="M 9.0625,-5.828125 C 9.234375,-6.40625 9.671875,-6.5 10.0625,-6.5 l 0,-0.3125 c -0.296875,0.03125 -0.609375,0.03125 -0.90625,0.03125 -0.296875,0 -0.9375,-0.015625 -1.1875,-0.03125 l 0,0.3125 c 0.671875,0.015625 0.859375,0.34375 0.859375,0.53125 0,0.0625 -0.03125,0.140625 -0.046875,0.203125 l -1.5,4.59375 -1.59375,-4.875 C 5.6875,-6.09375 5.65625,-6.15625 5.65625,-6.203125 5.65625,-6.5 6.234375,-6.5 6.5,-6.5 l 0,-0.3125 c -0.359375,0.03125 -1.03125,0.03125 -1.421875,0.03125 -0.375,0 -0.796875,-0.015625 -1.203125,-0.03125 l 0,0.3125 c 0.5625,0 0.765625,0 0.890625,0.359375 L 4.984375,-5.4375 3.59375,-1.171875 2,-6.078125 C 1.984375,-6.09375 1.96875,-6.171875 1.96875,-6.203125 1.96875,-6.5 2.546875,-6.5 2.8125,-6.5 l 0,-0.3125 c -0.359375,0.03125 -1.03125,0.03125 -1.421875,0.03125 -0.375,0 -0.796875,-0.015625 -1.21875,-0.03125 l 0,0.3125 c 0.75,0 0.796875,0.046875 0.921875,0.421875 L 3.078125,0.03125 c 0.03125,0.09375 0.0625,0.1875 0.1875,0.1875 0.140625,0 0.15625,-0.0625 0.203125,-0.203125 l 1.640625,-5.0625 1.65625,5.078125 c 0.03125,0.09375 0.0625,0.1875 0.1875,0.1875 0.140625,0 0.171875,-0.0625 0.203125,-0.203125 z m 0,0"
               id="path45531"
               style="stroke:none" />
          </symbol>
          <symbol
             id="textext-551570c7-2"
             style="overflow:visible">
            <path
               d="M 6.109375,-6.03125 C 6.109375,-6.390625 6.125,-6.5 6.890625,-6.5 l 0.25,0 0,-0.3125 c -0.359375,0.03125 -1.09375,0.03125 -1.46875,0.03125 -0.375,0 -1.125,0 -1.46875,-0.03125 l 0,0.3125 0.234375,0 c 0.765625,0 0.78125,0.109375 0.78125,0.46875 l 0,2.328125 -2.96875,0 0,-2.328125 C 2.25,-6.390625 2.265625,-6.5 3.03125,-6.5 l 0.234375,0 0,-0.3125 c -0.34375,0.03125 -1.078125,0.03125 -1.46875,0.03125 -0.375,0 -1.125,0 -1.46875,-0.03125 l 0,0.3125 0.234375,0 c 0.765625,0 0.796875,0.109375 0.796875,0.46875 l 0,5.25 c 0,0.359375 -0.03125,0.46875 -0.796875,0.46875 l -0.234375,0 0,0.3125 c 0.34375,-0.03125 1.09375,-0.03125 1.46875,-0.03125 0.375,0 1.125,0 1.46875,0.03125 l 0,-0.3125 -0.234375,0 C 2.265625,-0.3125 2.25,-0.421875 2.25,-0.78125 l 0,-2.609375 2.96875,0 0,2.609375 c 0,0.359375 -0.015625,0.46875 -0.78125,0.46875 l -0.234375,0 0,0.3125 c 0.34375,-0.03125 1.078125,-0.03125 1.453125,-0.03125 0.390625,0 1.125,0 1.484375,0.03125 l 0,-0.3125 -0.25,0 c -0.765625,0 -0.78125,-0.109375 -0.78125,-0.46875 z m 0,0"
               id="path45534"
               style="stroke:none" />
          </symbol>
          <symbol
             id="textext-551570c7-3"
             style="overflow:visible">
            <path
               d="M 2.40625,-6.59375 C 2.3125,-6.8125 2.28125,-6.8125 2.046875,-6.8125 l -1.671875,0 0,0.3125 0.234375,0 c 0.765625,0 0.78125,0.109375 0.78125,0.46875 l 0,4.984375 c 0,0.265625 0,0.734375 -1.015625,0.734375 L 0.375,0 c 0.34375,-0.015625 0.828125,-0.03125 1.15625,-0.03125 0.328125,0 0.828125,0.015625 1.171875,0.03125 l 0,-0.3125 c -1.03125,0 -1.03125,-0.46875 -1.03125,-0.734375 l 0,-5.375 0.015625,0 2.40625,6.203125 C 4.140625,-0.09375 4.1875,0 4.28125,0 4.390625,0 4.421875,-0.078125 4.46875,-0.1875 L 6.921875,-6.5 l 0,5.71875 c 0,0.359375 -0.015625,0.46875 -0.78125,0.46875 l -0.234375,0 0,0.3125 c 0.359375,-0.03125 1.046875,-0.03125 1.4375,-0.03125 0.375,0 1.046875,0 1.421875,0.03125 l 0,-0.3125 -0.25,0 c -0.765625,0 -0.78125,-0.109375 -0.78125,-0.46875 l 0,-5.25 C 7.734375,-6.390625 7.75,-6.5 8.515625,-6.5 l 0.25,0 0,-0.3125 -1.6875,0 C 6.8125,-6.8125 6.8125,-6.796875 6.75,-6.625 L 4.5625,-1 z m 0,0"
               id="path45537"
               style="stroke:none" />
          </symbol>
          <symbol
             id="textext-551570c7-4"
             style="overflow:visible">
            <path
               d="m 3.296875,2.390625 c 0,-0.03125 0,-0.046875 -0.171875,-0.21875 C 1.890625,0.921875 1.5625,-0.96875 1.5625,-2.5 c 0,-1.734375 0.375,-3.46875 1.609375,-4.703125 0.125,-0.125 0.125,-0.140625 0.125,-0.171875 0,-0.078125 -0.03125,-0.109375 -0.09375,-0.109375 -0.109375,0 -1,0.6875 -1.59375,1.953125 -0.5,1.09375 -0.625,2.203125 -0.625,3.03125 0,0.78125 0.109375,1.984375 0.65625,3.125 C 2.25,1.84375 3.09375,2.5 3.203125,2.5 c 0.0625,0 0.09375,-0.03125 0.09375,-0.109375 z m 0,0"
               id="path45540"
               style="stroke:none" />
          </symbol>
          <symbol
             id="textext-551570c7-5"
             style="overflow:visible">
            <path
               d="m 5.90625,-0.625 c 0.140625,0.21875 0.53125,0.609375 0.640625,0.609375 0.09375,0 0.09375,-0.078125 0.09375,-0.21875 l 0,-1.734375 c 0,-0.390625 0.03125,-0.4375 0.6875,-0.4375 l 0,-0.3125 c -0.375,0 -0.921875,0.03125 -1.21875,0.03125 -0.390625,0 -1.25,0 -1.609375,-0.03125 l 0,0.3125 0.328125,0 C 5.71875,-2.40625 5.75,-2.296875 5.75,-1.9375 l 0,0.640625 c 0,1.125 -1.265625,1.203125 -1.546875,1.203125 -0.640625,0 -2.625,-0.34375 -2.625,-3.3125 0,-2.984375 1.96875,-3.3125 2.5625,-3.3125 1.078125,0 1.984375,0.890625 2.171875,2.359375 0.03125,0.140625 0.03125,0.171875 0.171875,0.171875 0.15625,0 0.15625,-0.03125 0.15625,-0.234375 l 0,-2.359375 c 0,-0.171875 0,-0.25 -0.109375,-0.25 -0.046875,0 -0.078125,0 -0.15625,0.125 l -0.5,0.734375 C 5.546875,-6.484375 5.015625,-7.03125 4.03125,-7.03125 c -1.859375,0 -3.46875,1.578125 -3.46875,3.625 0,2.046875 1.59375,3.625 3.484375,3.625 0.734375,0 1.53125,-0.265625 1.859375,-0.84375 z m 0,0"
               id="path45543"
               style="stroke:none" />
          </symbol>
          <symbol
             id="textext-551570c7-6"
             style="overflow:visible">
            <path
               d="m 2.875,-2.5 c 0,-0.765625 -0.109375,-1.96875 -0.65625,-3.109375 -0.59375,-1.21875 -1.453125,-1.875 -1.546875,-1.875 -0.0625,0 -0.109375,0.046875 -0.109375,0.109375 0,0.03125 0,0.046875 0.1875,0.234375 0.984375,0.984375 1.546875,2.5625 1.546875,4.640625 0,1.71875 -0.359375,3.46875 -1.59375,4.71875 C 0.5625,2.34375 0.5625,2.359375 0.5625,2.390625 0.5625,2.453125 0.609375,2.5 0.671875,2.5 0.765625,2.5 1.671875,1.8125 2.25,0.546875 2.765625,-0.546875 2.875,-1.65625 2.875,-2.5 z m 0,0"
               id="path45546"
               style="stroke:none" />
          </symbol>
          <symbol
             id="textext-551570c7-7"
             style="overflow:visible">
            <path
               d="m 6.84375,-3.265625 c 0.15625,0 0.34375,0 0.34375,-0.1875 C 7.1875,-3.65625 7,-3.65625 6.859375,-3.65625 l -5.96875,0 c -0.140625,0 -0.328125,0 -0.328125,0.203125 0,0.1875 0.1875,0.1875 0.328125,0.1875 z m 0.015625,1.9375 c 0.140625,0 0.328125,0 0.328125,-0.203125 0,-0.1875 -0.1875,-0.1875 -0.34375,-0.1875 l -5.953125,0 c -0.140625,0 -0.328125,0 -0.328125,0.1875 0,0.203125 0.1875,0.203125 0.328125,0.203125 z m 0,0"
               id="path45549"
               style="stroke:none" />
          </symbol>
          <symbol
             id="textext-551570c7-8"
             style="overflow:visible">
            <path
               d="m 4.46875,-1.734375 -0.234375,0 C 4.171875,-1.4375 4.109375,-1 4,-0.84375 3.9375,-0.765625 3.28125,-0.765625 3.0625,-0.765625 l -1.796875,0 1.0625,-1.03125 c 1.546875,-1.375 2.140625,-1.90625 2.140625,-2.90625 0,-1.140625 -0.890625,-1.9375 -2.109375,-1.9375 -1.125,0 -1.859375,0.921875 -1.859375,1.8125 0,0.546875 0.5,0.546875 0.53125,0.546875 0.171875,0 0.515625,-0.109375 0.515625,-0.53125 0,-0.25 -0.1875,-0.515625 -0.53125,-0.515625 -0.078125,0 -0.09375,0 -0.125,0.015625 0.21875,-0.65625 0.765625,-1.015625 1.34375,-1.015625 0.90625,0 1.328125,0.8125 1.328125,1.625 C 3.5625,-3.90625 3.078125,-3.125 2.515625,-2.5 l -1.90625,2.125 C 0.5,-0.265625 0.5,-0.234375 0.5,0 l 3.703125,0 z m 0,0"
               id="path45552"
               style="stroke:none" />
          </symbol>
          <symbol
             id="textext-551570c7-9"
             style="overflow:visible">
            <path
               d="m 1.765625,-6.921875 -1.4375,0.109375 0,0.3125 c 0.703125,0 0.78125,0.0625 0.78125,0.5625 l 0,5.1875 c 0,0.4375 -0.109375,0.4375 -0.78125,0.4375 l 0,0.3125 C 0.65625,-0.015625 1.1875,-0.03125 1.4375,-0.03125 c 0.25,0 0.734375,0.015625 1.109375,0.03125 l 0,-0.3125 c -0.671875,0 -0.78125,0 -0.78125,-0.4375 z m 0,0"
               id="path45555"
               style="stroke:none" />
          </symbol>
          <symbol
             id="textext-551570c7-10"
             style="overflow:visible">
            <path
               d="m 1.09375,-3.421875 0,2.671875 c 0,0.4375 -0.109375,0.4375 -0.78125,0.4375 l 0,0.3125 c 0.359375,-0.015625 0.859375,-0.03125 1.140625,-0.03125 0.25,0 0.765625,0.015625 1.109375,0.03125 l 0,-0.3125 c -0.671875,0 -0.78125,0 -0.78125,-0.4375 l 0,-1.84375 C 1.78125,-3.625 2.5,-4.1875 3.125,-4.1875 c 0.640625,0 0.75,0.53125 0.75,1.109375 l 0,2.328125 c 0,0.4375 -0.109375,0.4375 -0.78125,0.4375 l 0,0.3125 c 0.34375,-0.015625 0.859375,-0.03125 1.125,-0.03125 0.25,0 0.78125,0.015625 1.109375,0.03125 l 0,-0.3125 c -0.515625,0 -0.765625,0 -0.765625,-0.296875 l 0,-1.90625 c 0,-0.859375 0,-1.15625 -0.3125,-1.515625 -0.140625,-0.171875 -0.46875,-0.375 -1.046875,-0.375 C 2.46875,-4.40625 2,-3.984375 1.71875,-3.359375 l 0,-1.046875 -1.40625,0.109375 0,0.3125 c 0.703125,0 0.78125,0.0625 0.78125,0.5625 z m 0,0"
               id="path45558"
               style="stroke:none" />
          </symbol>
          <symbol
             id="textext-551570c7-11"
             style="overflow:visible">
            <path
               d="m 2.890625,-3.515625 c 0.8125,-0.265625 1.390625,-0.953125 1.390625,-1.75 0,-0.8125 -0.875,-1.375 -1.828125,-1.375 -1,0 -1.765625,0.59375 -1.765625,1.359375 0,0.328125 0.21875,0.515625 0.515625,0.515625 0.296875,0 0.5,-0.21875 0.5,-0.515625 0,-0.484375 -0.46875,-0.484375 -0.609375,-0.484375 0.296875,-0.5 0.953125,-0.625 1.3125,-0.625 0.421875,0 0.96875,0.21875 0.96875,1.109375 0,0.125 -0.03125,0.703125 -0.28125,1.140625 C 2.796875,-3.65625 2.453125,-3.625 2.203125,-3.625 2.125,-3.609375 1.890625,-3.59375 1.8125,-3.59375 c -0.078125,0.015625 -0.140625,0.03125 -0.140625,0.125 0,0.109375 0.0625,0.109375 0.234375,0.109375 l 0.4375,0 c 0.8125,0 1.1875,0.671875 1.1875,1.65625 0,1.359375 -0.6875,1.640625 -1.125,1.640625 -0.4375,0 -1.1875,-0.171875 -1.53125,-0.75 0.34375,0.046875 0.65625,-0.171875 0.65625,-0.546875 0,-0.359375 -0.265625,-0.5625 -0.546875,-0.5625 -0.25,0 -0.5625,0.140625 -0.5625,0.578125 0,0.90625 0.921875,1.5625 2.015625,1.5625 1.21875,0 2.125,-0.90625 2.125,-1.921875 0,-0.8125 -0.640625,-1.59375 -1.671875,-1.8125 z m 0,0"
               id="path45561"
               style="stroke:none" />
          </symbol>
          <symbol
             id="textext-551570c7-12"
             style="overflow:visible">
            <path
               d="m 4.46875,-2 c 0,-1.1875 -0.8125,-2.1875 -1.890625,-2.1875 -0.46875,0 -0.90625,0.15625 -1.265625,0.515625 l 0,-1.953125 c 0.203125,0.0625 0.53125,0.125 0.84375,0.125 1.234375,0 1.9375,-0.90625 1.9375,-1.03125 0,-0.0625 -0.03125,-0.109375 -0.109375,-0.109375 0,0 -0.03125,0 -0.078125,0.03125 C 3.703125,-6.515625 3.21875,-6.3125 2.546875,-6.3125 2.15625,-6.3125 1.6875,-6.390625 1.21875,-6.59375 1.140625,-6.625 1.125,-6.625 1.109375,-6.625 1,-6.625 1,-6.546875 1,-6.390625 L 1,-3.4375 c 0,0.171875 0,0.25 0.140625,0.25 0.078125,0 0.09375,-0.015625 0.140625,-0.078125 C 1.390625,-3.421875 1.75,-3.96875 2.5625,-3.96875 c 0.515625,0 0.765625,0.453125 0.84375,0.640625 0.15625,0.375 0.1875,0.75 0.1875,1.25 0,0.359375 0,0.953125 -0.25,1.375 C 3.109375,-0.3125 2.734375,-0.0625 2.28125,-0.0625 c -0.71875,0 -1.296875,-0.53125 -1.46875,-1.109375 0.03125,0 0.0625,0.015625 0.171875,0.015625 0.328125,0 0.5,-0.25 0.5,-0.484375 0,-0.25 -0.171875,-0.5 -0.5,-0.5 C 0.84375,-2.140625 0.5,-2.0625 0.5,-1.609375 0.5,-0.75 1.1875,0.21875 2.296875,0.21875 3.453125,0.21875 4.46875,-0.734375 4.46875,-2 z m 0,0"
               id="path45564"
               style="stroke:none" />
          </symbol>
          <symbol
             id="textext-551570c7-13"
             style="overflow:visible">
            <path
               d="m 0.28125,-1.640625 2.65625,0 0,0.859375 c 0,0.359375 -0.03125,0.46875 -0.765625,0.46875 l -0.203125,0 0,0.3125 C 2.375,-0.03125 2.890625,-0.03125 3.3125,-0.03125 c 0.421875,0 0.9375,0 1.359375,0.03125 l 0,-0.3125 -0.21875,0 c -0.734375,0 -0.75,-0.109375 -0.75,-0.46875 l 0,-0.859375 0.984375,0 0,-0.3125 -0.984375,0 0,-4.53125 c 0,-0.203125 0,-0.265625 -0.171875,-0.265625 -0.078125,0 -0.109375,0 -0.1875,0.125 l -3.0625,4.671875 z m 2.703125,-0.3125 -2.421875,0 2.421875,-3.71875 z m 0,0"
               id="path45567"
               style="stroke:none" />
          </symbol>
          <symbol
             id="textext-551570c7-14"
             style="overflow:visible">
            <path
               d="m 1.625,-4.5625 c -0.453125,-0.296875 -0.5,-0.625 -0.5,-0.796875 0,-0.609375 0.65625,-1.03125 1.359375,-1.03125 0.71875,0 1.359375,0.515625 1.359375,1.234375 0,0.578125 -0.390625,1.046875 -0.984375,1.390625 z m 1.453125,0.953125 C 3.796875,-3.984375 4.28125,-4.5 4.28125,-5.15625 c 0,-0.921875 -0.875,-1.484375 -1.78125,-1.484375 -1,0 -1.8125,0.734375 -1.8125,1.671875 0,0.171875 0.015625,0.625 0.4375,1.09375 0.109375,0.109375 0.484375,0.359375 0.734375,0.53125 C 1.28125,-3.046875 0.421875,-2.5 0.421875,-1.5 c 0,1.046875 1.015625,1.71875 2.0625,1.71875 1.125,0 2.078125,-0.828125 2.078125,-1.890625 0,-0.359375 -0.109375,-0.8125 -0.5,-1.234375 C 3.875,-3.109375 3.71875,-3.203125 3.078125,-3.609375 z m -1,0.421875 c 0.28125,0.171875 0.75,0.46875 1.234375,0.78125 0.28125,0.1875 0.75,0.484375 0.75,1.09375 0,0.734375 -0.75,1.25 -1.5625,1.25 -0.859375,0 -1.578125,-0.609375 -1.578125,-1.4375 0,-0.578125 0.3125,-1.21875 1.15625,-1.6875 z m 0,0"
               id="path45570"
               style="stroke:none" />
          </symbol>
          <symbol
             id="textext-551570c7-15"
             style="overflow:visible">
            <path
               d="m 2.9375,-6.375 c 0,-0.25 0,-0.265625 -0.234375,-0.265625 C 2.078125,-6 1.203125,-6 0.890625,-6 l 0,0.3125 c 0.203125,0 0.78125,0 1.296875,-0.265625 l 0,5.171875 c 0,0.359375 -0.03125,0.46875 -0.921875,0.46875 l -0.3125,0 0,0.3125 c 0.34375,-0.03125 1.203125,-0.03125 1.609375,-0.03125 0.390625,0 1.265625,0 1.609375,0.03125 l 0,-0.3125 -0.3125,0 c -0.90625,0 -0.921875,-0.109375 -0.921875,-0.46875 z m 0,0"
               id="path45573"
               style="stroke:none" />
          </symbol>
          <symbol
             id="textext-551570c7-16"
             style="overflow:visible">
            <path
               d="M 1.734375,-0.734375 C 1.671875,-0.5 1.4375,-0.125 1.078125,-0.125 c -0.015625,0 -0.234375,0 -0.375,-0.09375 0.28125,-0.09375 0.3125,-0.34375 0.3125,-0.390625 0,-0.15625 -0.125,-0.25 -0.28125,-0.25 -0.203125,0 -0.40625,0.15625 -0.40625,0.421875 0,0.34375 0.390625,0.5 0.734375,0.5 0.328125,0 0.609375,-0.1875 0.78125,-0.484375 C 2.015625,-0.0625 2.390625,0.0625 2.671875,0.0625 c 0.8125,0 1.234375,-0.859375 1.234375,-1.0625 0,-0.09375 -0.09375,-0.09375 -0.109375,-0.09375 -0.109375,0 -0.109375,0.046875 -0.140625,0.125 -0.140625,0.484375 -0.5625,0.84375 -0.953125,0.84375 -0.28125,0 -0.421875,-0.1875 -0.421875,-0.453125 0,-0.1875 0.171875,-0.8125 0.359375,-1.59375 C 2.78125,-2.703125 3.09375,-2.875 3.328125,-2.875 c 0.015625,0 0.21875,0 0.375,0.09375 -0.21875,0.0625 -0.3125,0.265625 -0.3125,0.390625 0,0.140625 0.125,0.25 0.28125,0.25 0.15625,0 0.390625,-0.125 0.390625,-0.421875 0,-0.390625 -0.453125,-0.515625 -0.71875,-0.515625 -0.359375,0 -0.640625,0.234375 -0.78125,0.5 -0.125,-0.28125 -0.453125,-0.5 -0.84375,-0.5 C 0.9375,-3.078125 0.5,-2.21875 0.5,-2 c 0,0.078125 0.09375,0.078125 0.109375,0.078125 0.09375,0 0.09375,-0.015625 0.140625,-0.109375 C 0.921875,-2.578125 1.359375,-2.875 1.703125,-2.875 1.9375,-2.875 2.125,-2.75 2.125,-2.421875 2.125,-2.28125 2.03125,-1.9375 1.96875,-1.6875 z m 0,0"
               id="path45576"
               style="stroke:none" />
          </symbol>
          <symbol
             id="textext-551570c7-17"
             style="overflow:visible">
            <path
               d="m 5.15625,-3.71875 c 0.140625,0 0.5,0 0.5,-0.34375 0,-0.234375 -0.21875,-0.234375 -0.390625,-0.234375 l -2.28125,0 c -1.5,0 -2.609375,1.640625 -2.609375,2.828125 0,0.875 0.59375,1.578125 1.5,1.578125 1.171875,0 2.5,-1.203125 2.5,-2.734375 0,-0.171875 0,-0.65625 -0.3125,-1.09375 z M 1.890625,-0.109375 C 1.390625,-0.109375 1,-0.46875 1,-1.1875 c 0,-0.296875 0.109375,-1.109375 0.46875,-1.703125 0.421875,-0.6875 1.015625,-0.828125 1.359375,-0.828125 0.828125,0 0.90625,0.65625 0.90625,0.96875 0,0.46875 -0.203125,1.28125 -0.53125,1.796875 -0.390625,0.578125 -0.9375,0.84375 -1.3125,0.84375 z m 0,0"
               id="path45579"
               style="stroke:none" />
          </symbol>
          <symbol
             id="textext-551570c7-18"
             style="overflow:visible">
            <path
               d="m 1.90625,-0.53125 c 0,-0.28125 -0.234375,-0.53125 -0.515625,-0.53125 -0.296875,0 -0.53125,0.25 -0.53125,0.53125 C 0.859375,-0.234375 1.09375,0 1.390625,0 1.671875,0 1.90625,-0.234375 1.90625,-0.53125 z m 0,0"
               id="path45582"
               style="stroke:none" />
          </symbol>
          <symbol
             id="textext-551570c7-19"
             style="overflow:visible">
            <path
               d="M 3.875,8.515625 2.109375,4.609375 C 2.0625,4.53125 2.046875,4.46875 1.96875,4.46875 c -0.03125,0 -0.046875,0 -0.140625,0.09375 L 0.84375,5.296875 C 0.734375,5.390625 0.734375,5.40625 0.734375,5.4375 c 0,0.078125 0.03125,0.109375 0.09375,0.109375 0.03125,0 0.046875,0 0.140625,-0.078125 l 0.515625,-0.390625 1.96875,4.34375 C 3.515625,9.5625 3.53125,9.5625 3.65625,9.5625 3.8125,9.5625 3.828125,9.53125 3.890625,9.375 L 8.4375,-0.03125 C 8.5,-0.140625 8.5,-0.15625 8.5,-0.203125 8.5,-0.3125 8.421875,-0.40625 8.296875,-0.40625 c -0.109375,0 -0.140625,0.078125 -0.203125,0.203125 z m 0,0"
               id="path45585"
               style="stroke:none" />
          </symbol>
          <symbol
             id="textext-551570c7-20"
             style="overflow:visible">
            <path
               d="M 4.171875,-2.5 6.15625,-4.484375 c 0.109375,-0.109375 0.125,-0.125 0.125,-0.203125 0,-0.125 -0.09375,-0.203125 -0.203125,-0.203125 -0.078125,0 -0.109375,0.03125 -0.203125,0.125 l -2,2 -2,-2 c -0.109375,-0.109375 -0.125,-0.125 -0.203125,-0.125 -0.109375,0 -0.203125,0.078125 -0.203125,0.203125 0,0.078125 0.03125,0.109375 0.125,0.203125 L 3.578125,-2.5 1.59375,-0.515625 c -0.09375,0.109375 -0.125,0.171875 -0.125,0.21875 0,0.125 0.09375,0.203125 0.203125,0.203125 0.078125,0 0.09375,-0.015625 0.203125,-0.125 l 2,-2 1.984375,2 c 0.109375,0.09375 0.15625,0.125 0.21875,0.125 0.125,0 0.203125,-0.078125 0.203125,-0.203125 0,-0.078125 -0.015625,-0.09375 -0.125,-0.203125 z m 0,0"
               id="path45588"
               style="stroke:none" />
          </symbol>
          <symbol
             id="textext-551570c7-21"
             style="overflow:visible">
            <path
               d="m 6.59375,-2.296875 c 0.140625,0 0.328125,0 0.328125,-0.203125 0,-0.1875 -0.1875,-0.1875 -0.328125,-0.1875 l -5.4375,0 c -0.140625,0 -0.328125,0 -0.328125,0.1875 0,0.203125 0.1875,0.203125 0.328125,0.203125 z m 0,0"
               id="path45591"
               style="stroke:none" />
          </symbol>
          <symbol
             id="textext-551570c7-22"
             style="overflow:visible">
            <path
               d="M 4.625,16.046875 2.484375,8.578125 1.09375,10.203125 1.25,10.34375 1.9375,9.546875 l 2.296875,8 c 0.328125,0 0.328125,0 0.40625,-0.234375 L 10.125,0 c 0.04687,-0.15625 0.04687,-0.1875 0.04687,-0.203125 0,-0.109375 -0.07813,-0.203125 -0.203125,-0.203125 -0.15625,0 -0.1875,0.140625 -0.234375,0.265625 z m 0,0"
               id="path45594"
               style="stroke:none" />
          </symbol>
          <symbol
             id="textext-551570c7-23"
             style="overflow:visible">
            <path
               d="M 1.984375,-3.171875 C 1.984375,-3.3125 1.96875,-3.3125 1.796875,-3.3125 1.453125,-3 0.890625,-3 0.796875,-3 l -0.078125,0 0,0.21875 0.078125,0 c 0.109375,0 0.4375,-0.015625 0.734375,-0.140625 l 0,2.5 c 0,0.140625 0,0.203125 -0.53125,0.203125 l -0.25,0 L 0.75,0 c 0.265625,-0.015625 0.71875,-0.015625 1,-0.015625 0.296875,0 0.734375,0 1.015625,0.015625 l 0,-0.21875 -0.25,0 c -0.53125,0 -0.53125,-0.0625 -0.53125,-0.203125 z m 0,0"
               id="path45597"
               style="stroke:none" />
          </symbol>
          <symbol
             id="textext-551570c7-24"
             style="overflow:visible">
            <path
               d="M 0.421875,0.8125 C 0.40625,0.828125 0.40625,0.890625 0.40625,0.890625 c 0,0.078125 0.0625,0.078125 0.09375,0.078125 0.046875,0 0.0625,0 0.09375,-0.03125 0.015625,0 0.015625,-0.015625 0.078125,-0.3125 l 0.21875,-0.828125 C 0.90625,-0.28125 0.90625,-0.28125 0.953125,-0.4375 1.125,-0.125 1.53125,0.0625 2,0.0625 c 0.84375,0 1.578125,-0.671875 1.578125,-1.3125 0,-0.171875 -0.0625,-0.5 -0.390625,-0.71875 0.421875,-0.265625 0.546875,-0.625 0.546875,-0.828125 0,-0.390625 -0.328125,-0.71875 -0.875,-0.71875 -0.71875,0 -1.5,0.578125 -1.703125,1.359375 z M 2.65625,-1.953125 C 2.578125,-1.9375 2.5,-1.9375 2.421875,-1.9375 c -0.140625,0 -0.171875,0 -0.234375,-0.015625 0.109375,-0.015625 0.125,-0.03125 0.28125,-0.03125 0.109375,0 0.125,0 0.1875,0.015625 z M 2.9375,-2.09375 C 2.75,-2.140625 2.578125,-2.140625 2.484375,-2.140625 c -0.1875,0 -0.546875,0 -0.546875,0.203125 0,0.171875 0.296875,0.171875 0.46875,0.171875 0.109375,0 0.296875,0 0.53125,-0.078125 0.140625,0.125 0.171875,0.28125 0.171875,0.4375 0,0.484375 -0.3125,1.3125 -1.109375,1.3125 -0.4375,0 -0.9375,-0.21875 -0.9375,-0.734375 0,-0.109375 0.046875,-0.265625 0.078125,-0.390625 0.03125,-0.15625 0.203125,-0.828125 0.21875,-0.921875 0.203125,-0.75 0.921875,-1.203125 1.484375,-1.203125 0.265625,0 0.46875,0.125 0.46875,0.421875 0,0.0625 -0.015625,0.578125 -0.375,0.828125 z m 0,0"
               id="path45600"
               style="stroke:none" />
          </symbol>
        </g>
      </defs>
      <g
         id="textext-551570c7-25">
        <g
           id="g45603"
           style="fill:#000000;fill-opacity:1">
          <use
             id="use45605"
             x="300.76501"
             y="134.765"
             width="744.09448"
             height="1052.3622"
             xlink:href="#textext-551570c7-0" />
          <use
             id="use45607"
             x="307.26859"
             y="134.765"
             width="744.09448"
             height="1052.3622"
             xlink:href="#textext-551570c7-1" />
          <use
             id="use45609"
             x="317.50815"
             y="134.765"
             width="744.09448"
             height="1052.3622"
             xlink:href="#textext-551570c7-2" />
          <use
             id="use45611"
             x="324.9801"
             y="134.765"
             width="744.09448"
             height="1052.3622"
             xlink:href="#textext-551570c7-3" />
          <use
             id="use45613"
             x="334.11282"
             y="134.765"
             width="744.09448"
             height="1052.3622"
             xlink:href="#textext-551570c7-4" />
          <use
             id="use45615"
             x="337.98727"
             y="134.765"
             width="744.09448"
             height="1052.3622"
             xlink:href="#textext-551570c7-5" />
          <use
             id="use45617"
             x="345.80493"
             y="134.765"
             width="744.09448"
             height="1052.3622"
             xlink:href="#textext-551570c7-6" />
        </g>
        <g
           id="g45619"
           style="fill:#000000;fill-opacity:1">
          <use
             id="use45621"
             x="349.67899"
             y="137.754"
             width="744.09448"
             height="1052.3622"
             xlink:href="#textext-551570c7-16" />
        </g>
        <g
           id="g45623"
           style="fill:#000000;fill-opacity:1">
          <use
             id="use45625"
             x="356.68701"
             y="134.765"
             width="744.09448"
             height="1052.3622"
             xlink:href="#textext-551570c7-7" />
        </g>
        <g
           id="g45627"
           style="fill:#000000;fill-opacity:1">
          <use
             id="use45629"
             x="368.42096"
             y="134.765"
             width="744.09448"
             height="1052.3622"
             xlink:href="#textext-551570c7-8" />
        </g>
        <g
           id="g45631"
           style="fill:#000000;fill-opacity:1">
          <use
             id="use45633"
             x="373.40201"
             y="134.765"
             width="744.09448"
             height="1052.3622"
             xlink:href="#textext-551570c7-17" />
        </g>
        <g
           id="g45635"
           style="fill:#000000;fill-opacity:1">
          <use
             id="use45637"
             x="379.095"
             y="136.259"
             width="744.09448"
             height="1052.3622"
             xlink:href="#textext-551570c7-16" />
        </g>
        <g
           id="g45639"
           style="fill:#000000;fill-opacity:1">
          <use
             id="use45641"
             x="384.11099"
             y="125.788"
             width="744.09448"
             height="1052.3622"
             xlink:href="#textext-551570c7-19" />
        </g>
        <path
           d="m 0.0010625,-8.4375e-4 21.5859375,0"
           transform="matrix(1,0,0,-1,392.413,125.589)"
           id="path45643"
           style="fill:none;stroke:#000000;stroke-width:0.398;stroke-linecap:butt;stroke-linejoin:miter;stroke-miterlimit:10;stroke-opacity:1" />
        <g
           id="g45645"
           style="fill:#000000;fill-opacity:1">
          <use
             id="use45647"
             x="392.41299"
             y="134.765"
             width="744.09448"
             height="1052.3622"
             xlink:href="#textext-551570c7-8" />
        </g>
        <g
           id="g45649"
           style="fill:#000000;fill-opacity:1">
          <use
             id="use45651"
             x="399.05804"
             y="134.765"
             width="744.09448"
             height="1052.3622"
             xlink:href="#textext-551570c7-9" />
          <use
             id="use45653"
             x="401.82565"
             y="134.765"
             width="744.09448"
             height="1052.3622"
             xlink:href="#textext-551570c7-10" />
        </g>
        <g
           id="g45655"
           style="fill:#000000;fill-opacity:1">
          <use
             id="use45657"
             x="409.01468"
             y="134.765"
             width="744.09448"
             height="1052.3622"
             xlink:href="#textext-551570c7-8" />
        </g>
        <g
           id="g45659"
           style="fill:#000000;fill-opacity:1">
          <use
             id="use45661"
             x="416.76556"
             y="134.765"
             width="744.09448"
             height="1052.3622"
             xlink:href="#textext-551570c7-7" />
        </g>
        <g
           id="g45663"
           style="fill:#000000;fill-opacity:1">
          <use
             id="use45665"
             x="427.28409"
             y="134.765"
             width="744.09448"
             height="1052.3622"
             xlink:href="#textext-551570c7-8" />
        </g>
        <g
           id="g45667"
           style="fill:#000000;fill-opacity:1">
          <use
             id="use45669"
             x="432.26401"
             y="134.765"
             width="744.09448"
             height="1052.3622"
             xlink:href="#textext-551570c7-18" />
        </g>
        <g
           id="g45671"
           style="fill:#000000;fill-opacity:1">
          <use
             id="use45673"
             x="435.03101"
             y="134.765"
             width="744.09448"
             height="1052.3622"
             xlink:href="#textext-551570c7-11" />
          <use
             id="use45675"
             x="440.0123"
             y="134.765"
             width="744.09448"
             height="1052.3622"
             xlink:href="#textext-551570c7-12" />
          <use
             id="use45677"
             x="444.99359"
             y="134.765"
             width="744.09448"
             height="1052.3622"
             xlink:href="#textext-551570c7-13" />
          <use
             id="use45679"
             x="449.97491"
             y="134.765"
             width="744.09448"
             height="1052.3622"
             xlink:href="#textext-551570c7-14" />
          <use
             id="use45681"
             x="454.95621"
             y="134.765"
             width="744.09448"
             height="1052.3622"
             xlink:href="#textext-551570c7-8" />
        </g>
        <g
           id="g45683"
           style="fill:#000000;fill-opacity:1">
          <use
             id="use45685"
             x="459.93799"
             y="134.765"
             width="744.09448"
             height="1052.3622"
             xlink:href="#textext-551570c7-18" />
          <use
             id="use45687"
             x="462.7056"
             y="134.765"
             width="744.09448"
             height="1052.3622"
             xlink:href="#textext-551570c7-18" />
          <use
             id="use45689"
             x="465.47324"
             y="134.765"
             width="744.09448"
             height="1052.3622"
             xlink:href="#textext-551570c7-18" />
        </g>
        <g
           id="g45691"
           style="fill:#000000;fill-opacity:1">
          <use
             id="use45693"
             x="470.45401"
             y="134.765"
             width="744.09448"
             height="1052.3622"
             xlink:href="#textext-551570c7-20" />
        </g>
        <g
           id="g45695"
           style="fill:#000000;fill-opacity:1">
          <use
             id="use45697"
             x="480.41599"
             y="134.765"
             width="744.09448"
             height="1052.3622"
             xlink:href="#textext-551570c7-17" />
        </g>
        <g
           id="g45699"
           style="fill:#000000;fill-opacity:1">
          <use
             id="use45701"
             x="486.10901"
             y="136.259"
             width="744.09448"
             height="1052.3622"
             xlink:href="#textext-551570c7-16" />
        </g>
        <g
           id="g45703"
           style="fill:#000000;fill-opacity:1">
          <use
             id="use45705"
             x="299.45001"
             y="156.78799"
             width="744.09448"
             height="1052.3622"
             xlink:href="#textext-551570c7-0" />
          <use
             id="use45707"
             x="305.95358"
             y="156.78799"
             width="744.09448"
             height="1052.3622"
             xlink:href="#textext-551570c7-1" />
          <use
             id="use45709"
             x="316.19315"
             y="156.78799"
             width="744.09448"
             height="1052.3622"
             xlink:href="#textext-551570c7-2" />
          <use
             id="use45711"
             x="323.6651"
             y="156.78799"
             width="744.09448"
             height="1052.3622"
             xlink:href="#textext-551570c7-3" />
          <use
             id="use45713"
             x="332.79782"
             y="156.78799"
             width="744.09448"
             height="1052.3622"
             xlink:href="#textext-551570c7-4" />
          <use
             id="use45715"
             x="336.67227"
             y="156.78799"
             width="744.09448"
             height="1052.3622"
             xlink:href="#textext-551570c7-3" />
          <use
             id="use45717"
             x="345.80499"
             y="156.78799"
             width="744.09448"
             height="1052.3622"
             xlink:href="#textext-551570c7-6" />
        </g>
        <g
           id="g45719"
           style="fill:#000000;fill-opacity:1">
          <use
             id="use45721"
             x="349.67899"
             y="159.776"
             width="744.09448"
             height="1052.3622"
             xlink:href="#textext-551570c7-16" />
        </g>
        <g
           id="g45723"
           style="fill:#000000;fill-opacity:1">
          <use
             id="use45725"
             x="356.68701"
             y="156.78799"
             width="744.09448"
             height="1052.3622"
             xlink:href="#textext-551570c7-7" />
        </g>
        <g
           id="g45727"
           style="fill:#000000;fill-opacity:1">
          <use
             id="use45729"
             x="368.42096"
             y="156.78799"
             width="744.09448"
             height="1052.3622"
             xlink:href="#textext-551570c7-8" />
        </g>
        <g
           id="g45731"
           style="fill:#000000;fill-opacity:1">
          <use
             id="use45733"
             x="373.40201"
             y="156.78799"
             width="744.09448"
             height="1052.3622"
             xlink:href="#textext-551570c7-17" />
        </g>
        <g
           id="g45735"
           style="fill:#000000;fill-opacity:1">
          <use
             id="use45737"
             x="379.095"
             y="158.282"
             width="744.09448"
             height="1052.3622"
             xlink:href="#textext-551570c7-16" />
        </g>
        <g
           id="g45739"
           style="fill:#000000;fill-opacity:1">
          <use
             id="use45741"
             x="384.11099"
             y="142.536"
             width="744.09448"
             height="1052.3622"
             xlink:href="#textext-551570c7-22" />
        </g>
        <path
           d="m 2.1875e-4,6.25e-5 29.22265625,0"
           transform="matrix(1,0,0,-1,394.074,142.336)"
           id="path45743"
           style="fill:none;stroke:#000000;stroke-width:0.398;stroke-linecap:butt;stroke-linejoin:miter;stroke-miterlimit:10;stroke-opacity:1" />
        <g
           id="g45745"
           style="fill:#000000;fill-opacity:1">
          <use
             id="use45747"
             x="394.07401"
             y="156.78799"
             width="744.09448"
             height="1052.3622"
             xlink:href="#textext-551570c7-8" />
        </g>
        <g
           id="g45749"
           style="fill:#000000;fill-opacity:1">
          <use
             id="use45751"
             x="400.65302"
             y="149.66901"
             width="744.09448"
             height="1052.3622"
             xlink:href="#textext-551570c7-23" />
        </g>
        <path
           d="m 0,0.0014375 4.195312,0"
           transform="matrix(1,0,0,-1,400.25,150.603)"
           id="path45753"
           style="fill:none;stroke:#000000;stroke-width:0.398;stroke-linecap:butt;stroke-linejoin:miter;stroke-miterlimit:10;stroke-opacity:1" />
        <g
           id="g45755"
           style="fill:#000000;fill-opacity:1">
          <use
             id="use45757"
             x="400.25"
             y="154.74699"
             width="744.09448"
             height="1052.3622"
             xlink:href="#textext-551570c7-24" />
        </g>
        <g
           id="g45759"
           style="fill:#000000;fill-opacity:1">
          <use
             id="use45761"
             x="408.35199"
             y="156.78799"
             width="744.09448"
             height="1052.3622"
             xlink:href="#textext-551570c7-21" />
        </g>
        <g
           id="g45763"
           style="fill:#000000;fill-opacity:1">
          <use
             id="use45765"
             x="418.315"
             y="156.78799"
             width="744.09448"
             height="1052.3622"
             xlink:href="#textext-551570c7-15" />
        </g>
      </g>
    </g>
  </g>
</svg>
