<?xml version="1.0" encoding="UTF-8" standalone="no"?>
<!-- Created with Inkscape (http://www.inkscape.org/) -->

<svg
   xmlns:dc="http://purl.org/dc/elements/1.1/"
   xmlns:cc="http://creativecommons.org/ns#"
   xmlns:rdf="http://www.w3.org/1999/02/22-rdf-syntax-ns#"
   xmlns:svg="http://www.w3.org/2000/svg"
   xmlns="http://www.w3.org/2000/svg"
   xmlns:xlink="http://www.w3.org/1999/xlink"
   version="1.1"
   width="501.34631"
   height="43.858261"
   id="svg46358">
  <defs
     id="defs46360" />
  <metadata
     id="metadata46363">
    <rdf:RDF>
      <cc:Work
         rdf:about="">
        <dc:format>image/svg+xml</dc:format>
        <dc:type
           rdf:resource="http://purl.org/dc/dcmitype/StillImage" />
        <dc:title></dc:title>
      </cc:Work>
    </rdf:RDF>
  </metadata>
  <g
     transform="translate(-123.61256,-430.43305)"
     id="layer1">
    <g
       transform="matrix(2,0,0,2,-414.54442,180.84356)"
       id="g31847">
      <defs
         id="defs31849">
        <g
           id="g31851">
          <symbol
             id="textext-ed799640-0"
             style="overflow:visible">
            <path
               d="m 5.90625,-0.625 c 0.140625,0.21875 0.53125,0.609375 0.640625,0.609375 0.09375,0 0.09375,-0.078125 0.09375,-0.21875 l 0,-1.734375 c 0,-0.390625 0.03125,-0.4375 0.6875,-0.4375 l 0,-0.3125 c -0.375,0 -0.921875,0.03125 -1.21875,0.03125 -0.390625,0 -1.25,0 -1.609375,-0.03125 l 0,0.3125 0.328125,0 C 5.71875,-2.40625 5.75,-2.296875 5.75,-1.9375 l 0,0.640625 c 0,1.125 -1.265625,1.203125 -1.546875,1.203125 -0.640625,0 -2.625,-0.34375 -2.625,-3.3125 0,-2.984375 1.96875,-3.3125 2.5625,-3.3125 1.078125,0 1.984375,0.890625 2.171875,2.359375 0.03125,0.140625 0.03125,0.171875 0.171875,0.171875 0.15625,0 0.15625,-0.03125 0.15625,-0.234375 l 0,-2.359375 c 0,-0.171875 0,-0.25 -0.109375,-0.25 -0.046875,0 -0.078125,0 -0.15625,0.125 l -0.5,0.734375 C 5.546875,-6.484375 5.015625,-7.03125 4.03125,-7.03125 c -1.859375,0 -3.46875,1.578125 -3.46875,3.625 0,2.046875 1.59375,3.625 3.484375,3.625 0.734375,0 1.53125,-0.265625 1.859375,-0.84375 z m 0,0"
               id="path31854"
               style="stroke:none" />
          </symbol>
          <symbol
             id="textext-ed799640-1"
             style="overflow:visible">
            <path
               d="m 3.296875,2.390625 c 0,-0.03125 0,-0.046875 -0.171875,-0.21875 C 1.890625,0.921875 1.5625,-0.96875 1.5625,-2.5 c 0,-1.734375 0.375,-3.46875 1.609375,-4.703125 0.125,-0.125 0.125,-0.140625 0.125,-0.171875 0,-0.078125 -0.03125,-0.109375 -0.09375,-0.109375 -0.109375,0 -1,0.6875 -1.59375,1.953125 -0.5,1.09375 -0.625,2.203125 -0.625,3.03125 0,0.78125 0.109375,1.984375 0.65625,3.125 C 2.25,1.84375 3.09375,2.5 3.203125,2.5 c 0.0625,0 0.09375,-0.03125 0.09375,-0.109375 z m 0,0"
               id="path31857"
               style="stroke:none" />
          </symbol>
          <symbol
             id="textext-ed799640-2"
             style="overflow:visible">
            <path
               d="m 1.90625,-3.765625 c 0,-0.296875 -0.234375,-0.53125 -0.515625,-0.53125 -0.296875,0 -0.53125,0.234375 -0.53125,0.53125 0,0.28125 0.234375,0.53125 0.53125,0.53125 0.28125,0 0.515625,-0.25 0.515625,-0.53125 z m -0.1875,3.65625 c 0,0.28125 0,1.0625 -0.625,1.796875 -0.078125,0.078125 -0.078125,0.09375 -0.078125,0.125 0,0.078125 0.046875,0.109375 0.09375,0.109375 0.109375,0 0.828125,-0.796875 0.828125,-1.953125 0,-0.28125 -0.015625,-1.03125 -0.546875,-1.03125 -0.359375,0 -0.53125,0.28125 -0.53125,0.53125 C 0.859375,-0.265625 1.03125,0 1.390625,0 1.4375,0 1.453125,0 1.46875,-0.015625 c 0.0625,0 0.171875,-0.03125 0.25,-0.09375 z m 0,0"
               id="path31860"
               style="stroke:none" />
          </symbol>
          <symbol
             id="textext-ed799640-3"
             style="overflow:visible">
            <path
               d="m 2.875,-2.5 c 0,-0.765625 -0.109375,-1.96875 -0.65625,-3.109375 -0.59375,-1.21875 -1.453125,-1.875 -1.546875,-1.875 -0.0625,0 -0.109375,0.046875 -0.109375,0.109375 0,0.03125 0,0.046875 0.1875,0.234375 0.984375,0.984375 1.546875,2.5625 1.546875,4.640625 0,1.71875 -0.359375,3.46875 -1.59375,4.71875 C 0.5625,2.34375 0.5625,2.359375 0.5625,2.390625 0.5625,2.453125 0.609375,2.5 0.671875,2.5 0.765625,2.5 1.671875,1.8125 2.25,0.546875 2.765625,-0.546875 2.875,-1.65625 2.875,-2.5 z m 0,0"
               id="path31863"
               style="stroke:none" />
          </symbol>
          <symbol
             id="textext-ed799640-4"
             style="overflow:visible">
            <path
               d="m 6.84375,-3.265625 c 0.15625,0 0.34375,0 0.34375,-0.1875 C 7.1875,-3.65625 7,-3.65625 6.859375,-3.65625 l -5.96875,0 c -0.140625,0 -0.328125,0 -0.328125,0.203125 0,0.1875 0.1875,0.1875 0.328125,0.1875 z m 0.015625,1.9375 c 0.140625,0 0.328125,0 0.328125,-0.203125 0,-0.1875 -0.1875,-0.1875 -0.34375,-0.1875 l -5.953125,0 c -0.140625,0 -0.328125,0 -0.328125,0.1875 0,0.203125 0.1875,0.203125 0.328125,0.203125 z m 0,0"
               id="path31866"
               style="stroke:none" />
          </symbol>
          <symbol
             id="textext-ed799640-5"
             style="overflow:visible">
            <path
               d="m 4.078125,-2.296875 2.78125,0 C 7,-2.296875 7.1875,-2.296875 7.1875,-2.5 7.1875,-2.6875 7,-2.6875 6.859375,-2.6875 l -2.78125,0 0,-2.796875 c 0,-0.140625 0,-0.328125 -0.203125,-0.328125 -0.203125,0 -0.203125,0.1875 -0.203125,0.328125 l 0,2.796875 -2.78125,0 c -0.140625,0 -0.328125,0 -0.328125,0.1875 0,0.203125 0.1875,0.203125 0.328125,0.203125 l 2.78125,0 0,2.796875 c 0,0.140625 0,0.328125 0.203125,0.328125 0.203125,0 0.203125,-0.1875 0.203125,-0.328125 z m 0,0"
               id="path31869"
               style="stroke:none" />
          </symbol>
          <symbol
             id="textext-ed799640-6"
             style="overflow:visible">
            <path
               d="M 3.328125,-3.015625 C 3.390625,-3.265625 3.625,-4.1875 4.3125,-4.1875 c 0.046875,0 0.296875,0 0.5,0.125 C 4.53125,-4 4.34375,-3.765625 4.34375,-3.515625 c 0,0.15625 0.109375,0.34375 0.375,0.34375 0.21875,0 0.53125,-0.171875 0.53125,-0.578125 0,-0.515625 -0.578125,-0.65625 -0.921875,-0.65625 -0.578125,0 -0.921875,0.53125 -1.046875,0.75 -0.25,-0.65625 -0.78125,-0.75 -1.078125,-0.75 -1.03125,0 -1.609375,1.28125 -1.609375,1.53125 0,0.109375 0.109375,0.109375 0.125,0.109375 0.078125,0 0.109375,-0.03125 0.125,-0.109375 0.34375,-1.0625 1,-1.3125 1.34375,-1.3125 0.1875,0 0.53125,0.09375 0.53125,0.671875 0,0.3125 -0.171875,0.96875 -0.53125,2.375 -0.15625,0.609375 -0.515625,1.03125 -0.953125,1.03125 -0.0625,0 -0.28125,0 -0.5,-0.125 0.25,-0.0625 0.46875,-0.265625 0.46875,-0.546875 0,-0.265625 -0.21875,-0.34375 -0.359375,-0.34375 -0.3125,0 -0.546875,0.25 -0.546875,0.578125 0,0.453125 0.484375,0.65625 0.921875,0.65625 0.671875,0 1.03125,-0.703125 1.046875,-0.75 0.125,0.359375 0.484375,0.75 1.078125,0.75 1.03125,0 1.59375,-1.28125 1.59375,-1.53125 0,-0.109375 -0.078125,-0.109375 -0.109375,-0.109375 -0.09375,0 -0.109375,0.046875 -0.140625,0.109375 -0.328125,1.078125 -1,1.3125 -1.3125,1.3125 -0.390625,0 -0.546875,-0.3125 -0.546875,-0.65625 0,-0.21875 0.046875,-0.4375 0.15625,-0.875 z m 0,0"
               id="path31872"
               style="stroke:none" />
          </symbol>
          <symbol
             id="textext-ed799640-7"
             style="overflow:visible">
            <path
               d="m 2.03125,-0.015625 c 0,-0.65625 -0.25,-1.046875 -0.640625,-1.046875 -0.328125,0 -0.53125,0.25 -0.53125,0.53125 C 0.859375,-0.265625 1.0625,0 1.390625,0 1.5,0 1.640625,-0.046875 1.734375,-0.125 1.765625,-0.15625 1.78125,-0.15625 1.78125,-0.15625 c 0.015625,0 0.015625,0 0.015625,0.140625 0,0.75 -0.34375,1.34375 -0.671875,1.671875 -0.109375,0.109375 -0.109375,0.125 -0.109375,0.15625 0,0.078125 0.046875,0.109375 0.09375,0.109375 0.109375,0 0.921875,-0.765625 0.921875,-1.9375 z m 0,0"
               id="path31875"
               style="stroke:none" />
          </symbol>
          <symbol
             id="textext-ed799640-8"
             style="overflow:visible">
            <path
               d="m 4.84375,-3.796875 c 0.046875,-0.140625 0.046875,-0.15625 0.046875,-0.234375 0,-0.171875 -0.140625,-0.265625 -0.296875,-0.265625 -0.09375,0 -0.25,0.0625 -0.34375,0.203125 -0.015625,0.0625 -0.109375,0.359375 -0.140625,0.546875 -0.078125,0.25 -0.140625,0.53125 -0.203125,0.796875 l -0.453125,1.796875 c -0.03125,0.140625 -0.46875,0.84375 -1.125,0.84375 -0.5,0 -0.609375,-0.4375 -0.609375,-0.8125 C 1.71875,-1.375 1.890625,-2 2.21875,-2.875 2.375,-3.28125 2.421875,-3.390625 2.421875,-3.59375 c 0,-0.4375 -0.3125,-0.8125 -0.8125,-0.8125 -0.953125,0 -1.3125,1.453125 -1.3125,1.53125 0,0.109375 0.09375,0.109375 0.109375,0.109375 0.109375,0 0.109375,-0.03125 0.15625,-0.1875 0.28125,-0.9375 0.671875,-1.234375 1.015625,-1.234375 0.078125,0 0.25,0 0.25,0.3125 0,0.25 -0.109375,0.515625 -0.171875,0.703125 -0.40625,1.0625 -0.578125,1.625 -0.578125,2.09375 0,0.890625 0.625,1.1875 1.21875,1.1875 0.390625,0 0.71875,-0.171875 1,-0.453125 -0.125,0.515625 -0.25,1.015625 -0.640625,1.546875 -0.265625,0.328125 -0.640625,0.625 -1.09375,0.625 -0.140625,0 -0.59375,-0.03125 -0.765625,-0.421875 0.15625,0 0.296875,0 0.421875,-0.125 C 1.328125,1.203125 1.421875,1.0625 1.421875,0.875 1.421875,0.5625 1.15625,0.53125 1.0625,0.53125 0.828125,0.53125 0.5,0.6875 0.5,1.171875 c 0,0.5 0.4375,0.875 1.0625,0.875 1.015625,0 2.046875,-0.90625 2.328125,-2.03125 z m 0,0"
               id="path31878"
               style="stroke:none" />
          </symbol>
          <symbol
             id="textext-ed799640-9"
             style="overflow:visible">
            <path
               d="M 1.59375,-0.78125 C 1.5,-0.390625 1.46875,-0.3125 0.6875,-0.3125 c -0.171875,0 -0.265625,0 -0.265625,0.203125 C 0.421875,0 0.515625,0 0.6875,0 L 4.25,0 C 5.828125,0 7,-1.171875 7,-2.15625 7,-2.875 6.421875,-3.453125 5.453125,-3.5625 6.484375,-3.75 7.53125,-4.484375 7.53125,-5.4375 c 0,-0.734375 -0.65625,-1.375 -1.84375,-1.375 l -3.359375,0 c -0.1875,0 -0.28125,0 -0.28125,0.203125 0,0.109375 0.09375,0.109375 0.28125,0.109375 0.015625,0 0.203125,0 0.375,0.015625 0.171875,0.03125 0.265625,0.03125 0.265625,0.171875 0,0.03125 -0.015625,0.0625 -0.03125,0.1875 z m 1.5,-2.875 0.625,-2.46875 C 3.8125,-6.46875 3.828125,-6.5 4.25,-6.5 l 1.296875,0 c 0.875,0 1.078125,0.59375 1.078125,1.03125 0,0.875 -0.859375,1.8125 -2.0625,1.8125 z m -0.4375,3.34375 c -0.140625,0 -0.15625,0 -0.21875,0 -0.109375,-0.015625 -0.140625,-0.03125 -0.140625,-0.109375 0,-0.03125 0,-0.046875 0.0625,-0.21875 l 0.6875,-2.78125 1.875,0 c 0.953125,0 1.15625,0.734375 1.15625,1.15625 C 6.078125,-1.28125 5.1875,-0.3125 4,-0.3125 z m 0,0"
               id="path31881"
               style="stroke:none" />
          </symbol>
          <symbol
             id="textext-ed799640-10"
             style="overflow:visible">
            <path
               d="M 1.78125,-1.140625 C 1.390625,-0.484375 1,-0.34375 0.5625,-0.3125 0.4375,-0.296875 0.34375,-0.296875 0.34375,-0.109375 0.34375,-0.046875 0.40625,0 0.484375,0 0.75,0 1.0625,-0.03125 1.328125,-0.03125 c 0.34375,0 0.6875,0.03125 1,0.03125 0.0625,0 0.1875,0 0.1875,-0.1875 0,-0.109375 -0.078125,-0.125 -0.15625,-0.125 -0.21875,-0.015625 -0.46875,-0.09375 -0.46875,-0.34375 0,-0.125 0.0625,-0.234375 0.140625,-0.375 0.078125,-0.109375 0.078125,-0.109375 0.765625,-1.265625 l 2.5,0 c 0.015625,0.203125 0.15625,1.5625 0.15625,1.65625 0,0.296875 -0.515625,0.328125 -0.71875,0.328125 C 4.59375,-0.3125 4.5,-0.3125 4.5,-0.109375 4.5,0 4.609375,0 4.640625,0 5.046875,0 5.46875,-0.03125 5.875,-0.03125 6.125,-0.03125 6.765625,0 7.015625,0 7.0625,0 7.1875,0 7.1875,-0.203125 7.1875,-0.3125 7.09375,-0.3125 6.953125,-0.3125 6.34375,-0.3125 6.34375,-0.375 6.3125,-0.671875 l -0.609375,-6.21875 c -0.015625,-0.203125 -0.015625,-0.25 -0.1875,-0.25 -0.15625,0 -0.203125,0.078125 -0.265625,0.171875 z M 2.984375,-2.609375 4.9375,-5.90625 5.265625,-2.609375 z m 0,0"
               id="path31884"
               style="stroke:none" />
          </symbol>
          <symbol
             id="textext-ed799640-11"
             style="overflow:visible">
            <path
               d="m 5.15625,-3.71875 c 0.140625,0 0.5,0 0.5,-0.34375 0,-0.234375 -0.21875,-0.234375 -0.390625,-0.234375 l -2.28125,0 c -1.5,0 -2.609375,1.640625 -2.609375,2.828125 0,0.875 0.59375,1.578125 1.5,1.578125 1.171875,0 2.5,-1.203125 2.5,-2.734375 0,-0.171875 0,-0.65625 -0.3125,-1.09375 z M 1.890625,-0.109375 C 1.390625,-0.109375 1,-0.46875 1,-1.1875 c 0,-0.296875 0.109375,-1.109375 0.46875,-1.703125 0.421875,-0.6875 1.015625,-0.828125 1.359375,-0.828125 0.828125,0 0.90625,0.65625 0.90625,0.96875 0,0.46875 -0.203125,1.28125 -0.53125,1.796875 -0.390625,0.578125 -0.9375,0.84375 -1.3125,0.84375 z m 0,0"
               id="path31887"
               style="stroke:none" />
          </symbol>
          <symbol
             id="textext-ed799640-12"
             style="overflow:visible">
            <path
               d="m 1.859375,-2.296875 c 0.296875,0 1.03125,-0.03125 1.53125,-0.234375 0.703125,-0.296875 0.75,-0.890625 0.75,-1.03125 0,-0.4375 -0.375,-0.84375 -1.0625,-0.84375 -1.109375,0 -2.625,0.96875 -2.625,2.71875 0,1.015625 0.59375,1.796875 1.578125,1.796875 1.421875,0 2.25,-1.0625 2.25,-1.171875 0,-0.0625 -0.046875,-0.140625 -0.109375,-0.140625 -0.0625,0 -0.078125,0.03125 -0.140625,0.109375 -0.78125,0.984375 -1.875,0.984375 -1.984375,0.984375 -0.78125,0 -0.875,-0.84375 -0.875,-1.15625 0,-0.125 0.015625,-0.421875 0.15625,-1.03125 z m -0.46875,-0.21875 C 1.78125,-4.03125 2.8125,-4.1875 3.078125,-4.1875 c 0.453125,0 0.734375,0.296875 0.734375,0.625 0,1.046875 -1.59375,1.046875 -2.015625,1.046875 z m 0,0"
               id="path31890"
               style="stroke:none" />
          </symbol>
          <symbol
             id="textext-ed799640-13"
             style="overflow:visible">
            <path
               d="M 3.59375,-2.21875 C 3.59375,-2.984375 3.5,-3.546875 3.1875,-4.03125 2.96875,-4.34375 2.53125,-4.625 1.984375,-4.625 c -1.625,0 -1.625,1.90625 -1.625,2.40625 0,0.5 0,2.359375 1.625,2.359375 1.609375,0 1.609375,-1.859375 1.609375,-2.359375 z M 1.984375,-0.0625 c -0.328125,0 -0.75,-0.1875 -0.890625,-0.75 C 1,-1.21875 1,-1.796875 1,-2.3125 1,-2.828125 1,-3.359375 1.09375,-3.734375 1.25,-4.28125 1.6875,-4.4375 1.984375,-4.4375 c 0.375,0 0.734375,0.234375 0.859375,0.640625 0.109375,0.375 0.125,0.875 0.125,1.484375 0,0.515625 0,1.03125 -0.09375,1.46875 -0.140625,0.640625 -0.609375,0.78125 -0.890625,0.78125 z m 0,0"
               id="path31893"
               style="stroke:none" />
          </symbol>
          <symbol
             id="textext-ed799640-14"
             style="overflow:visible">
            <path
               d="m 3.21875,-1.578125 2.140625,0 c 0.09375,0 0.25,0 0.25,-0.15625 0,-0.1875 -0.15625,-0.1875 -0.25,-0.1875 l -2.140625,0 0,-2.140625 c 0,-0.078125 0,-0.25 -0.15625,-0.25 -0.171875,0 -0.171875,0.15625 -0.171875,0.25 l 0,2.140625 -2.140625,0 c -0.09375,0 -0.265625,0 -0.265625,0.171875 0,0.171875 0.15625,0.171875 0.265625,0.171875 l 2.140625,0 0,2.140625 c 0,0.09375 0,0.265625 0.15625,0.265625 0.171875,0 0.171875,-0.171875 0.171875,-0.265625 z m 0,0"
               id="path31896"
               style="stroke:none" />
          </symbol>
          <symbol
             id="textext-ed799640-15"
             style="overflow:visible">
            <path
               d="M 1.734375,-0.734375 C 1.671875,-0.5 1.4375,-0.125 1.078125,-0.125 c -0.015625,0 -0.234375,0 -0.375,-0.09375 0.28125,-0.09375 0.3125,-0.34375 0.3125,-0.390625 0,-0.15625 -0.125,-0.25 -0.28125,-0.25 -0.203125,0 -0.40625,0.15625 -0.40625,0.421875 0,0.34375 0.390625,0.5 0.734375,0.5 0.328125,0 0.609375,-0.1875 0.78125,-0.484375 C 2.015625,-0.0625 2.390625,0.0625 2.671875,0.0625 c 0.8125,0 1.234375,-0.859375 1.234375,-1.0625 0,-0.09375 -0.09375,-0.09375 -0.109375,-0.09375 -0.109375,0 -0.109375,0.046875 -0.140625,0.125 -0.140625,0.484375 -0.5625,0.84375 -0.953125,0.84375 -0.28125,0 -0.421875,-0.1875 -0.421875,-0.453125 0,-0.1875 0.171875,-0.8125 0.359375,-1.59375 C 2.78125,-2.703125 3.09375,-2.875 3.328125,-2.875 c 0.015625,0 0.21875,0 0.375,0.09375 -0.21875,0.0625 -0.3125,0.265625 -0.3125,0.390625 0,0.140625 0.125,0.25 0.28125,0.25 0.15625,0 0.390625,-0.125 0.390625,-0.421875 0,-0.390625 -0.453125,-0.515625 -0.71875,-0.515625 -0.359375,0 -0.640625,0.234375 -0.78125,0.5 -0.125,-0.28125 -0.453125,-0.5 -0.84375,-0.5 C 0.9375,-3.078125 0.5,-2.21875 0.5,-2 c 0,0.078125 0.09375,0.078125 0.109375,0.078125 0.09375,0 0.09375,-0.015625 0.140625,-0.109375 C 0.921875,-2.578125 1.359375,-2.875 1.703125,-2.875 1.9375,-2.875 2.125,-2.75 2.125,-2.421875 2.125,-2.28125 2.03125,-1.9375 1.96875,-1.6875 z m 0,0"
               id="path31899"
               style="stroke:none" />
          </symbol>
          <symbol
             id="textext-ed799640-16"
             style="overflow:visible">
            <path
               d="M 3.875,-2.625 C 3.90625,-2.71875 3.90625,-2.734375 3.90625,-2.78125 3.90625,-2.921875 3.796875,-3 3.671875,-3 3.59375,-3 3.46875,-2.96875 3.390625,-2.84375 3.359375,-2.796875 3.3125,-2.578125 3.28125,-2.4375 L 3.125,-1.859375 c -0.03125,0.171875 -0.25,1.046875 -0.28125,1.125 0,0 -0.3125,0.609375 -0.84375,0.609375 -0.484375,0 -0.484375,-0.453125 -0.484375,-0.578125 0,-0.375 0.15625,-0.8125 0.375,-1.359375 C 1.96875,-2.28125 2,-2.359375 2,-2.484375 2,-2.8125 1.71875,-3.078125 1.34375,-3.078125 0.640625,-3.078125 0.328125,-2.125 0.328125,-2 c 0,0.078125 0.09375,0.078125 0.125,0.078125 0.09375,0 0.09375,-0.03125 0.125,-0.109375 C 0.75,-2.609375 1.046875,-2.875 1.328125,-2.875 1.4375,-2.875 1.5,-2.796875 1.5,-2.640625 c 0,0.171875 -0.0625,0.3125 -0.09375,0.40625 C 1.0625,-1.375 1,-1.125 1,-0.8125 1,-0.703125 1,-0.375 1.265625,-0.140625 1.484375,0.03125 1.78125,0.0625 1.96875,0.0625 2.25,0.0625 2.5,-0.03125 2.71875,-0.25 2.640625,0.140625 2.5625,0.4375 2.265625,0.78125 2.078125,1 1.796875,1.21875 1.421875,1.21875 c -0.046875,0 -0.375,0 -0.515625,-0.21875 0.375,-0.046875 0.375,-0.375 0.375,-0.390625 0,-0.21875 -0.203125,-0.265625 -0.265625,-0.265625 -0.171875,0 -0.40625,0.140625 -0.40625,0.46875 0,0.34375 0.328125,0.609375 0.828125,0.609375 C 2.140625,1.421875 3,0.875 3.21875,0 z m 0,0"
               id="path31902"
               style="stroke:none" />
          </symbol>
          <symbol
             id="textext-ed799640-17"
             style="overflow:visible">
            <path
               d="M 4.171875,-2.5 6.15625,-4.484375 c 0.109375,-0.109375 0.125,-0.125 0.125,-0.203125 0,-0.125 -0.09375,-0.203125 -0.203125,-0.203125 -0.078125,0 -0.109375,0.03125 -0.203125,0.125 l -2,2 -2,-2 c -0.109375,-0.109375 -0.125,-0.125 -0.203125,-0.125 -0.109375,0 -0.203125,0.078125 -0.203125,0.203125 0,0.078125 0.03125,0.109375 0.125,0.203125 L 3.578125,-2.5 1.59375,-0.515625 c -0.09375,0.109375 -0.125,0.171875 -0.125,0.21875 0,0.125 0.09375,0.203125 0.203125,0.203125 0.078125,0 0.09375,-0.015625 0.203125,-0.125 l 2,-2 1.984375,2 c 0.109375,0.09375 0.15625,0.125 0.21875,0.125 0.125,0 0.203125,-0.078125 0.203125,-0.203125 0,-0.078125 -0.015625,-0.09375 -0.125,-0.203125 z m 0,0"
               id="path31905"
               style="stroke:none" />
          </symbol>
          <symbol
             id="textext-ed799640-18"
             style="overflow:visible">
            <path
               d="m 5.203125,-1.578125 c 0.09375,0 0.265625,0 0.265625,-0.15625 0,-0.1875 -0.171875,-0.1875 -0.265625,-0.1875 l -4.1875,0 c -0.109375,0 -0.265625,0 -0.265625,0.1875 0,0.15625 0.171875,0.15625 0.265625,0.15625 z m 0,0"
               id="path31908"
               style="stroke:none" />
          </symbol>
          <symbol
             id="textext-ed799640-19"
             style="overflow:visible">
            <path
               d="M 5.140625,17.421875 C 5.15625,17.4375 5.25,17.53125 5.25,17.53125 l 0.21875,0 c 0.03125,0 0.109375,0 0.109375,-0.09375 0,-0.04687 -0.015625,-0.0625 -0.03125,-0.09375 -0.359375,-0.359375 -0.90625,-0.90625 -1.515625,-2 -1.078125,-1.921875 -1.484375,-4.375 -1.484375,-6.765625 0,-4.4375 1.265625,-7.03125 3,-8.796875 0.03125,-0.03125 0.03125,-0.0625 0.03125,-0.078125 0,-0.109375 -0.0625,-0.109375 -0.1875,-0.109375 -0.125,0 -0.140625,0 -0.234375,0.09375 C 4.203125,0.5 3.140625,1.890625 2.453125,3.984375 2.03125,5.296875 1.796875,6.90625 1.796875,8.5625 c 0,2.359375 0.421875,5.03125 1.984375,7.34375 0.28125,0.390625 0.640625,0.796875 0.640625,0.8125 C 4.53125,16.84375 4.671875,17 4.75,17.0625 z m 0,0"
               id="path31911"
               style="stroke:none" />
          </symbol>
          <symbol
             id="textext-ed799640-20"
             style="overflow:visible">
            <path
               d="m 4.140625,8.5625 c 0,-2.859375 -0.65625,-5.90625 -2.625,-8.140625 C 1.375,0.265625 1,-0.125 0.765625,-0.34375 c -0.0625,-0.0625 -0.09375,-0.0625 -0.21875,-0.0625 -0.09375,0 -0.1875,0 -0.1875,0.109375 0,0.03125 0.046875,0.078125 0.0625,0.09375 0.328125,0.359375 0.875,0.90625 1.484375,2 1.078125,1.90625 1.484375,4.375 1.484375,6.765625 0,4.328125 -1.203125,6.96875 -2.984375,8.796875 C 0.375,17.375 0.359375,17.40625 0.359375,17.4375 c 0,0.09375 0.09375,0.09375 0.1875,0.09375 0.125,0 0.15625,0 0.234375,-0.07813 0.953125,-0.8125 2.015625,-2.203125 2.703125,-4.296875 0.4375,-1.375 0.65625,-2.984375 0.65625,-4.59375 z m 0,0"
               id="path31914"
               style="stroke:none" />
          </symbol>
          <symbol
             id="textext-ed799640-21"
             style="overflow:visible">
            <path
               d="m 2.203125,-3.625 c 0,0 0.015625,-0.015625 0.015625,-0.046875 0,-0.015625 -0.015625,-0.0625 -0.09375,-0.0625 -0.09375,0 -1.375,0.796875 -1.375,2.484375 0,1.6875 1.28125,2.5 1.375,2.5 0.078125,0 0.09375,-0.046875 0.09375,-0.078125 C 2.21875,1.140625 2.1875,1.125 2.171875,1.109375 1.296875,0.40625 1.125,-0.609375 1.125,-1.25 c 0,-1.21875 0.5625,-2.015625 1.078125,-2.375 z m 0,0"
               id="path31917"
               style="stroke:none" />
          </symbol>
          <symbol
             id="textext-ed799640-22"
             style="overflow:visible">
            <path
               d="M 3,-1.59375 C 3,-1.953125 3,-3.3125 1.6875,-3.3125 c -1.296875,0 -1.296875,1.359375 -1.296875,1.71875 0,0.359375 0,1.703125 1.296875,1.703125 C 3,0.109375 3,-1.234375 3,-1.59375 z M 1.6875,-0.0625 C 1.515625,-0.0625 1.09375,-0.125 0.96875,-0.625 0.890625,-0.890625 0.890625,-1.25 0.890625,-1.65625 c 0,-0.375 0,-0.71875 0.078125,-1 0.125,-0.421875 0.515625,-0.5 0.71875,-0.5 0.375,0 0.640625,0.1875 0.734375,0.546875 C 2.5,-2.359375 2.5,-1.953125 2.5,-1.65625 c 0,0.34375 0,0.75 -0.078125,1.046875 C 2.296875,-0.125 1.890625,-0.0625 1.6875,-0.0625 z m 0,0"
               id="path31920"
               style="stroke:none" />
          </symbol>
          <symbol
             id="textext-ed799640-23"
             style="overflow:visible">
            <path
               d="m 1.953125,-1.25 c 0,-1.6875 -1.28125,-2.484375 -1.390625,-2.484375 -0.078125,0 -0.078125,0.0625 -0.078125,0.0625 0,0.015625 0,0.03125 0.03125,0.0625 0.75,0.59375 1.046875,1.46875 1.046875,2.359375 0,0.453125 -0.078125,0.921875 -0.25,1.328125 C 1.078125,0.640625 0.75,0.921875 0.515625,1.125 0.5,1.125 0.484375,1.15625 0.484375,1.171875 c 0,0.015625 0,0.078125 0.078125,0.078125 0.109375,0 1.390625,-0.796875 1.390625,-2.5 z m 0,0"
               id="path31923"
               style="stroke:none" />
          </symbol>
          <symbol
             id="textext-ed799640-24"
             style="overflow:visible">
            <path
               d="m 2.9375,-0.96875 -0.21875,0 c 0,0.09375 -0.0625,0.40625 -0.140625,0.453125 -0.03125,0.03125 -0.453125,0.03125 -0.53125,0.03125 l -0.96875,0 C 1.40625,-0.71875 1.765625,-1 2.0625,-1.203125 c 0.453125,-0.3125 0.875,-0.59375 0.875,-1.125 0,-0.640625 -0.609375,-0.984375 -1.3125,-0.984375 -0.671875,0 -1.171875,0.375 -1.171875,0.875 0,0.25 0.21875,0.296875 0.296875,0.296875 0.125,0 0.28125,-0.09375 0.28125,-0.296875 0,-0.171875 -0.125,-0.28125 -0.28125,-0.28125 0.140625,-0.234375 0.4375,-0.375 0.765625,-0.375 0.484375,0 0.890625,0.28125 0.890625,0.765625 0,0.421875 -0.296875,0.75 -0.671875,1.0625 l -1.21875,1.03125 C 0.46875,-0.1875 0.453125,-0.1875 0.453125,-0.15625 l 0,0.15625 2.3125,0 z m 0,0"
               id="path31926"
               style="stroke:none" />
          </symbol>
          <symbol
             id="textext-ed799640-25"
             style="overflow:visible">
            <path
               d="m 3.09375,-1.953125 c -0.234375,0.0625 -0.234375,0.28125 -0.234375,0.296875 0,0.078125 0.0625,0.203125 0.234375,0.203125 0.140625,0 0.3125,-0.125 0.3125,-0.34375 0,-0.296875 -0.328125,-0.40625 -0.59375,-0.40625 -0.328125,0 -0.546875,0.203125 -0.640625,0.34375 -0.15625,-0.28125 -0.484375,-0.34375 -0.65625,-0.34375 -0.625,0 -0.984375,0.59375 -0.984375,0.765625 0,0.078125 0.078125,0.078125 0.109375,0.078125 0.046875,0 0.078125,0 0.109375,-0.0625 0.140625,-0.484375 0.546875,-0.609375 0.734375,-0.609375 0.171875,0 0.359375,0.0625 0.359375,0.328125 0,0.125 -0.09375,0.46875 -0.265625,1.140625 -0.0625,0.28125 -0.296875,0.453125 -0.515625,0.453125 -0.03125,0 -0.171875,0 -0.296875,-0.078125 0.21875,-0.09375 0.21875,-0.28125 0.21875,-0.296875 0,-0.140625 -0.109375,-0.203125 -0.21875,-0.203125 -0.125,0 -0.296875,0.09375 -0.296875,0.328125 0,0.3125 0.328125,0.421875 0.59375,0.421875 0.265625,0 0.5,-0.171875 0.609375,-0.34375 C 1.875,0.015625 2.1875,0.0625 2.34375,0.0625 c 0.625,0 0.984375,-0.59375 0.984375,-0.78125 0,-0.0625 -0.078125,-0.0625 -0.109375,-0.0625 -0.078125,0 -0.09375,0.03125 -0.109375,0.0625 C 2.96875,-0.265625 2.59375,-0.109375 2.375,-0.109375 c -0.15625,0 -0.359375,-0.0625 -0.359375,-0.34375 0,-0.0625 0,-0.09375 0.03125,-0.265625 0.09375,-0.34375 0.21875,-0.890625 0.265625,-0.984375 0.0625,-0.125 0.234375,-0.328125 0.484375,-0.328125 0.015625,0 0.1875,0 0.296875,0.078125 z m 0,0"
               id="path31929"
               style="stroke:none" />
          </symbol>
          <symbol
             id="textext-ed799640-26"
             style="overflow:visible">
            <path
               d="m 3.4375,-1.765625 c 0.09375,0 0.140625,0 0.203125,-0.046875 0.03125,-0.03125 0.078125,-0.09375 0.078125,-0.171875 0,-0.15625 -0.140625,-0.15625 -0.21875,-0.15625 l -1.46875,0 c -0.84375,0 -1.515625,0.75 -1.515625,1.34375 0,0.515625 0.4375,0.859375 0.984375,0.859375 0.71875,0 1.46875,-0.5625 1.46875,-1.3125 0,-0.203125 -0.046875,-0.375 -0.15625,-0.515625 z m -1.921875,1.65625 c -0.234375,0 -0.59375,-0.09375 -0.59375,-0.5625 0,-0.15625 0.0625,-1.09375 1.03125,-1.09375 0.375,0 0.609375,0.140625 0.609375,0.484375 0,0.5 -0.390625,1.171875 -1.046875,1.171875 z m 0,0"
               id="path31932"
               style="stroke:none" />
          </symbol>
          <symbol
             id="textext-ed799640-27"
             style="overflow:visible">
            <path
               d="M 3.296875,-1.859375 C 3.3125,-1.9375 3.3125,-1.96875 3.3125,-1.96875 c 0,-0.109375 -0.078125,-0.171875 -0.171875,-0.171875 -0.203125,0 -0.25,0.171875 -0.28125,0.296875 L 2.75,-1.421875 c -0.0625,0.28125 -0.078125,0.359375 -0.140625,0.625 -0.03125,0.0625 -0.046875,0.15625 -0.0625,0.1875 0,0.03125 -0.265625,0.5 -0.6875,0.5 -0.234375,0 -0.40625,-0.109375 -0.40625,-0.4375 0,-0.265625 0.140625,-0.640625 0.28125,-1 0.03125,-0.046875 0.0625,-0.140625 0.0625,-0.21875 0,-0.25 -0.234375,-0.4375 -0.546875,-0.4375 -0.515625,0 -0.796875,0.640625 -0.796875,0.765625 0,0.078125 0.078125,0.078125 0.109375,0.078125 0.078125,0 0.078125,-0.03125 0.109375,-0.09375 0.109375,-0.34375 0.34375,-0.578125 0.5625,-0.578125 0.09375,0 0.15625,0.046875 0.15625,0.1875 0,0.09375 -0.03125,0.171875 -0.0625,0.265625 -0.25,0.59375 -0.296875,0.765625 -0.296875,0.96875 0,0.546875 0.46875,0.671875 0.796875,0.671875 0.28125,0 0.5,-0.140625 0.625,-0.25 -0.078125,0.28125 -0.125,0.5 -0.359375,0.734375 -0.125,0.109375 -0.359375,0.3125 -0.65625,0.3125 -0.09375,0 -0.28125,-0.015625 -0.390625,-0.125 0.21875,-0.0625 0.25,-0.25 0.25,-0.296875 0,-0.140625 -0.125,-0.203125 -0.21875,-0.203125 -0.15625,0 -0.328125,0.109375 -0.328125,0.34375 0,0.25 0.265625,0.4375 0.6875,0.4375 C 2,1.015625 2.671875,0.640625 2.828125,0 z m 0,0"
               id="path31935"
               style="stroke:none" />
          </symbol>
          <symbol
             id="textext-ed799640-28"
             style="overflow:visible">
            <path
               d="m 4.40625,-1.109375 c 0.0625,0 0.1875,0 0.1875,-0.140625 0,-0.140625 -0.125,-0.140625 -0.1875,-0.140625 l -3.40625,0 c -0.0625,0 -0.203125,0 -0.203125,0.140625 0,0.140625 0.140625,0.140625 0.203125,0.140625 z m 0,0"
               id="path31938"
               style="stroke:none" />
          </symbol>
        </g>
      </defs>
      <g
         id="textext-ed799640-29">
        <g
           id="g31941"
           style="fill:#000000;fill-opacity:1">
          <use
             id="use31943"
             x="268.51599"
             y="143.808"
             width="744.09448"
             height="1052.3622"
             xlink:href="#textext-ed799640-0" />
          <use
             id="use31945"
             x="276.33365"
             y="143.808"
             width="744.09448"
             height="1052.3622"
             xlink:href="#textext-ed799640-1" />
        </g>
        <g
           id="g31947"
           style="fill:#000000;fill-opacity:1">
          <use
             id="use31949"
             x="280.20901"
             y="143.808"
             width="744.09448"
             height="1052.3622"
             xlink:href="#textext-ed799640-6" />
          <use
             id="use31951"
             x="285.90262"
             y="143.808"
             width="744.09448"
             height="1052.3622"
             xlink:href="#textext-ed799640-7" />
        </g>
        <g
           id="g31953"
           style="fill:#000000;fill-opacity:1">
          <use
             id="use31955"
             x="290.33398"
             y="143.808"
             width="744.09448"
             height="1052.3622"
             xlink:href="#textext-ed799640-8" />
        </g>
        <g
           id="g31957"
           style="fill:#000000;fill-opacity:1">
          <use
             id="use31959"
             x="295.57199"
             y="143.808"
             width="744.09448"
             height="1052.3622"
             xlink:href="#textext-ed799640-2" />
        </g>
        <g
           id="g31961"
           style="fill:#000000;fill-opacity:1">
          <use
             id="use31963"
             x="300"
             y="143.808"
             width="744.09448"
             height="1052.3622"
             xlink:href="#textext-ed799640-9" />
        </g>
        <g
           id="g31965"
           style="fill:#000000;fill-opacity:1">
          <use
             id="use31967"
             x="308.05475"
             y="143.808"
             width="744.09448"
             height="1052.3622"
             xlink:href="#textext-ed799640-7" />
        </g>
        <g
           id="g31969"
           style="fill:#000000;fill-opacity:1">
          <use
             id="use31971"
             x="312.48611"
             y="143.808"
             width="744.09448"
             height="1052.3622"
             xlink:href="#textext-ed799640-10" />
          <use
             id="use31973"
             x="319.95807"
             y="143.808"
             width="744.09448"
             height="1052.3622"
             xlink:href="#textext-ed799640-7" />
        </g>
        <g
           id="g31975"
           style="fill:#000000;fill-opacity:1">
          <use
             id="use31977"
             x="324.37949"
             y="143.808"
             width="744.09448"
             height="1052.3622"
             xlink:href="#textext-ed799640-6" />
        </g>
        <g
           id="g31979"
           style="fill:#000000;fill-opacity:1">
          <use
             id="use31981"
             x="330.078"
             y="145.302"
             width="744.09448"
             height="1052.3622"
             xlink:href="#textext-ed799640-13" />
        </g>
        <g
           id="g31983"
           style="fill:#000000;fill-opacity:1">
          <use
             id="use31985"
             x="334.547"
             y="143.808"
             width="744.09448"
             height="1052.3622"
             xlink:href="#textext-ed799640-7" />
        </g>
        <g
           id="g31987"
           style="fill:#000000;fill-opacity:1">
          <use
             id="use31989"
             x="338.97836"
             y="143.808"
             width="744.09448"
             height="1052.3622"
             xlink:href="#textext-ed799640-8" />
        </g>
        <g
           id="g31991"
           style="fill:#000000;fill-opacity:1">
          <use
             id="use31993"
             x="343.85999"
             y="145.302"
             width="744.09448"
             height="1052.3622"
             xlink:href="#textext-ed799640-13" />
        </g>
        <g
           id="g31995"
           style="fill:#000000;fill-opacity:1">
          <use
             id="use31997"
             x="348.32901"
             y="143.808"
             width="744.09448"
             height="1052.3622"
             xlink:href="#textext-ed799640-7" />
        </g>
        <g
           id="g31999"
           style="fill:#000000;fill-opacity:1">
          <use
             id="use32001"
             x="352.76038"
             y="143.808"
             width="744.09448"
             height="1052.3622"
             xlink:href="#textext-ed799640-11" />
        </g>
        <g
           id="g32003"
           style="fill:#000000;fill-opacity:1">
          <use
             id="use32005"
             x="358.45001"
             y="145.302"
             width="744.09448"
             height="1052.3622"
             xlink:href="#textext-ed799640-15" />
        </g>
        <g
           id="g32007"
           style="fill:#000000;fill-opacity:1">
          <use
             id="use32009"
             x="363.466"
             y="143.808"
             width="744.09448"
             height="1052.3622"
             xlink:href="#textext-ed799640-7" />
        </g>
        <g
           id="g32011"
           style="fill:#000000;fill-opacity:1">
          <use
             id="use32013"
             x="367.89737"
             y="143.808"
             width="744.09448"
             height="1052.3622"
             xlink:href="#textext-ed799640-11" />
        </g>
        <g
           id="g32015"
           style="fill:#000000;fill-opacity:1">
          <use
             id="use32017"
             x="373.586"
             y="145.302"
             width="744.09448"
             height="1052.3622"
             xlink:href="#textext-ed799640-16" />
        </g>
        <g
           id="g32019"
           style="fill:#000000;fill-opacity:1">
          <use
             id="use32021"
             x="378.375"
             y="143.808"
             width="744.09448"
             height="1052.3622"
             xlink:href="#textext-ed799640-3" />
        </g>
        <g
           id="g32023"
           style="fill:#000000;fill-opacity:1">
          <use
             id="use32025"
             x="385.01904"
             y="143.808"
             width="744.09448"
             height="1052.3622"
             xlink:href="#textext-ed799640-4" />
        </g>
        <g
           id="g32027"
           style="fill:#000000;fill-opacity:1">
          <use
             id="use32029"
             x="395.53299"
             y="143.808"
             width="744.09448"
             height="1052.3622"
             xlink:href="#textext-ed799640-9" />
        </g>
        <g
           id="g32031"
           style="fill:#000000;fill-opacity:1">
          <use
             id="use32033"
             x="405.80301"
             y="143.808"
             width="744.09448"
             height="1052.3622"
             xlink:href="#textext-ed799640-5" />
        </g>
        <g
           id="g32035"
           style="fill:#000000;fill-opacity:1">
          <use
             id="use32037"
             x="415.76599"
             y="143.808"
             width="744.09448"
             height="1052.3622"
             xlink:href="#textext-ed799640-10" />
        </g>
        <g
           id="g32039"
           style="fill:#000000;fill-opacity:1">
          <use
             id="use32041"
             x="425.452"
             y="143.808"
             width="744.09448"
             height="1052.3622"
             xlink:href="#textext-ed799640-17" />
        </g>
        <g
           id="g32043"
           style="fill:#000000;fill-opacity:1">
          <use
             id="use32045"
             x="435.414"
             y="143.808"
             width="744.09448"
             height="1052.3622"
             xlink:href="#textext-ed799640-12" />
        </g>
        <g
           id="g32047"
           style="fill:#000000;fill-opacity:1">
          <use
             id="use32049"
             x="440.05301"
             y="135.51199"
             width="744.09448"
             height="1052.3622"
             xlink:href="#textext-ed799640-18" />
        </g>
        <g
           id="g32051"
           style="fill:#000000;fill-opacity:1">
          <use
             id="use32053"
             x="446.28"
             y="125.201"
             width="744.09448"
             height="1052.3622"
             xlink:href="#textext-ed799640-19" />
        </g>
        <g
           id="g32055"
           style="fill:#000000;fill-opacity:1">
          <use
             id="use32057"
             x="453.42499"
             y="131.677"
             width="744.09448"
             height="1052.3622"
             xlink:href="#textext-ed799640-21" />
        </g>
        <g
           id="g32059"
           style="fill:#000000;fill-opacity:1">
          <use
             id="use32061"
             x="456.12399"
             y="131.677"
             width="744.09448"
             height="1052.3622"
             xlink:href="#textext-ed799640-25" />
        </g>
        <g
           id="g32063"
           style="fill:#000000;fill-opacity:1">
          <use
             id="use32065"
             x="460.06699"
             y="131.677"
             width="744.09448"
             height="1052.3622"
             xlink:href="#textext-ed799640-28" />
        </g>
        <g
           id="g32067"
           style="fill:#000000;fill-opacity:1">
          <use
             id="use32069"
             x="465.46399"
             y="131.677"
             width="744.09448"
             height="1052.3622"
             xlink:href="#textext-ed799640-25" />
        </g>
        <g
           id="g32071"
           style="fill:#000000;fill-opacity:1">
          <use
             id="use32073"
             x="469.40701"
             y="133.17101"
             width="744.09448"
             height="1052.3622"
             xlink:href="#textext-ed799640-22" />
        </g>
        <g
           id="g32075"
           style="fill:#000000;fill-opacity:1">
          <use
             id="use32077"
             x="473.29501"
             y="131.677"
             width="744.09448"
             height="1052.3622"
             xlink:href="#textext-ed799640-23" />
        </g>
        <g
           id="g32079"
           style="fill:#000000;fill-opacity:1">
          <use
             id="use32081"
             x="475.99399"
             y="129.666"
             width="744.09448"
             height="1052.3622"
             xlink:href="#textext-ed799640-24" />
        </g>
        <path
           d="m 7.8125e-4,-5.3125e-4 26.45703175,0"
           transform="matrix(1,0,0,-1,453.425,133.769)"
           id="path32083"
           style="fill:none;stroke:#000000;stroke-width:0.398;stroke-linecap:butt;stroke-linejoin:miter;stroke-miterlimit:10;stroke-opacity:1" />
        <g
           id="g32085"
           style="fill:#000000;fill-opacity:1">
          <use
             id="use32087"
             x="460.707"
             y="139.29201"
             width="744.09448"
             height="1052.3622"
             xlink:href="#textext-ed799640-24" />
        </g>
        <g
           id="g32089"
           style="fill:#000000;fill-opacity:1">
          <use
             id="use32091"
             x="464.09799"
             y="139.29201"
             width="744.09448"
             height="1052.3622"
             xlink:href="#textext-ed799640-26" />
        </g>
        <g
           id="g32093"
           style="fill:#000000;fill-opacity:1">
          <use
             id="use32095"
             x="468.33701"
             y="137.577"
             width="744.09448"
             height="1052.3622"
             xlink:href="#textext-ed799640-24" />
        </g>
        <g
           id="g32097"
           style="fill:#000000;fill-opacity:1">
          <use
             id="use32099"
             x="468.15799"
             y="141.315"
             width="744.09448"
             height="1052.3622"
             xlink:href="#textext-ed799640-25" />
        </g>
        <g
           id="g32101"
           style="fill:#000000;fill-opacity:1">
          <use
             id="use32103"
             x="481.077"
             y="135.51199"
             width="744.09448"
             height="1052.3622"
             xlink:href="#textext-ed799640-14" />
        </g>
        <g
           id="g32105"
           style="fill:#000000;fill-opacity:1">
          <use
             id="use32107"
             x="488.38901"
             y="131.677"
             width="744.09448"
             height="1052.3622"
             xlink:href="#textext-ed799640-21" />
        </g>
        <g
           id="g32109"
           style="fill:#000000;fill-opacity:1">
          <use
             id="use32111"
             x="491.08701"
             y="131.677"
             width="744.09448"
             height="1052.3622"
             xlink:href="#textext-ed799640-27" />
        </g>
        <g
           id="g32113"
           style="fill:#000000;fill-opacity:1">
          <use
             id="use32115"
             x="494.905"
             y="131.677"
             width="744.09448"
             height="1052.3622"
             xlink:href="#textext-ed799640-28" />
        </g>
        <g
           id="g32117"
           style="fill:#000000;fill-opacity:1">
          <use
             id="use32119"
             x="500.302"
             y="131.677"
             width="744.09448"
             height="1052.3622"
             xlink:href="#textext-ed799640-27" />
        </g>
        <g
           id="g32121"
           style="fill:#000000;fill-opacity:1">
          <use
             id="use32123"
             x="503.94101"
             y="133.17101"
             width="744.09448"
             height="1052.3622"
             xlink:href="#textext-ed799640-22" />
        </g>
        <g
           id="g32125"
           style="fill:#000000;fill-opacity:1">
          <use
             id="use32127"
             x="507.82901"
             y="131.677"
             width="744.09448"
             height="1052.3622"
             xlink:href="#textext-ed799640-23" />
        </g>
        <g
           id="g32129"
           style="fill:#000000;fill-opacity:1">
          <use
             id="use32131"
             x="510.52701"
             y="129.666"
             width="744.09448"
             height="1052.3622"
             xlink:href="#textext-ed799640-24" />
        </g>
        <path
           d="m 0.001625,-5.3125e-4 26.023437,0"
           transform="matrix(1,0,0,-1,488.389,133.769)"
           id="path32133"
           style="fill:none;stroke:#000000;stroke-width:0.398;stroke-linecap:butt;stroke-linejoin:miter;stroke-miterlimit:10;stroke-opacity:1" />
        <g
           id="g32135"
           style="fill:#000000;fill-opacity:1">
          <use
             id="use32137"
             x="495.51901"
             y="139.29201"
             width="744.09448"
             height="1052.3622"
             xlink:href="#textext-ed799640-24" />
        </g>
        <g
           id="g32139"
           style="fill:#000000;fill-opacity:1">
          <use
             id="use32141"
             x="498.909"
             y="139.29201"
             width="744.09448"
             height="1052.3622"
             xlink:href="#textext-ed799640-26" />
        </g>
        <g
           id="g32143"
           style="fill:#000000;fill-opacity:1">
          <use
             id="use32145"
             x="503.14801"
             y="137.577"
             width="744.09448"
             height="1052.3622"
             xlink:href="#textext-ed799640-24" />
        </g>
        <g
           id="g32147"
           style="fill:#000000;fill-opacity:1">
          <use
             id="use32149"
             x="502.97"
             y="141.315"
             width="744.09448"
             height="1052.3622"
             xlink:href="#textext-ed799640-27" />
        </g>
        <g
           id="g32151"
           style="fill:#000000;fill-opacity:1">
          <use
             id="use32153"
             x="515.61102"
             y="125.201"
             width="744.09448"
             height="1052.3622"
             xlink:href="#textext-ed799640-20" />
        </g>
      </g>
    </g>
  </g>
</svg>
