<?xml version="1.0" encoding="UTF-8" standalone="no"?>
<!-- Created with Inkscape (http://www.inkscape.org/) -->

<svg
   xmlns:dc="http://purl.org/dc/elements/1.1/"
   xmlns:cc="http://creativecommons.org/ns#"
   xmlns:rdf="http://www.w3.org/1999/02/22-rdf-syntax-ns#"
   xmlns:svg="http://www.w3.org/2000/svg"
   xmlns="http://www.w3.org/2000/svg"
   xmlns:xlink="http://www.w3.org/1999/xlink"
   version="1.1"
   width="403"
   height="59"
   id="svg7839">
  <defs
     id="defs7841" />
  <metadata
     id="metadata7844">
    <rdf:RDF>
      <cc:Work
         rdf:about="">
        <dc:format>image/svg+xml</dc:format>
        <dc:type
           rdf:resource="http://purl.org/dc/dcmitype/StillImage" />
        <dc:title></dc:title>
      </cc:Work>
    </rdf:RDF>
  </metadata>
  <g
     transform="translate(-29.280307,-488.75558)"
     id="layer1">
    <g
       transform="matrix(2,0,0,2,-558.94955,237.54458)"
       id="g11299">
      <defs
         id="defs11301">
        <g
           id="g11303">
          <symbol
             id="textext-8b95a151-0"
             style="overflow:visible">
            <path
               d="m 0.34375,-6.8125 0,0.3125 0.25,0 c 0.765625,0 0.78125,0.109375 0.78125,0.46875 l 0,5.25 c 0,0.359375 -0.015625,0.46875 -0.78125,0.46875 l -0.25,0 0,0.3125 L 4,0 C 5.671875,0 7.046875,-1.46875 7.046875,-3.34375 7.046875,-5.25 5.703125,-6.8125 4,-6.8125 z m 2.375,6.5 C 2.25,-0.3125 2.234375,-0.375 2.234375,-0.703125 l 0,-5.390625 C 2.234375,-6.4375 2.25,-6.5 2.71875,-6.5 l 1,0 c 0.625,0 1.3125,0.21875 1.8125,0.921875 0.4375,0.59375 0.515625,1.453125 0.515625,2.234375 0,1.09375 -0.1875,1.703125 -0.546875,2.1875 -0.203125,0.265625 -0.765625,0.84375 -1.765625,0.84375 z m 0,0"
               id="path11306"
               style="stroke:none" />
          </symbol>
          <symbol
             id="textext-8b95a151-1"
             style="overflow:visible">
            <path
               d="m 3.296875,2.390625 c 0,-0.03125 0,-0.046875 -0.171875,-0.21875 C 1.890625,0.921875 1.5625,-0.96875 1.5625,-2.5 c 0,-1.734375 0.375,-3.46875 1.609375,-4.703125 0.125,-0.125 0.125,-0.140625 0.125,-0.171875 0,-0.078125 -0.03125,-0.109375 -0.09375,-0.109375 -0.109375,0 -1,0.6875 -1.59375,1.953125 -0.5,1.09375 -0.625,2.203125 -0.625,3.03125 0,0.78125 0.109375,1.984375 0.65625,3.125 C 2.25,1.84375 3.09375,2.5 3.203125,2.5 c 0.0625,0 0.09375,-0.03125 0.09375,-0.109375 z m 0,0"
               id="path11309"
               style="stroke:none" />
          </symbol>
          <symbol
             id="textext-8b95a151-2"
             style="overflow:visible">
            <path
               d="m 1.90625,-3.765625 c 0,-0.296875 -0.234375,-0.53125 -0.515625,-0.53125 -0.296875,0 -0.53125,0.234375 -0.53125,0.53125 0,0.28125 0.234375,0.53125 0.53125,0.53125 0.28125,0 0.515625,-0.25 0.515625,-0.53125 z m -0.1875,3.65625 c 0,0.28125 0,1.0625 -0.625,1.796875 -0.078125,0.078125 -0.078125,0.09375 -0.078125,0.125 0,0.078125 0.046875,0.109375 0.09375,0.109375 0.109375,0 0.828125,-0.796875 0.828125,-1.953125 0,-0.28125 -0.015625,-1.03125 -0.546875,-1.03125 -0.359375,0 -0.53125,0.28125 -0.53125,0.53125 C 0.859375,-0.265625 1.03125,0 1.390625,0 1.4375,0 1.453125,0 1.46875,-0.015625 c 0.0625,0 0.171875,-0.03125 0.25,-0.09375 z m 0,0"
               id="path11312"
               style="stroke:none" />
          </symbol>
          <symbol
             id="textext-8b95a151-3"
             style="overflow:visible">
            <path
               d="m 2.875,-2.5 c 0,-0.765625 -0.109375,-1.96875 -0.65625,-3.109375 -0.59375,-1.21875 -1.453125,-1.875 -1.546875,-1.875 -0.0625,0 -0.109375,0.046875 -0.109375,0.109375 0,0.03125 0,0.046875 0.1875,0.234375 0.984375,0.984375 1.546875,2.5625 1.546875,4.640625 0,1.71875 -0.359375,3.46875 -1.59375,4.71875 C 0.5625,2.34375 0.5625,2.359375 0.5625,2.390625 0.5625,2.453125 0.609375,2.5 0.671875,2.5 0.765625,2.5 1.671875,1.8125 2.25,0.546875 2.765625,-0.546875 2.875,-1.65625 2.875,-2.5 z m 0,0"
               id="path11315"
               style="stroke:none" />
          </symbol>
          <symbol
             id="textext-8b95a151-4"
             style="overflow:visible">
            <path
               d="m 6.84375,-3.265625 c 0.15625,0 0.34375,0 0.34375,-0.1875 C 7.1875,-3.65625 7,-3.65625 6.859375,-3.65625 l -5.96875,0 c -0.140625,0 -0.328125,0 -0.328125,0.203125 0,0.1875 0.1875,0.1875 0.328125,0.1875 z m 0.015625,1.9375 c 0.140625,0 0.328125,0 0.328125,-0.203125 0,-0.1875 -0.1875,-0.1875 -0.34375,-0.1875 l -5.953125,0 c -0.140625,0 -0.328125,0 -0.328125,0.1875 0,0.203125 0.1875,0.203125 0.328125,0.203125 z m 0,0"
               id="path11318"
               style="stroke:none" />
          </symbol>
          <symbol
             id="textext-8b95a151-5"
             style="overflow:visible">
            <path
               d="M 3.328125,-3.015625 C 3.390625,-3.265625 3.625,-4.1875 4.3125,-4.1875 c 0.046875,0 0.296875,0 0.5,0.125 C 4.53125,-4 4.34375,-3.765625 4.34375,-3.515625 c 0,0.15625 0.109375,0.34375 0.375,0.34375 0.21875,0 0.53125,-0.171875 0.53125,-0.578125 0,-0.515625 -0.578125,-0.65625 -0.921875,-0.65625 -0.578125,0 -0.921875,0.53125 -1.046875,0.75 -0.25,-0.65625 -0.78125,-0.75 -1.078125,-0.75 -1.03125,0 -1.609375,1.28125 -1.609375,1.53125 0,0.109375 0.109375,0.109375 0.125,0.109375 0.078125,0 0.109375,-0.03125 0.125,-0.109375 0.34375,-1.0625 1,-1.3125 1.34375,-1.3125 0.1875,0 0.53125,0.09375 0.53125,0.671875 0,0.3125 -0.171875,0.96875 -0.53125,2.375 -0.15625,0.609375 -0.515625,1.03125 -0.953125,1.03125 -0.0625,0 -0.28125,0 -0.5,-0.125 0.25,-0.0625 0.46875,-0.265625 0.46875,-0.546875 0,-0.265625 -0.21875,-0.34375 -0.359375,-0.34375 -0.3125,0 -0.546875,0.25 -0.546875,0.578125 0,0.453125 0.484375,0.65625 0.921875,0.65625 0.671875,0 1.03125,-0.703125 1.046875,-0.75 0.125,0.359375 0.484375,0.75 1.078125,0.75 1.03125,0 1.59375,-1.28125 1.59375,-1.53125 0,-0.109375 -0.078125,-0.109375 -0.109375,-0.109375 -0.09375,0 -0.109375,0.046875 -0.140625,0.109375 -0.328125,1.078125 -1,1.3125 -1.3125,1.3125 -0.390625,0 -0.546875,-0.3125 -0.546875,-0.65625 0,-0.21875 0.046875,-0.4375 0.15625,-0.875 z m 0,0"
               id="path11321"
               style="stroke:none" />
          </symbol>
          <symbol
             id="textext-8b95a151-6"
             style="overflow:visible">
            <path
               d="m 1.90625,-0.53125 c 0,-0.28125 -0.234375,-0.53125 -0.515625,-0.53125 -0.296875,0 -0.53125,0.25 -0.53125,0.53125 C 0.859375,-0.234375 1.09375,0 1.390625,0 1.671875,0 1.90625,-0.234375 1.90625,-0.53125 z m 0,0"
               id="path11324"
               style="stroke:none" />
          </symbol>
          <symbol
             id="textext-8b95a151-7"
             style="overflow:visible">
            <path
               d="m 2.03125,-0.015625 c 0,-0.65625 -0.25,-1.046875 -0.640625,-1.046875 -0.328125,0 -0.53125,0.25 -0.53125,0.53125 C 0.859375,-0.265625 1.0625,0 1.390625,0 1.5,0 1.640625,-0.046875 1.734375,-0.125 1.765625,-0.15625 1.78125,-0.15625 1.78125,-0.15625 c 0.015625,0 0.015625,0 0.015625,0.140625 0,0.75 -0.34375,1.34375 -0.671875,1.671875 -0.109375,0.109375 -0.109375,0.125 -0.109375,0.15625 0,0.078125 0.046875,0.109375 0.09375,0.109375 0.109375,0 0.921875,-0.765625 0.921875,-1.9375 z m 0,0"
               id="path11327"
               style="stroke:none" />
          </symbol>
          <symbol
             id="textext-8b95a151-8"
             style="overflow:visible">
            <path
               d="m 4.84375,-3.796875 c 0.046875,-0.140625 0.046875,-0.15625 0.046875,-0.234375 0,-0.171875 -0.140625,-0.265625 -0.296875,-0.265625 -0.09375,0 -0.25,0.0625 -0.34375,0.203125 -0.015625,0.0625 -0.109375,0.359375 -0.140625,0.546875 -0.078125,0.25 -0.140625,0.53125 -0.203125,0.796875 l -0.453125,1.796875 c -0.03125,0.140625 -0.46875,0.84375 -1.125,0.84375 -0.5,0 -0.609375,-0.4375 -0.609375,-0.8125 C 1.71875,-1.375 1.890625,-2 2.21875,-2.875 2.375,-3.28125 2.421875,-3.390625 2.421875,-3.59375 c 0,-0.4375 -0.3125,-0.8125 -0.8125,-0.8125 -0.953125,0 -1.3125,1.453125 -1.3125,1.53125 0,0.109375 0.09375,0.109375 0.109375,0.109375 0.109375,0 0.109375,-0.03125 0.15625,-0.1875 0.28125,-0.9375 0.671875,-1.234375 1.015625,-1.234375 0.078125,0 0.25,0 0.25,0.3125 0,0.25 -0.109375,0.515625 -0.171875,0.703125 -0.40625,1.0625 -0.578125,1.625 -0.578125,2.09375 0,0.890625 0.625,1.1875 1.21875,1.1875 0.390625,0 0.71875,-0.171875 1,-0.453125 -0.125,0.515625 -0.25,1.015625 -0.640625,1.546875 -0.265625,0.328125 -0.640625,0.625 -1.09375,0.625 -0.140625,0 -0.59375,-0.03125 -0.765625,-0.421875 0.15625,0 0.296875,0 0.421875,-0.125 C 1.328125,1.203125 1.421875,1.0625 1.421875,0.875 1.421875,0.5625 1.15625,0.53125 1.0625,0.53125 0.828125,0.53125 0.5,0.6875 0.5,1.171875 c 0,0.5 0.4375,0.875 1.0625,0.875 1.015625,0 2.046875,-0.90625 2.328125,-2.03125 z m 0,0"
               id="path11330"
               style="stroke:none" />
          </symbol>
          <symbol
             id="textext-8b95a151-9"
             style="overflow:visible">
            <path
               d="m 3.65625,-3.984375 0.859375,0 c 0.203125,0 0.296875,0 0.296875,-0.203125 0,-0.109375 -0.09375,-0.109375 -0.265625,-0.109375 l -0.828125,0 C 3.828125,-4.875 3.8125,-4.859375 3.921875,-5.4375 c 0.046875,-0.203125 0.1875,-0.90625 0.25,-1.03125 0.078125,-0.1875 0.25,-0.34375 0.46875,-0.34375 0.03125,0 0.296875,0 0.484375,0.1875 -0.4375,0.03125 -0.546875,0.390625 -0.546875,0.53125 0,0.234375 0.1875,0.359375 0.375,0.359375 C 5.21875,-5.734375 5.5,-5.96875 5.5,-6.34375 c 0,-0.453125 -0.453125,-0.6875 -0.859375,-0.6875 -0.34375,0 -0.96875,0.1875 -1.265625,1.171875 -0.0625,0.203125 -0.09375,0.3125 -0.328125,1.5625 l -0.6875,0 c -0.203125,0 -0.3125,0 -0.3125,0.1875 0,0.125 0.09375,0.125 0.28125,0.125 l 0.65625,0 -0.734375,3.9375 c -0.1875,0.96875 -0.359375,1.875 -0.875,1.875 -0.046875,0 -0.28125,0 -0.484375,-0.1875 C 1.359375,1.609375 1.453125,1.25 1.453125,1.109375 1.453125,0.875 1.265625,0.75 1.078125,0.75 0.8125,0.75 0.53125,0.984375 0.53125,1.359375 c 0,0.4375 0.4375,0.6875 0.84375,0.6875 0.546875,0 0.953125,-0.59375 1.125,-0.96875 0.328125,-0.625 0.546875,-1.828125 0.5625,-1.90625 z m 0,0"
               id="path11333"
               style="stroke:none" />
          </symbol>
          <symbol
             id="textext-8b95a151-10"
             style="overflow:visible">
            <path
               d="M 3.59375,-2.21875 C 3.59375,-2.984375 3.5,-3.546875 3.1875,-4.03125 2.96875,-4.34375 2.53125,-4.625 1.984375,-4.625 c -1.625,0 -1.625,1.90625 -1.625,2.40625 0,0.5 0,2.359375 1.625,2.359375 1.609375,0 1.609375,-1.859375 1.609375,-2.359375 z M 1.984375,-0.0625 c -0.328125,0 -0.75,-0.1875 -0.890625,-0.75 C 1,-1.21875 1,-1.796875 1,-2.3125 1,-2.828125 1,-3.359375 1.09375,-3.734375 1.25,-4.28125 1.6875,-4.4375 1.984375,-4.4375 c 0.375,0 0.734375,0.234375 0.859375,0.640625 0.109375,0.375 0.125,0.875 0.125,1.484375 0,0.515625 0,1.03125 -0.09375,1.46875 -0.140625,0.640625 -0.609375,0.78125 -0.890625,0.78125 z m 0,0"
               id="path11336"
               style="stroke:none" />
          </symbol>
          <symbol
             id="textext-8b95a151-11"
             style="overflow:visible">
            <path
               d="m 2.328125,-4.4375 c 0,-0.1875 0,-0.1875 -0.203125,-0.1875 -0.453125,0.4375 -1.078125,0.4375 -1.359375,0.4375 l 0,0.25 c 0.15625,0 0.625,0 1,-0.1875 l 0,3.546875 c 0,0.234375 0,0.328125 -0.6875,0.328125 l -0.265625,0 0,0.25 c 0.125,0 0.984375,-0.03125 1.234375,-0.03125 0.21875,0 1.09375,0.03125 1.25,0.03125 l 0,-0.25 -0.265625,0 c -0.703125,0 -0.703125,-0.09375 -0.703125,-0.328125 z m 0,0"
               id="path11339"
               style="stroke:none" />
          </symbol>
          <symbol
             id="textext-8b95a151-12"
             style="overflow:visible">
            <path
               d="m 5.359375,-2.34375 c 0.09375,0 0.25,0 0.25,-0.171875 0,-0.171875 -0.15625,-0.171875 -0.25,-0.171875 l -4.609375,0 c -0.09375,0 -0.265625,0 -0.265625,0.171875 0,0.171875 0.15625,0.171875 0.265625,0.171875 z m 0,1.53125 c 0.09375,0 0.25,0 0.25,-0.15625 0,-0.1875 -0.15625,-0.1875 -0.25,-0.1875 l -4.609375,0 c -0.109375,0 -0.265625,0 -0.265625,0.1875 0,0.15625 0.171875,0.15625 0.265625,0.15625 z m 0,0"
               id="path11342"
               style="stroke:none" />
          </symbol>
          <symbol
             id="textext-8b95a151-13"
             style="overflow:visible">
            <path
               d="M 5.8125,-4 C 5.875,-4.265625 6,-4.5 6.546875,-4.515625 c 0.03125,0 0.140625,0 0.140625,-0.140625 0,-0.046875 -0.03125,-0.109375 -0.109375,-0.109375 -0.21875,0 -0.484375,0.03125 -0.71875,0.03125 -0.171875,0 -0.5625,-0.03125 -0.734375,-0.03125 -0.03125,0 -0.140625,0 -0.140625,0.15625 0,0.09375 0.09375,0.09375 0.15625,0.09375 0.328125,0.015625 0.4375,0.125 0.4375,0.296875 0,0.046875 0,0.09375 -0.03125,0.15625 l -0.75,3.046875 -1.765625,-3.625 c -0.0625,-0.125 -0.078125,-0.125 -0.25,-0.125 l -0.953125,0 c -0.125,0 -0.21875,0 -0.21875,0.15625 0,0.09375 0.078125,0.09375 0.234375,0.09375 0.140625,0 0.296875,0.015625 0.4375,0.046875 L 1.359375,-0.75 c -0.0625,0.265625 -0.1875,0.484375 -0.734375,0.5 -0.046875,0 -0.140625,0 -0.140625,0.140625 C 0.484375,-0.03125 0.53125,0 0.578125,0 0.8125,0 1.078125,-0.03125 1.3125,-0.03125 1.484375,-0.03125 1.875,0 2.046875,0 2.125,0 2.1875,-0.03125 2.1875,-0.140625 2.1875,-0.25 2.109375,-0.25 2.03125,-0.25 c -0.4375,-0.015625 -0.4375,-0.203125 -0.4375,-0.296875 0,-0.03125 0,-0.0625 0.015625,-0.171875 l 0.90625,-3.5625 2.03125,4.15625 C 4.59375,0 4.625,0 4.703125,0 4.8125,0 4.8125,-0.015625 4.84375,-0.140625 z m 0,0"
               id="path11345"
               style="stroke:none" />
          </symbol>
          <symbol
             id="textext-8b95a151-14"
             style="overflow:visible">
            <path
               d="m 2.265625,-4.359375 c 0,-0.109375 -0.09375,-0.265625 -0.28125,-0.265625 -0.1875,0 -0.390625,0.1875 -0.390625,0.390625 0,0.109375 0.078125,0.265625 0.28125,0.265625 0.1875,0 0.390625,-0.203125 0.390625,-0.390625 z M 0.84375,-0.8125 c -0.03125,0.09375 -0.0625,0.171875 -0.0625,0.296875 0,0.328125 0.265625,0.578125 0.65625,0.578125 0.6875,0 1,-0.953125 1,-1.0625 0,-0.09375 -0.09375,-0.09375 -0.109375,-0.09375 -0.09375,0 -0.109375,0.046875 -0.140625,0.125 -0.15625,0.5625 -0.453125,0.84375 -0.734375,0.84375 -0.140625,0 -0.171875,-0.09375 -0.171875,-0.25 0,-0.15625 0.046875,-0.28125 0.109375,-0.4375 C 1.46875,-1 1.546875,-1.1875 1.609375,-1.375 1.671875,-1.546875 1.9375,-2.171875 1.953125,-2.265625 1.984375,-2.328125 2,-2.40625 2,-2.484375 2,-2.8125 1.71875,-3.078125 1.34375,-3.078125 0.640625,-3.078125 0.328125,-2.125 0.328125,-2 c 0,0.078125 0.09375,0.078125 0.125,0.078125 0.09375,0 0.09375,-0.03125 0.125,-0.109375 C 0.75,-2.625 1.0625,-2.875 1.3125,-2.875 c 0.109375,0 0.171875,0.046875 0.171875,0.234375 0,0.171875 -0.03125,0.265625 -0.203125,0.703125 z m 0,0"
               id="path11348"
               style="stroke:none" />
          </symbol>
          <symbol
             id="textext-8b95a151-15"
             style="overflow:visible">
            <path
               d="m 5.203125,-1.578125 c 0.09375,0 0.265625,0 0.265625,-0.15625 0,-0.1875 -0.171875,-0.1875 -0.265625,-0.1875 l -4.1875,0 c -0.109375,0 -0.265625,0 -0.265625,0.1875 0,0.15625 0.171875,0.15625 0.265625,0.15625 z m 0,0"
               id="path11351"
               style="stroke:none" />
          </symbol>
          <symbol
             id="textext-8b95a151-16"
             style="overflow:visible">
            <path
               d="m 3.734375,-0.765625 c 0,0.3125 0,0.765625 1.03125,0.765625 L 5.25,0 C 5.4375,0 5.5625,0 5.5625,-0.234375 5.5625,-0.46875 5.4375,-0.46875 5.296875,-0.46875 4.6875,-0.484375 4.6875,-0.609375 4.6875,-0.84375 l 0,-2.140625 c 0,-0.890625 -0.703125,-1.53125 -2.1875,-1.53125 -0.5625,0 -1.78125,0.046875 -1.78125,0.921875 0,0.4375 0.34375,0.625 0.609375,0.625 0.3125,0 0.640625,-0.21875 0.640625,-0.625 0,-0.296875 -0.1875,-0.46875 -0.21875,-0.5 0.28125,-0.046875 0.59375,-0.0625 0.71875,-0.0625 0.734375,0 1.09375,0.421875 1.09375,1.171875 l 0,0.34375 c -0.71875,0.03125 -3.25,0.125 -3.25,1.5625 0,0.953125 1.25,1.140625 1.9375,1.140625 0.796875,0 1.265625,-0.40625 1.484375,-0.828125 z m -0.171875,-1.5625 0,0.9375 c 0,0.96875 -0.921875,1.09375 -1.171875,1.09375 -0.5,0 -0.90625,-0.34375 -0.90625,-0.796875 0,-1.0625 1.578125,-1.203125 2.078125,-1.234375 z m 0,0"
               id="path11354"
               style="stroke:none" />
          </symbol>
          <symbol
             id="textext-8b95a151-17"
             style="overflow:visible">
            <path
               d="m 12.625,13.953125 1.203125,-3.1875 -0.25,0 c -0.390625,1.03125 -1.453125,1.71875 -2.59375,2.015625 -0.203125,0.04687 -1.1875,0.3125 -3.09375,0.3125 l -6.015625,0 5.078125,-5.953125 C 7.015625,7.0625 7.03125,7.03125 7.03125,6.984375 c 0,-0.03125 0,-0.0625 -0.0625,-0.15625 l -4.640625,-6.34375 5.453125,0 c 1.34375,0 2.25,0.140625 2.34375,0.15625 0.53125,0.078125 1.40625,0.25 2.1875,0.75 0.25,0.15625 0.921875,0.609375 1.265625,1.40625 l 0.25,0 L 12.625,0 0.84375,0 c -0.234375,0 -0.25,0.015625 -0.28125,0.0625 0,0.03125 0,0.234375 0,0.34375 l 5.265625,7.203125 -5.15625,6.0625 C 0.5625,13.78125 0.5625,13.84375 0.5625,13.84375 c 0,0.109375 0.09375,0.109375 0.28125,0.109375 z m 0,0"
               id="path11357"
               style="stroke:none" />
          </symbol>
          <symbol
             id="textext-8b95a151-18"
             style="overflow:visible">
            <path
               d="m 1.578125,-7.140625 c 0,-0.140625 0,-0.34375 -0.1875,-0.34375 -0.203125,0 -0.203125,0.203125 -0.203125,0.34375 l 0,9.296875 c 0,0.140625 0,0.34375 0.203125,0.34375 0.1875,0 0.1875,-0.203125 0.1875,-0.34375 z m 0,0"
               id="path11360"
               style="stroke:none" />
          </symbol>
          <symbol
             id="textext-8b95a151-19"
             style="overflow:visible">
            <path
               d="m 6.59375,-2.296875 c 0.140625,0 0.328125,0 0.328125,-0.203125 0,-0.1875 -0.1875,-0.1875 -0.328125,-0.1875 l -5.4375,0 c -0.140625,0 -0.328125,0 -0.328125,0.1875 0,0.203125 0.1875,0.203125 0.328125,0.203125 z m 0,0"
               id="path11363"
               style="stroke:none" />
          </symbol>
        </g>
      </defs>
      <g
         id="textext-8b95a151-20">
        <g
           id="g11366"
           style="fill:#000000;fill-opacity:1">
          <use
             id="use11368"
             x="293.88199"
             y="143.017"
             width="744.09448"
             height="1052.3622"
             xlink:href="#textext-8b95a151-0" />
          <use
             id="use11370"
             x="301.49243"
             y="143.017"
             width="744.09448"
             height="1052.3622"
             xlink:href="#textext-8b95a151-1" />
        </g>
        <g
           id="g11372"
           style="fill:#000000;fill-opacity:1">
          <use
             id="use11374"
             x="305.366"
             y="143.017"
             width="744.09448"
             height="1052.3622"
             xlink:href="#textext-8b95a151-5" />
        </g>
        <g
           id="g11376"
           style="fill:#000000;fill-opacity:1">
          <use
             id="use11378"
             x="311.06"
             y="144.51199"
             width="744.09448"
             height="1052.3622"
             xlink:href="#textext-8b95a151-10" />
        </g>
        <g
           id="g11380"
           style="fill:#000000;fill-opacity:1">
          <use
             id="use11382"
             x="315.53"
             y="143.017"
             width="744.09448"
             height="1052.3622"
             xlink:href="#textext-8b95a151-6" />
          <use
             id="use11384"
             x="318.29761"
             y="143.017"
             width="744.09448"
             height="1052.3622"
             xlink:href="#textext-8b95a151-6" />
          <use
             id="use11386"
             x="321.06522"
             y="143.017"
             width="744.09448"
             height="1052.3622"
             xlink:href="#textext-8b95a151-6" />
          <use
             id="use11388"
             x="323.83282"
             y="143.017"
             width="744.09448"
             height="1052.3622"
             xlink:href="#textext-8b95a151-5" />
        </g>
        <g
           id="g11390"
           style="fill:#000000;fill-opacity:1">
          <use
             id="use11392"
             x="329.526"
             y="144.51199"
             width="744.09448"
             height="1052.3622"
             xlink:href="#textext-8b95a151-13" />
        </g>
        <g
           id="g11394"
           style="fill:#000000;fill-opacity:1">
          <use
             id="use11396"
             x="336.58401"
             y="144.51199"
             width="744.09448"
             height="1052.3622"
             xlink:href="#textext-8b95a151-15" />
        </g>
        <g
           id="g11398"
           style="fill:#000000;fill-opacity:1">
          <use
             id="use11400"
             x="342.811"
             y="144.51199"
             width="744.09448"
             height="1052.3622"
             xlink:href="#textext-8b95a151-11" />
        </g>
        <g
           id="g11402"
           style="fill:#000000;fill-opacity:1">
          <use
             id="use11404"
             x="347.28"
             y="143.017"
             width="744.09448"
             height="1052.3622"
             xlink:href="#textext-8b95a151-7" />
        </g>
        <g
           id="g11406"
           style="fill:#000000;fill-opacity:1">
          <use
             id="use11408"
             x="351.71136"
             y="143.017"
             width="744.09448"
             height="1052.3622"
             xlink:href="#textext-8b95a151-8" />
        </g>
        <g
           id="g11410"
           style="fill:#000000;fill-opacity:1">
          <use
             id="use11412"
             x="356.59201"
             y="144.51199"
             width="744.09448"
             height="1052.3622"
             xlink:href="#textext-8b95a151-10" />
        </g>
        <g
           id="g11414"
           style="fill:#000000;fill-opacity:1">
          <use
             id="use11416"
             x="361.06201"
             y="143.017"
             width="744.09448"
             height="1052.3622"
             xlink:href="#textext-8b95a151-6" />
          <use
             id="use11418"
             x="363.82962"
             y="143.017"
             width="744.09448"
             height="1052.3622"
             xlink:href="#textext-8b95a151-6" />
          <use
             id="use11420"
             x="366.59723"
             y="143.017"
             width="744.09448"
             height="1052.3622"
             xlink:href="#textext-8b95a151-6" />
          <use
             id="use11422"
             x="369.36484"
             y="143.017"
             width="744.09448"
             height="1052.3622"
             xlink:href="#textext-8b95a151-8" />
        </g>
        <g
           id="g11424"
           style="fill:#000000;fill-opacity:1">
          <use
             id="use11426"
             x="374.24899"
             y="144.51199"
             width="744.09448"
             height="1052.3622"
             xlink:href="#textext-8b95a151-13" />
        </g>
        <g
           id="g11428"
           style="fill:#000000;fill-opacity:1">
          <use
             id="use11430"
             x="381.30701"
             y="144.51199"
             width="744.09448"
             height="1052.3622"
             xlink:href="#textext-8b95a151-15" />
        </g>
        <g
           id="g11432"
           style="fill:#000000;fill-opacity:1">
          <use
             id="use11434"
             x="387.534"
             y="144.51199"
             width="744.09448"
             height="1052.3622"
             xlink:href="#textext-8b95a151-11" />
        </g>
        <g
           id="g11436"
           style="fill:#000000;fill-opacity:1">
          <use
             id="use11438"
             x="392.00299"
             y="143.017"
             width="744.09448"
             height="1052.3622"
             xlink:href="#textext-8b95a151-2" />
        </g>
        <g
           id="g11440"
           style="fill:#000000;fill-opacity:1">
          <use
             id="use11442"
             x="396.431"
             y="143.017"
             width="744.09448"
             height="1052.3622"
             xlink:href="#textext-8b95a151-16" />
        </g>
        <g
           id="g11444"
           style="fill:#000000;fill-opacity:1">
          <use
             id="use11446"
             x="402"
             y="143.017"
             width="744.09448"
             height="1052.3622"
             xlink:href="#textext-8b95a151-3" />
        </g>
        <g
           id="g11448"
           style="fill:#000000;fill-opacity:1">
          <use
             id="use11450"
             x="408.64404"
             y="143.017"
             width="744.09448"
             height="1052.3622"
             xlink:href="#textext-8b95a151-4" />
        </g>
        <g
           id="g11452"
           style="fill:#000000;fill-opacity:1">
          <use
             id="use11454"
             x="419.15799"
             y="130.564"
             width="744.09448"
             height="1052.3622"
             xlink:href="#textext-8b95a151-13" />
        </g>
        <g
           id="g11456"
           style="fill:#000000;fill-opacity:1">
          <use
             id="use11458"
             x="426.216"
             y="130.564"
             width="744.09448"
             height="1052.3622"
             xlink:href="#textext-8b95a151-15" />
        </g>
        <g
           id="g11460"
           style="fill:#000000;fill-opacity:1">
          <use
             id="use11462"
             x="432.44299"
             y="130.564"
             width="744.09448"
             height="1052.3622"
             xlink:href="#textext-8b95a151-11" />
        </g>
        <g
           id="g11464"
           style="fill:#000000;fill-opacity:1">
          <use
             id="use11466"
             x="420.591"
             y="133.55299"
             width="744.09448"
             height="1052.3622"
             xlink:href="#textext-8b95a151-17" />
        </g>
        <g
           id="g11468"
           style="fill:#000000;fill-opacity:1">
          <use
             id="use11470"
             x="421.33301"
             y="154.772"
             width="744.09448"
             height="1052.3622"
             xlink:href="#textext-8b95a151-14" />
        </g>
        <g
           id="g11472"
           style="fill:#000000;fill-opacity:1">
          <use
             id="use11474"
             x="424.15201"
             y="154.772"
             width="744.09448"
             height="1052.3622"
             xlink:href="#textext-8b95a151-12" />
          <use
             id="use11476"
             x="430.26804"
             y="154.772"
             width="744.09448"
             height="1052.3622"
             xlink:href="#textext-8b95a151-10" />
        </g>
        <g
           id="g11478"
           style="fill:#000000;fill-opacity:1">
          <use
             id="use11480"
             x="438.07401"
             y="143.017"
             width="744.09448"
             height="1052.3622"
             xlink:href="#textext-8b95a151-18" />
        </g>
        <g
           id="g11482"
           style="fill:#000000;fill-opacity:1">
          <use
             id="use11484"
             x="440.84201"
             y="143.017"
             width="744.09448"
             height="1052.3622"
             xlink:href="#textext-8b95a151-9" />
        </g>
        <g
           id="g11486"
           style="fill:#000000;fill-opacity:1">
          <use
             id="use11488"
             x="446.79199"
             y="143.017"
             width="744.09448"
             height="1052.3622"
             xlink:href="#textext-8b95a151-1" />
        </g>
        <g
           id="g11490"
           style="fill:#000000;fill-opacity:1">
          <use
             id="use11492"
             x="450.66599"
             y="143.017"
             width="744.09448"
             height="1052.3622"
             xlink:href="#textext-8b95a151-5" />
        </g>
        <g
           id="g11494"
           style="fill:#000000;fill-opacity:1">
          <use
             id="use11496"
             x="456.35999"
             y="144.51199"
             width="744.09448"
             height="1052.3622"
             xlink:href="#textext-8b95a151-14" />
        </g>
        <g
           id="g11498"
           style="fill:#000000;fill-opacity:1">
          <use
             id="use11500"
             x="459.677"
             y="143.017"
             width="744.09448"
             height="1052.3622"
             xlink:href="#textext-8b95a151-7" />
        </g>
        <g
           id="g11502"
           style="fill:#000000;fill-opacity:1">
          <use
             id="use11504"
             x="464.10501"
             y="143.017"
             width="744.09448"
             height="1052.3622"
             xlink:href="#textext-8b95a151-16" />
        </g>
        <g
           id="g11506"
           style="fill:#000000;fill-opacity:1">
          <use
             id="use11508"
             x="469.67401"
             y="143.017"
             width="744.09448"
             height="1052.3622"
             xlink:href="#textext-8b95a151-3" />
        </g>
        <g
           id="g11510"
           style="fill:#000000;fill-opacity:1">
          <use
             id="use11512"
             x="475.76199"
             y="143.017"
             width="744.09448"
             height="1052.3622"
             xlink:href="#textext-8b95a151-19" />
        </g>
        <g
           id="g11514"
           style="fill:#000000;fill-opacity:1">
          <use
             id="use11516"
             x="485.72501"
             y="143.017"
             width="744.09448"
             height="1052.3622"
             xlink:href="#textext-8b95a151-8" />
        </g>
        <g
           id="g11518"
           style="fill:#000000;fill-opacity:1">
          <use
             id="use11520"
             x="490.60901"
             y="144.51199"
             width="744.09448"
             height="1052.3622"
             xlink:href="#textext-8b95a151-14" />
        </g>
        <g
           id="g11522"
           style="fill:#000000;fill-opacity:1">
          <use
             id="use11524"
             x="493.92599"
             y="143.017"
             width="744.09448"
             height="1052.3622"
             xlink:href="#textext-8b95a151-18" />
        </g>
      </g>
    </g>
  </g>
</svg>
