<?xml version="1.0" encoding="UTF-8" standalone="no"?>
<!-- Created with Inkscape (http://www.inkscape.org/) -->

<svg
   xmlns:dc="http://purl.org/dc/elements/1.1/"
   xmlns:cc="http://creativecommons.org/ns#"
   xmlns:rdf="http://www.w3.org/1999/02/22-rdf-syntax-ns#"
   xmlns:svg="http://www.w3.org/2000/svg"
   xmlns="http://www.w3.org/2000/svg"
   xmlns:xlink="http://www.w3.org/1999/xlink"
   version="1.1"
   width="387"
   height="59"
   id="svg32702">
  <defs
     id="defs32704" />
  <metadata
     id="metadata32707">
    <rdf:RDF>
      <cc:Work
         rdf:about="">
        <dc:format>image/svg+xml</dc:format>
        <dc:type
           rdf:resource="http://purl.org/dc/dcmitype/StillImage" />
        <dc:title></dc:title>
      </cc:Work>
    </rdf:RDF>
  </metadata>
  <g
     transform="translate(-204.66297,-480.02453)"
     id="layer1">
    <g
       transform="matrix(2,0,0,2,-391.59817,228.81353)"
       id="g31781">
      <defs
         id="defs31783">
        <g
           id="g31785">
          <symbol
             id="textext-693ce51f-0"
             style="overflow:visible">
            <path
               d="M 2.40625,-6.59375 C 2.3125,-6.8125 2.28125,-6.8125 2.046875,-6.8125 l -1.671875,0 0,0.3125 0.234375,0 c 0.765625,0 0.78125,0.109375 0.78125,0.46875 l 0,4.984375 c 0,0.265625 0,0.734375 -1.015625,0.734375 L 0.375,0 c 0.34375,-0.015625 0.828125,-0.03125 1.15625,-0.03125 0.328125,0 0.828125,0.015625 1.171875,0.03125 l 0,-0.3125 c -1.03125,0 -1.03125,-0.46875 -1.03125,-0.734375 l 0,-5.375 0.015625,0 2.40625,6.203125 C 4.140625,-0.09375 4.1875,0 4.28125,0 4.390625,0 4.421875,-0.078125 4.46875,-0.1875 L 6.921875,-6.5 l 0,5.71875 c 0,0.359375 -0.015625,0.46875 -0.78125,0.46875 l -0.234375,0 0,0.3125 c 0.359375,-0.03125 1.046875,-0.03125 1.4375,-0.03125 0.375,0 1.046875,0 1.421875,0.03125 l 0,-0.3125 -0.25,0 c -0.765625,0 -0.78125,-0.109375 -0.78125,-0.46875 l 0,-5.25 C 7.734375,-6.390625 7.75,-6.5 8.515625,-6.5 l 0.25,0 0,-0.3125 -1.6875,0 C 6.8125,-6.8125 6.8125,-6.796875 6.75,-6.625 L 4.5625,-1 z m 0,0"
               id="path31788"
               style="stroke:none" />
          </symbol>
          <symbol
             id="textext-693ce51f-1"
             style="overflow:visible">
            <path
               d="m 3.96875,-6.9375 c -0.046875,-0.125 -0.078125,-0.203125 -0.234375,-0.203125 -0.15625,0 -0.1875,0.0625 -0.234375,0.203125 L 1.4375,-0.984375 C 1.25,-0.46875 0.859375,-0.3125 0.3125,-0.3125 l 0,0.3125 c 0.234375,-0.015625 0.671875,-0.03125 1.015625,-0.03125 0.3125,0 0.828125,0.015625 1.15625,0.03125 l 0,-0.3125 c -0.5,0 -0.75,-0.25 -0.75,-0.5 0,-0.03125 0.015625,-0.140625 0.015625,-0.15625 l 0.46875,-1.296875 2.453125,0 0.53125,1.515625 c 0.015625,0.046875 0.03125,0.109375 0.03125,0.140625 0,0.296875 -0.5625,0.296875 -0.828125,0.296875 l 0,0.3125 c 0.359375,-0.03125 1.0625,-0.03125 1.4375,-0.03125 0.421875,0 0.890625,0.015625 1.296875,0.03125 l 0,-0.3125 -0.171875,0 C 6.375,-0.3125 6.234375,-0.375 6.125,-0.703125 z m -0.53125,1.109375 1.125,3.25 -2.234375,0 z m 0,0"
               id="path31791"
               style="stroke:none" />
          </symbol>
          <symbol
             id="textext-693ce51f-2"
             style="overflow:visible">
            <path
               d="m 0.34375,-6.8125 0,0.3125 0.25,0 c 0.765625,0 0.78125,0.109375 0.78125,0.46875 l 0,5.25 c 0,0.359375 -0.015625,0.46875 -0.78125,0.46875 l -0.25,0 0,0.3125 L 4,0 C 5.671875,0 7.046875,-1.46875 7.046875,-3.34375 7.046875,-5.25 5.703125,-6.8125 4,-6.8125 z m 2.375,6.5 C 2.25,-0.3125 2.234375,-0.375 2.234375,-0.703125 l 0,-5.390625 C 2.234375,-6.4375 2.25,-6.5 2.71875,-6.5 l 1,0 c 0.625,0 1.3125,0.21875 1.8125,0.921875 0.4375,0.59375 0.515625,1.453125 0.515625,2.234375 0,1.09375 -0.1875,1.703125 -0.546875,2.1875 -0.203125,0.265625 -0.765625,0.84375 -1.765625,0.84375 z m 0,0"
               id="path31794"
               style="stroke:none" />
          </symbol>
          <symbol
             id="textext-693ce51f-3"
             style="overflow:visible">
            <path
               d="m 3.296875,2.390625 c 0,-0.03125 0,-0.046875 -0.171875,-0.21875 C 1.890625,0.921875 1.5625,-0.96875 1.5625,-2.5 c 0,-1.734375 0.375,-3.46875 1.609375,-4.703125 0.125,-0.125 0.125,-0.140625 0.125,-0.171875 0,-0.078125 -0.03125,-0.109375 -0.09375,-0.109375 -0.109375,0 -1,0.6875 -1.59375,1.953125 -0.5,1.09375 -0.625,2.203125 -0.625,3.03125 0,0.78125 0.109375,1.984375 0.65625,3.125 C 2.25,1.84375 3.09375,2.5 3.203125,2.5 c 0.0625,0 0.09375,-0.03125 0.09375,-0.109375 z m 0,0"
               id="path31797"
               style="stroke:none" />
          </symbol>
          <symbol
             id="textext-693ce51f-4"
             style="overflow:visible">
            <path
               d="m 2.875,-2.5 c 0,-0.765625 -0.109375,-1.96875 -0.65625,-3.109375 -0.59375,-1.21875 -1.453125,-1.875 -1.546875,-1.875 -0.0625,0 -0.109375,0.046875 -0.109375,0.109375 0,0.03125 0,0.046875 0.1875,0.234375 0.984375,0.984375 1.546875,2.5625 1.546875,4.640625 0,1.71875 -0.359375,3.46875 -1.59375,4.71875 C 0.5625,2.34375 0.5625,2.359375 0.5625,2.390625 0.5625,2.453125 0.609375,2.5 0.671875,2.5 0.765625,2.5 1.671875,1.8125 2.25,0.546875 2.765625,-0.546875 2.875,-1.65625 2.875,-2.5 z m 0,0"
               id="path31800"
               style="stroke:none" />
          </symbol>
          <symbol
             id="textext-693ce51f-5"
             style="overflow:visible">
            <path
               d="m 6.84375,-3.265625 c 0.15625,0 0.34375,0 0.34375,-0.1875 C 7.1875,-3.65625 7,-3.65625 6.859375,-3.65625 l -5.96875,0 c -0.140625,0 -0.328125,0 -0.328125,0.203125 0,0.1875 0.1875,0.1875 0.328125,0.1875 z m 0.015625,1.9375 c 0.140625,0 0.328125,0 0.328125,-0.203125 0,-0.1875 -0.1875,-0.1875 -0.34375,-0.1875 l -5.953125,0 c -0.140625,0 -0.328125,0 -0.328125,0.1875 0,0.203125 0.1875,0.203125 0.328125,0.203125 z m 0,0"
               id="path31803"
               style="stroke:none" />
          </symbol>
          <symbol
             id="textext-693ce51f-6"
             style="overflow:visible">
            <path
               d="m 2.9375,-6.375 c 0,-0.25 0,-0.265625 -0.234375,-0.265625 C 2.078125,-6 1.203125,-6 0.890625,-6 l 0,0.3125 c 0.203125,0 0.78125,0 1.296875,-0.265625 l 0,5.171875 c 0,0.359375 -0.03125,0.46875 -0.921875,0.46875 l -0.3125,0 0,0.3125 c 0.34375,-0.03125 1.203125,-0.03125 1.609375,-0.03125 0.390625,0 1.265625,0 1.609375,0.03125 l 0,-0.3125 -0.3125,0 c -0.90625,0 -0.921875,-0.109375 -0.921875,-0.46875 z m 0,0"
               id="path31806"
               style="stroke:none" />
          </symbol>
          <symbol
             id="textext-693ce51f-7"
             style="overflow:visible">
            <path
               d="m 3.65625,-3.984375 0.859375,0 c 0.203125,0 0.296875,0 0.296875,-0.203125 0,-0.109375 -0.09375,-0.109375 -0.265625,-0.109375 l -0.828125,0 C 3.828125,-4.875 3.8125,-4.859375 3.921875,-5.4375 c 0.046875,-0.203125 0.1875,-0.90625 0.25,-1.03125 0.078125,-0.1875 0.25,-0.34375 0.46875,-0.34375 0.03125,0 0.296875,0 0.484375,0.1875 -0.4375,0.03125 -0.546875,0.390625 -0.546875,0.53125 0,0.234375 0.1875,0.359375 0.375,0.359375 C 5.21875,-5.734375 5.5,-5.96875 5.5,-6.34375 c 0,-0.453125 -0.453125,-0.6875 -0.859375,-0.6875 -0.34375,0 -0.96875,0.1875 -1.265625,1.171875 -0.0625,0.203125 -0.09375,0.3125 -0.328125,1.5625 l -0.6875,0 c -0.203125,0 -0.3125,0 -0.3125,0.1875 0,0.125 0.09375,0.125 0.28125,0.125 l 0.65625,0 -0.734375,3.9375 c -0.1875,0.96875 -0.359375,1.875 -0.875,1.875 -0.046875,0 -0.28125,0 -0.484375,-0.1875 C 1.359375,1.609375 1.453125,1.25 1.453125,1.109375 1.453125,0.875 1.265625,0.75 1.078125,0.75 0.8125,0.75 0.53125,0.984375 0.53125,1.359375 c 0,0.4375 0.4375,0.6875 0.84375,0.6875 0.546875,0 0.953125,-0.59375 1.125,-0.96875 0.328125,-0.625 0.546875,-1.828125 0.5625,-1.90625 z m 0,0"
               id="path31809"
               style="stroke:none" />
          </symbol>
          <symbol
             id="textext-693ce51f-8"
             style="overflow:visible">
            <path
               d="m 1.90625,-0.53125 c 0,-0.28125 -0.234375,-0.53125 -0.515625,-0.53125 -0.296875,0 -0.53125,0.25 -0.53125,0.53125 C 0.859375,-0.234375 1.09375,0 1.390625,0 1.671875,0 1.90625,-0.234375 1.90625,-0.53125 z m 0,0"
               id="path31812"
               style="stroke:none" />
          </symbol>
          <symbol
             id="textext-693ce51f-9"
             style="overflow:visible">
            <path
               d="m 2.03125,-0.015625 c 0,-0.65625 -0.25,-1.046875 -0.640625,-1.046875 -0.328125,0 -0.53125,0.25 -0.53125,0.53125 C 0.859375,-0.265625 1.0625,0 1.390625,0 1.5,0 1.640625,-0.046875 1.734375,-0.125 1.765625,-0.15625 1.78125,-0.15625 1.78125,-0.15625 c 0.015625,0 0.015625,0 0.015625,0.140625 0,0.75 -0.34375,1.34375 -0.671875,1.671875 -0.109375,0.109375 -0.109375,0.125 -0.109375,0.15625 0,0.078125 0.046875,0.109375 0.09375,0.109375 0.109375,0 0.921875,-0.765625 0.921875,-1.9375 z m 0,0"
               id="path31815"
               style="stroke:none" />
          </symbol>
          <symbol
             id="textext-693ce51f-10"
             style="overflow:visible">
            <path
               d="M 3.734375,-6.046875 C 3.8125,-6.40625 3.84375,-6.5 4.640625,-6.5 c 0.234375,0 0.3125,0 0.3125,-0.1875 0,-0.125 -0.109375,-0.125 -0.140625,-0.125 -0.296875,0 -1.03125,0.03125 -1.328125,0.03125 -0.296875,0 -1.015625,-0.03125 -1.328125,-0.03125 -0.0625,0 -0.1875,0 -0.1875,0.203125 C 1.96875,-6.5 2.046875,-6.5 2.25,-6.5 c 0.40625,0 0.6875,0 0.6875,0.1875 0,0.046875 0,0.078125 -0.03125,0.15625 l -1.34375,5.375 c -0.09375,0.375 -0.109375,0.46875 -0.90625,0.46875 -0.234375,0 -0.3125,0 -0.3125,0.203125 C 0.34375,0 0.453125,0 0.484375,0 0.78125,0 1.5,-0.03125 1.796875,-0.03125 2.09375,-0.03125 2.828125,0 3.125,0 c 0.078125,0 0.203125,0 0.203125,-0.1875 0,-0.125 -0.078125,-0.125 -0.296875,-0.125 -0.1875,0 -0.234375,0 -0.421875,-0.015625 -0.21875,-0.015625 -0.25,-0.0625 -0.25,-0.171875 0,-0.078125 0.015625,-0.15625 0.03125,-0.234375 z m 0,0"
               id="path31818"
               style="stroke:none" />
          </symbol>
          <symbol
             id="textext-693ce51f-11"
             style="overflow:visible">
            <path
               d="M 7.53125,-5.765625 C 7.640625,-6.15625 7.8125,-6.46875 8.609375,-6.5 c 0.046875,0 0.171875,-0.015625 0.171875,-0.203125 0,0 0,-0.109375 -0.125,-0.109375 -0.328125,0 -0.6875,0.03125 -1.015625,0.03125 -0.328125,0 -0.6875,-0.03125 -1.015625,-0.03125 -0.0625,0 -0.171875,0 -0.171875,0.203125 C 6.453125,-6.5 6.546875,-6.5 6.625,-6.5 c 0.578125,0.015625 0.6875,0.21875 0.6875,0.4375 0,0.03125 -0.03125,0.1875 -0.03125,0.203125 l -1.125,4.4375 L 3.953125,-6.625 C 3.875,-6.796875 3.875,-6.8125 3.640625,-6.8125 l -1.34375,0 c -0.1875,0 -0.28125,0 -0.28125,0.203125 0,0.109375 0.09375,0.109375 0.28125,0.109375 0.046875,0 0.671875,0 0.671875,0.09375 L 1.640625,-1.0625 c -0.109375,0.40625 -0.28125,0.71875 -1.078125,0.75 -0.0625,0 -0.171875,0.015625 -0.171875,0.203125 0,0.0625 0.046875,0.109375 0.125,0.109375 0.328125,0 0.671875,-0.03125 1,-0.03125 C 1.859375,-0.03125 2.21875,0 2.546875,0 2.59375,0 2.71875,0 2.71875,-0.203125 2.71875,-0.296875 2.625,-0.3125 2.515625,-0.3125 1.9375,-0.328125 1.859375,-0.546875 1.859375,-0.75 c 0,-0.0625 0.015625,-0.125 0.046875,-0.234375 l 1.3125,-5.25 C 3.265625,-6.1875 3.265625,-6.15625 3.3125,-6.0625 l 2.484375,5.875 C 5.859375,-0.015625 5.890625,0 5.984375,0 6.09375,0 6.09375,-0.03125 6.140625,-0.203125 z m 0,0"
               id="path31821"
               style="stroke:none" />
          </symbol>
          <symbol
             id="textext-693ce51f-12"
             style="overflow:visible">
            <path
               d="M 3.59375,-2.21875 C 3.59375,-2.984375 3.5,-3.546875 3.1875,-4.03125 2.96875,-4.34375 2.53125,-4.625 1.984375,-4.625 c -1.625,0 -1.625,1.90625 -1.625,2.40625 0,0.5 0,2.359375 1.625,2.359375 1.609375,0 1.609375,-1.859375 1.609375,-2.359375 z M 1.984375,-0.0625 c -0.328125,0 -0.75,-0.1875 -0.890625,-0.75 C 1,-1.21875 1,-1.796875 1,-2.3125 1,-2.828125 1,-3.359375 1.09375,-3.734375 1.25,-4.28125 1.6875,-4.4375 1.984375,-4.4375 c 0.375,0 0.734375,0.234375 0.859375,0.640625 0.109375,0.375 0.125,0.875 0.125,1.484375 0,0.515625 0,1.03125 -0.09375,1.46875 -0.140625,0.640625 -0.609375,0.78125 -0.890625,0.78125 z m 0,0"
               id="path31824"
               style="stroke:none" />
          </symbol>
          <symbol
             id="textext-693ce51f-13"
             style="overflow:visible">
            <path
               d="m 2.328125,-4.4375 c 0,-0.1875 0,-0.1875 -0.203125,-0.1875 -0.453125,0.4375 -1.078125,0.4375 -1.359375,0.4375 l 0,0.25 c 0.15625,0 0.625,0 1,-0.1875 l 0,3.546875 c 0,0.234375 0,0.328125 -0.6875,0.328125 l -0.265625,0 0,0.25 c 0.125,0 0.984375,-0.03125 1.234375,-0.03125 0.21875,0 1.09375,0.03125 1.25,0.03125 l 0,-0.25 -0.265625,0 c -0.703125,0 -0.703125,-0.09375 -0.703125,-0.328125 z m 0,0"
               id="path31827"
               style="stroke:none" />
          </symbol>
          <symbol
             id="textext-693ce51f-14"
             style="overflow:visible">
            <path
               d="m 5.359375,-2.34375 c 0.09375,0 0.25,0 0.25,-0.171875 0,-0.171875 -0.15625,-0.171875 -0.25,-0.171875 l -4.609375,0 c -0.09375,0 -0.265625,0 -0.265625,0.171875 0,0.171875 0.15625,0.171875 0.265625,0.171875 z m 0,1.53125 c 0.09375,0 0.25,0 0.25,-0.15625 0,-0.1875 -0.15625,-0.1875 -0.25,-0.1875 l -4.609375,0 c -0.109375,0 -0.265625,0 -0.265625,0.1875 0,0.15625 0.171875,0.15625 0.265625,0.15625 z m 0,0"
               id="path31830"
               style="stroke:none" />
          </symbol>
          <symbol
             id="textext-693ce51f-15"
             style="overflow:visible">
            <path
               d="M 5.8125,-4 C 5.875,-4.265625 6,-4.5 6.546875,-4.515625 c 0.03125,0 0.140625,0 0.140625,-0.140625 0,-0.046875 -0.03125,-0.109375 -0.109375,-0.109375 -0.21875,0 -0.484375,0.03125 -0.71875,0.03125 -0.171875,0 -0.5625,-0.03125 -0.734375,-0.03125 -0.03125,0 -0.140625,0 -0.140625,0.15625 0,0.09375 0.09375,0.09375 0.15625,0.09375 0.328125,0.015625 0.4375,0.125 0.4375,0.296875 0,0.046875 0,0.09375 -0.03125,0.15625 l -0.75,3.046875 -1.765625,-3.625 c -0.0625,-0.125 -0.078125,-0.125 -0.25,-0.125 l -0.953125,0 c -0.125,0 -0.21875,0 -0.21875,0.15625 0,0.09375 0.078125,0.09375 0.234375,0.09375 0.140625,0 0.296875,0.015625 0.4375,0.046875 L 1.359375,-0.75 c -0.0625,0.265625 -0.1875,0.484375 -0.734375,0.5 -0.046875,0 -0.140625,0 -0.140625,0.140625 C 0.484375,-0.03125 0.53125,0 0.578125,0 0.8125,0 1.078125,-0.03125 1.3125,-0.03125 1.484375,-0.03125 1.875,0 2.046875,0 2.125,0 2.1875,-0.03125 2.1875,-0.140625 2.1875,-0.25 2.109375,-0.25 2.03125,-0.25 c -0.4375,-0.015625 -0.4375,-0.203125 -0.4375,-0.296875 0,-0.03125 0,-0.0625 0.015625,-0.171875 l 0.90625,-3.5625 2.03125,4.15625 C 4.59375,0 4.625,0 4.703125,0 4.8125,0 4.8125,-0.015625 4.84375,-0.140625 z m 0,0"
               id="path31833"
               style="stroke:none" />
          </symbol>
          <symbol
             id="textext-693ce51f-16"
             style="overflow:visible">
            <path
               d="m 2.265625,-4.359375 c 0,-0.109375 -0.09375,-0.265625 -0.28125,-0.265625 -0.1875,0 -0.390625,0.1875 -0.390625,0.390625 0,0.109375 0.078125,0.265625 0.28125,0.265625 0.1875,0 0.390625,-0.203125 0.390625,-0.390625 z M 0.84375,-0.8125 c -0.03125,0.09375 -0.0625,0.171875 -0.0625,0.296875 0,0.328125 0.265625,0.578125 0.65625,0.578125 0.6875,0 1,-0.953125 1,-1.0625 0,-0.09375 -0.09375,-0.09375 -0.109375,-0.09375 -0.09375,0 -0.109375,0.046875 -0.140625,0.125 -0.15625,0.5625 -0.453125,0.84375 -0.734375,0.84375 -0.140625,0 -0.171875,-0.09375 -0.171875,-0.25 0,-0.15625 0.046875,-0.28125 0.109375,-0.4375 C 1.46875,-1 1.546875,-1.1875 1.609375,-1.375 1.671875,-1.546875 1.9375,-2.171875 1.953125,-2.265625 1.984375,-2.328125 2,-2.40625 2,-2.484375 2,-2.8125 1.71875,-3.078125 1.34375,-3.078125 0.640625,-3.078125 0.328125,-2.125 0.328125,-2 c 0,0.078125 0.09375,0.078125 0.125,0.078125 0.09375,0 0.09375,-0.03125 0.125,-0.109375 C 0.75,-2.625 1.0625,-2.875 1.3125,-2.875 c 0.109375,0 0.171875,0.046875 0.171875,0.234375 0,0.171875 -0.03125,0.265625 -0.203125,0.703125 z m 0,0"
               id="path31836"
               style="stroke:none" />
          </symbol>
          <symbol
             id="textext-693ce51f-17"
             style="overflow:visible">
            <path
               d="m 5.203125,-1.578125 c 0.09375,0 0.265625,0 0.265625,-0.15625 0,-0.1875 -0.171875,-0.1875 -0.265625,-0.1875 l -4.1875,0 c -0.109375,0 -0.265625,0 -0.265625,0.1875 0,0.15625 0.171875,0.15625 0.265625,0.15625 z m 0,0"
               id="path31839"
               style="stroke:none" />
          </symbol>
          <symbol
             id="textext-693ce51f-18"
             style="overflow:visible">
            <path
               d="m 12.625,13.953125 1.203125,-3.1875 -0.25,0 c -0.390625,1.03125 -1.453125,1.71875 -2.59375,2.015625 -0.203125,0.04687 -1.1875,0.3125 -3.09375,0.3125 l -6.015625,0 5.078125,-5.953125 C 7.015625,7.0625 7.03125,7.03125 7.03125,6.984375 c 0,-0.03125 0,-0.0625 -0.0625,-0.15625 l -4.640625,-6.34375 5.453125,0 c 1.34375,0 2.25,0.140625 2.34375,0.15625 0.53125,0.078125 1.40625,0.25 2.1875,0.75 0.25,0.15625 0.921875,0.609375 1.265625,1.40625 l 0.25,0 L 12.625,0 0.84375,0 c -0.234375,0 -0.25,0.015625 -0.28125,0.0625 0,0.03125 0,0.234375 0,0.34375 l 5.265625,7.203125 -5.15625,6.0625 C 0.5625,13.78125 0.5625,13.84375 0.5625,13.84375 c 0,0.109375 0.09375,0.109375 0.28125,0.109375 z m 0,0"
               id="path31842"
               style="stroke:none" />
          </symbol>
          <symbol
             id="textext-693ce51f-19"
             style="overflow:visible">
            <path
               d="m 1.578125,-7.140625 c 0,-0.140625 0,-0.34375 -0.1875,-0.34375 -0.203125,0 -0.203125,0.203125 -0.203125,0.34375 l 0,9.296875 c 0,0.140625 0,0.34375 0.203125,0.34375 0.1875,0 0.1875,-0.203125 0.1875,-0.34375 z m 0,0"
               id="path31845"
               style="stroke:none" />
          </symbol>
          <symbol
             id="textext-693ce51f-20"
             style="overflow:visible">
            <path
               d="m 6.59375,-2.296875 c 0.140625,0 0.328125,0 0.328125,-0.203125 0,-0.1875 -0.1875,-0.1875 -0.328125,-0.1875 l -5.4375,0 c -0.140625,0 -0.328125,0 -0.328125,0.1875 0,0.203125 0.1875,0.203125 0.328125,0.203125 z m 0,0"
               id="path31848"
               style="stroke:none" />
          </symbol>
        </g>
      </defs>
      <g
         id="textext-693ce51f-21">
        <g
           id="g31852"
           style="fill:#000000;fill-opacity:1">
          <use
             id="use31854"
             x="297.83701"
             y="143.017"
             width="744.09448"
             height="1052.3622"
             xlink:href="#textext-693ce51f-0" />
          <use
             id="use31856"
             x="306.96973"
             y="143.017"
             width="744.09448"
             height="1052.3622"
             xlink:href="#textext-693ce51f-1" />
          <use
             id="use31858"
             x="314.44165"
             y="143.017"
             width="744.09448"
             height="1052.3622"
             xlink:href="#textext-693ce51f-2" />
          <use
             id="use31860"
             x="322.05209"
             y="143.017"
             width="744.09448"
             height="1052.3622"
             xlink:href="#textext-693ce51f-3" />
        </g>
        <g
           id="g31862"
           style="fill:#000000;fill-opacity:1">
          <use
             id="use31864"
             x="325.92599"
             y="143.017"
             width="744.09448"
             height="1052.3622"
             xlink:href="#textext-693ce51f-7" />
        </g>
        <g
           id="g31866"
           style="fill:#000000;fill-opacity:1">
          <use
             id="use31868"
             x="330.80399"
             y="144.51199"
             width="744.09448"
             height="1052.3622"
             xlink:href="#textext-693ce51f-12" />
        </g>
        <g
           id="g31870"
           style="fill:#000000;fill-opacity:1">
          <use
             id="use31872"
             x="335.27301"
             y="143.017"
             width="744.09448"
             height="1052.3622"
             xlink:href="#textext-693ce51f-8" />
          <use
             id="use31874"
             x="338.04062"
             y="143.017"
             width="744.09448"
             height="1052.3622"
             xlink:href="#textext-693ce51f-8" />
          <use
             id="use31876"
             x="340.80823"
             y="143.017"
             width="744.09448"
             height="1052.3622"
             xlink:href="#textext-693ce51f-8" />
          <use
             id="use31878"
             x="343.57584"
             y="143.017"
             width="744.09448"
             height="1052.3622"
             xlink:href="#textext-693ce51f-7" />
        </g>
        <g
           id="g31880"
           style="fill:#000000;fill-opacity:1">
          <use
             id="use31882"
             x="348.453"
             y="144.51199"
             width="744.09448"
             height="1052.3622"
             xlink:href="#textext-693ce51f-15" />
        </g>
        <g
           id="g31884"
           style="fill:#000000;fill-opacity:1">
          <use
             id="use31886"
             x="355.51099"
             y="144.51199"
             width="744.09448"
             height="1052.3622"
             xlink:href="#textext-693ce51f-17" />
        </g>
        <g
           id="g31888"
           style="fill:#000000;fill-opacity:1">
          <use
             id="use31890"
             x="361.73801"
             y="144.51199"
             width="744.09448"
             height="1052.3622"
             xlink:href="#textext-693ce51f-13" />
        </g>
        <g
           id="g31892"
           style="fill:#000000;fill-opacity:1">
          <use
             id="use31894"
             x="366.207"
             y="143.017"
             width="744.09448"
             height="1052.3622"
             xlink:href="#textext-693ce51f-9" />
        </g>
        <g
           id="g31896"
           style="fill:#000000;fill-opacity:1">
          <use
             id="use31898"
             x="370.63837"
             y="143.017"
             width="744.09448"
             height="1052.3622"
             xlink:href="#textext-693ce51f-10" />
        </g>
        <g
           id="g31900"
           style="fill:#000000;fill-opacity:1">
          <use
             id="use31902"
             x="375.01401"
             y="144.51199"
             width="744.09448"
             height="1052.3622"
             xlink:href="#textext-693ce51f-12" />
        </g>
        <g
           id="g31904"
           style="fill:#000000;fill-opacity:1">
          <use
             id="use31906"
             x="379.48401"
             y="143.017"
             width="744.09448"
             height="1052.3622"
             xlink:href="#textext-693ce51f-8" />
          <use
             id="use31908"
             x="382.25162"
             y="143.017"
             width="744.09448"
             height="1052.3622"
             xlink:href="#textext-693ce51f-8" />
          <use
             id="use31910"
             x="385.01923"
             y="143.017"
             width="744.09448"
             height="1052.3622"
             xlink:href="#textext-693ce51f-8" />
          <use
             id="use31912"
             x="387.78683"
             y="143.017"
             width="744.09448"
             height="1052.3622"
             xlink:href="#textext-693ce51f-10" />
        </g>
        <g
           id="g31914"
           style="fill:#000000;fill-opacity:1">
          <use
             id="use31916"
             x="392.16501"
             y="144.51199"
             width="744.09448"
             height="1052.3622"
             xlink:href="#textext-693ce51f-15" />
        </g>
        <g
           id="g31918"
           style="fill:#000000;fill-opacity:1">
          <use
             id="use31920"
             x="399.224"
             y="144.51199"
             width="744.09448"
             height="1052.3622"
             xlink:href="#textext-693ce51f-17" />
        </g>
        <g
           id="g31922"
           style="fill:#000000;fill-opacity:1">
          <use
             id="use31924"
             x="405.45001"
             y="144.51199"
             width="744.09448"
             height="1052.3622"
             xlink:href="#textext-693ce51f-13" />
        </g>
        <g
           id="g31926"
           style="fill:#000000;fill-opacity:1">
          <use
             id="use31928"
             x="409.92001"
             y="143.017"
             width="744.09448"
             height="1052.3622"
             xlink:href="#textext-693ce51f-4" />
        </g>
        <g
           id="g31930"
           style="fill:#000000;fill-opacity:1">
          <use
             id="use31932"
             x="416.56406"
             y="143.017"
             width="744.09448"
             height="1052.3622"
             xlink:href="#textext-693ce51f-5" />
        </g>
        <g
           id="g31934"
           style="fill:#000000;fill-opacity:1">
          <use
             id="use31936"
             x="430.328"
             y="136.27699"
             width="744.09448"
             height="1052.3622"
             xlink:href="#textext-693ce51f-6" />
        </g>
        <path
           d="m 4.375e-4,-3.4375e-4 9.0898435,0"
           transform="matrix(1,0,0,-1,428.273,140.527)"
           id="path31939"
           style="fill:none;stroke:#000000;stroke-width:0.398;stroke-linecap:butt;stroke-linejoin:miter;stroke-miterlimit:10;stroke-opacity:1" />
        <g
           id="g31942"
           style="fill:#000000;fill-opacity:1">
          <use
             id="use31944"
             x="428.27301"
             y="149.851"
             width="744.09448"
             height="1052.3622"
             xlink:href="#textext-693ce51f-11" />
        </g>
        <g
           id="g31946"
           style="fill:#000000;fill-opacity:1">
          <use
             id="use31948"
             x="440.22"
             y="130.564"
             width="744.09448"
             height="1052.3622"
             xlink:href="#textext-693ce51f-15" />
        </g>
        <g
           id="g31950"
           style="fill:#000000;fill-opacity:1">
          <use
             id="use31952"
             x="447.27802"
             y="130.564"
             width="744.09448"
             height="1052.3622"
             xlink:href="#textext-693ce51f-17" />
        </g>
        <g
           id="g31954"
           style="fill:#000000;fill-opacity:1">
          <use
             id="use31956"
             x="453.505"
             y="130.564"
             width="744.09448"
             height="1052.3622"
             xlink:href="#textext-693ce51f-13" />
        </g>
        <g
           id="g31958"
           style="fill:#000000;fill-opacity:1">
          <use
             id="use31960"
             x="441.65302"
             y="133.55299"
             width="744.09448"
             height="1052.3622"
             xlink:href="#textext-693ce51f-18" />
        </g>
        <g
           id="g31962"
           style="fill:#000000;fill-opacity:1">
          <use
             id="use31964"
             x="442.39499"
             y="154.772"
             width="744.09448"
             height="1052.3622"
             xlink:href="#textext-693ce51f-16" />
        </g>
        <g
           id="g31966"
           style="fill:#000000;fill-opacity:1">
          <use
             id="use31968"
             x="445.21399"
             y="154.772"
             width="744.09448"
             height="1052.3622"
             xlink:href="#textext-693ce51f-14" />
          <use
             id="use31970"
             x="451.33002"
             y="154.772"
             width="744.09448"
             height="1052.3622"
             xlink:href="#textext-693ce51f-12" />
        </g>
        <g
           id="g31972"
           style="fill:#000000;fill-opacity:1">
          <use
             id="use31974"
             x="459.13599"
             y="143.017"
             width="744.09448"
             height="1052.3622"
             xlink:href="#textext-693ce51f-19" />
        </g>
        <g
           id="g31976"
           style="fill:#000000;fill-opacity:1">
          <use
             id="use31978"
             x="461.90399"
             y="143.017"
             width="744.09448"
             height="1052.3622"
             xlink:href="#textext-693ce51f-7" />
        </g>
        <g
           id="g31980"
           style="fill:#000000;fill-opacity:1">
          <use
             id="use31982"
             x="466.78101"
             y="144.51199"
             width="744.09448"
             height="1052.3622"
             xlink:href="#textext-693ce51f-16" />
        </g>
        <g
           id="g31984"
           style="fill:#000000;fill-opacity:1">
          <use
             id="use31986"
             x="472.31201"
             y="143.017"
             width="744.09448"
             height="1052.3622"
             xlink:href="#textext-693ce51f-20" />
        </g>
        <g
           id="g31988"
           style="fill:#000000;fill-opacity:1">
          <use
             id="use31990"
             x="482.27499"
             y="143.017"
             width="744.09448"
             height="1052.3622"
             xlink:href="#textext-693ce51f-10" />
        </g>
        <g
           id="g31992"
           style="fill:#000000;fill-opacity:1">
          <use
             id="use31994"
             x="486.65399"
             y="144.51199"
             width="744.09448"
             height="1052.3622"
             xlink:href="#textext-693ce51f-16" />
        </g>
        <g
           id="g31996"
           style="fill:#000000;fill-opacity:1">
          <use
             id="use31998"
             x="489.97101"
             y="143.017"
             width="744.09448"
             height="1052.3622"
             xlink:href="#textext-693ce51f-19" />
        </g>
      </g>
    </g>
  </g>
</svg>
