<?xml version="1.0" encoding="UTF-8" standalone="no"?>
<!-- Created with Inkscape (http://www.inkscape.org/) -->

<svg
   xmlns:dc="http://purl.org/dc/elements/1.1/"
   xmlns:cc="http://creativecommons.org/ns#"
   xmlns:rdf="http://www.w3.org/1999/02/22-rdf-syntax-ns#"
   xmlns:svg="http://www.w3.org/2000/svg"
   xmlns="http://www.w3.org/2000/svg"
   xmlns:xlink="http://www.w3.org/1999/xlink"
   version="1.1"
   width="538.3855"
   height="66.187744"
   id="svg46358">
  <defs
     id="defs46360" />
  <metadata
     id="metadata46363">
    <rdf:RDF>
      <cc:Work
         rdf:about="">
        <dc:format>image/svg+xml</dc:format>
        <dc:type
           rdf:resource="http://purl.org/dc/dcmitype/StillImage" />
        <dc:title></dc:title>
      </cc:Work>
    </rdf:RDF>
  </metadata>
  <g
     transform="translate(-95.649376,-491.70507)"
     id="layer1">
    <g
       transform="matrix(2,0,0,2,-424.91465,242.76632)"
       id="g30720">
      <defs
         id="defs30722">
        <g
           id="g30724">
          <symbol
             id="textext-630dbdd6-0"
             style="overflow:visible">
            <path
               d="M 2.40625,-6.59375 C 2.3125,-6.8125 2.28125,-6.8125 2.046875,-6.8125 l -1.671875,0 0,0.3125 0.234375,0 c 0.765625,0 0.78125,0.109375 0.78125,0.46875 l 0,4.984375 c 0,0.265625 0,0.734375 -1.015625,0.734375 L 0.375,0 c 0.34375,-0.015625 0.828125,-0.03125 1.15625,-0.03125 0.328125,0 0.828125,0.015625 1.171875,0.03125 l 0,-0.3125 c -1.03125,0 -1.03125,-0.46875 -1.03125,-0.734375 l 0,-5.375 0.015625,0 2.40625,6.203125 C 4.140625,-0.09375 4.1875,0 4.28125,0 4.390625,0 4.421875,-0.078125 4.46875,-0.1875 L 6.921875,-6.5 l 0,5.71875 c 0,0.359375 -0.015625,0.46875 -0.78125,0.46875 l -0.234375,0 0,0.3125 c 0.359375,-0.03125 1.046875,-0.03125 1.4375,-0.03125 0.375,0 1.046875,0 1.421875,0.03125 l 0,-0.3125 -0.25,0 c -0.765625,0 -0.78125,-0.109375 -0.78125,-0.46875 l 0,-5.25 C 7.734375,-6.390625 7.75,-6.5 8.515625,-6.5 l 0.25,0 0,-0.3125 -1.6875,0 C 6.8125,-6.8125 6.8125,-6.796875 6.75,-6.625 L 4.5625,-1 z m 0,0"
               id="path30727"
               style="stroke:none" />
          </symbol>
          <symbol
             id="textext-630dbdd6-1"
             style="overflow:visible">
            <path
               d="m 3.296875,2.390625 c 0,-0.03125 0,-0.046875 -0.171875,-0.21875 C 1.890625,0.921875 1.5625,-0.96875 1.5625,-2.5 c 0,-1.734375 0.375,-3.46875 1.609375,-4.703125 0.125,-0.125 0.125,-0.140625 0.125,-0.171875 0,-0.078125 -0.03125,-0.109375 -0.09375,-0.109375 -0.109375,0 -1,0.6875 -1.59375,1.953125 -0.5,1.09375 -0.625,2.203125 -0.625,3.03125 0,0.78125 0.109375,1.984375 0.65625,3.125 C 2.25,1.84375 3.09375,2.5 3.203125,2.5 c 0.0625,0 0.09375,-0.03125 0.09375,-0.109375 z m 0,0"
               id="path30730"
               style="stroke:none" />
          </symbol>
          <symbol
             id="textext-630dbdd6-2"
             style="overflow:visible">
            <path
               d="m 1.90625,-3.765625 c 0,-0.296875 -0.234375,-0.53125 -0.515625,-0.53125 -0.296875,0 -0.53125,0.234375 -0.53125,0.53125 0,0.28125 0.234375,0.53125 0.53125,0.53125 0.28125,0 0.515625,-0.25 0.515625,-0.53125 z m -0.1875,3.65625 c 0,0.28125 0,1.0625 -0.625,1.796875 -0.078125,0.078125 -0.078125,0.09375 -0.078125,0.125 0,0.078125 0.046875,0.109375 0.09375,0.109375 0.109375,0 0.828125,-0.796875 0.828125,-1.953125 0,-0.28125 -0.015625,-1.03125 -0.546875,-1.03125 -0.359375,0 -0.53125,0.28125 -0.53125,0.53125 C 0.859375,-0.265625 1.03125,0 1.390625,0 1.4375,0 1.453125,0 1.46875,-0.015625 c 0.0625,0 0.171875,-0.03125 0.25,-0.09375 z m 0,0"
               id="path30733"
               style="stroke:none" />
          </symbol>
          <symbol
             id="textext-630dbdd6-3"
             style="overflow:visible">
            <path
               d="m 2.875,-2.5 c 0,-0.765625 -0.109375,-1.96875 -0.65625,-3.109375 -0.59375,-1.21875 -1.453125,-1.875 -1.546875,-1.875 -0.0625,0 -0.109375,0.046875 -0.109375,0.109375 0,0.03125 0,0.046875 0.1875,0.234375 0.984375,0.984375 1.546875,2.5625 1.546875,4.640625 0,1.71875 -0.359375,3.46875 -1.59375,4.71875 C 0.5625,2.34375 0.5625,2.359375 0.5625,2.390625 0.5625,2.453125 0.609375,2.5 0.671875,2.5 0.765625,2.5 1.671875,1.8125 2.25,0.546875 2.765625,-0.546875 2.875,-1.65625 2.875,-2.5 z m 0,0"
               id="path30736"
               style="stroke:none" />
          </symbol>
          <symbol
             id="textext-630dbdd6-4"
             style="overflow:visible">
            <path
               d="m 6.84375,-3.265625 c 0.15625,0 0.34375,0 0.34375,-0.1875 C 7.1875,-3.65625 7,-3.65625 6.859375,-3.65625 l -5.96875,0 c -0.140625,0 -0.328125,0 -0.328125,0.203125 0,0.1875 0.1875,0.1875 0.328125,0.1875 z m 0.015625,1.9375 c 0.140625,0 0.328125,0 0.328125,-0.203125 0,-0.1875 -0.1875,-0.1875 -0.34375,-0.1875 l -5.953125,0 c -0.140625,0 -0.328125,0 -0.328125,0.1875 0,0.203125 0.1875,0.203125 0.328125,0.203125 z m 0,0"
               id="path30739"
               style="stroke:none" />
          </symbol>
          <symbol
             id="textext-630dbdd6-5"
             style="overflow:visible">
            <path
               d="m 4.078125,-2.296875 2.78125,0 C 7,-2.296875 7.1875,-2.296875 7.1875,-2.5 7.1875,-2.6875 7,-2.6875 6.859375,-2.6875 l -2.78125,0 0,-2.796875 c 0,-0.140625 0,-0.328125 -0.203125,-0.328125 -0.203125,0 -0.203125,0.1875 -0.203125,0.328125 l 0,2.796875 -2.78125,0 c -0.140625,0 -0.328125,0 -0.328125,0.1875 0,0.203125 0.1875,0.203125 0.328125,0.203125 l 2.78125,0 0,2.796875 c 0,0.140625 0,0.328125 0.203125,0.328125 0.203125,0 0.203125,-0.1875 0.203125,-0.328125 z m 0,0"
               id="path30742"
               style="stroke:none" />
          </symbol>
          <symbol
             id="textext-630dbdd6-6"
             style="overflow:visible">
            <path
               d="m 2.9375,-6.375 c 0,-0.25 0,-0.265625 -0.234375,-0.265625 C 2.078125,-6 1.203125,-6 0.890625,-6 l 0,0.3125 c 0.203125,0 0.78125,0 1.296875,-0.265625 l 0,5.171875 c 0,0.359375 -0.03125,0.46875 -0.921875,0.46875 l -0.3125,0 0,0.3125 c 0.34375,-0.03125 1.203125,-0.03125 1.609375,-0.03125 0.390625,0 1.265625,0 1.609375,0.03125 l 0,-0.3125 -0.3125,0 c -0.90625,0 -0.921875,-0.109375 -0.921875,-0.46875 z m 0,0"
               id="path30745"
               style="stroke:none" />
          </symbol>
          <symbol
             id="textext-630dbdd6-7"
             style="overflow:visible">
            <path
               d="M 3.328125,-3.015625 C 3.390625,-3.265625 3.625,-4.1875 4.3125,-4.1875 c 0.046875,0 0.296875,0 0.5,0.125 C 4.53125,-4 4.34375,-3.765625 4.34375,-3.515625 c 0,0.15625 0.109375,0.34375 0.375,0.34375 0.21875,0 0.53125,-0.171875 0.53125,-0.578125 0,-0.515625 -0.578125,-0.65625 -0.921875,-0.65625 -0.578125,0 -0.921875,0.53125 -1.046875,0.75 -0.25,-0.65625 -0.78125,-0.75 -1.078125,-0.75 -1.03125,0 -1.609375,1.28125 -1.609375,1.53125 0,0.109375 0.109375,0.109375 0.125,0.109375 0.078125,0 0.109375,-0.03125 0.125,-0.109375 0.34375,-1.0625 1,-1.3125 1.34375,-1.3125 0.1875,0 0.53125,0.09375 0.53125,0.671875 0,0.3125 -0.171875,0.96875 -0.53125,2.375 -0.15625,0.609375 -0.515625,1.03125 -0.953125,1.03125 -0.0625,0 -0.28125,0 -0.5,-0.125 0.25,-0.0625 0.46875,-0.265625 0.46875,-0.546875 0,-0.265625 -0.21875,-0.34375 -0.359375,-0.34375 -0.3125,0 -0.546875,0.25 -0.546875,0.578125 0,0.453125 0.484375,0.65625 0.921875,0.65625 0.671875,0 1.03125,-0.703125 1.046875,-0.75 0.125,0.359375 0.484375,0.75 1.078125,0.75 1.03125,0 1.59375,-1.28125 1.59375,-1.53125 0,-0.109375 -0.078125,-0.109375 -0.109375,-0.109375 -0.09375,0 -0.109375,0.046875 -0.140625,0.109375 -0.328125,1.078125 -1,1.3125 -1.3125,1.3125 -0.390625,0 -0.546875,-0.3125 -0.546875,-0.65625 0,-0.21875 0.046875,-0.4375 0.15625,-0.875 z m 0,0"
               id="path30748"
               style="stroke:none" />
          </symbol>
          <symbol
             id="textext-630dbdd6-8"
             style="overflow:visible">
            <path
               d="m 2.03125,-0.015625 c 0,-0.65625 -0.25,-1.046875 -0.640625,-1.046875 -0.328125,0 -0.53125,0.25 -0.53125,0.53125 C 0.859375,-0.265625 1.0625,0 1.390625,0 1.5,0 1.640625,-0.046875 1.734375,-0.125 1.765625,-0.15625 1.78125,-0.15625 1.78125,-0.15625 c 0.015625,0 0.015625,0 0.015625,0.140625 0,0.75 -0.34375,1.34375 -0.671875,1.671875 -0.109375,0.109375 -0.109375,0.125 -0.109375,0.15625 0,0.078125 0.046875,0.109375 0.09375,0.109375 0.109375,0 0.921875,-0.765625 0.921875,-1.9375 z m 0,0"
               id="path30751"
               style="stroke:none" />
          </symbol>
          <symbol
             id="textext-630dbdd6-9"
             style="overflow:visible">
            <path
               d="m 4.84375,-3.796875 c 0.046875,-0.140625 0.046875,-0.15625 0.046875,-0.234375 0,-0.171875 -0.140625,-0.265625 -0.296875,-0.265625 -0.09375,0 -0.25,0.0625 -0.34375,0.203125 -0.015625,0.0625 -0.109375,0.359375 -0.140625,0.546875 -0.078125,0.25 -0.140625,0.53125 -0.203125,0.796875 l -0.453125,1.796875 c -0.03125,0.140625 -0.46875,0.84375 -1.125,0.84375 -0.5,0 -0.609375,-0.4375 -0.609375,-0.8125 C 1.71875,-1.375 1.890625,-2 2.21875,-2.875 2.375,-3.28125 2.421875,-3.390625 2.421875,-3.59375 c 0,-0.4375 -0.3125,-0.8125 -0.8125,-0.8125 -0.953125,0 -1.3125,1.453125 -1.3125,1.53125 0,0.109375 0.09375,0.109375 0.109375,0.109375 0.109375,0 0.109375,-0.03125 0.15625,-0.1875 0.28125,-0.9375 0.671875,-1.234375 1.015625,-1.234375 0.078125,0 0.25,0 0.25,0.3125 0,0.25 -0.109375,0.515625 -0.171875,0.703125 -0.40625,1.0625 -0.578125,1.625 -0.578125,2.09375 0,0.890625 0.625,1.1875 1.21875,1.1875 0.390625,0 0.71875,-0.171875 1,-0.453125 -0.125,0.515625 -0.25,1.015625 -0.640625,1.546875 -0.265625,0.328125 -0.640625,0.625 -1.09375,0.625 -0.140625,0 -0.59375,-0.03125 -0.765625,-0.421875 0.15625,0 0.296875,0 0.421875,-0.125 C 1.328125,1.203125 1.421875,1.0625 1.421875,0.875 1.421875,0.5625 1.15625,0.53125 1.0625,0.53125 0.828125,0.53125 0.5,0.6875 0.5,1.171875 c 0,0.5 0.4375,0.875 1.0625,0.875 1.015625,0 2.046875,-0.90625 2.328125,-2.03125 z m 0,0"
               id="path30754"
               style="stroke:none" />
          </symbol>
          <symbol
             id="textext-630dbdd6-10"
             style="overflow:visible">
            <path
               d="M 1.59375,-0.78125 C 1.5,-0.390625 1.46875,-0.3125 0.6875,-0.3125 c -0.171875,0 -0.265625,0 -0.265625,0.203125 C 0.421875,0 0.515625,0 0.6875,0 L 4.25,0 C 5.828125,0 7,-1.171875 7,-2.15625 7,-2.875 6.421875,-3.453125 5.453125,-3.5625 6.484375,-3.75 7.53125,-4.484375 7.53125,-5.4375 c 0,-0.734375 -0.65625,-1.375 -1.84375,-1.375 l -3.359375,0 c -0.1875,0 -0.28125,0 -0.28125,0.203125 0,0.109375 0.09375,0.109375 0.28125,0.109375 0.015625,0 0.203125,0 0.375,0.015625 0.171875,0.03125 0.265625,0.03125 0.265625,0.171875 0,0.03125 -0.015625,0.0625 -0.03125,0.1875 z m 1.5,-2.875 0.625,-2.46875 C 3.8125,-6.46875 3.828125,-6.5 4.25,-6.5 l 1.296875,0 c 0.875,0 1.078125,0.59375 1.078125,1.03125 0,0.875 -0.859375,1.8125 -2.0625,1.8125 z m -0.4375,3.34375 c -0.140625,0 -0.15625,0 -0.21875,0 -0.109375,-0.015625 -0.140625,-0.03125 -0.140625,-0.109375 0,-0.03125 0,-0.046875 0.0625,-0.21875 l 0.6875,-2.78125 1.875,0 c 0.953125,0 1.15625,0.734375 1.15625,1.15625 C 6.078125,-1.28125 5.1875,-0.3125 4,-0.3125 z m 0,0"
               id="path30757"
               style="stroke:none" />
          </symbol>
          <symbol
             id="textext-630dbdd6-11"
             style="overflow:visible">
            <path
               d="M 1.78125,-1.140625 C 1.390625,-0.484375 1,-0.34375 0.5625,-0.3125 0.4375,-0.296875 0.34375,-0.296875 0.34375,-0.109375 0.34375,-0.046875 0.40625,0 0.484375,0 0.75,0 1.0625,-0.03125 1.328125,-0.03125 c 0.34375,0 0.6875,0.03125 1,0.03125 0.0625,0 0.1875,0 0.1875,-0.1875 0,-0.109375 -0.078125,-0.125 -0.15625,-0.125 -0.21875,-0.015625 -0.46875,-0.09375 -0.46875,-0.34375 0,-0.125 0.0625,-0.234375 0.140625,-0.375 0.078125,-0.109375 0.078125,-0.109375 0.765625,-1.265625 l 2.5,0 c 0.015625,0.203125 0.15625,1.5625 0.15625,1.65625 0,0.296875 -0.515625,0.328125 -0.71875,0.328125 C 4.59375,-0.3125 4.5,-0.3125 4.5,-0.109375 4.5,0 4.609375,0 4.640625,0 5.046875,0 5.46875,-0.03125 5.875,-0.03125 6.125,-0.03125 6.765625,0 7.015625,0 7.0625,0 7.1875,0 7.1875,-0.203125 7.1875,-0.3125 7.09375,-0.3125 6.953125,-0.3125 6.34375,-0.3125 6.34375,-0.375 6.3125,-0.671875 l -0.609375,-6.21875 c -0.015625,-0.203125 -0.015625,-0.25 -0.1875,-0.25 -0.15625,0 -0.203125,0.078125 -0.265625,0.171875 z M 2.984375,-2.609375 4.9375,-5.90625 5.265625,-2.609375 z m 0,0"
               id="path30760"
               style="stroke:none" />
          </symbol>
          <symbol
             id="textext-630dbdd6-12"
             style="overflow:visible">
            <path
               d="M 0.28125,1.6875 C 0.265625,1.71875 0.25,1.78125 0.25,1.828125 0.25,1.9375 0.34375,1.9375 0.375,1.9375 0.421875,1.9375 0.4375,1.921875 0.46875,1.890625 0.515625,1.84375 0.796875,0.5625 1.21875,-1.046875 1.375,-0.46875 1.890625,0.125 2.828125,0.125 c 1.3125,0 2.640625,-1.34375 2.640625,-2.75 0,-0.71875 -0.3125,-1.15625 -0.65625,-1.390625 C 5.5,-4.4375 5.875,-5.140625 5.875,-5.75 c 0,-0.65625 -0.453125,-1.28125 -1.328125,-1.28125 -1.296875,0 -2.421875,1.375 -2.75,2.671875 z M 3.265625,-4 C 3.375,-4.046875 3.4375,-4.078125 3.78125,-4.078125 c 0.140625,0 0.265625,0 0.390625,0.0625 C 4,-3.9375 3.78125,-3.9375 3.703125,-3.9375 c -0.25,0 -0.265625,0 -0.4375,-0.0625 z m 1.21875,-0.203125 c -0.28125,-0.09375 -0.59375,-0.09375 -0.6875,-0.09375 -0.234375,0 -0.78125,0 -0.78125,0.3125 0,0.265625 0.4375,0.265625 0.6875,0.265625 0.140625,0 0.421875,0 0.75,-0.125 C 4.671875,-3.625 4.75,-3.328125 4.75,-3.015625 c 0,0.40625 -0.203125,1.34375 -0.5,1.890625 -0.21875,0.421875 -0.734375,1.03125 -1.453125,1.03125 -0.890625,0 -1.390625,-0.65625 -1.390625,-1.46875 0,-0.234375 0.046875,-0.375 0.125,-0.734375 C 1.625,-2.671875 1.9375,-3.921875 2,-4.140625 2.46875,-5.984375 3.65625,-6.8125 4.53125,-6.8125 4.828125,-6.8125 5.25,-6.65625 5.25,-6 c 0,0.234375 -0.109375,1.3125 -0.765625,1.796875 z m 0,0"
               id="path30763"
               style="stroke:none" />
          </symbol>
          <symbol
             id="textext-630dbdd6-13"
             style="overflow:visible">
            <path
               d="m 5.15625,-3.71875 c 0.140625,0 0.5,0 0.5,-0.34375 0,-0.234375 -0.21875,-0.234375 -0.390625,-0.234375 l -2.28125,0 c -1.5,0 -2.609375,1.640625 -2.609375,2.828125 0,0.875 0.59375,1.578125 1.5,1.578125 1.171875,0 2.5,-1.203125 2.5,-2.734375 0,-0.171875 0,-0.65625 -0.3125,-1.09375 z M 1.890625,-0.109375 C 1.390625,-0.109375 1,-0.46875 1,-1.1875 c 0,-0.296875 0.109375,-1.109375 0.46875,-1.703125 0.421875,-0.6875 1.015625,-0.828125 1.359375,-0.828125 0.828125,0 0.90625,0.65625 0.90625,0.96875 0,0.46875 -0.203125,1.28125 -0.53125,1.796875 -0.390625,0.578125 -0.9375,0.84375 -1.3125,0.84375 z m 0,0"
               id="path30766"
               style="stroke:none" />
          </symbol>
          <symbol
             id="textext-630dbdd6-14"
             style="overflow:visible">
            <path
               d="M 3.59375,-2.21875 C 3.59375,-2.984375 3.5,-3.546875 3.1875,-4.03125 2.96875,-4.34375 2.53125,-4.625 1.984375,-4.625 c -1.625,0 -1.625,1.90625 -1.625,2.40625 0,0.5 0,2.359375 1.625,2.359375 1.609375,0 1.609375,-1.859375 1.609375,-2.359375 z M 1.984375,-0.0625 c -0.328125,0 -0.75,-0.1875 -0.890625,-0.75 C 1,-1.21875 1,-1.796875 1,-2.3125 1,-2.828125 1,-3.359375 1.09375,-3.734375 1.25,-4.28125 1.6875,-4.4375 1.984375,-4.4375 c 0.375,0 0.734375,0.234375 0.859375,0.640625 0.109375,0.375 0.125,0.875 0.125,1.484375 0,0.515625 0,1.03125 -0.09375,1.46875 -0.140625,0.640625 -0.609375,0.78125 -0.890625,0.78125 z m 0,0"
               id="path30769"
               style="stroke:none" />
          </symbol>
          <symbol
             id="textext-630dbdd6-15"
             style="overflow:visible">
            <path
               d="M 2.46875,-5.21875 C 1.15625,-4.296875 0.796875,-2.8125 0.796875,-1.75 c 0,0.984375 0.296875,2.515625 1.671875,3.484375 0.0625,0 0.140625,0 0.140625,-0.078125 0,-0.046875 -0.015625,-0.0625 -0.0625,-0.109375 C 1.609375,0.703125 1.28125,-0.46875 1.28125,-1.734375 1.28125,-3.625 2,-4.546875 2.5625,-5.0625 2.59375,-5.09375 2.609375,-5.109375 2.609375,-5.140625 2.609375,-5.21875 2.53125,-5.21875 2.46875,-5.21875 z m 0,0"
               id="path30772"
               style="stroke:none" />
          </symbol>
          <symbol
             id="textext-630dbdd6-16"
             style="overflow:visible">
            <path
               d="m 0.625,-5.21875 c -0.046875,0 -0.125,0 -0.125,0.078125 0,0.03125 0.015625,0.046875 0.0625,0.109375 0.59375,0.546875 1.265625,1.484375 1.265625,3.28125 0,1.453125 -0.453125,2.5625 -1.203125,3.234375 -0.125,0.125 -0.125,0.125 -0.125,0.171875 0,0.03125 0.015625,0.078125 0.078125,0.078125 0.09375,0 0.75,-0.453125 1.21875,-1.328125 0.296875,-0.578125 0.5,-1.328125 0.5,-2.140625 C 2.296875,-2.71875 2,-4.25 0.625,-5.21875 z m 0,0"
               id="path30775"
               style="stroke:none" />
          </symbol>
          <symbol
             id="textext-630dbdd6-17"
             style="overflow:visible">
            <path
               d="M 1.734375,-0.734375 C 1.671875,-0.5 1.4375,-0.125 1.078125,-0.125 c -0.015625,0 -0.234375,0 -0.375,-0.09375 0.28125,-0.09375 0.3125,-0.34375 0.3125,-0.390625 0,-0.15625 -0.125,-0.25 -0.28125,-0.25 -0.203125,0 -0.40625,0.15625 -0.40625,0.421875 0,0.34375 0.390625,0.5 0.734375,0.5 0.328125,0 0.609375,-0.1875 0.78125,-0.484375 C 2.015625,-0.0625 2.390625,0.0625 2.671875,0.0625 c 0.8125,0 1.234375,-0.859375 1.234375,-1.0625 0,-0.09375 -0.09375,-0.09375 -0.109375,-0.09375 -0.109375,0 -0.109375,0.046875 -0.140625,0.125 -0.140625,0.484375 -0.5625,0.84375 -0.953125,0.84375 -0.28125,0 -0.421875,-0.1875 -0.421875,-0.453125 0,-0.1875 0.171875,-0.8125 0.359375,-1.59375 C 2.78125,-2.703125 3.09375,-2.875 3.328125,-2.875 c 0.015625,0 0.21875,0 0.375,0.09375 -0.21875,0.0625 -0.3125,0.265625 -0.3125,0.390625 0,0.140625 0.125,0.25 0.28125,0.25 0.15625,0 0.390625,-0.125 0.390625,-0.421875 0,-0.390625 -0.453125,-0.515625 -0.71875,-0.515625 -0.359375,0 -0.640625,0.234375 -0.78125,0.5 -0.125,-0.28125 -0.453125,-0.5 -0.84375,-0.5 C 0.9375,-3.078125 0.5,-2.21875 0.5,-2 c 0,0.078125 0.09375,0.078125 0.109375,0.078125 0.09375,0 0.09375,-0.015625 0.140625,-0.109375 C 0.921875,-2.578125 1.359375,-2.875 1.703125,-2.875 1.9375,-2.875 2.125,-2.75 2.125,-2.421875 2.125,-2.28125 2.03125,-1.9375 1.96875,-1.6875 z m 0,0"
               id="path30778"
               style="stroke:none" />
          </symbol>
          <symbol
             id="textext-630dbdd6-18"
             style="overflow:visible">
            <path
               d="M 3.875,-2.625 C 3.90625,-2.71875 3.90625,-2.734375 3.90625,-2.78125 3.90625,-2.921875 3.796875,-3 3.671875,-3 3.59375,-3 3.46875,-2.96875 3.390625,-2.84375 3.359375,-2.796875 3.3125,-2.578125 3.28125,-2.4375 L 3.125,-1.859375 c -0.03125,0.171875 -0.25,1.046875 -0.28125,1.125 0,0 -0.3125,0.609375 -0.84375,0.609375 -0.484375,0 -0.484375,-0.453125 -0.484375,-0.578125 0,-0.375 0.15625,-0.8125 0.375,-1.359375 C 1.96875,-2.28125 2,-2.359375 2,-2.484375 2,-2.8125 1.71875,-3.078125 1.34375,-3.078125 0.640625,-3.078125 0.328125,-2.125 0.328125,-2 c 0,0.078125 0.09375,0.078125 0.125,0.078125 0.09375,0 0.09375,-0.03125 0.125,-0.109375 C 0.75,-2.609375 1.046875,-2.875 1.328125,-2.875 1.4375,-2.875 1.5,-2.796875 1.5,-2.640625 c 0,0.171875 -0.0625,0.3125 -0.09375,0.40625 C 1.0625,-1.375 1,-1.125 1,-0.8125 1,-0.703125 1,-0.375 1.265625,-0.140625 1.484375,0.03125 1.78125,0.0625 1.96875,0.0625 2.25,0.0625 2.5,-0.03125 2.71875,-0.25 2.640625,0.140625 2.5625,0.4375 2.265625,0.78125 2.078125,1 1.796875,1.21875 1.421875,1.21875 c -0.046875,0 -0.375,0 -0.515625,-0.21875 0.375,-0.046875 0.375,-0.375 0.375,-0.390625 0,-0.21875 -0.203125,-0.265625 -0.265625,-0.265625 -0.171875,0 -0.40625,0.140625 -0.40625,0.46875 0,0.34375 0.328125,0.609375 0.828125,0.609375 C 2.140625,1.421875 3,0.875 3.21875,0 z m 0,0"
               id="path30781"
               style="stroke:none" />
          </symbol>
          <symbol
             id="textext-630dbdd6-19"
             style="overflow:visible">
            <path
               d="m 4.078125,-2.53125 c 0.109375,0 0.1875,0 0.25,-0.046875 0.09375,-0.078125 0.125,-0.1875 0.125,-0.234375 C 4.453125,-3 4.265625,-3 4.140625,-3 l -1.78125,0 C 1.25,-3 0.40625,-1.90625 0.40625,-1.0625 c 0,0.640625 0.484375,1.125 1.203125,1.125 0.875,0 1.875,-0.78125 1.875,-1.859375 0,-0.109375 0,-0.421875 -0.203125,-0.734375 z M 1.609375,-0.125 c -0.375,0 -0.6875,-0.25 -0.6875,-0.75 0,-0.203125 0.125,-1.65625 1.328125,-1.65625 0.34375,0 0.71875,0.140625 0.71875,0.65625 0,0.140625 -0.0625,0.765625 -0.40625,1.234375 C 2.265625,-0.265625 1.875,-0.125 1.609375,-0.125 z m 0,0"
               id="path30784"
               style="stroke:none" />
          </symbol>
          <symbol
             id="textext-630dbdd6-20"
             style="overflow:visible">
            <path
               d="M 0.296875,1.15625 C 0.28125,1.234375 0.28125,1.25 0.28125,1.265625 c 0,0.09375 0.09375,0.09375 0.109375,0.09375 C 0.5,1.359375 0.5,1.34375 0.53125,1.171875 0.6875,0.5625 0.84375,-0.0625 1,-0.671875 c 0.21875,0.515625 0.734375,0.75 1.265625,0.75 1.046875,0 2.015625,-0.9375 2.015625,-1.890625 0,-0.375 -0.1875,-0.734375 -0.5,-0.96875 0.609375,-0.40625 0.734375,-0.890625 0.734375,-1.1875 0,-0.515625 -0.390625,-0.9375 -1.03125,-0.9375 -0.921875,0 -1.875,0.828125 -2.140625,1.890625 z m 2.25,-3.90625 c 0.078125,-0.03125 0.125,-0.0625 0.390625,-0.0625 0.046875,0 0.1875,0 0.28125,0.03125 -0.140625,0.0625 -0.234375,0.0625 -0.34375,0.0625 -0.109375,0 -0.21875,-0.015625 -0.328125,-0.03125 z m 0.9375,0.109375 c 0.171875,0.1875 0.21875,0.421875 0.21875,0.59375 C 3.703125,-2 3.671875,-1.1875 3.21875,-0.625 3.046875,-0.390625 2.703125,-0.109375 2.265625,-0.109375 1.625,-0.109375 1.15625,-0.53125 1.15625,-1.125 c 0,-0.015625 0,-0.125 0.015625,-0.265625 0.015625,-0.03125 0.390625,-1.546875 0.4375,-1.75 0.203125,-0.671875 0.953125,-1.5625 1.859375,-1.5625 0.34375,0 0.546875,0.21875 0.546875,0.546875 0,0.140625 -0.0625,0.46875 -0.171875,0.734375 -0.125,0.3125 -0.328125,0.484375 -0.359375,0.484375 -0.015625,0 -0.046875,0 -0.0625,-0.015625 C 3.234375,-3 3.078125,-3 2.9375,-3 c -0.203125,0 -0.640625,0 -0.640625,0.25 0,0.21875 0.328125,0.21875 0.5625,0.21875 0.171875,0 0.34375,0 0.625,-0.109375 z m 0,0"
               id="path30787"
               style="stroke:none" />
          </symbol>
          <symbol
             id="textext-630dbdd6-21"
             style="overflow:visible">
            <path
               d="M 5.140625,17.421875 C 5.15625,17.4375 5.25,17.53125 5.25,17.53125 l 0.21875,0 c 0.03125,0 0.109375,0 0.109375,-0.09375 0,-0.04687 -0.015625,-0.0625 -0.03125,-0.09375 -0.359375,-0.359375 -0.90625,-0.90625 -1.515625,-2 -1.078125,-1.921875 -1.484375,-4.375 -1.484375,-6.765625 0,-4.4375 1.265625,-7.03125 3,-8.796875 0.03125,-0.03125 0.03125,-0.0625 0.03125,-0.078125 0,-0.109375 -0.0625,-0.109375 -0.1875,-0.109375 -0.125,0 -0.140625,0 -0.234375,0.09375 C 4.203125,0.5 3.140625,1.890625 2.453125,3.984375 2.03125,5.296875 1.796875,6.90625 1.796875,8.5625 c 0,2.359375 0.421875,5.03125 1.984375,7.34375 0.28125,0.390625 0.640625,0.796875 0.640625,0.8125 C 4.53125,16.84375 4.671875,17 4.75,17.0625 z m 0,0"
               id="path30790"
               style="stroke:none" />
          </symbol>
          <symbol
             id="textext-630dbdd6-22"
             style="overflow:visible">
            <path
               d="m 4.140625,8.5625 c 0,-2.859375 -0.65625,-5.90625 -2.625,-8.140625 C 1.375,0.265625 1,-0.125 0.765625,-0.34375 c -0.0625,-0.0625 -0.09375,-0.0625 -0.21875,-0.0625 -0.09375,0 -0.1875,0 -0.1875,0.109375 0,0.03125 0.046875,0.078125 0.0625,0.09375 0.328125,0.359375 0.875,0.90625 1.484375,2 1.078125,1.90625 1.484375,4.375 1.484375,6.765625 0,4.328125 -1.203125,6.96875 -2.984375,8.796875 C 0.375,17.375 0.359375,17.40625 0.359375,17.4375 c 0,0.09375 0.09375,0.09375 0.1875,0.09375 0.125,0 0.15625,0 0.234375,-0.07813 0.953125,-0.8125 2.015625,-2.203125 2.703125,-4.296875 0.4375,-1.375 0.65625,-2.984375 0.65625,-4.59375 z m 0,0"
               id="path30793"
               style="stroke:none" />
          </symbol>
          <symbol
             id="textext-630dbdd6-23"
             style="overflow:visible">
            <path
               d="m 5.203125,-1.578125 c 0.09375,0 0.265625,0 0.265625,-0.15625 0,-0.1875 -0.171875,-0.1875 -0.265625,-0.1875 l -4.1875,0 c -0.109375,0 -0.265625,0 -0.265625,0.1875 0,0.15625 0.171875,0.15625 0.265625,0.15625 z m 0,0"
               id="path30796"
               style="stroke:none" />
          </symbol>
          <symbol
             id="textext-630dbdd6-24"
             style="overflow:visible">
            <path
               d="M 3,-1.59375 C 3,-1.953125 3,-3.3125 1.6875,-3.3125 c -1.296875,0 -1.296875,1.359375 -1.296875,1.71875 0,0.359375 0,1.703125 1.296875,1.703125 C 3,0.109375 3,-1.234375 3,-1.59375 z M 1.6875,-0.0625 C 1.515625,-0.0625 1.09375,-0.125 0.96875,-0.625 0.890625,-0.890625 0.890625,-1.25 0.890625,-1.65625 c 0,-0.375 0,-0.71875 0.078125,-1 0.125,-0.421875 0.515625,-0.5 0.71875,-0.5 0.375,0 0.640625,0.1875 0.734375,0.546875 C 2.5,-2.359375 2.5,-1.953125 2.5,-1.65625 c 0,0.34375 0,0.75 -0.078125,1.046875 C 2.296875,-0.125 1.890625,-0.0625 1.6875,-0.0625 z m 0,0"
               id="path30799"
               style="stroke:none" />
          </symbol>
          <symbol
             id="textext-630dbdd6-25"
             style="overflow:visible">
            <path
               d="m 2.9375,-0.96875 -0.21875,0 c 0,0.09375 -0.0625,0.40625 -0.140625,0.453125 -0.03125,0.03125 -0.453125,0.03125 -0.53125,0.03125 l -0.96875,0 C 1.40625,-0.71875 1.765625,-1 2.0625,-1.203125 c 0.453125,-0.3125 0.875,-0.59375 0.875,-1.125 0,-0.640625 -0.609375,-0.984375 -1.3125,-0.984375 -0.671875,0 -1.171875,0.375 -1.171875,0.875 0,0.25 0.21875,0.296875 0.296875,0.296875 0.125,0 0.28125,-0.09375 0.28125,-0.296875 0,-0.171875 -0.125,-0.28125 -0.28125,-0.28125 0.140625,-0.234375 0.4375,-0.375 0.765625,-0.375 0.484375,0 0.890625,0.28125 0.890625,0.765625 0,0.421875 -0.296875,0.75 -0.671875,1.0625 l -1.21875,1.03125 C 0.46875,-0.1875 0.453125,-0.1875 0.453125,-0.15625 l 0,0.15625 2.3125,0 z m 0,0"
               id="path30802"
               style="stroke:none" />
          </symbol>
          <symbol
             id="textext-630dbdd6-26"
             style="overflow:visible">
            <path
               d="m 3.09375,-1.953125 c -0.234375,0.0625 -0.234375,0.28125 -0.234375,0.296875 0,0.078125 0.0625,0.203125 0.234375,0.203125 0.140625,0 0.3125,-0.125 0.3125,-0.34375 0,-0.296875 -0.328125,-0.40625 -0.59375,-0.40625 -0.328125,0 -0.546875,0.203125 -0.640625,0.34375 -0.15625,-0.28125 -0.484375,-0.34375 -0.65625,-0.34375 -0.625,0 -0.984375,0.59375 -0.984375,0.765625 0,0.078125 0.078125,0.078125 0.109375,0.078125 0.046875,0 0.078125,0 0.109375,-0.0625 0.140625,-0.484375 0.546875,-0.609375 0.734375,-0.609375 0.171875,0 0.359375,0.0625 0.359375,0.328125 0,0.125 -0.09375,0.46875 -0.265625,1.140625 -0.0625,0.28125 -0.296875,0.453125 -0.515625,0.453125 -0.03125,0 -0.171875,0 -0.296875,-0.078125 0.21875,-0.09375 0.21875,-0.28125 0.21875,-0.296875 0,-0.140625 -0.109375,-0.203125 -0.21875,-0.203125 -0.125,0 -0.296875,0.09375 -0.296875,0.328125 0,0.3125 0.328125,0.421875 0.59375,0.421875 0.265625,0 0.5,-0.171875 0.609375,-0.34375 C 1.875,0.015625 2.1875,0.0625 2.34375,0.0625 c 0.625,0 0.984375,-0.59375 0.984375,-0.78125 0,-0.0625 -0.078125,-0.0625 -0.109375,-0.0625 -0.078125,0 -0.09375,0.03125 -0.109375,0.0625 C 2.96875,-0.265625 2.59375,-0.109375 2.375,-0.109375 c -0.15625,0 -0.359375,-0.0625 -0.359375,-0.34375 0,-0.0625 0,-0.09375 0.03125,-0.265625 0.09375,-0.34375 0.21875,-0.890625 0.265625,-0.984375 0.0625,-0.125 0.234375,-0.328125 0.484375,-0.328125 0.015625,0 0.1875,0 0.296875,0.078125 z m 0,0"
               id="path30805"
               style="stroke:none" />
          </symbol>
          <symbol
             id="textext-630dbdd6-27"
             style="overflow:visible">
            <path
               d="M 3.296875,-1.859375 C 3.3125,-1.9375 3.3125,-1.96875 3.3125,-1.96875 c 0,-0.109375 -0.078125,-0.171875 -0.171875,-0.171875 -0.203125,0 -0.25,0.171875 -0.28125,0.296875 L 2.75,-1.421875 c -0.0625,0.28125 -0.078125,0.359375 -0.140625,0.625 -0.03125,0.0625 -0.046875,0.15625 -0.0625,0.1875 0,0.03125 -0.265625,0.5 -0.6875,0.5 -0.234375,0 -0.40625,-0.109375 -0.40625,-0.4375 0,-0.265625 0.140625,-0.640625 0.28125,-1 0.03125,-0.046875 0.0625,-0.140625 0.0625,-0.21875 0,-0.25 -0.234375,-0.4375 -0.546875,-0.4375 -0.515625,0 -0.796875,0.640625 -0.796875,0.765625 0,0.078125 0.078125,0.078125 0.109375,0.078125 0.078125,0 0.078125,-0.03125 0.109375,-0.09375 0.109375,-0.34375 0.34375,-0.578125 0.5625,-0.578125 0.09375,0 0.15625,0.046875 0.15625,0.1875 0,0.09375 -0.03125,0.171875 -0.0625,0.265625 -0.25,0.59375 -0.296875,0.765625 -0.296875,0.96875 0,0.546875 0.46875,0.671875 0.796875,0.671875 0.28125,0 0.5,-0.140625 0.625,-0.25 -0.078125,0.28125 -0.125,0.5 -0.359375,0.734375 -0.125,0.109375 -0.359375,0.3125 -0.65625,0.3125 -0.09375,0 -0.28125,-0.015625 -0.390625,-0.125 0.21875,-0.0625 0.25,-0.25 0.25,-0.296875 0,-0.140625 -0.125,-0.203125 -0.21875,-0.203125 -0.15625,0 -0.328125,0.109375 -0.328125,0.34375 0,0.25 0.265625,0.4375 0.6875,0.4375 C 2,1.015625 2.671875,0.640625 2.828125,0 z m 0,0"
               id="path30808"
               style="stroke:none" />
          </symbol>
        </g>
      </defs>
      <g
         id="textext-630dbdd6-28">
        <g
           id="g30811"
           style="fill:#000000;fill-opacity:1">
          <use
             id="use30813"
             x="259.90701"
             y="138.35001"
             width="744.09448"
             height="1052.3622"
             xlink:href="#textext-630dbdd6-0" />
          <use
             id="use30815"
             x="269.0397"
             y="138.35001"
             width="744.09448"
             height="1052.3622"
             xlink:href="#textext-630dbdd6-1" />
        </g>
        <g
           id="g30817"
           style="fill:#000000;fill-opacity:1">
          <use
             id="use30819"
             x="272.914"
             y="138.35001"
             width="744.09448"
             height="1052.3622"
             xlink:href="#textext-630dbdd6-7" />
          <use
             id="use30821"
             x="278.60764"
             y="138.35001"
             width="744.09448"
             height="1052.3622"
             xlink:href="#textext-630dbdd6-8" />
        </g>
        <g
           id="g30823"
           style="fill:#000000;fill-opacity:1">
          <use
             id="use30825"
             x="283.039"
             y="138.35001"
             width="744.09448"
             height="1052.3622"
             xlink:href="#textext-630dbdd6-9" />
        </g>
        <g
           id="g30827"
           style="fill:#000000;fill-opacity:1">
          <use
             id="use30829"
             x="288.27802"
             y="138.35001"
             width="744.09448"
             height="1052.3622"
             xlink:href="#textext-630dbdd6-2" />
        </g>
        <g
           id="g30831"
           style="fill:#000000;fill-opacity:1">
          <use
             id="use30833"
             x="292.70599"
             y="138.35001"
             width="744.09448"
             height="1052.3622"
             xlink:href="#textext-630dbdd6-10" />
        </g>
        <g
           id="g30835"
           style="fill:#000000;fill-opacity:1">
          <use
             id="use30837"
             x="300.76077"
             y="138.35001"
             width="744.09448"
             height="1052.3622"
             xlink:href="#textext-630dbdd6-8" />
        </g>
        <g
           id="g30839"
           style="fill:#000000;fill-opacity:1">
          <use
             id="use30841"
             x="305.19214"
             y="138.35001"
             width="744.09448"
             height="1052.3622"
             xlink:href="#textext-630dbdd6-11" />
          <use
             id="use30843"
             x="312.66406"
             y="138.35001"
             width="744.09448"
             height="1052.3622"
             xlink:href="#textext-630dbdd6-8" />
        </g>
        <g
           id="g30845"
           style="fill:#000000;fill-opacity:1">
          <use
             id="use30847"
             x="317.08548"
             y="138.35001"
             width="744.09448"
             height="1052.3622"
             xlink:href="#textext-630dbdd6-7" />
        </g>
        <g
           id="g30849"
           style="fill:#000000;fill-opacity:1">
          <use
             id="use30851"
             x="322.784"
             y="139.84399"
             width="744.09448"
             height="1052.3622"
             xlink:href="#textext-630dbdd6-14" />
        </g>
        <g
           id="g30853"
           style="fill:#000000;fill-opacity:1">
          <use
             id="use30855"
             x="327.25299"
             y="138.35001"
             width="744.09448"
             height="1052.3622"
             xlink:href="#textext-630dbdd6-8" />
        </g>
        <g
           id="g30857"
           style="fill:#000000;fill-opacity:1">
          <use
             id="use30859"
             x="331.68436"
             y="138.35001"
             width="744.09448"
             height="1052.3622"
             xlink:href="#textext-630dbdd6-9" />
        </g>
        <g
           id="g30861"
           style="fill:#000000;fill-opacity:1">
          <use
             id="use30863"
             x="336.56601"
             y="139.84399"
             width="744.09448"
             height="1052.3622"
             xlink:href="#textext-630dbdd6-14" />
        </g>
        <g
           id="g30865"
           style="fill:#000000;fill-opacity:1">
          <use
             id="use30867"
             x="341.035"
             y="138.35001"
             width="744.09448"
             height="1052.3622"
             xlink:href="#textext-630dbdd6-8" />
        </g>
        <g
           id="g30869"
           style="fill:#000000;fill-opacity:1">
          <use
             id="use30871"
             x="345.46637"
             y="138.35001"
             width="744.09448"
             height="1052.3622"
             xlink:href="#textext-630dbdd6-12" />
        </g>
        <g
           id="g30873"
           style="fill:#000000;fill-opacity:1">
          <use
             id="use30875"
             x="351.61926"
             y="138.35001"
             width="744.09448"
             height="1052.3622"
             xlink:href="#textext-630dbdd6-8" />
        </g>
        <g
           id="g30877"
           style="fill:#000000;fill-opacity:1">
          <use
             id="use30879"
             x="356.05063"
             y="138.35001"
             width="744.09448"
             height="1052.3622"
             xlink:href="#textext-630dbdd6-13" />
        </g>
        <g
           id="g30881"
           style="fill:#000000;fill-opacity:1">
          <use
             id="use30883"
             x="361.74399"
             y="139.84399"
             width="744.09448"
             height="1052.3622"
             xlink:href="#textext-630dbdd6-17" />
        </g>
        <g
           id="g30885"
           style="fill:#000000;fill-opacity:1">
          <use
             id="use30887"
             x="366.76001"
             y="138.35001"
             width="744.09448"
             height="1052.3622"
             xlink:href="#textext-630dbdd6-8" />
        </g>
        <g
           id="g30889"
           style="fill:#000000;fill-opacity:1">
          <use
             id="use30891"
             x="371.19138"
             y="138.35001"
             width="744.09448"
             height="1052.3622"
             xlink:href="#textext-630dbdd6-13" />
        </g>
        <g
           id="g30893"
           style="fill:#000000;fill-opacity:1">
          <use
             id="use30895"
             x="376.88101"
             y="139.84399"
             width="744.09448"
             height="1052.3622"
             xlink:href="#textext-630dbdd6-18" />
        </g>
        <g
           id="g30897"
           style="fill:#000000;fill-opacity:1">
          <use
             id="use30899"
             x="381.67001"
             y="138.35001"
             width="744.09448"
             height="1052.3622"
             xlink:href="#textext-630dbdd6-3" />
        </g>
        <g
           id="g30901"
           style="fill:#000000;fill-opacity:1">
          <use
             id="use30903"
             x="388.31406"
             y="138.35001"
             width="744.09448"
             height="1052.3622"
             xlink:href="#textext-630dbdd6-4" />
        </g>
        <g
           id="g30905"
           style="fill:#000000;fill-opacity:1">
          <use
             id="use30907"
             x="398.827"
             y="138.35001"
             width="744.09448"
             height="1052.3622"
             xlink:href="#textext-630dbdd6-10" />
        </g>
        <g
           id="g30909"
           style="fill:#000000;fill-opacity:1">
          <use
             id="use30911"
             x="409.09799"
             y="138.35001"
             width="744.09448"
             height="1052.3622"
             xlink:href="#textext-630dbdd6-5" />
        </g>
        <g
           id="g30913"
           style="fill:#000000;fill-opacity:1">
          <use
             id="use30915"
             x="471.12799"
             y="131.61"
             width="744.09448"
             height="1052.3622"
             xlink:href="#textext-630dbdd6-11" />
        </g>
        <path
           d="m 0.0018125,-3.75e-4 109.2148475,0"
           transform="matrix(1,0,0,-1,420.256,135.859)"
           id="path30917"
           style="fill:none;stroke:#000000;stroke-width:0.398;stroke-linecap:butt;stroke-linejoin:miter;stroke-miterlimit:10;stroke-opacity:1" />
        <g
           id="g30919"
           style="fill:#000000;fill-opacity:1">
          <use
             id="use30921"
             x="420.25601"
             y="140.032"
             width="744.09448"
             height="1052.3622"
             xlink:href="#textext-630dbdd6-21" />
        </g>
        <g
           id="g30923"
           style="fill:#000000;fill-opacity:1">
          <use
             id="use30925"
             x="426.20599"
             y="151.091"
             width="744.09448"
             height="1052.3622"
             xlink:href="#textext-630dbdd6-6" />
        </g>
        <g
           id="g30927"
           style="fill:#000000;fill-opacity:1">
          <use
             id="use30929"
             x="433.39899"
             y="151.091"
             width="744.09448"
             height="1052.3622"
             xlink:href="#textext-630dbdd6-5" />
        </g>
        <g
           id="g30931"
           style="fill:#000000;fill-opacity:1">
          <use
             id="use30933"
             x="444.55899"
             y="146.259"
             width="744.09448"
             height="1052.3622"
             xlink:href="#textext-630dbdd6-15" />
        </g>
        <g
           id="g30935"
           style="fill:#000000;fill-opacity:1">
          <use
             id="use30937"
             x="447.672"
             y="146.259"
             width="744.09448"
             height="1052.3622"
             xlink:href="#textext-630dbdd6-17" />
        </g>
        <g
           id="g30939"
           style="fill:#000000;fill-opacity:1">
          <use
             id="use30941"
             x="452.19"
             y="146.259"
             width="744.09448"
             height="1052.3622"
             xlink:href="#textext-630dbdd6-23" />
        </g>
        <g
           id="g30943"
           style="fill:#000000;fill-opacity:1">
          <use
             id="use30945"
             x="458.41699"
             y="146.259"
             width="744.09448"
             height="1052.3622"
             xlink:href="#textext-630dbdd6-17" />
        </g>
        <g
           id="g30947"
           style="fill:#000000;fill-opacity:1">
          <use
             id="use30949"
             x="462.935"
             y="147.255"
             width="744.09448"
             height="1052.3622"
             xlink:href="#textext-630dbdd6-24" />
        </g>
        <g
           id="g30951"
           style="fill:#000000;fill-opacity:1">
          <use
             id="use30953"
             x="466.823"
             y="146.259"
             width="744.09448"
             height="1052.3622"
             xlink:href="#textext-630dbdd6-16" />
        </g>
        <g
           id="g30955"
           style="fill:#000000;fill-opacity:1">
          <use
             id="use30957"
             x="469.936"
             y="144.267"
             width="744.09448"
             height="1052.3622"
             xlink:href="#textext-630dbdd6-25" />
        </g>
        <path
           d="m -4.0625e-4,-0.0015625 29.26562525,0"
           transform="matrix(1,0,0,-1,444.559,148.6)"
           id="path30959"
           style="fill:none;stroke:#000000;stroke-width:0.398;stroke-linecap:butt;stroke-linejoin:miter;stroke-miterlimit:10;stroke-opacity:1" />
        <g
           id="g30961"
           style="fill:#000000;fill-opacity:1">
          <use
             id="use30963"
             x="454.66299"
             y="154.526"
             width="744.09448"
             height="1052.3622"
             xlink:href="#textext-630dbdd6-19" />
        </g>
        <g
           id="g30965"
           style="fill:#000000;fill-opacity:1">
          <use
             id="use30967"
             x="459.53"
             y="152.534"
             width="744.09448"
             height="1052.3622"
             xlink:href="#textext-630dbdd6-25" />
        </g>
        <g
           id="g30969"
           style="fill:#000000;fill-opacity:1">
          <use
             id="use30971"
             x="459.27899"
             y="156.519"
             width="744.09448"
             height="1052.3622"
             xlink:href="#textext-630dbdd6-26" />
        </g>
        <g
           id="g30973"
           style="fill:#000000;fill-opacity:1">
          <use
             id="use30975"
             x="477.23401"
             y="151.091"
             width="744.09448"
             height="1052.3622"
             xlink:href="#textext-630dbdd6-5" />
        </g>
        <g
           id="g30977"
           style="fill:#000000;fill-opacity:1">
          <use
             id="use30979"
             x="488.392"
             y="146.259"
             width="744.09448"
             height="1052.3622"
             xlink:href="#textext-630dbdd6-15" />
        </g>
        <g
           id="g30981"
           style="fill:#000000;fill-opacity:1">
          <use
             id="use30983"
             x="491.505"
             y="146.259"
             width="744.09448"
             height="1052.3622"
             xlink:href="#textext-630dbdd6-18" />
        </g>
        <g
           id="g30985"
           style="fill:#000000;fill-opacity:1">
          <use
             id="use30987"
             x="495.79599"
             y="146.259"
             width="744.09448"
             height="1052.3622"
             xlink:href="#textext-630dbdd6-23" />
        </g>
        <g
           id="g30989"
           style="fill:#000000;fill-opacity:1">
          <use
             id="use30991"
             x="502.02301"
             y="146.259"
             width="744.09448"
             height="1052.3622"
             xlink:href="#textext-630dbdd6-18" />
        </g>
        <g
           id="g30993"
           style="fill:#000000;fill-opacity:1">
          <use
             id="use30995"
             x="506.06299"
             y="147.255"
             width="744.09448"
             height="1052.3622"
             xlink:href="#textext-630dbdd6-24" />
        </g>
        <g
           id="g30997"
           style="fill:#000000;fill-opacity:1">
          <use
             id="use30999"
             x="509.95099"
             y="146.259"
             width="744.09448"
             height="1052.3622"
             xlink:href="#textext-630dbdd6-16" />
        </g>
        <g
           id="g31001"
           style="fill:#000000;fill-opacity:1">
          <use
             id="use31003"
             x="513.065"
             y="144.267"
             width="744.09448"
             height="1052.3622"
             xlink:href="#textext-630dbdd6-25" />
        </g>
        <path
           d="m -0.001375,-0.0015625 28.5625,0"
           transform="matrix(1,0,0,-1,488.392,148.6)"
           id="path31005"
           style="fill:none;stroke:#000000;stroke-width:0.398;stroke-linecap:butt;stroke-linejoin:miter;stroke-miterlimit:10;stroke-opacity:1" />
        <g
           id="g31007"
           style="fill:#000000;fill-opacity:1">
          <use
             id="use31009"
             x="498.20599"
             y="154.526"
             width="744.09448"
             height="1052.3622"
             xlink:href="#textext-630dbdd6-19" />
        </g>
        <g
           id="g31011"
           style="fill:#000000;fill-opacity:1">
          <use
             id="use31013"
             x="503.073"
             y="152.534"
             width="744.09448"
             height="1052.3622"
             xlink:href="#textext-630dbdd6-25" />
        </g>
        <g
           id="g31015"
           style="fill:#000000;fill-opacity:1">
          <use
             id="use31017"
             x="502.823"
             y="156.519"
             width="744.09448"
             height="1052.3622"
             xlink:href="#textext-630dbdd6-27" />
        </g>
        <g
           id="g31019"
           style="fill:#000000;fill-opacity:1">
          <use
             id="use31021"
             x="518.14801"
             y="140.032"
             width="744.09448"
             height="1052.3622"
             xlink:href="#textext-630dbdd6-22" />
        </g>
        <g
           id="g31023"
           style="fill:#000000;fill-opacity:1">
          <use
             id="use31025"
             x="524.09802"
             y="142.097"
             width="744.09448"
             height="1052.3622"
             xlink:href="#textext-630dbdd6-20" />
        </g>
      </g>
    </g>
  </g>
</svg>
