<?xml version="1.0" encoding="UTF-8" standalone="no"?>
<!-- Created with Inkscape (http://www.inkscape.org/) -->

<svg
   xmlns:dc="http://purl.org/dc/elements/1.1/"
   xmlns:cc="http://creativecommons.org/ns#"
   xmlns:rdf="http://www.w3.org/1999/02/22-rdf-syntax-ns#"
   xmlns:svg="http://www.w3.org/2000/svg"
   xmlns="http://www.w3.org/2000/svg"
   xmlns:xlink="http://www.w3.org/1999/xlink"
   version="1.1"
   width="188.10001"
   height="50"
   id="svg46358">
  <defs
     id="defs46360" />
  <metadata
     id="metadata46363">
    <rdf:RDF>
      <cc:Work
         rdf:about="">
        <dc:format>image/svg+xml</dc:format>
        <dc:type
           rdf:resource="http://purl.org/dc/dcmitype/StillImage" />
        <dc:title></dc:title>
      </cc:Work>
    </rdf:RDF>
  </metadata>
  <g
     transform="translate(-223.27371,-560.26004)"
     id="layer1">
    <g
       transform="matrix(2,0,0,2,-453.2004,306.74379)"
       id="g36800">
      <defs
         id="defs36802">
        <g
           id="g36804">
          <symbol
             id="textext-16dca08f-0"
             style="overflow:visible">
            <path
               d="M 3.328125,-3.015625 C 3.390625,-3.265625 3.625,-4.1875 4.3125,-4.1875 c 0.046875,0 0.296875,0 0.5,0.125 C 4.53125,-4 4.34375,-3.765625 4.34375,-3.515625 c 0,0.15625 0.109375,0.34375 0.375,0.34375 0.21875,0 0.53125,-0.171875 0.53125,-0.578125 0,-0.515625 -0.578125,-0.65625 -0.921875,-0.65625 -0.578125,0 -0.921875,0.53125 -1.046875,0.75 -0.25,-0.65625 -0.78125,-0.75 -1.078125,-0.75 -1.03125,0 -1.609375,1.28125 -1.609375,1.53125 0,0.109375 0.109375,0.109375 0.125,0.109375 0.078125,0 0.109375,-0.03125 0.125,-0.109375 0.34375,-1.0625 1,-1.3125 1.34375,-1.3125 0.1875,0 0.53125,0.09375 0.53125,0.671875 0,0.3125 -0.171875,0.96875 -0.53125,2.375 -0.15625,0.609375 -0.515625,1.03125 -0.953125,1.03125 -0.0625,0 -0.28125,0 -0.5,-0.125 0.25,-0.0625 0.46875,-0.265625 0.46875,-0.546875 0,-0.265625 -0.21875,-0.34375 -0.359375,-0.34375 -0.3125,0 -0.546875,0.25 -0.546875,0.578125 0,0.453125 0.484375,0.65625 0.921875,0.65625 0.671875,0 1.03125,-0.703125 1.046875,-0.75 0.125,0.359375 0.484375,0.75 1.078125,0.75 1.03125,0 1.59375,-1.28125 1.59375,-1.53125 0,-0.109375 -0.078125,-0.109375 -0.109375,-0.109375 -0.09375,0 -0.109375,0.046875 -0.140625,0.109375 -0.328125,1.078125 -1,1.3125 -1.3125,1.3125 -0.390625,0 -0.546875,-0.3125 -0.546875,-0.65625 0,-0.21875 0.046875,-0.4375 0.15625,-0.875 z m 0,0"
               id="path36807"
               style="stroke:none" />
          </symbol>
          <symbol
             id="textext-16dca08f-1"
             style="overflow:visible">
            <path
               d="m 4.53125,-4.984375 c 0,-0.65625 -0.171875,-2.046875 -1.1875,-2.046875 -1.390625,0 -2.921875,2.8125 -2.921875,5.09375 0,0.9375 0.28125,2.046875 1.1875,2.046875 1.40625,0 2.921875,-2.859375 2.921875,-5.09375 z M 1.46875,-3.625 C 1.640625,-4.25 1.84375,-5.046875 2.25,-5.765625 2.515625,-6.25 2.875,-6.8125 3.328125,-6.8125 c 0.484375,0 0.546875,0.640625 0.546875,1.203125 0,0.5 -0.078125,1 -0.3125,1.984375 z m 2,0.328125 C 3.359375,-2.84375 3.15625,-2 2.765625,-1.28125 c -0.34375,0.6875 -0.71875,1.171875 -1.15625,1.171875 -0.328125,0 -0.53125,-0.296875 -0.53125,-1.21875 0,-0.421875 0.0625,-1 0.3125,-1.96875 z m 0,0"
               id="path36810"
               style="stroke:none" />
          </symbol>
          <symbol
             id="textext-16dca08f-2"
             style="overflow:visible">
            <path
               d="m 4.84375,-3.796875 c 0.046875,-0.140625 0.046875,-0.15625 0.046875,-0.234375 0,-0.171875 -0.140625,-0.265625 -0.296875,-0.265625 -0.09375,0 -0.25,0.0625 -0.34375,0.203125 -0.015625,0.0625 -0.109375,0.359375 -0.140625,0.546875 -0.078125,0.25 -0.140625,0.53125 -0.203125,0.796875 l -0.453125,1.796875 c -0.03125,0.140625 -0.46875,0.84375 -1.125,0.84375 -0.5,0 -0.609375,-0.4375 -0.609375,-0.8125 C 1.71875,-1.375 1.890625,-2 2.21875,-2.875 2.375,-3.28125 2.421875,-3.390625 2.421875,-3.59375 c 0,-0.4375 -0.3125,-0.8125 -0.8125,-0.8125 -0.953125,0 -1.3125,1.453125 -1.3125,1.53125 0,0.109375 0.09375,0.109375 0.109375,0.109375 0.109375,0 0.109375,-0.03125 0.15625,-0.1875 0.28125,-0.9375 0.671875,-1.234375 1.015625,-1.234375 0.078125,0 0.25,0 0.25,0.3125 0,0.25 -0.109375,0.515625 -0.171875,0.703125 -0.40625,1.0625 -0.578125,1.625 -0.578125,2.09375 0,0.890625 0.625,1.1875 1.21875,1.1875 0.390625,0 0.71875,-0.171875 1,-0.453125 -0.125,0.515625 -0.25,1.015625 -0.640625,1.546875 -0.265625,0.328125 -0.640625,0.625 -1.09375,0.625 -0.140625,0 -0.59375,-0.03125 -0.765625,-0.421875 0.15625,0 0.296875,0 0.421875,-0.125 C 1.328125,1.203125 1.421875,1.0625 1.421875,0.875 1.421875,0.5625 1.15625,0.53125 1.0625,0.53125 0.828125,0.53125 0.5,0.6875 0.5,1.171875 c 0,0.5 0.4375,0.875 1.0625,0.875 1.015625,0 2.046875,-0.90625 2.328125,-2.03125 z m 0,0"
               id="path36813"
               style="stroke:none" />
          </symbol>
          <symbol
             id="textext-16dca08f-3"
             style="overflow:visible">
            <path
               d="m 2.03125,-3.296875 c 0.03125,-0.0625 0.046875,-0.125 0.046875,-0.21875 0,-0.21875 -0.1875,-0.375 -0.40625,-0.375 -0.28125,0 -0.34375,0.21875 -0.375,0.3125 L 0.375,-0.5625 c -0.015625,0.03125 -0.046875,0.109375 -0.046875,0.125 0,0.078125 0.21875,0.15625 0.28125,0.15625 0.046875,0 0.078125,-0.046875 0.09375,-0.109375 z m 0,0"
               id="path36816"
               style="stroke:none" />
          </symbol>
          <symbol
             id="textext-16dca08f-4"
             style="overflow:visible">
            <path
               d="m 6.84375,-3.265625 c 0.15625,0 0.34375,0 0.34375,-0.1875 C 7.1875,-3.65625 7,-3.65625 6.859375,-3.65625 l -5.96875,0 c -0.140625,0 -0.328125,0 -0.328125,0.203125 0,0.1875 0.1875,0.1875 0.328125,0.1875 z m 0.015625,1.9375 c 0.140625,0 0.328125,0 0.328125,-0.203125 0,-0.1875 -0.1875,-0.1875 -0.34375,-0.1875 l -5.953125,0 c -0.140625,0 -0.328125,0 -0.328125,0.1875 0,0.203125 0.1875,0.203125 0.328125,0.203125 z m 0,0"
               id="path36819"
               style="stroke:none" />
          </symbol>
          <symbol
             id="textext-16dca08f-5"
             style="overflow:visible">
            <path
               d="m 4.078125,-2.296875 2.78125,0 C 7,-2.296875 7.1875,-2.296875 7.1875,-2.5 7.1875,-2.6875 7,-2.6875 6.859375,-2.6875 l -2.78125,0 0,-2.796875 c 0,-0.140625 0,-0.328125 -0.203125,-0.328125 -0.203125,0 -0.203125,0.1875 -0.203125,0.328125 l 0,2.796875 -2.78125,0 c -0.140625,0 -0.328125,0 -0.328125,0.1875 0,0.203125 0.1875,0.203125 0.328125,0.203125 l 2.78125,0 0,2.796875 c 0,0.140625 0,0.328125 0.203125,0.328125 0.203125,0 0.203125,-0.1875 0.203125,-0.328125 z m 0,0"
               id="path36822"
               style="stroke:none" />
          </symbol>
          <symbol
             id="textext-16dca08f-6"
             style="overflow:visible">
            <path
               d="m 3.578125,-3.84375 c -0.40625,0.03125 -0.46875,0.328125 -0.46875,0.453125 0,0.265625 0.1875,0.453125 0.453125,0.453125 0.265625,0 0.46875,-0.15625 0.46875,-0.46875 0,-0.671875 -0.765625,-1.0625 -1.53125,-1.0625 -1.25,0 -2.15625,1.078125 -2.15625,2.3125 0,1.28125 0.984375,2.265625 2.140625,2.265625 1.328125,0 1.65625,-1.203125 1.65625,-1.296875 0,-0.09375 -0.109375,-0.09375 -0.140625,-0.09375 -0.078125,0 -0.109375,0.03125 -0.125,0.09375 -0.28125,0.921875 -0.9375,1.046875 -1.296875,1.046875 -0.53125,0 -1.40625,-0.421875 -1.40625,-2.03125 0,-1.625 0.8125,-2.046875 1.34375,-2.046875 0.09375,0 0.71875,0.015625 1.0625,0.375 z m 0,0"
               id="path36825"
               style="stroke:none" />
          </symbol>
          <symbol
             id="textext-16dca08f-7"
             style="overflow:visible">
            <path
               d="M 4.6875,-2.140625 C 4.6875,-3.40625 3.703125,-4.46875 2.5,-4.46875 c -1.25,0 -2.21875,1.09375 -2.21875,2.328125 0,1.296875 1.03125,2.25 2.203125,2.25 1.203125,0 2.203125,-0.984375 2.203125,-2.25 z m -2.1875,2 c -0.4375,0 -0.875,-0.203125 -1.140625,-0.671875 -0.25,-0.4375 -0.25,-1.046875 -0.25,-1.40625 0,-0.390625 0,-0.921875 0.234375,-1.359375 C 1.609375,-4.03125 2.078125,-4.25 2.484375,-4.25 c 0.4375,0 0.859375,0.21875 1.125,0.65625 0.265625,0.421875 0.265625,1 0.265625,1.375 0,0.359375 0,0.90625 -0.21875,1.34375 C 3.421875,-0.421875 2.984375,-0.140625 2.5,-0.140625 z m 0,0"
               id="path36828"
               style="stroke:none" />
          </symbol>
          <symbol
             id="textext-16dca08f-8"
             style="overflow:visible">
            <path
               d="m 2.078125,-1.9375 c 0.21875,0.046875 1.03125,0.203125 1.03125,0.921875 0,0.5 -0.34375,0.90625 -1.125,0.90625 -0.84375,0 -1.203125,-0.5625 -1.390625,-1.421875 C 0.5625,-1.65625 0.5625,-1.6875 0.453125,-1.6875 c -0.125,0 -0.125,0.0625 -0.125,0.234375 l 0,1.328125 c 0,0.171875 0,0.234375 0.109375,0.234375 0.046875,0 0.0625,-0.015625 0.25,-0.203125 0.015625,-0.015625 0.015625,-0.03125 0.203125,-0.21875 0.4375,0.40625 0.890625,0.421875 1.09375,0.421875 1.140625,0 1.609375,-0.671875 1.609375,-1.390625 0,-0.515625 -0.296875,-0.828125 -0.421875,-0.9375 C 2.84375,-2.546875 2.453125,-2.625 2.03125,-2.703125 1.46875,-2.8125 0.8125,-2.9375 0.8125,-3.515625 c 0,-0.359375 0.25,-0.765625 1.109375,-0.765625 1.09375,0 1.15625,0.90625 1.171875,1.203125 0,0.09375 0.09375,0.09375 0.109375,0.09375 0.140625,0 0.140625,-0.046875 0.140625,-0.234375 l 0,-1.015625 c 0,-0.15625 0,-0.234375 -0.109375,-0.234375 -0.046875,0 -0.078125,0 -0.203125,0.125 -0.03125,0.03125 -0.125,0.125 -0.171875,0.15625 -0.375,-0.28125 -0.78125,-0.28125 -0.9375,-0.28125 -1.21875,0 -1.59375,0.671875 -1.59375,1.234375 0,0.34375 0.15625,0.625 0.421875,0.84375 0.328125,0.25 0.609375,0.3125 1.328125,0.453125 z m 0,0"
               id="path36831"
               style="stroke:none" />
          </symbol>
          <symbol
             id="textext-16dca08f-9"
             style="overflow:visible">
            <path
               d="M 1.765625,-4.40625 0.375,-4.296875 l 0,0.3125 c 0.640625,0 0.734375,0.0625 0.734375,0.546875 l 0,2.6875 c 0,0.4375 -0.109375,0.4375 -0.78125,0.4375 l 0,0.3125 C 0.640625,-0.015625 1.1875,-0.03125 1.421875,-0.03125 1.78125,-0.03125 2.125,-0.015625 2.46875,0 l 0,-0.3125 c -0.671875,0 -0.703125,-0.046875 -0.703125,-0.4375 z m 0.03125,-1.734375 c 0,-0.3125 -0.234375,-0.53125 -0.515625,-0.53125 -0.3125,0 -0.53125,0.265625 -0.53125,0.53125 0,0.265625 0.21875,0.53125 0.53125,0.53125 0.28125,0 0.515625,-0.21875 0.515625,-0.53125 z m 0,0"
               id="path36834"
               style="stroke:none" />
          </symbol>
          <symbol
             id="textext-16dca08f-10"
             style="overflow:visible">
            <path
               d="m 1.09375,-3.421875 0,2.671875 c 0,0.4375 -0.109375,0.4375 -0.78125,0.4375 l 0,0.3125 c 0.359375,-0.015625 0.859375,-0.03125 1.140625,-0.03125 0.25,0 0.765625,0.015625 1.109375,0.03125 l 0,-0.3125 c -0.671875,0 -0.78125,0 -0.78125,-0.4375 l 0,-1.84375 C 1.78125,-3.625 2.5,-4.1875 3.125,-4.1875 c 0.640625,0 0.75,0.53125 0.75,1.109375 l 0,2.328125 c 0,0.4375 -0.109375,0.4375 -0.78125,0.4375 l 0,0.3125 c 0.34375,-0.015625 0.859375,-0.03125 1.125,-0.03125 0.25,0 0.78125,0.015625 1.109375,0.03125 l 0,-0.3125 c -0.515625,0 -0.765625,0 -0.765625,-0.296875 l 0,-1.90625 c 0,-0.859375 0,-1.15625 -0.3125,-1.515625 -0.140625,-0.171875 -0.46875,-0.375 -1.046875,-0.375 C 2.46875,-4.40625 2,-3.984375 1.71875,-3.359375 l 0,-1.046875 -1.40625,0.109375 0,0.3125 c 0.703125,0 0.78125,0.0625 0.78125,0.5625 z m 0,0"
               id="path36837"
               style="stroke:none" />
          </symbol>
          <symbol
             id="textext-16dca08f-11"
             style="overflow:visible">
            <path
               d="m 6.59375,-2.296875 c 0.140625,0 0.328125,0 0.328125,-0.203125 0,-0.1875 -0.1875,-0.1875 -0.328125,-0.1875 l -5.4375,0 c -0.140625,0 -0.328125,0 -0.328125,0.1875 0,0.203125 0.1875,0.203125 0.328125,0.203125 z m 0,0"
               id="path36840"
               style="stroke:none" />
          </symbol>
        </g>
      </defs>
      <g
         id="textext-16dca08f-12">
        <g
           id="g36843"
           style="fill:#000000;fill-opacity:1">
          <use
             id="use36845"
             x="337.948"
             y="134.765"
             width="744.09448"
             height="1052.3622"
             xlink:href="#textext-16dca08f-0" />
        </g>
        <g
           id="g36847"
           style="fill:#000000;fill-opacity:1">
          <use
             id="use36849"
             x="343.642"
             y="130.651"
             width="744.09448"
             height="1052.3622"
             xlink:href="#textext-16dca08f-3" />
        </g>
        <g
           id="g36851"
           style="fill:#000000;fill-opacity:1">
          <use
             id="use36853"
             x="349.20499"
             y="134.765"
             width="744.09448"
             height="1052.3622"
             xlink:href="#textext-16dca08f-4" />
        </g>
        <g
           id="g36855"
           style="fill:#000000;fill-opacity:1">
          <use
             id="use36857"
             x="359.72351"
             y="134.765"
             width="744.09448"
             height="1052.3622"
             xlink:href="#textext-16dca08f-5" />
        </g>
        <g
           id="g36859"
           style="fill:#000000;fill-opacity:1">
          <use
             id="use36861"
             x="367.47"
             y="134.765"
             width="744.09448"
             height="1052.3622"
             xlink:href="#textext-16dca08f-0" />
        </g>
        <g
           id="g36863"
           style="fill:#000000;fill-opacity:1">
          <use
             id="use36865"
             x="374.82401"
             y="134.765"
             width="744.09448"
             height="1052.3622"
             xlink:href="#textext-16dca08f-6" />
          <use
             id="use36867"
             x="379.25137"
             y="134.765"
             width="744.09448"
             height="1052.3622"
             xlink:href="#textext-16dca08f-7" />
          <use
             id="use36869"
             x="384.23267"
             y="134.765"
             width="744.09448"
             height="1052.3622"
             xlink:href="#textext-16dca08f-8" />
        </g>
        <g
           id="g36871"
           style="fill:#000000;fill-opacity:1">
          <use
             id="use36873"
             x="389.823"
             y="134.765"
             width="744.09448"
             height="1052.3622"
             xlink:href="#textext-16dca08f-1" />
        </g>
        <g
           id="g36875"
           style="fill:#000000;fill-opacity:1">
          <use
             id="use36877"
             x="396.991"
             y="134.765"
             width="744.09448"
             height="1052.3622"
             xlink:href="#textext-16dca08f-5" />
        </g>
        <g
           id="g36879"
           style="fill:#000000;fill-opacity:1">
          <use
             id="use36881"
             x="406.953"
             y="134.765"
             width="744.09448"
             height="1052.3622"
             xlink:href="#textext-16dca08f-2" />
        </g>
        <g
           id="g36883"
           style="fill:#000000;fill-opacity:1">
          <use
             id="use36885"
             x="413.85599"
             y="134.765"
             width="744.09448"
             height="1052.3622"
             xlink:href="#textext-16dca08f-8" />
          <use
             id="use36887"
             x="417.78525"
             y="134.765"
             width="744.09448"
             height="1052.3622"
             xlink:href="#textext-16dca08f-9" />
          <use
             id="use36889"
             x="420.55286"
             y="134.765"
             width="744.09448"
             height="1052.3622"
             xlink:href="#textext-16dca08f-10" />
        </g>
        <g
           id="g36891"
           style="fill:#000000;fill-opacity:1">
          <use
             id="use36893"
             x="427.74799"
             y="134.765"
             width="744.09448"
             height="1052.3622"
             xlink:href="#textext-16dca08f-1" />
        </g>
        <g
           id="g36895"
           style="fill:#000000;fill-opacity:1">
          <use
             id="use36897"
             x="338.39999"
             y="149.709"
             width="744.09448"
             height="1052.3622"
             xlink:href="#textext-16dca08f-2" />
        </g>
        <g
           id="g36899"
           style="fill:#000000;fill-opacity:1">
          <use
             id="use36901"
             x="343.642"
             y="145.595"
             width="744.09448"
             height="1052.3622"
             xlink:href="#textext-16dca08f-3" />
        </g>
        <g
           id="g36903"
           style="fill:#000000;fill-opacity:1">
          <use
             id="use36905"
             x="349.20499"
             y="149.709"
             width="744.09448"
             height="1052.3622"
             xlink:href="#textext-16dca08f-4" />
        </g>
        <g
           id="g36907"
           style="fill:#000000;fill-opacity:1">
          <use
             id="use36909"
             x="359.72101"
             y="149.709"
             width="744.09448"
             height="1052.3622"
             xlink:href="#textext-16dca08f-11" />
        </g>
        <g
           id="g36911"
           style="fill:#000000;fill-opacity:1">
          <use
             id="use36913"
             x="367.47"
             y="149.709"
             width="744.09448"
             height="1052.3622"
             xlink:href="#textext-16dca08f-0" />
        </g>
        <g
           id="g36915"
           style="fill:#000000;fill-opacity:1">
          <use
             id="use36917"
             x="374.82401"
             y="149.709"
             width="744.09448"
             height="1052.3622"
             xlink:href="#textext-16dca08f-8" />
          <use
             id="use36919"
             x="378.75323"
             y="149.709"
             width="744.09448"
             height="1052.3622"
             xlink:href="#textext-16dca08f-9" />
          <use
             id="use36921"
             x="381.52087"
             y="149.709"
             width="744.09448"
             height="1052.3622"
             xlink:href="#textext-16dca08f-10" />
        </g>
        <g
           id="g36923"
           style="fill:#000000;fill-opacity:1">
          <use
             id="use36925"
             x="388.716"
             y="149.709"
             width="744.09448"
             height="1052.3622"
             xlink:href="#textext-16dca08f-1" />
        </g>
        <g
           id="g36927"
           style="fill:#000000;fill-opacity:1">
          <use
             id="use36929"
             x="395.884"
             y="149.709"
             width="744.09448"
             height="1052.3622"
             xlink:href="#textext-16dca08f-5" />
        </g>
        <g
           id="g36931"
           style="fill:#000000;fill-opacity:1">
          <use
             id="use36933"
             x="405.84601"
             y="149.709"
             width="744.09448"
             height="1052.3622"
             xlink:href="#textext-16dca08f-2" />
        </g>
        <g
           id="g36935"
           style="fill:#000000;fill-opacity:1">
          <use
             id="use36937"
             x="412.74899"
             y="149.709"
             width="744.09448"
             height="1052.3622"
             xlink:href="#textext-16dca08f-6" />
          <use
             id="use36939"
             x="417.17639"
             y="149.709"
             width="744.09448"
             height="1052.3622"
             xlink:href="#textext-16dca08f-7" />
          <use
             id="use36941"
             x="422.15768"
             y="149.709"
             width="744.09448"
             height="1052.3622"
             xlink:href="#textext-16dca08f-8" />
        </g>
        <g
           id="g36943"
           style="fill:#000000;fill-opacity:1">
          <use
             id="use36945"
             x="427.74799"
             y="149.709"
             width="744.09448"
             height="1052.3622"
             xlink:href="#textext-16dca08f-1" />
        </g>
      </g>
    </g>
  </g>
</svg>
