<?xml version="1.0" encoding="UTF-8" standalone="no"?>
<!-- Created with Inkscape (http://www.inkscape.org/) -->

<svg
   xmlns:dc="http://purl.org/dc/elements/1.1/"
   xmlns:cc="http://creativecommons.org/ns#"
   xmlns:rdf="http://www.w3.org/1999/02/22-rdf-syntax-ns#"
   xmlns:svg="http://www.w3.org/2000/svg"
   xmlns="http://www.w3.org/2000/svg"
   xmlns:xlink="http://www.w3.org/1999/xlink"
   version="1.1"
   width="440"
   height="365"
   viewBox="0 0 440 365"
   id="svg2">
  <desc
     id="desc4">Produced by GNUPLOT 4.4 patchlevel 0 </desc>
  <metadata
     id="metadata220">
    <rdf:RDF>
      <cc:Work
         rdf:about="">
        <dc:format>image/svg+xml</dc:format>
        <dc:type
           rdf:resource="http://purl.org/dc/dcmitype/StillImage" />
        <dc:title></dc:title>
      </cc:Work>
    </rdf:RDF>
  </metadata>
  <defs
     id="defs6">
    <circle
       cx="0"
       cy="0"
       r="0.5"
       id="gpDot"
       style="stroke-width:0.5" />
    <path
       d="M -1,0 H 1 M 0,-1 v 2"
       id="gpPt0"
       style="stroke:currentColor;stroke-width:0.222" />
    <path
       d="M -1,-1 1,1 M 1,-1 -1,1"
       id="gpPt1"
       style="stroke:currentColor;stroke-width:0.222" />
    <path
       d="M -1,0 1,0 M 0,-1 0,1 m -1,-2 2,2 m -2,0 2,-2"
       id="gpPt2"
       style="stroke:currentColor;stroke-width:0.222" />
    <rect
       width="2"
       height="2"
       x="-1"
       y="-1"
       id="gpPt3"
       style="stroke:currentColor;stroke-width:0.222" />
    <rect
       width="2"
       height="2"
       x="-1"
       y="-1"
       id="gpPt4"
       style="fill:currentColor;stroke:currentColor;stroke-width:0.222" />
    <circle
       cx="0"
       cy="0"
       r="1"
       id="gpPt5"
       style="stroke:currentColor;stroke-width:0.222" />
    <use
       id="gpPt6"
       style="fill:currentColor;stroke:none"
       x="0"
       y="0"
       width="600"
       height="480"
       xlink:href="#gpPt5" />
    <path
       d="m 0,-1.33 -1.33,2 2.66,0 z"
       id="gpPt7"
       style="stroke:currentColor;stroke-width:0.222" />
    <use
       id="gpPt8"
       style="fill:currentColor;stroke:none"
       x="0"
       y="0"
       width="600"
       height="480"
       xlink:href="#gpPt7" />
    <use
       transform="scale(-1,-1)"
       id="gpPt9"
       style="stroke:currentColor"
       x="0"
       y="0"
       width="600"
       height="480"
       xlink:href="#gpPt7" />
    <use
       id="gpPt10"
       style="fill:currentColor;stroke:none"
       x="0"
       y="0"
       width="600"
       height="480"
       xlink:href="#gpPt9" />
    <use
       transform="matrix(0.70710678,0.70710678,-0.70710678,0.70710678,0,0)"
       id="gpPt11"
       style="stroke:currentColor"
       x="0"
       y="0"
       width="600"
       height="480"
       xlink:href="#gpPt3" />
    <use
       id="gpPt12"
       style="fill:currentColor;stroke:none"
       x="0"
       y="0"
       width="600"
       height="480"
       xlink:href="#gpPt11" />
  </defs>
  <g
     transform="matrix(0.8,0,0,0.8,-26.45586,-8.5106641)"
     id="g3282">
    <g
       id="g22"
       style="color:#ffffff;fill:none;stroke:currentColor;stroke-width:1.25;stroke-linecap:butt;stroke-linejoin:miter" />
    <g
       id="g24"
       style="color:#000000;fill:none;stroke:currentColor;stroke-width:1.25;stroke-linecap:butt;stroke-linejoin:miter" />
    <g
       id="g26"
       style="color:#808080;fill:none;stroke:currentColor;stroke-width:1.25;stroke-linecap:butt;stroke-linejoin:miter">
      <path
         d="m 62.2,405.2 516.9,0"
         id="path28"
         style="stroke-width:1.25" />
    </g>
    <g
       id="g30"
       style="color:#000000;fill:none;stroke:currentColor;stroke-width:1.25;stroke-linecap:butt;stroke-linejoin:miter">
      <path
         d="m 62.2,405.2 9,0 m 507.9,0 -9,0"
         id="path32"
         style="stroke-width:1.25" />
      <g
         transform="translate(53.9,409.7)"
         id="g34"
         style="font-size:15px;text-anchor:end;fill:#000000;stroke:none;font-family:Arial">
        <g
           id="text36">
          <path
             d="m -0.59326172,-5.1635742 c -7.76e-6,0.9912151 -0.0952225,1.8261752 -0.28564453,2.5048828 -0.18555415,0.6738301 -0.44190155,1.2207046 -0.76904295,1.640625 -0.322272,0.41503966 -0.703131,0.71289092 -1.1425781,0.89355468 -0.4394583,0.18066401 -0.9082078,0.27099595 -1.40625,0.27099609 -0.5029334,-1.4e-7 -0.9716829,-0.09033208 -1.40625,-0.27099609 C -6.0376,-0.30517548 -6.4160176,-0.60302674 -6.7382812,-1.0180664 -7.0556654,-1.433104 -7.3071299,-1.9775371 -7.4926758,-2.6513672 c -0.1806647,-0.6787076 -0.2709967,-1.5161091 -0.2709961,-2.512207 -6e-7,-1.0400329 0.090331,-1.899407 0.2709961,-2.578125 0.1855459,-0.6835853 0.4394518,-1.2280184 0.7617188,-1.6333008 0.3222637,-0.4052637 0.7031226,-0.688466 1.1425781,-0.849609 0.4394499,-0.166006 0.9179651,-0.249013 1.4355469,-0.249024 0.4931593,1.1e-5 0.9545847,0.08302 1.3842773,0.249024 0.4345643,0.161143 0.8129819,0.4443453 1.1352539,0.849609 0.3222586,0.4052824 0.5761646,0.9497155 0.76171877,1.6333008 0.18553921,0.678718 0.27831255,1.5380921 0.27832031,2.578125 m -1.34033198,0 c -6.5e-6,-0.8203065 -0.048834,-1.5014582 -0.1464844,-2.043457 -0.097662,-0.5468673 -0.2417053,-0.9814372 -0.4321289,-1.303711 -0.1904354,-0.3271396 -0.4248101,-0.5566315 -0.703125,-0.6884766 -0.2734424,-0.1367094 -0.5859421,-0.2050687 -0.9375,-0.2050781 -0.3710976,9.4e-6 -0.6982457,0.068369 -0.9814453,0.2050781 -0.2832061,0.1367279 -0.5224637,0.3686612 -0.7177735,0.6958008 -0.190432,0.3222738 -0.3344748,0.7568437 -0.4321289,1.303711 -0.097658,0.5419988 -0.1464863,1.2207091 -0.1464844,2.0361328 -1.9e-6,0.79102 0.048826,1.4575232 0.1464844,1.9995117 0.1025369,0.5419948 0.2490211,0.9790061 0.4394531,1.3110352 0.1953098,0.3271499 0.432126,0.5639661 0.7104493,0.7104492 0.2783168,0.1416025 0.5956993,0.21240325 0.9521484,0.21240232 0.3466752,9.3e-7 0.6591749,-0.0707998 0.9375,-0.21240232 0.2783149,-0.1464831 0.5126897,-0.3832993 0.703125,-0.7104492 0.1953065,-0.3320291 0.3442321,-0.7690404 0.4467773,-1.3110352 0.1074156,-0.5419885 0.1611264,-1.2084917 0.1611329,-1.9995117"
             id="path3198" />
        </g>
      </g>
    </g>
    <g
       id="g38"
       style="color:#808080;fill:none;stroke:currentColor;stroke-width:1.25;stroke-linecap:butt;stroke-linejoin:miter">
      <path
         d="m 62.2,327.5 516.9,0"
         id="path40"
         style="stroke-width:1.25" />
    </g>
    <g
       id="g42"
       style="color:#000000;fill:none;stroke:currentColor;stroke-width:1.25;stroke-linecap:butt;stroke-linejoin:miter">
      <path
         d="m 62.2,327.5 9,0 m 507.9,0 -9,0"
         id="path44"
         style="stroke-width:1.25" />
      <g
         transform="translate(53.9,332)"
         id="g46"
         style="font-size:15px;text-anchor:end;fill:#000000;stroke:none;font-family:Arial">
        <g
           id="text48">
          <path
             d="m -13.103027,-5.1635742 c -8e-6,0.9912151 -0.09522,1.8261752 -0.285645,2.5048828 -0.185554,0.6738301 -0.441901,1.2207046 -0.769043,1.640625 -0.322272,0.41503966 -0.703131,0.71289092 -1.142578,0.89355468 -0.439458,0.18066401 -0.908208,0.27099595 -1.40625,0.27099609 -0.502933,-1.4e-7 -0.971683,-0.09033208 -1.40625,-0.27099609 -0.434573,-0.18066376 -0.81299,-0.47851502 -1.135254,-0.89355468 -0.317384,-0.4150376 -0.568849,-0.9594707 -0.754394,-1.6333008 -0.180665,-0.6787076 -0.270997,-1.5161091 -0.270996,-2.512207 -10e-7,-1.0400329 0.09033,-1.899407 0.270996,-2.578125 0.185545,-0.6835853 0.439451,-1.2280184 0.761718,-1.6333008 0.322264,-0.4052637 0.703123,-0.688466 1.142578,-0.849609 0.43945,-0.166006 0.917966,-0.249013 1.435547,-0.249024 0.49316,1.1e-5 0.954585,0.08302 1.384278,0.249024 0.434564,0.161143 0.812982,0.4443453 1.135254,0.849609 0.322258,0.4052824 0.576164,0.9497155 0.761718,1.6333008 0.18554,0.678718 0.278313,1.5380921 0.278321,2.578125 m -1.340332,0 c -7e-6,-0.8203065 -0.04884,-1.5014582 -0.146485,-2.043457 -0.09766,-0.5468673 -0.241705,-0.9814372 -0.432129,-1.303711 -0.190435,-0.3271396 -0.42481,-0.5566315 -0.703125,-0.6884766 -0.273442,-0.1367094 -0.585942,-0.2050687 -0.9375,-0.2050781 -0.371097,9.4e-6 -0.698245,0.068369 -0.981445,0.2050781 -0.283206,0.1367279 -0.522464,0.3686612 -0.717773,0.6958008 -0.190432,0.3222738 -0.334475,0.7568437 -0.432129,1.303711 -0.09766,0.5419988 -0.146487,1.2207091 -0.146485,2.0361328 -2e-6,0.79102 0.04883,1.4575232 0.146485,1.9995117 0.102537,0.5419948 0.249021,0.9790061 0.439453,1.3110352 0.19531,0.3271499 0.432126,0.5639661 0.710449,0.7104492 0.278317,0.1416025 0.595699,0.21240325 0.952148,0.21240232 0.346676,9.3e-7 0.659175,-0.0707998 0.9375,-0.21240232 0.278315,-0.1464831 0.51269,-0.3832993 0.703125,-0.7104492 0.195307,-0.3320291 0.344233,-0.7690404 0.446778,-1.3110352 0.107415,-0.5419885 0.161126,-1.2084917 0.161133,-1.9995117"
             id="path3201" />
          <path
             d="m -11.140137,0 0,-1.6040039 1.4282229,0 0,1.6040039 -1.4282229,0"
             id="path3203" />
          <path
             d="m -7.5952148,0 0,-0.93017578 c 0.2490224,-0.57128752 0.5517565,-1.07421672 0.9082031,-1.50878902 0.3613261,-0.4394503 0.7397437,-0.8349577 1.1352539,-1.1865235 0.3955046,-0.3564413 0.7861292,-0.6860308 1.171875,-0.9887695 0.3906206,-0.3027295 0.7421828,-0.6054635 1.0546875,-0.9082031 0.3124947,-0.3027286 0.5639592,-0.6201111 0.7543945,-0.9521485 0.1953065,-0.3320244 0.2929627,-0.7080006 0.2929688,-1.1279297 -6.1e-6,-0.2929608 -0.043951,-0.5493082 -0.131836,-0.7690429 -0.087896,-0.2246008 -0.2148494,-0.4125889 -0.3808593,-0.5639649 -0.1660211,-0.1513581 -0.3662162,-0.2636627 -0.600586,-0.336914 -0.2294969,-0.078116 -0.4858443,-0.1171781 -0.7690429,-0.1171875 -0.2636759,9.4e-6 -0.512699,0.03663 -0.7470704,0.1098632 -0.2294954,0.073251 -0.4345733,0.1831146 -0.6152343,0.3295899 -0.1806667,0.1464932 -0.3295924,0.3295985 -0.4467774,0.5493164 -0.1123069,0.2148519 -0.1855491,0.4663165 -0.2197265,0.7543945 l -1.3476563,-0.1245117 c 0.043944,-0.3710856 0.1464834,-0.7202063 0.3076172,-1.0473633 0.1611315,-0.3271393 0.3832993,-0.6127835 0.6665039,-0.8569336 0.2832011,-0.2490135 0.6225562,-0.444326 1.0180664,-0.585937 0.4003874,-0.141592 0.8618127,-0.212392 1.3842774,-0.212403 0.5126906,1.1e-5 0.9692331,0.06105 1.3696289,0.183106 0.4003846,0.12208 0.7372983,0.302744 1.0107421,0.5419918 0.2783135,0.2392674 0.4907156,0.5346772 0.6372071,0.8862305 0.146477,0.351571 0.21971911,0.7568441 0.21972654,1.2158203 -7.43e-6,0.346687 -0.0634839,0.6762765 -0.19042964,0.9887696 -0.1220775,0.3125063 -0.2880929,0.6103576 -0.4980469,0.8935546 -0.2050847,0.2832086 -0.4443423,0.5566459 -0.7177735,0.8203125 -0.2734432,0.2636766 -0.5590875,0.5224654 -0.8569336,0.7763672 -0.2978564,0.2490274 -0.5981491,0.4980506 -0.9008789,0.7470703 -0.3027383,0.2441438 -0.5883825,0.4907256 -0.8569336,0.7397461 -0.263675,0.2490259 -0.5004911,0.5029319 -0.7104492,0.7617188 -0.2099634,0.2539079 -0.3735375,0.5200209 -0.4907226,0.7983398 l 5.38330075,0 0,1.1206055 -6.83349605,0"
             id="path3205" />
        </g>
      </g>
    </g>
    <g
       id="g50"
       style="color:#808080;fill:none;stroke:currentColor;stroke-width:1.25;stroke-linecap:butt;stroke-linejoin:miter">
      <path
         d="m 62.2,249.8 516.9,0"
         id="path52"
         style="stroke-width:1.25" />
    </g>
    <g
       id="g54"
       style="color:#000000;fill:none;stroke:currentColor;stroke-width:1.25;stroke-linecap:butt;stroke-linejoin:miter">
      <path
         d="m 62.2,249.8 9,0 m 507.9,0 -9,0"
         id="path56"
         style="stroke-width:1.25" />
      <g
         transform="translate(53.9,254.3)"
         id="g58"
         style="font-size:15px;text-anchor:end;fill:#000000;stroke:none;font-family:Arial">
        <g
           id="text60">
          <path
             d="m -13.103027,-5.1635742 c -8e-6,0.9912151 -0.09522,1.8261752 -0.285645,2.5048828 -0.185554,0.6738301 -0.441901,1.2207046 -0.769043,1.640625 -0.322272,0.41503966 -0.703131,0.71289092 -1.142578,0.89355468 -0.439458,0.18066401 -0.908208,0.27099595 -1.40625,0.27099609 -0.502933,-1.4e-7 -0.971683,-0.09033208 -1.40625,-0.27099609 -0.434573,-0.18066376 -0.81299,-0.47851502 -1.135254,-0.89355468 -0.317384,-0.4150376 -0.568849,-0.9594707 -0.754394,-1.6333008 -0.180665,-0.6787076 -0.270997,-1.5161091 -0.270996,-2.512207 -10e-7,-1.0400329 0.09033,-1.899407 0.270996,-2.578125 0.185545,-0.6835853 0.439451,-1.2280184 0.761718,-1.6333008 0.322264,-0.4052637 0.703123,-0.688466 1.142578,-0.849609 0.43945,-0.166006 0.917966,-0.249013 1.435547,-0.249024 0.49316,1.1e-5 0.954585,0.08302 1.384278,0.249024 0.434564,0.161143 0.812982,0.4443453 1.135254,0.849609 0.322258,0.4052824 0.576164,0.9497155 0.761718,1.6333008 0.18554,0.678718 0.278313,1.5380921 0.278321,2.578125 m -1.340332,0 c -7e-6,-0.8203065 -0.04884,-1.5014582 -0.146485,-2.043457 -0.09766,-0.5468673 -0.241705,-0.9814372 -0.432129,-1.303711 -0.190435,-0.3271396 -0.42481,-0.5566315 -0.703125,-0.6884766 -0.273442,-0.1367094 -0.585942,-0.2050687 -0.9375,-0.2050781 -0.371097,9.4e-6 -0.698245,0.068369 -0.981445,0.2050781 -0.283206,0.1367279 -0.522464,0.3686612 -0.717773,0.6958008 -0.190432,0.3222738 -0.334475,0.7568437 -0.432129,1.303711 -0.09766,0.5419988 -0.146487,1.2207091 -0.146485,2.0361328 -2e-6,0.79102 0.04883,1.4575232 0.146485,1.9995117 0.102537,0.5419948 0.249021,0.9790061 0.439453,1.3110352 0.19531,0.3271499 0.432126,0.5639661 0.710449,0.7104492 0.278317,0.1416025 0.595699,0.21240325 0.952148,0.21240232 0.346676,9.3e-7 0.659175,-0.0707998 0.9375,-0.21240232 0.278315,-0.1464831 0.51269,-0.3832993 0.703125,-0.7104492 0.195307,-0.3320291 0.344233,-0.7690404 0.446778,-1.3110352 0.107415,-0.5419885 0.161126,-1.2084917 0.161133,-1.9995117"
             id="path3208" />
          <path
             d="m -11.140137,0 0,-1.6040039 1.4282229,0 0,1.6040039 -1.4282229,0"
             id="path3210" />
          <path
             d="m -1.8969727,-2.3364258 0,2.3364258 -1.2451171,0 0,-2.3364258 -4.8632813,0 0,-1.0253906 4.7241211,-6.9580076 1.3842773,0 0,6.9433592 1.45019536,0 0,1.040039 -1.45019536,0 m -1.2451171,-6.496582 c -0.00977,0.024423 -0.034185,0.073251 -0.073242,0.1464844 -0.039068,0.068368 -0.083013,0.1464929 -0.131836,0.234375 -0.048833,0.087899 -0.1001025,0.1782309 -0.1538086,0.2709961 -0.048833,0.087899 -0.092778,0.1611408 -0.1318359,0.2197265 l -2.644043,3.8964844 c -0.024416,0.039067 -0.061037,0.090336 -0.1098632,0.1538086 -0.043947,0.06348 -0.090334,0.1293983 -0.1391602,0.1977539 -0.04883,0.06348 -0.097658,0.1269567 -0.1464844,0.1904297 -0.04883,0.06348 -0.087892,0.1123081 -0.1171875,0.1464844 l 3.647461,0 0,-5.456543"
             id="path3212" />
        </g>
      </g>
    </g>
    <g
       id="g62"
       style="color:#808080;fill:none;stroke:currentColor;stroke-width:1.25;stroke-linecap:butt;stroke-linejoin:miter">
      <path
         d="m 62.2,172.1 516.9,0"
         id="path64"
         style="stroke-width:1.25" />
    </g>
    <g
       id="g66"
       style="color:#000000;fill:none;stroke:currentColor;stroke-width:1.25;stroke-linecap:butt;stroke-linejoin:miter">
      <path
         d="m 62.2,172.1 9,0 m 507.9,0 -9,0"
         id="path68"
         style="stroke-width:1.25" />
      <g
         transform="translate(53.9,176.6)"
         id="g70"
         style="font-size:15px;text-anchor:end;fill:#000000;stroke:none;font-family:Arial">
        <g
           id="text72">
          <path
             d="m -13.103027,-5.1635742 c -8e-6,0.9912151 -0.09522,1.8261752 -0.285645,2.5048828 -0.185554,0.6738301 -0.441901,1.2207046 -0.769043,1.640625 -0.322272,0.41503966 -0.703131,0.71289092 -1.142578,0.89355468 -0.439458,0.18066401 -0.908208,0.27099595 -1.40625,0.27099609 -0.502933,-1.4e-7 -0.971683,-0.09033208 -1.40625,-0.27099609 -0.434573,-0.18066376 -0.81299,-0.47851502 -1.135254,-0.89355468 -0.317384,-0.4150376 -0.568849,-0.9594707 -0.754394,-1.6333008 -0.180665,-0.6787076 -0.270997,-1.5161091 -0.270996,-2.512207 -10e-7,-1.0400329 0.09033,-1.899407 0.270996,-2.578125 0.185545,-0.6835853 0.439451,-1.2280184 0.761718,-1.6333008 0.322264,-0.4052637 0.703123,-0.688466 1.142578,-0.849609 0.43945,-0.166006 0.917966,-0.249013 1.435547,-0.249024 0.49316,1.1e-5 0.954585,0.08302 1.384278,0.249024 0.434564,0.161143 0.812982,0.4443453 1.135254,0.849609 0.322258,0.4052824 0.576164,0.9497155 0.761718,1.6333008 0.18554,0.678718 0.278313,1.5380921 0.278321,2.578125 m -1.340332,0 c -7e-6,-0.8203065 -0.04884,-1.5014582 -0.146485,-2.043457 -0.09766,-0.5468673 -0.241705,-0.9814372 -0.432129,-1.303711 -0.190435,-0.3271396 -0.42481,-0.5566315 -0.703125,-0.6884766 -0.273442,-0.1367094 -0.585942,-0.2050687 -0.9375,-0.2050781 -0.371097,9.4e-6 -0.698245,0.068369 -0.981445,0.2050781 -0.283206,0.1367279 -0.522464,0.3686612 -0.717773,0.6958008 -0.190432,0.3222738 -0.334475,0.7568437 -0.432129,1.303711 -0.09766,0.5419988 -0.146487,1.2207091 -0.146485,2.0361328 -2e-6,0.79102 0.04883,1.4575232 0.146485,1.9995117 0.102537,0.5419948 0.249021,0.9790061 0.439453,1.3110352 0.19531,0.3271499 0.432126,0.5639661 0.710449,0.7104492 0.278317,0.1416025 0.595699,0.21240325 0.952148,0.21240232 0.346676,9.3e-7 0.659175,-0.0707998 0.9375,-0.21240232 0.278315,-0.1464831 0.51269,-0.3832993 0.703125,-0.7104492 0.195307,-0.3320291 0.344233,-0.7690404 0.446778,-1.3110352 0.107415,-0.5419885 0.161126,-1.2084917 0.161133,-1.9995117"
             id="path3215" />
          <path
             d="m -11.140137,0 0,-1.6040039 1.4282229,0 0,1.6040039 -1.4282229,0"
             id="path3217" />
          <path
             d="m -0.66650391,-3.3764648 c -7.68e-6,0.5175809 -0.0732498,0.9936547 -0.21972656,1.4282226 -0.14160893,0.429689 -0.35401103,0.8007824 -0.63720703,1.11328126 -0.2783269,0.30761772 -0.6250062,0.54931669 -1.0400391,0.72509766 -0.4150444,0.17089838 -0.8935595,0.25634751 -1.4355468,0.25634765 -0.6005897,-1.4e-7 -1.1254915,-0.11474612 -1.5747071,-0.34423828 -0.449221,-0.22949176 -0.8227558,-0.55908127 -1.1206054,-0.98876949 -0.297853,-0.4345687 -0.5224621,-0.9643534 -0.6738282,-1.5893555 -0.1464852,-0.6298794 -0.2197273,-1.3452107 -0.2197265,-2.1459961 -8e-7,-0.9179629 0.083007,-1.7236262 0.2490234,-2.4169922 0.1708973,-0.6933513 0.4150376,-1.271964 0.7324219,-1.7358398 0.3173807,-0.4638577 0.7031225,-0.8129784 1.1572266,-1.047363 0.458981,-0.234365 0.9765586,-0.351552 1.5527343,-0.351563 0.3515577,1.1e-5 0.6811472,0.03663 0.9887696,0.109863 0.3076114,0.07325 0.5859314,0.192882 0.8349609,0.358887 0.2538997,0.1611428 0.4760675,0.3759864 0.6665039,0.6445314 0.1904226,0.2685638 0.3417896,0.5981533 0.45410156,0.9887696 l -1.25976566,0.2270507 c -0.1367247,-0.4443273 -0.3564511,-0.7641512 -0.6591797,-0.9594726 -0.2978567,-0.200186 -0.644536,-0.3002836 -1.040039,-0.300293 -0.3613322,9.4e-6 -0.6884803,0.085459 -0.9814453,0.2563477 -0.2929719,0.1709074 -0.5419951,0.4272548 -0.7470703,0.7690429 -0.2050807,0.3369222 -0.3637719,0.7617264 -0.4760743,1.2744141 -0.107424,0.5127019 -0.1611348,1.1108458 -0.1611328,1.7944336 0.2392555,-0.4443302 0.5761693,-0.7812439 1.0107422,-1.0107422 0.4345668,-0.2343684 0.9326132,-0.3515558 1.4941406,-0.3515625 0.468745,6.7e-6 0.8935493,0.07569 1.2744141,0.2270508 0.3808531,0.1513735 0.7055599,0.3710998 0.9741211,0.6591797 0.2734304,0.2832086 0.4833911,0.629888 0.62988281,1.0400391 0.15135958,0.4052777 0.2270431,0.8618202 0.22705078,1.3696289 m -1.34033199,0.058594 c -6.4e-6,-0.3564416 -0.043952,-0.6787069 -0.131836,-0.9667969 -0.087897,-0.2880813 -0.2197325,-0.5322217 -0.3955078,-0.7324218 -0.1757869,-0.2050729 -0.3930718,-0.3613228 -0.6518555,-0.46875 -0.2587939,-0.1122991 -0.5590866,-0.1684514 -0.9008789,-0.1684571 -0.2392618,5.7e-6 -0.4809608,0.036627 -0.7250976,0.1098633 -0.2441439,0.068365 -0.4663117,0.1831108 -0.6665039,0.3442383 -0.1953152,0.156255 -0.3564479,0.3637744 -0.4833985,0.6225586 -0.1220725,0.2587934 -0.1831076,0.5737345 -0.1831054,0.9448242 -2.2e-6,0.3808626 0.048826,0.7373076 0.1464843,1.0693359 0.097654,0.3271507 0.2368139,0.612795 0.4174805,0.8569336 0.1855439,0.2441421 0.4077117,0.437013 0.6665039,0.5786133 0.2587854,0.14160256 0.5493124,0.21240327 0.8715821,0.21240236 0.3173781,9.1e-7 0.600581,-0.05371 0.8496093,-0.16113286 0.2539009,-0.1123035 0.4687444,-0.2709947 0.6445313,-0.4760742 0.1757752,-0.2099591 0.3100525,-0.4638651 0.402832,-0.7617187 0.092767,-0.297849 0.1391538,-0.6323213 0.1391602,-1.003418"
             id="path3219" />
        </g>
      </g>
    </g>
    <g
       id="g74"
       style="color:#808080;fill:none;stroke:currentColor;stroke-width:1.25;stroke-linecap:butt;stroke-linejoin:miter">
      <path
         d="m 62.2,94.4 516.9,0"
         id="path76"
         style="stroke-width:1.25" />
    </g>
    <g
       id="g78"
       style="color:#000000;fill:none;stroke:currentColor;stroke-width:1.25;stroke-linecap:butt;stroke-linejoin:miter">
      <path
         d="m 62.2,94.4 9,0 m 507.9,0 -9,0"
         id="path80"
         style="stroke-width:1.25" />
      <g
         transform="translate(53.9,98.9)"
         id="g82"
         style="font-size:15px;text-anchor:end;fill:#000000;stroke:none;font-family:Arial">
        <g
           id="text84">
          <path
             d="m -13.103027,-5.1635742 c -8e-6,0.9912151 -0.09522,1.8261752 -0.285645,2.5048828 -0.185554,0.6738301 -0.441901,1.2207046 -0.769043,1.640625 -0.322272,0.41503966 -0.703131,0.71289092 -1.142578,0.89355468 -0.439458,0.18066401 -0.908208,0.27099595 -1.40625,0.27099609 -0.502933,-1.4e-7 -0.971683,-0.09033208 -1.40625,-0.27099609 -0.434573,-0.18066376 -0.81299,-0.47851502 -1.135254,-0.89355468 -0.317384,-0.4150376 -0.568849,-0.9594707 -0.754394,-1.6333008 -0.180665,-0.6787076 -0.270997,-1.5161091 -0.270996,-2.512207 -10e-7,-1.0400329 0.09033,-1.899407 0.270996,-2.578125 0.185545,-0.6835853 0.439451,-1.2280184 0.761718,-1.6333008 0.322264,-0.4052637 0.703123,-0.688466 1.142578,-0.849609 0.43945,-0.166006 0.917966,-0.249013 1.435547,-0.249024 0.49316,1.1e-5 0.954585,0.08302 1.384278,0.249024 0.434564,0.161143 0.812982,0.4443453 1.135254,0.849609 0.322258,0.4052824 0.576164,0.9497155 0.761718,1.6333008 0.18554,0.678718 0.278313,1.5380921 0.278321,2.578125 m -1.340332,0 c -7e-6,-0.8203065 -0.04884,-1.5014582 -0.146485,-2.043457 -0.09766,-0.5468673 -0.241705,-0.9814372 -0.432129,-1.303711 -0.190435,-0.3271396 -0.42481,-0.5566315 -0.703125,-0.6884766 -0.273442,-0.1367094 -0.585942,-0.2050687 -0.9375,-0.2050781 -0.371097,9.4e-6 -0.698245,0.068369 -0.981445,0.2050781 -0.283206,0.1367279 -0.522464,0.3686612 -0.717773,0.6958008 -0.190432,0.3222738 -0.334475,0.7568437 -0.432129,1.303711 -0.09766,0.5419988 -0.146487,1.2207091 -0.146485,2.0361328 -2e-6,0.79102 0.04883,1.4575232 0.146485,1.9995117 0.102537,0.5419948 0.249021,0.9790061 0.439453,1.3110352 0.19531,0.3271499 0.432126,0.5639661 0.710449,0.7104492 0.278317,0.1416025 0.595699,0.21240325 0.952148,0.21240232 0.346676,9.3e-7 0.659175,-0.0707998 0.9375,-0.21240232 0.278315,-0.1464831 0.51269,-0.3832993 0.703125,-0.7104492 0.195307,-0.3320291 0.344233,-0.7690404 0.446778,-1.3110352 0.107415,-0.5419885 0.161126,-1.2084917 0.161133,-1.9995117"
             id="path3222" />
          <path
             d="m -11.140137,0 0,-1.6040039 1.4282229,0 0,1.6040039 -1.4282229,0"
             id="path3224" />
          <path
             d="m -0.65917969,-2.878418 c -7.69e-6,0.4394556 -0.0708084,0.8447286 -0.21240234,1.2158203 -0.13672607,0.3662123 -0.34912827,0.68359477 -0.63720707,0.95214848 -0.2832096,0.26855513 -0.6469788,0.47851586 -1.0913086,0.62988281 -0.4443412,0.15136712 -0.969243,0.22705064 -1.574707,0.22705078 -0.6054723,-1.4e-7 -1.1303741,-0.07568366 -1.574707,-0.22705078 -0.4394553,-0.15136695 -0.8056659,-0.35888628 -1.0986328,-0.62255859 -0.2880872,-0.26855372 -0.5029307,-0.5859362 -0.6445313,-0.9521484 -0.1367195,-0.3710918 -0.2050788,-0.7739234 -0.2050781,-1.2084961 -7e-7,-0.3759734 0.056152,-0.7104457 0.168457,-1.003418 0.1171866,-0.2929646 0.270995,-0.5444292 0.4614258,-0.7543945 0.195311,-0.2148389 0.4150374,-0.3857372 0.6591797,-0.5126953 0.2490212,-0.1318307 0.5053686,-0.2197213 0.769043,-0.2636719 l 0,-0.029297 c -0.2880884,-0.068354 -0.5468772,-0.178217 -0.7763672,-0.3295898 -0.2246111,-0.1513613 -0.4150406,-0.3320252 -0.5712891,-0.5419922 -0.1513684,-0.2148373 -0.2685558,-0.4516534 -0.3515625,-0.7104492 -0.078126,-0.2587818 -0.1171884,-0.5322191 -0.1171875,-0.8203125 -9e-7,-0.36132 0.068358,-0.7006751 0.2050781,-1.0180665 0.1416004,-0.3222564 0.3491197,-0.6030178 0.6225586,-0.8422851 0.2734355,-0.2441307 0.6127907,-0.4345605 1.0180664,-0.5712885 0.4052703,-0.141592 0.8740199,-0.212392 1.40625,-0.212403 0.5615188,1.1e-5 1.0473581,0.07081 1.4575196,0.212403 0.415033,0.141611 0.7568295,0.334482 1.0253906,0.5786127 0.2734306,0.2392673 0.4760671,0.5200287 0.6079102,0.8422852 0.13182852,0.3222741 0.19774642,0.6640706 0.19775386,1.0253906 -7.44e-6,0.2832107 -0.0415113,0.5542065 -0.12451176,0.8129883 -0.078132,0.2587958 -0.1953196,0.495612 -0.3515625,0.7104492 -0.151374,0.209967 -0.3418035,0.3906309 -0.571289,0.5419922 -0.2246156,0.14649 -0.4858458,0.2490289 -0.7836914,0.3076172 l 0,0.029297 c 0.2978456,0.048833 0.5737243,0.1391655 0.8276367,0.2709961 0.2538996,0.1269582 0.4736259,0.2978564 0.6591797,0.5126954 0.1855396,0.2099653 0.3320238,0.4614299 0.4394531,0.7543945 0.10741424,0.2929723 0.16112512,0.6250032 0.16113281,0.9960937 M -2.2851563,-7.7416992 c -6e-6,-0.2587811 -0.034186,-0.4955973 -0.102539,-0.7104492 -0.063483,-0.2148351 -0.1709042,-0.3979404 -0.3222656,-0.5493164 -0.1513727,-0.1562409 -0.3491264,-0.2758697 -0.5932618,-0.3588868 -0.2441454,-0.087881 -0.5444381,-0.1318264 -0.9008789,-0.1318359 -0.3466834,9.5e-6 -0.6396519,0.043955 -0.8789062,0.1318359 -0.2392609,0.083017 -0.4370146,0.2026459 -0.5932617,0.3588868 -0.1513697,0.151376 -0.2612329,0.3344813 -0.3295899,0.5493164 -0.068362,0.2148519 -0.1025413,0.4516681 -0.102539,0.7104492 -2.3e-6,0.2050856 0.026853,0.4150464 0.080566,0.6298828 0.053708,0.2148506 0.1513647,0.4101629 0.2929687,0.5859375 0.1415988,0.1757876 0.3369111,0.3198304 0.5859375,0.4321289 0.24902,0.1123107 0.5688439,0.168463 0.9594727,0.168457 0.4150345,6e-6 0.7470654,-0.056146 0.9960937,-0.168457 0.2539009,-0.1122985 0.4467718,-0.2563413 0.5786133,-0.4321289 0.1367129,-0.1757746 0.2246034,-0.3710869 0.2636719,-0.5859375 0.043939,-0.2148364 0.065912,-0.4247972 0.065918,-0.6298828 m 0.2563477,4.7387695 c -6.3e-6,-0.2490202 -0.034186,-0.4882777 -0.1025391,-0.7177734 -0.068366,-0.2343711 -0.1855529,-0.439449 -0.3515625,-0.6152344 -0.1660213,-0.1806595 -0.3906304,-0.3247024 -0.6738281,-0.4321289 -0.2783252,-0.1122998 -0.627446,-0.1684521 -1.0473633,-0.168457 -0.3857459,4.9e-6 -0.7153354,0.056157 -0.9887695,0.168457 -0.2685576,0.1074265 -0.4882839,0.2514694 -0.6591797,0.4321289 -0.1660179,0.1806682 -0.2880881,0.3906289 -0.3662109,0.6298828 -0.078127,0.2343785 -0.1171895,0.4785189 -0.1171875,0.7324219 -2e-6,0.3173855 0.03906,0.6079125 0.1171875,0.871582 0.078123,0.2587909 0.2026344,0.4834001 0.3735351,0.6738281 0.1708958,0.1855482 0.3955049,0.329591 0.6738282,0.43212895 0.2783168,0.10253996 0.6152305,0.15380944 1.0107422,0.15380859 0.400386,8.5e-7 0.7372997,-0.0512686 1.0107421,-0.15380859 0.2734321,-0.10253795 0.4931584,-0.24658075 0.6591797,-0.43212895 0.1660096,-0.190428 0.283197,-0.4174786 0.3515625,-0.6811523 0.073236,-0.2685523 0.109857,-0.5664036 0.1098633,-0.8935547"
             id="path3226" />
        </g>
      </g>
    </g>
    <g
       id="g86"
       style="color:#808080;fill:none;stroke:currentColor;stroke-width:1.25;stroke-linecap:butt;stroke-linejoin:miter">
      <path
         d="m 62.2,16.7 516.9,0"
         id="path88"
         style="stroke-width:1.25" />
    </g>
    <g
       id="g90"
       style="color:#000000;fill:none;stroke:currentColor;stroke-width:1.25;stroke-linecap:butt;stroke-linejoin:miter">
      <path
         d="m 62.2,16.7 9,0 m 507.9,0 -9,0"
         id="path92"
         style="stroke-width:1.25" />
      <g
         transform="translate(53.9,21.2)"
         id="g94"
         style="font-size:15px;text-anchor:end;fill:#000000;stroke:none;font-family:Arial">
        <g
           id="text96">
          <path
             d="m -7.2070312,0 0,-1.1206055 2.6293945,0 0,-7.9394531 -2.3291016,1.6625977 0,-1.2451172 2.4389649,-1.6772459 1.2158203,0 0,9.1992185 2.51220701,0 0,1.1206055 -6.46728511,0"
             id="path3229" />
        </g>
      </g>
    </g>
    <g
       id="g98"
       style="color:#808080;fill:none;stroke:currentColor;stroke-width:1.25;stroke-linecap:butt;stroke-linejoin:miter">
      <path
         d="m 62.2,444 0,-427.3"
         id="path100"
         style="stroke-width:1.25" />
    </g>
    <g
       id="g102"
       style="color:#000000;fill:none;stroke:currentColor;stroke-width:1.25;stroke-linecap:butt;stroke-linejoin:miter">
      <path
         d="m 62.2,444 0,-9 m 0,-418.3 0,9"
         id="path104"
         style="stroke-width:1.25" />
      <g
         transform="translate(62.2,466.5)"
         id="g106"
         style="font-size:15px;text-anchor:middle;fill:#000000;stroke:none;font-family:Arial">
        <g
           id="text108">
          <path
             d="m -6.0131836,-3.3984375 0,-1.171875 3.6621094,0 0,1.171875 -3.6621094,0"
             id="path3232" />
          <path
             d="m -0.91552734,0 0,-0.93017578 C -0.66650491,-1.5014633 -0.36377084,-2.0043925 -0.00732422,-2.4389648 0.35400188,-2.8784151 0.73241947,-3.2739225 1.1279297,-3.6254883 1.5234343,-3.9819296 1.9140589,-4.3115191 2.2998047,-4.6142578 2.6904253,-4.9169873 3.0419875,-5.2197213 3.3544922,-5.5224609 3.6669869,-5.8251895 3.9184514,-6.142572 4.1088867,-6.4746094 4.3041932,-6.8066338 4.4018494,-7.18261 4.4018555,-7.6025391 4.4018494,-7.8954999 4.3579041,-8.1518473 4.2700195,-8.371582 4.1821231,-8.5961828 4.0551701,-8.7841709 3.8891602,-8.9355469 3.7231391,-9.086905 3.522944,-9.1992096 3.2885742,-9.2724609 3.0590773,-9.3505766 2.8027299,-9.389639 2.5195313,-9.3896484 c -0.2636759,9.4e-6 -0.512699,0.03663 -0.7470704,0.1098632 -0.2294954,0.073251 -0.4345733,0.1831146 -0.6152343,0.3295899 -0.18066675,0.1464932 -0.32959238,0.3295985 -0.44677738,0.5493164 -0.11230696,0.2148519 -0.18554907,0.4663165 -0.21972656,0.7543945 l -1.34765625,-0.1245117 c 0.0439445,-0.3710856 0.14648341,-0.7202063 0.30761718,-1.0473633 0.16113153,-0.3271393 0.38329928,-0.6127835 0.66650391,-0.8569336 0.28320105,-0.2490135 0.62255618,-0.444326 1.0180664,-0.585937 0.4003874,-0.141592 0.8618127,-0.212392 1.3842774,-0.212403 0.5126906,1.1e-5 0.9692331,0.06105 1.3696289,0.183106 0.4003846,0.12208 0.7372983,0.302744 1.0107421,0.5419918 0.2783135,0.2392674 0.4907156,0.5346772 0.6372071,0.8862305 0.146477,0.351571 0.2197191,0.7568441 0.2197265,1.2158203 -7.4e-6,0.346687 -0.063484,0.6762765 -0.1904297,0.9887696 -0.1220774,0.3125063 -0.2880928,0.6103576 -0.4980468,0.8935546 -0.2050847,0.2832086 -0.4443423,0.5566459 -0.7177735,0.8203125 -0.2734432,0.2636766 -0.5590875,0.5224654 -0.8569336,0.7763672 -0.2978564,0.2490274 -0.5981491,0.4980506 -0.9008789,0.7470703 -0.3027383,0.2441438 -0.5883825,0.4907256 -0.8569336,0.7397461 -0.263675,0.2490259 -0.5004911,0.5029319 -0.7104492,0.7617188 -0.2099634,0.2539079 -0.37353745,0.5200209 -0.49072263,0.7983398 l 5.38330073,0 0,1.1206055 -6.83349604,0"
             id="path3234" />
        </g>
      </g>
    </g>
    <g
       id="g110"
       style="color:#808080;fill:none;stroke:currentColor;stroke-width:1.25;stroke-linecap:butt;stroke-linejoin:miter">
      <path
         d="m 126.8,444 0,-427.3"
         id="path112"
         style="stroke-width:1.25" />
    </g>
    <g
       id="g114"
       style="color:#000000;fill:none;stroke:currentColor;stroke-width:1.25;stroke-linecap:butt;stroke-linejoin:miter">
      <path
         d="m 126.8,444 0,-9 m 0,-418.3 0,9"
         id="path116"
         style="stroke-width:1.25" />
      <g
         transform="translate(126.8,466.5)"
         id="g118"
         style="font-size:15px;text-anchor:middle;fill:#000000;stroke:none;font-family:Arial">
        <g
           id="text120">
          <path
             d="m -12.268066,-3.3984375 0,-1.171875 3.662109,0 0,1.171875 -3.662109,0"
             id="path3237" />
          <path
             d="m -6.7822266,0 0,-1.1206055 2.6293946,0 0,-7.9394531 -2.3291016,1.6625977 0,-1.2451172 2.4389649,-1.6772459 1.2158203,0 0,9.1992185 2.51220699,0 0,1.1206055 -6.46728519,0"
             id="path3239" />
          <path
             d="m 1.7944336,0 0,-1.6040039 1.4282227,0 0,1.6040039 -1.4282227,0"
             id="path3241" />
          <path
             d="m 12.297363,-3.3618164 c -7e-6,0.517581 -0.07813,0.9912133 -0.234375,1.4208984 -0.156257,0.429689 -0.38819,0.8007824 -0.6958,1.11328128 -0.307624,0.30761771 -0.690925,0.54687528 -1.149903,0.71777344 C 9.7631784,0.0610351 9.2358352,0.14648423 8.6352539,0.14648437 8.0932582,0.14648423 7.6196259,0.08300773 7.2143555,-0.04394531 6.8139626,-0.17089827 6.4746075,-0.34423794 6.1962891,-0.56396484 5.9179674,-0.78857343 5.6957997,-1.0498036 5.5297852,-1.3476562 5.3686516,-1.6455062 5.2539056,-1.9653301 5.1855469,-2.3071289 l 1.3330078,-0.1538086 c 0.053709,0.1953148 0.1293925,0.3857443 0.2270508,0.5712891 0.097654,0.1806657 0.2294898,0.3442398 0.3955078,0.4907226 0.1708957,0.1416028 0.378415,0.2563488 0.6225586,0.3442383 0.24902,0.0830088 0.5493127,0.12451265 0.9008789,0.12451172 0.3417924,9.3e-7 0.6518507,-0.0512685 0.9301758,-0.15380862 0.278315,-0.1074207 0.5151314,-0.2636705 0.7104494,-0.46875 0.200189,-0.2050763 0.353998,-0.4565409 0.461426,-0.7543945 0.107415,-0.297849 0.161126,-0.6396455 0.161132,-1.0253906 -6e-6,-0.3173792 -0.05127,-0.6079062 -0.153808,-0.8715821 -0.102545,-0.2685502 -0.24903,-0.4980421 -0.439453,-0.6884765 -0.190436,-0.1953074 -0.4248104,-0.3466745 -0.7031253,-0.4541016 -0.2734423,-0.1074164 -0.585942,-0.1611273 -0.9375,-0.1611328 -0.2197305,5.5e-6 -0.422367,0.019537 -0.6079102,0.058594 -0.1855502,0.039068 -0.3588899,0.092779 -0.5200195,0.1611328 -0.1562529,0.068365 -0.3002957,0.1489309 -0.4321289,0.2416992 -0.1269556,0.087896 -0.2465844,0.1806689 -0.3588868,0.2783203 l -1.2890625,0 0.3442383,-5.5517578 5.8666989,0 0,1.1206054 -4.665527,0 -0.1977539,3.2739258 c 0.2343725,-0.1806579 0.527341,-0.3344664 0.8789062,-0.4614257 0.3515591,-0.1318295 0.7690391,-0.1977474 1.2524415,-0.197754 0.5126904,6.6e-6 0.9741157,0.078132 1.3842772,0.234375 0.41015,0.1562562 0.759271,0.378424 1.047363,0.666504 0.288079,0.2832085 0.510247,0.6225636 0.666504,1.0180664 0.156243,0.395512 0.234368,0.8300819 0.234375,1.3037109"
             id="path3243" />
        </g>
      </g>
    </g>
    <g
       id="g122"
       style="color:#808080;fill:none;stroke:currentColor;stroke-width:1.25;stroke-linecap:butt;stroke-linejoin:miter">
      <path
         d="m 191.4,444 0,-427.3"
         id="path124"
         style="stroke-width:1.25" />
    </g>
    <g
       id="g126"
       style="color:#000000;fill:none;stroke:currentColor;stroke-width:1.25;stroke-linecap:butt;stroke-linejoin:miter">
      <path
         d="m 191.4,444 0,-9 m 0,-418.3 0,9"
         id="path128"
         style="stroke-width:1.25" />
      <g
         transform="translate(191.4,466.5)"
         id="g130"
         style="font-size:15px;text-anchor:middle;fill:#000000;stroke:none;font-family:Arial">
        <g
           id="text132">
          <path
             d="m -6.0131836,-3.3984375 0,-1.171875 3.6621094,0 0,1.171875 -3.6621094,0"
             id="path3246" />
          <path
             d="m -0.52734375,0 0,-1.1206055 2.62939455,0 0,-7.9394531 -2.32910158,1.6625977 0,-1.2451172 2.43896488,-1.6772459 1.2158203,0 0,9.1992185 2.512207,0 0,1.1206055 -6.46728515,0"
             id="path3248" />
        </g>
      </g>
    </g>
    <g
       id="g134"
       style="color:#808080;fill:none;stroke:currentColor;stroke-width:1.25;stroke-linecap:butt;stroke-linejoin:miter">
      <path
         d="M 256,444 256,16.7"
         id="path136"
         style="stroke-width:1.25" />
    </g>
    <g
       id="g138"
       style="color:#000000;fill:none;stroke:currentColor;stroke-width:1.25;stroke-linecap:butt;stroke-linejoin:miter">
      <path
         d="m 256,444 0,-9 m 0,-418.3 0,9"
         id="path140"
         style="stroke-width:1.25" />
      <g
         transform="translate(256,466.5)"
         id="g142"
         style="font-size:15px;text-anchor:middle;fill:#000000;stroke:none;font-family:Arial">
        <g
           id="text144">
          <path
             d="m -12.268066,-3.3984375 0,-1.171875 3.662109,0 0,1.171875 -3.662109,0"
             id="path3251" />
          <path
             d="m -0.16845703,-5.1635742 c -7.76e-6,0.9912151 -0.0952225,1.8261752 -0.28564453,2.5048828 -0.18555416,0.6738301 -0.44190156,1.2207046 -0.76904294,1.640625 -0.322272,0.41503966 -0.703131,0.71289092 -1.1425782,0.89355468 -0.4394582,0.18066401 -0.9082077,0.27099595 -1.40625,0.27099609 -0.5029333,-1.4e-7 -0.9716828,-0.09033208 -1.40625,-0.27099609 -0.4345726,-0.18066376 -0.8129902,-0.47851502 -1.1352539,-0.89355468 -0.3173841,-0.4150376 -0.5688487,-0.9594707 -0.7543945,-1.6333008 -0.1806647,-0.6787076 -0.2709967,-1.5161091 -0.2709961,-2.512207 -6e-7,-1.0400329 0.090331,-1.899407 0.2709961,-2.578125 0.1855458,-0.6835853 0.4394518,-1.2280184 0.7617188,-1.6333008 0.3222636,-0.4052637 0.7031226,-0.688466 1.1425781,-0.849609 0.4394499,-0.166006 0.9179651,-0.249013 1.4355469,-0.249024 0.4931593,1.1e-5 0.9545846,0.08302 1.3842773,0.249024 0.4345643,0.161143 0.8129819,0.4443453 1.1352539,0.849609 0.32225859,0.4052824 0.57616459,0.9497155 0.76171876,1.6333008 0.18553921,0.678718 0.27831255,1.5380921 0.27832031,2.578125 m -1.34033207,0 c -6.4e-6,-0.8203065 -0.048835,-1.5014582 -0.1464843,-2.043457 -0.097662,-0.5468673 -0.2417053,-0.9814372 -0.4321289,-1.303711 -0.1904354,-0.3271396 -0.4248101,-0.5566315 -0.703125,-0.6884766 -0.2734424,-0.1367094 -0.5859421,-0.2050687 -0.9375,-0.2050781 -0.3710976,9.4e-6 -0.6982457,0.068369 -0.9814454,0.2050781 -0.283206,0.1367279 -0.5224636,0.3686612 -0.7177734,0.6958008 -0.190432,0.3222738 -0.3344748,0.7568437 -0.4321289,1.303711 -0.097658,0.5419988 -0.1464863,1.2207091 -0.1464844,2.0361328 -1.9e-6,0.79102 0.048826,1.4575232 0.1464844,1.9995117 0.1025369,0.5419948 0.2490211,0.9790061 0.4394531,1.3110352 0.1953098,0.3271499 0.432126,0.5639661 0.7104492,0.7104492 0.2783169,0.1416025 0.5956994,0.21240325 0.9521485,0.21240232 0.3466752,9.3e-7 0.6591748,-0.0707998 0.9375,-0.21240232 0.2783149,-0.1464831 0.5126897,-0.3832993 0.703125,-0.7104492 0.1953065,-0.3320291 0.3442321,-0.7690404 0.4467773,-1.3110352 0.1074155,-0.5419885 0.1611264,-1.2084917 0.1611328,-1.9995117"
             id="path3253" />
          <path
             d="m 1.7944336,0 0,-1.6040039 1.4282227,0 0,1.6040039 -1.4282227,0"
             id="path3255" />
          <path
             d="m 12.297363,-3.3618164 c -7e-6,0.517581 -0.07813,0.9912133 -0.234375,1.4208984 -0.156257,0.429689 -0.38819,0.8007824 -0.6958,1.11328128 -0.307624,0.30761771 -0.690925,0.54687528 -1.149903,0.71777344 C 9.7631784,0.0610351 9.2358352,0.14648423 8.6352539,0.14648437 8.0932582,0.14648423 7.6196259,0.08300773 7.2143555,-0.04394531 6.8139626,-0.17089827 6.4746075,-0.34423794 6.1962891,-0.56396484 5.9179674,-0.78857343 5.6957997,-1.0498036 5.5297852,-1.3476562 5.3686516,-1.6455062 5.2539056,-1.9653301 5.1855469,-2.3071289 l 1.3330078,-0.1538086 c 0.053709,0.1953148 0.1293925,0.3857443 0.2270508,0.5712891 0.097654,0.1806657 0.2294898,0.3442398 0.3955078,0.4907226 0.1708957,0.1416028 0.378415,0.2563488 0.6225586,0.3442383 0.24902,0.0830088 0.5493127,0.12451265 0.9008789,0.12451172 0.3417924,9.3e-7 0.6518507,-0.0512685 0.9301758,-0.15380862 0.278315,-0.1074207 0.5151314,-0.2636705 0.7104494,-0.46875 0.200189,-0.2050763 0.353998,-0.4565409 0.461426,-0.7543945 0.107415,-0.297849 0.161126,-0.6396455 0.161132,-1.0253906 -6e-6,-0.3173792 -0.05127,-0.6079062 -0.153808,-0.8715821 -0.102545,-0.2685502 -0.24903,-0.4980421 -0.439453,-0.6884765 -0.190436,-0.1953074 -0.4248104,-0.3466745 -0.7031253,-0.4541016 -0.2734423,-0.1074164 -0.585942,-0.1611273 -0.9375,-0.1611328 -0.2197305,5.5e-6 -0.422367,0.019537 -0.6079102,0.058594 -0.1855502,0.039068 -0.3588899,0.092779 -0.5200195,0.1611328 -0.1562529,0.068365 -0.3002957,0.1489309 -0.4321289,0.2416992 -0.1269556,0.087896 -0.2465844,0.1806689 -0.3588868,0.2783203 l -1.2890625,0 0.3442383,-5.5517578 5.8666989,0 0,1.1206054 -4.665527,0 -0.1977539,3.2739258 c 0.2343725,-0.1806579 0.527341,-0.3344664 0.8789062,-0.4614257 0.3515591,-0.1318295 0.7690391,-0.1977474 1.2524415,-0.197754 0.5126904,6.6e-6 0.9741157,0.078132 1.3842772,0.234375 0.41015,0.1562562 0.759271,0.378424 1.047363,0.666504 0.288079,0.2832085 0.510247,0.6225636 0.666504,1.0180664 0.156243,0.395512 0.234368,0.8300819 0.234375,1.3037109"
             id="path3257" />
        </g>
      </g>
    </g>
    <g
       id="g146"
       style="color:#808080;fill:none;stroke:currentColor;stroke-width:1.25;stroke-linecap:butt;stroke-linejoin:miter">
      <path
         d="m 320.7,444 0,-427.3"
         id="path148"
         style="stroke-width:1.25" />
    </g>
    <g
       id="g150"
       style="color:#000000;fill:none;stroke:currentColor;stroke-width:1.25;stroke-linecap:butt;stroke-linejoin:miter">
      <path
         d="m 320.7,444 0,-9 m 0,-418.3 0,9"
         id="path152"
         style="stroke-width:1.25" />
      <g
         transform="translate(320.7,466.5)"
         id="g154"
         style="font-size:15px;text-anchor:middle;fill:#000000;stroke:none;font-family:Arial">
        <g
           id="text156">
          <path
             d="m 3.581543,-5.1635742 c -7.8e-6,0.9912151 -0.095222,1.8261752 -0.2856446,2.5048828 -0.1855541,0.6738301 -0.4419015,1.2207046 -0.7690429,1.640625 -0.322272,0.41503966 -0.703131,0.71289092 -1.1425782,0.89355468 -0.4394582,0.18066401 -0.90820773,0.27099595 -1.40624996,0.27099609 -0.50293333,-1.4e-7 -0.97168286,-0.09033208 -1.40625004,-0.27099609 -0.4345726,-0.18066376 -0.8129902,-0.47851502 -1.1352539,-0.89355468 -0.3173841,-0.4150376 -0.5688487,-0.9594707 -0.7543945,-1.6333008 -0.1806647,-0.6787076 -0.2709967,-1.5161091 -0.2709961,-2.512207 -6e-7,-1.0400329 0.090331,-1.899407 0.2709961,-2.578125 0.1855458,-0.6835853 0.4394518,-1.2280184 0.7617188,-1.6333008 0.3222636,-0.4052637 0.7031226,-0.688466 1.1425781,-0.849609 0.43944991,-0.166006 0.91796505,-0.249013 1.43554686,-0.249024 0.49315937,1.1e-5 0.95458469,0.08302 1.38427734,0.249024 0.4345643,0.161143 0.8129819,0.4443453 1.1352539,0.849609 0.3222586,0.4052824 0.5761646,0.9497155 0.7617188,1.6333008 0.1855392,0.678718 0.2783125,1.5380921 0.2783203,2.578125 m -1.3403321,0 c -6.4e-6,-0.8203065 -0.048834,-1.5014582 -0.1464843,-2.043457 -0.097662,-0.5468673 -0.2417053,-0.9814372 -0.4321289,-1.303711 -0.1904354,-0.3271396 -0.4248101,-0.5566315 -0.70312504,-0.6884766 -0.27344236,-0.1367094 -0.58594205,-0.2050687 -0.9375,-0.2050781 -0.37109758,9.4e-6 -0.69824569,0.068369 -0.98144532,0.2050781 -0.28320604,0.1367279 -0.52246364,0.3686612 -0.71777344,0.6958008 -0.190432,0.3222738 -0.3344748,0.7568437 -0.4321289,1.303711 -0.097658,0.5419988 -0.1464863,1.2207091 -0.1464844,2.0361328 -1.9e-6,0.79102 0.048826,1.4575232 0.1464844,1.9995117 0.1025369,0.5419948 0.2490211,0.9790061 0.4394531,1.3110352 0.1953098,0.3271499 0.432126,0.5639661 0.71044924,0.7104492 0.27831682,0.1416025 0.59569932,0.21240325 0.95214844,0.21240232 0.34667517,9.3e-7 0.65917486,-0.0707998 0.9375,-0.21240232 C 1.2084907,-1.2890612 1.4428655,-1.5258774 1.6333008,-1.8530273 1.8286073,-2.1850564 1.9775329,-2.6220677 2.0800781,-3.1640625 2.1874936,-3.706051 2.2412045,-4.3725542 2.2412109,-5.1635742"
             id="path3260" />
        </g>
      </g>
    </g>
    <g
       id="g158"
       style="color:#808080;fill:none;stroke:currentColor;stroke-width:1.25;stroke-linecap:butt;stroke-linejoin:miter">
      <path
         d="m 385.3,444 0,-427.3"
         id="path160"
         style="stroke-width:1.25" />
    </g>
    <g
       id="g162"
       style="color:#000000;fill:none;stroke:currentColor;stroke-width:1.25;stroke-linecap:butt;stroke-linejoin:miter">
      <path
         d="m 385.3,444 0,-9 m 0,-418.3 0,9"
         id="path164"
         style="stroke-width:1.25" />
      <g
         transform="translate(385.3,466.5)"
         id="g166"
         style="font-size:15px;text-anchor:middle;fill:#000000;stroke:none;font-family:Arial">
        <g
           id="text168">
          <path
             d="m -2.6733398,-5.1635742 c -7.8e-6,0.9912151 -0.095223,1.8261752 -0.2856446,2.5048828 -0.1855541,0.6738301 -0.4419015,1.2207046 -0.7690429,1.640625 -0.322272,0.41503966 -0.703131,0.71289092 -1.1425782,0.89355468 -0.4394582,0.18066401 -0.9082077,0.27099595 -1.40625,0.27099609 -0.5029333,-1.4e-7 -0.9716828,-0.09033208 -1.40625,-0.27099609 -0.4345726,-0.18066376 -0.8129902,-0.47851502 -1.1352539,-0.89355468 -0.3173841,-0.4150376 -0.5688487,-0.9594707 -0.7543945,-1.6333008 -0.1806647,-0.6787076 -0.2709967,-1.5161091 -0.2709961,-2.512207 -6e-7,-1.0400329 0.090331,-1.899407 0.2709961,-2.578125 0.1855458,-0.6835853 0.4394518,-1.2280184 0.7617187,-1.6333008 0.3222637,-0.4052637 0.7031227,-0.688466 1.1425782,-0.849609 0.4394499,-0.166006 0.917965,-0.249013 1.4355468,-0.249024 0.4931594,1.1e-5 0.9545847,0.08302 1.3842774,0.249024 0.4345643,0.161143 0.8129819,0.4443453 1.1352539,0.849609 0.3222586,0.4052824 0.5761646,0.9497155 0.7617187,1.6333008 0.1855393,0.678718 0.2783126,1.5380921 0.2783204,2.578125 m -1.3403321,0 c -6.4e-6,-0.8203065 -0.048834,-1.5014582 -0.1464843,-2.043457 -0.097662,-0.5468673 -0.2417053,-0.9814372 -0.432129,-1.303711 -0.1904353,-0.3271396 -0.4248101,-0.5566315 -0.703125,-0.6884766 -0.2734423,-0.1367094 -0.585942,-0.2050687 -0.9375,-0.2050781 -0.3710975,9.4e-6 -0.6982456,0.068369 -0.9814453,0.2050781 -0.283206,0.1367279 -0.5224636,0.3686612 -0.7177734,0.6958008 -0.190432,0.3222738 -0.3344748,0.7568437 -0.4321289,1.303711 -0.097658,0.5419988 -0.1464863,1.2207091 -0.1464844,2.0361328 -1.9e-6,0.79102 0.048826,1.4575232 0.1464844,1.9995117 0.1025369,0.5419948 0.2490211,0.9790061 0.4394531,1.3110352 0.1953098,0.3271499 0.432126,0.5639661 0.7104492,0.7104492 0.2783169,0.1416025 0.5956993,0.21240325 0.9521485,0.21240232 0.3466751,9.3e-7 0.6591748,-0.0707998 0.9375,-0.21240232 0.2783149,-0.1464831 0.5126897,-0.3832993 0.703125,-0.7104492 0.1953065,-0.3320291 0.3442321,-0.7690404 0.4467773,-1.3110352 0.1074155,-0.5419885 0.1611264,-1.2084917 0.1611328,-1.9995117"
             id="path3263" />
          <path
             d="m -0.71044922,0 0,-1.6040039 1.42822266,0 0,1.6040039 -1.42822266,0"
             id="path3265" />
          <path
             d="m 9.7924805,-3.3618164 c -7.7e-6,0.517581 -0.078133,0.9912133 -0.234375,1.4208984 C 9.4018481,-1.511229 9.1699148,-1.1401356 8.8623047,-0.82763672 8.554681,-0.52001901 8.1713806,-0.28076144 7.7124023,-0.10986328 7.2582956,0.0610351 6.7309524,0.14648423 6.1303711,0.14648437 5.5883754,0.14648423 5.1147431,0.08300773 4.7094727,-0.04394531 4.3090798,-0.17089827 3.9697247,-0.34423794 3.6914063,-0.56396484 3.4130846,-0.78857343 3.1909169,-1.0498036 3.0249023,-1.3476562 2.8637687,-1.6455062 2.7490228,-1.9653301 2.6806641,-2.3071289 l 1.3330078,-0.1538086 c 0.053709,0.1953148 0.1293924,0.3857443 0.2270508,0.5712891 0.097654,0.1806657 0.2294898,0.3442398 0.3955078,0.4907226 0.1708957,0.1416028 0.378415,0.2563488 0.6225586,0.3442383 0.24902,0.0830088 0.5493126,0.12451265 0.9008789,0.12451172 0.3417924,9.3e-7 0.6518507,-0.0512685 0.9301757,-0.15380862 0.2783151,-0.1074207 0.5151312,-0.2636705 0.7104493,-0.46875 0.2001894,-0.2050763 0.3539978,-0.4565409 0.4614258,-0.7543945 0.1074155,-0.297849 0.1611264,-0.6396455 0.1611328,-1.0253906 -6.4e-6,-0.3173792 -0.051276,-0.6079062 -0.1538086,-0.8715821 -0.1025452,-0.2685502 -0.2490294,-0.4980421 -0.4394532,-0.6884765 -0.1904352,-0.1953074 -0.42481,-0.3466745 -0.703125,-0.4541016 -0.2734422,-0.1074164 -0.5859419,-0.1611273 -0.9375,-0.1611328 -0.2197304,5.5e-6 -0.4223669,0.019537 -0.6079101,0.058594 -0.1855502,0.039068 -0.3588899,0.092779 -0.5200195,0.1611328 -0.1562529,0.068365 -0.3002957,0.1489309 -0.432129,0.2416992 -0.1269555,0.087896 -0.2465843,0.1806689 -0.3588867,0.2783203 l -1.2890625,0 0.3442383,-5.5517578 5.8666992,0 0,1.1206054 -4.6655273,0 -0.1977539,3.2739258 c 0.2343725,-0.1806579 0.527341,-0.3344664 0.8789062,-0.4614257 0.3515591,-0.1318295 0.7690391,-0.1977474 1.2524414,-0.197754 0.5126905,6.6e-6 0.9741158,0.078132 1.3842774,0.234375 0.4101501,0.1562562 0.7592708,0.378424 1.0473633,0.666504 0.2880788,0.2832085 0.5102465,0.6225636 0.6665039,1.0180664 0.1562423,0.395512 0.2343673,0.8300819 0.234375,1.3037109"
             id="path3267" />
        </g>
      </g>
    </g>
    <g
       id="g170"
       style="color:#808080;fill:none;stroke:currentColor;stroke-width:1.25;stroke-linecap:butt;stroke-linejoin:miter">
      <path
         d="m 449.9,444 0,-427.3"
         id="path172"
         style="stroke-width:1.25" />
    </g>
    <g
       id="g174"
       style="color:#000000;fill:none;stroke:currentColor;stroke-width:1.25;stroke-linecap:butt;stroke-linejoin:miter">
      <path
         d="m 449.9,444 0,-9 m 0,-418.3 0,9"
         id="path176"
         style="stroke-width:1.25" />
      <g
         transform="translate(449.9,466.5)"
         id="g178"
         style="font-size:15px;text-anchor:middle;fill:#000000;stroke:none;font-family:Arial">
        <g
           id="text180">
          <path
             d="m -3.0322266,0 0,-1.1206055 2.62939457,0 0,-7.9394531 -2.32910157,1.6625977 0,-1.2451172 2.43896485,-1.6772459 1.21582031,0 0,9.1992185 2.51220704,0 0,1.1206055 -6.4672852,0"
             id="path3270" />
        </g>
      </g>
    </g>
    <g
       id="g182"
       style="color:#808080;fill:none;stroke:currentColor;stroke-width:1.25;stroke-linecap:butt;stroke-linejoin:miter">
      <path
         d="m 514.5,444 0,-427.3"
         id="path184"
         style="stroke-width:1.25" />
    </g>
    <g
       id="g186"
       style="color:#000000;fill:none;stroke:currentColor;stroke-width:1.25;stroke-linecap:butt;stroke-linejoin:miter">
      <path
         d="m 514.5,444 0,-9 m 0,-418.3 0,9"
         id="path188"
         style="stroke-width:1.25" />
      <g
         transform="translate(514.5,466.5)"
         id="g190"
         style="font-size:15px;text-anchor:middle;fill:#000000;stroke:none;font-family:Arial">
        <g
           id="text192">
          <path
             d="m -9.2871094,0 0,-1.1206055 2.6293946,0 0,-7.9394531 -2.3291016,1.6625977 0,-1.2451172 2.4389648,-1.6772459 1.2158204,0 0,9.1992185 2.512207,0 0,1.1206055 -6.4672852,0"
             id="path3273" />
          <path
             d="m -0.71044922,0 0,-1.6040039 1.42822266,0 0,1.6040039 -1.42822266,0"
             id="path3275" />
          <path
             d="m 9.7924805,-3.3618164 c -7.7e-6,0.517581 -0.078133,0.9912133 -0.234375,1.4208984 C 9.4018481,-1.511229 9.1699148,-1.1401356 8.8623047,-0.82763672 8.554681,-0.52001901 8.1713806,-0.28076144 7.7124023,-0.10986328 7.2582956,0.0610351 6.7309524,0.14648423 6.1303711,0.14648437 5.5883754,0.14648423 5.1147431,0.08300773 4.7094727,-0.04394531 4.3090798,-0.17089827 3.9697247,-0.34423794 3.6914063,-0.56396484 3.4130846,-0.78857343 3.1909169,-1.0498036 3.0249023,-1.3476562 2.8637687,-1.6455062 2.7490228,-1.9653301 2.6806641,-2.3071289 l 1.3330078,-0.1538086 c 0.053709,0.1953148 0.1293924,0.3857443 0.2270508,0.5712891 0.097654,0.1806657 0.2294898,0.3442398 0.3955078,0.4907226 0.1708957,0.1416028 0.378415,0.2563488 0.6225586,0.3442383 0.24902,0.0830088 0.5493126,0.12451265 0.9008789,0.12451172 0.3417924,9.3e-7 0.6518507,-0.0512685 0.9301757,-0.15380862 0.2783151,-0.1074207 0.5151312,-0.2636705 0.7104493,-0.46875 0.2001894,-0.2050763 0.3539978,-0.4565409 0.4614258,-0.7543945 0.1074155,-0.297849 0.1611264,-0.6396455 0.1611328,-1.0253906 -6.4e-6,-0.3173792 -0.051276,-0.6079062 -0.1538086,-0.8715821 -0.1025452,-0.2685502 -0.2490294,-0.4980421 -0.4394532,-0.6884765 -0.1904352,-0.1953074 -0.42481,-0.3466745 -0.703125,-0.4541016 -0.2734422,-0.1074164 -0.5859419,-0.1611273 -0.9375,-0.1611328 -0.2197304,5.5e-6 -0.4223669,0.019537 -0.6079101,0.058594 -0.1855502,0.039068 -0.3588899,0.092779 -0.5200195,0.1611328 -0.1562529,0.068365 -0.3002957,0.1489309 -0.432129,0.2416992 -0.1269555,0.087896 -0.2465843,0.1806689 -0.3588867,0.2783203 l -1.2890625,0 0.3442383,-5.5517578 5.8666992,0 0,1.1206054 -4.6655273,0 -0.1977539,3.2739258 c 0.2343725,-0.1806579 0.527341,-0.3344664 0.8789062,-0.4614257 0.3515591,-0.1318295 0.7690391,-0.1977474 1.2524414,-0.197754 0.5126905,6.6e-6 0.9741158,0.078132 1.3842774,0.234375 0.4101501,0.1562562 0.7592708,0.378424 1.0473633,0.666504 0.2880788,0.2832085 0.5102465,0.6225636 0.6665039,1.0180664 0.1562423,0.395512 0.2343673,0.8300819 0.234375,1.3037109"
             id="path3277" />
        </g>
      </g>
    </g>
    <g
       id="g194"
       style="color:#808080;fill:none;stroke:currentColor;stroke-width:1.25;stroke-linecap:butt;stroke-linejoin:miter">
      <path
         d="m 579.1,444 0,-427.3"
         id="path196"
         style="stroke-width:1.25" />
    </g>
    <g
       id="g198"
       style="color:#000000;fill:none;stroke:currentColor;stroke-width:1.25;stroke-linecap:butt;stroke-linejoin:miter">
      <path
         d="m 579.1,444 0,-9 m 0,-418.3 0,9"
         id="path200"
         style="stroke-width:1.25" />
      <g
         transform="translate(579.1,466.5)"
         id="g202"
         style="font-size:15px;text-anchor:middle;fill:#000000;stroke:none;font-family:Arial">
        <g
           id="text204">
          <path
             d="m -3.4204102,0 0,-0.93017578 c 0.2490225,-0.57128752 0.5517566,-1.07421672 0.9082032,-1.50878902 0.3613261,-0.4394503 0.7397437,-0.8349577 1.1352539,-1.1865235 0.39550459,-0.3564413 0.7861292,-0.6860308 1.17187497,-0.9887695 C 0.18554251,-4.9169873 0.53710466,-5.2197213 0.84960938,-5.5224609 1.162104,-5.8251895 1.4135686,-6.142572 1.6040039,-6.4746094 1.7993104,-6.8066338 1.8969666,-7.18261 1.8969727,-7.6025391 1.8969666,-7.8954999 1.8530213,-8.1518473 1.7651367,-8.371582 1.6772402,-8.5961828 1.5502872,-8.7841709 1.3842773,-8.9355469 1.2182563,-9.086905 1.0180612,-9.1992096 0.78369141,-9.2724609 0.55419449,-9.3505766 0.29784709,-9.389639 0.01464844,-9.3896484 c -0.2636758,9.4e-6 -0.51269899,0.03663 -0.74707031,0.1098632 -0.22949541,0.073251 -0.43457333,0.1831146 -0.61523433,0.3295899 -0.1806668,0.1464932 -0.3295924,0.3295985 -0.4467774,0.5493164 -0.1123069,0.2148519 -0.1855491,0.4663165 -0.2197266,0.7543945 l -1.3476562,-0.1245117 c 0.043944,-0.3710856 0.1464834,-0.7202063 0.3076172,-1.0473633 0.1611315,-0.3271393 0.3832993,-0.6127835 0.6665039,-0.8569336 0.283201,-0.2490135 0.6225562,-0.444326 1.0180664,-0.585937 0.40038741,-0.141592 0.86181273,-0.212392 1.38427734,-0.212403 0.51269061,1.1e-5 0.96923312,0.06105 1.36962886,0.183106 0.4003847,0.12208 0.7372984,0.302744 1.0107422,0.5419918 0.2783135,0.2392674 0.4907156,0.5346772 0.6372071,0.8862305 0.146477,0.351571 0.2197191,0.7568441 0.2197265,1.2158203 -7.4e-6,0.346687 -0.063484,0.6762765 -0.1904297,0.9887696 -0.1220774,0.3125063 -0.2880928,0.6103576 -0.4980468,0.8935546 -0.2050847,0.2832086 -0.4443423,0.5566459 -0.7177735,0.8203125 -0.2734432,0.2636766 -0.5590875,0.5224654 -0.85693357,0.7763672 -0.29785643,0.2490274 -0.5981491,0.4980506 -0.90087891,0.7470703 -0.30273833,0.2441438 -0.58838258,0.4907256 -0.85693359,0.7397461 -0.26367503,0.2490259 -0.50049123,0.5029319 -0.71044923,0.7617188 -0.2099634,0.2539079 -0.3735375,0.5200209 -0.4907226,0.7983398 l 5.3833007,0 0,1.1206055 -6.8334961,0"
             id="path3280" />
        </g>
      </g>
      <path
         d="m 62.2,16.7 0,427.3 516.9,0 0,-427.3 -516.9,0 z"
         id="path206"
         style="stroke-width:1.25" />
    </g>
    <a
       xlink:title="Plot #1"
       id="a208">
      <g
         id="g210"
         style="color:#ff0000;fill:none;stroke:currentColor;stroke-width:1.25;stroke-linecap:butt;stroke-linejoin:miter">
        <path
           d="m 62.2,405.2 5.2,0.3 5.2,0.8 5.3,1.4 5.2,1.7 5.2,2.1 5.2,2.3 5.2,2.5 5.3,2.6 5.2,2.6 5.2,2.6 5.2,2.4 5.3,2.2 5.2,1.9 5.2,1.5 5.2,1.2 5.2,0.6 5.3,-0.1 5.2,-0.6 5.2,-1.5 5.2,-2.2 5.2,-3.2 5.3,-4.1 5.2,-5.2 5.2,-6.3 5.2,-7.6 5.3,-9.7 5.2,-11.9 5.2,-13.9 5.2,-15.8 5.2,-17.2 5.3,-18.7 5.2,-19.7 5.2,-20.5 5.2,-21.2 5.2,-21.6 5.3,-21.8 5.2,-21.8 5.2,-21.4 5.2,-20.9 5.2,-20.2 5.3,-19.2 5.2,-17.9 5.2,-16.6 5.2,-14.8 5.3,-13 5.2,-10.8 5.2,-8.5 5.2,-5.9 5.2,-3 5.3,0 5.2,3 5.2,5.9 5.2,8.5 5.2,10.8 5.3,13 5.2,14.8 5.2,16.6 5.2,17.9 5.3,19.2 5.2,20.2 5.2,20.9 5.2,21.4 5.2,21.8 5.3,21.8 5.2,21.6 5.2,21.2 5.2,20.5 5.2,19.7 5.3,18.7 5.2,17.2 5.2,15.8 5.2,13.9 5.2,11.9 5.3,9.7 5.2,7.6 5.2,6.3 5.2,5.2 5.3,4.1 5.2,3.2 5.2,2.2 5.2,1.5 5.2,0.6 5.3,0.1 5.2,-0.6 5.2,-1.2 5.2,-1.5 5.2,-1.9 5.3,-2.2 5.2,-2.4 5.2,-2.6 5.2,-2.6 5.3,-2.6 5.2,-2.5 5.2,-2.3 5.2,-2.1 5.2,-1.7 5.3,-1.4 5.2,-0.8 5.2,-0.3"
           id="path212"
           style="stroke-width:1.25" />
      </g>
    </a>
    <g
       id="g214"
       style="color:#000000;fill:none;stroke:currentColor;stroke-width:1.25;stroke-linecap:butt;stroke-linejoin:miter">
      <path
         d="m 62.2,16.7 0,427.3 516.9,0 0,-427.3 -516.9,0 z"
         id="path216"
         style="stroke-width:1.25" />
    </g>
  </g>
</svg>
