<?xml version="1.0" encoding="UTF-8" standalone="no"?>
<!-- Created with Inkscape (http://www.inkscape.org/) -->

<svg
   xmlns:dc="http://purl.org/dc/elements/1.1/"
   xmlns:cc="http://creativecommons.org/ns#"
   xmlns:rdf="http://www.w3.org/1999/02/22-rdf-syntax-ns#"
   xmlns:svg="http://www.w3.org/2000/svg"
   xmlns="http://www.w3.org/2000/svg"
   xmlns:xlink="http://www.w3.org/1999/xlink"
   version="1.1"
   width="284"
   height="176"
   id="svg9409">
  <defs
     id="defs9411" />
  <metadata
     id="metadata9414">
    <rdf:RDF>
      <cc:Work
         rdf:about="">
        <dc:format>image/svg+xml</dc:format>
        <dc:type
           rdf:resource="http://purl.org/dc/dcmitype/StillImage" />
        <dc:title></dc:title>
      </cc:Work>
    </rdf:RDF>
  </metadata>
  <g
     transform="translate(-289.73596,-498.68747)"
     id="layer1">
    <g
       transform="matrix(2,0,0,2,-358.37128,249.48186)"
       id="g73122">
      <defs
         id="defs73124">
        <g
           id="g73126">
          <symbol
             id="textext-19877f1f-0"
             style="overflow:visible">
            <path
               d="m 3.65625,-3.984375 0.859375,0 c 0.203125,0 0.296875,0 0.296875,-0.203125 0,-0.109375 -0.09375,-0.109375 -0.265625,-0.109375 l -0.828125,0 C 3.828125,-4.875 3.8125,-4.859375 3.921875,-5.4375 c 0.046875,-0.203125 0.1875,-0.90625 0.25,-1.03125 0.078125,-0.1875 0.25,-0.34375 0.46875,-0.34375 0.03125,0 0.296875,0 0.484375,0.1875 -0.4375,0.03125 -0.546875,0.390625 -0.546875,0.53125 0,0.234375 0.1875,0.359375 0.375,0.359375 C 5.21875,-5.734375 5.5,-5.96875 5.5,-6.34375 c 0,-0.453125 -0.453125,-0.6875 -0.859375,-0.6875 -0.34375,0 -0.96875,0.1875 -1.265625,1.171875 -0.0625,0.203125 -0.09375,0.3125 -0.328125,1.5625 l -0.6875,0 c -0.203125,0 -0.3125,0 -0.3125,0.1875 0,0.125 0.09375,0.125 0.28125,0.125 l 0.65625,0 -0.734375,3.9375 c -0.1875,0.96875 -0.359375,1.875 -0.875,1.875 -0.046875,0 -0.28125,0 -0.484375,-0.1875 C 1.359375,1.609375 1.453125,1.25 1.453125,1.109375 1.453125,0.875 1.265625,0.75 1.078125,0.75 0.8125,0.75 0.53125,0.984375 0.53125,1.359375 c 0,0.4375 0.4375,0.6875 0.84375,0.6875 0.546875,0 0.953125,-0.59375 1.125,-0.96875 0.328125,-0.625 0.546875,-1.828125 0.5625,-1.90625 z m 0,0"
               id="path73129"
               style="stroke:none" />
          </symbol>
          <symbol
             id="textext-19877f1f-1"
             style="overflow:visible">
            <path
               d="M 3.328125,-3.015625 C 3.390625,-3.265625 3.625,-4.1875 4.3125,-4.1875 c 0.046875,0 0.296875,0 0.5,0.125 C 4.53125,-4 4.34375,-3.765625 4.34375,-3.515625 c 0,0.15625 0.109375,0.34375 0.375,0.34375 0.21875,0 0.53125,-0.171875 0.53125,-0.578125 0,-0.515625 -0.578125,-0.65625 -0.921875,-0.65625 -0.578125,0 -0.921875,0.53125 -1.046875,0.75 -0.25,-0.65625 -0.78125,-0.75 -1.078125,-0.75 -1.03125,0 -1.609375,1.28125 -1.609375,1.53125 0,0.109375 0.109375,0.109375 0.125,0.109375 0.078125,0 0.109375,-0.03125 0.125,-0.109375 0.34375,-1.0625 1,-1.3125 1.34375,-1.3125 0.1875,0 0.53125,0.09375 0.53125,0.671875 0,0.3125 -0.171875,0.96875 -0.53125,2.375 -0.15625,0.609375 -0.515625,1.03125 -0.953125,1.03125 -0.0625,0 -0.28125,0 -0.5,-0.125 0.25,-0.0625 0.46875,-0.265625 0.46875,-0.546875 0,-0.265625 -0.21875,-0.34375 -0.359375,-0.34375 -0.3125,0 -0.546875,0.25 -0.546875,0.578125 0,0.453125 0.484375,0.65625 0.921875,0.65625 0.671875,0 1.03125,-0.703125 1.046875,-0.75 0.125,0.359375 0.484375,0.75 1.078125,0.75 1.03125,0 1.59375,-1.28125 1.59375,-1.53125 0,-0.109375 -0.078125,-0.109375 -0.109375,-0.109375 -0.09375,0 -0.109375,0.046875 -0.140625,0.109375 -0.328125,1.078125 -1,1.3125 -1.3125,1.3125 -0.390625,0 -0.546875,-0.3125 -0.546875,-0.65625 0,-0.21875 0.046875,-0.4375 0.15625,-0.875 z m 0,0"
               id="path73132"
               style="stroke:none" />
          </symbol>
          <symbol
             id="textext-19877f1f-2"
             style="overflow:visible">
            <path
               d="m 2.03125,-0.015625 c 0,-0.65625 -0.25,-1.046875 -0.640625,-1.046875 -0.328125,0 -0.53125,0.25 -0.53125,0.53125 C 0.859375,-0.265625 1.0625,0 1.390625,0 1.5,0 1.640625,-0.046875 1.734375,-0.125 1.765625,-0.15625 1.78125,-0.15625 1.78125,-0.15625 c 0.015625,0 0.015625,0 0.015625,0.140625 0,0.75 -0.34375,1.34375 -0.671875,1.671875 -0.109375,0.109375 -0.109375,0.125 -0.109375,0.15625 0,0.078125 0.046875,0.109375 0.09375,0.109375 0.109375,0 0.921875,-0.765625 0.921875,-1.9375 z m 0,0"
               id="path73135"
               style="stroke:none" />
          </symbol>
          <symbol
             id="textext-19877f1f-3"
             style="overflow:visible">
            <path
               d="m 4.84375,-3.796875 c 0.046875,-0.140625 0.046875,-0.15625 0.046875,-0.234375 0,-0.171875 -0.140625,-0.265625 -0.296875,-0.265625 -0.09375,0 -0.25,0.0625 -0.34375,0.203125 -0.015625,0.0625 -0.109375,0.359375 -0.140625,0.546875 -0.078125,0.25 -0.140625,0.53125 -0.203125,0.796875 l -0.453125,1.796875 c -0.03125,0.140625 -0.46875,0.84375 -1.125,0.84375 -0.5,0 -0.609375,-0.4375 -0.609375,-0.8125 C 1.71875,-1.375 1.890625,-2 2.21875,-2.875 2.375,-3.28125 2.421875,-3.390625 2.421875,-3.59375 c 0,-0.4375 -0.3125,-0.8125 -0.8125,-0.8125 -0.953125,0 -1.3125,1.453125 -1.3125,1.53125 0,0.109375 0.09375,0.109375 0.109375,0.109375 0.109375,0 0.109375,-0.03125 0.15625,-0.1875 0.28125,-0.9375 0.671875,-1.234375 1.015625,-1.234375 0.078125,0 0.25,0 0.25,0.3125 0,0.25 -0.109375,0.515625 -0.171875,0.703125 -0.40625,1.0625 -0.578125,1.625 -0.578125,2.09375 0,0.890625 0.625,1.1875 1.21875,1.1875 0.390625,0 0.71875,-0.171875 1,-0.453125 -0.125,0.515625 -0.25,1.015625 -0.640625,1.546875 -0.265625,0.328125 -0.640625,0.625 -1.09375,0.625 -0.140625,0 -0.59375,-0.03125 -0.765625,-0.421875 0.15625,0 0.296875,0 0.421875,-0.125 C 1.328125,1.203125 1.421875,1.0625 1.421875,0.875 1.421875,0.5625 1.15625,0.53125 1.0625,0.53125 0.828125,0.53125 0.5,0.6875 0.5,1.171875 c 0,0.5 0.4375,0.875 1.0625,0.875 1.015625,0 2.046875,-0.90625 2.328125,-2.03125 z m 0,0"
               id="path73138"
               style="stroke:none" />
          </symbol>
          <symbol
             id="textext-19877f1f-4"
             style="overflow:visible">
            <path
               d="M 3.875,-2.625 C 3.90625,-2.71875 3.90625,-2.734375 3.90625,-2.78125 3.90625,-2.921875 3.796875,-3 3.671875,-3 3.59375,-3 3.46875,-2.96875 3.390625,-2.84375 3.359375,-2.796875 3.3125,-2.578125 3.28125,-2.4375 L 3.125,-1.859375 c -0.03125,0.171875 -0.25,1.046875 -0.28125,1.125 0,0 -0.3125,0.609375 -0.84375,0.609375 -0.484375,0 -0.484375,-0.453125 -0.484375,-0.578125 0,-0.375 0.15625,-0.8125 0.375,-1.359375 C 1.96875,-2.28125 2,-2.359375 2,-2.484375 2,-2.8125 1.71875,-3.078125 1.34375,-3.078125 0.640625,-3.078125 0.328125,-2.125 0.328125,-2 c 0,0.078125 0.09375,0.078125 0.125,0.078125 0.09375,0 0.09375,-0.03125 0.125,-0.109375 C 0.75,-2.609375 1.046875,-2.875 1.328125,-2.875 1.4375,-2.875 1.5,-2.796875 1.5,-2.640625 c 0,0.171875 -0.0625,0.3125 -0.09375,0.40625 C 1.0625,-1.375 1,-1.125 1,-0.8125 1,-0.703125 1,-0.375 1.265625,-0.140625 1.484375,0.03125 1.78125,0.0625 1.96875,0.0625 2.25,0.0625 2.5,-0.03125 2.71875,-0.25 2.640625,0.140625 2.5625,0.4375 2.265625,0.78125 2.078125,1 1.796875,1.21875 1.421875,1.21875 c -0.046875,0 -0.375,0 -0.515625,-0.21875 0.375,-0.046875 0.375,-0.375 0.375,-0.390625 0,-0.21875 -0.203125,-0.265625 -0.265625,-0.265625 -0.171875,0 -0.40625,0.140625 -0.40625,0.46875 0,0.34375 0.328125,0.609375 0.828125,0.609375 C 2.140625,1.421875 3,0.875 3.21875,0 z m 0,0"
               id="path73141"
               style="stroke:none" />
          </symbol>
          <symbol
             id="textext-19877f1f-5"
             style="overflow:visible">
            <path
               d="m 2.328125,-4.4375 c 0,-0.1875 0,-0.1875 -0.203125,-0.1875 -0.453125,0.4375 -1.078125,0.4375 -1.359375,0.4375 l 0,0.25 c 0.15625,0 0.625,0 1,-0.1875 l 0,3.546875 c 0,0.234375 0,0.328125 -0.6875,0.328125 l -0.265625,0 0,0.25 c 0.125,0 0.984375,-0.03125 1.234375,-0.03125 0.21875,0 1.09375,0.03125 1.25,0.03125 l 0,-0.25 -0.265625,0 c -0.703125,0 -0.703125,-0.09375 -0.703125,-0.328125 z m 0,0"
               id="path73144"
               style="stroke:none" />
          </symbol>
          <symbol
             id="textext-19877f1f-6"
             style="overflow:visible">
            <path
               d="m 3.515625,-1.265625 -0.234375,0 c -0.015625,0.15625 -0.09375,0.5625 -0.1875,0.625 -0.046875,0.046875 -0.578125,0.046875 -0.6875,0.046875 l -1.28125,0 c 0.734375,-0.640625 0.984375,-0.84375 1.390625,-1.171875 0.515625,-0.40625 1,-0.84375 1,-1.5 0,-0.84375 -0.734375,-1.359375 -1.625,-1.359375 -0.859375,0 -1.453125,0.609375 -1.453125,1.25 0,0.34375 0.296875,0.390625 0.375,0.390625 0.15625,0 0.359375,-0.125 0.359375,-0.375 0,-0.125 -0.046875,-0.375 -0.40625,-0.375 C 0.984375,-4.21875 1.453125,-4.375 1.78125,-4.375 c 0.703125,0 1.0625,0.546875 1.0625,1.109375 0,0.609375 -0.4375,1.078125 -0.65625,1.328125 L 0.515625,-0.265625 C 0.4375,-0.203125 0.4375,-0.1875 0.4375,0 l 2.875,0 z m 0,0"
               id="path73147"
               style="stroke:none" />
          </symbol>
          <symbol
             id="textext-19877f1f-7"
             style="overflow:visible">
            <path
               d="m 6.84375,-3.265625 c 0.15625,0 0.34375,0 0.34375,-0.1875 C 7.1875,-3.65625 7,-3.65625 6.859375,-3.65625 l -5.96875,0 c -0.140625,0 -0.328125,0 -0.328125,0.203125 0,0.1875 0.1875,0.1875 0.328125,0.1875 z m 0.015625,1.9375 c 0.140625,0 0.328125,0 0.328125,-0.203125 0,-0.1875 -0.1875,-0.1875 -0.34375,-0.1875 l -5.953125,0 c -0.140625,0 -0.328125,0 -0.328125,0.1875 0,0.203125 0.1875,0.203125 0.328125,0.203125 z m 0,0"
               id="path73150"
               style="stroke:none" />
          </symbol>
          <symbol
             id="textext-19877f1f-8"
             style="overflow:visible">
            <path
               d="m 4.078125,-2.296875 2.78125,0 C 7,-2.296875 7.1875,-2.296875 7.1875,-2.5 7.1875,-2.6875 7,-2.6875 6.859375,-2.6875 l -2.78125,0 0,-2.796875 c 0,-0.140625 0,-0.328125 -0.203125,-0.328125 -0.203125,0 -0.203125,0.1875 -0.203125,0.328125 l 0,2.796875 -2.78125,0 c -0.140625,0 -0.328125,0 -0.328125,0.1875 0,0.203125 0.1875,0.203125 0.328125,0.203125 l 2.78125,0 0,2.796875 c 0,0.140625 0,0.328125 0.203125,0.328125 0.203125,0 0.203125,-0.1875 0.203125,-0.328125 z m 0,0"
               id="path73153"
               style="stroke:none" />
          </symbol>
          <symbol
             id="textext-19877f1f-9"
             style="overflow:visible">
            <path
               d="m 3.296875,2.390625 c 0,-0.03125 0,-0.046875 -0.171875,-0.21875 C 1.890625,0.921875 1.5625,-0.96875 1.5625,-2.5 c 0,-1.734375 0.375,-3.46875 1.609375,-4.703125 0.125,-0.125 0.125,-0.140625 0.125,-0.171875 0,-0.078125 -0.03125,-0.109375 -0.09375,-0.109375 -0.109375,0 -1,0.6875 -1.59375,1.953125 -0.5,1.09375 -0.625,2.203125 -0.625,3.03125 0,0.78125 0.109375,1.984375 0.65625,3.125 C 2.25,1.84375 3.09375,2.5 3.203125,2.5 c 0.0625,0 0.09375,-0.03125 0.09375,-0.109375 z m 0,0"
               id="path73156"
               style="stroke:none" />
          </symbol>
          <symbol
             id="textext-19877f1f-10"
             style="overflow:visible">
            <path
               d="m 2.875,-2.5 c 0,-0.765625 -0.109375,-1.96875 -0.65625,-3.109375 -0.59375,-1.21875 -1.453125,-1.875 -1.546875,-1.875 -0.0625,0 -0.109375,0.046875 -0.109375,0.109375 0,0.03125 0,0.046875 0.1875,0.234375 0.984375,0.984375 1.546875,2.5625 1.546875,4.640625 0,1.71875 -0.359375,3.46875 -1.59375,4.71875 C 0.5625,2.34375 0.5625,2.359375 0.5625,2.390625 0.5625,2.453125 0.609375,2.5 0.671875,2.5 0.765625,2.5 1.671875,1.8125 2.25,0.546875 2.765625,-0.546875 2.875,-1.65625 2.875,-2.5 z m 0,0"
               id="path73159"
               style="stroke:none" />
          </symbol>
          <symbol
             id="textext-19877f1f-11"
             style="overflow:visible">
            <path
               d="m 6.59375,-2.296875 c 0.140625,0 0.328125,0 0.328125,-0.203125 0,-0.1875 -0.1875,-0.1875 -0.328125,-0.1875 l -5.4375,0 c -0.140625,0 -0.328125,0 -0.328125,0.1875 0,0.203125 0.1875,0.203125 0.328125,0.203125 z m 0,0"
               id="path73162"
               style="stroke:none" />
          </symbol>
        </g>
      </defs>
      <g
         id="textext-19877f1f-12">
        <g
           id="g73165"
           style="fill:#000000;fill-opacity:1">
          <use
             id="use73167"
             x="339.07401"
             y="138.461"
             width="744.09448"
             height="1052.3622"
             xlink:href="#textext-19877f1f-0" />
        </g>
        <g
           id="g73169"
           style="fill:#000000;fill-opacity:1">
          <use
             id="use73171"
             x="343.95099"
             y="139.955"
             width="744.09448"
             height="1052.3622"
             xlink:href="#textext-19877f1f-4" />
        </g>
        <g
           id="g73173"
           style="fill:#000000;fill-opacity:1">
          <use
             id="use73175"
             x="348.242"
             y="139.955"
             width="744.09448"
             height="1052.3622"
             xlink:href="#textext-19877f1f-5" />
        </g>
        <g
           id="g73177"
           style="fill:#000000;fill-opacity:1">
          <use
             id="use73179"
             x="354.70401"
             y="138.461"
             width="744.09448"
             height="1052.3622"
             xlink:href="#textext-19877f1f-7" />
        </g>
        <g
           id="g73181"
           style="fill:#000000;fill-opacity:1">
          <use
             id="use73183"
             x="364.44501"
             y="138.461"
             width="744.09448"
             height="1052.3622"
             xlink:href="#textext-19877f1f-0" />
        </g>
        <g
           id="g73185"
           style="fill:#000000;fill-opacity:1">
          <use
             id="use73187"
             x="369.323"
             y="139.955"
             width="744.09448"
             height="1052.3622"
             xlink:href="#textext-19877f1f-5" />
          <use
             id="use73189"
             x="373.29459"
             y="139.955"
             width="744.09448"
             height="1052.3622"
             xlink:href="#textext-19877f1f-5" />
        </g>
        <g
           id="g73191"
           style="fill:#000000;fill-opacity:1">
          <use
             id="use73193"
             x="379.97699"
             y="138.461"
             width="744.09448"
             height="1052.3622"
             xlink:href="#textext-19877f1f-8" />
        </g>
        <g
           id="g73195"
           style="fill:#000000;fill-opacity:1">
          <use
             id="use73197"
             x="391.13501"
             y="131.72099"
             width="744.09448"
             height="1052.3622"
             xlink:href="#textext-19877f1f-0" />
        </g>
        <g
           id="g73199"
           style="fill:#000000;fill-opacity:1">
          <use
             id="use73201"
             x="396.013"
             y="133.215"
             width="744.09448"
             height="1052.3622"
             xlink:href="#textext-19877f1f-6" />
          <use
             id="use73203"
             x="399.98459"
             y="133.215"
             width="744.09448"
             height="1052.3622"
             xlink:href="#textext-19877f1f-5" />
        </g>
        <g
           id="g73205"
           style="fill:#000000;fill-opacity:1">
          <use
             id="use73207"
             x="406.66699"
             y="131.72099"
             width="744.09448"
             height="1052.3622"
             xlink:href="#textext-19877f1f-11" />
        </g>
        <g
           id="g73209"
           style="fill:#000000;fill-opacity:1">
          <use
             id="use73211"
             x="416.63"
             y="131.72099"
             width="744.09448"
             height="1052.3622"
             xlink:href="#textext-19877f1f-0" />
        </g>
        <g
           id="g73213"
           style="fill:#000000;fill-opacity:1">
          <use
             id="use73215"
             x="421.508"
             y="133.215"
             width="744.09448"
             height="1052.3622"
             xlink:href="#textext-19877f1f-5" />
          <use
             id="use73217"
             x="425.47958"
             y="133.215"
             width="744.09448"
             height="1052.3622"
             xlink:href="#textext-19877f1f-5" />
        </g>
        <path
           d="m 0.00171875,0.00125 38.81250025,0"
           transform="matrix(1,0,0,-1,391.135,135.97)"
           id="path73219"
           style="fill:none;stroke:#000000;stroke-width:0.398;stroke-linecap:butt;stroke-linejoin:miter;stroke-miterlimit:10;stroke-opacity:1" />
        <g
           id="g73221"
           style="fill:#000000;fill-opacity:1">
          <use
             id="use73223"
             x="394.29001"
             y="145.29401"
             width="744.09448"
             height="1052.3622"
             xlink:href="#textext-19877f1f-1" />
        </g>
        <g
           id="g73225"
           style="fill:#000000;fill-opacity:1">
          <use
             id="use73227"
             x="399.98401"
             y="146.789"
             width="744.09448"
             height="1052.3622"
             xlink:href="#textext-19877f1f-6" />
        </g>
        <g
           id="g73229"
           style="fill:#000000;fill-opacity:1">
          <use
             id="use73231"
             x="406.66699"
             y="145.29401"
             width="744.09448"
             height="1052.3622"
             xlink:href="#textext-19877f1f-11" />
        </g>
        <g
           id="g73233"
           style="fill:#000000;fill-opacity:1">
          <use
             id="use73235"
             x="416.63"
             y="145.29401"
             width="744.09448"
             height="1052.3622"
             xlink:href="#textext-19877f1f-1" />
        </g>
        <g
           id="g73237"
           style="fill:#000000;fill-opacity:1">
          <use
             id="use73239"
             x="422.32401"
             y="146.789"
             width="744.09448"
             height="1052.3622"
             xlink:href="#textext-19877f1f-5" />
        </g>
        <g
           id="g73241"
           style="fill:#000000;fill-opacity:1">
          <use
             id="use73243"
             x="431.14401"
             y="138.461"
             width="744.09448"
             height="1052.3622"
             xlink:href="#textext-19877f1f-9" />
        </g>
        <g
           id="g73245"
           style="fill:#000000;fill-opacity:1">
          <use
             id="use73247"
             x="435.01801"
             y="138.461"
             width="744.09448"
             height="1052.3622"
             xlink:href="#textext-19877f1f-1" />
        </g>
        <g
           id="g73249"
           style="fill:#000000;fill-opacity:1">
          <use
             id="use73251"
             x="442.92599"
             y="138.461"
             width="744.09448"
             height="1052.3622"
             xlink:href="#textext-19877f1f-11" />
        </g>
        <g
           id="g73253"
           style="fill:#000000;fill-opacity:1">
          <use
             id="use73255"
             x="452.88901"
             y="138.461"
             width="744.09448"
             height="1052.3622"
             xlink:href="#textext-19877f1f-1" />
        </g>
        <g
           id="g73257"
           style="fill:#000000;fill-opacity:1">
          <use
             id="use73259"
             x="458.582"
             y="139.955"
             width="744.09448"
             height="1052.3622"
             xlink:href="#textext-19877f1f-5" />
        </g>
        <g
           id="g73261"
           style="fill:#000000;fill-opacity:1">
          <use
             id="use73263"
             x="463.052"
             y="138.461"
             width="744.09448"
             height="1052.3622"
             xlink:href="#textext-19877f1f-10" />
        </g>
        <g
           id="g73265"
           style="fill:#000000;fill-opacity:1">
          <use
             id="use73267"
             x="339.07401"
             y="171.048"
             width="744.09448"
             height="1052.3622"
             xlink:href="#textext-19877f1f-0" />
        </g>
        <g
           id="g73269"
           style="fill:#000000;fill-opacity:1">
          <use
             id="use73271"
             x="343.95099"
             y="172.54201"
             width="744.09448"
             height="1052.3622"
             xlink:href="#textext-19877f1f-4" />
        </g>
        <g
           id="g73273"
           style="fill:#000000;fill-opacity:1">
          <use
             id="use73275"
             x="348.242"
             y="172.54201"
             width="744.09448"
             height="1052.3622"
             xlink:href="#textext-19877f1f-6" />
        </g>
        <g
           id="g73277"
           style="fill:#000000;fill-opacity:1">
          <use
             id="use73279"
             x="354.70401"
             y="171.048"
             width="744.09448"
             height="1052.3622"
             xlink:href="#textext-19877f1f-7" />
        </g>
        <g
           id="g73281"
           style="fill:#000000;fill-opacity:1">
          <use
             id="use73283"
             x="364.44501"
             y="171.048"
             width="744.09448"
             height="1052.3622"
             xlink:href="#textext-19877f1f-0" />
        </g>
        <g
           id="g73285"
           style="fill:#000000;fill-opacity:1">
          <use
             id="use73287"
             x="369.323"
             y="172.54201"
             width="744.09448"
             height="1052.3622"
             xlink:href="#textext-19877f1f-5" />
          <use
             id="use73289"
             x="373.29459"
             y="172.54201"
             width="744.09448"
             height="1052.3622"
             xlink:href="#textext-19877f1f-6" />
        </g>
        <g
           id="g73291"
           style="fill:#000000;fill-opacity:1">
          <use
             id="use73293"
             x="379.97699"
             y="171.048"
             width="744.09448"
             height="1052.3622"
             xlink:href="#textext-19877f1f-8" />
        </g>
        <g
           id="g73295"
           style="fill:#000000;fill-opacity:1">
          <use
             id="use73297"
             x="391.13501"
             y="164.308"
             width="744.09448"
             height="1052.3622"
             xlink:href="#textext-19877f1f-0" />
        </g>
        <g
           id="g73299"
           style="fill:#000000;fill-opacity:1">
          <use
             id="use73301"
             x="396.013"
             y="165.802"
             width="744.09448"
             height="1052.3622"
             xlink:href="#textext-19877f1f-6" />
          <use
             id="use73303"
             x="399.98459"
             y="165.802"
             width="744.09448"
             height="1052.3622"
             xlink:href="#textext-19877f1f-6" />
        </g>
        <g
           id="g73305"
           style="fill:#000000;fill-opacity:1">
          <use
             id="use73307"
             x="406.66699"
             y="164.308"
             width="744.09448"
             height="1052.3622"
             xlink:href="#textext-19877f1f-11" />
        </g>
        <g
           id="g73309"
           style="fill:#000000;fill-opacity:1">
          <use
             id="use73311"
             x="416.63"
             y="164.308"
             width="744.09448"
             height="1052.3622"
             xlink:href="#textext-19877f1f-0" />
        </g>
        <g
           id="g73313"
           style="fill:#000000;fill-opacity:1">
          <use
             id="use73315"
             x="421.508"
             y="165.802"
             width="744.09448"
             height="1052.3622"
             xlink:href="#textext-19877f1f-5" />
          <use
             id="use73317"
             x="425.47958"
             y="165.802"
             width="744.09448"
             height="1052.3622"
             xlink:href="#textext-19877f1f-6" />
        </g>
        <path
           d="m 0.00171875,-0.00159375 38.81250025,0"
           transform="matrix(1,0,0,-1,391.135,168.557)"
           id="path73319"
           style="fill:none;stroke:#000000;stroke-width:0.398;stroke-linecap:butt;stroke-linejoin:miter;stroke-miterlimit:10;stroke-opacity:1" />
        <g
           id="g73321"
           style="fill:#000000;fill-opacity:1">
          <use
             id="use73323"
             x="394.29001"
             y="177.882"
             width="744.09448"
             height="1052.3622"
             xlink:href="#textext-19877f1f-1" />
        </g>
        <g
           id="g73325"
           style="fill:#000000;fill-opacity:1">
          <use
             id="use73327"
             x="399.98401"
             y="179.37601"
             width="744.09448"
             height="1052.3622"
             xlink:href="#textext-19877f1f-6" />
        </g>
        <g
           id="g73329"
           style="fill:#000000;fill-opacity:1">
          <use
             id="use73331"
             x="406.66699"
             y="177.882"
             width="744.09448"
             height="1052.3622"
             xlink:href="#textext-19877f1f-11" />
        </g>
        <g
           id="g73333"
           style="fill:#000000;fill-opacity:1">
          <use
             id="use73335"
             x="416.63"
             y="177.882"
             width="744.09448"
             height="1052.3622"
             xlink:href="#textext-19877f1f-1" />
        </g>
        <g
           id="g73337"
           style="fill:#000000;fill-opacity:1">
          <use
             id="use73339"
             x="422.32401"
             y="179.37601"
             width="744.09448"
             height="1052.3622"
             xlink:href="#textext-19877f1f-5" />
        </g>
        <g
           id="g73341"
           style="fill:#000000;fill-opacity:1">
          <use
             id="use73343"
             x="431.14401"
             y="171.048"
             width="744.09448"
             height="1052.3622"
             xlink:href="#textext-19877f1f-9" />
        </g>
        <g
           id="g73345"
           style="fill:#000000;fill-opacity:1">
          <use
             id="use73347"
             x="435.01801"
             y="171.048"
             width="744.09448"
             height="1052.3622"
             xlink:href="#textext-19877f1f-1" />
        </g>
        <g
           id="g73349"
           style="fill:#000000;fill-opacity:1">
          <use
             id="use73351"
             x="442.92599"
             y="171.048"
             width="744.09448"
             height="1052.3622"
             xlink:href="#textext-19877f1f-11" />
        </g>
        <g
           id="g73353"
           style="fill:#000000;fill-opacity:1">
          <use
             id="use73355"
             x="452.88901"
             y="171.048"
             width="744.09448"
             height="1052.3622"
             xlink:href="#textext-19877f1f-1" />
        </g>
        <g
           id="g73357"
           style="fill:#000000;fill-opacity:1">
          <use
             id="use73359"
             x="458.582"
             y="172.54201"
             width="744.09448"
             height="1052.3622"
             xlink:href="#textext-19877f1f-5" />
        </g>
        <g
           id="g73361"
           style="fill:#000000;fill-opacity:1">
          <use
             id="use73363"
             x="463.052"
             y="171.048"
             width="744.09448"
             height="1052.3622"
             xlink:href="#textext-19877f1f-10" />
        </g>
        <g
           id="g73365"
           style="fill:#000000;fill-opacity:1">
          <use
             id="use73367"
             x="323.64899"
             y="203.63499"
             width="744.09448"
             height="1052.3622"
             xlink:href="#textext-19877f1f-0" />
        </g>
        <g
           id="g73369"
           style="fill:#000000;fill-opacity:1">
          <use
             id="use73371"
             x="329.599"
             y="203.63499"
             width="744.09448"
             height="1052.3622"
             xlink:href="#textext-19877f1f-9" />
        </g>
        <g
           id="g73373"
           style="fill:#000000;fill-opacity:1">
          <use
             id="use73375"
             x="333.47299"
             y="203.63499"
             width="744.09448"
             height="1052.3622"
             xlink:href="#textext-19877f1f-1" />
          <use
             id="use73377"
             x="339.16663"
             y="203.63499"
             width="744.09448"
             height="1052.3622"
             xlink:href="#textext-19877f1f-2" />
        </g>
        <g
           id="g73379"
           style="fill:#000000;fill-opacity:1">
          <use
             id="use73381"
             x="343.59799"
             y="203.63499"
             width="744.09448"
             height="1052.3622"
             xlink:href="#textext-19877f1f-3" />
        </g>
        <g
           id="g73383"
           style="fill:#000000;fill-opacity:1">
          <use
             id="use73385"
             x="348.83701"
             y="203.63499"
             width="744.09448"
             height="1052.3622"
             xlink:href="#textext-19877f1f-10" />
        </g>
        <g
           id="g73387"
           style="fill:#000000;fill-opacity:1">
          <use
             id="use73389"
             x="354.70398"
             y="203.63499"
             width="744.09448"
             height="1052.3622"
             xlink:href="#textext-19877f1f-7" />
        </g>
        <g
           id="g73391"
           style="fill:#000000;fill-opacity:1">
          <use
             id="use73393"
             x="364.44501"
             y="203.63499"
             width="744.09448"
             height="1052.3622"
             xlink:href="#textext-19877f1f-0" />
        </g>
        <g
           id="g73395"
           style="fill:#000000;fill-opacity:1">
          <use
             id="use73397"
             x="369.323"
             y="205.13"
             width="744.09448"
             height="1052.3622"
             xlink:href="#textext-19877f1f-4" />
        </g>
        <g
           id="g73399"
           style="fill:#000000;fill-opacity:1">
          <use
             id="use73401"
             x="373.61301"
             y="205.13"
             width="744.09448"
             height="1052.3622"
             xlink:href="#textext-19877f1f-5" />
        </g>
        <g
           id="g73403"
           style="fill:#000000;fill-opacity:1">
          <use
             id="use73405"
             x="380.297"
             y="203.63499"
             width="744.09448"
             height="1052.3622"
             xlink:href="#textext-19877f1f-8" />
        </g>
        <g
           id="g73407"
           style="fill:#000000;fill-opacity:1">
          <use
             id="use73409"
             x="391.45499"
             y="196.895"
             width="744.09448"
             height="1052.3622"
             xlink:href="#textext-19877f1f-0" />
        </g>
        <g
           id="g73411"
           style="fill:#000000;fill-opacity:1">
          <use
             id="use73413"
             x="396.332"
             y="198.39"
             width="744.09448"
             height="1052.3622"
             xlink:href="#textext-19877f1f-4" />
        </g>
        <g
           id="g73415"
           style="fill:#000000;fill-opacity:1">
          <use
             id="use73417"
             x="400.62299"
             y="198.39"
             width="744.09448"
             height="1052.3622"
             xlink:href="#textext-19877f1f-6" />
        </g>
        <g
           id="g73419"
           style="fill:#000000;fill-opacity:1">
          <use
             id="use73421"
             x="407.306"
             y="196.895"
             width="744.09448"
             height="1052.3622"
             xlink:href="#textext-19877f1f-11" />
        </g>
        <g
           id="g73423"
           style="fill:#000000;fill-opacity:1">
          <use
             id="use73425"
             x="417.26901"
             y="196.895"
             width="744.09448"
             height="1052.3622"
             xlink:href="#textext-19877f1f-0" />
        </g>
        <g
           id="g73427"
           style="fill:#000000;fill-opacity:1">
          <use
             id="use73429"
             x="422.146"
             y="198.39"
             width="744.09448"
             height="1052.3622"
             xlink:href="#textext-19877f1f-4" />
        </g>
        <g
           id="g73431"
           style="fill:#000000;fill-opacity:1">
          <use
             id="use73433"
             x="426.43701"
             y="198.39"
             width="744.09448"
             height="1052.3622"
             xlink:href="#textext-19877f1f-5" />
        </g>
        <path
           d="m -0.001875,-5.3125e-4 39.453125,0"
           transform="matrix(1,0,0,-1,391.455,201.144)"
           id="path73435"
           style="fill:none;stroke:#000000;stroke-width:0.398;stroke-linecap:butt;stroke-linejoin:miter;stroke-miterlimit:10;stroke-opacity:1" />
        <g
           id="g73437"
           style="fill:#000000;fill-opacity:1">
          <use
             id="use73439"
             x="395.73901"
             y="210.46899"
             width="744.09448"
             height="1052.3622"
             xlink:href="#textext-19877f1f-3" />
        </g>
        <g
           id="g73441"
           style="fill:#000000;fill-opacity:1">
          <use
             id="use73443"
             x="400.62299"
             y="211.963"
             width="744.09448"
             height="1052.3622"
             xlink:href="#textext-19877f1f-6" />
        </g>
        <g
           id="g73445"
           style="fill:#000000;fill-opacity:1">
          <use
             id="use73447"
             x="407.306"
             y="210.46899"
             width="744.09448"
             height="1052.3622"
             xlink:href="#textext-19877f1f-11" />
        </g>
        <g
           id="g73449"
           style="fill:#000000;fill-opacity:1">
          <use
             id="use73451"
             x="417.26901"
             y="210.46899"
             width="744.09448"
             height="1052.3622"
             xlink:href="#textext-19877f1f-3" />
        </g>
        <g
           id="g73453"
           style="fill:#000000;fill-opacity:1">
          <use
             id="use73455"
             x="422.15302"
             y="211.963"
             width="744.09448"
             height="1052.3622"
             xlink:href="#textext-19877f1f-5" />
        </g>
        <g
           id="g73457"
           style="fill:#000000;fill-opacity:1">
          <use
             id="use73459"
             x="432.10199"
             y="203.63499"
             width="744.09448"
             height="1052.3622"
             xlink:href="#textext-19877f1f-9" />
        </g>
        <g
           id="g73461"
           style="fill:#000000;fill-opacity:1">
          <use
             id="use73463"
             x="435.97601"
             y="203.63499"
             width="744.09448"
             height="1052.3622"
             xlink:href="#textext-19877f1f-3" />
        </g>
        <g
           id="g73465"
           style="fill:#000000;fill-opacity:1">
          <use
             id="use73467"
             x="443.43201"
             y="203.63499"
             width="744.09448"
             height="1052.3622"
             xlink:href="#textext-19877f1f-11" />
        </g>
        <g
           id="g73469"
           style="fill:#000000;fill-opacity:1">
          <use
             id="use73471"
             x="453.39499"
             y="203.63499"
             width="744.09448"
             height="1052.3622"
             xlink:href="#textext-19877f1f-3" />
        </g>
        <g
           id="g73473"
           style="fill:#000000;fill-opacity:1">
          <use
             id="use73475"
             x="458.27899"
             y="205.13"
             width="744.09448"
             height="1052.3622"
             xlink:href="#textext-19877f1f-5" />
        </g>
        <g
           id="g73477"
           style="fill:#000000;fill-opacity:1">
          <use
             id="use73479"
             x="462.74899"
             y="203.63499"
             width="744.09448"
             height="1052.3622"
             xlink:href="#textext-19877f1f-10" />
        </g>
      </g>
    </g>
  </g>
</svg>
