<?xml version="1.0" encoding="UTF-8" standalone="no"?>
<!-- Created with Inkscape (http://www.inkscape.org/) -->

<svg
   xmlns:dc="http://purl.org/dc/elements/1.1/"
   xmlns:cc="http://creativecommons.org/ns#"
   xmlns:rdf="http://www.w3.org/1999/02/22-rdf-syntax-ns#"
   xmlns:svg="http://www.w3.org/2000/svg"
   xmlns="http://www.w3.org/2000/svg"
   xmlns:xlink="http://www.w3.org/1999/xlink"
   version="1.1"
   width="295"
   height="110"
   id="svg12183">
  <defs
     id="defs12185" />
  <metadata
     id="metadata12188">
    <rdf:RDF>
      <cc:Work
         rdf:about="">
        <dc:format>image/svg+xml</dc:format>
        <dc:type
           rdf:resource="http://purl.org/dc/dcmitype/StillImage" />
        <dc:title></dc:title>
      </cc:Work>
    </rdf:RDF>
  </metadata>
  <g
     transform="translate(-215.10067,-485.37504)"
     id="layer1">
    <g
       transform="translate(0.28823332,-0.18362451)"
       id="g13245">
      <g
         transform="matrix(2,0,0,2,-522.46305,231.18104)"
         id="g60165">
        <defs
           id="defs60167">
          <g
             id="g60169">
            <symbol
               id="textext-75b83829-0"
               style="overflow:visible">
              <path
                 d="M 3.328125,-3.015625 C 3.390625,-3.265625 3.625,-4.1875 4.3125,-4.1875 c 0.046875,0 0.296875,0 0.5,0.125 C 4.53125,-4 4.34375,-3.765625 4.34375,-3.515625 c 0,0.15625 0.109375,0.34375 0.375,0.34375 0.21875,0 0.53125,-0.171875 0.53125,-0.578125 0,-0.515625 -0.578125,-0.65625 -0.921875,-0.65625 -0.578125,0 -0.921875,0.53125 -1.046875,0.75 -0.25,-0.65625 -0.78125,-0.75 -1.078125,-0.75 -1.03125,0 -1.609375,1.28125 -1.609375,1.53125 0,0.109375 0.109375,0.109375 0.125,0.109375 0.078125,0 0.109375,-0.03125 0.125,-0.109375 0.34375,-1.0625 1,-1.3125 1.34375,-1.3125 0.1875,0 0.53125,0.09375 0.53125,0.671875 0,0.3125 -0.171875,0.96875 -0.53125,2.375 -0.15625,0.609375 -0.515625,1.03125 -0.953125,1.03125 -0.0625,0 -0.28125,0 -0.5,-0.125 0.25,-0.0625 0.46875,-0.265625 0.46875,-0.546875 0,-0.265625 -0.21875,-0.34375 -0.359375,-0.34375 -0.3125,0 -0.546875,0.25 -0.546875,0.578125 0,0.453125 0.484375,0.65625 0.921875,0.65625 0.671875,0 1.03125,-0.703125 1.046875,-0.75 0.125,0.359375 0.484375,0.75 1.078125,0.75 1.03125,0 1.59375,-1.28125 1.59375,-1.53125 0,-0.109375 -0.078125,-0.109375 -0.109375,-0.109375 -0.09375,0 -0.109375,0.046875 -0.140625,0.109375 -0.328125,1.078125 -1,1.3125 -1.3125,1.3125 -0.390625,0 -0.546875,-0.3125 -0.546875,-0.65625 0,-0.21875 0.046875,-0.4375 0.15625,-0.875 z m 0,0"
                 id="path60172"
                 style="stroke:none" />
            </symbol>
            <symbol
               id="textext-75b83829-1"
               style="overflow:visible">
              <path
                 d="m 4.84375,-3.796875 c 0.046875,-0.140625 0.046875,-0.15625 0.046875,-0.234375 0,-0.171875 -0.140625,-0.265625 -0.296875,-0.265625 -0.09375,0 -0.25,0.0625 -0.34375,0.203125 -0.015625,0.0625 -0.109375,0.359375 -0.140625,0.546875 -0.078125,0.25 -0.140625,0.53125 -0.203125,0.796875 l -0.453125,1.796875 c -0.03125,0.140625 -0.46875,0.84375 -1.125,0.84375 -0.5,0 -0.609375,-0.4375 -0.609375,-0.8125 C 1.71875,-1.375 1.890625,-2 2.21875,-2.875 2.375,-3.28125 2.421875,-3.390625 2.421875,-3.59375 c 0,-0.4375 -0.3125,-0.8125 -0.8125,-0.8125 -0.953125,0 -1.3125,1.453125 -1.3125,1.53125 0,0.109375 0.09375,0.109375 0.109375,0.109375 0.109375,0 0.109375,-0.03125 0.15625,-0.1875 0.28125,-0.9375 0.671875,-1.234375 1.015625,-1.234375 0.078125,0 0.25,0 0.25,0.3125 0,0.25 -0.109375,0.515625 -0.171875,0.703125 -0.40625,1.0625 -0.578125,1.625 -0.578125,2.09375 0,0.890625 0.625,1.1875 1.21875,1.1875 0.390625,0 0.71875,-0.171875 1,-0.453125 -0.125,0.515625 -0.25,1.015625 -0.640625,1.546875 -0.265625,0.328125 -0.640625,0.625 -1.09375,0.625 -0.140625,0 -0.59375,-0.03125 -0.765625,-0.421875 0.15625,0 0.296875,0 0.421875,-0.125 C 1.328125,1.203125 1.421875,1.0625 1.421875,0.875 1.421875,0.5625 1.15625,0.53125 1.0625,0.53125 0.828125,0.53125 0.5,0.6875 0.5,1.171875 c 0,0.5 0.4375,0.875 1.0625,0.875 1.015625,0 2.046875,-0.90625 2.328125,-2.03125 z m 0,0"
                 id="path60175"
                 style="stroke:none" />
            </symbol>
            <symbol
               id="textext-75b83829-2"
               style="overflow:visible">
              <path
                 d="m 2.328125,-4.4375 c 0,-0.1875 0,-0.1875 -0.203125,-0.1875 -0.453125,0.4375 -1.078125,0.4375 -1.359375,0.4375 l 0,0.25 c 0.15625,0 0.625,0 1,-0.1875 l 0,3.546875 c 0,0.234375 0,0.328125 -0.6875,0.328125 l -0.265625,0 0,0.25 c 0.125,0 0.984375,-0.03125 1.234375,-0.03125 0.21875,0 1.09375,0.03125 1.25,0.03125 l 0,-0.25 -0.265625,0 c -0.703125,0 -0.703125,-0.09375 -0.703125,-0.328125 z m 0,0"
                 id="path60178"
                 style="stroke:none" />
            </symbol>
            <symbol
               id="textext-75b83829-3"
               style="overflow:visible">
              <path
                 d="m 3.515625,-1.265625 -0.234375,0 c -0.015625,0.15625 -0.09375,0.5625 -0.1875,0.625 -0.046875,0.046875 -0.578125,0.046875 -0.6875,0.046875 l -1.28125,0 c 0.734375,-0.640625 0.984375,-0.84375 1.390625,-1.171875 0.515625,-0.40625 1,-0.84375 1,-1.5 0,-0.84375 -0.734375,-1.359375 -1.625,-1.359375 -0.859375,0 -1.453125,0.609375 -1.453125,1.25 0,0.34375 0.296875,0.390625 0.375,0.390625 0.15625,0 0.359375,-0.125 0.359375,-0.375 0,-0.125 -0.046875,-0.375 -0.40625,-0.375 C 0.984375,-4.21875 1.453125,-4.375 1.78125,-4.375 c 0.703125,0 1.0625,0.546875 1.0625,1.109375 0,0.609375 -0.4375,1.078125 -0.65625,1.328125 L 0.515625,-0.265625 C 0.4375,-0.203125 0.4375,-0.1875 0.4375,0 l 2.875,0 z m 0,0"
                 id="path60181"
                 style="stroke:none" />
            </symbol>
            <symbol
               id="textext-75b83829-4"
               style="overflow:visible">
              <path
                 d="m 6.84375,-3.265625 c 0.15625,0 0.34375,0 0.34375,-0.1875 C 7.1875,-3.65625 7,-3.65625 6.859375,-3.65625 l -5.96875,0 c -0.140625,0 -0.328125,0 -0.328125,0.203125 0,0.1875 0.1875,0.1875 0.328125,0.1875 z m 0.015625,1.9375 c 0.140625,0 0.328125,0 0.328125,-0.203125 0,-0.1875 -0.1875,-0.1875 -0.34375,-0.1875 l -5.953125,0 c -0.140625,0 -0.328125,0 -0.328125,0.1875 0,0.203125 0.1875,0.203125 0.328125,0.203125 z m 0,0"
                 id="path60184"
                 style="stroke:none" />
            </symbol>
            <symbol
               id="textext-75b83829-5"
               style="overflow:visible">
              <path
                 d="m 4.078125,-2.296875 2.78125,0 C 7,-2.296875 7.1875,-2.296875 7.1875,-2.5 7.1875,-2.6875 7,-2.6875 6.859375,-2.6875 l -2.78125,0 0,-2.796875 c 0,-0.140625 0,-0.328125 -0.203125,-0.328125 -0.203125,0 -0.203125,0.1875 -0.203125,0.328125 l 0,2.796875 -2.78125,0 c -0.140625,0 -0.328125,0 -0.328125,0.1875 0,0.203125 0.1875,0.203125 0.328125,0.203125 l 2.78125,0 0,2.796875 c 0,0.140625 0,0.328125 0.203125,0.328125 0.203125,0 0.203125,-0.1875 0.203125,-0.328125 z m 0,0"
                 id="path60187"
                 style="stroke:none" />
            </symbol>
            <symbol
               id="textext-75b83829-6"
               style="overflow:visible">
              <path
                 d="m 2.9375,-6.375 c 0,-0.25 0,-0.265625 -0.234375,-0.265625 C 2.078125,-6 1.203125,-6 0.890625,-6 l 0,0.3125 c 0.203125,0 0.78125,0 1.296875,-0.265625 l 0,5.171875 c 0,0.359375 -0.03125,0.46875 -0.921875,0.46875 l -0.3125,0 0,0.3125 c 0.34375,-0.03125 1.203125,-0.03125 1.609375,-0.03125 0.390625,0 1.265625,0 1.609375,0.03125 l 0,-0.3125 -0.3125,0 c -0.90625,0 -0.921875,-0.109375 -0.921875,-0.46875 z m 0,0"
                 id="path60190"
                 style="stroke:none" />
            </symbol>
            <symbol
               id="textext-75b83829-7"
               style="overflow:visible">
              <path
                 d="m 3.875,2.5 c 0.15625,0 0.328125,0 0.328125,-0.203125 C 4.203125,2.09375 4.03125,2.09375 3.875,2.09375 l -1.734375,0 0,-9.234375 c 0,-0.140625 0,-0.34375 -0.203125,-0.34375 -0.203125,0 -0.203125,0.203125 -0.203125,0.34375 l 0,9.296875 C 1.734375,2.453125 1.78125,2.5 2.078125,2.5 z m 0,0"
                 id="path60193"
                 style="stroke:none" />
            </symbol>
            <symbol
               id="textext-75b83829-8"
               style="overflow:visible">
              <path
                 d="m 2.6875,-7.140625 c 0,-0.140625 0,-0.34375 -0.203125,-0.34375 -0.203125,0 -0.203125,0.203125 -0.203125,0.34375 l 0,9.234375 -1.75,0 c -0.140625,0 -0.328125,0 -0.328125,0.203125 C 0.203125,2.5 0.390625,2.5 0.53125,2.5 l 1.828125,0 C 2.640625,2.5 2.6875,2.453125 2.6875,2.15625 z m 0,0"
                 id="path60196"
                 style="stroke:none" />
            </symbol>
          </g>
        </defs>
        <g
           id="textext-75b83829-9">
          <g
             id="g60199"
             style="fill:#000000;fill-opacity:1">
            <use
               id="use60201"
               x="368.48499"
               y="134.765"
               width="744.09448"
               height="1052.3622"
               xlink:href="#textext-75b83829-0" />
          </g>
          <g
             id="g60203"
             style="fill:#000000;fill-opacity:1">
            <use
               id="use60205"
               x="374.17899"
               y="136.259"
               width="744.09448"
               height="1052.3622"
               xlink:href="#textext-75b83829-2" />
          </g>
          <g
             id="g60207"
             style="fill:#000000;fill-opacity:1">
            <use
               id="use60209"
               x="380.64099"
               y="134.765"
               width="744.09448"
               height="1052.3622"
               xlink:href="#textext-75b83829-4" />
          </g>
          <g
             id="g60211"
             style="fill:#000000;fill-opacity:1">
            <use
               id="use60213"
               x="390.38199"
               y="134.765"
               width="744.09448"
               height="1052.3622"
               xlink:href="#textext-75b83829-7" />
          </g>
          <g
             id="g60215"
             style="fill:#000000;fill-opacity:1">
            <use
               id="use60217"
               x="394.81"
               y="134.765"
               width="744.09448"
               height="1052.3622"
               xlink:href="#textext-75b83829-0" />
          </g>
          <g
             id="g60219"
             style="fill:#000000;fill-opacity:1">
            <use
               id="use60221"
               x="400.504"
               y="134.765"
               width="744.09448"
               height="1052.3622"
               xlink:href="#textext-75b83829-8" />
          </g>
          <g
             id="g60223"
             style="fill:#000000;fill-opacity:1">
            <use
               id="use60225"
               x="368.48499"
               y="149.709"
               width="744.09448"
               height="1052.3622"
               xlink:href="#textext-75b83829-0" />
          </g>
          <g
             id="g60227"
             style="fill:#000000;fill-opacity:1">
            <use
               id="use60229"
               x="374.17899"
               y="151.203"
               width="744.09448"
               height="1052.3622"
               xlink:href="#textext-75b83829-3" />
          </g>
          <g
             id="g60231"
             style="fill:#000000;fill-opacity:1">
            <use
               id="use60233"
               x="380.64099"
               y="149.709"
               width="744.09448"
               height="1052.3622"
               xlink:href="#textext-75b83829-4" />
          </g>
          <g
             id="g60235"
             style="fill:#000000;fill-opacity:1">
            <use
               id="use60237"
               x="390.38199"
               y="149.709"
               width="744.09448"
               height="1052.3622"
               xlink:href="#textext-75b83829-7" />
          </g>
          <g
             id="g60239"
             style="fill:#000000;fill-opacity:1">
            <use
               id="use60241"
               x="394.81"
               y="149.709"
               width="744.09448"
               height="1052.3622"
               xlink:href="#textext-75b83829-0" />
          </g>
          <g
             id="g60243"
             style="fill:#000000;fill-opacity:1">
            <use
               id="use60245"
               x="400.504"
               y="149.709"
               width="744.09448"
               height="1052.3622"
               xlink:href="#textext-75b83829-8" />
          </g>
          <g
             id="g60247"
             style="fill:#000000;fill-opacity:1">
            <use
               id="use60249"
               x="407.146"
               y="149.709"
               width="744.09448"
               height="1052.3622"
               xlink:href="#textext-75b83829-5" />
          </g>
          <g
             id="g60251"
             style="fill:#000000;fill-opacity:1">
            <use
               id="use60253"
               x="417.1066"
               y="149.709"
               width="744.09448"
               height="1052.3622"
               xlink:href="#textext-75b83829-6" />
          </g>
          <g
             id="g60255"
             style="fill:#000000;fill-opacity:1">
            <use
               id="use60257"
               x="369.29501"
               y="164.653"
               width="744.09448"
               height="1052.3622"
               xlink:href="#textext-75b83829-1" />
          </g>
          <g
             id="g60259"
             style="fill:#000000;fill-opacity:1">
            <use
               id="use60261"
               x="374.17899"
               y="166.147"
               width="744.09448"
               height="1052.3622"
               xlink:href="#textext-75b83829-2" />
          </g>
          <g
             id="g60263"
             style="fill:#000000;fill-opacity:1">
            <use
               id="use60265"
               x="380.64099"
               y="164.653"
               width="744.09448"
               height="1052.3622"
               xlink:href="#textext-75b83829-4" />
          </g>
          <g
             id="g60267"
             style="fill:#000000;fill-opacity:1">
            <use
               id="use60269"
               x="390.38199"
               y="164.653"
               width="744.09448"
               height="1052.3622"
               xlink:href="#textext-75b83829-7" />
          </g>
          <g
             id="g60271"
             style="fill:#000000;fill-opacity:1">
            <use
               id="use60273"
               x="394.81"
               y="164.653"
               width="744.09448"
               height="1052.3622"
               xlink:href="#textext-75b83829-1" />
          </g>
          <g
             id="g60275"
             style="fill:#000000;fill-opacity:1">
            <use
               id="use60277"
               x="400.052"
               y="164.653"
               width="744.09448"
               height="1052.3622"
               xlink:href="#textext-75b83829-8" />
          </g>
          <g
             id="g60279"
             style="fill:#000000;fill-opacity:1">
            <use
               id="use60281"
               x="369.29501"
               y="179.597"
               width="744.09448"
               height="1052.3622"
               xlink:href="#textext-75b83829-1" />
          </g>
          <g
             id="g60283"
             style="fill:#000000;fill-opacity:1">
            <use
               id="use60285"
               x="374.17899"
               y="181.091"
               width="744.09448"
               height="1052.3622"
               xlink:href="#textext-75b83829-3" />
          </g>
          <g
             id="g60287"
             style="fill:#000000;fill-opacity:1">
            <use
               id="use60289"
               x="380.64099"
               y="179.597"
               width="744.09448"
               height="1052.3622"
               xlink:href="#textext-75b83829-4" />
          </g>
          <g
             id="g60291"
             style="fill:#000000;fill-opacity:1">
            <use
               id="use60293"
               x="390.38199"
               y="179.597"
               width="744.09448"
               height="1052.3622"
               xlink:href="#textext-75b83829-7" />
          </g>
          <g
             id="g60295"
             style="fill:#000000;fill-opacity:1">
            <use
               id="use60297"
               x="394.81"
               y="179.597"
               width="744.09448"
               height="1052.3622"
               xlink:href="#textext-75b83829-1" />
          </g>
          <g
             id="g60299"
             style="fill:#000000;fill-opacity:1">
            <use
               id="use60301"
               x="400.052"
               y="179.597"
               width="744.09448"
               height="1052.3622"
               xlink:href="#textext-75b83829-8" />
          </g>
          <g
             id="g60303"
             style="fill:#000000;fill-opacity:1">
            <use
               id="use60305"
               x="406.694"
               y="179.597"
               width="744.09448"
               height="1052.3622"
               xlink:href="#textext-75b83829-5" />
          </g>
          <g
             id="g60307"
             style="fill:#000000;fill-opacity:1">
            <use
               id="use60309"
               x="416.6546"
               y="179.597"
               width="744.09448"
               height="1052.3622"
               xlink:href="#textext-75b83829-6" />
          </g>
        </g>
      </g>
      <g
         transform="matrix(2,0,0,2,-341.74777,231.18104)"
         id="g6431">
        <defs
           id="defs6433">
          <g
             id="g6435">
            <symbol
               id="textext-069e88f9-0"
               style="overflow:visible">
              <path
                 d="m 3.65625,-3.984375 0.859375,0 c 0.203125,0 0.296875,0 0.296875,-0.203125 0,-0.109375 -0.09375,-0.109375 -0.265625,-0.109375 l -0.828125,0 C 3.828125,-4.875 3.8125,-4.859375 3.921875,-5.4375 c 0.046875,-0.203125 0.1875,-0.90625 0.25,-1.03125 0.078125,-0.1875 0.25,-0.34375 0.46875,-0.34375 0.03125,0 0.296875,0 0.484375,0.1875 -0.4375,0.03125 -0.546875,0.390625 -0.546875,0.53125 0,0.234375 0.1875,0.359375 0.375,0.359375 C 5.21875,-5.734375 5.5,-5.96875 5.5,-6.34375 c 0,-0.453125 -0.453125,-0.6875 -0.859375,-0.6875 -0.34375,0 -0.96875,0.1875 -1.265625,1.171875 -0.0625,0.203125 -0.09375,0.3125 -0.328125,1.5625 l -0.6875,0 c -0.203125,0 -0.3125,0 -0.3125,0.1875 0,0.125 0.09375,0.125 0.28125,0.125 l 0.65625,0 -0.734375,3.9375 c -0.1875,0.96875 -0.359375,1.875 -0.875,1.875 -0.046875,0 -0.28125,0 -0.484375,-0.1875 C 1.359375,1.609375 1.453125,1.25 1.453125,1.109375 1.453125,0.875 1.265625,0.75 1.078125,0.75 0.8125,0.75 0.53125,0.984375 0.53125,1.359375 c 0,0.4375 0.4375,0.6875 0.84375,0.6875 0.546875,0 0.953125,-0.59375 1.125,-0.96875 0.328125,-0.625 0.546875,-1.828125 0.5625,-1.90625 z m 0,0"
                 id="path6438"
                 style="stroke:none" />
            </symbol>
            <symbol
               id="textext-069e88f9-1"
               style="overflow:visible">
              <path
                 d="M 3.328125,-3.015625 C 3.390625,-3.265625 3.625,-4.1875 4.3125,-4.1875 c 0.046875,0 0.296875,0 0.5,0.125 C 4.53125,-4 4.34375,-3.765625 4.34375,-3.515625 c 0,0.15625 0.109375,0.34375 0.375,0.34375 0.21875,0 0.53125,-0.171875 0.53125,-0.578125 0,-0.515625 -0.578125,-0.65625 -0.921875,-0.65625 -0.578125,0 -0.921875,0.53125 -1.046875,0.75 -0.25,-0.65625 -0.78125,-0.75 -1.078125,-0.75 -1.03125,0 -1.609375,1.28125 -1.609375,1.53125 0,0.109375 0.109375,0.109375 0.125,0.109375 0.078125,0 0.109375,-0.03125 0.125,-0.109375 0.34375,-1.0625 1,-1.3125 1.34375,-1.3125 0.1875,0 0.53125,0.09375 0.53125,0.671875 0,0.3125 -0.171875,0.96875 -0.53125,2.375 -0.15625,0.609375 -0.515625,1.03125 -0.953125,1.03125 -0.0625,0 -0.28125,0 -0.5,-0.125 0.25,-0.0625 0.46875,-0.265625 0.46875,-0.546875 0,-0.265625 -0.21875,-0.34375 -0.359375,-0.34375 -0.3125,0 -0.546875,0.25 -0.546875,0.578125 0,0.453125 0.484375,0.65625 0.921875,0.65625 0.671875,0 1.03125,-0.703125 1.046875,-0.75 0.125,0.359375 0.484375,0.75 1.078125,0.75 1.03125,0 1.59375,-1.28125 1.59375,-1.53125 0,-0.109375 -0.078125,-0.109375 -0.109375,-0.109375 -0.09375,0 -0.109375,0.046875 -0.140625,0.109375 -0.328125,1.078125 -1,1.3125 -1.3125,1.3125 -0.390625,0 -0.546875,-0.3125 -0.546875,-0.65625 0,-0.21875 0.046875,-0.4375 0.15625,-0.875 z m 0,0"
                 id="path6441"
                 style="stroke:none" />
            </symbol>
            <symbol
               id="textext-069e88f9-2"
               style="overflow:visible">
              <path
                 d="m 2.03125,-0.015625 c 0,-0.65625 -0.25,-1.046875 -0.640625,-1.046875 -0.328125,0 -0.53125,0.25 -0.53125,0.53125 C 0.859375,-0.265625 1.0625,0 1.390625,0 1.5,0 1.640625,-0.046875 1.734375,-0.125 1.765625,-0.15625 1.78125,-0.15625 1.78125,-0.15625 c 0.015625,0 0.015625,0 0.015625,0.140625 0,0.75 -0.34375,1.34375 -0.671875,1.671875 -0.109375,0.109375 -0.109375,0.125 -0.109375,0.15625 0,0.078125 0.046875,0.109375 0.09375,0.109375 0.109375,0 0.921875,-0.765625 0.921875,-1.9375 z m 0,0"
                 id="path6444"
                 style="stroke:none" />
            </symbol>
            <symbol
               id="textext-069e88f9-3"
               style="overflow:visible">
              <path
                 d="m 4.84375,-3.796875 c 0.046875,-0.140625 0.046875,-0.15625 0.046875,-0.234375 0,-0.171875 -0.140625,-0.265625 -0.296875,-0.265625 -0.09375,0 -0.25,0.0625 -0.34375,0.203125 -0.015625,0.0625 -0.109375,0.359375 -0.140625,0.546875 -0.078125,0.25 -0.140625,0.53125 -0.203125,0.796875 l -0.453125,1.796875 c -0.03125,0.140625 -0.46875,0.84375 -1.125,0.84375 -0.5,0 -0.609375,-0.4375 -0.609375,-0.8125 C 1.71875,-1.375 1.890625,-2 2.21875,-2.875 2.375,-3.28125 2.421875,-3.390625 2.421875,-3.59375 c 0,-0.4375 -0.3125,-0.8125 -0.8125,-0.8125 -0.953125,0 -1.3125,1.453125 -1.3125,1.53125 0,0.109375 0.09375,0.109375 0.109375,0.109375 0.109375,0 0.109375,-0.03125 0.15625,-0.1875 0.28125,-0.9375 0.671875,-1.234375 1.015625,-1.234375 0.078125,0 0.25,0 0.25,0.3125 0,0.25 -0.109375,0.515625 -0.171875,0.703125 -0.40625,1.0625 -0.578125,1.625 -0.578125,2.09375 0,0.890625 0.625,1.1875 1.21875,1.1875 0.390625,0 0.71875,-0.171875 1,-0.453125 -0.125,0.515625 -0.25,1.015625 -0.640625,1.546875 -0.265625,0.328125 -0.640625,0.625 -1.09375,0.625 -0.140625,0 -0.59375,-0.03125 -0.765625,-0.421875 0.15625,0 0.296875,0 0.421875,-0.125 C 1.328125,1.203125 1.421875,1.0625 1.421875,0.875 1.421875,0.5625 1.15625,0.53125 1.0625,0.53125 0.828125,0.53125 0.5,0.6875 0.5,1.171875 c 0,0.5 0.4375,0.875 1.0625,0.875 1.015625,0 2.046875,-0.90625 2.328125,-2.03125 z m 0,0"
                 id="path6447"
                 style="stroke:none" />
            </symbol>
            <symbol
               id="textext-069e88f9-4"
               style="overflow:visible">
              <path
                 d="m 2.328125,-4.4375 c 0,-0.1875 0,-0.1875 -0.203125,-0.1875 -0.453125,0.4375 -1.078125,0.4375 -1.359375,0.4375 l 0,0.25 c 0.15625,0 0.625,0 1,-0.1875 l 0,3.546875 c 0,0.234375 0,0.328125 -0.6875,0.328125 l -0.265625,0 0,0.25 c 0.125,0 0.984375,-0.03125 1.234375,-0.03125 0.21875,0 1.09375,0.03125 1.25,0.03125 l 0,-0.25 -0.265625,0 c -0.703125,0 -0.703125,-0.09375 -0.703125,-0.328125 z m 0,0"
                 id="path6450"
                 style="stroke:none" />
            </symbol>
            <symbol
               id="textext-069e88f9-5"
               style="overflow:visible">
              <path
                 d="m 3.515625,-1.265625 -0.234375,0 c -0.015625,0.15625 -0.09375,0.5625 -0.1875,0.625 -0.046875,0.046875 -0.578125,0.046875 -0.6875,0.046875 l -1.28125,0 c 0.734375,-0.640625 0.984375,-0.84375 1.390625,-1.171875 0.515625,-0.40625 1,-0.84375 1,-1.5 0,-0.84375 -0.734375,-1.359375 -1.625,-1.359375 -0.859375,0 -1.453125,0.609375 -1.453125,1.25 0,0.34375 0.296875,0.390625 0.375,0.390625 0.15625,0 0.359375,-0.125 0.359375,-0.375 0,-0.125 -0.046875,-0.375 -0.40625,-0.375 C 0.984375,-4.21875 1.453125,-4.375 1.78125,-4.375 c 0.703125,0 1.0625,0.546875 1.0625,1.109375 0,0.609375 -0.4375,1.078125 -0.65625,1.328125 L 0.515625,-0.265625 C 0.4375,-0.203125 0.4375,-0.1875 0.4375,0 l 2.875,0 z m 0,0"
                 id="path6453"
                 style="stroke:none" />
            </symbol>
            <symbol
               id="textext-069e88f9-6"
               style="overflow:visible">
              <path
                 d="m 6.84375,-4.234375 c 0.15625,0 0.34375,0 0.34375,-0.1875 C 7.1875,-4.625 7,-4.625 6.859375,-4.625 l -5.96875,0 c -0.140625,0 -0.328125,0 -0.328125,0.203125 0,0.1875 0.1875,0.1875 0.328125,0.1875 z m 0.015625,3.875 c 0.140625,0 0.328125,0 0.328125,-0.203125 C 7.1875,-0.75 7,-0.75 6.84375,-0.75 l -5.953125,0 c -0.140625,0 -0.328125,0 -0.328125,0.1875 0,0.203125 0.1875,0.203125 0.328125,0.203125 z m 0,-1.9375 C 7,-2.296875 7.1875,-2.296875 7.1875,-2.5 7.1875,-2.6875 7,-2.6875 6.859375,-2.6875 l -5.96875,0 c -0.140625,0 -0.328125,0 -0.328125,0.1875 0,0.203125 0.1875,0.203125 0.328125,0.203125 z m 0,0"
                 id="path6456"
                 style="stroke:none" />
            </symbol>
            <symbol
               id="textext-069e88f9-7"
               style="overflow:visible">
              <path
                 d="m 3.296875,2.390625 c 0,-0.03125 0,-0.046875 -0.171875,-0.21875 C 1.890625,0.921875 1.5625,-0.96875 1.5625,-2.5 c 0,-1.734375 0.375,-3.46875 1.609375,-4.703125 0.125,-0.125 0.125,-0.140625 0.125,-0.171875 0,-0.078125 -0.03125,-0.109375 -0.09375,-0.109375 -0.109375,0 -1,0.6875 -1.59375,1.953125 -0.5,1.09375 -0.625,2.203125 -0.625,3.03125 0,0.78125 0.109375,1.984375 0.65625,3.125 C 2.25,1.84375 3.09375,2.5 3.203125,2.5 c 0.0625,0 0.09375,-0.03125 0.09375,-0.109375 z m 0,0"
                 id="path6459"
                 style="stroke:none" />
            </symbol>
            <symbol
               id="textext-069e88f9-8"
               style="overflow:visible">
              <path
                 d="m 2.875,-2.5 c 0,-0.765625 -0.109375,-1.96875 -0.65625,-3.109375 -0.59375,-1.21875 -1.453125,-1.875 -1.546875,-1.875 -0.0625,0 -0.109375,0.046875 -0.109375,0.109375 0,0.03125 0,0.046875 0.1875,0.234375 0.984375,0.984375 1.546875,2.5625 1.546875,4.640625 0,1.71875 -0.359375,3.46875 -1.59375,4.71875 C 0.5625,2.34375 0.5625,2.359375 0.5625,2.390625 0.5625,2.453125 0.609375,2.5 0.671875,2.5 0.765625,2.5 1.671875,1.8125 2.25,0.546875 2.765625,-0.546875 2.875,-1.65625 2.875,-2.5 z m 0,0"
                 id="path6462"
                 style="stroke:none" />
            </symbol>
          </g>
        </defs>
        <g
           id="textext-069e88f9-9">
          <g
             id="g6465"
             style="fill:#000000;fill-opacity:1">
            <use
               id="use6467"
               x="363.94"
               y="134.765"
               width="744.09448"
               height="1052.3622"
               xlink:href="#textext-069e88f9-0" />
          </g>
          <g
             id="g6469"
             style="fill:#000000;fill-opacity:1">
            <use
               id="use6471"
               x="368.81699"
               y="136.259"
               width="744.09448"
               height="1052.3622"
               xlink:href="#textext-069e88f9-4" />
            <use
               id="use6473"
               x="372.78857"
               y="136.259"
               width="744.09448"
               height="1052.3622"
               xlink:href="#textext-069e88f9-4" />
          </g>
          <g
             id="g6475"
             style="fill:#000000;fill-opacity:1">
            <use
               id="use6477"
               x="379.25101"
               y="134.765"
               width="744.09448"
               height="1052.3622"
               xlink:href="#textext-069e88f9-6" />
          </g>
          <g
             id="g6479"
             style="fill:#000000;fill-opacity:1">
            <use
               id="use6481"
               x="388.992"
               y="134.765"
               width="744.09448"
               height="1052.3622"
               xlink:href="#textext-069e88f9-0" />
          </g>
          <g
             id="g6483"
             style="fill:#000000;fill-opacity:1">
            <use
               id="use6485"
               x="394.94199"
               y="134.765"
               width="744.09448"
               height="1052.3622"
               xlink:href="#textext-069e88f9-7" />
          </g>
          <g
             id="g6487"
             style="fill:#000000;fill-opacity:1">
            <use
               id="use6489"
               x="398.81601"
               y="134.765"
               width="744.09448"
               height="1052.3622"
               xlink:href="#textext-069e88f9-1" />
          </g>
          <g
             id="g6491"
             style="fill:#000000;fill-opacity:1">
            <use
               id="use6493"
               x="404.51001"
               y="136.259"
               width="744.09448"
               height="1052.3622"
               xlink:href="#textext-069e88f9-4" />
          </g>
          <g
             id="g6495"
             style="fill:#000000;fill-opacity:1">
            <use
               id="use6497"
               x="408.979"
               y="134.765"
               width="744.09448"
               height="1052.3622"
               xlink:href="#textext-069e88f9-2" />
          </g>
          <g
             id="g6499"
             style="fill:#000000;fill-opacity:1">
            <use
               id="use6501"
               x="413.41037"
               y="134.765"
               width="744.09448"
               height="1052.3622"
               xlink:href="#textext-069e88f9-3" />
          </g>
          <g
             id="g6503"
             style="fill:#000000;fill-opacity:1">
            <use
               id="use6505"
               x="418.29199"
               y="136.259"
               width="744.09448"
               height="1052.3622"
               xlink:href="#textext-069e88f9-4" />
          </g>
          <g
             id="g6507"
             style="fill:#000000;fill-opacity:1">
            <use
               id="use6509"
               x="422.76099"
               y="134.765"
               width="744.09448"
               height="1052.3622"
               xlink:href="#textext-069e88f9-8" />
          </g>
          <g
             id="g6511"
             style="fill:#000000;fill-opacity:1">
            <use
               id="use6513"
               x="363.94"
               y="149.709"
               width="744.09448"
               height="1052.3622"
               xlink:href="#textext-069e88f9-0" />
          </g>
          <g
             id="g6515"
             style="fill:#000000;fill-opacity:1">
            <use
               id="use6517"
               x="368.81699"
               y="151.203"
               width="744.09448"
               height="1052.3622"
               xlink:href="#textext-069e88f9-4" />
            <use
               id="use6519"
               x="372.78857"
               y="151.203"
               width="744.09448"
               height="1052.3622"
               xlink:href="#textext-069e88f9-5" />
          </g>
          <g
             id="g6521"
             style="fill:#000000;fill-opacity:1">
            <use
               id="use6523"
               x="379.25101"
               y="149.709"
               width="744.09448"
               height="1052.3622"
               xlink:href="#textext-069e88f9-6" />
          </g>
          <g
             id="g6525"
             style="fill:#000000;fill-opacity:1">
            <use
               id="use6527"
               x="388.992"
               y="149.709"
               width="744.09448"
               height="1052.3622"
               xlink:href="#textext-069e88f9-0" />
          </g>
          <g
             id="g6529"
             style="fill:#000000;fill-opacity:1">
            <use
               id="use6531"
               x="394.94199"
               y="149.709"
               width="744.09448"
               height="1052.3622"
               xlink:href="#textext-069e88f9-7" />
          </g>
          <g
             id="g6533"
             style="fill:#000000;fill-opacity:1">
            <use
               id="use6535"
               x="398.81601"
               y="149.709"
               width="744.09448"
               height="1052.3622"
               xlink:href="#textext-069e88f9-1" />
          </g>
          <g
             id="g6537"
             style="fill:#000000;fill-opacity:1">
            <use
               id="use6539"
               x="404.51001"
               y="151.203"
               width="744.09448"
               height="1052.3622"
               xlink:href="#textext-069e88f9-4" />
          </g>
          <g
             id="g6541"
             style="fill:#000000;fill-opacity:1">
            <use
               id="use6543"
               x="408.979"
               y="149.709"
               width="744.09448"
               height="1052.3622"
               xlink:href="#textext-069e88f9-2" />
          </g>
          <g
             id="g6545"
             style="fill:#000000;fill-opacity:1">
            <use
               id="use6547"
               x="413.41037"
               y="149.709"
               width="744.09448"
               height="1052.3622"
               xlink:href="#textext-069e88f9-3" />
          </g>
          <g
             id="g6549"
             style="fill:#000000;fill-opacity:1">
            <use
               id="use6551"
               x="418.29199"
               y="151.203"
               width="744.09448"
               height="1052.3622"
               xlink:href="#textext-069e88f9-5" />
          </g>
          <g
             id="g6553"
             style="fill:#000000;fill-opacity:1">
            <use
               id="use6555"
               x="422.76099"
               y="149.709"
               width="744.09448"
               height="1052.3622"
               xlink:href="#textext-069e88f9-8" />
          </g>
          <g
             id="g6557"
             style="fill:#000000;fill-opacity:1">
            <use
               id="use6559"
               x="363.94"
               y="164.653"
               width="744.09448"
               height="1052.3622"
               xlink:href="#textext-069e88f9-0" />
          </g>
          <g
             id="g6561"
             style="fill:#000000;fill-opacity:1">
            <use
               id="use6563"
               x="368.81699"
               y="166.147"
               width="744.09448"
               height="1052.3622"
               xlink:href="#textext-069e88f9-5" />
            <use
               id="use6565"
               x="372.78857"
               y="166.147"
               width="744.09448"
               height="1052.3622"
               xlink:href="#textext-069e88f9-4" />
          </g>
          <g
             id="g6567"
             style="fill:#000000;fill-opacity:1">
            <use
               id="use6569"
               x="379.25101"
               y="164.653"
               width="744.09448"
               height="1052.3622"
               xlink:href="#textext-069e88f9-6" />
          </g>
          <g
             id="g6571"
             style="fill:#000000;fill-opacity:1">
            <use
               id="use6573"
               x="388.992"
               y="164.653"
               width="744.09448"
               height="1052.3622"
               xlink:href="#textext-069e88f9-0" />
          </g>
          <g
             id="g6575"
             style="fill:#000000;fill-opacity:1">
            <use
               id="use6577"
               x="394.94199"
               y="164.653"
               width="744.09448"
               height="1052.3622"
               xlink:href="#textext-069e88f9-7" />
          </g>
          <g
             id="g6579"
             style="fill:#000000;fill-opacity:1">
            <use
               id="use6581"
               x="398.81601"
               y="164.653"
               width="744.09448"
               height="1052.3622"
               xlink:href="#textext-069e88f9-1" />
          </g>
          <g
             id="g6583"
             style="fill:#000000;fill-opacity:1">
            <use
               id="use6585"
               x="404.51001"
               y="166.147"
               width="744.09448"
               height="1052.3622"
               xlink:href="#textext-069e88f9-5" />
          </g>
          <g
             id="g6587"
             style="fill:#000000;fill-opacity:1">
            <use
               id="use6589"
               x="408.979"
               y="164.653"
               width="744.09448"
               height="1052.3622"
               xlink:href="#textext-069e88f9-2" />
          </g>
          <g
             id="g6591"
             style="fill:#000000;fill-opacity:1">
            <use
               id="use6593"
               x="413.41037"
               y="164.653"
               width="744.09448"
               height="1052.3622"
               xlink:href="#textext-069e88f9-3" />
          </g>
          <g
             id="g6595"
             style="fill:#000000;fill-opacity:1">
            <use
               id="use6597"
               x="418.29199"
               y="166.147"
               width="744.09448"
               height="1052.3622"
               xlink:href="#textext-069e88f9-4" />
          </g>
          <g
             id="g6599"
             style="fill:#000000;fill-opacity:1">
            <use
               id="use6601"
               x="422.76099"
               y="164.653"
               width="744.09448"
               height="1052.3622"
               xlink:href="#textext-069e88f9-8" />
          </g>
          <g
             id="g6603"
             style="fill:#000000;fill-opacity:1">
            <use
               id="use6605"
               x="363.94"
               y="179.597"
               width="744.09448"
               height="1052.3622"
               xlink:href="#textext-069e88f9-0" />
          </g>
          <g
             id="g6607"
             style="fill:#000000;fill-opacity:1">
            <use
               id="use6609"
               x="368.81699"
               y="181.091"
               width="744.09448"
               height="1052.3622"
               xlink:href="#textext-069e88f9-5" />
            <use
               id="use6611"
               x="372.78857"
               y="181.091"
               width="744.09448"
               height="1052.3622"
               xlink:href="#textext-069e88f9-5" />
          </g>
          <g
             id="g6613"
             style="fill:#000000;fill-opacity:1">
            <use
               id="use6615"
               x="379.25101"
               y="179.597"
               width="744.09448"
               height="1052.3622"
               xlink:href="#textext-069e88f9-6" />
          </g>
          <g
             id="g6617"
             style="fill:#000000;fill-opacity:1">
            <use
               id="use6619"
               x="388.992"
               y="179.597"
               width="744.09448"
               height="1052.3622"
               xlink:href="#textext-069e88f9-0" />
          </g>
          <g
             id="g6621"
             style="fill:#000000;fill-opacity:1">
            <use
               id="use6623"
               x="394.94199"
               y="179.597"
               width="744.09448"
               height="1052.3622"
               xlink:href="#textext-069e88f9-7" />
          </g>
          <g
             id="g6625"
             style="fill:#000000;fill-opacity:1">
            <use
               id="use6627"
               x="398.81601"
               y="179.597"
               width="744.09448"
               height="1052.3622"
               xlink:href="#textext-069e88f9-1" />
          </g>
          <g
             id="g6629"
             style="fill:#000000;fill-opacity:1">
            <use
               id="use6631"
               x="404.51001"
               y="181.091"
               width="744.09448"
               height="1052.3622"
               xlink:href="#textext-069e88f9-5" />
          </g>
          <g
             id="g6633"
             style="fill:#000000;fill-opacity:1">
            <use
               id="use6635"
               x="408.979"
               y="179.597"
               width="744.09448"
               height="1052.3622"
               xlink:href="#textext-069e88f9-2" />
          </g>
          <g
             id="g6637"
             style="fill:#000000;fill-opacity:1">
            <use
               id="use6639"
               x="413.41037"
               y="179.597"
               width="744.09448"
               height="1052.3622"
               xlink:href="#textext-069e88f9-3" />
          </g>
          <g
             id="g6641"
             style="fill:#000000;fill-opacity:1">
            <use
               id="use6643"
               x="418.29199"
               y="181.091"
               width="744.09448"
               height="1052.3622"
               xlink:href="#textext-069e88f9-5" />
          </g>
          <g
             id="g6645"
             style="fill:#000000;fill-opacity:1">
            <use
               id="use6647"
               x="422.76099"
               y="179.597"
               width="744.09448"
               height="1052.3622"
               xlink:href="#textext-069e88f9-8" />
          </g>
        </g>
      </g>
    </g>
  </g>
</svg>
