<?xml version="1.0" encoding="UTF-8" standalone="no"?>
<!-- Created with Inkscape (http://www.inkscape.org/) -->

<svg
   xmlns:dc="http://purl.org/dc/elements/1.1/"
   xmlns:cc="http://creativecommons.org/ns#"
   xmlns:rdf="http://www.w3.org/1999/02/22-rdf-syntax-ns#"
   xmlns:svg="http://www.w3.org/2000/svg"
   xmlns="http://www.w3.org/2000/svg"
   xmlns:xlink="http://www.w3.org/1999/xlink"
   version="1.1"
   width="444"
   height="365"
   viewBox="0 0 444 365"
   id="svg2">
  <desc
     id="desc4">Produced by GNUPLOT 4.4 patchlevel 0 </desc>
  <metadata
     id="metadata208">
    <rdf:RDF>
      <cc:Work
         rdf:about="">
        <dc:format>image/svg+xml</dc:format>
        <dc:type
           rdf:resource="http://purl.org/dc/dcmitype/StillImage" />
        <dc:title></dc:title>
      </cc:Work>
    </rdf:RDF>
  </metadata>
  <defs
     id="defs6">
    <circle
       cx="0"
       cy="0"
       r="0.5"
       id="gpDot"
       style="stroke-width:0.5" />
    <path
       d="M -1,0 H 1 M 0,-1 v 2"
       id="gpPt0"
       style="stroke:currentColor;stroke-width:0.222" />
    <path
       d="M -1,-1 1,1 M 1,-1 -1,1"
       id="gpPt1"
       style="stroke:currentColor;stroke-width:0.222" />
    <path
       d="M -1,0 1,0 M 0,-1 0,1 m -1,-2 2,2 m -2,0 2,-2"
       id="gpPt2"
       style="stroke:currentColor;stroke-width:0.222" />
    <rect
       width="2"
       height="2"
       x="-1"
       y="-1"
       id="gpPt3"
       style="stroke:currentColor;stroke-width:0.222" />
    <rect
       width="2"
       height="2"
       x="-1"
       y="-1"
       id="gpPt4"
       style="fill:currentColor;stroke:currentColor;stroke-width:0.222" />
    <circle
       cx="0"
       cy="0"
       r="1"
       id="gpPt5"
       style="stroke:currentColor;stroke-width:0.222" />
    <use
       id="gpPt6"
       style="fill:currentColor;stroke:none"
       x="0"
       y="0"
       width="600"
       height="480"
       xlink:href="#gpPt5" />
    <path
       d="m 0,-1.33 -1.33,2 2.66,0 z"
       id="gpPt7"
       style="stroke:currentColor;stroke-width:0.222" />
    <use
       id="gpPt8"
       style="fill:currentColor;stroke:none"
       x="0"
       y="0"
       width="600"
       height="480"
       xlink:href="#gpPt7" />
    <use
       transform="scale(-1,-1)"
       id="gpPt9"
       style="stroke:currentColor"
       x="0"
       y="0"
       width="600"
       height="480"
       xlink:href="#gpPt7" />
    <use
       id="gpPt10"
       style="fill:currentColor;stroke:none"
       x="0"
       y="0"
       width="600"
       height="480"
       xlink:href="#gpPt9" />
    <use
       transform="matrix(0.70710678,0.70710678,-0.70710678,0.70710678,0,0)"
       id="gpPt11"
       style="stroke:currentColor"
       x="0"
       y="0"
       width="600"
       height="480"
       xlink:href="#gpPt3" />
    <use
       id="gpPt12"
       style="fill:currentColor;stroke:none"
       x="0"
       y="0"
       width="600"
       height="480"
       xlink:href="#gpPt11" />
  </defs>
  <g
     transform="translate(-56.480718,-35.2595)"
     id="g22"
     style="color:#ffffff;fill:none;stroke:currentColor;stroke-width:1;stroke-linecap:butt;stroke-linejoin:miter" />
  <g
     transform="translate(-56.480718,-35.2595)"
     id="g24"
     style="color:#000000;fill:none;stroke:currentColor;stroke-width:1;stroke-linecap:butt;stroke-linejoin:miter" />
  <g
     transform="matrix(0.8,0,0,0.8,-22.610156,-8.5106641)"
     id="g4101">
    <g
       id="g3775"
       style="color:#ffffff;fill:none;stroke:currentColor;stroke-width:1.25;stroke-linecap:butt;stroke-linejoin:miter" />
    <g
       id="g3777"
       style="color:#000000;fill:none;stroke:currentColor;stroke-width:1.25;stroke-linecap:butt;stroke-linejoin:miter" />
    <g
       id="g3779"
       style="color:#808080;fill:none;stroke:currentColor;stroke-width:1.25;stroke-linecap:butt;stroke-linejoin:miter">
      <path
         d="m 62.2,444 516.9,0"
         id="path3781"
         style="stroke-width:1.25" />
    </g>
    <g
       id="g3783"
       style="color:#000000;fill:none;stroke:currentColor;stroke-width:1.25;stroke-linecap:butt;stroke-linejoin:miter">
      <path
         d="m 62.2,444 9,0 m 507.9,0 -9,0"
         id="path3785"
         style="stroke-width:1.25" />
      <g
         transform="translate(53.9,448.5)"
         id="g3787"
         style="font-size:15px;text-anchor:end;fill:#000000;stroke:none;font-family:Arial">
        <text
           id="text3789">-0.2</text>
      </g>
    </g>
    <g
       id="g3791"
       style="color:#808080;fill:none;stroke:currentColor;stroke-width:1.25;stroke-linecap:butt;stroke-linejoin:miter">
      <path
         d="m 62.2,372.8 516.9,0"
         id="path3793"
         style="stroke-width:1.25" />
    </g>
    <g
       id="g3795"
       style="color:#000000;fill:none;stroke:currentColor;stroke-width:1.25;stroke-linecap:butt;stroke-linejoin:miter">
      <path
         d="m 62.2,372.8 9,0 m 507.9,0 -9,0"
         id="path3797"
         style="stroke-width:1.25" />
      <g
         transform="translate(53.9,377.3)"
         id="g3799"
         style="font-size:15px;text-anchor:end;fill:#000000;stroke:none;font-family:Arial">
        <text
           id="text3801">0</text>
      </g>
    </g>
    <g
       id="g3803"
       style="color:#808080;fill:none;stroke:currentColor;stroke-width:1.25;stroke-linecap:butt;stroke-linejoin:miter">
      <path
         d="m 62.2,301.6 516.9,0"
         id="path3805"
         style="stroke-width:1.25" />
    </g>
    <g
       id="g3807"
       style="color:#000000;fill:none;stroke:currentColor;stroke-width:1.25;stroke-linecap:butt;stroke-linejoin:miter">
      <path
         d="m 62.2,301.6 9,0 m 507.9,0 -9,0"
         id="path3809"
         style="stroke-width:1.25" />
      <g
         transform="translate(53.9,306.1)"
         id="g3811"
         style="font-size:15px;text-anchor:end;fill:#000000;stroke:none;font-family:Arial">
        <text
           id="text3813">0.2</text>
      </g>
    </g>
    <g
       id="g3815"
       style="color:#808080;fill:none;stroke:currentColor;stroke-width:1.25;stroke-linecap:butt;stroke-linejoin:miter">
      <path
         d="m 62.2,230.3 516.9,0"
         id="path3817"
         style="stroke-width:1.25" />
    </g>
    <g
       id="g3819"
       style="color:#000000;fill:none;stroke:currentColor;stroke-width:1.25;stroke-linecap:butt;stroke-linejoin:miter">
      <path
         d="m 62.2,230.3 9,0 m 507.9,0 -9,0"
         id="path3821"
         style="stroke-width:1.25" />
      <g
         transform="translate(53.9,234.8)"
         id="g3823"
         style="font-size:15px;text-anchor:end;fill:#000000;stroke:none;font-family:Arial">
        <text
           id="text3825">0.4</text>
      </g>
    </g>
    <g
       id="g3827"
       style="color:#808080;fill:none;stroke:currentColor;stroke-width:1.25;stroke-linecap:butt;stroke-linejoin:miter">
      <path
         d="m 62.2,159.1 516.9,0"
         id="path3829"
         style="stroke-width:1.25" />
    </g>
    <g
       id="g3831"
       style="color:#000000;fill:none;stroke:currentColor;stroke-width:1.25;stroke-linecap:butt;stroke-linejoin:miter">
      <path
         d="m 62.2,159.1 9,0 m 507.9,0 -9,0"
         id="path3833"
         style="stroke-width:1.25" />
      <g
         transform="translate(53.9,163.6)"
         id="g3835"
         style="font-size:15px;text-anchor:end;fill:#000000;stroke:none;font-family:Arial">
        <text
           id="text3837">0.6</text>
      </g>
    </g>
    <g
       id="g3839"
       style="color:#808080;fill:none;stroke:currentColor;stroke-width:1.25;stroke-linecap:butt;stroke-linejoin:miter">
      <path
         d="m 62.2,87.9 516.9,0"
         id="path3841"
         style="stroke-width:1.25" />
    </g>
    <g
       id="g3843"
       style="color:#000000;fill:none;stroke:currentColor;stroke-width:1.25;stroke-linecap:butt;stroke-linejoin:miter">
      <path
         d="m 62.2,87.9 9,0 m 507.9,0 -9,0"
         id="path3845"
         style="stroke-width:1.25" />
      <g
         transform="translate(53.9,92.4)"
         id="g3847"
         style="font-size:15px;text-anchor:end;fill:#000000;stroke:none;font-family:Arial">
        <text
           id="text3849">0.8</text>
      </g>
    </g>
    <g
       id="g3851"
       style="color:#808080;fill:none;stroke:currentColor;stroke-width:1.25;stroke-linecap:butt;stroke-linejoin:miter">
      <path
         d="m 62.2,16.7 516.9,0"
         id="path3853"
         style="stroke-width:1.25" />
    </g>
    <g
       id="g3855"
       style="color:#000000;fill:none;stroke:currentColor;stroke-width:1.25;stroke-linecap:butt;stroke-linejoin:miter">
      <path
         d="m 62.2,16.7 9,0 m 507.9,0 -9,0"
         id="path3857"
         style="stroke-width:1.25" />
      <g
         transform="translate(53.9,21.2)"
         id="g3859"
         style="font-size:15px;text-anchor:end;fill:#000000;stroke:none;font-family:Arial">
        <text
           id="text3861">1</text>
      </g>
    </g>
    <g
       id="g3863"
       style="color:#808080;fill:none;stroke:currentColor;stroke-width:1.25;stroke-linecap:butt;stroke-linejoin:miter">
      <path
         d="m 62.2,444 0,-427.3"
         id="path3865"
         style="stroke-width:1.25" />
    </g>
    <g
       id="g3867"
       style="color:#000000;fill:none;stroke:currentColor;stroke-width:1.25;stroke-linecap:butt;stroke-linejoin:miter">
      <path
         d="m 62.2,444 0,-9 m 0,-418.3 0,9"
         id="path3869"
         style="stroke-width:1.25" />
      <g
         transform="translate(62.2,466.5)"
         id="g3871"
         style="font-size:15px;text-anchor:middle;fill:#000000;stroke:none;font-family:Arial">
        <text
           id="text3873">-4</text>
      </g>
    </g>
    <g
       id="g3875"
       style="color:#808080;fill:none;stroke:currentColor;stroke-width:1.25;stroke-linecap:butt;stroke-linejoin:miter">
      <path
         d="m 126.8,444 0,-427.3"
         id="path3877"
         style="stroke-width:1.25" />
    </g>
    <g
       id="g3879"
       style="color:#000000;fill:none;stroke:currentColor;stroke-width:1.25;stroke-linecap:butt;stroke-linejoin:miter">
      <path
         d="m 126.8,444 0,-9 m 0,-418.3 0,9"
         id="path3881"
         style="stroke-width:1.25" />
      <g
         transform="translate(126.8,466.5)"
         id="g3883"
         style="font-size:15px;text-anchor:middle;fill:#000000;stroke:none;font-family:Arial">
        <text
           id="text3885">-3</text>
      </g>
    </g>
    <g
       id="g3887"
       style="color:#808080;fill:none;stroke:currentColor;stroke-width:1.25;stroke-linecap:butt;stroke-linejoin:miter">
      <path
         d="m 191.4,444 0,-427.3"
         id="path3889"
         style="stroke-width:1.25" />
    </g>
    <g
       id="g3891"
       style="color:#000000;fill:none;stroke:currentColor;stroke-width:1.25;stroke-linecap:butt;stroke-linejoin:miter">
      <path
         d="m 191.4,444 0,-9 m 0,-418.3 0,9"
         id="path3893"
         style="stroke-width:1.25" />
      <g
         transform="translate(191.4,466.5)"
         id="g3895"
         style="font-size:15px;text-anchor:middle;fill:#000000;stroke:none;font-family:Arial">
        <text
           id="text3897">-2</text>
      </g>
    </g>
    <g
       id="g3899"
       style="color:#808080;fill:none;stroke:currentColor;stroke-width:1.25;stroke-linecap:butt;stroke-linejoin:miter">
      <path
         d="M 256,444 256,16.7"
         id="path3901"
         style="stroke-width:1.25" />
    </g>
    <g
       id="g3903"
       style="color:#000000;fill:none;stroke:currentColor;stroke-width:1.25;stroke-linecap:butt;stroke-linejoin:miter">
      <path
         d="m 256,444 0,-9 m 0,-418.3 0,9"
         id="path3905"
         style="stroke-width:1.25" />
      <g
         transform="translate(256,466.5)"
         id="g3907"
         style="font-size:15px;text-anchor:middle;fill:#000000;stroke:none;font-family:Arial">
        <text
           id="text3909">-1</text>
      </g>
    </g>
    <g
       id="g3911"
       style="color:#808080;fill:none;stroke:currentColor;stroke-width:1.25;stroke-linecap:butt;stroke-linejoin:miter">
      <path
         d="m 320.7,444 0,-427.3"
         id="path3913"
         style="stroke-width:1.25" />
    </g>
    <g
       id="g3915"
       style="color:#000000;fill:none;stroke:currentColor;stroke-width:1.25;stroke-linecap:butt;stroke-linejoin:miter">
      <path
         d="m 320.7,444 0,-9 m 0,-418.3 0,9"
         id="path3917"
         style="stroke-width:1.25" />
      <g
         transform="translate(320.7,466.5)"
         id="g3919"
         style="font-size:15px;text-anchor:middle;fill:#000000;stroke:none;font-family:Arial">
        <text
           id="text3921">0</text>
      </g>
    </g>
    <g
       id="g3923"
       style="color:#808080;fill:none;stroke:currentColor;stroke-width:1.25;stroke-linecap:butt;stroke-linejoin:miter">
      <path
         d="m 385.3,444 0,-427.3"
         id="path3925"
         style="stroke-width:1.25" />
    </g>
    <g
       id="g3927"
       style="color:#000000;fill:none;stroke:currentColor;stroke-width:1.25;stroke-linecap:butt;stroke-linejoin:miter">
      <path
         d="m 385.3,444 0,-9 m 0,-418.3 0,9"
         id="path3929"
         style="stroke-width:1.25" />
      <g
         transform="translate(385.3,466.5)"
         id="g3931"
         style="font-size:15px;text-anchor:middle;fill:#000000;stroke:none;font-family:Arial">
        <text
           id="text3933">1</text>
      </g>
    </g>
    <g
       id="g3935"
       style="color:#808080;fill:none;stroke:currentColor;stroke-width:1.25;stroke-linecap:butt;stroke-linejoin:miter">
      <path
         d="m 449.9,444 0,-427.3"
         id="path3937"
         style="stroke-width:1.25" />
    </g>
    <g
       id="g3939"
       style="color:#000000;fill:none;stroke:currentColor;stroke-width:1.25;stroke-linecap:butt;stroke-linejoin:miter">
      <path
         d="m 449.9,444 0,-9 m 0,-418.3 0,9"
         id="path3941"
         style="stroke-width:1.25" />
      <g
         transform="translate(449.9,466.5)"
         id="g3943"
         style="font-size:15px;text-anchor:middle;fill:#000000;stroke:none;font-family:Arial">
        <text
           id="text3945">2</text>
      </g>
    </g>
    <g
       id="g3947"
       style="color:#808080;fill:none;stroke:currentColor;stroke-width:1.25;stroke-linecap:butt;stroke-linejoin:miter">
      <path
         d="m 514.5,444 0,-427.3"
         id="path3949"
         style="stroke-width:1.25" />
    </g>
    <g
       id="g3951"
       style="color:#000000;fill:none;stroke:currentColor;stroke-width:1.25;stroke-linecap:butt;stroke-linejoin:miter">
      <path
         d="m 514.5,444 0,-9 m 0,-418.3 0,9"
         id="path3953"
         style="stroke-width:1.25" />
      <g
         transform="translate(514.5,466.5)"
         id="g3955"
         style="font-size:15px;text-anchor:middle;fill:#000000;stroke:none;font-family:Arial">
        <text
           id="text3957">3</text>
      </g>
    </g>
    <g
       id="g3959"
       style="color:#808080;fill:none;stroke:currentColor;stroke-width:1.25;stroke-linecap:butt;stroke-linejoin:miter">
      <path
         d="m 579.1,444 0,-427.3"
         id="path3961"
         style="stroke-width:1.25" />
    </g>
    <g
       id="g3963"
       style="color:#000000;fill:none;stroke:currentColor;stroke-width:1.25;stroke-linecap:butt;stroke-linejoin:miter">
      <path
         d="m 579.1,444 0,-9 m 0,-418.3 0,9"
         id="path3965"
         style="stroke-width:1.25" />
      <g
         transform="translate(579.1,466.5)"
         id="g3967"
         style="font-size:15px;text-anchor:middle;fill:#000000;stroke:none;font-family:Arial">
        <text
           id="text3969">4</text>
      </g>
      <path
         d="m 62.2,16.7 0,427.3 516.9,0 0,-427.3 -516.9,0 z"
         id="path3971"
         style="stroke-width:1.25" />
    </g>
    <a
       xlink:title="Plot #1"
       id="a3973">
      <g
         id="g3975"
         style="color:#ff0000;fill:none;stroke:currentColor;stroke-width:1.25;stroke-linecap:butt;stroke-linejoin:miter">
        <path
           d="m 62.2,372.8 5.2,0.1 5.2,0.5 5.3,0.7 5.2,1 5.2,1 5.2,1 5.2,0.8 5.3,0.5 5.2,-0.1 5.2,-0.8 5.2,-1.4 5.3,-2.3 5.2,-2.9 5.2,-3.6 5.2,-3.9 5.2,-3.9 5.3,-3.7 5.2,-3.1 5.2,-2 5.2,-0.6 5.2,1.1 5.3,3.1 5.2,5 5.2,7.1 5.2,8.7 5.3,10.1 5.2,10.9 5.2,11.1 5.2,10.3 5.2,8.7 5.3,6.1 5.2,2.8 5.2,-1.4 5.2,-6.3 5.2,-11.6 5.3,-17.2 5.2,-22.6 5.2,-27.8 5.2,-32.2 5.2,-35.8 5.3,-38.2 5.2,-39.4 5.2,-38.9 5.2,-37 5.3,-33.6 5.2,-28.8 5.2,-22.8 5.2,-15.7 5.2,-8.1 5.3,0 5.2,8.1 5.2,15.7 5.2,22.8 5.2,28.8 5.3,33.6 5.2,37 5.2,38.9 5.2,39.4 5.3,38.2 5.2,35.8 5.2,32.2 5.2,27.8 5.2,22.6 5.3,17.2 5.2,11.6 5.2,6.3 5.2,1.4 5.2,-2.8 5.3,-6.1 5.2,-8.7 5.2,-10.3 5.2,-11.1 5.2,-10.9 5.3,-10.1 5.2,-8.7 5.2,-7.1 5.2,-5 5.3,-3.1 5.2,-1.1 5.2,0.6 5.2,2 5.2,3.1 5.3,3.7 5.2,3.9 5.2,3.9 5.2,3.6 5.2,2.9 5.3,2.3 5.2,1.4 5.2,0.8 5.2,0.1 5.3,-0.5 5.2,-0.8 5.2,-1 5.2,-1 5.2,-1 5.3,-0.7 5.2,-0.5 5.2,-0.1"
           id="path3977"
           style="stroke-width:1.25" />
      </g>
    </a>
    <g
       id="g3979"
       style="color:#000000;fill:none;stroke:currentColor;stroke-width:1.25;stroke-linecap:butt;stroke-linejoin:miter">
      <path
         d="m 62.2,16.7 0,427.3 516.9,0 0,-427.3 -516.9,0 z"
         id="path3981"
         style="stroke-width:1.25" />
    </g>
  </g>
</svg>
