<?xml version="1.0" encoding="UTF-8" standalone="no"?>
<!-- Created with Inkscape (http://www.inkscape.org/) -->

<svg
   xmlns:dc="http://purl.org/dc/elements/1.1/"
   xmlns:cc="http://creativecommons.org/ns#"
   xmlns:rdf="http://www.w3.org/1999/02/22-rdf-syntax-ns#"
   xmlns:svg="http://www.w3.org/2000/svg"
   xmlns="http://www.w3.org/2000/svg"
   xmlns:xlink="http://www.w3.org/1999/xlink"
   version="1.1"
   width="475"
   height="58"
   id="svg86194">
  <defs
     id="defs86196" />
  <metadata
     id="metadata86199">
    <rdf:RDF>
      <cc:Work
         rdf:about="">
        <dc:format>image/svg+xml</dc:format>
        <dc:type
           rdf:resource="http://purl.org/dc/dcmitype/StillImage" />
        <dc:title></dc:title>
      </cc:Work>
    </rdf:RDF>
  </metadata>
  <g
     transform="translate(-178.53801,-494.17401)"
     id="layer1">
    <g
       transform="matrix(2,0,0,2,-373.83485,243.02026)"
       id="g84653">
      <defs
         id="defs84655">
        <g
           id="g84657">
          <symbol
             id="textext-76466a0b-0"
             style="overflow:visible">
            <path
               d="M 4.609375,-3.375 C 4.65625,-3.59375 4.75,-3.96875 4.75,-4.03125 c 0,-0.171875 -0.140625,-0.265625 -0.28125,-0.265625 -0.125,0 -0.296875,0.078125 -0.375,0.28125 -0.03125,0.0625 -0.5,1.96875 -0.5625,2.234375 C 3.453125,-1.484375 3.4375,-1.3125 3.4375,-1.125 c 0,0.109375 0,0.125 0.015625,0.171875 -0.234375,0.53125 -0.53125,0.84375 -0.921875,0.84375 -0.796875,0 -0.796875,-0.734375 -0.796875,-0.90625 0,-0.3125 0.046875,-0.703125 0.515625,-1.9375 0.109375,-0.296875 0.171875,-0.4375 0.171875,-0.640625 0,-0.4375 -0.328125,-0.8125 -0.8125,-0.8125 -0.953125,0 -1.3125,1.453125 -1.3125,1.53125 0,0.109375 0.09375,0.109375 0.109375,0.109375 0.109375,0 0.109375,-0.03125 0.15625,-0.1875 C 0.84375,-3.875 1.21875,-4.1875 1.578125,-4.1875 c 0.09375,0 0.25,0.015625 0.25,0.328125 0,0.25 -0.109375,0.53125 -0.1875,0.703125 -0.4375,1.171875 -0.546875,1.625 -0.546875,2.015625 0,0.90625 0.65625,1.25 1.40625,1.25 0.171875,0 0.640625,0 1.03125,-0.703125 0.265625,0.640625 0.953125,0.703125 1.25,0.703125 0.75,0 1.1875,-0.625 1.453125,-1.21875 0.328125,-0.78125 0.65625,-2.125 0.65625,-2.59375 0,-0.546875 -0.265625,-0.703125 -0.4375,-0.703125 -0.25,0 -0.5,0.265625 -0.5,0.484375 0,0.125 0.0625,0.1875 0.140625,0.265625 0.109375,0.109375 0.359375,0.359375 0.359375,0.84375 0,0.34375 -0.28125,1.3125 -0.546875,1.828125 -0.25,0.53125 -0.609375,0.875 -1.09375,0.875 -0.46875,0 -0.734375,-0.296875 -0.734375,-0.875 0,-0.265625 0.0625,-0.578125 0.109375,-0.71875 z m 0,0"
               id="path84660"
               style="stroke:none" />
          </symbol>
          <symbol
             id="textext-76466a0b-1"
             style="overflow:visible">
            <path
               d="M 3.734375,-6.03125 C 3.8125,-6.390625 3.84375,-6.5 4.78125,-6.5 c 0.296875,0 0.375,0 0.375,-0.1875 0,-0.125 -0.109375,-0.125 -0.15625,-0.125 -0.328125,0 -1.140625,0.03125 -1.46875,0.03125 -0.296875,0 -1.03125,-0.03125 -1.328125,-0.03125 -0.0625,0 -0.1875,0 -0.1875,0.203125 0,0.109375 0.09375,0.109375 0.28125,0.109375 0.015625,0 0.203125,0 0.375,0.015625 0.171875,0.03125 0.265625,0.03125 0.265625,0.171875 0,0.03125 0,0.0625 -0.03125,0.1875 L 1.5625,-0.78125 c -0.09375,0.390625 -0.109375,0.46875 -0.90625,0.46875 -0.171875,0 -0.265625,0 -0.265625,0.203125 C 0.390625,0 0.484375,0 0.65625,0 l 4.625,0 C 5.515625,0 5.515625,0 5.578125,-0.171875 L 6.375,-2.328125 c 0.03125,-0.109375 0.03125,-0.125 0.03125,-0.140625 0,-0.03125 -0.03125,-0.109375 -0.109375,-0.109375 -0.09375,0 -0.109375,0.0625 -0.171875,0.21875 -0.34375,0.90625 -0.78125,2.046875 -2.5,2.046875 l -0.9375,0 c -0.140625,0 -0.171875,0 -0.21875,0 -0.109375,-0.015625 -0.140625,-0.03125 -0.140625,-0.109375 0,-0.03125 0,-0.046875 0.046875,-0.21875 z m 0,0"
               id="path84663"
               style="stroke:none" />
          </symbol>
          <symbol
             id="textext-76466a0b-2"
             style="overflow:visible">
            <path
               d="m 2.828125,-6.234375 c 0,-0.203125 -0.140625,-0.359375 -0.359375,-0.359375 -0.28125,0 -0.546875,0.265625 -0.546875,0.53125 0,0.1875 0.140625,0.359375 0.375,0.359375 0.234375,0 0.53125,-0.234375 0.53125,-0.53125 z m -0.75,3.75 c 0.109375,-0.28125 0.109375,-0.3125 0.21875,-0.578125 0.078125,-0.203125 0.125,-0.34375 0.125,-0.53125 0,-0.4375 -0.3125,-0.8125 -0.8125,-0.8125 -0.9375,0 -1.3125,1.453125 -1.3125,1.53125 0,0.109375 0.09375,0.109375 0.109375,0.109375 0.109375,0 0.109375,-0.03125 0.15625,-0.1875 0.28125,-0.9375 0.671875,-1.234375 1.015625,-1.234375 0.078125,0 0.25,0 0.25,0.3125 0,0.21875 -0.078125,0.421875 -0.109375,0.53125 -0.078125,0.25 -0.53125,1.40625 -0.6875,1.84375 -0.109375,0.25 -0.234375,0.578125 -0.234375,0.796875 0,0.46875 0.34375,0.8125 0.8125,0.8125 0.9375,0 1.3125,-1.4375 1.3125,-1.53125 0,-0.109375 -0.09375,-0.109375 -0.125,-0.109375 -0.09375,0 -0.09375,0.03125 -0.140625,0.1875 -0.1875,0.625 -0.515625,1.234375 -1.015625,1.234375 -0.171875,0 -0.25,-0.09375 -0.25,-0.328125 0,-0.25 0.0625,-0.390625 0.296875,-1 z m 0,0"
               id="path84666"
               style="stroke:none" />
          </symbol>
          <symbol
             id="textext-76466a0b-3"
             style="overflow:visible">
            <path
               d="M 3.328125,-3.015625 C 3.390625,-3.265625 3.625,-4.1875 4.3125,-4.1875 c 0.046875,0 0.296875,0 0.5,0.125 C 4.53125,-4 4.34375,-3.765625 4.34375,-3.515625 c 0,0.15625 0.109375,0.34375 0.375,0.34375 0.21875,0 0.53125,-0.171875 0.53125,-0.578125 0,-0.515625 -0.578125,-0.65625 -0.921875,-0.65625 -0.578125,0 -0.921875,0.53125 -1.046875,0.75 -0.25,-0.65625 -0.78125,-0.75 -1.078125,-0.75 -1.03125,0 -1.609375,1.28125 -1.609375,1.53125 0,0.109375 0.109375,0.109375 0.125,0.109375 0.078125,0 0.109375,-0.03125 0.125,-0.109375 0.34375,-1.0625 1,-1.3125 1.34375,-1.3125 0.1875,0 0.53125,0.09375 0.53125,0.671875 0,0.3125 -0.171875,0.96875 -0.53125,2.375 -0.15625,0.609375 -0.515625,1.03125 -0.953125,1.03125 -0.0625,0 -0.28125,0 -0.5,-0.125 0.25,-0.0625 0.46875,-0.265625 0.46875,-0.546875 0,-0.265625 -0.21875,-0.34375 -0.359375,-0.34375 -0.3125,0 -0.546875,0.25 -0.546875,0.578125 0,0.453125 0.484375,0.65625 0.921875,0.65625 0.671875,0 1.03125,-0.703125 1.046875,-0.75 0.125,0.359375 0.484375,0.75 1.078125,0.75 1.03125,0 1.59375,-1.28125 1.59375,-1.53125 0,-0.109375 -0.078125,-0.109375 -0.109375,-0.109375 -0.09375,0 -0.109375,0.046875 -0.140625,0.109375 -0.328125,1.078125 -1,1.3125 -1.3125,1.3125 -0.390625,0 -0.546875,-0.3125 -0.546875,-0.65625 0,-0.21875 0.046875,-0.4375 0.15625,-0.875 z m 0,0"
               id="path84669"
               style="stroke:none" />
          </symbol>
          <symbol
             id="textext-76466a0b-4"
             style="overflow:visible">
            <path
               d="m 0.875,-0.59375 c -0.03125,0.15625 -0.09375,0.390625 -0.09375,0.4375 0,0.171875 0.140625,0.265625 0.296875,0.265625 0.125,0 0.296875,-0.078125 0.375,-0.28125 0,-0.015625 0.125,-0.484375 0.1875,-0.734375 C 1.703125,-1.203125 1.78125,-1.5 1.859375,-1.796875 1.90625,-2.03125 1.96875,-2.25 2.03125,-2.46875 c 0.03125,-0.171875 0.109375,-0.46875 0.125,-0.5 0.140625,-0.3125 0.671875,-1.21875 1.625,-1.21875 0.453125,0 0.53125,0.375 0.53125,0.703125 0,0.609375 -0.484375,1.890625 -0.640625,2.3125 C 3.578125,-0.9375 3.5625,-0.8125 3.5625,-0.703125 c 0,0.46875 0.359375,0.8125 0.828125,0.8125 0.9375,0 1.296875,-1.453125 1.296875,-1.53125 0,-0.109375 -0.078125,-0.109375 -0.109375,-0.109375 -0.109375,0 -0.109375,0.03125 -0.15625,0.1875 -0.203125,0.671875 -0.53125,1.234375 -1.015625,1.234375 -0.171875,0 -0.234375,-0.09375 -0.234375,-0.328125 0,-0.25 0.078125,-0.484375 0.171875,-0.703125 0.1875,-0.53125 0.609375,-1.625 0.609375,-2.203125 0,-0.65625 -0.421875,-1.0625 -1.140625,-1.0625 -0.90625,0 -1.390625,0.640625 -1.5625,0.875 -0.046875,-0.5625 -0.453125,-0.875 -0.921875,-0.875 -0.453125,0 -0.640625,0.390625 -0.734375,0.5625 C 0.421875,-3.5 0.296875,-2.90625 0.296875,-2.875 c 0,0.109375 0.09375,0.109375 0.109375,0.109375 0.109375,0 0.109375,-0.015625 0.171875,-0.234375 0.171875,-0.703125 0.375,-1.1875 0.734375,-1.1875 0.1875,0 0.296875,0.125 0.296875,0.453125 0,0.21875 -0.03125,0.328125 -0.15625,0.84375 z m 0,0"
               id="path84672"
               style="stroke:none" />
          </symbol>
          <symbol
             id="textext-76466a0b-5"
             style="overflow:visible">
            <path
               d="m 3.953125,-6.234375 c 0,-0.1875 -0.140625,-0.359375 -0.375,-0.359375 -0.234375,0 -0.53125,0.234375 -0.53125,0.53125 0,0.203125 0.140625,0.359375 0.375,0.359375 0.265625,0 0.53125,-0.265625 0.53125,-0.53125 z m -2,6.734375 c -0.1875,0.75 -0.671875,1.328125 -1.21875,1.328125 -0.0625,0 -0.21875,0 -0.390625,-0.09375 0.296875,-0.0625 0.4375,-0.328125 0.4375,-0.53125 0,-0.15625 -0.109375,-0.34375 -0.375,-0.34375 -0.25,0 -0.53125,0.203125 -0.53125,0.5625 0,0.40625 0.390625,0.625 0.875,0.625 0.703125,0 1.625,-0.53125 1.875,-1.515625 L 3.53125,-3.125 c 0.0625,-0.1875 0.0625,-0.328125 0.0625,-0.359375 0,-0.578125 -0.421875,-0.921875 -0.921875,-0.921875 -1.015625,0 -1.578125,1.453125 -1.578125,1.53125 0,0.109375 0.09375,0.109375 0.109375,0.109375 0.09375,0 0.109375,-0.015625 0.1875,-0.203125 0.25,-0.609375 0.703125,-1.21875 1.25,-1.21875 0.140625,0 0.3125,0.046875 0.3125,0.453125 0,0.234375 -0.015625,0.34375 -0.0625,0.515625 z m 0,0"
               id="path84675"
               style="stroke:none" />
          </symbol>
          <symbol
             id="textext-76466a0b-6"
             style="overflow:visible">
            <path
               d="m 4.84375,-3.796875 c 0.046875,-0.140625 0.046875,-0.15625 0.046875,-0.234375 0,-0.171875 -0.140625,-0.265625 -0.296875,-0.265625 -0.09375,0 -0.25,0.0625 -0.34375,0.203125 -0.015625,0.0625 -0.109375,0.359375 -0.140625,0.546875 -0.078125,0.25 -0.140625,0.53125 -0.203125,0.796875 l -0.453125,1.796875 c -0.03125,0.140625 -0.46875,0.84375 -1.125,0.84375 -0.5,0 -0.609375,-0.4375 -0.609375,-0.8125 C 1.71875,-1.375 1.890625,-2 2.21875,-2.875 2.375,-3.28125 2.421875,-3.390625 2.421875,-3.59375 c 0,-0.4375 -0.3125,-0.8125 -0.8125,-0.8125 -0.953125,0 -1.3125,1.453125 -1.3125,1.53125 0,0.109375 0.09375,0.109375 0.109375,0.109375 0.109375,0 0.109375,-0.03125 0.15625,-0.1875 0.28125,-0.9375 0.671875,-1.234375 1.015625,-1.234375 0.078125,0 0.25,0 0.25,0.3125 0,0.25 -0.109375,0.515625 -0.171875,0.703125 -0.40625,1.0625 -0.578125,1.625 -0.578125,2.09375 0,0.890625 0.625,1.1875 1.21875,1.1875 0.390625,0 0.71875,-0.171875 1,-0.453125 -0.125,0.515625 -0.25,1.015625 -0.640625,1.546875 -0.265625,0.328125 -0.640625,0.625 -1.09375,0.625 -0.140625,0 -0.59375,-0.03125 -0.765625,-0.421875 0.15625,0 0.296875,0 0.421875,-0.125 C 1.328125,1.203125 1.421875,1.0625 1.421875,0.875 1.421875,0.5625 1.15625,0.53125 1.0625,0.53125 0.828125,0.53125 0.5,0.6875 0.5,1.171875 c 0,0.5 0.4375,0.875 1.0625,0.875 1.015625,0 2.046875,-0.90625 2.328125,-2.03125 z m 0,0"
               id="path84678"
               style="stroke:none" />
          </symbol>
          <symbol
             id="textext-76466a0b-7"
             style="overflow:visible">
            <path
               d="m 6.84375,-3.265625 c 0.15625,0 0.34375,0 0.34375,-0.1875 C 7.1875,-3.65625 7,-3.65625 6.859375,-3.65625 l -5.96875,0 c -0.140625,0 -0.328125,0 -0.328125,0.203125 0,0.1875 0.1875,0.1875 0.328125,0.1875 z m 0.015625,1.9375 c 0.140625,0 0.328125,0 0.328125,-0.203125 0,-0.1875 -0.1875,-0.1875 -0.34375,-0.1875 l -5.953125,0 c -0.140625,0 -0.328125,0 -0.328125,0.1875 0,0.203125 0.1875,0.203125 0.328125,0.203125 z m 0,0"
               id="path84681"
               style="stroke:none" />
          </symbol>
          <symbol
             id="textext-76466a0b-8"
             style="overflow:visible">
            <path
               d="m 3.296875,2.390625 c 0,-0.03125 0,-0.046875 -0.171875,-0.21875 C 1.890625,0.921875 1.5625,-0.96875 1.5625,-2.5 c 0,-1.734375 0.375,-3.46875 1.609375,-4.703125 0.125,-0.125 0.125,-0.140625 0.125,-0.171875 0,-0.078125 -0.03125,-0.109375 -0.09375,-0.109375 -0.109375,0 -1,0.6875 -1.59375,1.953125 -0.5,1.09375 -0.625,2.203125 -0.625,3.03125 0,0.78125 0.109375,1.984375 0.65625,3.125 C 2.25,1.84375 3.09375,2.5 3.203125,2.5 c 0.0625,0 0.09375,-0.03125 0.09375,-0.109375 z m 0,0"
               id="path84684"
               style="stroke:none" />
          </symbol>
          <symbol
             id="textext-76466a0b-9"
             style="overflow:visible">
            <path
               d="m 4.078125,-2.296875 2.78125,0 C 7,-2.296875 7.1875,-2.296875 7.1875,-2.5 7.1875,-2.6875 7,-2.6875 6.859375,-2.6875 l -2.78125,0 0,-2.796875 c 0,-0.140625 0,-0.328125 -0.203125,-0.328125 -0.203125,0 -0.203125,0.1875 -0.203125,0.328125 l 0,2.796875 -2.78125,0 c -0.140625,0 -0.328125,0 -0.328125,0.1875 0,0.203125 0.1875,0.203125 0.328125,0.203125 l 2.78125,0 0,2.796875 c 0,0.140625 0,0.328125 0.203125,0.328125 0.203125,0 0.203125,-0.1875 0.203125,-0.328125 z m 0,0"
               id="path84687"
               style="stroke:none" />
          </symbol>
          <symbol
             id="textext-76466a0b-10"
             style="overflow:visible">
            <path
               d="m 1.90625,-3.765625 c 0,-0.296875 -0.234375,-0.53125 -0.515625,-0.53125 -0.296875,0 -0.53125,0.234375 -0.53125,0.53125 0,0.28125 0.234375,0.53125 0.53125,0.53125 0.28125,0 0.515625,-0.25 0.515625,-0.53125 z m -0.1875,3.65625 c 0,0.28125 0,1.0625 -0.625,1.796875 -0.078125,0.078125 -0.078125,0.09375 -0.078125,0.125 0,0.078125 0.046875,0.109375 0.09375,0.109375 0.109375,0 0.828125,-0.796875 0.828125,-1.953125 0,-0.28125 -0.015625,-1.03125 -0.546875,-1.03125 -0.359375,0 -0.53125,0.28125 -0.53125,0.53125 C 0.859375,-0.265625 1.03125,0 1.390625,0 1.4375,0 1.453125,0 1.46875,-0.015625 c 0.0625,0 0.171875,-0.03125 0.25,-0.09375 z m 0,0"
               id="path84690"
               style="stroke:none" />
          </symbol>
          <symbol
             id="textext-76466a0b-11"
             style="overflow:visible">
            <path
               d="m 2.875,-2.5 c 0,-0.765625 -0.109375,-1.96875 -0.65625,-3.109375 -0.59375,-1.21875 -1.453125,-1.875 -1.546875,-1.875 -0.0625,0 -0.109375,0.046875 -0.109375,0.109375 0,0.03125 0,0.046875 0.1875,0.234375 0.984375,0.984375 1.546875,2.5625 1.546875,4.640625 0,1.71875 -0.359375,3.46875 -1.59375,4.71875 C 0.5625,2.34375 0.5625,2.359375 0.5625,2.390625 0.5625,2.453125 0.609375,2.5 0.671875,2.5 0.765625,2.5 1.671875,1.8125 2.25,0.546875 2.765625,-0.546875 2.875,-1.65625 2.875,-2.5 z m 0,0"
               id="path84693"
               style="stroke:none" />
          </symbol>
          <symbol
             id="textext-76466a0b-12"
             style="overflow:visible">
            <path
               d="m 0.84375,-0.4375 c -0.015625,0.09375 -0.0625,0.265625 -0.0625,0.28125 0,0.15625 0.125,0.21875 0.234375,0.21875 0.125,0 0.234375,-0.078125 0.28125,-0.140625 0.03125,-0.0625 0.078125,-0.296875 0.125,-0.4375 0.03125,-0.125 0.109375,-0.453125 0.140625,-0.625 0.046875,-0.15625 0.09375,-0.3125 0.125,-0.46875 0.078125,-0.28125 0.09375,-0.34375 0.296875,-0.625 C 2.171875,-2.515625 2.5,-2.875 3.03125,-2.875 c 0.390625,0 0.40625,0.359375 0.40625,0.484375 0,0.421875 -0.296875,1.1875 -0.40625,1.484375 -0.078125,0.203125 -0.109375,0.265625 -0.109375,0.375 0,0.375 0.296875,0.59375 0.65625,0.59375 0.703125,0 1,-0.953125 1,-1.0625 0,-0.09375 -0.078125,-0.09375 -0.109375,-0.09375 -0.09375,0 -0.09375,0.046875 -0.125,0.125 C 4.1875,-0.40625 3.875,-0.125 3.609375,-0.125 c -0.15625,0 -0.1875,-0.09375 -0.1875,-0.25 0,-0.15625 0.046875,-0.25 0.171875,-0.5625 0.078125,-0.21875 0.359375,-0.953125 0.359375,-1.34375 0,-0.671875 -0.53125,-0.796875 -0.90625,-0.796875 -0.578125,0 -0.96875,0.359375 -1.171875,0.640625 -0.046875,-0.484375 -0.453125,-0.640625 -0.75,-0.640625 -0.296875,0 -0.453125,0.21875 -0.546875,0.375 -0.15625,0.265625 -0.25,0.65625 -0.25,0.703125 0,0.078125 0.09375,0.078125 0.125,0.078125 0.09375,0 0.09375,-0.015625 0.140625,-0.203125 0.109375,-0.40625 0.25,-0.75 0.515625,-0.75 0.1875,0 0.234375,0.15625 0.234375,0.34375 0,0.125 -0.0625,0.390625 -0.125,0.578125 -0.046875,0.1875 -0.109375,0.46875 -0.140625,0.625 z m 0,0"
               id="path84696"
               style="stroke:none" />
          </symbol>
          <symbol
             id="textext-76466a0b-13"
             style="overflow:visible">
            <path
               d="m 2.265625,-4.359375 c 0,-0.109375 -0.09375,-0.265625 -0.28125,-0.265625 -0.1875,0 -0.390625,0.1875 -0.390625,0.390625 0,0.109375 0.078125,0.265625 0.28125,0.265625 0.1875,0 0.390625,-0.203125 0.390625,-0.390625 z M 0.84375,-0.8125 c -0.03125,0.09375 -0.0625,0.171875 -0.0625,0.296875 0,0.328125 0.265625,0.578125 0.65625,0.578125 0.6875,0 1,-0.953125 1,-1.0625 0,-0.09375 -0.09375,-0.09375 -0.109375,-0.09375 -0.09375,0 -0.109375,0.046875 -0.140625,0.125 -0.15625,0.5625 -0.453125,0.84375 -0.734375,0.84375 -0.140625,0 -0.171875,-0.09375 -0.171875,-0.25 0,-0.15625 0.046875,-0.28125 0.109375,-0.4375 C 1.46875,-1 1.546875,-1.1875 1.609375,-1.375 1.671875,-1.546875 1.9375,-2.171875 1.953125,-2.265625 1.984375,-2.328125 2,-2.40625 2,-2.484375 2,-2.8125 1.71875,-3.078125 1.34375,-3.078125 0.640625,-3.078125 0.328125,-2.125 0.328125,-2 c 0,0.078125 0.09375,0.078125 0.125,0.078125 0.09375,0 0.09375,-0.03125 0.125,-0.109375 C 0.75,-2.625 1.0625,-2.875 1.3125,-2.875 c 0.109375,0 0.171875,0.046875 0.171875,0.234375 0,0.171875 -0.03125,0.265625 -0.203125,0.703125 z m 0,0"
               id="path84699"
               style="stroke:none" />
          </symbol>
          <symbol
             id="textext-76466a0b-14"
             style="overflow:visible">
            <path
               d="M 3.0625,-4.359375 C 3.0625,-4.46875 2.96875,-4.625 2.78125,-4.625 c -0.203125,0 -0.390625,0.203125 -0.390625,0.390625 0,0.109375 0.078125,0.265625 0.28125,0.265625 0.1875,0 0.390625,-0.1875 0.390625,-0.390625 z M 1.578125,0.34375 C 1.46875,0.828125 1.09375,1.21875 0.6875,1.21875 c -0.09375,0 -0.171875,0 -0.25,-0.03125 0.171875,-0.09375 0.234375,-0.25 0.234375,-0.359375 0,-0.171875 -0.140625,-0.25 -0.28125,-0.25 C 0.1875,0.578125 0,0.765625 0,0.984375 c 0,0.265625 0.265625,0.4375 0.6875,0.4375 0.421875,0 1.234375,-0.25 1.453125,-1.09375 l 0.625,-2.5 c 0.015625,-0.078125 0.03125,-0.140625 0.03125,-0.25 0,-0.375 -0.328125,-0.65625 -0.734375,-0.65625 -0.78125,0 -1.21875,0.96875 -1.21875,1.078125 0,0.078125 0.09375,0.078125 0.109375,0.078125 0.078125,0 0.09375,-0.015625 0.140625,-0.125 C 1.265625,-2.453125 1.625,-2.875 2.03125,-2.875 c 0.171875,0 0.234375,0.109375 0.234375,0.34375 0,0.078125 0,0.171875 -0.015625,0.203125 z m 0,0"
               id="path84702"
               style="stroke:none" />
          </symbol>
          <symbol
             id="textext-76466a0b-15"
             style="overflow:visible">
            <path
               d="m 12.625,13.953125 1.203125,-3.1875 -0.25,0 c -0.390625,1.03125 -1.453125,1.71875 -2.59375,2.015625 -0.203125,0.04687 -1.1875,0.3125 -3.09375,0.3125 l -6.015625,0 5.078125,-5.953125 C 7.015625,7.0625 7.03125,7.03125 7.03125,6.984375 c 0,-0.03125 0,-0.0625 -0.0625,-0.15625 l -4.640625,-6.34375 5.453125,0 c 1.34375,0 2.25,0.140625 2.34375,0.15625 0.53125,0.078125 1.40625,0.25 2.1875,0.75 0.25,0.15625 0.921875,0.609375 1.265625,1.40625 l 0.25,0 L 12.625,0 0.84375,0 c -0.234375,0 -0.25,0.015625 -0.28125,0.0625 0,0.03125 0,0.234375 0,0.34375 l 5.265625,7.203125 -5.15625,6.0625 C 0.5625,13.78125 0.5625,13.84375 0.5625,13.84375 c 0,0.109375 0.09375,0.109375 0.28125,0.109375 z m 0,0"
               id="path84705"
               style="stroke:none" />
          </symbol>
          <symbol
             id="textext-76466a0b-16"
             style="overflow:visible">
            <path
               d="m 5.359375,-2.34375 c 0.09375,0 0.25,0 0.25,-0.171875 0,-0.171875 -0.15625,-0.171875 -0.25,-0.171875 l -4.609375,0 c -0.09375,0 -0.265625,0 -0.265625,0.171875 0,0.171875 0.15625,0.171875 0.265625,0.171875 z m 0,1.53125 c 0.09375,0 0.25,0 0.25,-0.15625 0,-0.1875 -0.15625,-0.1875 -0.25,-0.1875 l -4.609375,0 c -0.109375,0 -0.265625,0 -0.265625,0.1875 0,0.15625 0.171875,0.15625 0.265625,0.15625 z m 0,0"
               id="path84708"
               style="stroke:none" />
          </symbol>
          <symbol
             id="textext-76466a0b-17"
             style="overflow:visible">
            <path
               d="m 3.21875,-1.578125 2.140625,0 c 0.09375,0 0.25,0 0.25,-0.15625 0,-0.1875 -0.15625,-0.1875 -0.25,-0.1875 l -2.140625,0 0,-2.140625 c 0,-0.078125 0,-0.25 -0.15625,-0.25 -0.171875,0 -0.171875,0.15625 -0.171875,0.25 l 0,2.140625 -2.140625,0 c -0.09375,0 -0.265625,0 -0.265625,0.171875 0,0.171875 0.15625,0.171875 0.265625,0.171875 l 2.140625,0 0,2.140625 c 0,0.09375 0,0.265625 0.15625,0.265625 0.171875,0 0.171875,-0.171875 0.171875,-0.265625 z m 0,0"
               id="path84711"
               style="stroke:none" />
          </symbol>
          <symbol
             id="textext-76466a0b-18"
             style="overflow:visible">
            <path
               d="m 2.328125,-4.4375 c 0,-0.1875 0,-0.1875 -0.203125,-0.1875 -0.453125,0.4375 -1.078125,0.4375 -1.359375,0.4375 l 0,0.25 c 0.15625,0 0.625,0 1,-0.1875 l 0,3.546875 c 0,0.234375 0,0.328125 -0.6875,0.328125 l -0.265625,0 0,0.25 c 0.125,0 0.984375,-0.03125 1.234375,-0.03125 0.21875,0 1.09375,0.03125 1.25,0.03125 l 0,-0.25 -0.265625,0 c -0.703125,0 -0.703125,-0.09375 -0.703125,-0.328125 z m 0,0"
               id="path84714"
               style="stroke:none" />
          </symbol>
          <symbol
             id="textext-76466a0b-19"
             style="overflow:visible">
            <path
               d="m 5.203125,-1.578125 c 0.09375,0 0.265625,0 0.265625,-0.15625 0,-0.1875 -0.171875,-0.1875 -0.265625,-0.1875 l -4.1875,0 c -0.109375,0 -0.265625,0 -0.265625,0.1875 0,0.15625 0.171875,0.15625 0.265625,0.15625 z m 0,0"
               id="path84717"
               style="stroke:none" />
          </symbol>
          <symbol
             id="textext-76466a0b-20"
             style="overflow:visible">
            <path
               d="m 6.59375,-2.296875 c 0.140625,0 0.328125,0 0.328125,-0.203125 0,-0.1875 -0.1875,-0.1875 -0.328125,-0.1875 l -5.4375,0 c -0.140625,0 -0.328125,0 -0.328125,0.1875 0,0.203125 0.1875,0.203125 0.328125,0.203125 z m 0,0"
               id="path84720"
               style="stroke:none" />
          </symbol>
          <symbol
             id="textext-76466a0b-21"
             style="overflow:visible">
            <path
               d="m 3.875,2.5 c 0.15625,0 0.328125,0 0.328125,-0.203125 C 4.203125,2.09375 4.03125,2.09375 3.875,2.09375 l -1.734375,0 0,-9.234375 c 0,-0.140625 0,-0.34375 -0.203125,-0.34375 -0.203125,0 -0.203125,0.203125 -0.203125,0.34375 l 0,9.296875 C 1.734375,2.453125 1.78125,2.5 2.078125,2.5 z m 0,0"
               id="path84723"
               style="stroke:none" />
          </symbol>
          <symbol
             id="textext-76466a0b-22"
             style="overflow:visible">
            <path
               d="m 2.6875,-7.140625 c 0,-0.140625 0,-0.34375 -0.203125,-0.34375 -0.203125,0 -0.203125,0.203125 -0.203125,0.34375 l 0,9.234375 -1.75,0 c -0.140625,0 -0.328125,0 -0.328125,0.203125 C 0.203125,2.5 0.390625,2.5 0.53125,2.5 l 1.828125,0 C 2.640625,2.5 2.6875,2.453125 2.6875,2.15625 z m 0,0"
               id="path84726"
               style="stroke:none" />
          </symbol>
          <symbol
             id="textext-76466a0b-23"
             style="overflow:visible">
            <path
               d="m 1.90625,-2.5 c 0,-0.28125 -0.234375,-0.515625 -0.515625,-0.515625 -0.296875,0 -0.53125,0.234375 -0.53125,0.515625 0,0.296875 0.234375,0.53125 0.53125,0.53125 0.28125,0 0.515625,-0.234375 0.515625,-0.53125 z m 0,0"
               id="path84729"
               style="stroke:none" />
          </symbol>
        </g>
      </defs>
      <g
         id="textext-76466a0b-24">
        <g
           id="g84732"
           style="fill:#000000;fill-opacity:1">
          <use
             id="use84734"
             x="275.94"
             y="141.254"
             width="744.09448"
             height="1052.3622"
             xlink:href="#textext-76466a0b-0" />
        </g>
        <g
           id="g84736"
           style="fill:#000000;fill-opacity:1">
          <use
             id="use84738"
             x="286.108"
             y="141.254"
             width="744.09448"
             height="1052.3622"
             xlink:href="#textext-76466a0b-7" />
        </g>
        <g
           id="g84740"
           style="fill:#000000;fill-opacity:1">
          <use
             id="use84742"
             x="309.24799"
             y="128.80099"
             width="744.09448"
             height="1052.3622"
             xlink:href="#textext-76466a0b-12" />
        </g>
        <g
           id="g84744"
           style="fill:#000000;fill-opacity:1">
          <use
             id="use84746"
             x="304.51501"
             y="131.78999"
             width="744.09448"
             height="1052.3622"
             xlink:href="#textext-76466a0b-15" />
        </g>
        <g
           id="g84748"
           style="fill:#000000;fill-opacity:1">
          <use
             id="use84750"
             x="296.62399"
             y="153.009"
             width="744.09448"
             height="1052.3622"
             xlink:href="#textext-76466a0b-13" />
        </g>
        <g
           id="g84752"
           style="fill:#000000;fill-opacity:1">
          <use
             id="use84754"
             x="299.44299"
             y="153.009"
             width="744.09448"
             height="1052.3622"
             xlink:href="#textext-76466a0b-16" />
        </g>
        <g
           id="g84756"
           style="fill:#000000;fill-opacity:1">
          <use
             id="use84758"
             x="305.55899"
             y="153.009"
             width="744.09448"
             height="1052.3622"
             xlink:href="#textext-76466a0b-19" />
        </g>
        <g
           id="g84760"
           style="fill:#000000;fill-opacity:1">
          <use
             id="use84762"
             x="311.785"
             y="153.009"
             width="744.09448"
             height="1052.3622"
             xlink:href="#textext-76466a0b-12" />
        </g>
        <g
           id="g84764"
           style="fill:#000000;fill-opacity:1">
          <use
             id="use84766"
             x="316.70999"
             y="153.009"
             width="744.09448"
             height="1052.3622"
             xlink:href="#textext-76466a0b-17" />
          <use
             id="use84768"
             x="322.82602"
             y="153.009"
             width="744.09448"
             height="1052.3622"
             xlink:href="#textext-76466a0b-18" />
        </g>
        <g
           id="g84770"
           style="fill:#000000;fill-opacity:1">
          <use
             id="use84772"
             x="341.52301"
             y="128.80099"
             width="744.09448"
             height="1052.3622"
             xlink:href="#textext-76466a0b-12" />
        </g>
        <g
           id="g84774"
           style="fill:#000000;fill-opacity:1">
          <use
             id="use84776"
             x="336.79001"
             y="131.78999"
             width="744.09448"
             height="1052.3622"
             xlink:href="#textext-76466a0b-15" />
        </g>
        <g
           id="g84778"
           style="fill:#000000;fill-opacity:1">
          <use
             id="use84780"
             x="328.45801"
             y="153.009"
             width="744.09448"
             height="1052.3622"
             xlink:href="#textext-76466a0b-14" />
        </g>
        <g
           id="g84782"
           style="fill:#000000;fill-opacity:1">
          <use
             id="use84784"
             x="332.15799"
             y="153.009"
             width="744.09448"
             height="1052.3622"
             xlink:href="#textext-76466a0b-16" />
        </g>
        <g
           id="g84786"
           style="fill:#000000;fill-opacity:1">
          <use
             id="use84788"
             x="338.27399"
             y="153.009"
             width="744.09448"
             height="1052.3622"
             xlink:href="#textext-76466a0b-19" />
        </g>
        <g
           id="g84790"
           style="fill:#000000;fill-opacity:1">
          <use
             id="use84792"
             x="344.5"
             y="153.009"
             width="744.09448"
             height="1052.3622"
             xlink:href="#textext-76466a0b-12" />
        </g>
        <g
           id="g84794"
           style="fill:#000000;fill-opacity:1">
          <use
             id="use84796"
             x="349.42499"
             y="153.009"
             width="744.09448"
             height="1052.3622"
             xlink:href="#textext-76466a0b-17" />
          <use
             id="use84798"
             x="355.54102"
             y="153.009"
             width="744.09448"
             height="1052.3622"
             xlink:href="#textext-76466a0b-18" />
        </g>
        <g
           id="g84800"
           style="fill:#000000;fill-opacity:1">
          <use
             id="use84802"
             x="361.173"
             y="141.254"
             width="744.09448"
             height="1052.3622"
             xlink:href="#textext-76466a0b-1" />
        </g>
        <g
           id="g84804"
           style="fill:#000000;fill-opacity:1">
          <use
             id="use84806"
             x="367.953"
             y="141.254"
             width="744.09448"
             height="1052.3622"
             xlink:href="#textext-76466a0b-8" />
        </g>
        <g
           id="g84808"
           style="fill:#000000;fill-opacity:1">
          <use
             id="use84810"
             x="371.827"
             y="141.254"
             width="744.09448"
             height="1052.3622"
             xlink:href="#textext-76466a0b-2" />
        </g>
        <g
           id="g84812"
           style="fill:#000000;fill-opacity:1">
          <use
             id="use84814"
             x="377.47299"
             y="141.254"
             width="744.09448"
             height="1052.3622"
             xlink:href="#textext-76466a0b-20" />
        </g>
        <g
           id="g84816"
           style="fill:#000000;fill-opacity:1">
          <use
             id="use84818"
             x="387.436"
             y="141.254"
             width="744.09448"
             height="1052.3622"
             xlink:href="#textext-76466a0b-3" />
        </g>
        <g
           id="g84820"
           style="fill:#000000;fill-opacity:1">
          <use
             id="use84822"
             x="395.34399"
             y="141.254"
             width="744.09448"
             height="1052.3622"
             xlink:href="#textext-76466a0b-9" />
        </g>
        <g
           id="g84824"
           style="fill:#000000;fill-opacity:1">
          <use
             id="use84826"
             x="405.306"
             y="141.254"
             width="744.09448"
             height="1052.3622"
             xlink:href="#textext-76466a0b-21" />
        </g>
        <g
           id="g84828"
           style="fill:#000000;fill-opacity:1">
          <use
             id="use84830"
             x="409.73401"
             y="141.254"
             width="744.09448"
             height="1052.3622"
             xlink:href="#textext-76466a0b-3" />
        </g>
        <g
           id="g84832"
           style="fill:#000000;fill-opacity:1">
          <use
             id="use84834"
             x="415.42801"
             y="141.254"
             width="744.09448"
             height="1052.3622"
             xlink:href="#textext-76466a0b-22" />
        </g>
        <g
           id="g84836"
           style="fill:#000000;fill-opacity:1">
          <use
             id="use84838"
             x="419.85599"
             y="141.254"
             width="744.09448"
             height="1052.3622"
             xlink:href="#textext-76466a0b-10" />
        </g>
        <g
           id="g84840"
           style="fill:#000000;fill-opacity:1">
          <use
             id="use84842"
             x="424.284"
             y="141.254"
             width="744.09448"
             height="1052.3622"
             xlink:href="#textext-76466a0b-4" />
        </g>
        <g
           id="g84844"
           style="fill:#000000;fill-opacity:1">
          <use
             id="use84846"
             x="430.26401"
             y="141.254"
             width="744.09448"
             height="1052.3622"
             xlink:href="#textext-76466a0b-11" />
        </g>
        <g
           id="g84848"
           style="fill:#000000;fill-opacity:1">
          <use
             id="use84850"
             x="436.35199"
             y="141.254"
             width="744.09448"
             height="1052.3622"
             xlink:href="#textext-76466a0b-23" />
        </g>
        <g
           id="g84852"
           style="fill:#000000;fill-opacity:1">
          <use
             id="use84854"
             x="441.33301"
             y="141.254"
             width="744.09448"
             height="1052.3622"
             xlink:href="#textext-76466a0b-1" />
        </g>
        <g
           id="g84856"
           style="fill:#000000;fill-opacity:1">
          <use
             id="use84858"
             x="448.11301"
             y="141.254"
             width="744.09448"
             height="1052.3622"
             xlink:href="#textext-76466a0b-8" />
        </g>
        <g
           id="g84860"
           style="fill:#000000;fill-opacity:1">
          <use
             id="use84862"
             x="451.98801"
             y="141.254"
             width="744.09448"
             height="1052.3622"
             xlink:href="#textext-76466a0b-5" />
        </g>
        <g
           id="g84864"
           style="fill:#000000;fill-opacity:1">
          <use
             id="use84866"
             x="458.875"
             y="141.254"
             width="744.09448"
             height="1052.3622"
             xlink:href="#textext-76466a0b-20" />
        </g>
        <g
           id="g84868"
           style="fill:#000000;fill-opacity:1">
          <use
             id="use84870"
             x="468.83701"
             y="141.254"
             width="744.09448"
             height="1052.3622"
             xlink:href="#textext-76466a0b-6" />
        </g>
        <g
           id="g84872"
           style="fill:#000000;fill-opacity:1">
          <use
             id="use84874"
             x="476.293"
             y="141.254"
             width="744.09448"
             height="1052.3622"
             xlink:href="#textext-76466a0b-9" />
        </g>
        <g
           id="g84876"
           style="fill:#000000;fill-opacity:1">
          <use
             id="use84878"
             x="486.25601"
             y="141.254"
             width="744.09448"
             height="1052.3622"
             xlink:href="#textext-76466a0b-21" />
        </g>
        <g
           id="g84880"
           style="fill:#000000;fill-opacity:1">
          <use
             id="use84882"
             x="490.68301"
             y="141.254"
             width="744.09448"
             height="1052.3622"
             xlink:href="#textext-76466a0b-6" />
        </g>
        <g
           id="g84884"
           style="fill:#000000;fill-opacity:1">
          <use
             id="use84886"
             x="495.92499"
             y="141.254"
             width="744.09448"
             height="1052.3622"
             xlink:href="#textext-76466a0b-22" />
        </g>
        <g
           id="g84888"
           style="fill:#000000;fill-opacity:1">
          <use
             id="use84890"
             x="500.353"
             y="141.254"
             width="744.09448"
             height="1052.3622"
             xlink:href="#textext-76466a0b-10" />
        </g>
        <g
           id="g84892"
           style="fill:#000000;fill-opacity:1">
          <use
             id="use84894"
             x="504.78101"
             y="141.254"
             width="744.09448"
             height="1052.3622"
             xlink:href="#textext-76466a0b-4" />
        </g>
        <g
           id="g84896"
           style="fill:#000000;fill-opacity:1">
          <use
             id="use84898"
             x="510.76099"
             y="141.254"
             width="744.09448"
             height="1052.3622"
             xlink:href="#textext-76466a0b-11" />
        </g>
      </g>
    </g>
  </g>
</svg>
