<?xml version="1.0" encoding="UTF-8" standalone="no"?>
<!-- Created with Inkscape (http://www.inkscape.org/) -->

<svg
   xmlns:dc="http://purl.org/dc/elements/1.1/"
   xmlns:cc="http://creativecommons.org/ns#"
   xmlns:rdf="http://www.w3.org/1999/02/22-rdf-syntax-ns#"
   xmlns:svg="http://www.w3.org/2000/svg"
   xmlns="http://www.w3.org/2000/svg"
   xmlns:xlink="http://www.w3.org/1999/xlink"
   version="1.1"
   width="434"
   height="48"
   id="svg18792">
  <defs
     id="defs18794" />
  <metadata
     id="metadata18797">
    <rdf:RDF>
      <cc:Work
         rdf:about="">
        <dc:format>image/svg+xml</dc:format>
        <dc:type
           rdf:resource="http://purl.org/dc/dcmitype/StillImage" />
        <dc:title></dc:title>
      </cc:Work>
    </rdf:RDF>
  </metadata>
  <g
     transform="translate(-96.215918,-458.55802)"
     id="layer1">
    <g
       transform="matrix(2,0,0,2,-471.28634,209.12478)"
       id="g12864">
      <defs
         id="defs12866">
        <g
           id="g12868">
          <symbol
             id="textext-44c45640-0"
             style="overflow:visible">
            <path
               d="m 5.796875,-2.578125 -0.25,0 c -0.109375,1.015625 -0.25,2.265625 -2,2.265625 l -0.8125,0 C 2.265625,-0.3125 2.25,-0.375 2.25,-0.703125 l 0,-5.3125 C 2.25,-6.359375 2.25,-6.5 3.1875,-6.5 l 0.328125,0 0,-0.3125 C 3.15625,-6.78125 2.25,-6.78125 1.84375,-6.78125 c -0.390625,0 -1.171875,0 -1.515625,-0.03125 l 0,0.3125 0.234375,0 c 0.765625,0 0.796875,0.109375 0.796875,0.46875 l 0,5.25 c 0,0.359375 -0.03125,0.46875 -0.796875,0.46875 l -0.234375,0 0,0.3125 5.1875,0 z m 0,0"
               id="path12871"
               style="stroke:none" />
          </symbol>
          <symbol
             id="textext-44c45640-1"
             style="overflow:visible">
            <path
               d="m 3.296875,2.390625 c 0,-0.03125 0,-0.046875 -0.171875,-0.21875 C 1.890625,0.921875 1.5625,-0.96875 1.5625,-2.5 c 0,-1.734375 0.375,-3.46875 1.609375,-4.703125 0.125,-0.125 0.125,-0.140625 0.125,-0.171875 0,-0.078125 -0.03125,-0.109375 -0.09375,-0.109375 -0.109375,0 -1,0.6875 -1.59375,1.953125 -0.5,1.09375 -0.625,2.203125 -0.625,3.03125 0,0.78125 0.109375,1.984375 0.65625,3.125 C 2.25,1.84375 3.09375,2.5 3.203125,2.5 c 0.0625,0 0.09375,-0.03125 0.09375,-0.109375 z m 0,0"
               id="path12874"
               style="stroke:none" />
          </symbol>
          <symbol
             id="textext-44c45640-2"
             style="overflow:visible">
            <path
               d="m 1.90625,-3.765625 c 0,-0.296875 -0.234375,-0.53125 -0.515625,-0.53125 -0.296875,0 -0.53125,0.234375 -0.53125,0.53125 0,0.28125 0.234375,0.53125 0.53125,0.53125 0.28125,0 0.515625,-0.25 0.515625,-0.53125 z m -0.1875,3.65625 c 0,0.28125 0,1.0625 -0.625,1.796875 -0.078125,0.078125 -0.078125,0.09375 -0.078125,0.125 0,0.078125 0.046875,0.109375 0.09375,0.109375 0.109375,0 0.828125,-0.796875 0.828125,-1.953125 0,-0.28125 -0.015625,-1.03125 -0.546875,-1.03125 -0.359375,0 -0.53125,0.28125 -0.53125,0.53125 C 0.859375,-0.265625 1.03125,0 1.390625,0 1.4375,0 1.453125,0 1.46875,-0.015625 c 0.0625,0 0.171875,-0.03125 0.25,-0.09375 z m 0,0"
               id="path12877"
               style="stroke:none" />
          </symbol>
          <symbol
             id="textext-44c45640-3"
             style="overflow:visible">
            <path
               d="m 4.578125,-3.1875 c 0,-0.796875 -0.046875,-1.59375 -0.390625,-2.328125 -0.453125,-0.96875 -1.28125,-1.125 -1.6875,-1.125 -0.609375,0 -1.328125,0.265625 -1.75,1.1875 -0.3125,0.6875 -0.359375,1.46875 -0.359375,2.265625 0,0.75 0.03125,1.640625 0.453125,2.40625 0.421875,0.796875 1.15625,1 1.640625,1 0.53125,0 1.296875,-0.203125 1.734375,-1.15625 0.3125,-0.6875 0.359375,-1.46875 0.359375,-2.25 z M 2.484375,0 C 2.09375,0 1.5,-0.25 1.328125,-1.203125 1.21875,-1.796875 1.21875,-2.71875 1.21875,-3.3125 c 0,-0.640625 0,-1.296875 0.078125,-1.828125 0.1875,-1.1875 0.9375,-1.28125 1.1875,-1.28125 0.328125,0 0.984375,0.1875 1.171875,1.171875 0.109375,0.5625 0.109375,1.3125 0.109375,1.9375 0,0.75 0,1.421875 -0.109375,2.0625 C 3.5,-0.296875 2.9375,0 2.484375,0 z m 0,0"
               id="path12880"
               style="stroke:none" />
          </symbol>
          <symbol
             id="textext-44c45640-4"
             style="overflow:visible">
            <path
               d="m 2.875,-2.5 c 0,-0.765625 -0.109375,-1.96875 -0.65625,-3.109375 -0.59375,-1.21875 -1.453125,-1.875 -1.546875,-1.875 -0.0625,0 -0.109375,0.046875 -0.109375,0.109375 0,0.03125 0,0.046875 0.1875,0.234375 0.984375,0.984375 1.546875,2.5625 1.546875,4.640625 0,1.71875 -0.359375,3.46875 -1.59375,4.71875 C 0.5625,2.34375 0.5625,2.359375 0.5625,2.390625 0.5625,2.453125 0.609375,2.5 0.671875,2.5 0.765625,2.5 1.671875,1.8125 2.25,0.546875 2.765625,-0.546875 2.875,-1.65625 2.875,-2.5 z m 0,0"
               id="path12883"
               style="stroke:none" />
          </symbol>
          <symbol
             id="textext-44c45640-5"
             style="overflow:visible">
            <path
               d="m 6.84375,-3.265625 c 0.15625,0 0.34375,0 0.34375,-0.1875 C 7.1875,-3.65625 7,-3.65625 6.859375,-3.65625 l -5.96875,0 c -0.140625,0 -0.328125,0 -0.328125,0.203125 0,0.1875 0.1875,0.1875 0.328125,0.1875 z m 0.015625,1.9375 c 0.140625,0 0.328125,0 0.328125,-0.203125 0,-0.1875 -0.1875,-0.1875 -0.34375,-0.1875 l -5.953125,0 c -0.140625,0 -0.328125,0 -0.328125,0.1875 0,0.203125 0.1875,0.203125 0.328125,0.203125 z m 0,0"
               id="path12886"
               style="stroke:none" />
          </symbol>
          <symbol
             id="textext-44c45640-6"
             style="overflow:visible">
            <path
               d="m 2.078125,-1.9375 c 0.21875,0.046875 1.03125,0.203125 1.03125,0.921875 0,0.5 -0.34375,0.90625 -1.125,0.90625 -0.84375,0 -1.203125,-0.5625 -1.390625,-1.421875 C 0.5625,-1.65625 0.5625,-1.6875 0.453125,-1.6875 c -0.125,0 -0.125,0.0625 -0.125,0.234375 l 0,1.328125 c 0,0.171875 0,0.234375 0.109375,0.234375 0.046875,0 0.0625,-0.015625 0.25,-0.203125 0.015625,-0.015625 0.015625,-0.03125 0.203125,-0.21875 0.4375,0.40625 0.890625,0.421875 1.09375,0.421875 1.140625,0 1.609375,-0.671875 1.609375,-1.390625 0,-0.515625 -0.296875,-0.828125 -0.421875,-0.9375 C 2.84375,-2.546875 2.453125,-2.625 2.03125,-2.703125 1.46875,-2.8125 0.8125,-2.9375 0.8125,-3.515625 c 0,-0.359375 0.25,-0.765625 1.109375,-0.765625 1.09375,0 1.15625,0.90625 1.171875,1.203125 0,0.09375 0.09375,0.09375 0.109375,0.09375 0.140625,0 0.140625,-0.046875 0.140625,-0.234375 l 0,-1.015625 c 0,-0.15625 0,-0.234375 -0.109375,-0.234375 -0.046875,0 -0.078125,0 -0.203125,0.125 -0.03125,0.03125 -0.125,0.125 -0.171875,0.15625 -0.375,-0.28125 -0.78125,-0.28125 -0.9375,-0.28125 -1.21875,0 -1.59375,0.671875 -1.59375,1.234375 0,0.34375 0.15625,0.625 0.421875,0.84375 0.328125,0.25 0.609375,0.3125 1.328125,0.453125 z m 0,0"
               id="path12889"
               style="stroke:none" />
          </symbol>
          <symbol
             id="textext-44c45640-7"
             style="overflow:visible">
            <path
               d="M 1.765625,-4.40625 0.375,-4.296875 l 0,0.3125 c 0.640625,0 0.734375,0.0625 0.734375,0.546875 l 0,2.6875 c 0,0.4375 -0.109375,0.4375 -0.78125,0.4375 l 0,0.3125 C 0.640625,-0.015625 1.1875,-0.03125 1.421875,-0.03125 1.78125,-0.03125 2.125,-0.015625 2.46875,0 l 0,-0.3125 c -0.671875,0 -0.703125,-0.046875 -0.703125,-0.4375 z m 0.03125,-1.734375 c 0,-0.3125 -0.234375,-0.53125 -0.515625,-0.53125 -0.3125,0 -0.53125,0.265625 -0.53125,0.53125 0,0.265625 0.21875,0.53125 0.53125,0.53125 0.28125,0 0.515625,-0.21875 0.515625,-0.53125 z m 0,0"
               id="path12892"
               style="stroke:none" />
          </symbol>
          <symbol
             id="textext-44c45640-8"
             style="overflow:visible">
            <path
               d="m 1.09375,-3.421875 0,2.671875 c 0,0.4375 -0.109375,0.4375 -0.78125,0.4375 l 0,0.3125 c 0.359375,-0.015625 0.859375,-0.03125 1.140625,-0.03125 0.25,0 0.765625,0.015625 1.109375,0.03125 l 0,-0.3125 c -0.671875,0 -0.78125,0 -0.78125,-0.4375 l 0,-1.84375 C 1.78125,-3.625 2.5,-4.1875 3.125,-4.1875 c 0.640625,0 0.75,0.53125 0.75,1.109375 l 0,2.328125 c 0,0.4375 -0.109375,0.4375 -0.78125,0.4375 l 0,0.3125 c 0.34375,-0.015625 0.859375,-0.03125 1.125,-0.03125 0.25,0 0.78125,0.015625 1.109375,0.03125 l 0,-0.3125 c -0.515625,0 -0.765625,0 -0.765625,-0.296875 l 0,-1.90625 c 0,-0.859375 0,-1.15625 -0.3125,-1.515625 -0.140625,-0.171875 -0.46875,-0.375 -1.046875,-0.375 C 2.46875,-4.40625 2,-3.984375 1.71875,-3.359375 l 0,-1.046875 -1.40625,0.109375 0,0.3125 c 0.703125,0 0.78125,0.0625 0.78125,0.5625 z m 0,0"
               id="path12895"
               style="stroke:none" />
          </symbol>
          <symbol
             id="textext-44c45640-9"
             style="overflow:visible">
            <path
               d="m 3.578125,-3.84375 c -0.40625,0.03125 -0.46875,0.328125 -0.46875,0.453125 0,0.265625 0.1875,0.453125 0.453125,0.453125 0.265625,0 0.46875,-0.15625 0.46875,-0.46875 0,-0.671875 -0.765625,-1.0625 -1.53125,-1.0625 -1.25,0 -2.15625,1.078125 -2.15625,2.3125 0,1.28125 0.984375,2.265625 2.140625,2.265625 1.328125,0 1.65625,-1.203125 1.65625,-1.296875 0,-0.09375 -0.109375,-0.09375 -0.140625,-0.09375 -0.078125,0 -0.109375,0.03125 -0.125,0.09375 -0.28125,0.921875 -0.9375,1.046875 -1.296875,1.046875 -0.53125,0 -1.40625,-0.421875 -1.40625,-2.03125 0,-1.625 0.8125,-2.046875 1.34375,-2.046875 0.09375,0 0.71875,0.015625 1.0625,0.375 z m 0,0"
               id="path12898"
               style="stroke:none" />
          </symbol>
          <symbol
             id="textext-44c45640-10"
             style="overflow:visible">
            <path
               d="m 1.78125,-3.984375 1.125,0 0,-0.3125 -1.15625,0 0,-1.15625 c 0,-0.875 0.46875,-1.359375 0.90625,-1.359375 0.03125,0 0.1875,0 0.328125,0.078125 C 2.875,-6.703125 2.6875,-6.5625 2.6875,-6.3125 c 0,0.21875 0.15625,0.421875 0.4375,0.421875 0.28125,0 0.4375,-0.203125 0.4375,-0.4375 0,-0.375 -0.375,-0.703125 -0.90625,-0.703125 -0.6875,0 -1.546875,0.53125 -1.546875,1.59375 l 0,1.140625 -0.78125,0 0,0.3125 0.78125,0 0,3.234375 c 0,0.4375 -0.109375,0.4375 -0.765625,0.4375 l 0,0.3125 c 0.390625,-0.015625 0.859375,-0.03125 1.125,-0.03125 0.40625,0 0.875,0 1.265625,0.03125 l 0,-0.3125 -0.203125,0 c -0.734375,0 -0.75,-0.109375 -0.75,-0.46875 z m 0,0"
               id="path12901"
               style="stroke:none" />
          </symbol>
          <symbol
             id="textext-44c45640-11"
             style="overflow:visible">
            <path
               d="M 4.6875,-2.140625 C 4.6875,-3.40625 3.703125,-4.46875 2.5,-4.46875 c -1.25,0 -2.21875,1.09375 -2.21875,2.328125 0,1.296875 1.03125,2.25 2.203125,2.25 1.203125,0 2.203125,-0.984375 2.203125,-2.25 z m -2.1875,2 c -0.4375,0 -0.875,-0.203125 -1.140625,-0.671875 -0.25,-0.4375 -0.25,-1.046875 -0.25,-1.40625 0,-0.390625 0,-0.921875 0.234375,-1.359375 C 1.609375,-4.03125 2.078125,-4.25 2.484375,-4.25 c 0.4375,0 0.859375,0.21875 1.125,0.65625 0.265625,0.421875 0.265625,1 0.265625,1.375 0,0.359375 0,0.90625 -0.21875,1.34375 C 3.421875,-0.421875 2.984375,-0.140625 2.5,-0.140625 z m 0,0"
               id="path12904"
               style="stroke:none" />
          </symbol>
          <symbol
             id="textext-44c45640-12"
             style="overflow:visible">
            <path
               d="m 1.71875,-0.78125 0,-1.53125 c 0,-0.984375 0.421875,-1.875 1.171875,-1.875 0.0625,0 0.09375,0 0.109375,0.015625 -0.03125,0 -0.234375,0.125 -0.234375,0.390625 0,0.265625 0.21875,0.421875 0.4375,0.421875 0.171875,0 0.421875,-0.125 0.421875,-0.4375 0,-0.3125 -0.3125,-0.609375 -0.734375,-0.609375 -0.734375,0 -1.09375,0.671875 -1.21875,1.09375 l 0,-1.09375 -1.390625,0.109375 0,0.3125 c 0.703125,0 0.78125,0.0625 0.78125,0.5625 l 0,2.671875 c 0,0.4375 -0.109375,0.4375 -0.78125,0.4375 l 0,0.3125 c 0.390625,-0.015625 0.859375,-0.03125 1.140625,-0.03125 0.390625,0 0.859375,0 1.265625,0.03125 l 0,-0.3125 -0.21875,0 c -0.734375,0 -0.75,-0.109375 -0.75,-0.46875 z m 0,0"
               id="path12907"
               style="stroke:none" />
          </symbol>
          <symbol
             id="textext-44c45640-13"
             style="overflow:visible">
            <path
               d="m 1.71875,-3.984375 1.4375,0 0,-0.3125 -1.4375,0 0,-1.828125 -0.25,0 c 0,0.8125 -0.296875,1.875 -1.28125,1.921875 l 0,0.21875 0.84375,0 0,2.75 c 0,1.21875 0.9375,1.34375 1.296875,1.34375 0.703125,0 0.984375,-0.703125 0.984375,-1.34375 l 0,-0.5625 -0.25,0 0,0.546875 c 0,0.734375 -0.296875,1.109375 -0.671875,1.109375 -0.671875,0 -0.671875,-0.90625 -0.671875,-1.078125 z m 0,0"
               id="path12910"
               style="stroke:none" />
          </symbol>
          <symbol
             id="textext-44c45640-14"
             style="overflow:visible">
            <path
               d="m 4.5625,-2.515625 c 0,-0.859375 0,-1.15625 -0.3125,-1.515625 -0.140625,-0.171875 -0.46875,-0.375 -1.046875,-0.375 -0.84375,0 -1.28125,0.59375 -1.4375,0.953125 l -0.015625,0 0,-3.46875 -1.4375,0.109375 0,0.3125 c 0.703125,0 0.78125,0.0625 0.78125,0.5625 l 0,5.1875 c 0,0.4375 -0.109375,0.4375 -0.78125,0.4375 l 0,0.3125 c 0.359375,-0.015625 0.859375,-0.03125 1.140625,-0.03125 0.25,0 0.765625,0.015625 1.109375,0.03125 l 0,-0.3125 c -0.671875,0 -0.78125,0 -0.78125,-0.4375 l 0,-1.84375 C 1.78125,-3.625 2.5,-4.1875 3.125,-4.1875 c 0.640625,0 0.75,0.53125 0.75,1.109375 l 0,2.328125 c 0,0.4375 -0.109375,0.4375 -0.78125,0.4375 l 0,0.3125 c 0.34375,-0.015625 0.859375,-0.03125 1.125,-0.03125 0.25,0 0.78125,0.015625 1.109375,0.03125 l 0,-0.3125 c -0.515625,0 -0.765625,0 -0.765625,-0.296875 z m 0,0"
               id="path12913"
               style="stroke:none" />
          </symbol>
          <symbol
             id="textext-44c45640-15"
             style="overflow:visible">
            <path
               d="m 3.890625,-2.296875 c 0.21875,0 0.25,0 0.25,-0.21875 0,-0.984375 -0.546875,-1.953125 -1.78125,-1.953125 -1.15625,0 -2.078125,1.03125 -2.078125,2.28125 0,1.328125 1.046875,2.296875 2.1875,2.296875 C 3.6875,0.109375 4.140625,-1 4.140625,-1.1875 4.140625,-1.28125 4.0625,-1.3125 4,-1.3125 c -0.078125,0 -0.109375,0.0625 -0.125,0.140625 -0.34375,1.03125 -1.25,1.03125 -1.34375,1.03125 -0.5,0 -0.890625,-0.296875 -1.125,-0.671875 -0.296875,-0.46875 -0.296875,-1.125 -0.296875,-1.484375 z m -2.78125,-0.21875 C 1.171875,-4 2.015625,-4.25 2.359375,-4.25 c 1.015625,0 1.125,1.34375 1.125,1.734375 z m 0,0"
               id="path12916"
               style="stroke:none" />
          </symbol>
          <symbol
             id="textext-44c45640-16"
             style="overflow:visible">
            <path
               d="m 6.171875,-3.34375 c 0.171875,-0.5 0.484375,-0.640625 0.84375,-0.640625 l 0,-0.3125 C 6.78125,-4.28125 6.5,-4.265625 6.28125,-4.265625 c -0.296875,0 -0.734375,-0.015625 -0.921875,-0.03125 l 0,0.3125 c 0.359375,0 0.578125,0.1875 0.578125,0.46875 0,0.0625 0,0.09375 -0.0625,0.21875 L 4.96875,-0.75 3.984375,-3.53125 C 3.953125,-3.65625 3.9375,-3.671875 3.9375,-3.71875 c 0,-0.265625 0.390625,-0.265625 0.59375,-0.265625 l 0,-0.3125 c -0.296875,0.015625 -0.796875,0.03125 -1.046875,0.03125 -0.296875,0 -0.578125,-0.015625 -0.875,-0.03125 l 0,0.3125 c 0.359375,0 0.515625,0.015625 0.625,0.140625 0.046875,0.0625 0.15625,0.359375 0.21875,0.546875 L 2.609375,-0.875 1.65625,-3.53125 C 1.609375,-3.65625 1.609375,-3.671875 1.609375,-3.71875 1.609375,-3.984375 2,-3.984375 2.1875,-3.984375 l 0,-0.3125 c -0.296875,0.015625 -0.859375,0.03125 -1.078125,0.03125 -0.046875,0 -0.578125,-0.015625 -0.9375,-0.03125 l 0,0.3125 c 0.5,0 0.625,0.03125 0.75,0.34375 l 1.25,3.53125 C 2.21875,0.03125 2.25,0.109375 2.375,0.109375 c 0.140625,0 0.15625,-0.0625 0.203125,-0.203125 l 1.015625,-2.8125 1.015625,2.828125 c 0.03125,0.109375 0.0625,0.1875 0.203125,0.1875 0.125,0 0.15625,-0.09375 0.1875,-0.1875 z m 0,0"
               id="path12919"
               style="stroke:none" />
          </symbol>
          <symbol
             id="textext-44c45640-17"
             style="overflow:visible">
            <path
               d="M 3.328125,-3.015625 C 3.390625,-3.265625 3.625,-4.1875 4.3125,-4.1875 c 0.046875,0 0.296875,0 0.5,0.125 C 4.53125,-4 4.34375,-3.765625 4.34375,-3.515625 c 0,0.15625 0.109375,0.34375 0.375,0.34375 0.21875,0 0.53125,-0.171875 0.53125,-0.578125 0,-0.515625 -0.578125,-0.65625 -0.921875,-0.65625 -0.578125,0 -0.921875,0.53125 -1.046875,0.75 -0.25,-0.65625 -0.78125,-0.75 -1.078125,-0.75 -1.03125,0 -1.609375,1.28125 -1.609375,1.53125 0,0.109375 0.109375,0.109375 0.125,0.109375 0.078125,0 0.109375,-0.03125 0.125,-0.109375 0.34375,-1.0625 1,-1.3125 1.34375,-1.3125 0.1875,0 0.53125,0.09375 0.53125,0.671875 0,0.3125 -0.171875,0.96875 -0.53125,2.375 -0.15625,0.609375 -0.515625,1.03125 -0.953125,1.03125 -0.0625,0 -0.28125,0 -0.5,-0.125 0.25,-0.0625 0.46875,-0.265625 0.46875,-0.546875 0,-0.265625 -0.21875,-0.34375 -0.359375,-0.34375 -0.3125,0 -0.546875,0.25 -0.546875,0.578125 0,0.453125 0.484375,0.65625 0.921875,0.65625 0.671875,0 1.03125,-0.703125 1.046875,-0.75 0.125,0.359375 0.484375,0.75 1.078125,0.75 1.03125,0 1.59375,-1.28125 1.59375,-1.53125 0,-0.109375 -0.078125,-0.109375 -0.109375,-0.109375 -0.09375,0 -0.109375,0.046875 -0.140625,0.109375 -0.328125,1.078125 -1,1.3125 -1.3125,1.3125 -0.390625,0 -0.546875,-0.3125 -0.546875,-0.65625 0,-0.21875 0.046875,-0.4375 0.15625,-0.875 z m 0,0"
               id="path12922"
               style="stroke:none" />
          </symbol>
          <symbol
             id="textext-44c45640-18"
             style="overflow:visible">
            <path
               d="m 0.875,-0.59375 c -0.03125,0.15625 -0.09375,0.390625 -0.09375,0.4375 0,0.171875 0.140625,0.265625 0.296875,0.265625 0.125,0 0.296875,-0.078125 0.375,-0.28125 0,-0.015625 0.125,-0.484375 0.1875,-0.734375 C 1.703125,-1.203125 1.78125,-1.5 1.859375,-1.796875 1.90625,-2.03125 1.96875,-2.25 2.03125,-2.46875 c 0.03125,-0.171875 0.109375,-0.46875 0.125,-0.5 0.140625,-0.3125 0.671875,-1.21875 1.625,-1.21875 0.453125,0 0.53125,0.375 0.53125,0.703125 0,0.609375 -0.484375,1.890625 -0.640625,2.3125 C 3.578125,-0.9375 3.5625,-0.8125 3.5625,-0.703125 c 0,0.46875 0.359375,0.8125 0.828125,0.8125 0.9375,0 1.296875,-1.453125 1.296875,-1.53125 0,-0.109375 -0.078125,-0.109375 -0.109375,-0.109375 -0.109375,0 -0.109375,0.03125 -0.15625,0.1875 -0.203125,0.671875 -0.53125,1.234375 -1.015625,1.234375 -0.171875,0 -0.234375,-0.09375 -0.234375,-0.328125 0,-0.25 0.078125,-0.484375 0.171875,-0.703125 0.1875,-0.53125 0.609375,-1.625 0.609375,-2.203125 0,-0.65625 -0.421875,-1.0625 -1.140625,-1.0625 -0.90625,0 -1.390625,0.640625 -1.5625,0.875 -0.046875,-0.5625 -0.453125,-0.875 -0.921875,-0.875 -0.453125,0 -0.640625,0.390625 -0.734375,0.5625 C 0.421875,-3.5 0.296875,-2.90625 0.296875,-2.875 c 0,0.109375 0.09375,0.109375 0.109375,0.109375 0.109375,0 0.109375,-0.015625 0.171875,-0.234375 0.171875,-0.703125 0.375,-1.1875 0.734375,-1.1875 0.1875,0 0.296875,0.125 0.296875,0.453125 0,0.21875 -0.03125,0.328125 -0.15625,0.84375 z m 0,0"
               id="path12925"
               style="stroke:none" />
          </symbol>
          <symbol
             id="textext-44c45640-19"
             style="overflow:visible">
            <path
               d="M 6.734375,-2.265625 C 6.84375,-2.328125 6.921875,-2.375 6.921875,-2.5 c 0,-0.109375 -0.078125,-0.15625 -0.1875,-0.21875 L 1.203125,-5.3125 C 1.078125,-5.390625 1.0625,-5.390625 1.03125,-5.390625 c -0.109375,0 -0.203125,0.09375 -0.203125,0.203125 0,0.09375 0.046875,0.15625 0.1875,0.21875 L 6.25,-2.5 1.015625,-0.015625 c -0.140625,0.0625 -0.1875,0.125 -0.1875,0.21875 0,0.109375 0.09375,0.203125 0.203125,0.203125 0.03125,0 0.046875,0 0.171875,-0.078125 z m 0,0"
               id="path12928"
               style="stroke:none" />
          </symbol>
          <symbol
             id="textext-44c45640-20"
             style="overflow:visible">
            <path
               d="m 4.375,-7.09375 c 0.046875,-0.140625 0.046875,-0.171875 0.046875,-0.1875 0,-0.109375 -0.078125,-0.203125 -0.1875,-0.203125 -0.078125,0 -0.140625,0.03125 -0.171875,0.09375 l -3.46875,9.5 C 0.546875,2.25 0.546875,2.28125 0.546875,2.296875 0.546875,2.40625 0.640625,2.5 0.75,2.5 0.875,2.5 0.90625,2.421875 0.96875,2.25 z m 0,0"
               id="path12931"
               style="stroke:none" />
          </symbol>
          <symbol
             id="textext-44c45640-21"
             style="overflow:visible">
            <path
               d="m 3.3125,20.421875 c 0,1.453125 1,2.390625 2.234375,2.984375 0.21875,0.109375 0.25,0.109375 0.390625,0.109375 0.21875,0 0.21875,0 0.21875,-0.21875 0,-0.15625 0,-0.171875 -0.078125,-0.21875 C 5.65625,22.875 4.375,22.234375 4.171875,20.796875 c -0.03125,-0.140625 -0.03125,-0.25 -0.03125,-0.84375 l 0,-5.109375 c 0,-0.46875 0,-1.203125 -0.625,-2.015625 C 3.125,12.328125 2.5625,11.875 1.875,11.5625 3.8125,10.625 4.140625,9.1875 4.140625,8.625 l 0,-5.75 c 0,-0.609375 0,-1.890625 1.9375,-2.84375 0.078125,-0.046875 0.078125,-0.0625 0.078125,-0.203125 0,-0.21875 0,-0.234375 -0.21875,-0.234375 -0.140625,0 -0.15625,0 -0.421875,0.125 C 4.53125,0.203125 3.5625,1 3.34375,2.21875 3.3125,2.40625 3.3125,2.5 3.3125,3.171875 l 0,4.609375 c 0,0.296875 0,0.828125 0,0.9375 -0.09375,1.046875 -0.703125,1.953125 -1.84375,2.578125 -0.15625,0.09375 -0.15625,0.09375 -0.15625,0.25 0,0.171875 0,0.1875 0.140625,0.265625 0.671875,0.375 1.625,1.09375 1.828125,2.328125 C 3.3125,14.375 3.3125,14.390625 3.3125,14.5 z m 0,0"
               id="path12934"
               style="stroke:none" />
          </symbol>
          <symbol
             id="textext-44c45640-22"
             style="overflow:visible">
            <path
               d="m 1.90625,-2.5 c 0,-0.28125 -0.234375,-0.515625 -0.515625,-0.515625 -0.296875,0 -0.53125,0.234375 -0.53125,0.515625 0,0.296875 0.234375,0.53125 0.53125,0.53125 0.28125,0 0.515625,-0.234375 0.515625,-0.53125 z m 0,0"
               id="path12937"
               style="stroke:none" />
          </symbol>
          <symbol
             id="textext-44c45640-23"
             style="overflow:visible">
            <path
               d="m 1.578125,-7.140625 c 0,-0.140625 0,-0.34375 -0.1875,-0.34375 -0.203125,0 -0.203125,0.203125 -0.203125,0.34375 l 0,9.296875 c 0,0.140625 0,0.34375 0.203125,0.34375 0.1875,0 0.1875,-0.203125 0.1875,-0.34375 z m 0,0"
               id="path12940"
               style="stroke:none" />
          </symbol>
          <symbol
             id="textext-44c45640-24"
             style="overflow:visible">
            <path
               d="m 6.734375,-5.9375 c 0.109375,-0.03125 0.1875,-0.078125 0.1875,-0.203125 0,-0.109375 -0.09375,-0.203125 -0.203125,-0.203125 -0.03125,0 -0.046875,0 -0.15625,0.0625 l -5.546875,2.609375 c -0.09375,0.046875 -0.1875,0.09375 -0.1875,0.21875 0,0.125 0.09375,0.171875 0.1875,0.21875 L 6.546875,-0.625 c 0.109375,0.0625 0.125,0.0625 0.171875,0.0625 0.109375,0 0.203125,-0.09375 0.203125,-0.203125 0,-0.125 -0.078125,-0.15625 -0.1875,-0.21875 L 1.5,-3.453125 z M 6.59375,1.359375 c 0.140625,0 0.328125,0 0.328125,-0.1875 0,-0.203125 -0.1875,-0.203125 -0.34375,-0.203125 l -5.40625,0 c -0.140625,0 -0.34375,0 -0.34375,0.203125 0,0.1875 0.1875,0.1875 0.328125,0.1875 z m 0,0"
               id="path12943"
               style="stroke:none" />
          </symbol>
        </g>
      </defs>
      <g
         id="textext-44c45640-25">
        <g
           id="g12946"
           style="fill:#000000;fill-opacity:1">
          <use
             id="use12948"
             x="283.423"
             y="139.248"
             width="744.09448"
             height="1052.3622"
             xlink:href="#textext-44c45640-0" />
          <use
             id="use12950"
             x="289.64963"
             y="139.248"
             width="744.09448"
             height="1052.3622"
             xlink:href="#textext-44c45640-1" />
        </g>
        <g
           id="g12952"
           style="fill:#000000;fill-opacity:1">
          <use
             id="use12954"
             x="293.52399"
             y="139.248"
             width="744.09448"
             height="1052.3622"
             xlink:href="#textext-44c45640-17" />
        </g>
        <g
           id="g12956"
           style="fill:#000000;fill-opacity:1">
          <use
             id="use12958"
             x="299.21799"
             y="139.248"
             width="744.09448"
             height="1052.3622"
             xlink:href="#textext-44c45640-2" />
        </g>
        <g
           id="g12960"
           style="fill:#000000;fill-opacity:1">
          <use
             id="use12962"
             x="303.646"
             y="139.248"
             width="744.09448"
             height="1052.3622"
             xlink:href="#textext-44c45640-18" />
        </g>
        <g
           id="g12964"
           style="fill:#000000;fill-opacity:1">
          <use
             id="use12966"
             x="312.39514"
             y="139.248"
             width="744.09448"
             height="1052.3622"
             xlink:href="#textext-44c45640-19" />
        </g>
        <g
           id="g12968"
           style="fill:#000000;fill-opacity:1">
          <use
             id="use12970"
             x="322.909"
             y="139.248"
             width="744.09448"
             height="1052.3622"
             xlink:href="#textext-44c45640-3" />
          <use
             id="use12972"
             x="327.89029"
             y="139.248"
             width="744.09448"
             height="1052.3622"
             xlink:href="#textext-44c45640-4" />
        </g>
        <g
           id="g12974"
           style="fill:#000000;fill-opacity:1">
          <use
             id="use12976"
             x="334.53436"
             y="139.248"
             width="744.09448"
             height="1052.3622"
             xlink:href="#textext-44c45640-5" />
        </g>
        <g
           id="g12978"
           style="fill:#000000;fill-opacity:1">
          <use
             id="use12980"
             x="345.048"
             y="125.201"
             width="744.09448"
             height="1052.3622"
             xlink:href="#textext-44c45640-21" />
        </g>
        <g
           id="g12982"
           style="fill:#000000;fill-opacity:1">
          <use
             id="use12984"
             x="357.50201"
             y="133.17101"
             width="744.09448"
             height="1052.3622"
             xlink:href="#textext-44c45640-6" />
          <use
             id="use12986"
             x="361.43124"
             y="133.17101"
             width="744.09448"
             height="1052.3622"
             xlink:href="#textext-44c45640-7" />
          <use
             id="use12988"
             x="364.19885"
             y="133.17101"
             width="744.09448"
             height="1052.3622"
             xlink:href="#textext-44c45640-8" />
          <use
             id="use12990"
             x="369.73407"
             y="133.17101"
             width="744.09448"
             height="1052.3622"
             xlink:href="#textext-44c45640-9" />
          <use
             id="use12992"
             x="374.16147"
             y="133.17101"
             width="744.09448"
             height="1052.3622"
             xlink:href="#textext-44c45640-1" />
        </g>
        <g
           id="g12994"
           style="fill:#000000;fill-opacity:1">
          <use
             id="use12996"
             x="378.03601"
             y="133.17101"
             width="744.09448"
             height="1052.3622"
             xlink:href="#textext-44c45640-17" />
        </g>
        <g
           id="g12998"
           style="fill:#000000;fill-opacity:1">
          <use
             id="use13000"
             x="383.73001"
             y="133.17101"
             width="744.09448"
             height="1052.3622"
             xlink:href="#textext-44c45640-4" />
        </g>
        <g
           id="g13002"
           style="fill:#000000;fill-opacity:1">
          <use
             id="use13004"
             x="389.81799"
             y="133.17101"
             width="744.09448"
             height="1052.3622"
             xlink:href="#textext-44c45640-22" />
        </g>
        <g
           id="g13006"
           style="fill:#000000;fill-opacity:1">
          <use
             id="use13008"
             x="394.79901"
             y="133.17101"
             width="744.09448"
             height="1052.3622"
             xlink:href="#textext-44c45640-6" />
          <use
             id="use13010"
             x="398.72824"
             y="133.17101"
             width="744.09448"
             height="1052.3622"
             xlink:href="#textext-44c45640-7" />
          <use
             id="use13012"
             x="401.49585"
             y="133.17101"
             width="744.09448"
             height="1052.3622"
             xlink:href="#textext-44c45640-8" />
          <use
             id="use13014"
             x="407.03107"
             y="133.17101"
             width="744.09448"
             height="1052.3622"
             xlink:href="#textext-44c45640-9" />
          <use
             id="use13016"
             x="411.45847"
             y="133.17101"
             width="744.09448"
             height="1052.3622"
             xlink:href="#textext-44c45640-1" />
        </g>
        <g
           id="g13018"
           style="fill:#000000;fill-opacity:1">
          <use
             id="use13020"
             x="415.33301"
             y="133.17101"
             width="744.09448"
             height="1052.3622"
             xlink:href="#textext-44c45640-17" />
          <use
             id="use13022"
             x="421.02661"
             y="133.17101"
             width="744.09448"
             height="1052.3622"
             xlink:href="#textext-44c45640-20" />
          <use
             id="use13024"
             x="426.00793"
             y="133.17101"
             width="744.09448"
             height="1052.3622"
             xlink:href="#textext-44c45640-18" />
        </g>
        <g
           id="g13026"
           style="fill:#000000;fill-opacity:1">
          <use
             id="use13028"
             x="431.98901"
             y="133.17101"
             width="744.09448"
             height="1052.3622"
             xlink:href="#textext-44c45640-4" />
        </g>
        <g
           id="g13030"
           style="fill:#000000;fill-opacity:1">
          <use
             id="use13032"
             x="455.78867"
             y="133.17101"
             width="744.09448"
             height="1052.3622"
             xlink:href="#textext-44c45640-10" />
          <use
             id="use13034"
             x="458.83322"
             y="133.17101"
             width="744.09448"
             height="1052.3622"
             xlink:href="#textext-44c45640-11" />
          <use
             id="use13036"
             x="463.81451"
             y="133.17101"
             width="744.09448"
             height="1052.3622"
             xlink:href="#textext-44c45640-12" />
        </g>
        <g
           id="g13038"
           style="fill:#000000;fill-opacity:1">
          <use
             id="use13040"
             x="470.483"
             y="133.17101"
             width="744.09448"
             height="1052.3622"
             xlink:href="#textext-44c45640-23" />
        </g>
        <g
           id="g13042"
           style="fill:#000000;fill-opacity:1">
          <use
             id="use13044"
             x="473.25101"
             y="133.17101"
             width="744.09448"
             height="1052.3622"
             xlink:href="#textext-44c45640-17" />
        </g>
        <g
           id="g13046"
           style="fill:#000000;fill-opacity:1">
          <use
             id="use13048"
             x="478.944"
             y="133.17101"
             width="744.09448"
             height="1052.3622"
             xlink:href="#textext-44c45640-23" />
        </g>
        <g
           id="g13050"
           style="fill:#000000;fill-opacity:1">
          <use
             id="use13052"
             x="484.4812"
             y="133.17101"
             width="744.09448"
             height="1052.3622"
             xlink:href="#textext-44c45640-24" />
        </g>
        <g
           id="g13054"
           style="fill:#000000;fill-opacity:1">
          <use
             id="use13056"
             x="494.995"
             y="133.17101"
             width="744.09448"
             height="1052.3622"
             xlink:href="#textext-44c45640-18" />
        </g>
        <g
           id="g13058"
           style="fill:#000000;fill-opacity:1">
          <use
             id="use13060"
             x="357.50201"
             y="145.12601"
             width="744.09448"
             height="1052.3622"
             xlink:href="#textext-44c45640-3" />
        </g>
        <g
           id="g13062"
           style="fill:#000000;fill-opacity:1">
          <use
             id="use13064"
             x="455.793"
             y="145.12601"
             width="744.09448"
             height="1052.3622"
             xlink:href="#textext-44c45640-11" />
          <use
             id="use13066"
             x="460.77432"
             y="145.12601"
             width="744.09448"
             height="1052.3622"
             xlink:href="#textext-44c45640-13" />
          <use
             id="use13068"
             x="464.64877"
             y="145.12601"
             width="744.09448"
             height="1052.3622"
             xlink:href="#textext-44c45640-14" />
        </g>
        <g
           id="g13070"
           style="fill:#000000;fill-opacity:1">
          <use
             id="use13072"
             x="470.17401"
             y="145.12601"
             width="744.09448"
             height="1052.3622"
             xlink:href="#textext-44c45640-15" />
        </g>
        <g
           id="g13074"
           style="fill:#000000;fill-opacity:1">
          <use
             id="use13076"
             x="474.61136"
             y="145.12601"
             width="744.09448"
             height="1052.3622"
             xlink:href="#textext-44c45640-12" />
        </g>
        <g
           id="g13078"
           style="fill:#000000;fill-opacity:1">
          <use
             id="use13080"
             x="478.50375"
             y="145.12601"
             width="744.09448"
             height="1052.3622"
             xlink:href="#textext-44c45640-16" />
        </g>
        <g
           id="g13082"
           style="fill:#000000;fill-opacity:1">
          <use
             id="use13084"
             x="485.70871"
             y="145.12601"
             width="744.09448"
             height="1052.3622"
             xlink:href="#textext-44c45640-7" />
        </g>
        <g
           id="g13086"
           style="fill:#000000;fill-opacity:1">
          <use
             id="use13088"
             x="488.46637"
             y="145.12601"
             width="744.09448"
             height="1052.3622"
             xlink:href="#textext-44c45640-6" />
        </g>
        <g
           id="g13090"
           style="fill:#000000;fill-opacity:1">
          <use
             id="use13092"
             x="492.40558"
             y="145.12601"
             width="744.09448"
             height="1052.3622"
             xlink:href="#textext-44c45640-15" />
        </g>
      </g>
    </g>
  </g>
</svg>
