<?xml version="1.0" encoding="UTF-8" standalone="no"?>
<!-- Created with Inkscape (http://www.inkscape.org/) -->

<svg
   xmlns:dc="http://purl.org/dc/elements/1.1/"
   xmlns:cc="http://creativecommons.org/ns#"
   xmlns:rdf="http://www.w3.org/1999/02/22-rdf-syntax-ns#"
   xmlns:svg="http://www.w3.org/2000/svg"
   xmlns="http://www.w3.org/2000/svg"
   xmlns:xlink="http://www.w3.org/1999/xlink"
   version="1.1"
   width="711"
   height="58"
   id="svg9409">
  <defs
     id="defs9411" />
  <metadata
     id="metadata9414">
    <rdf:RDF>
      <cc:Work
         rdf:about="">
        <dc:format>image/svg+xml</dc:format>
        <dc:type
           rdf:resource="http://purl.org/dc/dcmitype/StillImage" />
        <dc:title></dc:title>
      </cc:Work>
    </rdf:RDF>
  </metadata>
  <g
     transform="translate(-68.301854,-559.68393)"
     id="layer1">
    <g
       transform="matrix(2,0,0,2,-379.1694,308.53018)"
       id="g82796">
      <defs
         id="defs82798">
        <g
           id="g82800">
          <symbol
             id="textext-df830bed-0"
             style="overflow:visible">
            <path
               d="m 3.65625,-3.984375 0.859375,0 c 0.203125,0 0.296875,0 0.296875,-0.203125 0,-0.109375 -0.09375,-0.109375 -0.265625,-0.109375 l -0.828125,0 C 3.828125,-4.875 3.8125,-4.859375 3.921875,-5.4375 c 0.046875,-0.203125 0.1875,-0.90625 0.25,-1.03125 0.078125,-0.1875 0.25,-0.34375 0.46875,-0.34375 0.03125,0 0.296875,0 0.484375,0.1875 -0.4375,0.03125 -0.546875,0.390625 -0.546875,0.53125 0,0.234375 0.1875,0.359375 0.375,0.359375 C 5.21875,-5.734375 5.5,-5.96875 5.5,-6.34375 c 0,-0.453125 -0.453125,-0.6875 -0.859375,-0.6875 -0.34375,0 -0.96875,0.1875 -1.265625,1.171875 -0.0625,0.203125 -0.09375,0.3125 -0.328125,1.5625 l -0.6875,0 c -0.203125,0 -0.3125,0 -0.3125,0.1875 0,0.125 0.09375,0.125 0.28125,0.125 l 0.65625,0 -0.734375,3.9375 c -0.1875,0.96875 -0.359375,1.875 -0.875,1.875 -0.046875,0 -0.28125,0 -0.484375,-0.1875 C 1.359375,1.609375 1.453125,1.25 1.453125,1.109375 1.453125,0.875 1.265625,0.75 1.078125,0.75 0.8125,0.75 0.53125,0.984375 0.53125,1.359375 c 0,0.4375 0.4375,0.6875 0.84375,0.6875 0.546875,0 0.953125,-0.59375 1.125,-0.96875 0.328125,-0.625 0.546875,-1.828125 0.5625,-1.90625 z m 0,0"
               id="path82803"
               style="stroke:none" />
          </symbol>
          <symbol
             id="textext-df830bed-1"
             style="overflow:visible">
            <path
               d="M 3.328125,-3.015625 C 3.390625,-3.265625 3.625,-4.1875 4.3125,-4.1875 c 0.046875,0 0.296875,0 0.5,0.125 C 4.53125,-4 4.34375,-3.765625 4.34375,-3.515625 c 0,0.15625 0.109375,0.34375 0.375,0.34375 0.21875,0 0.53125,-0.171875 0.53125,-0.578125 0,-0.515625 -0.578125,-0.65625 -0.921875,-0.65625 -0.578125,0 -0.921875,0.53125 -1.046875,0.75 -0.25,-0.65625 -0.78125,-0.75 -1.078125,-0.75 -1.03125,0 -1.609375,1.28125 -1.609375,1.53125 0,0.109375 0.109375,0.109375 0.125,0.109375 0.078125,0 0.109375,-0.03125 0.125,-0.109375 0.34375,-1.0625 1,-1.3125 1.34375,-1.3125 0.1875,0 0.53125,0.09375 0.53125,0.671875 0,0.3125 -0.171875,0.96875 -0.53125,2.375 -0.15625,0.609375 -0.515625,1.03125 -0.953125,1.03125 -0.0625,0 -0.28125,0 -0.5,-0.125 0.25,-0.0625 0.46875,-0.265625 0.46875,-0.546875 0,-0.265625 -0.21875,-0.34375 -0.359375,-0.34375 -0.3125,0 -0.546875,0.25 -0.546875,0.578125 0,0.453125 0.484375,0.65625 0.921875,0.65625 0.671875,0 1.03125,-0.703125 1.046875,-0.75 0.125,0.359375 0.484375,0.75 1.078125,0.75 1.03125,0 1.59375,-1.28125 1.59375,-1.53125 0,-0.109375 -0.078125,-0.109375 -0.109375,-0.109375 -0.09375,0 -0.109375,0.046875 -0.140625,0.109375 -0.328125,1.078125 -1,1.3125 -1.3125,1.3125 -0.390625,0 -0.546875,-0.3125 -0.546875,-0.65625 0,-0.21875 0.046875,-0.4375 0.15625,-0.875 z m 0,0"
               id="path82806"
               style="stroke:none" />
          </symbol>
          <symbol
             id="textext-df830bed-2"
             style="overflow:visible">
            <path
               d="m 2.03125,-0.015625 c 0,-0.65625 -0.25,-1.046875 -0.640625,-1.046875 -0.328125,0 -0.53125,0.25 -0.53125,0.53125 C 0.859375,-0.265625 1.0625,0 1.390625,0 1.5,0 1.640625,-0.046875 1.734375,-0.125 1.765625,-0.15625 1.78125,-0.15625 1.78125,-0.15625 c 0.015625,0 0.015625,0 0.015625,0.140625 0,0.75 -0.34375,1.34375 -0.671875,1.671875 -0.109375,0.109375 -0.109375,0.125 -0.109375,0.15625 0,0.078125 0.046875,0.109375 0.09375,0.109375 0.109375,0 0.921875,-0.765625 0.921875,-1.9375 z m 0,0"
               id="path82809"
               style="stroke:none" />
          </symbol>
          <symbol
             id="textext-df830bed-3"
             style="overflow:visible">
            <path
               d="m 4.84375,-3.796875 c 0.046875,-0.140625 0.046875,-0.15625 0.046875,-0.234375 0,-0.171875 -0.140625,-0.265625 -0.296875,-0.265625 -0.09375,0 -0.25,0.0625 -0.34375,0.203125 -0.015625,0.0625 -0.109375,0.359375 -0.140625,0.546875 -0.078125,0.25 -0.140625,0.53125 -0.203125,0.796875 l -0.453125,1.796875 c -0.03125,0.140625 -0.46875,0.84375 -1.125,0.84375 -0.5,0 -0.609375,-0.4375 -0.609375,-0.8125 C 1.71875,-1.375 1.890625,-2 2.21875,-2.875 2.375,-3.28125 2.421875,-3.390625 2.421875,-3.59375 c 0,-0.4375 -0.3125,-0.8125 -0.8125,-0.8125 -0.953125,0 -1.3125,1.453125 -1.3125,1.53125 0,0.109375 0.09375,0.109375 0.109375,0.109375 0.109375,0 0.109375,-0.03125 0.15625,-0.1875 0.28125,-0.9375 0.671875,-1.234375 1.015625,-1.234375 0.078125,0 0.25,0 0.25,0.3125 0,0.25 -0.109375,0.515625 -0.171875,0.703125 -0.40625,1.0625 -0.578125,1.625 -0.578125,2.09375 0,0.890625 0.625,1.1875 1.21875,1.1875 0.390625,0 0.71875,-0.171875 1,-0.453125 -0.125,0.515625 -0.25,1.015625 -0.640625,1.546875 -0.265625,0.328125 -0.640625,0.625 -1.09375,0.625 -0.140625,0 -0.59375,-0.03125 -0.765625,-0.421875 0.15625,0 0.296875,0 0.421875,-0.125 C 1.328125,1.203125 1.421875,1.0625 1.421875,0.875 1.421875,0.5625 1.15625,0.53125 1.0625,0.53125 0.828125,0.53125 0.5,0.6875 0.5,1.171875 c 0,0.5 0.4375,0.875 1.0625,0.875 1.015625,0 2.046875,-0.90625 2.328125,-2.03125 z m 0,0"
               id="path82812"
               style="stroke:none" />
          </symbol>
          <symbol
             id="textext-df830bed-4"
             style="overflow:visible">
            <path
               d="M 4.609375,-3.375 C 4.65625,-3.59375 4.75,-3.96875 4.75,-4.03125 c 0,-0.171875 -0.140625,-0.265625 -0.28125,-0.265625 -0.125,0 -0.296875,0.078125 -0.375,0.28125 -0.03125,0.0625 -0.5,1.96875 -0.5625,2.234375 C 3.453125,-1.484375 3.4375,-1.3125 3.4375,-1.125 c 0,0.109375 0,0.125 0.015625,0.171875 -0.234375,0.53125 -0.53125,0.84375 -0.921875,0.84375 -0.796875,0 -0.796875,-0.734375 -0.796875,-0.90625 0,-0.3125 0.046875,-0.703125 0.515625,-1.9375 0.109375,-0.296875 0.171875,-0.4375 0.171875,-0.640625 0,-0.4375 -0.328125,-0.8125 -0.8125,-0.8125 -0.953125,0 -1.3125,1.453125 -1.3125,1.53125 0,0.109375 0.09375,0.109375 0.109375,0.109375 0.109375,0 0.109375,-0.03125 0.15625,-0.1875 C 0.84375,-3.875 1.21875,-4.1875 1.578125,-4.1875 c 0.09375,0 0.25,0.015625 0.25,0.328125 0,0.25 -0.109375,0.53125 -0.1875,0.703125 -0.4375,1.171875 -0.546875,1.625 -0.546875,2.015625 0,0.90625 0.65625,1.25 1.40625,1.25 0.171875,0 0.640625,0 1.03125,-0.703125 0.265625,0.640625 0.953125,0.703125 1.25,0.703125 0.75,0 1.1875,-0.625 1.453125,-1.21875 0.328125,-0.78125 0.65625,-2.125 0.65625,-2.59375 0,-0.546875 -0.265625,-0.703125 -0.4375,-0.703125 -0.25,0 -0.5,0.265625 -0.5,0.484375 0,0.125 0.0625,0.1875 0.140625,0.265625 0.109375,0.109375 0.359375,0.359375 0.359375,0.84375 0,0.34375 -0.28125,1.3125 -0.546875,1.828125 -0.25,0.53125 -0.609375,0.875 -1.09375,0.875 -0.46875,0 -0.734375,-0.296875 -0.734375,-0.875 0,-0.265625 0.0625,-0.578125 0.109375,-0.71875 z m 0,0"
               id="path82815"
               style="stroke:none" />
          </symbol>
          <symbol
             id="textext-df830bed-5"
             style="overflow:visible">
            <path
               d="m 2.828125,-6.234375 c 0,-0.203125 -0.140625,-0.359375 -0.359375,-0.359375 -0.28125,0 -0.546875,0.265625 -0.546875,0.53125 0,0.1875 0.140625,0.359375 0.375,0.359375 0.234375,0 0.53125,-0.234375 0.53125,-0.53125 z m -0.75,3.75 c 0.109375,-0.28125 0.109375,-0.3125 0.21875,-0.578125 0.078125,-0.203125 0.125,-0.34375 0.125,-0.53125 0,-0.4375 -0.3125,-0.8125 -0.8125,-0.8125 -0.9375,0 -1.3125,1.453125 -1.3125,1.53125 0,0.109375 0.09375,0.109375 0.109375,0.109375 0.109375,0 0.109375,-0.03125 0.15625,-0.1875 0.28125,-0.9375 0.671875,-1.234375 1.015625,-1.234375 0.078125,0 0.25,0 0.25,0.3125 0,0.21875 -0.078125,0.421875 -0.109375,0.53125 -0.078125,0.25 -0.53125,1.40625 -0.6875,1.84375 -0.109375,0.25 -0.234375,0.578125 -0.234375,0.796875 0,0.46875 0.34375,0.8125 0.8125,0.8125 0.9375,0 1.3125,-1.4375 1.3125,-1.53125 0,-0.109375 -0.09375,-0.109375 -0.125,-0.109375 -0.09375,0 -0.09375,0.03125 -0.140625,0.1875 -0.1875,0.625 -0.515625,1.234375 -1.015625,1.234375 -0.171875,0 -0.25,-0.09375 -0.25,-0.328125 0,-0.25 0.0625,-0.390625 0.296875,-1 z m 0,0"
               id="path82818"
               style="stroke:none" />
          </symbol>
          <symbol
             id="textext-df830bed-6"
             style="overflow:visible">
            <path
               d="m 3.953125,-6.234375 c 0,-0.1875 -0.140625,-0.359375 -0.375,-0.359375 -0.234375,0 -0.53125,0.234375 -0.53125,0.53125 0,0.203125 0.140625,0.359375 0.375,0.359375 0.265625,0 0.53125,-0.265625 0.53125,-0.53125 z m -2,6.734375 c -0.1875,0.75 -0.671875,1.328125 -1.21875,1.328125 -0.0625,0 -0.21875,0 -0.390625,-0.09375 0.296875,-0.0625 0.4375,-0.328125 0.4375,-0.53125 0,-0.15625 -0.109375,-0.34375 -0.375,-0.34375 -0.25,0 -0.53125,0.203125 -0.53125,0.5625 0,0.40625 0.390625,0.625 0.875,0.625 0.703125,0 1.625,-0.53125 1.875,-1.515625 L 3.53125,-3.125 c 0.0625,-0.1875 0.0625,-0.328125 0.0625,-0.359375 0,-0.578125 -0.421875,-0.921875 -0.921875,-0.921875 -1.015625,0 -1.578125,1.453125 -1.578125,1.53125 0,0.109375 0.09375,0.109375 0.109375,0.109375 0.09375,0 0.109375,-0.015625 0.1875,-0.203125 0.25,-0.609375 0.703125,-1.21875 1.25,-1.21875 0.140625,0 0.3125,0.046875 0.3125,0.453125 0,0.234375 -0.015625,0.34375 -0.0625,0.515625 z m 0,0"
               id="path82821"
               style="stroke:none" />
          </symbol>
          <symbol
             id="textext-df830bed-7"
             style="overflow:visible">
            <path
               d="M 3.734375,-6.03125 C 3.8125,-6.390625 3.84375,-6.5 4.78125,-6.5 c 0.296875,0 0.375,0 0.375,-0.1875 0,-0.125 -0.109375,-0.125 -0.15625,-0.125 -0.328125,0 -1.140625,0.03125 -1.46875,0.03125 -0.296875,0 -1.03125,-0.03125 -1.328125,-0.03125 -0.0625,0 -0.1875,0 -0.1875,0.203125 0,0.109375 0.09375,0.109375 0.28125,0.109375 0.015625,0 0.203125,0 0.375,0.015625 0.171875,0.03125 0.265625,0.03125 0.265625,0.171875 0,0.03125 0,0.0625 -0.03125,0.1875 L 1.5625,-0.78125 c -0.09375,0.390625 -0.109375,0.46875 -0.90625,0.46875 -0.171875,0 -0.265625,0 -0.265625,0.203125 C 0.390625,0 0.484375,0 0.65625,0 l 4.625,0 C 5.515625,0 5.515625,0 5.578125,-0.171875 L 6.375,-2.328125 c 0.03125,-0.109375 0.03125,-0.125 0.03125,-0.140625 0,-0.03125 -0.03125,-0.109375 -0.109375,-0.109375 -0.09375,0 -0.109375,0.0625 -0.171875,0.21875 -0.34375,0.90625 -0.78125,2.046875 -2.5,2.046875 l -0.9375,0 c -0.140625,0 -0.171875,0 -0.21875,0 -0.109375,-0.015625 -0.140625,-0.03125 -0.140625,-0.109375 0,-0.03125 0,-0.046875 0.046875,-0.21875 z m 0,0"
               id="path82824"
               style="stroke:none" />
          </symbol>
          <symbol
             id="textext-df830bed-8"
             style="overflow:visible">
            <path
               d="m 0.875,-0.59375 c -0.03125,0.15625 -0.09375,0.390625 -0.09375,0.4375 0,0.171875 0.140625,0.265625 0.296875,0.265625 0.125,0 0.296875,-0.078125 0.375,-0.28125 0,-0.015625 0.125,-0.484375 0.1875,-0.734375 C 1.703125,-1.203125 1.78125,-1.5 1.859375,-1.796875 1.90625,-2.03125 1.96875,-2.25 2.03125,-2.46875 c 0.03125,-0.171875 0.109375,-0.46875 0.125,-0.5 0.140625,-0.3125 0.671875,-1.21875 1.625,-1.21875 0.453125,0 0.53125,0.375 0.53125,0.703125 0,0.609375 -0.484375,1.890625 -0.640625,2.3125 C 3.578125,-0.9375 3.5625,-0.8125 3.5625,-0.703125 c 0,0.46875 0.359375,0.8125 0.828125,0.8125 0.9375,0 1.296875,-1.453125 1.296875,-1.53125 0,-0.109375 -0.078125,-0.109375 -0.109375,-0.109375 -0.109375,0 -0.109375,0.03125 -0.15625,0.1875 -0.203125,0.671875 -0.53125,1.234375 -1.015625,1.234375 -0.171875,0 -0.234375,-0.09375 -0.234375,-0.328125 0,-0.25 0.078125,-0.484375 0.171875,-0.703125 0.1875,-0.53125 0.609375,-1.625 0.609375,-2.203125 0,-0.65625 -0.421875,-1.0625 -1.140625,-1.0625 -0.90625,0 -1.390625,0.640625 -1.5625,0.875 -0.046875,-0.5625 -0.453125,-0.875 -0.921875,-0.875 -0.453125,0 -0.640625,0.390625 -0.734375,0.5625 C 0.421875,-3.5 0.296875,-2.90625 0.296875,-2.875 c 0,0.109375 0.09375,0.109375 0.109375,0.109375 0.109375,0 0.109375,-0.015625 0.171875,-0.234375 0.171875,-0.703125 0.375,-1.1875 0.734375,-1.1875 0.1875,0 0.296875,0.125 0.296875,0.453125 0,0.21875 -0.03125,0.328125 -0.15625,0.84375 z m 0,0"
               id="path82827"
               style="stroke:none" />
          </symbol>
          <symbol
             id="textext-df830bed-9"
             style="overflow:visible">
            <path
               d="m 3.296875,2.390625 c 0,-0.03125 0,-0.046875 -0.171875,-0.21875 C 1.890625,0.921875 1.5625,-0.96875 1.5625,-2.5 c 0,-1.734375 0.375,-3.46875 1.609375,-4.703125 0.125,-0.125 0.125,-0.140625 0.125,-0.171875 0,-0.078125 -0.03125,-0.109375 -0.09375,-0.109375 -0.109375,0 -1,0.6875 -1.59375,1.953125 -0.5,1.09375 -0.625,2.203125 -0.625,3.03125 0,0.78125 0.109375,1.984375 0.65625,3.125 C 2.25,1.84375 3.09375,2.5 3.203125,2.5 c 0.0625,0 0.09375,-0.03125 0.09375,-0.109375 z m 0,0"
               id="path82830"
               style="stroke:none" />
          </symbol>
          <symbol
             id="textext-df830bed-10"
             style="overflow:visible">
            <path
               d="m 2.875,-2.5 c 0,-0.765625 -0.109375,-1.96875 -0.65625,-3.109375 -0.59375,-1.21875 -1.453125,-1.875 -1.546875,-1.875 -0.0625,0 -0.109375,0.046875 -0.109375,0.109375 0,0.03125 0,0.046875 0.1875,0.234375 0.984375,0.984375 1.546875,2.5625 1.546875,4.640625 0,1.71875 -0.359375,3.46875 -1.59375,4.71875 C 0.5625,2.34375 0.5625,2.359375 0.5625,2.390625 0.5625,2.453125 0.609375,2.5 0.671875,2.5 0.765625,2.5 1.671875,1.8125 2.25,0.546875 2.765625,-0.546875 2.875,-1.65625 2.875,-2.5 z m 0,0"
               id="path82833"
               style="stroke:none" />
          </symbol>
          <symbol
             id="textext-df830bed-11"
             style="overflow:visible">
            <path
               d="m 6.84375,-3.265625 c 0.15625,0 0.34375,0 0.34375,-0.1875 C 7.1875,-3.65625 7,-3.65625 6.859375,-3.65625 l -5.96875,0 c -0.140625,0 -0.328125,0 -0.328125,0.203125 0,0.1875 0.1875,0.1875 0.328125,0.1875 z m 0.015625,1.9375 c 0.140625,0 0.328125,0 0.328125,-0.203125 0,-0.1875 -0.1875,-0.1875 -0.34375,-0.1875 l -5.953125,0 c -0.140625,0 -0.328125,0 -0.328125,0.1875 0,0.203125 0.1875,0.203125 0.328125,0.203125 z m 0,0"
               id="path82836"
               style="stroke:none" />
          </symbol>
          <symbol
             id="textext-df830bed-12"
             style="overflow:visible">
            <path
               d="m 2.9375,-6.375 c 0,-0.25 0,-0.265625 -0.234375,-0.265625 C 2.078125,-6 1.203125,-6 0.890625,-6 l 0,0.3125 c 0.203125,0 0.78125,0 1.296875,-0.265625 l 0,5.171875 c 0,0.359375 -0.03125,0.46875 -0.921875,0.46875 l -0.3125,0 0,0.3125 c 0.34375,-0.03125 1.203125,-0.03125 1.609375,-0.03125 0.390625,0 1.265625,0 1.609375,0.03125 l 0,-0.3125 -0.3125,0 c -0.90625,0 -0.921875,-0.109375 -0.921875,-0.46875 z m 0,0"
               id="path82839"
               style="stroke:none" />
          </symbol>
          <symbol
             id="textext-df830bed-13"
             style="overflow:visible">
            <path
               d="m 4.078125,-2.296875 2.78125,0 C 7,-2.296875 7.1875,-2.296875 7.1875,-2.5 7.1875,-2.6875 7,-2.6875 6.859375,-2.6875 l -2.78125,0 0,-2.796875 c 0,-0.140625 0,-0.328125 -0.203125,-0.328125 -0.203125,0 -0.203125,0.1875 -0.203125,0.328125 l 0,2.796875 -2.78125,0 c -0.140625,0 -0.328125,0 -0.328125,0.1875 0,0.203125 0.1875,0.203125 0.328125,0.203125 l 2.78125,0 0,2.796875 c 0,0.140625 0,0.328125 0.203125,0.328125 0.203125,0 0.203125,-0.1875 0.203125,-0.328125 z m 0,0"
               id="path82842"
               style="stroke:none" />
          </symbol>
          <symbol
             id="textext-df830bed-14"
             style="overflow:visible">
            <path
               d="m 1.90625,-3.765625 c 0,-0.296875 -0.234375,-0.53125 -0.515625,-0.53125 -0.296875,0 -0.53125,0.234375 -0.53125,0.53125 0,0.28125 0.234375,0.53125 0.53125,0.53125 0.28125,0 0.515625,-0.25 0.515625,-0.53125 z m -0.1875,3.65625 c 0,0.28125 0,1.0625 -0.625,1.796875 -0.078125,0.078125 -0.078125,0.09375 -0.078125,0.125 0,0.078125 0.046875,0.109375 0.09375,0.109375 0.109375,0 0.828125,-0.796875 0.828125,-1.953125 0,-0.28125 -0.015625,-1.03125 -0.546875,-1.03125 -0.359375,0 -0.53125,0.28125 -0.53125,0.53125 C 0.859375,-0.265625 1.03125,0 1.390625,0 1.4375,0 1.453125,0 1.46875,-0.015625 c 0.0625,0 0.171875,-0.03125 0.25,-0.09375 z m 0,0"
               id="path82845"
               style="stroke:none" />
          </symbol>
          <symbol
             id="textext-df830bed-15"
             style="overflow:visible">
            <path
               d="m 0.84375,-0.4375 c -0.015625,0.09375 -0.0625,0.265625 -0.0625,0.28125 0,0.15625 0.125,0.21875 0.234375,0.21875 0.125,0 0.234375,-0.078125 0.28125,-0.140625 0.03125,-0.0625 0.078125,-0.296875 0.125,-0.4375 0.03125,-0.125 0.109375,-0.453125 0.140625,-0.625 0.046875,-0.15625 0.09375,-0.3125 0.125,-0.46875 0.078125,-0.28125 0.09375,-0.34375 0.296875,-0.625 C 2.171875,-2.515625 2.5,-2.875 3.03125,-2.875 c 0.390625,0 0.40625,0.359375 0.40625,0.484375 0,0.421875 -0.296875,1.1875 -0.40625,1.484375 -0.078125,0.203125 -0.109375,0.265625 -0.109375,0.375 0,0.375 0.296875,0.59375 0.65625,0.59375 0.703125,0 1,-0.953125 1,-1.0625 0,-0.09375 -0.078125,-0.09375 -0.109375,-0.09375 -0.09375,0 -0.09375,0.046875 -0.125,0.125 C 4.1875,-0.40625 3.875,-0.125 3.609375,-0.125 c -0.15625,0 -0.1875,-0.09375 -0.1875,-0.25 0,-0.15625 0.046875,-0.25 0.171875,-0.5625 0.078125,-0.21875 0.359375,-0.953125 0.359375,-1.34375 0,-0.671875 -0.53125,-0.796875 -0.90625,-0.796875 -0.578125,0 -0.96875,0.359375 -1.171875,0.640625 -0.046875,-0.484375 -0.453125,-0.640625 -0.75,-0.640625 -0.296875,0 -0.453125,0.21875 -0.546875,0.375 -0.15625,0.265625 -0.25,0.65625 -0.25,0.703125 0,0.078125 0.09375,0.078125 0.125,0.078125 0.09375,0 0.09375,-0.015625 0.140625,-0.203125 0.109375,-0.40625 0.25,-0.75 0.515625,-0.75 0.1875,0 0.234375,0.15625 0.234375,0.34375 0,0.125 -0.0625,0.390625 -0.125,0.578125 -0.046875,0.1875 -0.109375,0.46875 -0.140625,0.625 z m 0,0"
               id="path82848"
               style="stroke:none" />
          </symbol>
          <symbol
             id="textext-df830bed-16"
             style="overflow:visible">
            <path
               d="m 2.265625,-4.359375 c 0,-0.109375 -0.09375,-0.265625 -0.28125,-0.265625 -0.1875,0 -0.390625,0.1875 -0.390625,0.390625 0,0.109375 0.078125,0.265625 0.28125,0.265625 0.1875,0 0.390625,-0.203125 0.390625,-0.390625 z M 0.84375,-0.8125 c -0.03125,0.09375 -0.0625,0.171875 -0.0625,0.296875 0,0.328125 0.265625,0.578125 0.65625,0.578125 0.6875,0 1,-0.953125 1,-1.0625 0,-0.09375 -0.09375,-0.09375 -0.109375,-0.09375 -0.09375,0 -0.109375,0.046875 -0.140625,0.125 -0.15625,0.5625 -0.453125,0.84375 -0.734375,0.84375 -0.140625,0 -0.171875,-0.09375 -0.171875,-0.25 0,-0.15625 0.046875,-0.28125 0.109375,-0.4375 C 1.46875,-1 1.546875,-1.1875 1.609375,-1.375 1.671875,-1.546875 1.9375,-2.171875 1.953125,-2.265625 1.984375,-2.328125 2,-2.40625 2,-2.484375 2,-2.8125 1.71875,-3.078125 1.34375,-3.078125 0.640625,-3.078125 0.328125,-2.125 0.328125,-2 c 0,0.078125 0.09375,0.078125 0.125,0.078125 0.09375,0 0.09375,-0.03125 0.125,-0.109375 C 0.75,-2.625 1.0625,-2.875 1.3125,-2.875 c 0.109375,0 0.171875,0.046875 0.171875,0.234375 0,0.171875 -0.03125,0.265625 -0.203125,0.703125 z m 0,0"
               id="path82851"
               style="stroke:none" />
          </symbol>
          <symbol
             id="textext-df830bed-17"
             style="overflow:visible">
            <path
               d="M 3.0625,-4.359375 C 3.0625,-4.46875 2.96875,-4.625 2.78125,-4.625 c -0.203125,0 -0.390625,0.203125 -0.390625,0.390625 0,0.109375 0.078125,0.265625 0.28125,0.265625 0.1875,0 0.390625,-0.1875 0.390625,-0.390625 z M 1.578125,0.34375 C 1.46875,0.828125 1.09375,1.21875 0.6875,1.21875 c -0.09375,0 -0.171875,0 -0.25,-0.03125 0.171875,-0.09375 0.234375,-0.25 0.234375,-0.359375 0,-0.171875 -0.140625,-0.25 -0.28125,-0.25 C 0.1875,0.578125 0,0.765625 0,0.984375 c 0,0.265625 0.265625,0.4375 0.6875,0.4375 0.421875,0 1.234375,-0.25 1.453125,-1.09375 l 0.625,-2.5 c 0.015625,-0.078125 0.03125,-0.140625 0.03125,-0.25 0,-0.375 -0.328125,-0.65625 -0.734375,-0.65625 -0.78125,0 -1.21875,0.96875 -1.21875,1.078125 0,0.078125 0.09375,0.078125 0.109375,0.078125 0.078125,0 0.09375,-0.015625 0.140625,-0.125 C 1.265625,-2.453125 1.625,-2.875 2.03125,-2.875 c 0.171875,0 0.234375,0.109375 0.234375,0.34375 0,0.078125 0,0.171875 -0.015625,0.203125 z m 0,0"
               id="path82854"
               style="stroke:none" />
          </symbol>
          <symbol
             id="textext-df830bed-18"
             style="overflow:visible">
            <path
               d="m 12.625,13.953125 1.203125,-3.1875 -0.25,0 c -0.390625,1.03125 -1.453125,1.71875 -2.59375,2.015625 -0.203125,0.04687 -1.1875,0.3125 -3.09375,0.3125 l -6.015625,0 5.078125,-5.953125 C 7.015625,7.0625 7.03125,7.03125 7.03125,6.984375 c 0,-0.03125 0,-0.0625 -0.0625,-0.15625 l -4.640625,-6.34375 5.453125,0 c 1.34375,0 2.25,0.140625 2.34375,0.15625 0.53125,0.078125 1.40625,0.25 2.1875,0.75 0.25,0.15625 0.921875,0.609375 1.265625,1.40625 l 0.25,0 L 12.625,0 0.84375,0 c -0.234375,0 -0.25,0.015625 -0.28125,0.0625 0,0.03125 0,0.234375 0,0.34375 l 5.265625,7.203125 -5.15625,6.0625 C 0.5625,13.78125 0.5625,13.84375 0.5625,13.84375 c 0,0.109375 0.09375,0.109375 0.28125,0.109375 z m 0,0"
               id="path82857"
               style="stroke:none" />
          </symbol>
          <symbol
             id="textext-df830bed-19"
             style="overflow:visible">
            <path
               d="m 5.359375,-2.34375 c 0.09375,0 0.25,0 0.25,-0.171875 0,-0.171875 -0.15625,-0.171875 -0.25,-0.171875 l -4.609375,0 c -0.09375,0 -0.265625,0 -0.265625,0.171875 0,0.171875 0.15625,0.171875 0.265625,0.171875 z m 0,1.53125 c 0.09375,0 0.25,0 0.25,-0.15625 0,-0.1875 -0.15625,-0.1875 -0.25,-0.1875 l -4.609375,0 c -0.109375,0 -0.265625,0 -0.265625,0.1875 0,0.15625 0.171875,0.15625 0.265625,0.15625 z m 0,0"
               id="path82860"
               style="stroke:none" />
          </symbol>
          <symbol
             id="textext-df830bed-20"
             style="overflow:visible">
            <path
               d="m 3.21875,-1.578125 2.140625,0 c 0.09375,0 0.25,0 0.25,-0.15625 0,-0.1875 -0.15625,-0.1875 -0.25,-0.1875 l -2.140625,0 0,-2.140625 c 0,-0.078125 0,-0.25 -0.15625,-0.25 -0.171875,0 -0.171875,0.15625 -0.171875,0.25 l 0,2.140625 -2.140625,0 c -0.09375,0 -0.265625,0 -0.265625,0.171875 0,0.171875 0.15625,0.171875 0.265625,0.171875 l 2.140625,0 0,2.140625 c 0,0.09375 0,0.265625 0.15625,0.265625 0.171875,0 0.171875,-0.171875 0.171875,-0.265625 z m 0,0"
               id="path82863"
               style="stroke:none" />
          </symbol>
          <symbol
             id="textext-df830bed-21"
             style="overflow:visible">
            <path
               d="m 2.328125,-4.4375 c 0,-0.1875 0,-0.1875 -0.203125,-0.1875 -0.453125,0.4375 -1.078125,0.4375 -1.359375,0.4375 l 0,0.25 c 0.15625,0 0.625,0 1,-0.1875 l 0,3.546875 c 0,0.234375 0,0.328125 -0.6875,0.328125 l -0.265625,0 0,0.25 c 0.125,0 0.984375,-0.03125 1.234375,-0.03125 0.21875,0 1.09375,0.03125 1.25,0.03125 l 0,-0.25 -0.265625,0 c -0.703125,0 -0.703125,-0.09375 -0.703125,-0.328125 z m 0,0"
               id="path82866"
               style="stroke:none" />
          </symbol>
          <symbol
             id="textext-df830bed-22"
             style="overflow:visible">
            <path
               d="m 5.203125,-1.578125 c 0.09375,0 0.265625,0 0.265625,-0.15625 0,-0.1875 -0.171875,-0.1875 -0.265625,-0.1875 l -4.1875,0 c -0.109375,0 -0.265625,0 -0.265625,0.1875 0,0.15625 0.171875,0.15625 0.265625,0.15625 z m 0,0"
               id="path82869"
               style="stroke:none" />
          </symbol>
          <symbol
             id="textext-df830bed-23"
             style="overflow:visible">
            <path
               d="m 3.875,2.5 c 0.15625,0 0.328125,0 0.328125,-0.203125 C 4.203125,2.09375 4.03125,2.09375 3.875,2.09375 l -1.734375,0 0,-9.234375 c 0,-0.140625 0,-0.34375 -0.203125,-0.34375 -0.203125,0 -0.203125,0.203125 -0.203125,0.34375 l 0,9.296875 C 1.734375,2.453125 1.78125,2.5 2.078125,2.5 z m 0,0"
               id="path82872"
               style="stroke:none" />
          </symbol>
          <symbol
             id="textext-df830bed-24"
             style="overflow:visible">
            <path
               d="m 2.6875,-7.140625 c 0,-0.140625 0,-0.34375 -0.203125,-0.34375 -0.203125,0 -0.203125,0.203125 -0.203125,0.34375 l 0,9.234375 -1.75,0 c -0.140625,0 -0.328125,0 -0.328125,0.203125 C 0.203125,2.5 0.390625,2.5 0.53125,2.5 l 1.828125,0 C 2.640625,2.5 2.6875,2.453125 2.6875,2.15625 z m 0,0"
               id="path82875"
               style="stroke:none" />
          </symbol>
          <symbol
             id="textext-df830bed-25"
             style="overflow:visible">
            <path
               d="m 1.90625,-2.5 c 0,-0.28125 -0.234375,-0.515625 -0.515625,-0.515625 -0.296875,0 -0.53125,0.234375 -0.53125,0.515625 0,0.296875 0.234375,0.53125 0.53125,0.53125 0.28125,0 0.515625,-0.234375 0.515625,-0.53125 z m 0,0"
               id="path82878"
               style="stroke:none" />
          </symbol>
          <symbol
             id="textext-df830bed-26"
             style="overflow:visible">
            <path
               d="m 6.59375,-2.296875 c 0.140625,0 0.328125,0 0.328125,-0.203125 0,-0.1875 -0.1875,-0.1875 -0.328125,-0.1875 l -5.4375,0 c -0.140625,0 -0.328125,0 -0.328125,0.1875 0,0.203125 0.1875,0.203125 0.328125,0.203125 z m 0,0"
               id="path82881"
               style="stroke:none" />
          </symbol>
        </g>
      </defs>
      <g
         id="textext-df830bed-27">
        <g
           id="g82884"
           style="fill:#000000;fill-opacity:1">
          <use
             id="use82886"
             x="223.43201"
             y="141.254"
             width="744.09448"
             height="1052.3622"
             xlink:href="#textext-df830bed-0" />
        </g>
        <g
           id="g82888"
           style="fill:#000000;fill-opacity:1">
          <use
             id="use82890"
             x="229.382"
             y="141.254"
             width="744.09448"
             height="1052.3622"
             xlink:href="#textext-df830bed-9" />
        </g>
        <g
           id="g82892"
           style="fill:#000000;fill-opacity:1">
          <use
             id="use82894"
             x="233.256"
             y="141.254"
             width="744.09448"
             height="1052.3622"
             xlink:href="#textext-df830bed-1" />
          <use
             id="use82896"
             x="238.94963"
             y="141.254"
             width="744.09448"
             height="1052.3622"
             xlink:href="#textext-df830bed-2" />
        </g>
        <g
           id="g82898"
           style="fill:#000000;fill-opacity:1">
          <use
             id="use82900"
             x="243.381"
             y="141.254"
             width="744.09448"
             height="1052.3622"
             xlink:href="#textext-df830bed-3" />
        </g>
        <g
           id="g82902"
           style="fill:#000000;fill-opacity:1">
          <use
             id="use82904"
             x="248.62"
             y="141.254"
             width="744.09448"
             height="1052.3622"
             xlink:href="#textext-df830bed-10" />
        </g>
        <g
           id="g82906"
           style="fill:#000000;fill-opacity:1">
          <use
             id="use82908"
             x="255.26405"
             y="141.254"
             width="744.09448"
             height="1052.3622"
             xlink:href="#textext-df830bed-11" />
        </g>
        <g
           id="g82910"
           style="fill:#000000;fill-opacity:1">
          <use
             id="use82912"
             x="268.18301"
             y="134.515"
             width="744.09448"
             height="1052.3622"
             xlink:href="#textext-df830bed-12" />
        </g>
        <path
           d="m -3.4375e-4,-0.001625 7.40234375,0"
           transform="matrix(1,0,0,-1,266.973,138.764)"
           id="path82914"
           style="fill:none;stroke:#000000;stroke-width:0.398;stroke-linecap:butt;stroke-linejoin:miter;stroke-miterlimit:10;stroke-opacity:1" />
        <g
           id="g82916"
           style="fill:#000000;fill-opacity:1">
          <use
             id="use82918"
             x="266.97299"
             y="148.088"
             width="744.09448"
             height="1052.3622"
             xlink:href="#textext-df830bed-4" />
        </g>
        <g
           id="g82920"
           style="fill:#000000;fill-opacity:1">
          <use
             id="use82922"
             x="288.194"
             y="128.80099"
             width="744.09448"
             height="1052.3622"
             xlink:href="#textext-df830bed-15" />
        </g>
        <g
           id="g82924"
           style="fill:#000000;fill-opacity:1">
          <use
             id="use82926"
             x="283.461"
             y="131.78999"
             width="744.09448"
             height="1052.3622"
             xlink:href="#textext-df830bed-18" />
        </g>
        <g
           id="g82928"
           style="fill:#000000;fill-opacity:1">
          <use
             id="use82930"
             x="275.569"
             y="153.009"
             width="744.09448"
             height="1052.3622"
             xlink:href="#textext-df830bed-16" />
        </g>
        <g
           id="g82932"
           style="fill:#000000;fill-opacity:1">
          <use
             id="use82934"
             x="278.388"
             y="153.009"
             width="744.09448"
             height="1052.3622"
             xlink:href="#textext-df830bed-19" />
        </g>
        <g
           id="g82936"
           style="fill:#000000;fill-opacity:1">
          <use
             id="use82938"
             x="284.504"
             y="153.009"
             width="744.09448"
             height="1052.3622"
             xlink:href="#textext-df830bed-22" />
        </g>
        <g
           id="g82940"
           style="fill:#000000;fill-opacity:1">
          <use
             id="use82942"
             x="290.73099"
             y="153.009"
             width="744.09448"
             height="1052.3622"
             xlink:href="#textext-df830bed-15" />
        </g>
        <g
           id="g82944"
           style="fill:#000000;fill-opacity:1">
          <use
             id="use82946"
             x="295.65601"
             y="153.009"
             width="744.09448"
             height="1052.3622"
             xlink:href="#textext-df830bed-20" />
          <use
             id="use82948"
             x="301.77203"
             y="153.009"
             width="744.09448"
             height="1052.3622"
             xlink:href="#textext-df830bed-21" />
        </g>
        <g
           id="g82950"
           style="fill:#000000;fill-opacity:1">
          <use
             id="use82952"
             x="320.46799"
             y="128.80099"
             width="744.09448"
             height="1052.3622"
             xlink:href="#textext-df830bed-15" />
        </g>
        <g
           id="g82954"
           style="fill:#000000;fill-opacity:1">
          <use
             id="use82956"
             x="315.73499"
             y="131.78999"
             width="744.09448"
             height="1052.3622"
             xlink:href="#textext-df830bed-18" />
        </g>
        <g
           id="g82958"
           style="fill:#000000;fill-opacity:1">
          <use
             id="use82960"
             x="307.40302"
             y="153.009"
             width="744.09448"
             height="1052.3622"
             xlink:href="#textext-df830bed-17" />
        </g>
        <g
           id="g82962"
           style="fill:#000000;fill-opacity:1">
          <use
             id="use82964"
             x="311.103"
             y="153.009"
             width="744.09448"
             height="1052.3622"
             xlink:href="#textext-df830bed-19" />
        </g>
        <g
           id="g82966"
           style="fill:#000000;fill-opacity:1">
          <use
             id="use82968"
             x="317.21899"
             y="153.009"
             width="744.09448"
             height="1052.3622"
             xlink:href="#textext-df830bed-22" />
        </g>
        <g
           id="g82970"
           style="fill:#000000;fill-opacity:1">
          <use
             id="use82972"
             x="323.44601"
             y="153.009"
             width="744.09448"
             height="1052.3622"
             xlink:href="#textext-df830bed-15" />
        </g>
        <g
           id="g82974"
           style="fill:#000000;fill-opacity:1">
          <use
             id="use82976"
             x="328.37"
             y="153.009"
             width="744.09448"
             height="1052.3622"
             xlink:href="#textext-df830bed-20" />
          <use
             id="use82978"
             x="334.48602"
             y="153.009"
             width="744.09448"
             height="1052.3622"
             xlink:href="#textext-df830bed-21" />
        </g>
        <g
           id="g82980"
           style="fill:#000000;fill-opacity:1">
          <use
             id="use82982"
             x="340.11801"
             y="141.254"
             width="744.09448"
             height="1052.3622"
             xlink:href="#textext-df830bed-0" />
        </g>
        <g
           id="g82984"
           style="fill:#000000;fill-opacity:1">
          <use
             id="use82986"
             x="346.06799"
             y="141.254"
             width="744.09448"
             height="1052.3622"
             xlink:href="#textext-df830bed-9" />
        </g>
        <g
           id="g82988"
           style="fill:#000000;fill-opacity:1">
          <use
             id="use82990"
             x="349.94199"
             y="141.254"
             width="744.09448"
             height="1052.3622"
             xlink:href="#textext-df830bed-23" />
        </g>
        <g
           id="g82992"
           style="fill:#000000;fill-opacity:1">
          <use
             id="use82994"
             x="354.37"
             y="141.254"
             width="744.09448"
             height="1052.3622"
             xlink:href="#textext-df830bed-1" />
        </g>
        <g
           id="g82996"
           style="fill:#000000;fill-opacity:1">
          <use
             id="use82998"
             x="360.064"
             y="141.254"
             width="744.09448"
             height="1052.3622"
             xlink:href="#textext-df830bed-24" />
        </g>
        <g
           id="g83000"
           style="fill:#000000;fill-opacity:1">
          <use
             id="use83002"
             x="366.70599"
             y="141.254"
             width="744.09448"
             height="1052.3622"
             xlink:href="#textext-df830bed-13" />
        </g>
        <g
           id="g83004"
           style="fill:#000000;fill-opacity:1">
          <use
             id="use83006"
             x="376.668"
             y="141.254"
             width="744.09448"
             height="1052.3622"
             xlink:href="#textext-df830bed-5" />
          <use
             id="use83008"
             x="380.10013"
             y="141.254"
             width="744.09448"
             height="1052.3622"
             xlink:href="#textext-df830bed-2" />
        </g>
        <g
           id="g83010"
           style="fill:#000000;fill-opacity:1">
          <use
             id="use83012"
             x="384.52802"
             y="141.254"
             width="744.09448"
             height="1052.3622"
             xlink:href="#textext-df830bed-23" />
        </g>
        <g
           id="g83014"
           style="fill:#000000;fill-opacity:1">
          <use
             id="use83016"
             x="388.95599"
             y="141.254"
             width="744.09448"
             height="1052.3622"
             xlink:href="#textext-df830bed-3" />
        </g>
        <g
           id="g83018"
           style="fill:#000000;fill-opacity:1">
          <use
             id="use83020"
             x="394.198"
             y="141.254"
             width="744.09448"
             height="1052.3622"
             xlink:href="#textext-df830bed-24" />
        </g>
        <g
           id="g83022"
           style="fill:#000000;fill-opacity:1">
          <use
             id="use83024"
             x="400.84"
             y="141.254"
             width="744.09448"
             height="1052.3622"
             xlink:href="#textext-df830bed-13" />
        </g>
        <g
           id="g83026"
           style="fill:#000000;fill-opacity:1">
          <use
             id="use83028"
             x="410.80301"
             y="141.254"
             width="744.09448"
             height="1052.3622"
             xlink:href="#textext-df830bed-6" />
        </g>
        <g
           id="g83030"
           style="fill:#000000;fill-opacity:1">
          <use
             id="use83032"
             x="415.47601"
             y="141.254"
             width="744.09448"
             height="1052.3622"
             xlink:href="#textext-df830bed-10" />
        </g>
        <g
           id="g83034"
           style="fill:#000000;fill-opacity:1">
          <use
             id="use83036"
             x="421.564"
             y="141.254"
             width="744.09448"
             height="1052.3622"
             xlink:href="#textext-df830bed-25" />
        </g>
        <g
           id="g83038"
           style="fill:#000000;fill-opacity:1">
          <use
             id="use83040"
             x="426.54501"
             y="141.254"
             width="744.09448"
             height="1052.3622"
             xlink:href="#textext-df830bed-7" />
        </g>
        <g
           id="g83042"
           style="fill:#000000;fill-opacity:1">
          <use
             id="use83044"
             x="433.32501"
             y="141.254"
             width="744.09448"
             height="1052.3622"
             xlink:href="#textext-df830bed-9" />
        </g>
        <g
           id="g83046"
           style="fill:#000000;fill-opacity:1">
          <use
             id="use83048"
             x="437.20001"
             y="141.254"
             width="744.09448"
             height="1052.3622"
             xlink:href="#textext-df830bed-5" />
        </g>
        <g
           id="g83050"
           style="fill:#000000;fill-opacity:1">
          <use
             id="use83052"
             x="442.84601"
             y="141.254"
             width="744.09448"
             height="1052.3622"
             xlink:href="#textext-df830bed-26" />
        </g>
        <g
           id="g83054"
           style="fill:#000000;fill-opacity:1">
          <use
             id="use83056"
             x="452.80801"
             y="141.254"
             width="744.09448"
             height="1052.3622"
             xlink:href="#textext-df830bed-1" />
        </g>
        <g
           id="g83058"
           style="fill:#000000;fill-opacity:1">
          <use
             id="use83060"
             x="460.716"
             y="141.254"
             width="744.09448"
             height="1052.3622"
             xlink:href="#textext-df830bed-13" />
        </g>
        <g
           id="g83062"
           style="fill:#000000;fill-opacity:1">
          <use
             id="use83064"
             x="470.67899"
             y="141.254"
             width="744.09448"
             height="1052.3622"
             xlink:href="#textext-df830bed-23" />
        </g>
        <g
           id="g83066"
           style="fill:#000000;fill-opacity:1">
          <use
             id="use83068"
             x="475.10699"
             y="141.254"
             width="744.09448"
             height="1052.3622"
             xlink:href="#textext-df830bed-1" />
        </g>
        <g
           id="g83070"
           style="fill:#000000;fill-opacity:1">
          <use
             id="use83072"
             x="480.79999"
             y="141.254"
             width="744.09448"
             height="1052.3622"
             xlink:href="#textext-df830bed-24" />
        </g>
        <g
           id="g83074"
           style="fill:#000000;fill-opacity:1">
          <use
             id="use83076"
             x="485.228"
             y="141.254"
             width="744.09448"
             height="1052.3622"
             xlink:href="#textext-df830bed-14" />
        </g>
        <g
           id="g83078"
           style="fill:#000000;fill-opacity:1">
          <use
             id="use83080"
             x="489.65601"
             y="141.254"
             width="744.09448"
             height="1052.3622"
             xlink:href="#textext-df830bed-8" />
        </g>
        <g
           id="g83082"
           style="fill:#000000;fill-opacity:1">
          <use
             id="use83084"
             x="495.63599"
             y="141.254"
             width="744.09448"
             height="1052.3622"
             xlink:href="#textext-df830bed-10" />
        </g>
        <g
           id="g83086"
           style="fill:#000000;fill-opacity:1">
          <use
             id="use83088"
             x="501.724"
             y="141.254"
             width="744.09448"
             height="1052.3622"
             xlink:href="#textext-df830bed-25" />
        </g>
        <g
           id="g83090"
           style="fill:#000000;fill-opacity:1">
          <use
             id="use83092"
             x="506.70599"
             y="141.254"
             width="744.09448"
             height="1052.3622"
             xlink:href="#textext-df830bed-7" />
        </g>
        <g
           id="g83094"
           style="fill:#000000;fill-opacity:1">
          <use
             id="use83096"
             x="513.48602"
             y="141.254"
             width="744.09448"
             height="1052.3622"
             xlink:href="#textext-df830bed-9" />
        </g>
        <g
           id="g83098"
           style="fill:#000000;fill-opacity:1">
          <use
             id="use83100"
             x="517.35999"
             y="141.254"
             width="744.09448"
             height="1052.3622"
             xlink:href="#textext-df830bed-6" />
        </g>
        <g
           id="g83102"
           style="fill:#000000;fill-opacity:1">
          <use
             id="use83104"
             x="524.24701"
             y="141.254"
             width="744.09448"
             height="1052.3622"
             xlink:href="#textext-df830bed-26" />
        </g>
        <g
           id="g83106"
           style="fill:#000000;fill-opacity:1">
          <use
             id="use83108"
             x="534.21002"
             y="141.254"
             width="744.09448"
             height="1052.3622"
             xlink:href="#textext-df830bed-3" />
        </g>
        <g
           id="g83110"
           style="fill:#000000;fill-opacity:1">
          <use
             id="use83112"
             x="541.66498"
             y="141.254"
             width="744.09448"
             height="1052.3622"
             xlink:href="#textext-df830bed-13" />
        </g>
        <g
           id="g83114"
           style="fill:#000000;fill-opacity:1">
          <use
             id="use83116"
             x="551.62799"
             y="141.254"
             width="744.09448"
             height="1052.3622"
             xlink:href="#textext-df830bed-23" />
        </g>
        <g
           id="g83118"
           style="fill:#000000;fill-opacity:1">
          <use
             id="use83120"
             x="556.05603"
             y="141.254"
             width="744.09448"
             height="1052.3622"
             xlink:href="#textext-df830bed-3" />
        </g>
        <g
           id="g83122"
           style="fill:#000000;fill-opacity:1">
          <use
             id="use83124"
             x="561.29797"
             y="141.254"
             width="744.09448"
             height="1052.3622"
             xlink:href="#textext-df830bed-24" />
        </g>
        <g
           id="g83126"
           style="fill:#000000;fill-opacity:1">
          <use
             id="use83128"
             x="565.72601"
             y="141.254"
             width="744.09448"
             height="1052.3622"
             xlink:href="#textext-df830bed-14" />
        </g>
        <g
           id="g83130"
           style="fill:#000000;fill-opacity:1">
          <use
             id="use83132"
             x="570.15302"
             y="141.254"
             width="744.09448"
             height="1052.3622"
             xlink:href="#textext-df830bed-8" />
        </g>
        <g
           id="g83134"
           style="fill:#000000;fill-opacity:1">
          <use
             id="use83136"
             x="576.133"
             y="141.254"
             width="744.09448"
             height="1052.3622"
             xlink:href="#textext-df830bed-10" />
        </g>
      </g>
    </g>
  </g>
</svg>
