<?xml version="1.0" encoding="UTF-8" standalone="no"?>
<!-- Created with Inkscape (http://www.inkscape.org/) -->

<svg
   xmlns:dc="http://purl.org/dc/elements/1.1/"
   xmlns:cc="http://creativecommons.org/ns#"
   xmlns:rdf="http://www.w3.org/1999/02/22-rdf-syntax-ns#"
   xmlns:svg="http://www.w3.org/2000/svg"
   xmlns="http://www.w3.org/2000/svg"
   xmlns:xlink="http://www.w3.org/1999/xlink"
   version="1.1"
   width="782"
   height="96"
   id="svg27577">
  <defs
     id="defs27579" />
  <metadata
     id="metadata27582">
    <rdf:RDF>
      <cc:Work
         rdf:about="">
        <dc:format>image/svg+xml</dc:format>
        <dc:type
           rdf:resource="http://purl.org/dc/dcmitype/StillImage" />
        <dc:title></dc:title>
      </cc:Work>
    </rdf:RDF>
  </metadata>
  <g
     transform="translate(21.136266,-435.73771)"
     id="layer1">
    <g
       transform="matrix(2,0,0,2,-468.66227,186.29434)"
       id="g26394">
      <defs
         id="defs26396">
        <g
           id="g26398">
          <symbol
             id="textext-9961a2b2-0"
             style="overflow:visible">
            <path
               d="m 3.65625,-3.984375 0.859375,0 c 0.203125,0 0.296875,0 0.296875,-0.203125 0,-0.109375 -0.09375,-0.109375 -0.265625,-0.109375 l -0.828125,0 C 3.828125,-4.875 3.8125,-4.859375 3.921875,-5.4375 c 0.046875,-0.203125 0.1875,-0.90625 0.25,-1.03125 0.078125,-0.1875 0.25,-0.34375 0.46875,-0.34375 0.03125,0 0.296875,0 0.484375,0.1875 -0.4375,0.03125 -0.546875,0.390625 -0.546875,0.53125 0,0.234375 0.1875,0.359375 0.375,0.359375 C 5.21875,-5.734375 5.5,-5.96875 5.5,-6.34375 c 0,-0.453125 -0.453125,-0.6875 -0.859375,-0.6875 -0.34375,0 -0.96875,0.1875 -1.265625,1.171875 -0.0625,0.203125 -0.09375,0.3125 -0.328125,1.5625 l -0.6875,0 c -0.203125,0 -0.3125,0 -0.3125,0.1875 0,0.125 0.09375,0.125 0.28125,0.125 l 0.65625,0 -0.734375,3.9375 c -0.1875,0.96875 -0.359375,1.875 -0.875,1.875 -0.046875,0 -0.28125,0 -0.484375,-0.1875 C 1.359375,1.609375 1.453125,1.25 1.453125,1.109375 1.453125,0.875 1.265625,0.75 1.078125,0.75 0.8125,0.75 0.53125,0.984375 0.53125,1.359375 c 0,0.4375 0.4375,0.6875 0.84375,0.6875 0.546875,0 0.953125,-0.59375 1.125,-0.96875 0.328125,-0.625 0.546875,-1.828125 0.5625,-1.90625 z m 0,0"
               id="path26401"
               style="stroke:none" />
          </symbol>
          <symbol
             id="textext-9961a2b2-1"
             style="overflow:visible">
            <path
               d="M 3.328125,-3.015625 C 3.390625,-3.265625 3.625,-4.1875 4.3125,-4.1875 c 0.046875,0 0.296875,0 0.5,0.125 C 4.53125,-4 4.34375,-3.765625 4.34375,-3.515625 c 0,0.15625 0.109375,0.34375 0.375,0.34375 0.21875,0 0.53125,-0.171875 0.53125,-0.578125 0,-0.515625 -0.578125,-0.65625 -0.921875,-0.65625 -0.578125,0 -0.921875,0.53125 -1.046875,0.75 -0.25,-0.65625 -0.78125,-0.75 -1.078125,-0.75 -1.03125,0 -1.609375,1.28125 -1.609375,1.53125 0,0.109375 0.109375,0.109375 0.125,0.109375 0.078125,0 0.109375,-0.03125 0.125,-0.109375 0.34375,-1.0625 1,-1.3125 1.34375,-1.3125 0.1875,0 0.53125,0.09375 0.53125,0.671875 0,0.3125 -0.171875,0.96875 -0.53125,2.375 -0.15625,0.609375 -0.515625,1.03125 -0.953125,1.03125 -0.0625,0 -0.28125,0 -0.5,-0.125 0.25,-0.0625 0.46875,-0.265625 0.46875,-0.546875 0,-0.265625 -0.21875,-0.34375 -0.359375,-0.34375 -0.3125,0 -0.546875,0.25 -0.546875,0.578125 0,0.453125 0.484375,0.65625 0.921875,0.65625 0.671875,0 1.03125,-0.703125 1.046875,-0.75 0.125,0.359375 0.484375,0.75 1.078125,0.75 1.03125,0 1.59375,-1.28125 1.59375,-1.53125 0,-0.109375 -0.078125,-0.109375 -0.109375,-0.109375 -0.09375,0 -0.109375,0.046875 -0.140625,0.109375 -0.328125,1.078125 -1,1.3125 -1.3125,1.3125 -0.390625,0 -0.546875,-0.3125 -0.546875,-0.65625 0,-0.21875 0.046875,-0.4375 0.15625,-0.875 z m 0,0"
               id="path26404"
               style="stroke:none" />
          </symbol>
          <symbol
             id="textext-9961a2b2-2"
             style="overflow:visible">
            <path
               d="M 1.59375,-0.78125 C 1.5,-0.390625 1.46875,-0.3125 0.6875,-0.3125 c -0.171875,0 -0.265625,0 -0.265625,0.203125 C 0.421875,0 0.515625,0 0.6875,0 L 4.25,0 C 5.828125,0 7,-1.171875 7,-2.15625 7,-2.875 6.421875,-3.453125 5.453125,-3.5625 6.484375,-3.75 7.53125,-4.484375 7.53125,-5.4375 c 0,-0.734375 -0.65625,-1.375 -1.84375,-1.375 l -3.359375,0 c -0.1875,0 -0.28125,0 -0.28125,0.203125 0,0.109375 0.09375,0.109375 0.28125,0.109375 0.015625,0 0.203125,0 0.375,0.015625 0.171875,0.03125 0.265625,0.03125 0.265625,0.171875 0,0.03125 -0.015625,0.0625 -0.03125,0.1875 z m 1.5,-2.875 0.625,-2.46875 C 3.8125,-6.46875 3.828125,-6.5 4.25,-6.5 l 1.296875,0 c 0.875,0 1.078125,0.59375 1.078125,1.03125 0,0.875 -0.859375,1.8125 -2.0625,1.8125 z m -0.4375,3.34375 c -0.140625,0 -0.15625,0 -0.21875,0 -0.109375,-0.015625 -0.140625,-0.03125 -0.140625,-0.109375 0,-0.03125 0,-0.046875 0.0625,-0.21875 l 0.6875,-2.78125 1.875,0 c 0.953125,0 1.15625,0.734375 1.15625,1.15625 C 6.078125,-1.28125 5.1875,-0.3125 4,-0.3125 z m 0,0"
               id="path26407"
               style="stroke:none" />
          </symbol>
          <symbol
             id="textext-9961a2b2-3"
             style="overflow:visible">
            <path
               d="m 2.03125,-0.015625 c 0,-0.65625 -0.25,-1.046875 -0.640625,-1.046875 -0.328125,0 -0.53125,0.25 -0.53125,0.53125 C 0.859375,-0.265625 1.0625,0 1.390625,0 1.5,0 1.640625,-0.046875 1.734375,-0.125 1.765625,-0.15625 1.78125,-0.15625 1.78125,-0.15625 c 0.015625,0 0.015625,0 0.015625,0.140625 0,0.75 -0.34375,1.34375 -0.671875,1.671875 -0.109375,0.109375 -0.109375,0.125 -0.109375,0.15625 0,0.078125 0.046875,0.109375 0.09375,0.109375 0.109375,0 0.921875,-0.765625 0.921875,-1.9375 z m 0,0"
               id="path26410"
               style="stroke:none" />
          </symbol>
          <symbol
             id="textext-9961a2b2-4"
             style="overflow:visible">
            <path
               d="m 7.578125,-6.921875 c 0,-0.03125 -0.015625,-0.109375 -0.109375,-0.109375 -0.03125,0 -0.046875,0.015625 -0.15625,0.125 L 6.625,-6.140625 C 6.53125,-6.28125 6.078125,-7.03125 4.96875,-7.03125 2.734375,-7.03125 0.5,-4.828125 0.5,-2.515625 0.5,-0.875 1.671875,0.21875 3.203125,0.21875 c 0.859375,0 1.625,-0.390625 2.15625,-0.859375 0.921875,-0.8125 1.09375,-1.71875 1.09375,-1.75 C 6.453125,-2.5 6.34375,-2.5 6.328125,-2.5 c -0.0625,0 -0.109375,0.03125 -0.125,0.109375 -0.09375,0.28125 -0.328125,1 -1.015625,1.578125 -0.6875,0.546875 -1.3125,0.71875 -1.828125,0.71875 -0.890625,0 -1.953125,-0.515625 -1.953125,-2.0625 0,-0.578125 0.203125,-2.1875 1.203125,-3.359375 0.609375,-0.703125 1.546875,-1.203125 2.4375,-1.203125 1.015625,0 1.609375,0.765625 1.609375,1.921875 0,0.40625 -0.03125,0.40625 -0.03125,0.515625 0,0.09375 0.109375,0.09375 0.140625,0.09375 0.125,0 0.125,-0.015625 0.1875,-0.203125 z m 0,0"
               id="path26413"
               style="stroke:none" />
          </symbol>
          <symbol
             id="textext-9961a2b2-5"
             style="overflow:visible">
            <path
               d="m 6.734375,-4.96875 c 0.109375,-0.0625 0.1875,-0.109375 0.1875,-0.21875 0,-0.109375 -0.09375,-0.203125 -0.203125,-0.203125 -0.03125,0 -0.046875,0 -0.171875,0.078125 l -5.53125,2.59375 c -0.109375,0.0625 -0.1875,0.109375 -0.1875,0.21875 0,0.125 0.078125,0.171875 0.1875,0.234375 l 5.53125,2.59375 C 6.671875,0.40625 6.6875,0.40625 6.71875,0.40625 c 0.109375,0 0.203125,-0.09375 0.203125,-0.203125 0,-0.109375 -0.078125,-0.15625 -0.1875,-0.21875 L 1.5,-2.5 z m 0,0"
               id="path26416"
               style="stroke:none" />
          </symbol>
          <symbol
             id="textext-9961a2b2-6"
             style="overflow:visible">
            <path
               d="m 3.296875,2.390625 c 0,-0.03125 0,-0.046875 -0.171875,-0.21875 C 1.890625,0.921875 1.5625,-0.96875 1.5625,-2.5 c 0,-1.734375 0.375,-3.46875 1.609375,-4.703125 0.125,-0.125 0.125,-0.140625 0.125,-0.171875 0,-0.078125 -0.03125,-0.109375 -0.09375,-0.109375 -0.109375,0 -1,0.6875 -1.59375,1.953125 -0.5,1.09375 -0.625,2.203125 -0.625,3.03125 0,0.78125 0.109375,1.984375 0.65625,3.125 C 2.25,1.84375 3.09375,2.5 3.203125,2.5 c 0.0625,0 0.09375,-0.03125 0.09375,-0.109375 z m 0,0"
               id="path26419"
               style="stroke:none" />
          </symbol>
          <symbol
             id="textext-9961a2b2-7"
             style="overflow:visible">
            <path
               d="m 1.90625,-3.765625 c 0,-0.296875 -0.234375,-0.53125 -0.515625,-0.53125 -0.296875,0 -0.53125,0.234375 -0.53125,0.53125 0,0.28125 0.234375,0.53125 0.53125,0.53125 0.28125,0 0.515625,-0.25 0.515625,-0.53125 z m -0.1875,3.65625 c 0,0.28125 0,1.0625 -0.625,1.796875 -0.078125,0.078125 -0.078125,0.09375 -0.078125,0.125 0,0.078125 0.046875,0.109375 0.09375,0.109375 0.109375,0 0.828125,-0.796875 0.828125,-1.953125 0,-0.28125 -0.015625,-1.03125 -0.546875,-1.03125 -0.359375,0 -0.53125,0.28125 -0.53125,0.53125 C 0.859375,-0.265625 1.03125,0 1.390625,0 1.4375,0 1.453125,0 1.46875,-0.015625 c 0.0625,0 0.171875,-0.03125 0.25,-0.09375 z m 0,0"
               id="path26422"
               style="stroke:none" />
          </symbol>
          <symbol
             id="textext-9961a2b2-8"
             style="overflow:visible">
            <path
               d="m 2.875,-2.5 c 0,-0.765625 -0.109375,-1.96875 -0.65625,-3.109375 -0.59375,-1.21875 -1.453125,-1.875 -1.546875,-1.875 -0.0625,0 -0.109375,0.046875 -0.109375,0.109375 0,0.03125 0,0.046875 0.1875,0.234375 0.984375,0.984375 1.546875,2.5625 1.546875,4.640625 0,1.71875 -0.359375,3.46875 -1.59375,4.71875 C 0.5625,2.34375 0.5625,2.359375 0.5625,2.390625 0.5625,2.453125 0.609375,2.5 0.671875,2.5 0.765625,2.5 1.671875,1.8125 2.25,0.546875 2.765625,-0.546875 2.875,-1.65625 2.875,-2.5 z m 0,0"
               id="path26425"
               style="stroke:none" />
          </symbol>
          <symbol
             id="textext-9961a2b2-9"
             style="overflow:visible">
            <path
               d="m 6.84375,-3.265625 c 0.15625,0 0.34375,0 0.34375,-0.1875 C 7.1875,-3.65625 7,-3.65625 6.859375,-3.65625 l -5.96875,0 c -0.140625,0 -0.328125,0 -0.328125,0.203125 0,0.1875 0.1875,0.1875 0.328125,0.1875 z m 0.015625,1.9375 c 0.140625,0 0.328125,0 0.328125,-0.203125 0,-0.1875 -0.1875,-0.1875 -0.34375,-0.1875 l -5.953125,0 c -0.140625,0 -0.328125,0 -0.328125,0.1875 0,0.203125 0.1875,0.203125 0.328125,0.203125 z m 0,0"
               id="path26428"
               style="stroke:none" />
          </symbol>
          <symbol
             id="textext-9961a2b2-10"
             style="overflow:visible">
            <path
               d="m 2.9375,-6.375 c 0,-0.25 0,-0.265625 -0.234375,-0.265625 C 2.078125,-6 1.203125,-6 0.890625,-6 l 0,0.3125 c 0.203125,0 0.78125,0 1.296875,-0.265625 l 0,5.171875 c 0,0.359375 -0.03125,0.46875 -0.921875,0.46875 l -0.3125,0 0,0.3125 c 0.34375,-0.03125 1.203125,-0.03125 1.609375,-0.03125 0.390625,0 1.265625,0 1.609375,0.03125 l 0,-0.3125 -0.3125,0 c -0.90625,0 -0.921875,-0.109375 -0.921875,-0.46875 z m 0,0"
               id="path26431"
               style="stroke:none" />
          </symbol>
          <symbol
             id="textext-9961a2b2-11"
             style="overflow:visible">
            <path
               d="m 1.3125,-3.265625 0,-0.25 c 0,-2.515625 1.234375,-2.875 1.75,-2.875 0.234375,0 0.65625,0.0625 0.875,0.40625 -0.15625,0 -0.546875,0 -0.546875,0.4375 0,0.3125 0.234375,0.46875 0.453125,0.46875 0.15625,0 0.46875,-0.09375 0.46875,-0.484375 0,-0.59375 -0.4375,-1.078125 -1.265625,-1.078125 -1.28125,0 -2.625,1.28125 -2.625,3.484375 0,2.671875 1.15625,3.375 2.078125,3.375 1.109375,0 2.0625,-0.9375 2.0625,-2.25 0,-1.265625 -0.890625,-2.21875 -2,-2.21875 -0.671875,0 -1.046875,0.5 -1.25,0.984375 z M 2.5,-0.0625 c -0.625,0 -0.921875,-0.59375 -0.984375,-0.75 -0.1875,-0.46875 -0.1875,-1.265625 -0.1875,-1.4375 0,-0.78125 0.328125,-1.78125 1.21875,-1.78125 0.171875,0 0.625,0 0.9375,0.625 0.171875,0.359375 0.171875,0.875 0.171875,1.359375 0,0.484375 0,0.984375 -0.171875,1.34375 C 3.1875,-0.109375 2.734375,-0.0625 2.5,-0.0625 z m 0,0"
               id="path26434"
               style="stroke:none" />
          </symbol>
          <symbol
             id="textext-9961a2b2-12"
             style="overflow:visible">
            <path
               d="m 4.46875,-1.734375 -0.234375,0 C 4.171875,-1.4375 4.109375,-1 4,-0.84375 3.9375,-0.765625 3.28125,-0.765625 3.0625,-0.765625 l -1.796875,0 1.0625,-1.03125 c 1.546875,-1.375 2.140625,-1.90625 2.140625,-2.90625 0,-1.140625 -0.890625,-1.9375 -2.109375,-1.9375 -1.125,0 -1.859375,0.921875 -1.859375,1.8125 0,0.546875 0.5,0.546875 0.53125,0.546875 0.171875,0 0.515625,-0.109375 0.515625,-0.53125 0,-0.25 -0.1875,-0.515625 -0.53125,-0.515625 -0.078125,0 -0.09375,0 -0.125,0.015625 0.21875,-0.65625 0.765625,-1.015625 1.34375,-1.015625 0.90625,0 1.328125,0.8125 1.328125,1.625 C 3.5625,-3.90625 3.078125,-3.125 2.515625,-2.5 l -1.90625,2.125 C 0.5,-0.265625 0.5,-0.234375 0.5,0 l 3.703125,0 z m 0,0"
               id="path26437"
               style="stroke:none" />
          </symbol>
          <symbol
             id="textext-9961a2b2-13"
             style="overflow:visible">
            <path
               d="m 3.65625,-3.171875 0,0.328125 c 0,2.328125 -1.03125,2.78125 -1.609375,2.78125 -0.171875,0 -0.71875,-0.015625 -0.984375,-0.359375 0.4375,0 0.515625,-0.28125 0.515625,-0.453125 0,-0.3125 -0.234375,-0.453125 -0.453125,-0.453125 -0.15625,0 -0.453125,0.078125 -0.453125,0.46875 0,0.671875 0.53125,1.078125 1.375,1.078125 1.296875,0 2.515625,-1.359375 2.515625,-3.5 0,-2.6875 -1.15625,-3.359375 -2.046875,-3.359375 -0.546875,0 -1.03125,0.1875 -1.453125,0.625 -0.421875,0.453125 -0.640625,0.875 -0.640625,1.625 0,1.234375 0.875,2.21875 1.984375,2.21875 0.609375,0 1.015625,-0.421875 1.25,-1 z M 2.421875,-2.40625 c -0.15625,0 -0.625,0 -0.921875,-0.625 -0.1875,-0.375 -0.1875,-0.859375 -0.1875,-1.359375 0,-0.53125 0,-1 0.21875,-1.375 0.265625,-0.5 0.640625,-0.625 0.984375,-0.625 0.46875,0 0.796875,0.34375 0.96875,0.78125 0.109375,0.328125 0.15625,0.953125 0.15625,1.40625 0,0.828125 -0.34375,1.796875 -1.21875,1.796875 z m 0,0"
               id="path26440"
               style="stroke:none" />
          </symbol>
          <symbol
             id="textext-9961a2b2-14"
             style="overflow:visible">
            <path
               d="m 4.078125,-2.296875 2.78125,0 C 7,-2.296875 7.1875,-2.296875 7.1875,-2.5 7.1875,-2.6875 7,-2.6875 6.859375,-2.6875 l -2.78125,0 0,-2.796875 c 0,-0.140625 0,-0.328125 -0.203125,-0.328125 -0.203125,0 -0.203125,0.1875 -0.203125,0.328125 l 0,2.796875 -2.78125,0 c -0.140625,0 -0.328125,0 -0.328125,0.1875 0,0.203125 0.1875,0.203125 0.328125,0.203125 l 2.78125,0 0,2.796875 c 0,0.140625 0,0.328125 0.203125,0.328125 0.203125,0 0.203125,-0.1875 0.203125,-0.328125 z m 0,0"
               id="path26443"
               style="stroke:none" />
          </symbol>
          <symbol
             id="textext-9961a2b2-15"
             style="overflow:visible">
            <path
               d="m 1.625,-4.5625 c -0.453125,-0.296875 -0.5,-0.625 -0.5,-0.796875 0,-0.609375 0.65625,-1.03125 1.359375,-1.03125 0.71875,0 1.359375,0.515625 1.359375,1.234375 0,0.578125 -0.390625,1.046875 -0.984375,1.390625 z m 1.453125,0.953125 C 3.796875,-3.984375 4.28125,-4.5 4.28125,-5.15625 c 0,-0.921875 -0.875,-1.484375 -1.78125,-1.484375 -1,0 -1.8125,0.734375 -1.8125,1.671875 0,0.171875 0.015625,0.625 0.4375,1.09375 0.109375,0.109375 0.484375,0.359375 0.734375,0.53125 C 1.28125,-3.046875 0.421875,-2.5 0.421875,-1.5 c 0,1.046875 1.015625,1.71875 2.0625,1.71875 1.125,0 2.078125,-0.828125 2.078125,-1.890625 0,-0.359375 -0.109375,-0.8125 -0.5,-1.234375 C 3.875,-3.109375 3.71875,-3.203125 3.078125,-3.609375 z m -1,0.421875 c 0.28125,0.171875 0.75,0.46875 1.234375,0.78125 0.28125,0.1875 0.75,0.484375 0.75,1.09375 0,0.734375 -0.75,1.25 -1.5625,1.25 -0.859375,0 -1.578125,-0.609375 -1.578125,-1.4375 0,-0.578125 0.3125,-1.21875 1.15625,-1.6875 z m 0,0"
               id="path26446"
               style="stroke:none" />
          </symbol>
          <symbol
             id="textext-9961a2b2-16"
             style="overflow:visible">
            <path
               d="m 1.78125,-3.984375 1.125,0 0,-0.3125 -1.15625,0 0,-1.15625 c 0,-0.875 0.46875,-1.359375 0.90625,-1.359375 0.03125,0 0.1875,0 0.328125,0.078125 C 2.875,-6.703125 2.6875,-6.5625 2.6875,-6.3125 c 0,0.21875 0.15625,0.421875 0.4375,0.421875 0.28125,0 0.4375,-0.203125 0.4375,-0.4375 0,-0.375 -0.375,-0.703125 -0.90625,-0.703125 -0.6875,0 -1.546875,0.53125 -1.546875,1.59375 l 0,1.140625 -0.78125,0 0,0.3125 0.78125,0 0,3.234375 c 0,0.4375 -0.109375,0.4375 -0.765625,0.4375 l 0,0.3125 c 0.390625,-0.015625 0.859375,-0.03125 1.125,-0.03125 0.40625,0 0.875,0 1.265625,0.03125 l 0,-0.3125 -0.203125,0 c -0.734375,0 -0.75,-0.109375 -0.75,-0.46875 z m 0,0"
               id="path26449"
               style="stroke:none" />
          </symbol>
          <symbol
             id="textext-9961a2b2-17"
             style="overflow:visible">
            <path
               d="M 4.6875,-2.140625 C 4.6875,-3.40625 3.703125,-4.46875 2.5,-4.46875 c -1.25,0 -2.21875,1.09375 -2.21875,2.328125 0,1.296875 1.03125,2.25 2.203125,2.25 1.203125,0 2.203125,-0.984375 2.203125,-2.25 z m -2.1875,2 c -0.4375,0 -0.875,-0.203125 -1.140625,-0.671875 -0.25,-0.4375 -0.25,-1.046875 -0.25,-1.40625 0,-0.390625 0,-0.921875 0.234375,-1.359375 C 1.609375,-4.03125 2.078125,-4.25 2.484375,-4.25 c 0.4375,0 0.859375,0.21875 1.125,0.65625 0.265625,0.421875 0.265625,1 0.265625,1.375 0,0.359375 0,0.90625 -0.21875,1.34375 C 3.421875,-0.421875 2.984375,-0.140625 2.5,-0.140625 z m 0,0"
               id="path26452"
               style="stroke:none" />
          </symbol>
          <symbol
             id="textext-9961a2b2-18"
             style="overflow:visible">
            <path
               d="m 1.71875,-0.78125 0,-1.53125 c 0,-0.984375 0.421875,-1.875 1.171875,-1.875 0.0625,0 0.09375,0 0.109375,0.015625 -0.03125,0 -0.234375,0.125 -0.234375,0.390625 0,0.265625 0.21875,0.421875 0.4375,0.421875 0.171875,0 0.421875,-0.125 0.421875,-0.4375 0,-0.3125 -0.3125,-0.609375 -0.734375,-0.609375 -0.734375,0 -1.09375,0.671875 -1.21875,1.09375 l 0,-1.09375 -1.390625,0.109375 0,0.3125 c 0.703125,0 0.78125,0.0625 0.78125,0.5625 l 0,2.671875 c 0,0.4375 -0.109375,0.4375 -0.78125,0.4375 l 0,0.3125 c 0.390625,-0.015625 0.859375,-0.03125 1.140625,-0.03125 0.390625,0 0.859375,0 1.265625,0.03125 l 0,-0.3125 -0.21875,0 c -0.734375,0 -0.75,-0.109375 -0.75,-0.46875 z m 0,0"
               id="path26455"
               style="stroke:none" />
          </symbol>
          <symbol
             id="textext-9961a2b2-19"
             style="overflow:visible">
            <path
               d="m 2.890625,-3.515625 c 0.8125,-0.265625 1.390625,-0.953125 1.390625,-1.75 0,-0.8125 -0.875,-1.375 -1.828125,-1.375 -1,0 -1.765625,0.59375 -1.765625,1.359375 0,0.328125 0.21875,0.515625 0.515625,0.515625 0.296875,0 0.5,-0.21875 0.5,-0.515625 0,-0.484375 -0.46875,-0.484375 -0.609375,-0.484375 0.296875,-0.5 0.953125,-0.625 1.3125,-0.625 0.421875,0 0.96875,0.21875 0.96875,1.109375 0,0.125 -0.03125,0.703125 -0.28125,1.140625 C 2.796875,-3.65625 2.453125,-3.625 2.203125,-3.625 2.125,-3.609375 1.890625,-3.59375 1.8125,-3.59375 c -0.078125,0.015625 -0.140625,0.03125 -0.140625,0.125 0,0.109375 0.0625,0.109375 0.234375,0.109375 l 0.4375,0 c 0.8125,0 1.1875,0.671875 1.1875,1.65625 0,1.359375 -0.6875,1.640625 -1.125,1.640625 -0.4375,0 -1.1875,-0.171875 -1.53125,-0.75 0.34375,0.046875 0.65625,-0.171875 0.65625,-0.546875 0,-0.359375 -0.265625,-0.5625 -0.546875,-0.5625 -0.25,0 -0.5625,0.140625 -0.5625,0.578125 0,0.90625 0.921875,1.5625 2.015625,1.5625 1.21875,0 2.125,-0.90625 2.125,-1.921875 0,-0.8125 -0.640625,-1.59375 -1.671875,-1.8125 z m 0,0"
               id="path26458"
               style="stroke:none" />
          </symbol>
          <symbol
             id="textext-9961a2b2-20"
             style="overflow:visible">
            <path
               d="m 4.578125,-3.1875 c 0,-0.796875 -0.046875,-1.59375 -0.390625,-2.328125 -0.453125,-0.96875 -1.28125,-1.125 -1.6875,-1.125 -0.609375,0 -1.328125,0.265625 -1.75,1.1875 -0.3125,0.6875 -0.359375,1.46875 -0.359375,2.265625 0,0.75 0.03125,1.640625 0.453125,2.40625 0.421875,0.796875 1.15625,1 1.640625,1 0.53125,0 1.296875,-0.203125 1.734375,-1.15625 0.3125,-0.6875 0.359375,-1.46875 0.359375,-2.25 z M 2.484375,0 C 2.09375,0 1.5,-0.25 1.328125,-1.203125 1.21875,-1.796875 1.21875,-2.71875 1.21875,-3.3125 c 0,-0.640625 0,-1.296875 0.078125,-1.828125 0.1875,-1.1875 0.9375,-1.28125 1.1875,-1.28125 0.328125,0 0.984375,0.1875 1.171875,1.171875 0.109375,0.5625 0.109375,1.3125 0.109375,1.9375 0,0.75 0,1.421875 -0.109375,2.0625 C 3.5,-0.296875 2.9375,0 2.484375,0 z m 0,0"
               id="path26461"
               style="stroke:none" />
          </symbol>
          <symbol
             id="textext-9961a2b2-21"
             style="overflow:visible">
            <path
               d="m 0.28125,-1.640625 2.65625,0 0,0.859375 c 0,0.359375 -0.03125,0.46875 -0.765625,0.46875 l -0.203125,0 0,0.3125 C 2.375,-0.03125 2.890625,-0.03125 3.3125,-0.03125 c 0.421875,0 0.9375,0 1.359375,0.03125 l 0,-0.3125 -0.21875,0 c -0.734375,0 -0.75,-0.109375 -0.75,-0.46875 l 0,-0.859375 0.984375,0 0,-0.3125 -0.984375,0 0,-4.53125 c 0,-0.203125 0,-0.265625 -0.171875,-0.265625 -0.078125,0 -0.109375,0 -0.1875,0.125 l -3.0625,4.671875 z m 2.703125,-0.3125 -2.421875,0 2.421875,-3.71875 z m 0,0"
               id="path26464"
               style="stroke:none" />
          </symbol>
          <symbol
             id="textext-9961a2b2-22"
             style="overflow:visible">
            <path
               d="m 1.71875,-3.984375 1.4375,0 0,-0.3125 -1.4375,0 0,-1.828125 -0.25,0 c 0,0.8125 -0.296875,1.875 -1.28125,1.921875 l 0,0.21875 0.84375,0 0,2.75 c 0,1.21875 0.9375,1.34375 1.296875,1.34375 0.703125,0 0.984375,-0.703125 0.984375,-1.34375 l 0,-0.5625 -0.25,0 0,0.546875 c 0,0.734375 -0.296875,1.109375 -0.671875,1.109375 -0.671875,0 -0.671875,-0.90625 -0.671875,-1.078125 z m 0,0"
               id="path26467"
               style="stroke:none" />
          </symbol>
          <symbol
             id="textext-9961a2b2-23"
             style="overflow:visible">
            <path
               d="m 4.5625,-2.515625 c 0,-0.859375 0,-1.15625 -0.3125,-1.515625 -0.140625,-0.171875 -0.46875,-0.375 -1.046875,-0.375 -0.84375,0 -1.28125,0.59375 -1.4375,0.953125 l -0.015625,0 0,-3.46875 -1.4375,0.109375 0,0.3125 c 0.703125,0 0.78125,0.0625 0.78125,0.5625 l 0,5.1875 c 0,0.4375 -0.109375,0.4375 -0.78125,0.4375 l 0,0.3125 c 0.359375,-0.015625 0.859375,-0.03125 1.140625,-0.03125 0.25,0 0.765625,0.015625 1.109375,0.03125 l 0,-0.3125 c -0.671875,0 -0.78125,0 -0.78125,-0.4375 l 0,-1.84375 C 1.78125,-3.625 2.5,-4.1875 3.125,-4.1875 c 0.640625,0 0.75,0.53125 0.75,1.109375 l 0,2.328125 c 0,0.4375 -0.109375,0.4375 -0.78125,0.4375 l 0,0.3125 c 0.34375,-0.015625 0.859375,-0.03125 1.125,-0.03125 0.25,0 0.78125,0.015625 1.109375,0.03125 l 0,-0.3125 c -0.515625,0 -0.765625,0 -0.765625,-0.296875 z m 0,0"
               id="path26470"
               style="stroke:none" />
          </symbol>
          <symbol
             id="textext-9961a2b2-24"
             style="overflow:visible">
            <path
               d="m 3.890625,-2.296875 c 0.21875,0 0.25,0 0.25,-0.21875 0,-0.984375 -0.546875,-1.953125 -1.78125,-1.953125 -1.15625,0 -2.078125,1.03125 -2.078125,2.28125 0,1.328125 1.046875,2.296875 2.1875,2.296875 C 3.6875,0.109375 4.140625,-1 4.140625,-1.1875 4.140625,-1.28125 4.0625,-1.3125 4,-1.3125 c -0.078125,0 -0.109375,0.0625 -0.125,0.140625 -0.34375,1.03125 -1.25,1.03125 -1.34375,1.03125 -0.5,0 -0.890625,-0.296875 -1.125,-0.671875 -0.296875,-0.46875 -0.296875,-1.125 -0.296875,-1.484375 z m -2.78125,-0.21875 C 1.171875,-4 2.015625,-4.25 2.359375,-4.25 c 1.015625,0 1.125,1.34375 1.125,1.734375 z m 0,0"
               id="path26473"
               style="stroke:none" />
          </symbol>
          <symbol
             id="textext-9961a2b2-25"
             style="overflow:visible">
            <path
               d="m 6.171875,-3.34375 c 0.171875,-0.5 0.484375,-0.640625 0.84375,-0.640625 l 0,-0.3125 C 6.78125,-4.28125 6.5,-4.265625 6.28125,-4.265625 c -0.296875,0 -0.734375,-0.015625 -0.921875,-0.03125 l 0,0.3125 c 0.359375,0 0.578125,0.1875 0.578125,0.46875 0,0.0625 0,0.09375 -0.0625,0.21875 L 4.96875,-0.75 3.984375,-3.53125 C 3.953125,-3.65625 3.9375,-3.671875 3.9375,-3.71875 c 0,-0.265625 0.390625,-0.265625 0.59375,-0.265625 l 0,-0.3125 c -0.296875,0.015625 -0.796875,0.03125 -1.046875,0.03125 -0.296875,0 -0.578125,-0.015625 -0.875,-0.03125 l 0,0.3125 c 0.359375,0 0.515625,0.015625 0.625,0.140625 0.046875,0.0625 0.15625,0.359375 0.21875,0.546875 L 2.609375,-0.875 1.65625,-3.53125 C 1.609375,-3.65625 1.609375,-3.671875 1.609375,-3.71875 1.609375,-3.984375 2,-3.984375 2.1875,-3.984375 l 0,-0.3125 c -0.296875,0.015625 -0.859375,0.03125 -1.078125,0.03125 -0.046875,0 -0.578125,-0.015625 -0.9375,-0.03125 l 0,0.3125 c 0.5,0 0.625,0.03125 0.75,0.34375 l 1.25,3.53125 C 2.21875,0.03125 2.25,0.109375 2.375,0.109375 c 0.140625,0 0.15625,-0.0625 0.203125,-0.203125 l 1.015625,-2.8125 1.015625,2.828125 c 0.03125,0.109375 0.0625,0.1875 0.203125,0.1875 0.125,0 0.15625,-0.09375 0.1875,-0.1875 z m 0,0"
               id="path26476"
               style="stroke:none" />
          </symbol>
          <symbol
             id="textext-9961a2b2-26"
             style="overflow:visible">
            <path
               d="M 1.765625,-4.40625 0.375,-4.296875 l 0,0.3125 c 0.640625,0 0.734375,0.0625 0.734375,0.546875 l 0,2.6875 c 0,0.4375 -0.109375,0.4375 -0.78125,0.4375 l 0,0.3125 C 0.640625,-0.015625 1.1875,-0.03125 1.421875,-0.03125 1.78125,-0.03125 2.125,-0.015625 2.46875,0 l 0,-0.3125 c -0.671875,0 -0.703125,-0.046875 -0.703125,-0.4375 z m 0.03125,-1.734375 c 0,-0.3125 -0.234375,-0.53125 -0.515625,-0.53125 -0.3125,0 -0.53125,0.265625 -0.53125,0.53125 0,0.265625 0.21875,0.53125 0.53125,0.53125 0.28125,0 0.515625,-0.21875 0.515625,-0.53125 z m 0,0"
               id="path26479"
               style="stroke:none" />
          </symbol>
          <symbol
             id="textext-9961a2b2-27"
             style="overflow:visible">
            <path
               d="m 2.078125,-1.9375 c 0.21875,0.046875 1.03125,0.203125 1.03125,0.921875 0,0.5 -0.34375,0.90625 -1.125,0.90625 -0.84375,0 -1.203125,-0.5625 -1.390625,-1.421875 C 0.5625,-1.65625 0.5625,-1.6875 0.453125,-1.6875 c -0.125,0 -0.125,0.0625 -0.125,0.234375 l 0,1.328125 c 0,0.171875 0,0.234375 0.109375,0.234375 0.046875,0 0.0625,-0.015625 0.25,-0.203125 0.015625,-0.015625 0.015625,-0.03125 0.203125,-0.21875 0.4375,0.40625 0.890625,0.421875 1.09375,0.421875 1.140625,0 1.609375,-0.671875 1.609375,-1.390625 0,-0.515625 -0.296875,-0.828125 -0.421875,-0.9375 C 2.84375,-2.546875 2.453125,-2.625 2.03125,-2.703125 1.46875,-2.8125 0.8125,-2.9375 0.8125,-3.515625 c 0,-0.359375 0.25,-0.765625 1.109375,-0.765625 1.09375,0 1.15625,0.90625 1.171875,1.203125 0,0.09375 0.09375,0.09375 0.109375,0.09375 0.140625,0 0.140625,-0.046875 0.140625,-0.234375 l 0,-1.015625 c 0,-0.15625 0,-0.234375 -0.109375,-0.234375 -0.046875,0 -0.078125,0 -0.203125,0.125 -0.03125,0.03125 -0.125,0.125 -0.171875,0.15625 -0.375,-0.28125 -0.78125,-0.28125 -0.9375,-0.28125 -1.21875,0 -1.59375,0.671875 -1.59375,1.234375 0,0.34375 0.15625,0.625 0.421875,0.84375 0.328125,0.25 0.609375,0.3125 1.328125,0.453125 z m 0,0"
               id="path26482"
               style="stroke:none" />
          </symbol>
          <symbol
             id="textext-9961a2b2-28"
             style="overflow:visible">
            <path
               d="M 5.03125,4.515625 C 5.03125,3.703125 5.25,1.796875 7.015625,0.53125 7.140625,0.4375 7.15625,0.421875 7.15625,0.25 7.15625,0.015625 7.140625,0.015625 6.890625,0.015625 l -0.15625,0 c -2.140625,1.15625 -2.90625,3.03125 -2.90625,4.5 l 0,4.28125 c 0,0.265625 0.015625,0.28125 0.28125,0.28125 l 0.640625,0 c 0.265625,0 0.28125,-0.015625 0.28125,-0.28125 z m 0,0"
               id="path26485"
               style="stroke:none" />
          </symbol>
          <symbol
             id="textext-9961a2b2-29"
             style="overflow:visible">
            <path
               d="M 5.03125,0.171875 C 5.03125,-0.09375 5.015625,-0.09375 4.75,-0.09375 l -0.640625,0 c -0.265625,0 -0.28125,0 -0.28125,0.265625 l 0,2.65625 c 0,0.25 0.015625,0.265625 0.28125,0.265625 l 0.640625,0 c 0.265625,0 0.28125,-0.015625 0.28125,-0.265625 z m 0,0"
               id="path26488"
               style="stroke:none" />
          </symbol>
          <symbol
             id="textext-9961a2b2-30"
             style="overflow:visible">
            <path
               d="m 5.03125,13.5625 c 0,-1.203125 -0.515625,-3.234375 -2.75,-4.59375 2.25,-1.359375 2.75,-3.421875 2.75,-4.59375 l 0,-4.203125 C 5.03125,-0.09375 5.015625,-0.09375 4.75,-0.09375 l -0.640625,0 c -0.265625,0 -0.28125,0 -0.28125,0.265625 l 0,4.21875 c 0,0.828125 -0.171875,2.90625 -2.015625,4.296875 -0.109375,0.09375 -0.125,0.109375 -0.125,0.28125 0,0.1875 0.015625,0.1875 0.125,0.28125 0.265625,0.203125 0.953125,0.734375 1.421875,1.734375 0.390625,0.796875 0.59375,1.6875 0.59375,2.578125 l 0,4.21875 c 0,0.25 0.015625,0.265625 0.28125,0.265625 l 0.640625,0 c 0.265625,0 0.28125,-0.01563 0.28125,-0.265625 z m 0,0"
               id="path26491"
               style="stroke:none" />
          </symbol>
          <symbol
             id="textext-9961a2b2-31"
             style="overflow:visible">
            <path
               d="M 5.03125,0.171875 C 5.03125,-0.09375 5.015625,-0.09375 4.75,-0.09375 l -0.640625,0 c -0.265625,0 -0.28125,0 -0.28125,0.265625 l 0,4.28125 c 0,1.484375 0.765625,3.359375 2.90625,4.515625 l 0.15625,0 c 0.25,0 0.265625,-0.015625 0.265625,-0.25 C 7.15625,8.546875 7.140625,8.53125 7.109375,8.5 6.796875,8.28125 6.078125,7.765625 5.609375,6.84375 5.21875,6.09375 5.03125,5.328125 5.03125,4.453125 z m 0,0"
               id="path26494"
               style="stroke:none" />
          </symbol>
          <symbol
             id="textext-9961a2b2-32"
             style="overflow:visible">
            <path
               d="m 6.59375,-2.296875 c 0.140625,0 0.328125,0 0.328125,-0.203125 0,-0.1875 -0.1875,-0.1875 -0.328125,-0.1875 l -5.4375,0 c -0.140625,0 -0.328125,0 -0.328125,0.1875 0,0.203125 0.1875,0.203125 0.328125,0.203125 z m 0,0"
               id="path26497"
               style="stroke:none" />
          </symbol>
          <symbol
             id="textext-9961a2b2-33"
             style="overflow:visible">
            <path
               d="m 1.578125,-7.140625 c 0,-0.140625 0,-0.34375 -0.1875,-0.34375 -0.203125,0 -0.203125,0.203125 -0.203125,0.34375 l 0,9.296875 c 0,0.140625 0,0.34375 0.203125,0.34375 0.1875,0 0.1875,-0.203125 0.1875,-0.34375 z m 0,0"
               id="path26500"
               style="stroke:none" />
          </symbol>
          <symbol
             id="textext-9961a2b2-34"
             style="overflow:visible">
            <path
               d="m 6.734375,-5.9375 c 0.109375,-0.03125 0.1875,-0.078125 0.1875,-0.203125 0,-0.109375 -0.09375,-0.203125 -0.203125,-0.203125 -0.03125,0 -0.046875,0 -0.15625,0.0625 l -5.546875,2.609375 c -0.09375,0.046875 -0.1875,0.09375 -0.1875,0.21875 0,0.125 0.09375,0.171875 0.1875,0.21875 L 6.546875,-0.625 c 0.109375,0.0625 0.125,0.0625 0.171875,0.0625 0.109375,0 0.203125,-0.09375 0.203125,-0.203125 0,-0.125 -0.078125,-0.15625 -0.1875,-0.21875 L 1.5,-3.453125 z M 6.59375,1.359375 c 0.140625,0 0.328125,0 0.328125,-0.1875 0,-0.203125 -0.1875,-0.203125 -0.34375,-0.203125 l -5.40625,0 c -0.140625,0 -0.34375,0 -0.34375,0.203125 0,0.1875 0.1875,0.1875 0.328125,0.1875 z m 0,0"
               id="path26503"
               style="stroke:none" />
          </symbol>
          <symbol
             id="textext-9961a2b2-35"
             style="overflow:visible">
            <path
               d="m 1.90625,-2.328125 c 0.546875,0 0.9375,0.375 0.9375,1.125 0,0.859375 -0.515625,1.125 -0.90625,1.125 -0.28125,0 -0.90625,-0.078125 -1.1875,-0.5 0.328125,0 0.40625,-0.234375 0.40625,-0.390625 0,-0.21875 -0.171875,-0.375 -0.390625,-0.375 -0.1875,0 -0.390625,0.125 -0.390625,0.40625 0,0.65625 0.71875,1.078125 1.5625,1.078125 0.96875,0 1.640625,-0.65625 1.640625,-1.34375 0,-0.546875 -0.4375,-1.09375 -1.203125,-1.25 0.71875,-0.265625 0.984375,-0.78125 0.984375,-1.21875 0,-0.546875 -0.625,-0.953125 -1.40625,-0.953125 -0.765625,0 -1.359375,0.375 -1.359375,0.9375 0,0.234375 0.15625,0.359375 0.359375,0.359375 0.21875,0 0.359375,-0.15625 0.359375,-0.34375 0,-0.203125 -0.140625,-0.359375 -0.359375,-0.375 0.25,-0.296875 0.71875,-0.375 0.984375,-0.375 0.3125,0 0.75,0.15625 0.75,0.75 0,0.296875 -0.09375,0.625 -0.28125,0.828125 -0.21875,0.265625 -0.421875,0.28125 -0.765625,0.3125 -0.171875,0.015625 -0.1875,0.015625 -0.21875,0.015625 -0.015625,0 -0.078125,0.015625 -0.078125,0.09375 0,0.09375 0.0625,0.09375 0.1875,0.09375 z m 0,0"
               id="path26506"
               style="stroke:none" />
          </symbol>
          <symbol
             id="textext-9961a2b2-36"
             style="overflow:visible">
            <path
               d="m 3.515625,-1.265625 -0.234375,0 c -0.015625,0.15625 -0.09375,0.5625 -0.1875,0.625 -0.046875,0.046875 -0.578125,0.046875 -0.6875,0.046875 l -1.28125,0 c 0.734375,-0.640625 0.984375,-0.84375 1.390625,-1.171875 0.515625,-0.40625 1,-0.84375 1,-1.5 0,-0.84375 -0.734375,-1.359375 -1.625,-1.359375 -0.859375,0 -1.453125,0.609375 -1.453125,1.25 0,0.34375 0.296875,0.390625 0.375,0.390625 0.15625,0 0.359375,-0.125 0.359375,-0.375 0,-0.125 -0.046875,-0.375 -0.40625,-0.375 C 0.984375,-4.21875 1.453125,-4.375 1.78125,-4.375 c 0.703125,0 1.0625,0.546875 1.0625,1.109375 0,0.609375 -0.4375,1.078125 -0.65625,1.328125 L 0.515625,-0.265625 C 0.4375,-0.203125 0.4375,-0.1875 0.4375,0 l 2.875,0 z m 0,0"
               id="path26509"
               style="stroke:none" />
          </symbol>
        </g>
      </defs>
      <g
         id="textext-9961a2b2-37">
        <g
           id="g26512"
           style="fill:#000000;fill-opacity:1">
          <use
             id="use26514"
             x="223.43201"
             y="151.203"
             width="744.09448"
             height="1052.3622"
             xlink:href="#textext-9961a2b2-0" />
        </g>
        <g
           id="g26516"
           style="fill:#000000;fill-opacity:1">
          <use
             id="use26518"
             x="229.382"
             y="151.203"
             width="744.09448"
             height="1052.3622"
             xlink:href="#textext-9961a2b2-6" />
        </g>
        <g
           id="g26520"
           style="fill:#000000;fill-opacity:1">
          <use
             id="use26522"
             x="233.256"
             y="151.203"
             width="744.09448"
             height="1052.3622"
             xlink:href="#textext-9961a2b2-1" />
        </g>
        <g
           id="g26524"
           style="fill:#000000;fill-opacity:1">
          <use
             id="use26526"
             x="238.95"
             y="151.203"
             width="744.09448"
             height="1052.3622"
             xlink:href="#textext-9961a2b2-7" />
        </g>
        <g
           id="g26528"
           style="fill:#000000;fill-opacity:1">
          <use
             id="use26530"
             x="243.37801"
             y="151.203"
             width="744.09448"
             height="1052.3622"
             xlink:href="#textext-9961a2b2-2" />
        </g>
        <g
           id="g26532"
           style="fill:#000000;fill-opacity:1">
          <use
             id="use26534"
             x="251.43275"
             y="151.203"
             width="744.09448"
             height="1052.3622"
             xlink:href="#textext-9961a2b2-3" />
        </g>
        <g
           id="g26536"
           style="fill:#000000;fill-opacity:1">
          <use
             id="use26538"
             x="255.86412"
             y="151.203"
             width="744.09448"
             height="1052.3622"
             xlink:href="#textext-9961a2b2-4" />
        </g>
        <g
           id="g26540"
           style="fill:#000000;fill-opacity:1">
          <use
             id="use26542"
             x="263.69601"
             y="151.203"
             width="744.09448"
             height="1052.3622"
             xlink:href="#textext-9961a2b2-8" />
        </g>
        <g
           id="g26544"
           style="fill:#000000;fill-opacity:1">
          <use
             id="use26546"
             x="270.34006"
             y="151.203"
             width="744.09448"
             height="1052.3622"
             xlink:href="#textext-9961a2b2-9" />
        </g>
        <g
           id="g26548"
           style="fill:#000000;fill-opacity:1">
          <use
             id="use26550"
             x="282.04901"
             y="144.464"
             width="744.09448"
             height="1052.3622"
             xlink:href="#textext-9961a2b2-10" />
        </g>
        <path
           d="m 0.00178125,-0.00184375 4.98046875,0"
           transform="matrix(1,0,0,-1,282.049,148.713)"
           id="path26552"
           style="fill:none;stroke:#000000;stroke-width:0.398;stroke-linecap:butt;stroke-linejoin:miter;stroke-miterlimit:10;stroke-opacity:1" />
        <g
           id="g26554"
           style="fill:#000000;fill-opacity:1">
          <use
             id="use26556"
             x="282.04901"
             y="158.037"
             width="744.09448"
             height="1052.3622"
             xlink:href="#textext-9961a2b2-11" />
        </g>
        <g
           id="g26558"
           style="fill:#000000;fill-opacity:1">
          <use
             id="use26560"
             x="289.88599"
             y="124.802"
             width="744.09448"
             height="1052.3622"
             xlink:href="#textext-9961a2b2-28" />
        </g>
        <g
           id="g26562"
           style="fill:#000000;fill-opacity:1">
          <use
             id="use26564"
             x="289.88599"
             y="133.769"
             width="744.09448"
             height="1052.3622"
             xlink:href="#textext-9961a2b2-29" />
        </g>
        <g
           id="g26566"
           style="fill:#000000;fill-opacity:1">
          <use
             id="use26568"
             x="289.88599"
             y="136.757"
             width="744.09448"
             height="1052.3622"
             xlink:href="#textext-9961a2b2-29" />
        </g>
        <g
           id="g26570"
           style="fill:#000000;fill-opacity:1">
          <use
             id="use26572"
             x="289.88599"
             y="139.746"
             width="744.09448"
             height="1052.3622"
             xlink:href="#textext-9961a2b2-30" />
        </g>
        <g
           id="g26574"
           style="fill:#000000;fill-opacity:1">
          <use
             id="use26576"
             x="289.88599"
             y="157.679"
             width="744.09448"
             height="1052.3622"
             xlink:href="#textext-9961a2b2-29" />
        </g>
        <g
           id="g26578"
           style="fill:#000000;fill-opacity:1">
          <use
             id="use26580"
             x="289.88599"
             y="160.668"
             width="744.09448"
             height="1052.3622"
             xlink:href="#textext-9961a2b2-29" />
        </g>
        <g
           id="g26582"
           style="fill:#000000;fill-opacity:1">
          <use
             id="use26584"
             x="289.88599"
             y="163.657"
             width="744.09448"
             height="1052.3622"
             xlink:href="#textext-9961a2b2-31" />
        </g>
        <g
           id="g26586"
           style="fill:#000000;fill-opacity:1">
          <use
             id="use26588"
             x="303.72299"
             y="133.17101"
             width="744.09448"
             height="1052.3622"
             xlink:href="#textext-9961a2b2-6" />
          <use
             id="use26590"
             x="307.59744"
             y="133.17101"
             width="744.09448"
             height="1052.3622"
             xlink:href="#textext-9961a2b2-10" />
          <use
             id="use26592"
             x="312.57877"
             y="133.17101"
             width="744.09448"
             height="1052.3622"
             xlink:href="#textext-9961a2b2-12" />
        </g>
        <g
           id="g26594"
           style="fill:#000000;fill-opacity:1">
          <use
             id="use26596"
             x="319.77399"
             y="133.17101"
             width="744.09448"
             height="1052.3622"
             xlink:href="#textext-9961a2b2-32" />
        </g>
        <g
           id="g26598"
           style="fill:#000000;fill-opacity:1">
          <use
             id="use26600"
             x="329.737"
             y="133.17101"
             width="744.09448"
             height="1052.3622"
             xlink:href="#textext-9961a2b2-13" />
        </g>
        <g
           id="g26602"
           style="fill:#000000;fill-opacity:1">
          <use
             id="use26604"
             x="334.71799"
             y="133.17101"
             width="744.09448"
             height="1052.3622"
             xlink:href="#textext-9961a2b2-2" />
        </g>
        <g
           id="g26606"
           style="fill:#000000;fill-opacity:1">
          <use
             id="use26608"
             x="344.98901"
             y="133.17101"
             width="744.09448"
             height="1052.3622"
             xlink:href="#textext-9961a2b2-32" />
        </g>
        <g
           id="g26610"
           style="fill:#000000;fill-opacity:1">
          <use
             id="use26612"
             x="354.95099"
             y="133.17101"
             width="744.09448"
             height="1052.3622"
             xlink:href="#textext-9961a2b2-11" />
        </g>
        <g
           id="g26614"
           style="fill:#000000;fill-opacity:1">
          <use
             id="use26616"
             x="359.93201"
             y="133.17101"
             width="744.09448"
             height="1052.3622"
             xlink:href="#textext-9961a2b2-4" />
        </g>
        <g
           id="g26618"
           style="fill:#000000;fill-opacity:1">
          <use
             id="use26620"
             x="367.76599"
             y="133.17101"
             width="744.09448"
             height="1052.3622"
             xlink:href="#textext-9961a2b2-8" />
        </g>
        <g
           id="g26622"
           style="fill:#000000;fill-opacity:1">
          <use
             id="use26624"
             x="371.64001"
             y="133.17101"
             width="744.09448"
             height="1052.3622"
             xlink:href="#textext-9961a2b2-33" />
        </g>
        <g
           id="g26626"
           style="fill:#000000;fill-opacity:1">
          <use
             id="use26628"
             x="374.40701"
             y="133.17101"
             width="744.09448"
             height="1052.3622"
             xlink:href="#textext-9961a2b2-1" />
        </g>
        <g
           id="g26630"
           style="fill:#000000;fill-opacity:1">
          <use
             id="use26632"
             x="380.10101"
             y="133.17101"
             width="744.09448"
             height="1052.3622"
             xlink:href="#textext-9961a2b2-33" />
        </g>
        <g
           id="g26634"
           style="fill:#000000;fill-opacity:1">
          <use
             id="use26636"
             x="382.86899"
             y="129.556"
             width="744.09448"
             height="1052.3622"
             xlink:href="#textext-9961a2b2-35" />
        </g>
        <g
           id="g26638"
           style="fill:#000000;fill-opacity:1">
          <use
             id="use26640"
             x="389.552"
             y="133.17101"
             width="744.09448"
             height="1052.3622"
             xlink:href="#textext-9961a2b2-14" />
        </g>
        <g
           id="g26642"
           style="fill:#000000;fill-opacity:1">
          <use
             id="use26644"
             x="399.5126"
             y="133.17101"
             width="744.09448"
             height="1052.3622"
             xlink:href="#textext-9961a2b2-6" />
        </g>
        <g
           id="g26646"
           style="fill:#000000;fill-opacity:1">
          <use
             id="use26648"
             x="403.38901"
             y="133.17101"
             width="744.09448"
             height="1052.3622"
             xlink:href="#textext-9961a2b2-32" />
        </g>
        <g
           id="g26650"
           style="fill:#000000;fill-opacity:1">
          <use
             id="use26652"
             x="411.138"
             y="133.17101"
             width="744.09448"
             height="1052.3622"
             xlink:href="#textext-9961a2b2-10" />
          <use
             id="use26654"
             x="416.11929"
             y="133.17101"
             width="744.09448"
             height="1052.3622"
             xlink:href="#textext-9961a2b2-15" />
        </g>
        <g
           id="g26656"
           style="fill:#000000;fill-opacity:1">
          <use
             id="use26658"
             x="423.31229"
             y="133.17101"
             width="744.09448"
             height="1052.3622"
             xlink:href="#textext-9961a2b2-14" />
        </g>
        <g
           id="g26660"
           style="fill:#000000;fill-opacity:1">
          <use
             id="use26662"
             x="433.27292"
             y="133.17101"
             width="744.09448"
             height="1052.3622"
             xlink:href="#textext-9961a2b2-10" />
          <use
             id="use26664"
             x="438.25421"
             y="133.17101"
             width="744.09448"
             height="1052.3622"
             xlink:href="#textext-9961a2b2-12" />
        </g>
        <g
           id="g26666"
           style="fill:#000000;fill-opacity:1">
          <use
             id="use26668"
             x="443.23999"
             y="133.17101"
             width="744.09448"
             height="1052.3622"
             xlink:href="#textext-9961a2b2-2" />
        </g>
        <g
           id="g26670"
           style="fill:#000000;fill-opacity:1">
          <use
             id="use26672"
             x="453.51001"
             y="133.17101"
             width="744.09448"
             height="1052.3622"
             xlink:href="#textext-9961a2b2-14" />
        </g>
        <g
           id="g26674"
           style="fill:#000000;fill-opacity:1">
          <use
             id="use26676"
             x="463.47061"
             y="133.17101"
             width="744.09448"
             height="1052.3622"
             xlink:href="#textext-9961a2b2-11" />
        </g>
        <g
           id="g26678"
           style="fill:#000000;fill-opacity:1">
          <use
             id="use26680"
             x="468.45401"
             y="133.17101"
             width="744.09448"
             height="1052.3622"
             xlink:href="#textext-9961a2b2-4" />
        </g>
        <g
           id="g26682"
           style="fill:#000000;fill-opacity:1">
          <use
             id="use26684"
             x="476.28699"
             y="133.17101"
             width="744.09448"
             height="1052.3622"
             xlink:href="#textext-9961a2b2-8" />
        </g>
        <g
           id="g26686"
           style="fill:#000000;fill-opacity:1">
          <use
             id="use26688"
             x="480.16101"
             y="133.17101"
             width="744.09448"
             height="1052.3622"
             xlink:href="#textext-9961a2b2-1" />
        </g>
        <g
           id="g26690"
           style="fill:#000000;fill-opacity:1">
          <use
             id="use26692"
             x="485.85501"
             y="129.556"
             width="744.09448"
             height="1052.3622"
             xlink:href="#textext-9961a2b2-36" />
        </g>
        <g
           id="g26694"
           style="fill:#000000;fill-opacity:1">
          <use
             id="use26696"
             x="492.539"
             y="133.17101"
             width="744.09448"
             height="1052.3622"
             xlink:href="#textext-9961a2b2-14" />
        </g>
        <g
           id="g26698"
           style="fill:#000000;fill-opacity:1">
          <use
             id="use26700"
             x="502.4996"
             y="133.17101"
             width="744.09448"
             height="1052.3622"
             xlink:href="#textext-9961a2b2-11" />
        </g>
        <g
           id="g26702"
           style="fill:#000000;fill-opacity:1">
          <use
             id="use26704"
             x="509.69601"
             y="133.17101"
             width="744.09448"
             height="1052.3622"
             xlink:href="#textext-9961a2b2-32" />
        </g>
        <g
           id="g26706"
           style="fill:#000000;fill-opacity:1">
          <use
             id="use26708"
             x="519.659"
             y="133.17101"
             width="744.09448"
             height="1052.3622"
             xlink:href="#textext-9961a2b2-12" />
        </g>
        <g
           id="g26710"
           style="fill:#000000;fill-opacity:1">
          <use
             id="use26712"
             x="524.64001"
             y="133.17101"
             width="744.09448"
             height="1052.3622"
             xlink:href="#textext-9961a2b2-2" />
        </g>
        <g
           id="g26714"
           style="fill:#000000;fill-opacity:1">
          <use
             id="use26716"
             x="552.62201"
             y="133.17101"
             width="744.09448"
             height="1052.3622"
             xlink:href="#textext-9961a2b2-16" />
          <use
             id="use26718"
             x="555.66656"
             y="133.17101"
             width="744.09448"
             height="1052.3622"
             xlink:href="#textext-9961a2b2-17" />
          <use
             id="use26720"
             x="560.64789"
             y="133.17101"
             width="744.09448"
             height="1052.3622"
             xlink:href="#textext-9961a2b2-18" />
        </g>
        <g
           id="g26722"
           style="fill:#000000;fill-opacity:1">
          <use
             id="use26724"
             x="567.31702"
             y="133.17101"
             width="744.09448"
             height="1052.3622"
             xlink:href="#textext-9961a2b2-33" />
        </g>
        <g
           id="g26726"
           style="fill:#000000;fill-opacity:1">
          <use
             id="use26728"
             x="570.08398"
             y="133.17101"
             width="744.09448"
             height="1052.3622"
             xlink:href="#textext-9961a2b2-1" />
        </g>
        <g
           id="g26730"
           style="fill:#000000;fill-opacity:1">
          <use
             id="use26732"
             x="575.77802"
             y="133.17101"
             width="744.09448"
             height="1052.3622"
             xlink:href="#textext-9961a2b2-33" />
        </g>
        <g
           id="g26734"
           style="fill:#000000;fill-opacity:1">
          <use
             id="use26736"
             x="581.31299"
             y="133.17101"
             width="744.09448"
             height="1052.3622"
             xlink:href="#textext-9961a2b2-5" />
        </g>
        <g
           id="g26738"
           style="fill:#000000;fill-opacity:1">
          <use
             id="use26740"
             x="591.82898"
             y="133.17101"
             width="744.09448"
             height="1052.3622"
             xlink:href="#textext-9961a2b2-10" />
        </g>
        <g
           id="g26742"
           style="fill:#000000;fill-opacity:1">
          <use
             id="use26744"
             x="303.72299"
             y="145.12601"
             width="744.09448"
             height="1052.3622"
             xlink:href="#textext-9961a2b2-6" />
        </g>
        <g
           id="g26746"
           style="fill:#000000;fill-opacity:1">
          <use
             id="use26748"
             x="307.59799"
             y="145.12601"
             width="744.09448"
             height="1052.3622"
             xlink:href="#textext-9961a2b2-32" />
        </g>
        <g
           id="g26750"
           style="fill:#000000;fill-opacity:1">
          <use
             id="use26752"
             x="315.34601"
             y="145.12601"
             width="744.09448"
             height="1052.3622"
             xlink:href="#textext-9961a2b2-2" />
        </g>
        <g
           id="g26754"
           style="fill:#000000;fill-opacity:1">
          <use
             id="use26756"
             x="325.617"
             y="145.12601"
             width="744.09448"
             height="1052.3622"
             xlink:href="#textext-9961a2b2-32" />
        </g>
        <g
           id="g26758"
           style="fill:#000000;fill-opacity:1">
          <use
             id="use26760"
             x="335.57901"
             y="145.12601"
             width="744.09448"
             height="1052.3622"
             xlink:href="#textext-9961a2b2-11" />
        </g>
        <g
           id="g26762"
           style="fill:#000000;fill-opacity:1">
          <use
             id="use26764"
             x="340.561"
             y="145.12601"
             width="744.09448"
             height="1052.3622"
             xlink:href="#textext-9961a2b2-4" />
        </g>
        <g
           id="g26766"
           style="fill:#000000;fill-opacity:1">
          <use
             id="use26768"
             x="348.39401"
             y="145.12601"
             width="744.09448"
             height="1052.3622"
             xlink:href="#textext-9961a2b2-8" />
        </g>
        <g
           id="g26770"
           style="fill:#000000;fill-opacity:1">
          <use
             id="use26772"
             x="352.26801"
             y="145.12601"
             width="744.09448"
             height="1052.3622"
             xlink:href="#textext-9961a2b2-33" />
        </g>
        <g
           id="g26774"
           style="fill:#000000;fill-opacity:1">
          <use
             id="use26776"
             x="355.03601"
             y="145.12601"
             width="744.09448"
             height="1052.3622"
             xlink:href="#textext-9961a2b2-1" />
        </g>
        <g
           id="g26778"
           style="fill:#000000;fill-opacity:1">
          <use
             id="use26780"
             x="360.73001"
             y="145.12601"
             width="744.09448"
             height="1052.3622"
             xlink:href="#textext-9961a2b2-33" />
        </g>
        <g
           id="g26782"
           style="fill:#000000;fill-opacity:1">
          <use
             id="use26784"
             x="363.49701"
             y="141.511"
             width="744.09448"
             height="1052.3622"
             xlink:href="#textext-9961a2b2-35" />
        </g>
        <g
           id="g26786"
           style="fill:#000000;fill-opacity:1">
          <use
             id="use26788"
             x="370.17999"
             y="145.12601"
             width="744.09448"
             height="1052.3622"
             xlink:href="#textext-9961a2b2-14" />
        </g>
        <g
           id="g26790"
           style="fill:#000000;fill-opacity:1">
          <use
             id="use26792"
             x="380.14059"
             y="145.12601"
             width="744.09448"
             height="1052.3622"
             xlink:href="#textext-9961a2b2-6" />
          <use
             id="use26794"
             x="384.01508"
             y="145.12601"
             width="744.09448"
             height="1052.3622"
             xlink:href="#textext-9961a2b2-11" />
        </g>
        <g
           id="g26796"
           style="fill:#000000;fill-opacity:1">
          <use
             id="use26798"
             x="388.99899"
             y="145.12601"
             width="744.09448"
             height="1052.3622"
             xlink:href="#textext-9961a2b2-2" />
        </g>
        <g
           id="g26800"
           style="fill:#000000;fill-opacity:1">
          <use
             id="use26802"
             x="399.26901"
             y="145.12601"
             width="744.09448"
             height="1052.3622"
             xlink:href="#textext-9961a2b2-14" />
        </g>
        <g
           id="g26804"
           style="fill:#000000;fill-opacity:1">
          <use
             id="use26806"
             x="409.22961"
             y="145.12601"
             width="744.09448"
             height="1052.3622"
             xlink:href="#textext-9961a2b2-19" />
          <use
             id="use26808"
             x="414.21091"
             y="145.12601"
             width="744.09448"
             height="1052.3622"
             xlink:href="#textext-9961a2b2-20" />
        </g>
        <g
           id="g26810"
           style="fill:#000000;fill-opacity:1">
          <use
             id="use26812"
             x="419.194"
             y="145.12601"
             width="744.09448"
             height="1052.3622"
             xlink:href="#textext-9961a2b2-4" />
        </g>
        <g
           id="g26814"
           style="fill:#000000;fill-opacity:1">
          <use
             id="use26816"
             x="427.02701"
             y="145.12601"
             width="744.09448"
             height="1052.3622"
             xlink:href="#textext-9961a2b2-8" />
        </g>
        <g
           id="g26818"
           style="fill:#000000;fill-opacity:1">
          <use
             id="use26820"
             x="430.90201"
             y="145.12601"
             width="744.09448"
             height="1052.3622"
             xlink:href="#textext-9961a2b2-1" />
        </g>
        <g
           id="g26822"
           style="fill:#000000;fill-opacity:1">
          <use
             id="use26824"
             x="436.59601"
             y="141.511"
             width="744.09448"
             height="1052.3622"
             xlink:href="#textext-9961a2b2-36" />
        </g>
        <g
           id="g26826"
           style="fill:#000000;fill-opacity:1">
          <use
             id="use26828"
             x="441.065"
             y="145.12601"
             width="744.09448"
             height="1052.3622"
             xlink:href="#textext-9961a2b2-14" />
        </g>
        <g
           id="g26830"
           style="fill:#000000;fill-opacity:1">
          <use
             id="use26832"
             x="552.62421"
             y="145.12601"
             width="744.09448"
             height="1052.3622"
             xlink:href="#textext-9961a2b2-16" />
          <use
             id="use26834"
             x="555.66876"
             y="145.12601"
             width="744.09448"
             height="1052.3622"
             xlink:href="#textext-9961a2b2-17" />
          <use
             id="use26836"
             x="560.65009"
             y="145.12601"
             width="744.09448"
             height="1052.3622"
             xlink:href="#textext-9961a2b2-18" />
        </g>
        <g
           id="g26838"
           style="fill:#000000;fill-opacity:1">
          <use
             id="use26840"
             x="567.31207"
             y="145.12601"
             width="744.09448"
             height="1052.3622"
             xlink:href="#textext-9961a2b2-10" />
        </g>
        <g
           id="g26842"
           style="fill:#000000;fill-opacity:1">
          <use
             id="use26844"
             x="575.06598"
             y="145.12601"
             width="744.09448"
             height="1052.3622"
             xlink:href="#textext-9961a2b2-34" />
        </g>
        <g
           id="g26846"
           style="fill:#000000;fill-opacity:1">
          <use
             id="use26848"
             x="585.58453"
             y="145.12601"
             width="744.09448"
             height="1052.3622"
             xlink:href="#textext-9961a2b2-33" />
        </g>
        <g
           id="g26850"
           style="fill:#000000;fill-opacity:1">
          <use
             id="use26852"
             x="588.349"
             y="145.12601"
             width="744.09448"
             height="1052.3622"
             xlink:href="#textext-9961a2b2-1" />
        </g>
        <g
           id="g26854"
           style="fill:#000000;fill-opacity:1">
          <use
             id="use26856"
             x="594.04303"
             y="145.12601"
             width="744.09448"
             height="1052.3622"
             xlink:href="#textext-9961a2b2-33" />
        </g>
        <g
           id="g26858"
           style="fill:#000000;fill-opacity:1">
          <use
             id="use26860"
             x="599.578"
             y="145.12601"
             width="744.09448"
             height="1052.3622"
             xlink:href="#textext-9961a2b2-5" />
        </g>
        <g
           id="g26862"
           style="fill:#000000;fill-opacity:1">
          <use
             id="use26864"
             x="610.09399"
             y="145.12601"
             width="744.09448"
             height="1052.3622"
             xlink:href="#textext-9961a2b2-12" />
        </g>
        <g
           id="g26866"
           style="fill:#000000;fill-opacity:1">
          <use
             id="use26868"
             x="383.42401"
             y="157.08099"
             width="744.09448"
             height="1052.3622"
             xlink:href="#textext-9961a2b2-6" />
        </g>
        <g
           id="g26870"
           style="fill:#000000;fill-opacity:1">
          <use
             id="use26872"
             x="387.29901"
             y="157.08099"
             width="744.09448"
             height="1052.3622"
             xlink:href="#textext-9961a2b2-32" />
        </g>
        <g
           id="g26874"
           style="fill:#000000;fill-opacity:1">
          <use
             id="use26876"
             x="395.048"
             y="157.08099"
             width="744.09448"
             height="1052.3622"
             xlink:href="#textext-9961a2b2-10" />
          <use
             id="use26878"
             x="400.0293"
             y="157.08099"
             width="744.09448"
             height="1052.3622"
             xlink:href="#textext-9961a2b2-12" />
        </g>
        <g
           id="g26880"
           style="fill:#000000;fill-opacity:1">
          <use
             id="use26882"
             x="405.01001"
             y="157.08099"
             width="744.09448"
             height="1052.3622"
             xlink:href="#textext-9961a2b2-2" />
        </g>
        <g
           id="g26884"
           style="fill:#000000;fill-opacity:1">
          <use
             id="use26886"
             x="415.28101"
             y="157.08099"
             width="744.09448"
             height="1052.3622"
             xlink:href="#textext-9961a2b2-32" />
        </g>
        <g
           id="g26888"
           style="fill:#000000;fill-opacity:1">
          <use
             id="use26890"
             x="425.24301"
             y="157.08099"
             width="744.09448"
             height="1052.3622"
             xlink:href="#textext-9961a2b2-21" />
          <use
             id="use26892"
             x="430.2243"
             y="157.08099"
             width="744.09448"
             height="1052.3622"
             xlink:href="#textext-9961a2b2-15" />
        </g>
        <g
           id="g26894"
           style="fill:#000000;fill-opacity:1">
          <use
             id="use26896"
             x="435.20599"
             y="157.08099"
             width="744.09448"
             height="1052.3622"
             xlink:href="#textext-9961a2b2-4" />
        </g>
        <g
           id="g26898"
           style="fill:#000000;fill-opacity:1">
          <use
             id="use26900"
             x="443.039"
             y="157.08099"
             width="744.09448"
             height="1052.3622"
             xlink:href="#textext-9961a2b2-8" />
        </g>
        <g
           id="g26902"
           style="fill:#000000;fill-opacity:1">
          <use
             id="use26904"
             x="446.91299"
             y="157.08099"
             width="744.09448"
             height="1052.3622"
             xlink:href="#textext-9961a2b2-33" />
        </g>
        <g
           id="g26906"
           style="fill:#000000;fill-opacity:1">
          <use
             id="use26908"
             x="449.681"
             y="157.08099"
             width="744.09448"
             height="1052.3622"
             xlink:href="#textext-9961a2b2-1" />
        </g>
        <g
           id="g26910"
           style="fill:#000000;fill-opacity:1">
          <use
             id="use26912"
             x="455.375"
             y="157.08099"
             width="744.09448"
             height="1052.3622"
             xlink:href="#textext-9961a2b2-33" />
        </g>
        <g
           id="g26914"
           style="fill:#000000;fill-opacity:1">
          <use
             id="use26916"
             x="460.35599"
             y="157.08099"
             width="744.09448"
             height="1052.3622"
             xlink:href="#textext-9961a2b2-14" />
        </g>
        <g
           id="g26918"
           style="fill:#000000;fill-opacity:1">
          <use
             id="use26920"
             x="470.31662"
             y="157.08099"
             width="744.09448"
             height="1052.3622"
             xlink:href="#textext-9961a2b2-15" />
        </g>
        <g
           id="g26922"
           style="fill:#000000;fill-opacity:1">
          <use
             id="use26924"
             x="475.29999"
             y="157.08099"
             width="744.09448"
             height="1052.3622"
             xlink:href="#textext-9961a2b2-2" />
        </g>
        <g
           id="g26926"
           style="fill:#000000;fill-opacity:1">
          <use
             id="use26928"
             x="485.57101"
             y="157.08099"
             width="744.09448"
             height="1052.3622"
             xlink:href="#textext-9961a2b2-14" />
        </g>
        <g
           id="g26930"
           style="fill:#000000;fill-opacity:1">
          <use
             id="use26932"
             x="495.53162"
             y="157.08099"
             width="744.09448"
             height="1052.3622"
             xlink:href="#textext-9961a2b2-12" />
          <use
             id="use26934"
             x="500.51291"
             y="157.08099"
             width="744.09448"
             height="1052.3622"
             xlink:href="#textext-9961a2b2-21" />
        </g>
        <g
           id="g26936"
           style="fill:#000000;fill-opacity:1">
          <use
             id="use26938"
             x="505.496"
             y="157.08099"
             width="744.09448"
             height="1052.3622"
             xlink:href="#textext-9961a2b2-4" />
        </g>
        <g
           id="g26940"
           style="fill:#000000;fill-opacity:1">
          <use
             id="use26942"
             x="303.72299"
             y="169.037"
             width="744.09448"
             height="1052.3622"
             xlink:href="#textext-9961a2b2-20" />
        </g>
        <g
           id="g26944"
           style="fill:#000000;fill-opacity:1">
          <use
             id="use26946"
             x="552.61865"
             y="169.037"
             width="744.09448"
             height="1052.3622"
             xlink:href="#textext-9961a2b2-17" />
          <use
             id="use26948"
             x="557.59991"
             y="169.037"
             width="744.09448"
             height="1052.3622"
             xlink:href="#textext-9961a2b2-22" />
          <use
             id="use26950"
             x="561.47437"
             y="169.037"
             width="744.09448"
             height="1052.3622"
             xlink:href="#textext-9961a2b2-23" />
          <use
             id="use26952"
             x="567.00958"
             y="169.037"
             width="744.09448"
             height="1052.3622"
             xlink:href="#textext-9961a2b2-24" />
          <use
             id="use26954"
             x="571.43701"
             y="169.037"
             width="744.09448"
             height="1052.3622"
             xlink:href="#textext-9961a2b2-18" />
          <use
             id="use26956"
             x="575.33936"
             y="169.037"
             width="744.09448"
             height="1052.3622"
             xlink:href="#textext-9961a2b2-25" />
          <use
             id="use26958"
             x="582.5343"
             y="169.037"
             width="744.09448"
             height="1052.3622"
             xlink:href="#textext-9961a2b2-26" />
          <use
             id="use26960"
             x="585.30194"
             y="169.037"
             width="744.09448"
             height="1052.3622"
             xlink:href="#textext-9961a2b2-27" />
          <use
             id="use26962"
             x="589.2312"
             y="169.037"
             width="744.09448"
             height="1052.3622"
             xlink:href="#textext-9961a2b2-24" />
        </g>
      </g>
    </g>
  </g>
</svg>
