<?xml version="1.0" encoding="UTF-8" standalone="no"?>
<!-- Created with Inkscape (http://www.inkscape.org/) -->

<svg
   xmlns:dc="http://purl.org/dc/elements/1.1/"
   xmlns:cc="http://creativecommons.org/ns#"
   xmlns:rdf="http://www.w3.org/1999/02/22-rdf-syntax-ns#"
   xmlns:svg="http://www.w3.org/2000/svg"
   xmlns="http://www.w3.org/2000/svg"
   xmlns:xlink="http://www.w3.org/1999/xlink"
   version="1.1"
   width="440"
   height="365"
   viewBox="0 0 440 365"
   id="svg100788">
  <desc
     id="desc100790">Produced by GNUPLOT 4.4 patchlevel 0 </desc>
  <metadata
     id="metadata101006">
    <rdf:RDF>
      <cc:Work
         rdf:about="">
        <dc:format>image/svg+xml</dc:format>
        <dc:type
           rdf:resource="http://purl.org/dc/dcmitype/StillImage" />
        <dc:title></dc:title>
      </cc:Work>
    </rdf:RDF>
  </metadata>
  <defs
     id="defs100792">
    <circle
       cx="0"
       cy="0"
       r="0.5"
       id="gpDot"
       style="stroke-width:0.5" />
    <path
       d="M -1,0 H 1 M 0,-1 v 2"
       id="gpPt0"
       style="stroke:currentColor;stroke-width:0.222" />
    <path
       d="M -1,-1 1,1 M 1,-1 -1,1"
       id="gpPt1"
       style="stroke:currentColor;stroke-width:0.222" />
    <path
       d="M -1,0 1,0 M 0,-1 0,1 m -1,-2 2,2 m -2,0 2,-2"
       id="gpPt2"
       style="stroke:currentColor;stroke-width:0.222" />
    <rect
       width="2"
       height="2"
       x="-1"
       y="-1"
       id="gpPt3"
       style="stroke:currentColor;stroke-width:0.222" />
    <rect
       width="2"
       height="2"
       x="-1"
       y="-1"
       id="gpPt4"
       style="fill:currentColor;stroke:currentColor;stroke-width:0.222" />
    <circle
       cx="0"
       cy="0"
       r="1"
       id="gpPt5"
       style="stroke:currentColor;stroke-width:0.222" />
    <use
       id="gpPt6"
       style="fill:currentColor;stroke:none"
       x="0"
       y="0"
       width="600"
       height="480"
       xlink:href="#gpPt5" />
    <path
       d="m 0,-1.33 -1.33,2 2.66,0 z"
       id="gpPt7"
       style="stroke:currentColor;stroke-width:0.222" />
    <use
       id="gpPt8"
       style="fill:currentColor;stroke:none"
       x="0"
       y="0"
       width="600"
       height="480"
       xlink:href="#gpPt7" />
    <use
       transform="scale(-1,-1)"
       id="gpPt9"
       style="stroke:currentColor"
       x="0"
       y="0"
       width="600"
       height="480"
       xlink:href="#gpPt7" />
    <use
       id="gpPt10"
       style="fill:currentColor;stroke:none"
       x="0"
       y="0"
       width="600"
       height="480"
       xlink:href="#gpPt9" />
    <use
       transform="matrix(0.70710678,0.70710678,-0.70710678,0.70710678,0,0)"
       id="gpPt11"
       style="stroke:currentColor"
       x="0"
       y="0"
       width="600"
       height="480"
       xlink:href="#gpPt3" />
    <use
       id="gpPt12"
       style="fill:currentColor;stroke:none"
       x="0"
       y="0"
       width="600"
       height="480"
       xlink:href="#gpPt11" />
  </defs>
  <g
     transform="translate(-60.172656,-54.883757)"
     id="g100808"
     style="color:#ffffff;fill:none;stroke:currentColor;stroke-width:1;stroke-linecap:butt;stroke-linejoin:miter" />
  <g
     transform="translate(-60.172656,-54.883757)"
     id="g100810"
     style="color:#000000;fill:none;stroke:currentColor;stroke-width:1;stroke-linecap:butt;stroke-linejoin:miter" />
  <g
     transform="matrix(0.8,0,0,0.8,-26.455859,-8.5106641)"
     id="g102751">
    <g
       id="g102551"
       style="color:#ffffff;fill:none;stroke:currentColor;stroke-width:1;stroke-linecap:butt;stroke-linejoin:miter" />
    <g
       id="g102553"
       style="color:#000000;fill:none;stroke:currentColor;stroke-width:1;stroke-linecap:butt;stroke-linejoin:miter" />
    <g
       id="g102555"
       style="color:#808080;fill:none;stroke:currentColor;stroke-width:1;stroke-linecap:butt;stroke-linejoin:miter">
      <path
         d="m 62.2,405.2 516.9,0"
         id="path102557" />
    </g>
    <g
       id="g102559"
       style="color:#000000;fill:none;stroke:currentColor;stroke-width:1;stroke-linecap:butt;stroke-linejoin:miter">
      <path
         d="m 62.2,405.2 9,0 m 507.9,0 -9,0"
         id="path102561" />
      <g
         transform="translate(53.9,409.7)"
         id="g102563"
         style="font-size:15px;text-anchor:end;fill:#000000;stroke:none;font-family:Arial">
        <text
           id="text102565">0</text>
      </g>
    </g>
    <g
       id="g102567"
       style="color:#808080;fill:none;stroke:currentColor;stroke-width:1;stroke-linecap:butt;stroke-linejoin:miter">
      <path
         d="m 62.2,327.5 516.9,0"
         id="path102569" />
    </g>
    <g
       id="g102571"
       style="color:#000000;fill:none;stroke:currentColor;stroke-width:1;stroke-linecap:butt;stroke-linejoin:miter">
      <path
         d="m 62.2,327.5 9,0 m 507.9,0 -9,0"
         id="path102573" />
      <g
         transform="translate(53.9,332)"
         id="g102575"
         style="font-size:15px;text-anchor:end;fill:#000000;stroke:none;font-family:Arial">
        <text
           id="text102577">0.2</text>
      </g>
    </g>
    <g
       id="g102579"
       style="color:#808080;fill:none;stroke:currentColor;stroke-width:1;stroke-linecap:butt;stroke-linejoin:miter">
      <path
         d="m 62.2,249.8 516.9,0"
         id="path102581" />
    </g>
    <g
       id="g102583"
       style="color:#000000;fill:none;stroke:currentColor;stroke-width:1;stroke-linecap:butt;stroke-linejoin:miter">
      <path
         d="m 62.2,249.8 9,0 m 507.9,0 -9,0"
         id="path102585" />
      <g
         transform="translate(53.9,254.3)"
         id="g102587"
         style="font-size:15px;text-anchor:end;fill:#000000;stroke:none;font-family:Arial">
        <text
           id="text102589">0.4</text>
      </g>
    </g>
    <g
       id="g102591"
       style="color:#808080;fill:none;stroke:currentColor;stroke-width:1;stroke-linecap:butt;stroke-linejoin:miter">
      <path
         d="m 62.2,172.1 516.9,0"
         id="path102593" />
    </g>
    <g
       id="g102595"
       style="color:#000000;fill:none;stroke:currentColor;stroke-width:1;stroke-linecap:butt;stroke-linejoin:miter">
      <path
         d="m 62.2,172.1 9,0 m 507.9,0 -9,0"
         id="path102597" />
      <g
         transform="translate(53.9,176.6)"
         id="g102599"
         style="font-size:15px;text-anchor:end;fill:#000000;stroke:none;font-family:Arial">
        <text
           id="text102601">0.6</text>
      </g>
    </g>
    <g
       id="g102603"
       style="color:#808080;fill:none;stroke:currentColor;stroke-width:1;stroke-linecap:butt;stroke-linejoin:miter">
      <path
         d="m 62.2,94.4 516.9,0"
         id="path102605" />
    </g>
    <g
       id="g102607"
       style="color:#000000;fill:none;stroke:currentColor;stroke-width:1;stroke-linecap:butt;stroke-linejoin:miter">
      <path
         d="m 62.2,94.4 9,0 m 507.9,0 -9,0"
         id="path102609" />
      <g
         transform="translate(53.9,98.9)"
         id="g102611"
         style="font-size:15px;text-anchor:end;fill:#000000;stroke:none;font-family:Arial">
        <text
           id="text102613">0.8</text>
      </g>
    </g>
    <g
       id="g102615"
       style="color:#808080;fill:none;stroke:currentColor;stroke-width:1;stroke-linecap:butt;stroke-linejoin:miter">
      <path
         d="m 62.2,16.7 516.9,0"
         id="path102617" />
    </g>
    <g
       id="g102619"
       style="color:#000000;fill:none;stroke:currentColor;stroke-width:1;stroke-linecap:butt;stroke-linejoin:miter">
      <path
         d="m 62.2,16.7 9,0 m 507.9,0 -9,0"
         id="path102621" />
      <g
         transform="translate(53.9,21.2)"
         id="g102623"
         style="font-size:15px;text-anchor:end;fill:#000000;stroke:none;font-family:Arial">
        <text
           id="text102625">1</text>
      </g>
    </g>
    <g
       id="g102627"
       style="color:#808080;fill:none;stroke:currentColor;stroke-width:1;stroke-linecap:butt;stroke-linejoin:miter">
      <path
         d="m 62.2,444 0,-427.3"
         id="path102629" />
    </g>
    <g
       id="g102631"
       style="color:#000000;fill:none;stroke:currentColor;stroke-width:1;stroke-linecap:butt;stroke-linejoin:miter">
      <path
         d="m 62.2,444 0,-9 m 0,-418.3 0,9"
         id="path102633" />
      <g
         transform="translate(62.2,466.5)"
         id="g102635"
         style="font-size:15px;text-anchor:middle;fill:#000000;stroke:none;font-family:Arial">
        <text
           id="text102637">-2</text>
      </g>
    </g>
    <g
       id="g102639"
       style="color:#808080;fill:none;stroke:currentColor;stroke-width:1;stroke-linecap:butt;stroke-linejoin:miter">
      <path
         d="m 126.8,444 0,-427.3"
         id="path102641" />
    </g>
    <g
       id="g102643"
       style="color:#000000;fill:none;stroke:currentColor;stroke-width:1;stroke-linecap:butt;stroke-linejoin:miter">
      <path
         d="m 126.8,444 0,-9 m 0,-418.3 0,9"
         id="path102645" />
      <g
         transform="translate(126.8,466.5)"
         id="g102647"
         style="font-size:15px;text-anchor:middle;fill:#000000;stroke:none;font-family:Arial">
        <text
           id="text102649">-1.5</text>
      </g>
    </g>
    <g
       id="g102651"
       style="color:#808080;fill:none;stroke:currentColor;stroke-width:1;stroke-linecap:butt;stroke-linejoin:miter">
      <path
         d="m 191.4,444 0,-427.3"
         id="path102653" />
    </g>
    <g
       id="g102655"
       style="color:#000000;fill:none;stroke:currentColor;stroke-width:1;stroke-linecap:butt;stroke-linejoin:miter">
      <path
         d="m 191.4,444 0,-9 m 0,-418.3 0,9"
         id="path102657" />
      <g
         transform="translate(191.4,466.5)"
         id="g102659"
         style="font-size:15px;text-anchor:middle;fill:#000000;stroke:none;font-family:Arial">
        <text
           id="text102661">-1</text>
      </g>
    </g>
    <g
       id="g102663"
       style="color:#808080;fill:none;stroke:currentColor;stroke-width:1;stroke-linecap:butt;stroke-linejoin:miter">
      <path
         d="M 256,444 256,16.7"
         id="path102665" />
    </g>
    <g
       id="g102667"
       style="color:#000000;fill:none;stroke:currentColor;stroke-width:1;stroke-linecap:butt;stroke-linejoin:miter">
      <path
         d="m 256,444 0,-9 m 0,-418.3 0,9"
         id="path102669" />
      <g
         transform="translate(256,466.5)"
         id="g102671"
         style="font-size:15px;text-anchor:middle;fill:#000000;stroke:none;font-family:Arial">
        <text
           id="text102673">-0.5</text>
      </g>
    </g>
    <g
       id="g102675"
       style="color:#808080;fill:none;stroke:currentColor;stroke-width:1;stroke-linecap:butt;stroke-linejoin:miter">
      <path
         d="m 320.7,444 0,-427.3"
         id="path102677" />
    </g>
    <g
       id="g102679"
       style="color:#000000;fill:none;stroke:currentColor;stroke-width:1;stroke-linecap:butt;stroke-linejoin:miter">
      <path
         d="m 320.7,444 0,-9 m 0,-418.3 0,9"
         id="path102681" />
      <g
         transform="translate(320.7,466.5)"
         id="g102683"
         style="font-size:15px;text-anchor:middle;fill:#000000;stroke:none;font-family:Arial">
        <text
           id="text102685">0</text>
      </g>
    </g>
    <g
       id="g102687"
       style="color:#808080;fill:none;stroke:currentColor;stroke-width:1;stroke-linecap:butt;stroke-linejoin:miter">
      <path
         d="m 385.3,444 0,-427.3"
         id="path102689" />
    </g>
    <g
       id="g102691"
       style="color:#000000;fill:none;stroke:currentColor;stroke-width:1;stroke-linecap:butt;stroke-linejoin:miter">
      <path
         d="m 385.3,444 0,-9 m 0,-418.3 0,9"
         id="path102693" />
      <g
         transform="translate(385.3,466.5)"
         id="g102695"
         style="font-size:15px;text-anchor:middle;fill:#000000;stroke:none;font-family:Arial">
        <text
           id="text102697">0.5</text>
      </g>
    </g>
    <g
       id="g102699"
       style="color:#808080;fill:none;stroke:currentColor;stroke-width:1;stroke-linecap:butt;stroke-linejoin:miter">
      <path
         d="m 449.9,444 0,-427.3"
         id="path102701" />
    </g>
    <g
       id="g102703"
       style="color:#000000;fill:none;stroke:currentColor;stroke-width:1;stroke-linecap:butt;stroke-linejoin:miter">
      <path
         d="m 449.9,444 0,-9 m 0,-418.3 0,9"
         id="path102705" />
      <g
         transform="translate(449.9,466.5)"
         id="g102707"
         style="font-size:15px;text-anchor:middle;fill:#000000;stroke:none;font-family:Arial">
        <text
           id="text102709">1</text>
      </g>
    </g>
    <g
       id="g102711"
       style="color:#808080;fill:none;stroke:currentColor;stroke-width:1;stroke-linecap:butt;stroke-linejoin:miter">
      <path
         d="m 514.5,444 0,-427.3"
         id="path102713" />
    </g>
    <g
       id="g102715"
       style="color:#000000;fill:none;stroke:currentColor;stroke-width:1;stroke-linecap:butt;stroke-linejoin:miter">
      <path
         d="m 514.5,444 0,-9 m 0,-418.3 0,9"
         id="path102717" />
      <g
         transform="translate(514.5,466.5)"
         id="g102719"
         style="font-size:15px;text-anchor:middle;fill:#000000;stroke:none;font-family:Arial">
        <text
           id="text102721">1.5</text>
      </g>
    </g>
    <g
       id="g102723"
       style="color:#808080;fill:none;stroke:currentColor;stroke-width:1;stroke-linecap:butt;stroke-linejoin:miter">
      <path
         d="m 579.1,444 0,-427.3"
         id="path102725" />
    </g>
    <g
       id="g102727"
       style="color:#000000;fill:none;stroke:currentColor;stroke-width:1;stroke-linecap:butt;stroke-linejoin:miter">
      <path
         d="m 579.1,444 0,-9 m 0,-418.3 0,9"
         id="path102729" />
      <g
         transform="translate(579.1,466.5)"
         id="g102731"
         style="font-size:15px;text-anchor:middle;fill:#000000;stroke:none;font-family:Arial">
        <text
           id="text102733">2</text>
      </g>
      <path
         d="m 62.2,16.7 0,427.3 516.9,0 0,-427.3 -516.9,0 z"
         id="path102735" />
    </g>
    <a
       xlink:title="Plot #1"
       id="a102737">
      <g
         id="g102739"
         style="color:#ff0000;fill:none;stroke:currentColor;stroke-width:1;stroke-linecap:butt;stroke-linejoin:miter">
        <path
           d="m 62.2,405.2 5.2,0.2 5.2,0.5 5.3,0.9 5.2,1.1 5.2,1.3 5.2,1.4 5.2,1.5 5.3,1.5 5.2,1.4 5.2,1.3 5.2,1.2 5.3,0.9 5.2,0.6 5.2,0.2 5.2,-0.1 5.2,-0.6 5.3,-1.2 5.2,-1.8 5.2,-2.4 5.2,-3.1 5.2,-3.9 5.3,-4.7 5.2,-5.7 5.2,-6.5 5.2,-7.6 5.3,-9.3 5.2,-10.9 5.2,-12.4 5.2,-13.7 5.2,-14.8 5.3,-15.8 5.2,-16.6 5.2,-17.2 5.2,-17.6 5.2,-17.9 5.3,-17.9 5.2,-17.9 5.2,-17.5 5.2,-17 5.2,-16.4 5.3,-15.6 5.2,-14.5 5.2,-13.4 5.2,-11.9 5.3,-10.5 5.2,-8.7 5.2,-6.8 5.2,-4.7 5.2,-2.4 5.3,0 5.2,2.4 5.2,4.7 5.2,6.8 5.2,8.7 5.3,10.5 5.2,11.9 5.2,13.4 5.2,14.5 5.3,15.6 5.2,16.4 5.2,17 5.2,17.5 5.2,17.9 5.3,17.9 5.2,17.9 5.2,17.6 5.2,17.2 5.2,16.6 5.3,15.8 5.2,14.8 5.2,13.7 5.2,12.4 5.2,10.9 5.3,9.3 5.2,7.6 5.2,6.5 5.2,5.7 5.3,4.7 5.2,3.9 5.2,3.1 5.2,2.4 5.2,1.8 5.3,1.2 5.2,0.6 5.2,0.1 5.2,-0.2 5.2,-0.6 5.3,-0.9 5.2,-1.2 5.2,-1.3 5.2,-1.4 5.3,-1.5 5.2,-1.5 5.2,-1.4 5.2,-1.3 5.2,-1.1 5.3,-0.9 5.2,-0.5 5.2,-0.2"
           id="path102741" />
      </g>
    </a>
    <g
       id="g102743"
       style="color:#000000;fill:none;stroke:currentColor;stroke-width:1;stroke-linecap:butt;stroke-linejoin:miter">
      <path
         d="m 62.2,16.7 0,427.3 516.9,0 0,-427.3 -516.9,0 z"
         id="path102745" />
    </g>
  </g>
</svg>
