<?xml version="1.0" encoding="UTF-8" standalone="no"?>
<!-- Created with Inkscape (http://www.inkscape.org/) -->

<svg
   xmlns:ns0="http://www.iki.fi/pav/software/textext/"
   xmlns:dc="http://purl.org/dc/elements/1.1/"
   xmlns:cc="http://creativecommons.org/ns#"
   xmlns:rdf="http://www.w3.org/1999/02/22-rdf-syntax-ns#"
   xmlns:svg="http://www.w3.org/2000/svg"
   xmlns="http://www.w3.org/2000/svg"
   xmlns:xlink="http://www.w3.org/1999/xlink"
   xmlns:sodipodi="http://sodipodi.sourceforge.net/DTD/sodipodi-0.dtd"
   xmlns:inkscape="http://www.inkscape.org/namespaces/inkscape"
   width="370"
   height="48"
   id="svg9409"
   version="1.1"
   inkscape:version="0.48.1 r9760"
   sodipodi:docname="Lanczos2DInterpolationFunction.svg">
  <defs
     id="defs9411" />
  <sodipodi:namedview
     id="base"
     pagecolor="#ffffff"
     bordercolor="#666666"
     borderopacity="1.0"
     inkscape:pageopacity="0.0"
     inkscape:pageshadow="2"
     inkscape:zoom="0.98994949"
     inkscape:cx="111.24177"
     inkscape:cy="73.613386"
     inkscape:document-units="px"
     inkscape:current-layer="layer1"
     showgrid="false"
     fit-margin-top="0"
     fit-margin-left="0"
     fit-margin-right="0"
     fit-margin-bottom="0"
     inkscape:window-width="1498"
     inkscape:window-height="1059"
     inkscape:window-x="563"
     inkscape:window-y="144"
     inkscape:window-maximized="0" />
  <metadata
     id="metadata9414">
    <rdf:RDF>
      <cc:Work
         rdf:about="">
        <dc:format>image/svg+xml</dc:format>
        <dc:type
           rdf:resource="http://purl.org/dc/dcmitype/StillImage" />
        <dc:title></dc:title>
      </cc:Work>
    </rdf:RDF>
  </metadata>
  <g
     inkscape:label="Layer 1"
     inkscape:groupmode="layer"
     id="layer1"
     transform="translate(-237.09676,-565.32153)">
    <g
       id="g87560"
       transform="matrix(2,0,0,2,-362.32023,315.81016)"
       ns0:preamble=""
       ns0:text="$$\nf(x) = \\left\\{\n\t\\begin{array}{l l}\n\t\tf(\\lfloor x \\rfloor)\t&amp; \\quad \\mbox{for} \\; x - \\lfloor x \\rfloor &lt; 1/2 \\\\\n\t\tf(\\lfloor x \\rfloor+1) &amp; \\quad \\mbox{otherwise} \\\\\n\t\\end{array}\n\t\\right.\n$$">
      <defs
         id="defs87562">
        <g
           id="g87564">
          <symbol
             style="overflow:visible"
             id="textext-10300c62-0"
             overflow="visible">
            <path
               inkscape:connector-curvature="0"
               id="path87567"
               d="m 3.65625,-3.984375 0.859375,0 c 0.203125,0 0.296875,0 0.296875,-0.203125 0,-0.109375 -0.09375,-0.109375 -0.265625,-0.109375 l -0.828125,0 C 3.828125,-4.875 3.8125,-4.859375 3.921875,-5.4375 c 0.046875,-0.203125 0.1875,-0.90625 0.25,-1.03125 0.078125,-0.1875 0.25,-0.34375 0.46875,-0.34375 0.03125,0 0.296875,0 0.484375,0.1875 -0.4375,0.03125 -0.546875,0.390625 -0.546875,0.53125 0,0.234375 0.1875,0.359375 0.375,0.359375 C 5.21875,-5.734375 5.5,-5.96875 5.5,-6.34375 c 0,-0.453125 -0.453125,-0.6875 -0.859375,-0.6875 -0.34375,0 -0.96875,0.1875 -1.265625,1.171875 -0.0625,0.203125 -0.09375,0.3125 -0.328125,1.5625 l -0.6875,0 c -0.203125,0 -0.3125,0 -0.3125,0.1875 0,0.125 0.09375,0.125 0.28125,0.125 l 0.65625,0 -0.734375,3.9375 c -0.1875,0.96875 -0.359375,1.875 -0.875,1.875 -0.046875,0 -0.28125,0 -0.484375,-0.1875 C 1.359375,1.609375 1.453125,1.25 1.453125,1.109375 1.453125,0.875 1.265625,0.75 1.078125,0.75 0.8125,0.75 0.53125,0.984375 0.53125,1.359375 c 0,0.4375 0.4375,0.6875 0.84375,0.6875 0.546875,0 0.953125,-0.59375 1.125,-0.96875 0.328125,-0.625 0.546875,-1.828125 0.5625,-1.90625 z m 0,0"
               style="stroke:none" />
          </symbol>
          <symbol
             style="overflow:visible"
             id="textext-10300c62-1"
             overflow="visible">
            <path
               inkscape:connector-curvature="0"
               id="path87570"
               d="M 3.328125,-3.015625 C 3.390625,-3.265625 3.625,-4.1875 4.3125,-4.1875 c 0.046875,0 0.296875,0 0.5,0.125 C 4.53125,-4 4.34375,-3.765625 4.34375,-3.515625 c 0,0.15625 0.109375,0.34375 0.375,0.34375 0.21875,0 0.53125,-0.171875 0.53125,-0.578125 0,-0.515625 -0.578125,-0.65625 -0.921875,-0.65625 -0.578125,0 -0.921875,0.53125 -1.046875,0.75 -0.25,-0.65625 -0.78125,-0.75 -1.078125,-0.75 -1.03125,0 -1.609375,1.28125 -1.609375,1.53125 0,0.109375 0.109375,0.109375 0.125,0.109375 0.078125,0 0.109375,-0.03125 0.125,-0.109375 0.34375,-1.0625 1,-1.3125 1.34375,-1.3125 0.1875,0 0.53125,0.09375 0.53125,0.671875 0,0.3125 -0.171875,0.96875 -0.53125,2.375 -0.15625,0.609375 -0.515625,1.03125 -0.953125,1.03125 -0.0625,0 -0.28125,0 -0.5,-0.125 0.25,-0.0625 0.46875,-0.265625 0.46875,-0.546875 0,-0.265625 -0.21875,-0.34375 -0.359375,-0.34375 -0.3125,0 -0.546875,0.25 -0.546875,0.578125 0,0.453125 0.484375,0.65625 0.921875,0.65625 0.671875,0 1.03125,-0.703125 1.046875,-0.75 0.125,0.359375 0.484375,0.75 1.078125,0.75 1.03125,0 1.59375,-1.28125 1.59375,-1.53125 0,-0.109375 -0.078125,-0.109375 -0.109375,-0.109375 -0.09375,0 -0.109375,0.046875 -0.140625,0.109375 -0.328125,1.078125 -1,1.3125 -1.3125,1.3125 -0.390625,0 -0.546875,-0.3125 -0.546875,-0.65625 0,-0.21875 0.046875,-0.4375 0.15625,-0.875 z m 0,0"
               style="stroke:none" />
          </symbol>
          <symbol
             style="overflow:visible"
             id="textext-10300c62-2"
             overflow="visible">
            <path
               inkscape:connector-curvature="0"
               id="path87573"
               d="m 6.734375,-4.96875 c 0.109375,-0.0625 0.1875,-0.109375 0.1875,-0.21875 0,-0.109375 -0.09375,-0.203125 -0.203125,-0.203125 -0.03125,0 -0.046875,0 -0.171875,0.078125 l -5.53125,2.59375 c -0.109375,0.0625 -0.1875,0.109375 -0.1875,0.21875 0,0.125 0.078125,0.171875 0.1875,0.234375 l 5.53125,2.59375 C 6.671875,0.40625 6.6875,0.40625 6.71875,0.40625 c 0.109375,0 0.203125,-0.09375 0.203125,-0.203125 0,-0.109375 -0.078125,-0.15625 -0.1875,-0.21875 L 1.5,-2.5 z m 0,0"
               style="stroke:none" />
          </symbol>
          <symbol
             style="overflow:visible"
             id="textext-10300c62-3"
             overflow="visible">
            <path
               inkscape:connector-curvature="0"
               id="path87576"
               d="m 4.375,-7.09375 c 0.046875,-0.140625 0.046875,-0.171875 0.046875,-0.1875 0,-0.109375 -0.078125,-0.203125 -0.1875,-0.203125 -0.078125,0 -0.140625,0.03125 -0.171875,0.09375 l -3.46875,9.5 C 0.546875,2.25 0.546875,2.28125 0.546875,2.296875 0.546875,2.40625 0.640625,2.5 0.75,2.5 0.875,2.5 0.90625,2.421875 0.96875,2.25 z m 0,0"
               style="stroke:none" />
          </symbol>
          <symbol
             style="overflow:visible"
             id="textext-10300c62-4"
             overflow="visible">
            <path
               inkscape:connector-curvature="0"
               id="path87579"
               d="m 3.296875,2.390625 c 0,-0.03125 0,-0.046875 -0.171875,-0.21875 C 1.890625,0.921875 1.5625,-0.96875 1.5625,-2.5 c 0,-1.734375 0.375,-3.46875 1.609375,-4.703125 0.125,-0.125 0.125,-0.140625 0.125,-0.171875 0,-0.078125 -0.03125,-0.109375 -0.09375,-0.109375 -0.109375,0 -1,0.6875 -1.59375,1.953125 -0.5,1.09375 -0.625,2.203125 -0.625,3.03125 0,0.78125 0.109375,1.984375 0.65625,3.125 C 2.25,1.84375 3.09375,2.5 3.203125,2.5 c 0.0625,0 0.09375,-0.03125 0.09375,-0.109375 z m 0,0"
               style="stroke:none" />
          </symbol>
          <symbol
             style="overflow:visible"
             id="textext-10300c62-5"
             overflow="visible">
            <path
               inkscape:connector-curvature="0"
               id="path87582"
               d="m 2.875,-2.5 c 0,-0.765625 -0.109375,-1.96875 -0.65625,-3.109375 -0.59375,-1.21875 -1.453125,-1.875 -1.546875,-1.875 -0.0625,0 -0.109375,0.046875 -0.109375,0.109375 0,0.03125 0,0.046875 0.1875,0.234375 0.984375,0.984375 1.546875,2.5625 1.546875,4.640625 0,1.71875 -0.359375,3.46875 -1.59375,4.71875 C 0.5625,2.34375 0.5625,2.359375 0.5625,2.390625 0.5625,2.453125 0.609375,2.5 0.671875,2.5 0.765625,2.5 1.671875,1.8125 2.25,0.546875 2.765625,-0.546875 2.875,-1.65625 2.875,-2.5 z m 0,0"
               style="stroke:none" />
          </symbol>
          <symbol
             style="overflow:visible"
             id="textext-10300c62-6"
             overflow="visible">
            <path
               inkscape:connector-curvature="0"
               id="path87585"
               d="m 6.84375,-3.265625 c 0.15625,0 0.34375,0 0.34375,-0.1875 C 7.1875,-3.65625 7,-3.65625 6.859375,-3.65625 l -5.96875,0 c -0.140625,0 -0.328125,0 -0.328125,0.203125 0,0.1875 0.1875,0.1875 0.328125,0.1875 z m 0.015625,1.9375 c 0.140625,0 0.328125,0 0.328125,-0.203125 0,-0.1875 -0.1875,-0.1875 -0.34375,-0.1875 l -5.953125,0 c -0.140625,0 -0.328125,0 -0.328125,0.1875 0,0.203125 0.1875,0.203125 0.328125,0.203125 z m 0,0"
               style="stroke:none" />
          </symbol>
          <symbol
             style="overflow:visible"
             id="textext-10300c62-7"
             overflow="visible">
            <path
               inkscape:connector-curvature="0"
               id="path87588"
               d="m 1.78125,-3.984375 1.125,0 0,-0.3125 -1.15625,0 0,-1.15625 c 0,-0.875 0.46875,-1.359375 0.90625,-1.359375 0.03125,0 0.1875,0 0.328125,0.078125 C 2.875,-6.703125 2.6875,-6.5625 2.6875,-6.3125 c 0,0.21875 0.15625,0.421875 0.4375,0.421875 0.28125,0 0.4375,-0.203125 0.4375,-0.4375 0,-0.375 -0.375,-0.703125 -0.90625,-0.703125 -0.6875,0 -1.546875,0.53125 -1.546875,1.59375 l 0,1.140625 -0.78125,0 0,0.3125 0.78125,0 0,3.234375 c 0,0.4375 -0.109375,0.4375 -0.765625,0.4375 l 0,0.3125 c 0.390625,-0.015625 0.859375,-0.03125 1.125,-0.03125 0.40625,0 0.875,0 1.265625,0.03125 l 0,-0.3125 -0.203125,0 c -0.734375,0 -0.75,-0.109375 -0.75,-0.46875 z m 0,0"
               style="stroke:none" />
          </symbol>
          <symbol
             style="overflow:visible"
             id="textext-10300c62-8"
             overflow="visible">
            <path
               inkscape:connector-curvature="0"
               id="path87591"
               d="M 4.6875,-2.140625 C 4.6875,-3.40625 3.703125,-4.46875 2.5,-4.46875 c -1.25,0 -2.21875,1.09375 -2.21875,2.328125 0,1.296875 1.03125,2.25 2.203125,2.25 1.203125,0 2.203125,-0.984375 2.203125,-2.25 z m -2.1875,2 c -0.4375,0 -0.875,-0.203125 -1.140625,-0.671875 -0.25,-0.4375 -0.25,-1.046875 -0.25,-1.40625 0,-0.390625 0,-0.921875 0.234375,-1.359375 C 1.609375,-4.03125 2.078125,-4.25 2.484375,-4.25 c 0.4375,0 0.859375,0.21875 1.125,0.65625 0.265625,0.421875 0.265625,1 0.265625,1.375 0,0.359375 0,0.90625 -0.21875,1.34375 C 3.421875,-0.421875 2.984375,-0.140625 2.5,-0.140625 z m 0,0"
               style="stroke:none" />
          </symbol>
          <symbol
             style="overflow:visible"
             id="textext-10300c62-9"
             overflow="visible">
            <path
               inkscape:connector-curvature="0"
               id="path87594"
               d="m 1.71875,-0.78125 0,-1.53125 c 0,-0.984375 0.421875,-1.875 1.171875,-1.875 0.0625,0 0.09375,0 0.109375,0.015625 -0.03125,0 -0.234375,0.125 -0.234375,0.390625 0,0.265625 0.21875,0.421875 0.4375,0.421875 0.171875,0 0.421875,-0.125 0.421875,-0.4375 0,-0.3125 -0.3125,-0.609375 -0.734375,-0.609375 -0.734375,0 -1.09375,0.671875 -1.21875,1.09375 l 0,-1.09375 -1.390625,0.109375 0,0.3125 c 0.703125,0 0.78125,0.0625 0.78125,0.5625 l 0,2.671875 c 0,0.4375 -0.109375,0.4375 -0.78125,0.4375 l 0,0.3125 c 0.390625,-0.015625 0.859375,-0.03125 1.140625,-0.03125 0.390625,0 0.859375,0 1.265625,0.03125 l 0,-0.3125 -0.21875,0 c -0.734375,0 -0.75,-0.109375 -0.75,-0.46875 z m 0,0"
               style="stroke:none" />
          </symbol>
          <symbol
             style="overflow:visible"
             id="textext-10300c62-10"
             overflow="visible">
            <path
               inkscape:connector-curvature="0"
               id="path87597"
               d="m 2.9375,-6.375 c 0,-0.25 0,-0.265625 -0.234375,-0.265625 C 2.078125,-6 1.203125,-6 0.890625,-6 l 0,0.3125 c 0.203125,0 0.78125,0 1.296875,-0.265625 l 0,5.171875 c 0,0.359375 -0.03125,0.46875 -0.921875,0.46875 l -0.3125,0 0,0.3125 c 0.34375,-0.03125 1.203125,-0.03125 1.609375,-0.03125 0.390625,0 1.265625,0 1.609375,0.03125 l 0,-0.3125 -0.3125,0 c -0.90625,0 -0.921875,-0.109375 -0.921875,-0.46875 z m 0,0"
               style="stroke:none" />
          </symbol>
          <symbol
             style="overflow:visible"
             id="textext-10300c62-11"
             overflow="visible">
            <path
               inkscape:connector-curvature="0"
               id="path87600"
               d="m 4.46875,-1.734375 -0.234375,0 C 4.171875,-1.4375 4.109375,-1 4,-0.84375 3.9375,-0.765625 3.28125,-0.765625 3.0625,-0.765625 l -1.796875,0 1.0625,-1.03125 c 1.546875,-1.375 2.140625,-1.90625 2.140625,-2.90625 0,-1.140625 -0.890625,-1.9375 -2.109375,-1.9375 -1.125,0 -1.859375,0.921875 -1.859375,1.8125 0,0.546875 0.5,0.546875 0.53125,0.546875 0.171875,0 0.515625,-0.109375 0.515625,-0.53125 0,-0.25 -0.1875,-0.515625 -0.53125,-0.515625 -0.078125,0 -0.09375,0 -0.125,0.015625 0.21875,-0.65625 0.765625,-1.015625 1.34375,-1.015625 0.90625,0 1.328125,0.8125 1.328125,1.625 C 3.5625,-3.90625 3.078125,-3.125 2.515625,-2.5 l -1.90625,2.125 C 0.5,-0.265625 0.5,-0.234375 0.5,0 l 3.703125,0 z m 0,0"
               style="stroke:none" />
          </symbol>
          <symbol
             style="overflow:visible"
             id="textext-10300c62-12"
             overflow="visible">
            <path
               inkscape:connector-curvature="0"
               id="path87603"
               d="m 4.078125,-2.296875 2.78125,0 C 7,-2.296875 7.1875,-2.296875 7.1875,-2.5 7.1875,-2.6875 7,-2.6875 6.859375,-2.6875 l -2.78125,0 0,-2.796875 c 0,-0.140625 0,-0.328125 -0.203125,-0.328125 -0.203125,0 -0.203125,0.1875 -0.203125,0.328125 l 0,2.796875 -2.78125,0 c -0.140625,0 -0.328125,0 -0.328125,0.1875 0,0.203125 0.1875,0.203125 0.328125,0.203125 l 2.78125,0 0,2.796875 c 0,0.140625 0,0.328125 0.203125,0.328125 0.203125,0 0.203125,-0.1875 0.203125,-0.328125 z m 0,0"
               style="stroke:none" />
          </symbol>
          <symbol
             style="overflow:visible"
             id="textext-10300c62-13"
             overflow="visible">
            <path
               inkscape:connector-curvature="0"
               id="path87606"
               d="m 1.71875,-3.984375 1.4375,0 0,-0.3125 -1.4375,0 0,-1.828125 -0.25,0 c 0,0.8125 -0.296875,1.875 -1.28125,1.921875 l 0,0.21875 0.84375,0 0,2.75 c 0,1.21875 0.9375,1.34375 1.296875,1.34375 0.703125,0 0.984375,-0.703125 0.984375,-1.34375 l 0,-0.5625 -0.25,0 0,0.546875 c 0,0.734375 -0.296875,1.109375 -0.671875,1.109375 -0.671875,0 -0.671875,-0.90625 -0.671875,-1.078125 z m 0,0"
               style="stroke:none" />
          </symbol>
          <symbol
             style="overflow:visible"
             id="textext-10300c62-14"
             overflow="visible">
            <path
               inkscape:connector-curvature="0"
               id="path87609"
               d="m 4.5625,-2.515625 c 0,-0.859375 0,-1.15625 -0.3125,-1.515625 -0.140625,-0.171875 -0.46875,-0.375 -1.046875,-0.375 -0.84375,0 -1.28125,0.59375 -1.4375,0.953125 l -0.015625,0 0,-3.46875 -1.4375,0.109375 0,0.3125 c 0.703125,0 0.78125,0.0625 0.78125,0.5625 l 0,5.1875 c 0,0.4375 -0.109375,0.4375 -0.78125,0.4375 l 0,0.3125 c 0.359375,-0.015625 0.859375,-0.03125 1.140625,-0.03125 0.25,0 0.765625,0.015625 1.109375,0.03125 l 0,-0.3125 c -0.671875,0 -0.78125,0 -0.78125,-0.4375 l 0,-1.84375 C 1.78125,-3.625 2.5,-4.1875 3.125,-4.1875 c 0.640625,0 0.75,0.53125 0.75,1.109375 l 0,2.328125 c 0,0.4375 -0.109375,0.4375 -0.78125,0.4375 l 0,0.3125 c 0.34375,-0.015625 0.859375,-0.03125 1.125,-0.03125 0.25,0 0.78125,0.015625 1.109375,0.03125 l 0,-0.3125 c -0.515625,0 -0.765625,0 -0.765625,-0.296875 z m 0,0"
               style="stroke:none" />
          </symbol>
          <symbol
             style="overflow:visible"
             id="textext-10300c62-15"
             overflow="visible">
            <path
               inkscape:connector-curvature="0"
               id="path87612"
               d="m 3.890625,-2.296875 c 0.21875,0 0.25,0 0.25,-0.21875 0,-0.984375 -0.546875,-1.953125 -1.78125,-1.953125 -1.15625,0 -2.078125,1.03125 -2.078125,2.28125 0,1.328125 1.046875,2.296875 2.1875,2.296875 C 3.6875,0.109375 4.140625,-1 4.140625,-1.1875 4.140625,-1.28125 4.0625,-1.3125 4,-1.3125 c -0.078125,0 -0.109375,0.0625 -0.125,0.140625 -0.34375,1.03125 -1.25,1.03125 -1.34375,1.03125 -0.5,0 -0.890625,-0.296875 -1.125,-0.671875 -0.296875,-0.46875 -0.296875,-1.125 -0.296875,-1.484375 z m -2.78125,-0.21875 C 1.171875,-4 2.015625,-4.25 2.359375,-4.25 c 1.015625,0 1.125,1.34375 1.125,1.734375 z m 0,0"
               style="stroke:none" />
          </symbol>
          <symbol
             style="overflow:visible"
             id="textext-10300c62-16"
             overflow="visible">
            <path
               inkscape:connector-curvature="0"
               id="path87615"
               d="m 6.171875,-3.34375 c 0.171875,-0.5 0.484375,-0.640625 0.84375,-0.640625 l 0,-0.3125 C 6.78125,-4.28125 6.5,-4.265625 6.28125,-4.265625 c -0.296875,0 -0.734375,-0.015625 -0.921875,-0.03125 l 0,0.3125 c 0.359375,0 0.578125,0.1875 0.578125,0.46875 0,0.0625 0,0.09375 -0.0625,0.21875 L 4.96875,-0.75 3.984375,-3.53125 C 3.953125,-3.65625 3.9375,-3.671875 3.9375,-3.71875 c 0,-0.265625 0.390625,-0.265625 0.59375,-0.265625 l 0,-0.3125 c -0.296875,0.015625 -0.796875,0.03125 -1.046875,0.03125 -0.296875,0 -0.578125,-0.015625 -0.875,-0.03125 l 0,0.3125 c 0.359375,0 0.515625,0.015625 0.625,0.140625 0.046875,0.0625 0.15625,0.359375 0.21875,0.546875 L 2.609375,-0.875 1.65625,-3.53125 C 1.609375,-3.65625 1.609375,-3.671875 1.609375,-3.71875 1.609375,-3.984375 2,-3.984375 2.1875,-3.984375 l 0,-0.3125 c -0.296875,0.015625 -0.859375,0.03125 -1.078125,0.03125 -0.046875,0 -0.578125,-0.015625 -0.9375,-0.03125 l 0,0.3125 c 0.5,0 0.625,0.03125 0.75,0.34375 l 1.25,3.53125 C 2.21875,0.03125 2.25,0.109375 2.375,0.109375 c 0.140625,0 0.15625,-0.0625 0.203125,-0.203125 l 1.015625,-2.8125 1.015625,2.828125 c 0.03125,0.109375 0.0625,0.1875 0.203125,0.1875 0.125,0 0.15625,-0.09375 0.1875,-0.1875 z m 0,0"
               style="stroke:none" />
          </symbol>
          <symbol
             style="overflow:visible"
             id="textext-10300c62-17"
             overflow="visible">
            <path
               inkscape:connector-curvature="0"
               id="path87618"
               d="M 1.765625,-4.40625 0.375,-4.296875 l 0,0.3125 c 0.640625,0 0.734375,0.0625 0.734375,0.546875 l 0,2.6875 c 0,0.4375 -0.109375,0.4375 -0.78125,0.4375 l 0,0.3125 C 0.640625,-0.015625 1.1875,-0.03125 1.421875,-0.03125 1.78125,-0.03125 2.125,-0.015625 2.46875,0 l 0,-0.3125 c -0.671875,0 -0.703125,-0.046875 -0.703125,-0.4375 z m 0.03125,-1.734375 c 0,-0.3125 -0.234375,-0.53125 -0.515625,-0.53125 -0.3125,0 -0.53125,0.265625 -0.53125,0.53125 0,0.265625 0.21875,0.53125 0.53125,0.53125 0.28125,0 0.515625,-0.21875 0.515625,-0.53125 z m 0,0"
               style="stroke:none" />
          </symbol>
          <symbol
             style="overflow:visible"
             id="textext-10300c62-18"
             overflow="visible">
            <path
               inkscape:connector-curvature="0"
               id="path87621"
               d="m 2.078125,-1.9375 c 0.21875,0.046875 1.03125,0.203125 1.03125,0.921875 0,0.5 -0.34375,0.90625 -1.125,0.90625 -0.84375,0 -1.203125,-0.5625 -1.390625,-1.421875 C 0.5625,-1.65625 0.5625,-1.6875 0.453125,-1.6875 c -0.125,0 -0.125,0.0625 -0.125,0.234375 l 0,1.328125 c 0,0.171875 0,0.234375 0.109375,0.234375 0.046875,0 0.0625,-0.015625 0.25,-0.203125 0.015625,-0.015625 0.015625,-0.03125 0.203125,-0.21875 0.4375,0.40625 0.890625,0.421875 1.09375,0.421875 1.140625,0 1.609375,-0.671875 1.609375,-1.390625 0,-0.515625 -0.296875,-0.828125 -0.421875,-0.9375 C 2.84375,-2.546875 2.453125,-2.625 2.03125,-2.703125 1.46875,-2.8125 0.8125,-2.9375 0.8125,-3.515625 c 0,-0.359375 0.25,-0.765625 1.109375,-0.765625 1.09375,0 1.15625,0.90625 1.171875,1.203125 0,0.09375 0.09375,0.09375 0.109375,0.09375 0.140625,0 0.140625,-0.046875 0.140625,-0.234375 l 0,-1.015625 c 0,-0.15625 0,-0.234375 -0.109375,-0.234375 -0.046875,0 -0.078125,0 -0.203125,0.125 -0.03125,0.03125 -0.125,0.125 -0.171875,0.15625 -0.375,-0.28125 -0.78125,-0.28125 -0.9375,-0.28125 -1.21875,0 -1.59375,0.671875 -1.59375,1.234375 0,0.34375 0.15625,0.625 0.421875,0.84375 0.328125,0.25 0.609375,0.3125 1.328125,0.453125 z m 0,0"
               style="stroke:none" />
          </symbol>
          <symbol
             style="overflow:visible"
             id="textext-10300c62-19"
             overflow="visible">
            <path
               inkscape:connector-curvature="0"
               id="path87624"
               d="m 3.3125,20.421875 c 0,1.453125 1,2.390625 2.234375,2.984375 0.21875,0.109375 0.25,0.109375 0.390625,0.109375 0.21875,0 0.21875,0 0.21875,-0.21875 0,-0.15625 0,-0.171875 -0.078125,-0.21875 C 5.65625,22.875 4.375,22.234375 4.171875,20.796875 c -0.03125,-0.140625 -0.03125,-0.25 -0.03125,-0.84375 l 0,-5.109375 c 0,-0.46875 0,-1.203125 -0.625,-2.015625 C 3.125,12.328125 2.5625,11.875 1.875,11.5625 3.8125,10.625 4.140625,9.1875 4.140625,8.625 l 0,-5.75 c 0,-0.609375 0,-1.890625 1.9375,-2.84375 0.078125,-0.046875 0.078125,-0.0625 0.078125,-0.203125 0,-0.21875 0,-0.234375 -0.21875,-0.234375 -0.140625,0 -0.15625,0 -0.421875,0.125 C 4.53125,0.203125 3.5625,1 3.34375,2.21875 3.3125,2.40625 3.3125,2.5 3.3125,3.171875 l 0,4.609375 c 0,0.296875 0,0.828125 0,0.9375 -0.09375,1.046875 -0.703125,1.953125 -1.84375,2.578125 -0.15625,0.09375 -0.15625,0.09375 -0.15625,0.25 0,0.171875 0,0.1875 0.140625,0.265625 0.671875,0.375 1.625,1.09375 1.828125,2.328125 C 3.3125,14.375 3.3125,14.390625 3.3125,14.5 z m 0,0"
               style="stroke:none" />
          </symbol>
          <symbol
             style="overflow:visible"
             id="textext-10300c62-20"
             overflow="visible">
            <path
               inkscape:connector-curvature="0"
               id="path87627"
               d="m 3.875,2.5 c 0.15625,0 0.328125,0 0.328125,-0.203125 C 4.203125,2.09375 4.03125,2.09375 3.875,2.09375 l -1.734375,0 0,-9.234375 c 0,-0.140625 0,-0.34375 -0.203125,-0.34375 -0.203125,0 -0.203125,0.203125 -0.203125,0.34375 l 0,9.296875 C 1.734375,2.453125 1.78125,2.5 2.078125,2.5 z m 0,0"
               style="stroke:none" />
          </symbol>
          <symbol
             style="overflow:visible"
             id="textext-10300c62-21"
             overflow="visible">
            <path
               inkscape:connector-curvature="0"
               id="path87630"
               d="m 2.6875,-7.140625 c 0,-0.140625 0,-0.34375 -0.203125,-0.34375 -0.203125,0 -0.203125,0.203125 -0.203125,0.34375 l 0,9.234375 -1.75,0 c -0.140625,0 -0.328125,0 -0.328125,0.203125 C 0.203125,2.5 0.390625,2.5 0.53125,2.5 l 1.828125,0 C 2.640625,2.5 2.6875,2.453125 2.6875,2.15625 z m 0,0"
               style="stroke:none" />
          </symbol>
          <symbol
             style="overflow:visible"
             id="textext-10300c62-22"
             overflow="visible">
            <path
               inkscape:connector-curvature="0"
               id="path87633"
               d="m 6.59375,-2.296875 c 0.140625,0 0.328125,0 0.328125,-0.203125 0,-0.1875 -0.1875,-0.1875 -0.328125,-0.1875 l -5.4375,0 c -0.140625,0 -0.328125,0 -0.328125,0.1875 0,0.203125 0.1875,0.203125 0.328125,0.203125 z m 0,0"
               style="stroke:none" />
          </symbol>
        </g>
      </defs>
      <g
         id="textext-10300c62-23">
        <g
           id="g87636"
           style="fill:#000000;fill-opacity:1">
          <use
             height="1052.3622"
             width="744.09448"
             id="use87638"
             y="139.248"
             x="299.298"
             xlink:href="#textext-10300c62-0" />
        </g>
        <g
           id="g87640"
           style="fill:#000000;fill-opacity:1">
          <use
             height="1052.3622"
             width="744.09448"
             id="use87642"
             y="139.248"
             x="305.24799"
             xlink:href="#textext-10300c62-4" />
        </g>
        <g
           id="g87644"
           style="fill:#000000;fill-opacity:1">
          <use
             height="1052.3622"
             width="744.09448"
             id="use87646"
             y="139.248"
             x="309.12201"
             xlink:href="#textext-10300c62-1" />
        </g>
        <g
           id="g87648"
           style="fill:#000000;fill-opacity:1">
          <use
             height="1052.3622"
             width="744.09448"
             id="use87650"
             y="139.248"
             x="314.81601"
             xlink:href="#textext-10300c62-5" />
        </g>
        <g
           id="g87652"
           style="fill:#000000;fill-opacity:1">
          <use
             height="1052.3622"
             width="744.09448"
             id="use87654"
             y="139.248"
             x="321.46005"
             xlink:href="#textext-10300c62-6" />
        </g>
        <g
           id="g87656"
           style="fill:#000000;fill-opacity:1">
          <use
             height="1052.3622"
             width="744.09448"
             id="use87658"
             y="125.201"
             x="331.974"
             xlink:href="#textext-10300c62-19" />
        </g>
        <g
           id="g87660"
           style="fill:#000000;fill-opacity:1">
          <use
             height="1052.3622"
             width="744.09448"
             id="use87662"
             y="133.17101"
             x="344.427"
             xlink:href="#textext-10300c62-0" />
        </g>
        <g
           id="g87664"
           style="fill:#000000;fill-opacity:1">
          <use
             height="1052.3622"
             width="744.09448"
             id="use87666"
             y="133.17101"
             x="350.37701"
             xlink:href="#textext-10300c62-4" />
        </g>
        <g
           id="g87668"
           style="fill:#000000;fill-opacity:1">
          <use
             height="1052.3622"
             width="744.09448"
             id="use87670"
             y="133.17101"
             x="354.25101"
             xlink:href="#textext-10300c62-20" />
        </g>
        <g
           id="g87672"
           style="fill:#000000;fill-opacity:1">
          <use
             height="1052.3622"
             width="744.09448"
             id="use87674"
             y="133.17101"
             x="358.67899"
             xlink:href="#textext-10300c62-1" />
        </g>
        <g
           id="g87676"
           style="fill:#000000;fill-opacity:1">
          <use
             height="1052.3622"
             width="744.09448"
             id="use87678"
             y="133.17101"
             x="364.37299"
             xlink:href="#textext-10300c62-21" />
        </g>
        <g
           id="g87680"
           style="fill:#000000;fill-opacity:1">
          <use
             height="1052.3622"
             width="744.09448"
             id="use87682"
             y="133.17101"
             x="368.80099"
             xlink:href="#textext-10300c62-5" />
        </g>
        <g
           id="g87684"
           style="fill:#000000;fill-opacity:1">
          <use
             height="1052.3622"
             width="744.09448"
             id="use87686"
             y="133.17101"
             x="409.75626"
             xlink:href="#textext-10300c62-7" />
          <use
             height="1052.3622"
             width="744.09448"
             id="use87688"
             y="133.17101"
             x="412.80081"
             xlink:href="#textext-10300c62-8" />
          <use
             height="1052.3622"
             width="744.09448"
             id="use87690"
             y="133.17101"
             x="417.78214"
             xlink:href="#textext-10300c62-9" />
        </g>
        <g
           id="g87692"
           style="fill:#000000;fill-opacity:1">
          <use
             height="1052.3622"
             width="744.09448"
             id="use87694"
             y="133.17101"
             x="424.453"
             xlink:href="#textext-10300c62-1" />
        </g>
        <g
           id="g87696"
           style="fill:#000000;fill-opacity:1">
          <use
             height="1052.3622"
             width="744.09448"
             id="use87698"
             y="133.17101"
             x="432.36099"
             xlink:href="#textext-10300c62-22" />
        </g>
        <g
           id="g87700"
           style="fill:#000000;fill-opacity:1">
          <use
             height="1052.3622"
             width="744.09448"
             id="use87702"
             y="133.17101"
             x="442.32159"
             xlink:href="#textext-10300c62-20" />
        </g>
        <g
           id="g87704"
           style="fill:#000000;fill-opacity:1">
          <use
             height="1052.3622"
             width="744.09448"
             id="use87706"
             y="133.17101"
             x="446.75201"
             xlink:href="#textext-10300c62-1" />
        </g>
        <g
           id="g87708"
           style="fill:#000000;fill-opacity:1">
          <use
             height="1052.3622"
             width="744.09448"
             id="use87710"
             y="133.17101"
             x="452.44501"
             xlink:href="#textext-10300c62-21" />
        </g>
        <g
           id="g87712"
           style="fill:#000000;fill-opacity:1">
          <use
             height="1052.3622"
             width="744.09448"
             id="use87714"
             y="133.17101"
             x="459.64099"
             xlink:href="#textext-10300c62-2" />
        </g>
        <g
           id="g87716"
           style="fill:#000000;fill-opacity:1">
          <use
             height="1052.3622"
             width="744.09448"
             id="use87718"
             y="133.17101"
             x="470.15701"
             xlink:href="#textext-10300c62-10" />
        </g>
        <g
           id="g87720"
           style="fill:#000000;fill-opacity:1">
          <use
             height="1052.3622"
             width="744.09448"
             id="use87722"
             y="133.17101"
             x="475.138"
             xlink:href="#textext-10300c62-3" />
        </g>
        <g
           id="g87724"
           style="fill:#000000;fill-opacity:1">
          <use
             height="1052.3622"
             width="744.09448"
             id="use87726"
             y="133.17101"
             x="480.11899"
             xlink:href="#textext-10300c62-11" />
        </g>
        <g
           id="g87728"
           style="fill:#000000;fill-opacity:1">
          <use
             height="1052.3622"
             width="744.09448"
             id="use87730"
             y="145.12601"
             x="344.427"
             xlink:href="#textext-10300c62-0" />
        </g>
        <g
           id="g87732"
           style="fill:#000000;fill-opacity:1">
          <use
             height="1052.3622"
             width="744.09448"
             id="use87734"
             y="145.12601"
             x="350.37701"
             xlink:href="#textext-10300c62-4" />
        </g>
        <g
           id="g87736"
           style="fill:#000000;fill-opacity:1">
          <use
             height="1052.3622"
             width="744.09448"
             id="use87738"
             y="145.12601"
             x="354.25101"
             xlink:href="#textext-10300c62-20" />
        </g>
        <g
           id="g87740"
           style="fill:#000000;fill-opacity:1">
          <use
             height="1052.3622"
             width="744.09448"
             id="use87742"
             y="145.12601"
             x="358.67899"
             xlink:href="#textext-10300c62-1" />
        </g>
        <g
           id="g87744"
           style="fill:#000000;fill-opacity:1">
          <use
             height="1052.3622"
             width="744.09448"
             id="use87746"
             y="145.12601"
             x="364.37299"
             xlink:href="#textext-10300c62-21" />
        </g>
        <g
           id="g87748"
           style="fill:#000000;fill-opacity:1">
          <use
             height="1052.3622"
             width="744.09448"
             id="use87750"
             y="145.12601"
             x="371.01501"
             xlink:href="#textext-10300c62-12" />
        </g>
        <g
           id="g87752"
           style="fill:#000000;fill-opacity:1">
          <use
             height="1052.3622"
             width="744.09448"
             id="use87754"
             y="145.12601"
             x="380.97562"
             xlink:href="#textext-10300c62-10" />
          <use
             height="1052.3622"
             width="744.09448"
             id="use87756"
             y="145.12601"
             x="385.95691"
             xlink:href="#textext-10300c62-5" />
        </g>
        <g
           id="g87758"
           style="fill:#000000;fill-opacity:1">
          <use
             height="1052.3622"
             width="744.09448"
             id="use87760"
             y="145.12601"
             x="409.75656"
             xlink:href="#textext-10300c62-8" />
          <use
             height="1052.3622"
             width="744.09448"
             id="use87762"
             y="145.12601"
             x="414.73785"
             xlink:href="#textext-10300c62-13" />
          <use
             height="1052.3622"
             width="744.09448"
             id="use87764"
             y="145.12601"
             x="418.6123"
             xlink:href="#textext-10300c62-14" />
          <use
             height="1052.3622"
             width="744.09448"
             id="use87766"
             y="145.12601"
             x="424.14755"
             xlink:href="#textext-10300c62-15" />
          <use
             height="1052.3622"
             width="744.09448"
             id="use87768"
             y="145.12601"
             x="428.57492"
             xlink:href="#textext-10300c62-9" />
          <use
             height="1052.3622"
             width="744.09448"
             id="use87770"
             y="145.12601"
             x="432.47726"
             xlink:href="#textext-10300c62-16" />
          <use
             height="1052.3622"
             width="744.09448"
             id="use87772"
             y="145.12601"
             x="439.67227"
             xlink:href="#textext-10300c62-17" />
          <use
             height="1052.3622"
             width="744.09448"
             id="use87774"
             y="145.12601"
             x="442.43988"
             xlink:href="#textext-10300c62-18" />
          <use
             height="1052.3622"
             width="744.09448"
             id="use87776"
             y="145.12601"
             x="446.36911"
             xlink:href="#textext-10300c62-15" />
        </g>
      </g>
    </g>
  </g>
</svg>
