<?xml version="1.0" encoding="UTF-8" standalone="no"?>
<!-- Created with Inkscape (http://www.inkscape.org/) -->

<svg
   xmlns:dc="http://purl.org/dc/elements/1.1/"
   xmlns:cc="http://creativecommons.org/ns#"
   xmlns:rdf="http://www.w3.org/1999/02/22-rdf-syntax-ns#"
   xmlns:svg="http://www.w3.org/2000/svg"
   xmlns="http://www.w3.org/2000/svg"
   xmlns:xlink="http://www.w3.org/1999/xlink"
   version="1.1"
   width="302"
   height="64"
   id="svg12183">
  <defs
     id="defs12185" />
  <metadata
     id="metadata12188">
    <rdf:RDF>
      <cc:Work
         rdf:about="">
        <dc:format>image/svg+xml</dc:format>
        <dc:type
           rdf:resource="http://purl.org/dc/dcmitype/StillImage" />
        <dc:title></dc:title>
      </cc:Work>
    </rdf:RDF>
  </metadata>
  <g
     transform="translate(-212.80986,-506.97731)"
     id="layer1">
    <g
       transform="matrix(2,0,0,2,-420.62944,254.92519)"
       id="g10125">
      <defs
         id="defs10127">
        <g
           id="g10129">
          <symbol
             id="textext-f3614946-0"
             style="overflow:visible">
            <path
               d="m 2.078125,-1.9375 c 0.21875,0.046875 1.03125,0.203125 1.03125,0.921875 0,0.5 -0.34375,0.90625 -1.125,0.90625 -0.84375,0 -1.203125,-0.5625 -1.390625,-1.421875 C 0.5625,-1.65625 0.5625,-1.6875 0.453125,-1.6875 c -0.125,0 -0.125,0.0625 -0.125,0.234375 l 0,1.328125 c 0,0.171875 0,0.234375 0.109375,0.234375 0.046875,0 0.0625,-0.015625 0.25,-0.203125 0.015625,-0.015625 0.015625,-0.03125 0.203125,-0.21875 0.4375,0.40625 0.890625,0.421875 1.09375,0.421875 1.140625,0 1.609375,-0.671875 1.609375,-1.390625 0,-0.515625 -0.296875,-0.828125 -0.421875,-0.9375 C 2.84375,-2.546875 2.453125,-2.625 2.03125,-2.703125 1.46875,-2.8125 0.8125,-2.9375 0.8125,-3.515625 c 0,-0.359375 0.25,-0.765625 1.109375,-0.765625 1.09375,0 1.15625,0.90625 1.171875,1.203125 0,0.09375 0.09375,0.09375 0.109375,0.09375 0.140625,0 0.140625,-0.046875 0.140625,-0.234375 l 0,-1.015625 c 0,-0.15625 0,-0.234375 -0.109375,-0.234375 -0.046875,0 -0.078125,0 -0.203125,0.125 -0.03125,0.03125 -0.125,0.125 -0.171875,0.15625 -0.375,-0.28125 -0.78125,-0.28125 -0.9375,-0.28125 -1.21875,0 -1.59375,0.671875 -1.59375,1.234375 0,0.34375 0.15625,0.625 0.421875,0.84375 0.328125,0.25 0.609375,0.3125 1.328125,0.453125 z m 0,0"
               id="path10132"
               style="stroke:none" />
          </symbol>
          <symbol
             id="textext-f3614946-1"
             style="overflow:visible">
            <path
               d="M 1.765625,-4.40625 0.375,-4.296875 l 0,0.3125 c 0.640625,0 0.734375,0.0625 0.734375,0.546875 l 0,2.6875 c 0,0.4375 -0.109375,0.4375 -0.78125,0.4375 l 0,0.3125 C 0.640625,-0.015625 1.1875,-0.03125 1.421875,-0.03125 1.78125,-0.03125 2.125,-0.015625 2.46875,0 l 0,-0.3125 c -0.671875,0 -0.703125,-0.046875 -0.703125,-0.4375 z m 0.03125,-1.734375 c 0,-0.3125 -0.234375,-0.53125 -0.515625,-0.53125 -0.3125,0 -0.53125,0.265625 -0.53125,0.53125 0,0.265625 0.21875,0.53125 0.53125,0.53125 0.28125,0 0.515625,-0.21875 0.515625,-0.53125 z m 0,0"
               id="path10135"
               style="stroke:none" />
          </symbol>
          <symbol
             id="textext-f3614946-2"
             style="overflow:visible">
            <path
               d="m 1.09375,-3.421875 0,2.671875 c 0,0.4375 -0.109375,0.4375 -0.78125,0.4375 l 0,0.3125 c 0.359375,-0.015625 0.859375,-0.03125 1.140625,-0.03125 0.25,0 0.765625,0.015625 1.109375,0.03125 l 0,-0.3125 c -0.671875,0 -0.78125,0 -0.78125,-0.4375 l 0,-1.84375 C 1.78125,-3.625 2.5,-4.1875 3.125,-4.1875 c 0.640625,0 0.75,0.53125 0.75,1.109375 l 0,2.328125 c 0,0.4375 -0.109375,0.4375 -0.78125,0.4375 l 0,0.3125 c 0.34375,-0.015625 0.859375,-0.03125 1.125,-0.03125 0.25,0 0.78125,0.015625 1.109375,0.03125 l 0,-0.3125 c -0.515625,0 -0.765625,0 -0.765625,-0.296875 l 0,-1.90625 c 0,-0.859375 0,-1.15625 -0.3125,-1.515625 -0.140625,-0.171875 -0.46875,-0.375 -1.046875,-0.375 C 2.46875,-4.40625 2,-3.984375 1.71875,-3.359375 l 0,-1.046875 -1.40625,0.109375 0,0.3125 c 0.703125,0 0.78125,0.0625 0.78125,0.5625 z m 0,0"
               id="path10138"
               style="stroke:none" />
          </symbol>
          <symbol
             id="textext-f3614946-3"
             style="overflow:visible">
            <path
               d="m 3.578125,-3.84375 c -0.40625,0.03125 -0.46875,0.328125 -0.46875,0.453125 0,0.265625 0.1875,0.453125 0.453125,0.453125 0.265625,0 0.46875,-0.15625 0.46875,-0.46875 0,-0.671875 -0.765625,-1.0625 -1.53125,-1.0625 -1.25,0 -2.15625,1.078125 -2.15625,2.3125 0,1.28125 0.984375,2.265625 2.140625,2.265625 1.328125,0 1.65625,-1.203125 1.65625,-1.296875 0,-0.09375 -0.109375,-0.09375 -0.140625,-0.09375 -0.078125,0 -0.109375,0.03125 -0.125,0.09375 -0.28125,0.921875 -0.9375,1.046875 -1.296875,1.046875 -0.53125,0 -1.40625,-0.421875 -1.40625,-2.03125 0,-1.625 0.8125,-2.046875 1.34375,-2.046875 0.09375,0 0.71875,0.015625 1.0625,0.375 z m 0,0"
               id="path10141"
               style="stroke:none" />
          </symbol>
          <symbol
             id="textext-f3614946-4"
             style="overflow:visible">
            <path
               d="m 3.296875,2.390625 c 0,-0.03125 0,-0.046875 -0.171875,-0.21875 C 1.890625,0.921875 1.5625,-0.96875 1.5625,-2.5 c 0,-1.734375 0.375,-3.46875 1.609375,-4.703125 0.125,-0.125 0.125,-0.140625 0.125,-0.171875 0,-0.078125 -0.03125,-0.109375 -0.09375,-0.109375 -0.109375,0 -1,0.6875 -1.59375,1.953125 -0.5,1.09375 -0.625,2.203125 -0.625,3.03125 0,0.78125 0.109375,1.984375 0.65625,3.125 C 2.25,1.84375 3.09375,2.5 3.203125,2.5 c 0.0625,0 0.09375,-0.03125 0.09375,-0.109375 z m 0,0"
               id="path10144"
               style="stroke:none" />
          </symbol>
          <symbol
             id="textext-f3614946-5"
             style="overflow:visible">
            <path
               d="m 2.875,-2.5 c 0,-0.765625 -0.109375,-1.96875 -0.65625,-3.109375 -0.59375,-1.21875 -1.453125,-1.875 -1.546875,-1.875 -0.0625,0 -0.109375,0.046875 -0.109375,0.109375 0,0.03125 0,0.046875 0.1875,0.234375 0.984375,0.984375 1.546875,2.5625 1.546875,4.640625 0,1.71875 -0.359375,3.46875 -1.59375,4.71875 C 0.5625,2.34375 0.5625,2.359375 0.5625,2.390625 0.5625,2.453125 0.609375,2.5 0.671875,2.5 0.765625,2.5 1.671875,1.8125 2.25,0.546875 2.765625,-0.546875 2.875,-1.65625 2.875,-2.5 z m 0,0"
               id="path10147"
               style="stroke:none" />
          </symbol>
          <symbol
             id="textext-f3614946-6"
             style="overflow:visible">
            <path
               d="m 6.84375,-3.265625 c 0.15625,0 0.34375,0 0.34375,-0.1875 C 7.1875,-3.65625 7,-3.65625 6.859375,-3.65625 l -5.96875,0 c -0.140625,0 -0.328125,0 -0.328125,0.203125 0,0.1875 0.1875,0.1875 0.328125,0.1875 z m 0.015625,1.9375 c 0.140625,0 0.328125,0 0.328125,-0.203125 0,-0.1875 -0.1875,-0.1875 -0.34375,-0.1875 l -5.953125,0 c -0.140625,0 -0.328125,0 -0.328125,0.1875 0,0.203125 0.1875,0.203125 0.328125,0.203125 z m 0,0"
               id="path10150"
               style="stroke:none" />
          </symbol>
          <symbol
             id="textext-f3614946-7"
             style="overflow:visible">
            <path
               d="m 2.9375,-6.375 c 0,-0.25 0,-0.265625 -0.234375,-0.265625 C 2.078125,-6 1.203125,-6 0.890625,-6 l 0,0.3125 c 0.203125,0 0.78125,0 1.296875,-0.265625 l 0,5.171875 c 0,0.359375 -0.03125,0.46875 -0.921875,0.46875 l -0.3125,0 0,0.3125 c 0.34375,-0.03125 1.203125,-0.03125 1.609375,-0.03125 0.390625,0 1.265625,0 1.609375,0.03125 l 0,-0.3125 -0.3125,0 c -0.90625,0 -0.921875,-0.109375 -0.921875,-0.46875 z m 0,0"
               id="path10153"
               style="stroke:none" />
          </symbol>
          <symbol
             id="textext-f3614946-8"
             style="overflow:visible">
            <path
               d="m 1.78125,-3.984375 1.125,0 0,-0.3125 -1.15625,0 0,-1.15625 c 0,-0.875 0.46875,-1.359375 0.90625,-1.359375 0.03125,0 0.1875,0 0.328125,0.078125 C 2.875,-6.703125 2.6875,-6.5625 2.6875,-6.3125 c 0,0.21875 0.15625,0.421875 0.4375,0.421875 0.28125,0 0.4375,-0.203125 0.4375,-0.4375 0,-0.375 -0.375,-0.703125 -0.90625,-0.703125 -0.6875,0 -1.546875,0.53125 -1.546875,1.59375 l 0,1.140625 -0.78125,0 0,0.3125 0.78125,0 0,3.234375 c 0,0.4375 -0.109375,0.4375 -0.765625,0.4375 l 0,0.3125 c 0.390625,-0.015625 0.859375,-0.03125 1.125,-0.03125 0.40625,0 0.875,0 1.265625,0.03125 l 0,-0.3125 -0.203125,0 c -0.734375,0 -0.75,-0.109375 -0.75,-0.46875 z m 0,0"
               id="path10156"
               style="stroke:none" />
          </symbol>
          <symbol
             id="textext-f3614946-9"
             style="overflow:visible">
            <path
               d="M 4.6875,-2.140625 C 4.6875,-3.40625 3.703125,-4.46875 2.5,-4.46875 c -1.25,0 -2.21875,1.09375 -2.21875,2.328125 0,1.296875 1.03125,2.25 2.203125,2.25 1.203125,0 2.203125,-0.984375 2.203125,-2.25 z m -2.1875,2 c -0.4375,0 -0.875,-0.203125 -1.140625,-0.671875 -0.25,-0.4375 -0.25,-1.046875 -0.25,-1.40625 0,-0.390625 0,-0.921875 0.234375,-1.359375 C 1.609375,-4.03125 2.078125,-4.25 2.484375,-4.25 c 0.4375,0 0.859375,0.21875 1.125,0.65625 0.265625,0.421875 0.265625,1 0.265625,1.375 0,0.359375 0,0.90625 -0.21875,1.34375 C 3.421875,-0.421875 2.984375,-0.140625 2.5,-0.140625 z m 0,0"
               id="path10159"
               style="stroke:none" />
          </symbol>
          <symbol
             id="textext-f3614946-10"
             style="overflow:visible">
            <path
               d="m 1.71875,-0.78125 0,-1.53125 c 0,-0.984375 0.421875,-1.875 1.171875,-1.875 0.0625,0 0.09375,0 0.109375,0.015625 -0.03125,0 -0.234375,0.125 -0.234375,0.390625 0,0.265625 0.21875,0.421875 0.4375,0.421875 0.171875,0 0.421875,-0.125 0.421875,-0.4375 0,-0.3125 -0.3125,-0.609375 -0.734375,-0.609375 -0.734375,0 -1.09375,0.671875 -1.21875,1.09375 l 0,-1.09375 -1.390625,0.109375 0,0.3125 c 0.703125,0 0.78125,0.0625 0.78125,0.5625 l 0,2.671875 c 0,0.4375 -0.109375,0.4375 -0.78125,0.4375 l 0,0.3125 c 0.390625,-0.015625 0.859375,-0.03125 1.140625,-0.03125 0.390625,0 0.859375,0 1.265625,0.03125 l 0,-0.3125 -0.21875,0 c -0.734375,0 -0.75,-0.109375 -0.75,-0.46875 z m 0,0"
               id="path10162"
               style="stroke:none" />
          </symbol>
          <symbol
             id="textext-f3614946-11"
             style="overflow:visible">
            <path
               d="m 4.578125,-3.1875 c 0,-0.796875 -0.046875,-1.59375 -0.390625,-2.328125 -0.453125,-0.96875 -1.28125,-1.125 -1.6875,-1.125 -0.609375,0 -1.328125,0.265625 -1.75,1.1875 -0.3125,0.6875 -0.359375,1.46875 -0.359375,2.265625 0,0.75 0.03125,1.640625 0.453125,2.40625 0.421875,0.796875 1.15625,1 1.640625,1 0.53125,0 1.296875,-0.203125 1.734375,-1.15625 0.3125,-0.6875 0.359375,-1.46875 0.359375,-2.25 z M 2.484375,0 C 2.09375,0 1.5,-0.25 1.328125,-1.203125 1.21875,-1.796875 1.21875,-2.71875 1.21875,-3.3125 c 0,-0.640625 0,-1.296875 0.078125,-1.828125 0.1875,-1.1875 0.9375,-1.28125 1.1875,-1.28125 0.328125,0 0.984375,0.1875 1.171875,1.171875 0.109375,0.5625 0.109375,1.3125 0.109375,1.9375 0,0.75 0,1.421875 -0.109375,2.0625 C 3.5,-0.296875 2.9375,0 2.484375,0 z m 0,0"
               id="path10165"
               style="stroke:none" />
          </symbol>
          <symbol
             id="textext-f3614946-12"
             style="overflow:visible">
            <path
               d="m 1.71875,-3.984375 1.4375,0 0,-0.3125 -1.4375,0 0,-1.828125 -0.25,0 c 0,0.8125 -0.296875,1.875 -1.28125,1.921875 l 0,0.21875 0.84375,0 0,2.75 c 0,1.21875 0.9375,1.34375 1.296875,1.34375 0.703125,0 0.984375,-0.703125 0.984375,-1.34375 l 0,-0.5625 -0.25,0 0,0.546875 c 0,0.734375 -0.296875,1.109375 -0.671875,1.109375 -0.671875,0 -0.671875,-0.90625 -0.671875,-1.078125 z m 0,0"
               id="path10168"
               style="stroke:none" />
          </symbol>
          <symbol
             id="textext-f3614946-13"
             style="overflow:visible">
            <path
               d="m 4.5625,-2.515625 c 0,-0.859375 0,-1.15625 -0.3125,-1.515625 -0.140625,-0.171875 -0.46875,-0.375 -1.046875,-0.375 -0.84375,0 -1.28125,0.59375 -1.4375,0.953125 l -0.015625,0 0,-3.46875 -1.4375,0.109375 0,0.3125 c 0.703125,0 0.78125,0.0625 0.78125,0.5625 l 0,5.1875 c 0,0.4375 -0.109375,0.4375 -0.78125,0.4375 l 0,0.3125 c 0.359375,-0.015625 0.859375,-0.03125 1.140625,-0.03125 0.25,0 0.765625,0.015625 1.109375,0.03125 l 0,-0.3125 c -0.671875,0 -0.78125,0 -0.78125,-0.4375 l 0,-1.84375 C 1.78125,-3.625 2.5,-4.1875 3.125,-4.1875 c 0.640625,0 0.75,0.53125 0.75,1.109375 l 0,2.328125 c 0,0.4375 -0.109375,0.4375 -0.78125,0.4375 l 0,0.3125 c 0.34375,-0.015625 0.859375,-0.03125 1.125,-0.03125 0.25,0 0.78125,0.015625 1.109375,0.03125 l 0,-0.3125 c -0.515625,0 -0.765625,0 -0.765625,-0.296875 z m 0,0"
               id="path10171"
               style="stroke:none" />
          </symbol>
          <symbol
             id="textext-f3614946-14"
             style="overflow:visible">
            <path
               d="m 3.890625,-2.296875 c 0.21875,0 0.25,0 0.25,-0.21875 0,-0.984375 -0.546875,-1.953125 -1.78125,-1.953125 -1.15625,0 -2.078125,1.03125 -2.078125,2.28125 0,1.328125 1.046875,2.296875 2.1875,2.296875 C 3.6875,0.109375 4.140625,-1 4.140625,-1.1875 4.140625,-1.28125 4.0625,-1.3125 4,-1.3125 c -0.078125,0 -0.109375,0.0625 -0.125,0.140625 -0.34375,1.03125 -1.25,1.03125 -1.34375,1.03125 -0.5,0 -0.890625,-0.296875 -1.125,-0.671875 -0.296875,-0.46875 -0.296875,-1.125 -0.296875,-1.484375 z m -2.78125,-0.21875 C 1.171875,-4 2.015625,-4.25 2.359375,-4.25 c 1.015625,0 1.125,1.34375 1.125,1.734375 z m 0,0"
               id="path10174"
               style="stroke:none" />
          </symbol>
          <symbol
             id="textext-f3614946-15"
             style="overflow:visible">
            <path
               d="m 6.171875,-3.34375 c 0.171875,-0.5 0.484375,-0.640625 0.84375,-0.640625 l 0,-0.3125 C 6.78125,-4.28125 6.5,-4.265625 6.28125,-4.265625 c -0.296875,0 -0.734375,-0.015625 -0.921875,-0.03125 l 0,0.3125 c 0.359375,0 0.578125,0.1875 0.578125,0.46875 0,0.0625 0,0.09375 -0.0625,0.21875 L 4.96875,-0.75 3.984375,-3.53125 C 3.953125,-3.65625 3.9375,-3.671875 3.9375,-3.71875 c 0,-0.265625 0.390625,-0.265625 0.59375,-0.265625 l 0,-0.3125 c -0.296875,0.015625 -0.796875,0.03125 -1.046875,0.03125 -0.296875,0 -0.578125,-0.015625 -0.875,-0.03125 l 0,0.3125 c 0.359375,0 0.515625,0.015625 0.625,0.140625 0.046875,0.0625 0.15625,0.359375 0.21875,0.546875 L 2.609375,-0.875 1.65625,-3.53125 C 1.609375,-3.65625 1.609375,-3.671875 1.609375,-3.71875 1.609375,-3.984375 2,-3.984375 2.1875,-3.984375 l 0,-0.3125 c -0.296875,0.015625 -0.859375,0.03125 -1.078125,0.03125 -0.046875,0 -0.578125,-0.015625 -0.9375,-0.03125 l 0,0.3125 c 0.5,0 0.625,0.03125 0.75,0.34375 l 1.25,3.53125 C 2.21875,0.03125 2.25,0.109375 2.375,0.109375 c 0.140625,0 0.15625,-0.0625 0.203125,-0.203125 l 1.015625,-2.8125 1.015625,2.828125 c 0.03125,0.109375 0.0625,0.1875 0.203125,0.1875 0.125,0 0.15625,-0.09375 0.1875,-0.1875 z m 0,0"
               id="path10177"
               style="stroke:none" />
          </symbol>
          <symbol
             id="textext-f3614946-16"
             style="overflow:visible">
            <path
               d="M 3.328125,-3.015625 C 3.390625,-3.265625 3.625,-4.1875 4.3125,-4.1875 c 0.046875,0 0.296875,0 0.5,0.125 C 4.53125,-4 4.34375,-3.765625 4.34375,-3.515625 c 0,0.15625 0.109375,0.34375 0.375,0.34375 0.21875,0 0.53125,-0.171875 0.53125,-0.578125 0,-0.515625 -0.578125,-0.65625 -0.921875,-0.65625 -0.578125,0 -0.921875,0.53125 -1.046875,0.75 -0.25,-0.65625 -0.78125,-0.75 -1.078125,-0.75 -1.03125,0 -1.609375,1.28125 -1.609375,1.53125 0,0.109375 0.109375,0.109375 0.125,0.109375 0.078125,0 0.109375,-0.03125 0.125,-0.109375 0.34375,-1.0625 1,-1.3125 1.34375,-1.3125 0.1875,0 0.53125,0.09375 0.53125,0.671875 0,0.3125 -0.171875,0.96875 -0.53125,2.375 -0.15625,0.609375 -0.515625,1.03125 -0.953125,1.03125 -0.0625,0 -0.28125,0 -0.5,-0.125 0.25,-0.0625 0.46875,-0.265625 0.46875,-0.546875 0,-0.265625 -0.21875,-0.34375 -0.359375,-0.34375 -0.3125,0 -0.546875,0.25 -0.546875,0.578125 0,0.453125 0.484375,0.65625 0.921875,0.65625 0.671875,0 1.03125,-0.703125 1.046875,-0.75 0.125,0.359375 0.484375,0.75 1.078125,0.75 1.03125,0 1.59375,-1.28125 1.59375,-1.53125 0,-0.109375 -0.078125,-0.109375 -0.109375,-0.109375 -0.09375,0 -0.109375,0.046875 -0.140625,0.109375 -0.328125,1.078125 -1,1.3125 -1.3125,1.3125 -0.390625,0 -0.546875,-0.3125 -0.546875,-0.65625 0,-0.21875 0.046875,-0.4375 0.15625,-0.875 z m 0,0"
               id="path10180"
               style="stroke:none" />
          </symbol>
          <symbol
             id="textext-f3614946-17"
             style="overflow:visible">
            <path
               d="m 2.640625,-3.71875 1.125,0 C 3.4375,-2.25 3.34375,-1.8125 3.34375,-1.140625 c 0,0.140625 0,0.40625 0.078125,0.75 0.109375,0.4375 0.21875,0.5 0.359375,0.5 0.203125,0 0.421875,-0.171875 0.421875,-0.375 0,-0.0625 0,-0.078125 -0.0625,-0.21875 -0.296875,-0.71875 -0.296875,-1.375 -0.296875,-1.65625 0,-0.515625 0.078125,-1.0625 0.1875,-1.578125 l 1.125,0 c 0.140625,0 0.5,0 0.5,-0.34375 0,-0.234375 -0.21875,-0.234375 -0.40625,-0.234375 l -3.34375,0 c -0.21875,0 -0.59375,0 -1.03125,0.46875 -0.34375,0.390625 -0.609375,0.84375 -0.609375,0.890625 0,0.015625 0,0.109375 0.125,0.109375 0.078125,0 0.09375,-0.046875 0.15625,-0.125 C 1.03125,-3.71875 1.609375,-3.71875 1.8125,-3.71875 l 0.5625,0 C 2.0625,-2.515625 1.53125,-1.3125 1.109375,-0.40625 1.03125,-0.25 1.03125,-0.234375 1.03125,-0.15625 c 0,0.1875 0.15625,0.265625 0.28125,0.265625 0.296875,0 0.375,-0.28125 0.5,-0.640625 C 1.953125,-1 1.953125,-1.015625 2.078125,-1.515625 z m 0,0"
               id="path10183"
               style="stroke:none" />
          </symbol>
          <symbol
             id="textext-f3614946-18"
             style="overflow:visible">
            <path
               d="m 3.53125,25.875 c 0,0.796875 0.5,2.46875 2.421875,3.5 0.234375,0.125 0.25,0.125 0.40625,0.125 0.21875,0 0.234375,-0.01563 0.234375,-0.234375 0,-0.171875 -0.015625,-0.1875 -0.046875,-0.203125 C 6.109375,28.796875 4.8125,28 4.53125,26.265625 4.5,26.015625 4.5,25.984375 4.5,25.859375 l 0,-7.640625 C 4.5,17.109375 3.734375,15.4375 2,14.546875 3.078125,13.96875 4.359375,12.8125 4.484375,10.953125 L 4.5,10.890625 l 0,-6.90625 c 0,-0.828125 0,-1 0.078125,-1.375 C 4.75,1.796875 5.234375,0.8125 6.5,0.0625 6.578125,0.015625 6.59375,0.015625 6.59375,-0.171875 c 0,-0.21875 -0.015625,-0.234375 -0.234375,-0.234375 -0.171875,0 -0.203125,0 -0.46875,0.171875 C 3.65625,1.03125 3.53125,2.875 3.53125,3.234375 l 0,7.078125 c 0,0.71875 0,1.53125 -0.515625,2.453125 -0.46875,0.8125 -1,1.21875 -1.4375,1.515625 -0.125,0.07813 -0.140625,0.09375 -0.140625,0.265625 0,0.171875 0.015625,0.1875 0.09375,0.234375 0.84375,0.5625 1.75,1.453125 1.96875,3.078125 0.03125,0.21875 0.03125,0.234375 0.03125,0.359375 z m 0,0"
               id="path10186"
               style="stroke:none" />
          </symbol>
        </g>
      </defs>
      <g
         id="textext-f3614946-19">
        <g
           id="g10189"
           style="fill:#000000;fill-opacity:1">
          <use
             id="use10191"
             x="316.46899"
             y="143.793"
             width="744.09448"
             height="1052.3622"
             xlink:href="#textext-f3614946-0" />
          <use
             id="use10193"
             x="320.39825"
             y="143.793"
             width="744.09448"
             height="1052.3622"
             xlink:href="#textext-f3614946-1" />
          <use
             id="use10195"
             x="323.16586"
             y="143.793"
             width="744.09448"
             height="1052.3622"
             xlink:href="#textext-f3614946-2" />
          <use
             id="use10197"
             x="328.70108"
             y="143.793"
             width="744.09448"
             height="1052.3622"
             xlink:href="#textext-f3614946-3" />
          <use
             id="use10199"
             x="333.12845"
             y="143.793"
             width="744.09448"
             height="1052.3622"
             xlink:href="#textext-f3614946-4" />
        </g>
        <g
           id="g10201"
           style="fill:#000000;fill-opacity:1">
          <use
             id="use10203"
             x="337.00299"
             y="143.793"
             width="744.09448"
             height="1052.3622"
             xlink:href="#textext-f3614946-16" />
        </g>
        <g
           id="g10205"
           style="fill:#000000;fill-opacity:1">
          <use
             id="use10207"
             x="342.69699"
             y="143.793"
             width="744.09448"
             height="1052.3622"
             xlink:href="#textext-f3614946-5" />
        </g>
        <g
           id="g10209"
           style="fill:#000000;fill-opacity:1">
          <use
             id="use10211"
             x="349.34106"
             y="143.793"
             width="744.09448"
             height="1052.3622"
             xlink:href="#textext-f3614946-6" />
        </g>
        <g
           id="g10213"
           style="fill:#000000;fill-opacity:1">
          <use
             id="use10215"
             x="359.85501"
             y="126.757"
             width="744.09448"
             height="1052.3622"
             xlink:href="#textext-f3614946-18" />
        </g>
        <g
           id="g10217"
           style="fill:#000000;fill-opacity:1">
          <use
             id="use10219"
             x="372.862"
             y="133.17101"
             width="744.09448"
             height="1052.3622"
             xlink:href="#textext-f3614946-7" />
        </g>
        <g
           id="g10221"
           style="fill:#000000;fill-opacity:1">
          <use
             id="use10223"
             x="426.88919"
             y="133.17101"
             width="744.09448"
             height="1052.3622"
             xlink:href="#textext-f3614946-8" />
          <use
             id="use10225"
             x="429.93375"
             y="133.17101"
             width="744.09448"
             height="1052.3622"
             xlink:href="#textext-f3614946-9" />
          <use
             id="use10227"
             x="434.91504"
             y="133.17101"
             width="744.09448"
             height="1052.3622"
             xlink:href="#textext-f3614946-10" />
        </g>
        <g
           id="g10229"
           style="fill:#000000;fill-opacity:1">
          <use
             id="use10231"
             x="441.58401"
             y="133.17101"
             width="744.09448"
             height="1052.3622"
             xlink:href="#textext-f3614946-16" />
        </g>
        <g
           id="g10233"
           style="fill:#000000;fill-opacity:1">
          <use
             id="use10235"
             x="450.04501"
             y="133.17101"
             width="744.09448"
             height="1052.3622"
             xlink:href="#textext-f3614946-6" />
        </g>
        <g
           id="g10237"
           style="fill:#000000;fill-opacity:1">
          <use
             id="use10239"
             x="460.56351"
             y="133.17101"
             width="744.09448"
             height="1052.3622"
             xlink:href="#textext-f3614946-11" />
        </g>
        <g
           id="g10241"
           style="fill:#000000;fill-opacity:1">
          <use
             id="use10243"
             x="374.05701"
             y="144.229"
             width="744.09448"
             height="1052.3622"
             xlink:href="#textext-f3614946-0" />
          <use
             id="use10245"
             x="377.98624"
             y="144.229"
             width="744.09448"
             height="1052.3622"
             xlink:href="#textext-f3614946-1" />
          <use
             id="use10247"
             x="380.75385"
             y="144.229"
             width="744.09448"
             height="1052.3622"
             xlink:href="#textext-f3614946-2" />
          <use
             id="use10249"
             x="386.28909"
             y="144.229"
             width="744.09448"
             height="1052.3622"
             xlink:href="#textext-f3614946-4" />
        </g>
        <g
           id="g10251"
           style="fill:#000000;fill-opacity:1">
          <use
             id="use10253"
             x="390.16299"
             y="144.229"
             width="744.09448"
             height="1052.3622"
             xlink:href="#textext-f3614946-17" />
        </g>
        <g
           id="g10255"
           style="fill:#000000;fill-opacity:1">
          <use
             id="use10257"
             x="396.20035"
             y="144.229"
             width="744.09448"
             height="1052.3622"
             xlink:href="#textext-f3614946-16" />
        </g>
        <g
           id="g10259"
           style="fill:#000000;fill-opacity:1">
          <use
             id="use10261"
             x="401.89401"
             y="144.229"
             width="744.09448"
             height="1052.3622"
             xlink:href="#textext-f3614946-5" />
        </g>
        <path
           d="m 0.00159375,0.0014375 31.71093725,0"
           transform="matrix(1,0,0,-1,374.057,148.478)"
           id="path10263"
           style="fill:none;stroke:#000000;stroke-width:0.398;stroke-linecap:butt;stroke-linejoin:miter;stroke-miterlimit:10;stroke-opacity:1" />
        <g
           id="g10265"
           style="fill:#000000;fill-opacity:1">
          <use
             id="use10267"
             x="384.047"
             y="157.80299"
             width="744.09448"
             height="1052.3622"
             xlink:href="#textext-f3614946-17" />
        </g>
        <g
           id="g10269"
           style="fill:#000000;fill-opacity:1">
          <use
             id="use10271"
             x="390.08435"
             y="157.80299"
             width="744.09448"
             height="1052.3622"
             xlink:href="#textext-f3614946-16" />
        </g>
        <g
           id="g10273"
           style="fill:#000000;fill-opacity:1">
          <use
             id="use10275"
             x="426.88901"
             y="150.96899"
             width="744.09448"
             height="1052.3622"
             xlink:href="#textext-f3614946-9" />
          <use
             id="use10277"
             x="431.8703"
             y="150.96899"
             width="744.09448"
             height="1052.3622"
             xlink:href="#textext-f3614946-12" />
          <use
             id="use10279"
             x="435.74475"
             y="150.96899"
             width="744.09448"
             height="1052.3622"
             xlink:href="#textext-f3614946-13" />
          <use
             id="use10281"
             x="441.27997"
             y="150.96899"
             width="744.09448"
             height="1052.3622"
             xlink:href="#textext-f3614946-14" />
          <use
             id="use10283"
             x="445.70737"
             y="150.96899"
             width="744.09448"
             height="1052.3622"
             xlink:href="#textext-f3614946-10" />
          <use
             id="use10285"
             x="449.60971"
             y="150.96899"
             width="744.09448"
             height="1052.3622"
             xlink:href="#textext-f3614946-15" />
          <use
             id="use10287"
             x="456.80469"
             y="150.96899"
             width="744.09448"
             height="1052.3622"
             xlink:href="#textext-f3614946-1" />
          <use
             id="use10289"
             x="459.5723"
             y="150.96899"
             width="744.09448"
             height="1052.3622"
             xlink:href="#textext-f3614946-0" />
          <use
             id="use10291"
             x="463.50156"
             y="150.96899"
             width="744.09448"
             height="1052.3622"
             xlink:href="#textext-f3614946-14" />
        </g>
      </g>
    </g>
  </g>
</svg>
